<?xml version="1.0" encoding="utf-8"?>
<!-- Generator: Adobe Illustrator 17.0.0, SVG Export Plug-In . SVG Version: 6.00 Build 0)  -->
<!DOCTYPE svg PUBLIC "-//W3C//DTD SVG 1.1//EN" "http://www.w3.org/Graphics/SVG/1.1/DTD/svg11.dtd">
<svg version="1.1" id="Layer_1" xmlns="http://www.w3.org/2000/svg" xmlns:xlink="http://www.w3.org/1999/xlink" x="0px" y="0px"
	 width="100px" height="100px" viewBox="0 0 100 100" style="enable-background:new 0 0 100 100;" xml:space="preserve">
<g>
	<path style="fill:#667766;" d="M50,99.2c-27.3,0-49.6-22.2-49.6-49.6C0.4,22.2,22.7,0,50,0c27.3,0,49.6,22.2,49.6,49.6
		C99.6,76.9,77.3,99.2,50,99.2z M50,12.5c-20.4,0-37.1,16.6-37.1,37.1C12.9,70,29.6,86.7,50,86.7c20.4,0,37.1-16.6,37.1-37.1
		C87.1,29.1,70.4,12.5,50,12.5z"/>
	<g>
		<path style="fill-rule:evenodd;clip-rule:evenodd;fill:#667766;" d="M47.9,47.4c-0.3-1,0-2.1-0.6-2.9c-1.3-1.7-3,0.3-4.4,0.7
			c-2.5,0.6-3.9-1.8-3.4-4.2c0.3-1.5,1.3-2.5,2.5-3.2c1.1-0.6,2.4-1,3.6-1.5c0.5-0.2,1.1-0.4,1.6-0.4c1.5,0,3.7,2.8,4.5,2.6
			c0.9-0.3-0.2-1.9-0.2-2.5c0-1.9,1.9-3.4,2.5-5.3c0.5-1.7,1.2-3.8,2.7-4.9c1.9-1.4,4.2-1.8,6.1-2.9c2.7-1.5-8.7-10.1-11.5-9.7
			c-2.7,0.3-1.3,2.2-1.1,4.1c0.5,4.3-4.9,0-4.9,4.4c0-0.4-1.4-3.4-1.7-3.9c-1.3-2.1-2.5-1-4.4-0.3c-2.1,0.8-4.4-0.4-5-2.7
			c-0.5-2.1,1.2-4.6-1.9-5.2c-2.8-0.5-6.1,0.5-8.7,1.4c-1.8,0.6-5.1,4.1-3.2,6.1c2.7,2.8,0,0,2.7,2.4c2.2,1.9,1.6,7.2,1.3,9.8
			c-0.7,5.6,3.4,9.3,7.2,12.6c5.8,5.1,12.9,8.2,19.9,11.4c-0.5-0.2-0.7-2.2-1-2.8c-0.6-0.9-1.5-1.3-2.3-2.1
			C48.1,48,48,47.8,47.9,47.4z"/>
		<path style="fill-rule:evenodd;clip-rule:evenodd;fill:#667766;" d="M87,66.6c-0.3-4.3-4.9-7.8-8-10.3c-3.6-2.9-8-5.2-12.5-6.4
			c-2.7-0.7-11.9-1.8-12.9,2.5c-0.2,1.1,1.3,2.4,0.9,3.6c-0.6,1.8-2,3.2-2.6,5c-1,3.3,1.2,10.3,3.7,12.6c2.5,2.2,5,3.5,4.6,7.4
			c-0.5,4.3-3,8.3-3.3,12.7c-0.1,1.8,1,6.2,3.6,3.9c1.1-1,1.4-2.7,2.2-3.9c0.8-1.4,2-2.6,3.2-3.7c2.5-2.3,5.4-4,7.9-6.3
			c4.5-4.3,11.6-8.7,13.1-15.2C87,67.8,87.1,67.2,87,66.6z"/>
	</g>
</g>
</svg>
