<?xml version="1.0" encoding="utf-8"?>
<!-- Generator: Adobe Illustrator 17.0.0, SVG Export Plug-In . SVG Version: 6.00 Build 0)  -->
<!DOCTYPE svg PUBLIC "-//W3C//DTD SVG 1.1//EN" "http://www.w3.org/Graphics/SVG/1.1/DTD/svg11.dtd">
<svg version="1.1" id="Layer_1" xmlns="http://www.w3.org/2000/svg" xmlns:xlink="http://www.w3.org/1999/xlink" x="0px" y="0px"
	 width="91.7px" height="55.6px" viewBox="3.7 2.4 91.7 55.6" style="enable-background:new 3.7 2.4 91.7 55.6;"
	 xml:space="preserve">
<g>
	<path style="fill:#D73F3F;" d="M16.9,2.4l9.8,11.1H10.3L20,24.6l0.1,0.1H3.7l9.8,11.1l9.8,11.1L33,58h49.1l-9.8-11.1l-0.1-0.1h16.4
		l-9.7-11.1h16.4l-9.8-11.1l-9.8-11.1L66,2.4L16.9,2.4L16.9,2.4z"/>
	<path style="fill:#FFFFFF;" d="M69.2,30.2c0,10.2-8.8,18.5-19.8,18.5s-19.8-8.3-19.8-18.5c0-10.2,8.8-18.5,19.8-18.5
		S69.2,20,69.2,30.2z"/>
	<g>
		<path style="fill:#D73F3F;" d="M38.5,31.5v6.2h-2.3V23.6h2.3v5.9h3.3v-5.9h2.3v14.1h-2.3v-6.2H38.5"/>
		<path style="fill:#D73F3F;" d="M48.6,33.2v0.7l0,0.5l0.1,0.4l0.2,0.3c0.1,0.2,0.3,0.4,0.6,0.6c0.3,0.1,0.6,0.2,0.9,0.2
			s0.6-0.1,0.9-0.2c0.3-0.1,0.5-0.3,0.6-0.6c0.1-0.1,0.1-0.2,0.1-0.3c0-0.1,0.1-0.2,0.1-0.4c0-0.1,0-0.3,0-0.5c0-0.2,0-0.4,0-0.7v-5
			c0-0.3,0-0.5,0-0.7c0-0.2,0-0.4,0-0.5c0-0.1,0-0.3-0.1-0.4c0-0.1-0.1-0.2-0.1-0.3c-0.1-0.2-0.3-0.4-0.6-0.5
			c-0.3-0.1-0.5-0.2-0.9-0.2c-0.3,0-0.6,0.1-0.9,0.2c-0.3,0.1-0.5,0.3-0.6,0.5c-0.1,0.2-0.2,0.4-0.2,0.7c0,0.3,0,0.7,0,1.2V33.2
			 M54.4,33.2c0,0.8-0.1,1.5-0.2,2s-0.4,1-0.7,1.4c-0.7,0.9-1.8,1.4-3.2,1.4c-1.5,0-2.6-0.5-3.2-1.4c-0.3-0.4-0.5-0.9-0.7-1.4
			c-0.1-0.5-0.2-1.2-0.2-2v-5.1c0-0.8,0.1-1.5,0.2-2s0.4-1,0.7-1.4c0.7-0.9,1.8-1.4,3.2-1.4c1.5,0,2.6,0.5,3.2,1.4
			c0.3,0.4,0.5,0.9,0.7,1.4c0.1,0.5,0.2,1.2,0.2,2V33.2"/>
		<path style="fill:#D73F3F;" d="M61.1,37.7h-2.3V25.6h-2.9v-2H64v2h-2.9V37.7"/>
	</g>
</g>
</svg>
