<?xml version="1.0" encoding="utf-8"?>
<!-- Generator: Adobe Illustrator 17.0.0, SVG Export Plug-In . SVG Version: 6.00 Build 0)  -->
<!DOCTYPE svg PUBLIC "-//W3C//DTD SVG 1.1//EN" "http://www.w3.org/Graphics/SVG/1.1/DTD/svg11.dtd">
<svg version="1.1" id="Layer_1" xmlns="http://www.w3.org/2000/svg" xmlns:xlink="http://www.w3.org/1999/xlink" x="0px" y="0px"
	 width="100px" height="100px" viewBox="0 0 100 100" style="enable-background:new 0 0 100 100;" xml:space="preserve">
<g>
	<path style="fill:#667766;" d="M92.7,14.7H65.6c-0.2-3-1.2-6-3-8.5c-2.8-3.9-7.2-6.1-12.1-6.1c-4.7,0-9,2.1-11.9,5.9
		c-1.9,2.5-3,5.6-3.2,8.7H8.4c-2.7,0-4.8,2.2-4.8,4.8V95c0,2.7,2.2,4.8,4.8,4.8h84.3c2.7,0,4.8-2.2,4.8-4.8V19.5
		C97.5,16.8,95.3,14.7,92.7,14.7z M43.7,9.8c1.6-2.2,4-3.3,6.8-3.3c2.8,0,5.2,1.2,6.9,3.5c1.7,2.4,2.2,5.5,1.3,8.3l-8.6,29.5
		c-0.4-1.6-0.8-3.1-1.3-4.7c-2.2-8.3-4.5-16.6-6.8-25C41.4,15.3,42,12.2,43.7,9.8z M23.4,90.2H13.2V77.4h10.2V90.2z M29.8,90.2v-16
		c0-1.8-1.4-3.2-3.2-3.2H13.2V42.2c10.6,7.7,29.3,24.4,30.9,48H29.8z M13.2,34.4V24.3h24c1.9,6.8,3.7,13.7,5.6,20.5
		c1.4,5.3,2.8,10.5,4.3,15.8c0.4,1.4,1.6,2.4,3.1,2.4c0,0,0,0,0,0c1.4,0,2.7-0.9,3.1-2.3l10.5-36.4h8.7c3.4,18.4-3.8,38-5.2,41.6
		c-5.3,5.3-11.1,12.1-17,20.4C46.5,58.6,23,40.7,13.2,34.4z M87.8,90.2H55.2C68.3,71.9,81,61.6,87.8,56.8V90.2z M87.8,49.2
		c-2.4,1.4-6.3,4-11.1,8c2.2-8.6,4.2-20.8,2.2-32.9h8.9V49.2z"/>
	<circle style="fill:#667766;" cx="50.5" cy="14.6" r="4.9"/>
</g>
</svg>
