<svg xmlns="http://www.w3.org/2000/svg" width="100" height="100"><g fill="#676"><path d="M92.7 14.7h-27.1c-.2-3-1.2-6-3-8.5-2.8-3.9-7.2-6.1-12.1-6.1-4.7 0-9 2.1-11.9 5.9-1.9 2.5-3 5.6-3.2 8.7h-27c-2.7 0-4.8 2.2-4.8 4.8v75.5c0 2.7 2.2 4.8 4.8 4.8h84.3c2.7 0 4.8-2.2 4.8-4.8v-75.5c0-2.7-2.2-4.8-4.8-4.8zm-49-4.9c1.6-2.2 4-3.3 6.8-3.3s5.2 1.2 6.9 3.5c1.7 2.4 2.2 5.5 1.3 8.3l-8.6 29.5c-.4-1.6-.8-3.1-1.3-4.7-2.2-8.3-4.5-16.6-6.8-25-.6-2.8 0-5.9 1.7-8.3zm-20.3 80.4h-10.2v-12.8h10.2v12.8zm6.4 0v-16c0-1.8-1.4-3.2-3.2-3.2h-13.4v-28.8c10.6 7.7 29.3 24.4 30.9 48h-14.3zm-16.6-55.8v-10.1h24l5.6 20.5c1.4 5.3 2.8 10.5 4.3 15.8.4 1.4 1.6 2.4 3.1 2.4 1.4 0 2.7-.9 3.1-2.3l10.5-36.4h8.7c3.4 18.4-3.8 38-5.2 41.6-5.3 5.3-11.1 12.1-17 20.4-3.8-27.7-27.3-45.6-37.1-51.9zm74.6 55.8h-32.6c13.1-18.3 25.8-28.6 32.6-33.4v33.4zm0-41c-2.4 1.4-6.3 4-11.1 8 2.2-8.6 4.2-20.8 2.2-32.9h8.9v24.9z"/><circle cx="50.5" cy="14.6" r="4.9"/></g></svg>