<?xml version="1.0" encoding="UTF-8" standalone="no"?>
<!-- Created with Inkscape (http://www.inkscape.org/) -->

<svg
   xmlns:dc="http://purl.org/dc/elements/1.1/"
   xmlns:cc="http://creativecommons.org/ns#"
   xmlns:rdf="http://www.w3.org/1999/02/22-rdf-syntax-ns#"
   xmlns:svg="http://www.w3.org/2000/svg"
   xmlns="http://www.w3.org/2000/svg"
   xmlns:sodipodi="http://sodipodi.sourceforge.net/DTD/sodipodi-0.dtd"
   xmlns:inkscape="http://www.inkscape.org/namespaces/inkscape"
   width="72.199997"
   height="103.99999"
   id="svg3550"
   version="1.1"
   inkscape:version="0.48.3.1 r9886"
   sodipodi:docname="mapgive_red_pt.svg">
  <defs
     id="defs3552">
    <mask
       id="d"
       height="7.1"
       width="56.7"
       y="199.9"
       x="185.7"
       maskUnits="userSpaceOnUse">
      <g
         id="g3515"
         style="filter:url(#c)">
        <g
           id="g3517">
          <ellipse
             id="ellipse3519"
             ry="3.5999999"
             rx="28.299999"
             cy="203.39999"
             cx="214.10001"
             sodipodi:cx="214.10001"
             sodipodi:cy="203.39999"
             sodipodi:rx="28.299999"
             sodipodi:ry="3.5999999"
             d="m 242.40001,203.39999 c 0,1.98823 -12.67035,3.6 -28.3,3.6 -15.62966,0 -28.3,-1.61177 -28.3,-3.6 0,-1.98822 12.67034,-3.6 28.3,-3.6 15.62965,0 28.3,1.61178 28.3,3.6 z" />
          <ellipse
             id="ellipse3521"
             ry="3.4000001"
             rx="27.299999"
             cy="203.39999"
             cx="214.10001"
             sodipodi:cx="214.10001"
             sodipodi:cy="203.39999"
             sodipodi:rx="27.299999"
             sodipodi:ry="3.4000001"
             style="fill:#070707"
             d="m 241.40001,203.39999 c 0,1.87777 -12.22263,3.4 -27.3,3.4 -15.07738,0 -27.3,-1.52223 -27.3,-3.4 0,-1.87776 12.22262,-3.4 27.3,-3.4 15.07737,0 27.3,1.52224 27.3,3.4 z" />
          <ellipse
             id="ellipse3523"
             ry="3.3"
             rx="26.299999"
             cy="203.39999"
             cx="214.10001"
             sodipodi:cx="214.10001"
             sodipodi:cy="203.39999"
             sodipodi:rx="26.299999"
             sodipodi:ry="3.3"
             style="fill:#0d0d0d"
             d="m 240.40001,203.39999 c 0,1.82254 -11.77492,3.3 -26.3,3.3 -14.52509,0 -26.3,-1.47746 -26.3,-3.3 0,-1.82254 11.77491,-3.3 26.3,-3.3 14.52508,0 26.3,1.47746 26.3,3.3 z" />
          <ellipse
             id="ellipse3525"
             ry="3.2"
             rx="25.200001"
             cy="203.39999"
             cx="214.10001"
             sodipodi:cx="214.10001"
             sodipodi:cy="203.39999"
             sodipodi:rx="25.200001"
             sodipodi:ry="3.2"
             style="fill:#141414"
             d="m 239.30001,203.39999 c 0,1.76732 -11.28243,3.2 -25.2,3.2 -13.91758,0 -25.2,-1.43268 -25.2,-3.2 0,-1.76731 11.28242,-3.2 25.2,-3.2 13.91757,0 25.2,1.43269 25.2,3.2 z" />
          <ellipse
             id="ellipse3527"
             ry="3"
             rx="24.1"
             cy="203.39999"
             cx="214.10001"
             sodipodi:cx="214.10001"
             sodipodi:cy="203.39999"
             sodipodi:rx="24.1"
             sodipodi:ry="3"
             style="fill:#1b1b1b"
             d="m 238.20001,203.39999 c 0,1.65686 -10.78994,3 -24.1,3 -13.31007,0 -24.1,-1.34314 -24.1,-3 0,-1.65685 10.78993,-3 24.1,-3 13.31006,0 24.1,1.34315 24.1,3 z" />
          <ellipse
             id="ellipse3529"
             ry="2.9000001"
             rx="23.1"
             cy="203.39999"
             cx="214.10001"
             sodipodi:cx="214.10001"
             sodipodi:cy="203.39999"
             sodipodi:rx="23.1"
             sodipodi:ry="2.9000001"
             style="fill:#212121"
             d="m 237.20001,203.39999 c 0,1.60163 -10.34223,2.9 -23.1,2.9 -12.75778,0 -23.1,-1.29837 -23.1,-2.9 0,-1.60162 10.34222,-2.9 23.1,-2.9 12.75777,0 23.1,1.29838 23.1,2.9 z" />
          <ellipse
             id="ellipse3531"
             ry="2.8"
             rx="22.1"
             cy="203.39999"
             cx="214.10001"
             sodipodi:cx="214.10001"
             sodipodi:cy="203.39999"
             sodipodi:rx="22.1"
             sodipodi:ry="2.8"
             style="fill:#282828"
             d="m 236.20001,203.39999 c 0,1.5464 -9.89451,2.8 -22.1,2.8 -12.2055,0 -22.1,-1.2536 -22.1,-2.8 0,-1.54639 9.8945,-2.8 22.1,-2.8 12.20549,0 22.1,1.25361 22.1,2.8 z" />
          <ellipse
             id="ellipse3533"
             ry="2.7"
             rx="21"
             cy="203.39999"
             cx="214.10001"
             sodipodi:cx="214.10001"
             sodipodi:cy="203.39999"
             sodipodi:rx="21"
             sodipodi:ry="2.7"
             style="fill:#2f2f2f"
             d="m 235.10001,203.39999 c 0,1.49117 -9.40202,2.7 -21,2.7 -11.59798,0 -21,-1.20883 -21,-2.7 0,-1.49116 9.40202,-2.7 21,-2.7 11.59798,0 21,1.20884 21,2.7 z" />
          <ellipse
             id="ellipse3535"
             ry="2.5"
             rx="20"
             cy="203.39999"
             cx="214.10001"
             sodipodi:cx="214.10001"
             sodipodi:cy="203.39999"
             sodipodi:rx="20"
             sodipodi:ry="2.5"
             style="fill:#353535"
             d="m 234.10001,203.39999 c 0,1.38072 -8.95431,2.5 -20,2.5 -11.0457,0 -20,-1.11928 -20,-2.5 0,-1.38071 8.9543,-2.5 20,-2.5 11.04569,0 20,1.11929 20,2.5 z" />
          <ellipse
             id="ellipse3537"
             ry="2.4000001"
             rx="18.9"
             cy="203.39999"
             cx="214.10001"
             sodipodi:cx="214.10001"
             sodipodi:cy="203.39999"
             sodipodi:rx="18.9"
             sodipodi:ry="2.4000001"
             style="fill:#3c3c3c"
             d="m 233.00001,203.39999 c 0,1.32549 -8.46182,2.4 -18.9,2.4 -10.43819,0 -18.9,-1.07451 -18.9,-2.4 0,-1.32548 8.46181,-2.4 18.9,-2.4 10.43818,0 18.9,1.07452 18.9,2.4 z" />
          <ellipse
             id="ellipse3539"
             ry="2.3"
             rx="17.9"
             cy="203.39999"
             cx="214.10001"
             sodipodi:cx="214.10001"
             sodipodi:cy="203.39999"
             sodipodi:rx="17.9"
             sodipodi:ry="2.3"
             style="fill:#434343"
             d="m 232.00001,203.39999 c 0,1.27026 -8.01411,2.3 -17.9,2.3 -9.8859,0 -17.9,-1.02974 -17.9,-2.3 0,-1.27025 8.0141,-2.3 17.9,-2.3 9.88589,0 17.9,1.02975 17.9,2.3 z" />
          <ellipse
             id="ellipse3541"
             ry="2.2"
             rx="16.9"
             cy="203.39999"
             cx="214.10001"
             sodipodi:cx="214.10001"
             sodipodi:cy="203.39999"
             sodipodi:rx="16.9"
             sodipodi:ry="2.2"
             style="fill:#494949"
             d="m 231.00001,203.39999 c 0,1.21503 -7.56639,2.2 -16.9,2.2 -9.33362,0 -16.9,-0.98497 -16.9,-2.2 0,-1.21502 7.56638,-2.2 16.9,-2.2 9.33361,0 16.9,0.98498 16.9,2.2 z" />
          <ellipse
             id="ellipse3543"
             ry="2"
             rx="15.8"
             cy="203.39999"
             cx="214.10001"
             sodipodi:cx="214.10001"
             sodipodi:cy="203.39999"
             sodipodi:rx="15.8"
             sodipodi:ry="2"
             style="fill:#505050"
             d="m 229.90001,203.39999 c 0,1.10457 -7.0739,2 -15.8,2 -8.7261,0 -15.8,-0.89543 -15.8,-2 0,-1.10457 7.0739,-2 15.8,-2 8.7261,0 15.8,0.89543 15.8,2 z" />
          <ellipse
             id="ellipse3545"
             ry="1.9"
             rx="14.7"
             cy="203.39999"
             cx="214.10001"
             sodipodi:cx="214.10001"
             sodipodi:cy="203.39999"
             sodipodi:rx="14.7"
             sodipodi:ry="1.9"
             style="fill:#565656"
             d="m 228.80001,203.39999 c 0,1.04934 -6.58142,1.9 -14.7,1.9 -8.11859,0 -14.7,-0.85066 -14.7,-1.9 0,-1.04934 6.58141,-1.9 14.7,-1.9 8.11858,0 14.7,0.85066 14.7,1.9 z" />
          <ellipse
             id="ellipse3547"
             ry="1.8"
             rx="13.7"
             cy="203.39999"
             cx="214.10001"
             sodipodi:cx="214.10001"
             sodipodi:cy="203.39999"
             sodipodi:rx="13.7"
             sodipodi:ry="1.8"
             style="fill:#5d5d5d"
             d="m 227.80001,203.39999 c 0,0.99412 -6.1337,1.8 -13.7,1.8 -7.5663,0 -13.7,-0.80588 -13.7,-1.8 0,-0.99411 6.1337,-1.8 13.7,-1.8 7.5663,0 13.7,0.80589 13.7,1.8 z" />
          <ellipse
             id="ellipse3549"
             ry="1.7"
             rx="12.7"
             cy="203.39999"
             cx="214.10001"
             sodipodi:cx="214.10001"
             sodipodi:cy="203.39999"
             sodipodi:rx="12.7"
             sodipodi:ry="1.7"
             style="fill:#646464"
             d="m 226.80001,203.39999 c 0,0.93889 -5.68599,1.7 -12.7,1.7 -7.01402,0 -12.7,-0.76111 -12.7,-1.7 0,-0.93888 5.68598,-1.7 12.7,-1.7 7.01401,0 12.7,0.76112 12.7,1.7 z" />
          <ellipse
             id="ellipse3551"
             ry="1.5"
             rx="11.7"
             cy="203.39999"
             cx="214.10001"
             sodipodi:cx="214.10001"
             sodipodi:cy="203.39999"
             sodipodi:rx="11.7"
             sodipodi:ry="1.5"
             style="fill:#6a6a6a"
             d="m 225.80001,203.39999 c 0,0.82843 -5.23827,1.5 -11.7,1.5 -6.46174,0 -11.7,-0.67157 -11.7,-1.5 0,-0.82842 5.23826,-1.5 11.7,-1.5 6.46173,0 11.7,0.67158 11.7,1.5 z" />
          <ellipse
             id="ellipse3553"
             ry="1.4"
             rx="10.5"
             cy="203.39999"
             cx="214.10001"
             sodipodi:cx="214.10001"
             sodipodi:cy="203.39999"
             sodipodi:rx="10.5"
             sodipodi:ry="1.4"
             style="fill:#717171"
             d="m 224.60001,203.39999 c 0,0.7732 -4.70101,1.4 -10.5,1.4 -5.79899,0 -10.5,-0.6268 -10.5,-1.4 0,-0.77319 4.70101,-1.4 10.5,-1.4 5.79899,0 10.5,0.62681 10.5,1.4 z" />
          <ellipse
             id="ellipse3555"
             ry="1.3"
             rx="9.5"
             cy="203.39999"
             cx="214.10001"
             sodipodi:cx="214.10001"
             sodipodi:cy="203.39999"
             sodipodi:rx="9.5"
             sodipodi:ry="1.3"
             style="fill:#787878"
             d="m 223.60001,203.39999 c 0,0.71797 -4.2533,1.3 -9.5,1.3 -5.24671,0 -9.5,-0.58203 -9.5,-1.3 0,-0.71797 4.25329,-1.3 9.5,-1.3 5.2467,0 9.5,0.58203 9.5,1.3 z" />
          <ellipse
             id="ellipse3557"
             ry="1"
             rx="8.5"
             cy="203.39999"
             cx="214.10001"
             sodipodi:cx="214.10001"
             sodipodi:cy="203.39999"
             sodipodi:rx="8.5"
             sodipodi:ry="1"
             style="fill:#7e7e7e"
             d="m 222.60001,203.39999 c 0,0.55229 -3.80558,1 -8.5,1 -4.69442,0 -8.5,-0.44771 -8.5,-1 0,-0.55228 3.80558,-1 8.5,-1 4.69442,0 8.5,0.44772 8.5,1 z" />
          <ellipse
             id="ellipse3559"
             ry="0.89999998"
             rx="7.5"
             cy="203.39999"
             cx="214.10001"
             sodipodi:cx="214.10001"
             sodipodi:cy="203.39999"
             sodipodi:rx="7.5"
             sodipodi:ry="0.89999998"
             style="fill:#858585"
             d="m 221.60001,203.39999 c 0,0.49706 -3.35787,0.9 -7.5,0.9 -4.14214,0 -7.5,-0.40294 -7.5,-0.9 0,-0.49705 3.35786,-0.9 7.5,-0.9 4.14213,0 7.5,0.40295 7.5,0.9 z" />
          <ellipse
             id="ellipse3561"
             ry="0.80000001"
             rx="6.5"
             cy="203.39999"
             cx="214.10001"
             sodipodi:cx="214.10001"
             sodipodi:cy="203.39999"
             sodipodi:rx="6.5"
             sodipodi:ry="0.80000001"
             style="fill:#8c8c8c"
             d="m 220.60001,203.39999 c 0,0.44183 -2.91015,0.8 -6.5,0.8 -3.58985,0 -6.5,-0.35817 -6.5,-0.8 0,-0.44182 2.91015,-0.8 6.5,-0.8 3.58985,0 6.5,0.35818 6.5,0.8 z" />
          <ellipse
             id="ellipse3563"
             ry="0.60000002"
             rx="5.3000002"
             cy="203.39999"
             cx="214.10001"
             sodipodi:cx="214.10001"
             sodipodi:cy="203.39999"
             sodipodi:rx="5.3000002"
             sodipodi:ry="0.60000002"
             style="fill:#929292"
             d="m 219.40001,203.39999 c 0,0.33137 -2.37289,0.6 -5.3,0.6 -2.92711,0 -5.3,-0.26863 -5.3,-0.6 0,-0.33137 2.37289,-0.6 5.3,-0.6 2.92711,0 5.3,0.26863 5.3,0.6 z" />
          <ellipse
             id="ellipse3565"
             ry="0.5"
             rx="4.3000002"
             cy="203.39999"
             cx="214.10001"
             sodipodi:cx="214.10001"
             sodipodi:cy="203.39999"
             sodipodi:rx="4.3000002"
             sodipodi:ry="0.5"
             style="fill:#999999"
             d="m 218.40001,203.39999 c 0,0.27615 -1.92518,0.5 -4.3,0.5 -2.37483,0 -4.3,-0.22385 -4.3,-0.5 0,-0.27614 1.92517,-0.5 4.3,-0.5 2.37482,0 4.3,0.22386 4.3,0.5 z" />
          <ellipse
             id="ellipse3567"
             ry="0.40000001"
             rx="3.3"
             cy="203.39999"
             cx="214.10001"
             sodipodi:cx="214.10001"
             sodipodi:cy="203.39999"
             sodipodi:rx="3.3"
             sodipodi:ry="0.40000001"
             style="fill:#a0a0a0"
             d="m 217.40001,203.39999 c 0,0.22092 -1.47746,0.4 -3.3,0.4 -1.82254,0 -3.3,-0.17908 -3.3,-0.4 0,-0.22091 1.47746,-0.4 3.3,-0.4 1.82254,0 3.3,0.17909 3.3,0.4 z" />
          <ellipse
             id="ellipse3569"
             ry="0.30000001"
             rx="2.3"
             cy="203.39999"
             cx="214.10001"
             sodipodi:cx="214.10001"
             sodipodi:cy="203.39999"
             sodipodi:rx="2.3"
             sodipodi:ry="0.30000001"
             style="fill:#a6a6a6"
             d="m 216.40001,203.39999 c 0,0.16569 -1.02975,0.3 -2.3,0.3 -1.27026,0 -2.3,-0.13431 -2.3,-0.3 0,-0.16568 1.02974,-0.3 2.3,-0.3 1.27025,0 2.3,0.13432 2.3,0.3 z" />
          <ellipse
             id="ellipse3571"
             ry="0.1"
             rx="1.3"
             cy="203.39999"
             cx="214.10001"
             sodipodi:cx="214.10001"
             sodipodi:cy="203.39999"
             sodipodi:rx="1.3"
             sodipodi:ry="0.1"
             style="fill:#adadad"
             d="m 215.40001,203.39999 c 0,0.0552 -0.58203,0.1 -1.3,0.1 -0.71797,0 -1.3,-0.0448 -1.3,-0.1 0,-0.0552 0.58203,-0.1 1.3,-0.1 0.71797,0 1.3,0.0448 1.3,0.1 z" />
        </g>
      </g>
    </mask>
    <filter
       height="7.0999999"
       width="56.700001"
       y="199.89999"
       x="185.7"
       filterUnits="userSpaceOnUse"
       id="c"
       color-interpolation-filters="sRGB">
      <feColorMatrix
         id="feColorMatrix3512"
         values="1 0 0 0 0 0 1 0 0 0 0 0 1 0 0 0 0 0 1 0" />
    </filter>
  </defs>
  <sodipodi:namedview
     id="base"
     pagecolor="#ffffff"
     bordercolor="#666666"
     borderopacity="1.0"
     inkscape:pageopacity="0.0"
     inkscape:pageshadow="2"
     inkscape:zoom="6.0432441"
     inkscape:cx="13.138251"
     inkscape:cy="52.560747"
     inkscape:document-units="px"
     inkscape:current-layer="layer1"
     showgrid="false"
     inkscape:window-width="1383"
     inkscape:window-height="881"
     inkscape:window-x="397"
     inkscape:window-y="77"
     inkscape:window-maximized="0"
     fit-margin-top="3"
     fit-margin-left="3"
     fit-margin-right="3"
     fit-margin-bottom="1" />
  <metadata
     id="metadata3555">
    <rdf:RDF>
      <cc:Work
         rdf:about="">
        <dc:format>image/svg+xml</dc:format>
        <dc:type
           rdf:resource="http://purl.org/dc/dcmitype/StillImage" />
        <dc:title />
      </cc:Work>
    </rdf:RDF>
  </metadata>
  <g
     inkscape:label="Layer 1"
     inkscape:groupmode="layer"
     id="layer1"
     transform="translate(-312.47143,-319.36219)">
    <g
       id="g3495"
       transform="translate(134.47143,215.36219)">
      <path
         id="path3497"
         d="m 214.1,203.6 c 0,0 -1.3,-5.6 -10.5,-23.3 C 194.2,162.7 181,155.2 181,138 c 0,-17.2 14.9,-31 33.1,-31 18.2,0 33.1,13.8 33.1,31 0,17.2 -13.2,24.6 -22.6,42.4 -9.3,17.6 -10.5,23.2 -10.5,23.2 z"
         inkscape:connector-curvature="0"
         style="fill:#d73f3f;fill-opacity:1" />
      <path
         id="path3499"
         d="m 231.4,121.2 15.6,14.6 c 0,0.6 0.1,1.4 0.1,2.2 0,17.1 -13.2,24.6 -22.5,42.1 l -28.3,-26.4 35.1,-32.5 z"
         inkscape:connector-curvature="0"
         style="fill:#485448;fill-opacity:0.5" />
      <g
         id="g3501">
        <path
           id="path3503"
           d="m 214.1,160.7 c 13.6,0 24.8,-10.4 24.8,-23.1 0,-12.8 -11.2,-23.1 -24.8,-23.1 -13.6,0 -24.6,10.3 -24.6,23.1 -0.1,12.7 11,23.1 24.6,23.1 z"
           inkscape:connector-curvature="0"
           style="fill:#ffffff" />
        <path
           id="path3505"
           d="m 214.1,149 c 6.7,0 12.2,-5.1 12.2,-11.4 0,-3 -1.3,-6 -3.7,-8.1 -2.3,-2.2 -5.3,-3.3 -8.5,-3.3 -3.3,0 -6.3,1.1 -8.6,3.3 -2.3,2.2 -3.6,5.1 -3.6,8.1 0,3 1.3,5.8 3.6,8 2.3,2.2 5.3,3.4 8.6,3.4 z"
           inkscape:connector-curvature="0"
           style="fill:#d73f3f;fill-opacity:1;opacity:1" />
        <path
           id="path3507"
           d="m 226.2,137.6 c 0,-3 -1.3,-6 -3.7,-8.1 l 15.2,14.2 c -2.3,7.9 -8.9,14 -17.3,16.1 l -15.2,-14.2 c 2.3,2.2 5.3,3.4 8.6,3.4 7,0 12.4,-5.2 12.4,-11.4 z"
           inkscape:connector-curvature="0"
           style="fill:#b4b4b4" />
      </g>
      <defs
         id="defs3509">
        <filter
           height="7.0999999"
           width="56.700001"
           y="199.89999"
           x="185.7"
           filterUnits="userSpaceOnUse"
           id="filter3608"
           color-interpolation-filters="sRGB">
          <feColorMatrix
             id="feColorMatrix3610"
             values="1 0 0 0 0 0 1 0 0 0 0 0 1 0 0 0 0 0 1 0" />
        </filter>
      </defs>
      <mask
         id="mask3612"
         height="7.1"
         width="56.7"
         y="199.9"
         x="185.7"
         maskUnits="userSpaceOnUse">
        <g
           id="g3614"
           style="filter:url(#c)">
          <g
             id="g3616">
            <ellipse
               id="ellipse3618"
               ry="3.5999999"
               rx="28.299999"
               cy="203.39999"
               cx="214.10001"
               sodipodi:cx="214.10001"
               sodipodi:cy="203.39999"
               sodipodi:rx="28.299999"
               sodipodi:ry="3.5999999"
               d="m 242.40001,203.39999 c 0,1.98823 -12.67035,3.6 -28.3,3.6 -15.62966,0 -28.3,-1.61177 -28.3,-3.6 0,-1.98822 12.67034,-3.6 28.3,-3.6 15.62965,0 28.3,1.61178 28.3,3.6 z" />
            <ellipse
               id="ellipse3620"
               ry="3.4000001"
               rx="27.299999"
               cy="203.39999"
               cx="214.10001"
               sodipodi:cx="214.10001"
               sodipodi:cy="203.39999"
               sodipodi:rx="27.299999"
               sodipodi:ry="3.4000001"
               style="fill:#070707"
               d="m 241.40001,203.39999 c 0,1.87777 -12.22263,3.4 -27.3,3.4 -15.07738,0 -27.3,-1.52223 -27.3,-3.4 0,-1.87776 12.22262,-3.4 27.3,-3.4 15.07737,0 27.3,1.52224 27.3,3.4 z" />
            <ellipse
               id="ellipse3622"
               ry="3.3"
               rx="26.299999"
               cy="203.39999"
               cx="214.10001"
               sodipodi:cx="214.10001"
               sodipodi:cy="203.39999"
               sodipodi:rx="26.299999"
               sodipodi:ry="3.3"
               style="fill:#0d0d0d"
               d="m 240.40001,203.39999 c 0,1.82254 -11.77492,3.3 -26.3,3.3 -14.52509,0 -26.3,-1.47746 -26.3,-3.3 0,-1.82254 11.77491,-3.3 26.3,-3.3 14.52508,0 26.3,1.47746 26.3,3.3 z" />
            <ellipse
               id="ellipse3624"
               ry="3.2"
               rx="25.200001"
               cy="203.39999"
               cx="214.10001"
               sodipodi:cx="214.10001"
               sodipodi:cy="203.39999"
               sodipodi:rx="25.200001"
               sodipodi:ry="3.2"
               style="fill:#141414"
               d="m 239.30001,203.39999 c 0,1.76732 -11.28243,3.2 -25.2,3.2 -13.91758,0 -25.2,-1.43268 -25.2,-3.2 0,-1.76731 11.28242,-3.2 25.2,-3.2 13.91757,0 25.2,1.43269 25.2,3.2 z" />
            <ellipse
               id="ellipse3626"
               ry="3"
               rx="24.1"
               cy="203.39999"
               cx="214.10001"
               sodipodi:cx="214.10001"
               sodipodi:cy="203.39999"
               sodipodi:rx="24.1"
               sodipodi:ry="3"
               style="fill:#1b1b1b"
               d="m 238.20001,203.39999 c 0,1.65686 -10.78994,3 -24.1,3 -13.31007,0 -24.1,-1.34314 -24.1,-3 0,-1.65685 10.78993,-3 24.1,-3 13.31006,0 24.1,1.34315 24.1,3 z" />
            <ellipse
               id="ellipse3628"
               ry="2.9000001"
               rx="23.1"
               cy="203.39999"
               cx="214.10001"
               sodipodi:cx="214.10001"
               sodipodi:cy="203.39999"
               sodipodi:rx="23.1"
               sodipodi:ry="2.9000001"
               style="fill:#212121"
               d="m 237.20001,203.39999 c 0,1.60163 -10.34223,2.9 -23.1,2.9 -12.75778,0 -23.1,-1.29837 -23.1,-2.9 0,-1.60162 10.34222,-2.9 23.1,-2.9 12.75777,0 23.1,1.29838 23.1,2.9 z" />
            <ellipse
               id="ellipse3630"
               ry="2.8"
               rx="22.1"
               cy="203.39999"
               cx="214.10001"
               sodipodi:cx="214.10001"
               sodipodi:cy="203.39999"
               sodipodi:rx="22.1"
               sodipodi:ry="2.8"
               style="fill:#282828"
               d="m 236.20001,203.39999 c 0,1.5464 -9.89451,2.8 -22.1,2.8 -12.2055,0 -22.1,-1.2536 -22.1,-2.8 0,-1.54639 9.8945,-2.8 22.1,-2.8 12.20549,0 22.1,1.25361 22.1,2.8 z" />
            <ellipse
               id="ellipse3632"
               ry="2.7"
               rx="21"
               cy="203.39999"
               cx="214.10001"
               sodipodi:cx="214.10001"
               sodipodi:cy="203.39999"
               sodipodi:rx="21"
               sodipodi:ry="2.7"
               style="fill:#2f2f2f"
               d="m 235.10001,203.39999 c 0,1.49117 -9.40202,2.7 -21,2.7 -11.59798,0 -21,-1.20883 -21,-2.7 0,-1.49116 9.40202,-2.7 21,-2.7 11.59798,0 21,1.20884 21,2.7 z" />
            <ellipse
               id="ellipse3634"
               ry="2.5"
               rx="20"
               cy="203.39999"
               cx="214.10001"
               sodipodi:cx="214.10001"
               sodipodi:cy="203.39999"
               sodipodi:rx="20"
               sodipodi:ry="2.5"
               style="fill:#353535"
               d="m 234.10001,203.39999 c 0,1.38072 -8.95431,2.5 -20,2.5 -11.0457,0 -20,-1.11928 -20,-2.5 0,-1.38071 8.9543,-2.5 20,-2.5 11.04569,0 20,1.11929 20,2.5 z" />
            <ellipse
               id="ellipse3636"
               ry="2.4000001"
               rx="18.9"
               cy="203.39999"
               cx="214.10001"
               sodipodi:cx="214.10001"
               sodipodi:cy="203.39999"
               sodipodi:rx="18.9"
               sodipodi:ry="2.4000001"
               style="fill:#3c3c3c"
               d="m 233.00001,203.39999 c 0,1.32549 -8.46182,2.4 -18.9,2.4 -10.43819,0 -18.9,-1.07451 -18.9,-2.4 0,-1.32548 8.46181,-2.4 18.9,-2.4 10.43818,0 18.9,1.07452 18.9,2.4 z" />
            <ellipse
               id="ellipse3638"
               ry="2.3"
               rx="17.9"
               cy="203.39999"
               cx="214.10001"
               sodipodi:cx="214.10001"
               sodipodi:cy="203.39999"
               sodipodi:rx="17.9"
               sodipodi:ry="2.3"
               style="fill:#434343"
               d="m 232.00001,203.39999 c 0,1.27026 -8.01411,2.3 -17.9,2.3 -9.8859,0 -17.9,-1.02974 -17.9,-2.3 0,-1.27025 8.0141,-2.3 17.9,-2.3 9.88589,0 17.9,1.02975 17.9,2.3 z" />
            <ellipse
               id="ellipse3640"
               ry="2.2"
               rx="16.9"
               cy="203.39999"
               cx="214.10001"
               sodipodi:cx="214.10001"
               sodipodi:cy="203.39999"
               sodipodi:rx="16.9"
               sodipodi:ry="2.2"
               style="fill:#494949"
               d="m 231.00001,203.39999 c 0,1.21503 -7.56639,2.2 -16.9,2.2 -9.33362,0 -16.9,-0.98497 -16.9,-2.2 0,-1.21502 7.56638,-2.2 16.9,-2.2 9.33361,0 16.9,0.98498 16.9,2.2 z" />
            <ellipse
               id="ellipse3642"
               ry="2"
               rx="15.8"
               cy="203.39999"
               cx="214.10001"
               sodipodi:cx="214.10001"
               sodipodi:cy="203.39999"
               sodipodi:rx="15.8"
               sodipodi:ry="2"
               style="fill:#505050"
               d="m 229.90001,203.39999 c 0,1.10457 -7.0739,2 -15.8,2 -8.7261,0 -15.8,-0.89543 -15.8,-2 0,-1.10457 7.0739,-2 15.8,-2 8.7261,0 15.8,0.89543 15.8,2 z" />
            <ellipse
               id="ellipse3644"
               ry="1.9"
               rx="14.7"
               cy="203.39999"
               cx="214.10001"
               sodipodi:cx="214.10001"
               sodipodi:cy="203.39999"
               sodipodi:rx="14.7"
               sodipodi:ry="1.9"
               style="fill:#565656"
               d="m 228.80001,203.39999 c 0,1.04934 -6.58142,1.9 -14.7,1.9 -8.11859,0 -14.7,-0.85066 -14.7,-1.9 0,-1.04934 6.58141,-1.9 14.7,-1.9 8.11858,0 14.7,0.85066 14.7,1.9 z" />
            <ellipse
               id="ellipse3646"
               ry="1.8"
               rx="13.7"
               cy="203.39999"
               cx="214.10001"
               sodipodi:cx="214.10001"
               sodipodi:cy="203.39999"
               sodipodi:rx="13.7"
               sodipodi:ry="1.8"
               style="fill:#5d5d5d"
               d="m 227.80001,203.39999 c 0,0.99412 -6.1337,1.8 -13.7,1.8 -7.5663,0 -13.7,-0.80588 -13.7,-1.8 0,-0.99411 6.1337,-1.8 13.7,-1.8 7.5663,0 13.7,0.80589 13.7,1.8 z" />
            <ellipse
               id="ellipse3648"
               ry="1.7"
               rx="12.7"
               cy="203.39999"
               cx="214.10001"
               sodipodi:cx="214.10001"
               sodipodi:cy="203.39999"
               sodipodi:rx="12.7"
               sodipodi:ry="1.7"
               style="fill:#646464"
               d="m 226.80001,203.39999 c 0,0.93889 -5.68599,1.7 -12.7,1.7 -7.01402,0 -12.7,-0.76111 -12.7,-1.7 0,-0.93888 5.68598,-1.7 12.7,-1.7 7.01401,0 12.7,0.76112 12.7,1.7 z" />
            <ellipse
               id="ellipse3650"
               ry="1.5"
               rx="11.7"
               cy="203.39999"
               cx="214.10001"
               sodipodi:cx="214.10001"
               sodipodi:cy="203.39999"
               sodipodi:rx="11.7"
               sodipodi:ry="1.5"
               style="fill:#6a6a6a"
               d="m 225.80001,203.39999 c 0,0.82843 -5.23827,1.5 -11.7,1.5 -6.46174,0 -11.7,-0.67157 -11.7,-1.5 0,-0.82842 5.23826,-1.5 11.7,-1.5 6.46173,0 11.7,0.67158 11.7,1.5 z" />
            <ellipse
               id="ellipse3652"
               ry="1.4"
               rx="10.5"
               cy="203.39999"
               cx="214.10001"
               sodipodi:cx="214.10001"
               sodipodi:cy="203.39999"
               sodipodi:rx="10.5"
               sodipodi:ry="1.4"
               style="fill:#717171"
               d="m 224.60001,203.39999 c 0,0.7732 -4.70101,1.4 -10.5,1.4 -5.79899,0 -10.5,-0.6268 -10.5,-1.4 0,-0.77319 4.70101,-1.4 10.5,-1.4 5.79899,0 10.5,0.62681 10.5,1.4 z" />
            <ellipse
               id="ellipse3654"
               ry="1.3"
               rx="9.5"
               cy="203.39999"
               cx="214.10001"
               sodipodi:cx="214.10001"
               sodipodi:cy="203.39999"
               sodipodi:rx="9.5"
               sodipodi:ry="1.3"
               style="fill:#787878"
               d="m 223.60001,203.39999 c 0,0.71797 -4.2533,1.3 -9.5,1.3 -5.24671,0 -9.5,-0.58203 -9.5,-1.3 0,-0.71797 4.25329,-1.3 9.5,-1.3 5.2467,0 9.5,0.58203 9.5,1.3 z" />
            <ellipse
               id="ellipse3656"
               ry="1"
               rx="8.5"
               cy="203.39999"
               cx="214.10001"
               sodipodi:cx="214.10001"
               sodipodi:cy="203.39999"
               sodipodi:rx="8.5"
               sodipodi:ry="1"
               style="fill:#7e7e7e"
               d="m 222.60001,203.39999 c 0,0.55229 -3.80558,1 -8.5,1 -4.69442,0 -8.5,-0.44771 -8.5,-1 0,-0.55228 3.80558,-1 8.5,-1 4.69442,0 8.5,0.44772 8.5,1 z" />
            <ellipse
               id="ellipse3658"
               ry="0.89999998"
               rx="7.5"
               cy="203.39999"
               cx="214.10001"
               sodipodi:cx="214.10001"
               sodipodi:cy="203.39999"
               sodipodi:rx="7.5"
               sodipodi:ry="0.89999998"
               style="fill:#858585"
               d="m 221.60001,203.39999 c 0,0.49706 -3.35787,0.9 -7.5,0.9 -4.14214,0 -7.5,-0.40294 -7.5,-0.9 0,-0.49705 3.35786,-0.9 7.5,-0.9 4.14213,0 7.5,0.40295 7.5,0.9 z" />
            <ellipse
               id="ellipse3660"
               ry="0.80000001"
               rx="6.5"
               cy="203.39999"
               cx="214.10001"
               sodipodi:cx="214.10001"
               sodipodi:cy="203.39999"
               sodipodi:rx="6.5"
               sodipodi:ry="0.80000001"
               style="fill:#8c8c8c"
               d="m 220.60001,203.39999 c 0,0.44183 -2.91015,0.8 -6.5,0.8 -3.58985,0 -6.5,-0.35817 -6.5,-0.8 0,-0.44182 2.91015,-0.8 6.5,-0.8 3.58985,0 6.5,0.35818 6.5,0.8 z" />
            <ellipse
               id="ellipse3662"
               ry="0.60000002"
               rx="5.3000002"
               cy="203.39999"
               cx="214.10001"
               sodipodi:cx="214.10001"
               sodipodi:cy="203.39999"
               sodipodi:rx="5.3000002"
               sodipodi:ry="0.60000002"
               style="fill:#929292"
               d="m 219.40001,203.39999 c 0,0.33137 -2.37289,0.6 -5.3,0.6 -2.92711,0 -5.3,-0.26863 -5.3,-0.6 0,-0.33137 2.37289,-0.6 5.3,-0.6 2.92711,0 5.3,0.26863 5.3,0.6 z" />
            <ellipse
               id="ellipse3664"
               ry="0.5"
               rx="4.3000002"
               cy="203.39999"
               cx="214.10001"
               sodipodi:cx="214.10001"
               sodipodi:cy="203.39999"
               sodipodi:rx="4.3000002"
               sodipodi:ry="0.5"
               style="fill:#999999"
               d="m 218.40001,203.39999 c 0,0.27615 -1.92518,0.5 -4.3,0.5 -2.37483,0 -4.3,-0.22385 -4.3,-0.5 0,-0.27614 1.92517,-0.5 4.3,-0.5 2.37482,0 4.3,0.22386 4.3,0.5 z" />
            <ellipse
               id="ellipse3666"
               ry="0.40000001"
               rx="3.3"
               cy="203.39999"
               cx="214.10001"
               sodipodi:cx="214.10001"
               sodipodi:cy="203.39999"
               sodipodi:rx="3.3"
               sodipodi:ry="0.40000001"
               style="fill:#a0a0a0"
               d="m 217.40001,203.39999 c 0,0.22092 -1.47746,0.4 -3.3,0.4 -1.82254,0 -3.3,-0.17908 -3.3,-0.4 0,-0.22091 1.47746,-0.4 3.3,-0.4 1.82254,0 3.3,0.17909 3.3,0.4 z" />
            <ellipse
               id="ellipse3668"
               ry="0.30000001"
               rx="2.3"
               cy="203.39999"
               cx="214.10001"
               sodipodi:cx="214.10001"
               sodipodi:cy="203.39999"
               sodipodi:rx="2.3"
               sodipodi:ry="0.30000001"
               style="fill:#a6a6a6"
               d="m 216.40001,203.39999 c 0,0.16569 -1.02975,0.3 -2.3,0.3 -1.27026,0 -2.3,-0.13431 -2.3,-0.3 0,-0.16568 1.02974,-0.3 2.3,-0.3 1.27025,0 2.3,0.13432 2.3,0.3 z" />
            <ellipse
               id="ellipse3670"
               ry="0.1"
               rx="1.3"
               cy="203.39999"
               cx="214.10001"
               sodipodi:cx="214.10001"
               sodipodi:cy="203.39999"
               sodipodi:rx="1.3"
               sodipodi:ry="0.1"
               style="fill:#adadad"
               d="m 215.40001,203.39999 c 0,0.0552 -0.58203,0.1 -1.3,0.1 -0.71797,0 -1.3,-0.0448 -1.3,-0.1 0,-0.0552 0.58203,-0.1 1.3,-0.1 0.71797,0 1.3,0.0448 1.3,0.1 z" />
          </g>
        </g>
      </mask>
      <ellipse
         id="ellipse3573"
         mask="url(#d)"
         ry="3.5999999"
         rx="28.299999"
         cy="203.39999"
         cx="214.10001"
         sodipodi:cx="214.10001"
         sodipodi:cy="203.39999"
         sodipodi:rx="28.299999"
         sodipodi:ry="3.5999999"
         style="fill:#505050"
         d="m 242.40001,203.39999 c 0,1.98823 -12.67035,3.6 -28.3,3.6 -15.62966,0 -28.3,-1.61177 -28.3,-3.6 0,-1.98822 12.67034,-3.6 28.3,-3.6 15.62965,0 28.3,1.61178 28.3,3.6 z" />
    </g>
    <path
       style="fill:#d73f3f;fill-opacity:1;fill-rule:evenodd;stroke:#d40000;stroke-width:0.22088118;stroke-miterlimit:4;stroke-dasharray:none"
       d=""
       id="path4690"
       inkscape:connector-curvature="0" />
    <path
       style="fill:#d73f3f;fill-opacity:1;fill-rule:evenodd;stroke:#d40000;stroke-width:0.22088118;stroke-miterlimit:4;stroke-dasharray:none"
       d=""
       id="path4692"
       inkscape:connector-curvature="0" />
    <path
       style="fill:#d73f3f;fill-opacity:1;fill-rule:evenodd;stroke:#d40000;stroke-width:0.22088118;stroke-miterlimit:4;stroke-dasharray:none"
       d=""
       id="path4694"
       inkscape:connector-curvature="0" />
    <path
       style="fill:#d73f3f;fill-opacity:1;fill-rule:evenodd;stroke:#d40000;stroke-width:0.09660971;stroke-miterlimit:4;stroke-dasharray:none"
       d=""
       id="path4696"
       inkscape:connector-curvature="0" />
    <path
       style="fill:#d73f3f;fill-opacity:1;fill-rule:evenodd;stroke:#d73f3f;stroke-width:0;stroke-miterlimit:4;stroke-opacity:1;stroke-dasharray:none"
       d="m 434.96882,419.22552 c -0.22368,-0.31644 -2.25662,-3.95154 -4.51764,-8.07801 -6.09193,-11.11804 -7.76673,-13.91698 -14.82113,-24.76909 -8.46118,-13.01624 -9.44749,-14.72926 -10.40582,-18.07288 -0.77918,-2.71857 -1.01189,-4.44314 -1.00068,-7.41564 0.0301,-7.96632 3.5117,-15.58443 9.69267,-21.20834 2.28327,-2.0775 3.95742,-3.19367 6.86604,-4.57766 4.70091,-2.23679 8.51448,-3.23138 13.19594,-3.4415 9.06417,-0.40685 17.62266,2.84415 23.88561,9.07312 2.63293,2.61864 4.23187,4.88624 6.28785,8.91733 1.43004,2.80383 1.55007,3.11773 1.19211,3.11773 -0.22229,0 -3.87345,-2.90906 -8.63312,-6.87843 -6.86478,-5.72495 -8.60227,-6.8557 -12.58965,-8.19331 -5.38885,-1.80775 -12.76231,-1.78626 -18.10199,0.0527 -2.97954,1.02617 -5.32502,2.55948 -8.30429,5.42877 -6.27157,6.04007 -7.7015,9.67489 -7.40248,18.81673 0.1316,4.02358 0.5348,5.85581 1.81051,8.22738 1.67094,3.10632 2.32776,3.82524 16.82403,18.41504 11.28102,11.3538 14.402,14.66609 14.40408,15.28706 0.003,0.88774 -7.22281,15.6396 -7.73957,15.80077 -0.12967,0.0404 -0.41878,-0.18537 -0.64247,-0.50181 z"
       id="path4704"
       inkscape:connector-curvature="0" />
    <path
       style="fill:#8f2929;fill-opacity:1;fill-rule:evenodd;stroke:#d73f3f;stroke-width:0;stroke-miterlimit:4;stroke-opacity:1;stroke-dasharray:none"
       d="m 347.53433,384.62834 c -12.67219,-11.85433 -12.76868,-11.94701 -12.60761,-12.10808 0.0639,-0.0639 0.79922,0.25197 1.63415,0.70184 0.83492,0.44987 2.48927,1.1425 3.67634,1.53917 12.94062,4.32422 27.13422,-1.99306 31.82228,-14.16344 1.56697,-4.06794 1.77416,-9.33001 0.53564,-13.6039 -0.52871,-1.82446 -1.72965,-4.53434 -2.55685,-5.76943 -0.24608,-0.36742 -0.34762,-0.66804 -0.22565,-0.66804 0.12198,0 2.74415,2.36114 5.82705,5.24697 6.4893,6.07451 6.05212,5.33127 5.70674,9.70192 -0.3531,4.46835 -1.08822,7.15105 -3.08524,11.25906 -1.62298,3.33857 -3.22758,5.73146 -8.84142,13.1849 -4.92855,6.54359 -7.37843,10.09122 -9.24171,13.38277 -0.59197,1.04575 -1.13527,1.89476 -1.20733,1.88669 -0.072,-0.008 -5.21843,-4.77377 -11.43639,-10.59043 z"
       id="path4708"
       inkscape:connector-curvature="0" />
  </g>
</svg>
