<?xml version="1.0" encoding="utf-8"?>
<!-- Generator: Adobe Illustrator 17.0.0, SVG Export Plug-In . SVG Version: 6.00 Build 0)  -->
<!DOCTYPE svg PUBLIC "-//W3C//DTD SVG 1.1//EN" "http://www.w3.org/Graphics/SVG/1.1/DTD/svg11.dtd">
<svg version="1.1" id="Layer_1" xmlns="http://www.w3.org/2000/svg" xmlns:xlink="http://www.w3.org/1999/xlink" x="0px" y="0px"
	 width="100px" height="100px" viewBox="0 0 100 100" style="enable-background:new 0 0 100 100;" xml:space="preserve">
<g>
	<path style="fill:#667766;" d="M71.2,10.7C66.4,4,58.9,0.3,50.7,0.3c-8,0-15.4,3.6-20.2,10c-5.1,6.7-6.8,15.5-4.5,23.7
		c3,10.9,6,20.7,8.8,30.1c3,9.9,6.1,20.1,9.2,31.5c0.7,2.7,3.1,4.5,5.9,4.6c0,0,0.1,0,0.1,0c2.7,0,5.1-1.8,5.9-4.3l19.3-61.4
		C77.7,26.4,76.2,17.5,71.2,10.7z M63.3,30.7L50.2,72.4c-1.2-4.1-2.4-8-3.6-11.9c-2.9-9.4-5.8-19.1-8.8-29.8
		c-1.2-4.5-0.3-9.3,2.4-12.9c2.5-3.3,6.2-5.1,10.4-5.1c4.3,0,8,1.9,10.6,5.3C63.9,21.6,64.7,26.4,63.3,30.7z"/>
	<path style="fill:#667766;" d="M50.7,16.9c-4.5,0-8.1,3.6-8.1,8.1c0,4.5,3.6,8.1,8.1,8.1c4.5,0,8.1-3.6,8.1-8.1
		C58.8,20.5,55.2,16.9,50.7,16.9z"/>
</g>
</svg>
