<svg xmlns="http://www.w3.org/2000/svg" xmlns:xlink="http://www.w3.org/1999/xlink" width="256" height="256"><title>OpenStreetMap logo 2011</title><defs><linearGradient id="L"><stop offset="0"/><stop offset="1" stop-opacity="0"/></linearGradient><linearGradient id="s"><stop offset="0" stop-color="#fff"/><stop offset=".5" stop-color="#fff" stop-opacity=".931"/><stop offset="1" stop-color="#fff" stop-opacity="0"/></linearGradient><linearGradient id="v"><stop offset="0" stop-color="#fff"/><stop offset="1" stop-color="#fff" stop-opacity="0"/></linearGradient><linearGradient id="h"><stop offset="0" stop-color="#f9e295"/><stop offset=".125" stop-color="#f7dd84"/><stop offset=".206" stop-color="#fff"/><stop offset=".301" stop-color="#f4ce51"/><stop offset=".341" stop-color="#f9e7aa"/><stop offset="1" stop-color="#efbb0e"/></linearGradient><linearGradient id="e"><stop offset="0" stop-color="#2d3335"/><stop offset=".5" stop-color="#4c464a"/><stop offset="1" stop-color="#384042"/></linearGradient><linearGradient id="d"><stop offset="0" stop-color="#d0e9f2" stop-opacity="0"/><stop offset=".839" stop-color="#d0e9f2" stop-opacity="0"/><stop offset=".943" stop-color="#d0e9f2" stop-opacity=".282"/><stop offset="1" stop-color="#d0e9f2"/></linearGradient><linearGradient id="c"><stop offset="0"/><stop offset="1" stop-opacity="0"/></linearGradient><linearGradient xlink:href="#a" id="ac" x1="94.25" y1="-94.672" x2="9" y2="-179.969" gradientUnits="userSpaceOnUse"/><linearGradient id="a"><stop offset="0"/><stop offset="1" stop-opacity="0"/></linearGradient><linearGradient xlink:href="#a" id="ad" x1="50.75" y1="-114.438" x2="35.75" y2="-30.438" gradientUnits="userSpaceOnUse"/><linearGradient><stop offset="0"/><stop offset="1" stop-opacity="0"/></linearGradient><linearGradient xlink:href="#a" id="ae" x1="77.625" y1="-163.125" x2="115.25" y2="-74.625" gradientUnits="userSpaceOnUse"/><linearGradient><stop offset="0"/><stop offset="1" stop-opacity="0"/></linearGradient><linearGradient xlink:href="#a" id="af" x1="56.5" y1="-50.438" x2="125.719" y2="7.063" gradientUnits="userSpaceOnUse"/><linearGradient><stop offset="0"/><stop offset="1" stop-opacity="0"/></linearGradient><linearGradient xlink:href="#a" id="ag" x1="35" y1="-163.297" x2="180.75" y2="-146.797" gradientUnits="userSpaceOnUse"/><linearGradient><stop offset="0"/><stop offset="1" stop-opacity="0"/></linearGradient><linearGradient xlink:href="#a" id="ah" x1="57" y1="-141.109" x2="179" y2="-41.609" gradientUnits="userSpaceOnUse"/><linearGradient><stop offset="0"/><stop offset="1" stop-opacity="0"/></linearGradient><linearGradient xlink:href="#a" id="ai" x1="156" y1="-26.5" x2="208.25" y2="39.75" gradientUnits="userSpaceOnUse"/><linearGradient><stop offset="0"/><stop offset="1" stop-opacity="0"/></linearGradient><linearGradient xlink:href="#a" id="aj" x1="142.75" y1="-169.297" x2="235" y2="-77.297" gradientUnits="userSpaceOnUse"/><linearGradient><stop offset="0"/><stop offset="1" stop-opacity="0"/></linearGradient><linearGradient xlink:href="#b" id="U" x1="214.25" y1="-161.359" x2="166.5" y2="-113.719" gradientUnits="userSpaceOnUse"/><linearGradient id="b"><stop offset="0" stop-color="#fff"/><stop offset="1" stop-color="#fff" stop-opacity="0"/></linearGradient><linearGradient xlink:href="#b" id="V" x1="53.25" y1="-126.5" x2="57.656" y2="-62.469" gradientUnits="userSpaceOnUse"/><linearGradient xlink:href="#b" id="W" x1="39.5" y1="6.625" x2="75.719" y2="-17.125" gradientUnits="userSpaceOnUse"/><linearGradient xlink:href="#b" id="X" x1="102" y1="-162.344" x2="85.313" y2="-121.438" gradientUnits="userSpaceOnUse"/><linearGradient xlink:href="#b" id="Y" x1="117.75" y1="-78.094" x2="63.5" y2="-14.75" gradientUnits="userSpaceOnUse"/><linearGradient xlink:href="#b" id="Z" x1="180.687" y1="-125.125" x2="133.937" y2="-60.75" gradientUnits="userSpaceOnUse"/><linearGradient xlink:href="#b" id="aa" x1="170.75" y1="-23.5" x2="130.219" y2="33.375" gradientUnits="userSpaceOnUse"/><linearGradient xlink:href="#b" x1="213.5" y1="-76" x2="181.75" y2="-5.656" gradientUnits="userSpaceOnUse"/><linearGradient y2="-5.656" x2="181.75" y1="-76" x1="213.5" gradientUnits="userSpaceOnUse" id="ab" xlink:href="#b"/><linearGradient xlink:href="#c" id="T" x1="210.172" y1="72.064" x2="9" y2="-213.253" gradientUnits="userSpaceOnUse" gradientTransform="translate(0 -10)"/><clipPath id="R"><path d="M9 12.25s7.5 13 11.75 27.75l6.25 25.5s-5.5 12.75-8.25 24.75l-5.75 23s5.75 16 9.25 30l3.75 24.25s-4 10.25-7.5 24.25l-5 30.75s9.25-2 28.5 1.25l32.25 6s12.75-2.75 24-6.25l16.25-6.5s5.5.5 22.5 6.25l29.25 8.5s13-2.75 26-5.75l26.5-8s-.75-5 4.25-24.5l8.75-28s-.5-4.5-3.75-19.75l-10-29.75s1.75-10.5 6.75-23.75l10.25-26.75s-4.75-15.25-7.5-29.75l-8.25-25.75s-24.25 9-31.75 10.5l-21 5.25s-9.75-4.25-22-8.5l-29.75-5.5s-3.25 3.5-22 8l-27.5 5.75s-18.5-9-31.5-11.5-24-2-24.75-1.75z" fill="#ceeeab"/></clipPath><clipPath id="S"><path d="M9 12.25s7.5 13 11.75 27.75l6.25 25.5s-5.5 12.75-8.25 24.75l-5.75 23s5.75 16 9.25 30l3.75 24.25s-4 10.25-7.5 24.25l-5 30.75s9.25-2 28.5 1.25l32.25 6s12.75-2.75 24-6.25l16.25-6.5s5.5.5 22.5 6.25l29.25 8.5s13-2.75 26-5.75l26.5-8s-.75-5 4.25-24.5l8.75-28s-.5-4.5-3.75-19.75l-10-29.75s1.75-10.5 6.75-23.75l10.25-26.75s-4.75-15.25-7.5-29.75l-8.25-25.75s-24.25 9-31.75 10.5l-21 5.25s-9.75-4.25-22-8.5l-29.75-5.5s-3.25 3.5-22 8l-27.5 5.75s-18.5-9-31.5-11.5-24-2-24.75-1.75z" fill="#ceeeab"/></clipPath><clipPath id="Q"><path d="M9 12.25s7.5 13 11.75 27.75l6.25 25.5s-5.5 12.75-8.25 24.75l-5.75 23s5.75 16 9.25 30l3.75 24.25s-4 10.25-7.5 24.25l-5 30.75s9.25-2 28.5 1.25l32.25 6s12.75-2.75 24-6.25l16.25-6.5s5.5.5 22.5 6.25l29.25 8.5s13-2.75 26-5.75l26.5-8s-.75-5 4.25-24.5l8.75-28s-.5-4.5-3.75-19.75l-10-29.75s1.75-10.5 6.75-23.75l10.25-26.75s-4.75-15.25-7.5-29.75l-8.25-25.75s-24.25 9-31.75 10.5l-21 5.25s-9.75-4.25-22-8.5l-29.75-5.5s-3.25 3.5-22 8l-27.5 5.75s-18.5-9-31.5-11.5-24-2-24.75-1.75z" fill="#ceeeab"/></clipPath><radialGradient xlink:href="#d" id="aI" cx="128" cy="86" fx="128" fy="86" r="47" gradientUnits="userSpaceOnUse" gradientTransform="matrix(1.021 0 0 -1.021 -212.723 173.83)"/><linearGradient xlink:href="#e" id="aK" x1="123" y1="150.375" x2="133" y2="150.375" gradientUnits="userSpaceOnUse" gradientTransform="matrix(-1 0 0 1 46 0)"/><linearGradient xlink:href="#e" id="aJ" x1="128" y1="134.359" x2="130.875" y2="143.359" gradientUnits="userSpaceOnUse" gradientTransform="translate(-210)"/><linearGradient xlink:href="#f" x1="123" y1="150.375" x2="133" y2="150.375" gradientUnits="userSpaceOnUse" gradientTransform="matrix(-1 0 0 1 256 0)"/><linearGradient id="f"><stop offset="0" stop-color="#2d3335"/><stop offset=".5" stop-color="#4c464a"/><stop offset="1" stop-color="#384042"/></linearGradient><linearGradient y2="150.375" x2="133" y1="150.375" x1="123" gradientTransform="matrix(-2 0 0 1.77 174 -86.65)" gradientUnits="userSpaceOnUse" id="aM" xlink:href="#f"/><linearGradient y2="150.375" x2="133" y1="150.375" x1="123" gradientTransform="matrix(-2 0 0 1.77 384 -86.65)" gradientUnits="userSpaceOnUse" xlink:href="#g"/><linearGradient id="g"><stop offset="0" stop-color="#2d3335"/><stop offset=".5" stop-color="#4c464a"/><stop offset="1" stop-color="#384042"/></linearGradient><linearGradient xlink:href="#h" id="aL" x1="120" y1="186.5" x2="136" y2="186.5" gradientUnits="userSpaceOnUse" gradientTransform="translate(-210)"/><linearGradient xlink:href="#i" x1="120" y1="186.5" x2="136" y2="186.5" gradientUnits="userSpaceOnUse"/><linearGradient id="i"><stop offset="0" stop-color="#f9e295"/><stop offset=".125" stop-color="#f7dd84"/><stop offset=".206" stop-color="#fff"/><stop offset=".301" stop-color="#f4ce51"/><stop offset=".341" stop-color="#f9e7aa"/><stop offset="1" stop-color="#efbb0e"/></linearGradient><linearGradient y2="186.5" x2="136" y1="186.5" x1="120" gradientUnits="userSpaceOnUse" id="aN" xlink:href="#i" gradientTransform="translate(-210 67)"/><linearGradient y2="186.5" x2="136" y1="186.5" x1="120" gradientUnits="userSpaceOnUse" xlink:href="#j" gradientTransform="translate(0 69)"/><linearGradient id="j"><stop offset="0" stop-color="#f9e295"/><stop offset=".125" stop-color="#f7dd84"/><stop offset=".206" stop-color="#fff"/><stop offset=".301" stop-color="#f4ce51"/><stop offset=".341" stop-color="#f9e7aa"/><stop offset="1" stop-color="#efbb0e"/></linearGradient><linearGradient y2="186.5" x2="136" y1="186.5" x1="120" gradientUnits="userSpaceOnUse" xlink:href="#k" gradientTransform="translate(0 69)"/><linearGradient id="k"><stop offset="0" stop-color="#f9e295"/><stop offset=".125" stop-color="#f7dd84"/><stop offset=".206" stop-color="#fff"/><stop offset=".301" stop-color="#f4ce51"/><stop offset=".341" stop-color="#f9e7aa"/><stop offset="1" stop-color="#efbb0e"/></linearGradient><linearGradient y2="186.5" x2="136" y1="186.5" x1="120" gradientUnits="userSpaceOnUse" xlink:href="#l" gradientTransform="translate(0 67)"/><linearGradient id="l"><stop offset="0" stop-color="#f9e295"/><stop offset=".125" stop-color="#f7dd84"/><stop offset=".206" stop-color="#fff"/><stop offset=".301" stop-color="#f4ce51"/><stop offset=".341" stop-color="#f9e7aa"/><stop offset="1" stop-color="#efbb0e"/></linearGradient><linearGradient id="q"><stop offset="0" stop-color="#d0e9f2" stop-opacity="0"/><stop offset=".839" stop-color="#d0e9f2" stop-opacity="0"/><stop offset=".943" stop-color="#d0e9f2" stop-opacity=".282"/><stop offset="1" stop-color="#d0e9f2"/></linearGradient><linearGradient id="p"><stop offset="0" stop-color="#2d3335"/><stop offset=".5" stop-color="#4c464a"/><stop offset="1" stop-color="#384042"/></linearGradient><linearGradient><stop offset="0" stop-color="#2d3335"/><stop offset=".5" stop-color="#4c464a"/><stop offset="1" stop-color="#384042"/></linearGradient><linearGradient id="o"><stop offset="0" stop-color="#f9e295"/><stop offset=".125" stop-color="#f7dd84"/><stop offset=".206" stop-color="#fff"/><stop offset=".301" stop-color="#f4ce51"/><stop offset=".341" stop-color="#f9e7aa"/><stop offset="1" stop-color="#efbb0e"/></linearGradient><linearGradient id="n"><stop offset="0" stop-color="#2d3335"/><stop offset=".5" stop-color="#4c464a"/><stop offset="1" stop-color="#384042"/></linearGradient><linearGradient id="m"><stop offset="0" stop-color="#f9e295"/><stop offset=".125" stop-color="#f7dd84"/><stop offset=".206" stop-color="#fff"/><stop offset=".301" stop-color="#f4ce51"/><stop offset=".341" stop-color="#f9e7aa"/><stop offset="1" stop-color="#efbb0e"/></linearGradient><linearGradient xlink:href="#m" id="aH" gradientUnits="userSpaceOnUse" gradientTransform="matrix(.984 .984 -.984 .984 66.992 -59.216)" x1="120" y1="186.5" x2="136" y2="186.5"/><linearGradient xlink:href="#n" id="aS" gradientUnits="userSpaceOnUse" gradientTransform="matrix(-1.969 -1.969 -1.742 1.742 596.186 167.511)" x1="123" y1="150.375" x2="133" y2="150.375"/><linearGradient xlink:href="#o" id="aR" gradientUnits="userSpaceOnUse" gradientTransform="matrix(.984 .984 -.984 .984 132.938 -125.162)" x1="120" y1="186.5" x2="136" y2="186.5"/><linearGradient xlink:href="#p" id="aQ" gradientUnits="userSpaceOnUse" gradientTransform="matrix(-.984 -.984 -.984 .984 384.912 126.812)" x1="123" y1="150.375" x2="133" y2="150.375"/><linearGradient xlink:href="#p" id="aP" gradientUnits="userSpaceOnUse" gradientTransform="matrix(.984 .984 -.984 .984 132.938 -125.162)" x1="128" y1="134.359" x2="130.875" y2="143.359"/><radialGradient xlink:href="#q" id="aO" gradientUnits="userSpaceOnUse" gradientTransform="matrix(1.005 1.005 1.005 -1.005 -40.838 43.253)" cx="128" cy="86" fx="128" fy="86" r="47"/><linearGradient xlink:href="#r" gradientUnits="userSpaceOnUse" gradientTransform="matrix(-1.969 -1.969 -1.742 1.742 596.186 177.511)" x1="123" y1="150.375" x2="133" y2="150.375"/><linearGradient id="r"><stop offset="0" stop-color="#2d3335"/><stop offset=".5" stop-color="#4c464a"/><stop offset="1" stop-color="#384042"/></linearGradient><linearGradient y2="150.375" x2="133" y1="167.727" x1="108.003" gradientTransform="matrix(-1.969 -1.969 -1.742 1.742 596.186 167.511)" gradientUnits="userSpaceOnUse" id="aT" xlink:href="#c"/><radialGradient xlink:href="#s" id="aW" cx="159.613" cy="72.588" fx="159.613" fy="72.588" r="38.417" gradientTransform="matrix(1.212 0 0 .839 -46.348 24.528)" gradientUnits="userSpaceOnUse"/><radialGradient xlink:href="#t" cx="159.613" cy="72.588" fx="159.613" fy="72.588" r="38.417" gradientTransform="matrix(1 0 0 .692 -1.414 17.754)" gradientUnits="userSpaceOnUse"/><linearGradient id="t"><stop offset="0" stop-color="#fff"/><stop offset="1" stop-color="#fff" stop-opacity="0"/></linearGradient><radialGradient xlink:href="#t" cx="159.613" cy="72.588" fx="159.613" fy="72.588" r="38.417" gradientTransform="matrix(1 0 0 .692 -1.414 17.754)" gradientUnits="userSpaceOnUse"/><radialGradient xlink:href="#t" cx="159.613" cy="72.588" fx="159.613" fy="72.588" r="38.417" gradientTransform="matrix(1 0 0 .692 -1.414 17.754)" gradientUnits="userSpaceOnUse"/><radialGradient xlink:href="#t" cx="159.613" cy="72.588" fx="159.613" fy="72.588" r="38.417" gradientTransform="matrix(1 0 0 .692 -1.414 17.754)" gradientUnits="userSpaceOnUse"/><radialGradient xlink:href="#t" cx="159.613" cy="72.588" fx="159.613" fy="72.588" r="38.417" gradientTransform="matrix(1 0 0 .692 -1.414 17.754)" gradientUnits="userSpaceOnUse"/><radialGradient r="38.417" fy="72.588" fx="159.613" cy="72.588" cx="159.613" gradientTransform="matrix(1.212 0 0 .839 -45.92 25.814)" gradientUnits="userSpaceOnUse" id="aV" xlink:href="#t"/><radialGradient xlink:href="#u" gradientUnits="userSpaceOnUse" gradientTransform="matrix(1.005 1.005 1.005 -1.005 -40.838 53.253)" cx="128" cy="86" fx="128" fy="86" r="47"/><linearGradient id="u"><stop offset="0" stop-color="#d0e9f2" stop-opacity="0"/><stop offset=".839" stop-color="#d0e9f2" stop-opacity="0"/><stop offset=".943" stop-color="#d0e9f2" stop-opacity=".282"/><stop offset="1" stop-color="#d0e9f2"/></linearGradient><linearGradient xlink:href="#v" id="aU" x1="126.643" y1="29.815" x2="179.961" y2="137.196" gradientUnits="userSpaceOnUse" gradientTransform="translate(0 -10)"/><linearGradient xlink:href="#w" x1="126.643" y1="29.815" x2="179.961" y2="137.196" gradientUnits="userSpaceOnUse"/><linearGradient id="w"><stop offset="0" stop-color="#fff"/><stop offset="1" stop-color="#fff" stop-opacity="0"/></linearGradient><linearGradient gradientTransform="matrix(-.503 .198 .197 -.433 276.156 123.417)" y2="137.196" x2="179.961" y1="29.815" x1="126.643" gradientUnits="userSpaceOnUse" id="aX" xlink:href="#w"/><linearGradient xlink:href="#x" x1="126.643" y1="29.815" x2="179.961" y2="137.196" gradientUnits="userSpaceOnUse"/><linearGradient id="x"><stop offset="0" stop-color="#fff"/><stop offset="1" stop-color="#fff" stop-opacity="0"/></linearGradient><radialGradient xlink:href="#y" cx="159.613" cy="72.588" fx="159.613" fy="72.588" r="38.417" gradientTransform="matrix(1.212 0 0 .839 -47.895 34.408)" gradientUnits="userSpaceOnUse"/><linearGradient id="y"><stop offset="0" stop-color="#fff"/><stop offset="1" stop-color="#fff" stop-opacity="0"/></linearGradient><radialGradient xlink:href="#y" cx="159.613" cy="72.588" fx="159.613" fy="72.588" r="38.417" gradientTransform="matrix(1.212 0 0 .839 -47.895 34.408)" gradientUnits="userSpaceOnUse"/><radialGradient xlink:href="#y" cx="159.613" cy="72.588" fx="159.613" fy="72.588" r="38.417" gradientTransform="matrix(1.212 0 0 .839 -47.895 34.408)" gradientUnits="userSpaceOnUse"/><radialGradient xlink:href="#y" cx="159.613" cy="72.588" fx="159.613" fy="72.588" r="38.417" gradientTransform="matrix(1.212 0 0 .839 -47.895 34.408)" gradientUnits="userSpaceOnUse"/><radialGradient xlink:href="#y" cx="159.613" cy="72.588" fx="159.613" fy="72.588" r="38.417" gradientTransform="matrix(1.212 0 0 .839 -47.895 34.408)" gradientUnits="userSpaceOnUse"/><radialGradient r="38.417" fy="72.588" fx="159.613" cy="72.588" cx="159.613" gradientTransform="matrix(1.212 0 0 .839 -47.895 34.408)" gradientUnits="userSpaceOnUse" xlink:href="#y"/><radialGradient xlink:href="#z" cx="159.613" cy="72.588" fx="159.613" fy="72.588" r="38.417" gradientTransform="matrix(1.212 0 0 .839 -47.895 34.408)" gradientUnits="userSpaceOnUse"/><linearGradient id="z"><stop offset="0" stop-color="#fff"/><stop offset="1" stop-color="#fff" stop-opacity="0"/></linearGradient><radialGradient xlink:href="#z" cx="159.613" cy="72.588" fx="159.613" fy="72.588" r="38.417" gradientTransform="matrix(1.212 0 0 .839 -47.895 34.408)" gradientUnits="userSpaceOnUse"/><radialGradient xlink:href="#z" cx="159.613" cy="72.588" fx="159.613" fy="72.588" r="38.417" gradientTransform="matrix(1.212 0 0 .839 -47.895 34.408)" gradientUnits="userSpaceOnUse"/><radialGradient xlink:href="#z" cx="159.613" cy="72.588" fx="159.613" fy="72.588" r="38.417" gradientTransform="matrix(1.212 0 0 .839 -47.895 34.408)" gradientUnits="userSpaceOnUse"/><radialGradient xlink:href="#z" cx="159.613" cy="72.588" fx="159.613" fy="72.588" r="38.417" gradientTransform="matrix(1.212 0 0 .839 -47.895 34.408)" gradientUnits="userSpaceOnUse"/><radialGradient r="38.417" fy="72.588" fx="159.613" cy="72.588" cx="159.613" gradientTransform="matrix(1.212 0 0 .839 -47.895 34.408)" gradientUnits="userSpaceOnUse" xlink:href="#z"/><linearGradient><stop offset="0" stop-color="#fff"/><stop offset="1" stop-color="#fff" stop-opacity="0"/></linearGradient><radialGradient xlink:href="#A" cx="159.613" cy="72.588" fx="159.613" fy="72.588" r="38.417" gradientTransform="matrix(1.212 0 0 .839 -47.895 34.408)" gradientUnits="userSpaceOnUse"/><linearGradient id="A"><stop offset="0" stop-color="#fff"/><stop offset=".5" stop-color="#fff" stop-opacity=".931"/><stop offset="1" stop-color="#fff" stop-opacity="0"/></linearGradient><radialGradient xlink:href="#A" cx="159.613" cy="72.588" fx="159.613" fy="72.588" r="38.417" gradientTransform="matrix(1.212 0 0 .839 -47.895 34.408)" gradientUnits="userSpaceOnUse"/><linearGradient><stop offset="0" stop-color="#fff"/><stop offset=".5" stop-color="#fff" stop-opacity=".931"/><stop offset="1" stop-color="#fff" stop-opacity="0"/></linearGradient><radialGradient xlink:href="#A" cx="159.613" cy="72.588" fx="159.613" fy="72.588" r="38.417" gradientTransform="matrix(1.212 0 0 .839 -47.895 34.408)" gradientUnits="userSpaceOnUse"/><linearGradient><stop offset="0" stop-color="#fff"/><stop offset=".5" stop-color="#fff" stop-opacity=".931"/><stop offset="1" stop-color="#fff" stop-opacity="0"/></linearGradient><radialGradient xlink:href="#A" cx="159.613" cy="72.588" fx="159.613" fy="72.588" r="38.417" gradientTransform="matrix(1.212 0 0 .839 -47.895 34.408)" gradientUnits="userSpaceOnUse"/><linearGradient><stop offset="0" stop-color="#fff"/><stop offset=".5" stop-color="#fff" stop-opacity=".931"/><stop offset="1" stop-color="#fff" stop-opacity="0"/></linearGradient><radialGradient xlink:href="#A" cx="159.613" cy="72.588" fx="159.613" fy="72.588" r="38.417" gradientTransform="matrix(1.212 0 0 .839 -47.895 34.408)" gradientUnits="userSpaceOnUse"/><linearGradient><stop offset="0" stop-color="#fff"/><stop offset=".5" stop-color="#fff" stop-opacity=".931"/><stop offset="1" stop-color="#fff" stop-opacity="0"/></linearGradient><radialGradient r="38.417" fy="72.588" fx="159.613" cy="72.588" cx="159.613" gradientTransform="matrix(1.212 0 0 .839 -47.467 35.694)" gradientUnits="userSpaceOnUse" xlink:href="#B"/><linearGradient id="B"><stop offset="0" stop-color="#fff"/><stop offset="1" stop-color="#fff" stop-opacity="0"/></linearGradient><radialGradient r="38.417" fy="72.588" fx="159.613" cy="72.588" cx="159.613" gradientTransform="matrix(1.212 0 0 .839 -47.467 35.694)" gradientUnits="userSpaceOnUse" xlink:href="#B"/><radialGradient r="38.417" fy="72.588" fx="159.613" cy="72.588" cx="159.613" gradientTransform="matrix(1.212 0 0 .839 -47.467 35.694)" gradientUnits="userSpaceOnUse" xlink:href="#B"/><radialGradient r="38.417" fy="72.588" fx="159.613" cy="72.588" cx="159.613" gradientTransform="matrix(1.212 0 0 .839 -47.467 35.694)" gradientUnits="userSpaceOnUse" xlink:href="#B"/><radialGradient r="38.417" fy="72.588" fx="159.613" cy="72.588" cx="159.613" gradientTransform="matrix(1.212 0 0 .839 -47.467 35.694)" gradientUnits="userSpaceOnUse" xlink:href="#B"/><linearGradient><stop offset="0" stop-color="#f9e295"/><stop offset=".125" stop-color="#f7dd84"/><stop offset=".206" stop-color="#fff"/><stop offset=".301" stop-color="#f4ce51"/><stop offset=".341" stop-color="#f9e7aa"/><stop offset="1" stop-color="#efbb0e"/></linearGradient><linearGradient><stop offset="0"/><stop offset="1" stop-opacity="0"/></linearGradient><linearGradient><stop offset="0" stop-color="#2d3335"/><stop offset=".5" stop-color="#4c464a"/><stop offset="1" stop-color="#384042"/></linearGradient><linearGradient><stop offset="0" stop-color="#f9e295"/><stop offset=".125" stop-color="#f7dd84"/><stop offset=".206" stop-color="#fff"/><stop offset=".301" stop-color="#f4ce51"/><stop offset=".341" stop-color="#f9e7aa"/><stop offset="1" stop-color="#efbb0e"/></linearGradient><linearGradient><stop offset="0" stop-color="#2d3335"/><stop offset=".5" stop-color="#4c464a"/><stop offset="1" stop-color="#384042"/></linearGradient><linearGradient><stop offset="0" stop-color="#2d3335"/><stop offset=".5" stop-color="#4c464a"/><stop offset="1" stop-color="#384042"/></linearGradient><linearGradient><stop offset="0" stop-color="#d0e9f2" stop-opacity="0"/><stop offset=".839" stop-color="#d0e9f2" stop-opacity="0"/><stop offset=".943" stop-color="#d0e9f2" stop-opacity=".282"/><stop offset="1" stop-color="#d0e9f2"/></linearGradient><filter id="aG"><feGaussianBlur stdDeviation="4.287"/></filter><linearGradient xlink:href="#C" x1="210.172" y1="72.064" x2="9" y2="-213.253" gradientUnits="userSpaceOnUse"/><linearGradient id="C"><stop offset="0"/><stop offset="1" stop-opacity="0"/></linearGradient><linearGradient xlink:href="#D" x1="210.172" y1="72.064" x2="9" y2="-213.253" gradientUnits="userSpaceOnUse"/><linearGradient id="D"><stop offset="0"/><stop offset="1" stop-opacity="0"/></linearGradient><linearGradient xlink:href="#E" x1="210.172" y1="72.064" x2="9" y2="-213.253" gradientUnits="userSpaceOnUse"/><linearGradient id="E"><stop offset="0"/><stop offset="1" stop-opacity="0"/></linearGradient><linearGradient xlink:href="#E" gradientUnits="userSpaceOnUse" gradientTransform="matrix(1 -.081 0 1 0 203.056)" x1="210.172" y1="72.064" x2="9" y2="-213.253"/><linearGradient><stop offset="0"/><stop offset="1" stop-opacity="0"/></linearGradient><linearGradient><stop offset="0"/><stop offset="1" stop-opacity="0"/></linearGradient><linearGradient><stop offset="0"/><stop offset="1" stop-opacity="0"/></linearGradient><linearGradient><stop offset="0"/><stop offset="1" stop-opacity="0"/></linearGradient><linearGradient><stop offset="0"/><stop offset="1" stop-opacity="0"/></linearGradient><linearGradient><stop offset="0"/><stop offset="1" stop-opacity="0"/></linearGradient><linearGradient><stop offset="0"/><stop offset="1" stop-opacity="0"/></linearGradient><linearGradient><stop offset="0"/><stop offset="1" stop-opacity="0"/></linearGradient><linearGradient><stop offset="0"/><stop offset="1" stop-opacity="0"/></linearGradient><clipPath><path d="M9 12.25s7.5 13 11.75 27.75l6.25 25.5s-5.5 12.75-8.25 24.75l-5.75 23s5.75 16 9.25 30l3.75 24.25s-4 10.25-7.5 24.25l-5 30.75s9.25-2 28.5 1.25l32.25 6s12.75-2.75 24-6.25l16.25-6.5s5.5.5 22.5 6.25l29.25 8.5s13-2.75 26-5.75l26.5-8s-.75-5 4.25-24.5l8.75-28s-.5-4.5-3.75-19.75l-10-29.75s1.75-10.5 6.75-23.75l10.25-26.75s-4.75-15.25-7.5-29.75l-8.25-25.75s-24.25 9-31.75 10.5l-21 5.25s-9.75-4.25-22-8.5l-29.75-5.5s-3.25 3.5-22 8l-27.5 5.75s-18.5-9-31.5-11.5-24-2-24.75-1.75z" fill="#ceeeab"/></clipPath><clipPath><path d="M9 12.25s7.5 13 11.75 27.75l6.25 25.5s-5.5 12.75-8.25 24.75l-5.75 23s5.75 16 9.25 30l3.75 24.25s-4 10.25-7.5 24.25l-5 30.75s9.25-2 28.5 1.25l32.25 6s12.75-2.75 24-6.25l16.25-6.5s5.5.5 22.5 6.25l29.25 8.5s13-2.75 26-5.75l26.5-8s-.75-5 4.25-24.5l8.75-28s-.5-4.5-3.75-19.75l-10-29.75s1.75-10.5 6.75-23.75l10.25-26.75s-4.75-15.25-7.5-29.75l-8.25-25.75s-24.25 9-31.75 10.5l-21 5.25s-9.75-4.25-22-8.5l-29.75-5.5s-3.25 3.5-22 8l-27.5 5.75s-18.5-9-31.5-11.5-24-2-24.75-1.75z" fill="#ceeeab"/></clipPath><clipPath><path d="M9 12.25s7.5 13 11.75 27.75l6.25 25.5s-5.5 12.75-8.25 24.75l-5.75 23s5.75 16 9.25 30l3.75 24.25s-4 10.25-7.5 24.25l-5 30.75s9.25-2 28.5 1.25l32.25 6s12.75-2.75 24-6.25l16.25-6.5s5.5.5 22.5 6.25l29.25 8.5s13-2.75 26-5.75l26.5-8s-.75-5 4.25-24.5l8.75-28s-.5-4.5-3.75-19.75l-10-29.75s1.75-10.5 6.75-23.75l10.25-26.75s-4.75-15.25-7.5-29.75l-8.25-25.75s-24.25 9-31.75 10.5l-21 5.25s-9.75-4.25-22-8.5l-29.75-5.5s-3.25 3.5-22 8l-27.5 5.75s-18.5-9-31.5-11.5-24-2-24.75-1.75z" fill="#ceeeab"/></clipPath><clipPath id="al"><path d="M9 12.25s7.5 13 11.75 27.75l6.25 25.5s-5.5 12.75-8.25 24.75l-5.75 23s5.75 16 9.25 30l3.75 24.25s-4 10.25-7.5 24.25l-5 30.75s9.25-2 28.5 1.25l32.25 6s12.75-2.75 24-6.25l16.25-6.5s5.5.5 22.5 6.25l29.25 8.5s13-2.75 26-5.75l26.5-8s-.75-5 4.25-24.5l8.75-28s-.5-4.5-3.75-19.75l-10-29.75s1.75-10.5 6.75-23.75l10.25-26.75s-4.75-15.25-7.5-29.75l-8.25-25.75s-24.25 9-31.75 10.5l-21 5.25s-9.75-4.25-22-8.5l-29.75-5.5s-3.25 3.5-22 8l-27.5 5.75s-18.5-9-31.5-11.5-24-2-24.75-1.75z" fill="#ceeeab"/></clipPath><clipPath id="am"><path d="M9 12.25s7.5 13 11.75 27.75l6.25 25.5s-5.5 12.75-8.25 24.75l-5.75 23s5.75 16 9.25 30l3.75 24.25s-4 10.25-7.5 24.25l-5 30.75s9.25-2 28.5 1.25l32.25 6s12.75-2.75 24-6.25l16.25-6.5s5.5.5 22.5 6.25l29.25 8.5s13-2.75 26-5.75l26.5-8s-.75-5 4.25-24.5l8.75-28s-.5-4.5-3.75-19.75l-10-29.75s1.75-10.5 6.75-23.75l10.25-26.75s-4.75-15.25-7.5-29.75l-8.25-25.75s-24.25 9-31.75 10.5l-21 5.25s-9.75-4.25-22-8.5l-29.75-5.5s-3.25 3.5-22 8l-27.5 5.75s-18.5-9-31.5-11.5-24-2-24.75-1.75z" fill="#ceeeab"/></clipPath><clipPath id="an"><path d="M9 12.25s7.5 13 11.75 27.75l6.25 25.5s-5.5 12.75-8.25 24.75l-5.75 23s5.75 16 9.25 30l3.75 24.25s-4 10.25-7.5 24.25l-5 30.75s9.25-2 28.5 1.25l32.25 6s12.75-2.75 24-6.25l16.25-6.5s5.5.5 22.5 6.25l29.25 8.5s13-2.75 26-5.75l26.5-8s-.75-5 4.25-24.5l8.75-28s-.5-4.5-3.75-19.75l-10-29.75s1.75-10.5 6.75-23.75l10.25-26.75s-4.75-15.25-7.5-29.75l-8.25-25.75s-24.25 9-31.75 10.5l-21 5.25s-9.75-4.25-22-8.5l-29.75-5.5s-3.25 3.5-22 8l-27.5 5.75s-18.5-9-31.5-11.5-24-2-24.75-1.75z" fill="#ceeeab"/></clipPath><linearGradient gradientTransform="translate(0 192)" xlink:href="#F" id="ao" x1="210.172" y1="72.064" x2="9" y2="-213.253" gradientUnits="userSpaceOnUse"/><linearGradient id="F"><stop offset="0"/><stop offset="1" stop-opacity="0"/></linearGradient><linearGradient xlink:href="#G" id="ap" x1="214.25" y1="-161.359" x2="166.5" y2="-113.719" gradientUnits="userSpaceOnUse"/><linearGradient id="G"><stop offset="0" stop-color="#fff"/><stop offset="1" stop-color="#fff" stop-opacity="0"/></linearGradient><linearGradient xlink:href="#G" id="aq" x1="53.25" y1="-126.5" x2="57.656" y2="-62.469" gradientUnits="userSpaceOnUse"/><linearGradient xlink:href="#G" id="ar" x1="39.5" y1="6.625" x2="75.719" y2="-17.125" gradientUnits="userSpaceOnUse"/><linearGradient xlink:href="#G" id="as" x1="102" y1="-162.344" x2="85.313" y2="-121.438" gradientUnits="userSpaceOnUse"/><linearGradient xlink:href="#G" id="at" x1="117.75" y1="-78.094" x2="63.5" y2="-14.75" gradientUnits="userSpaceOnUse"/><linearGradient xlink:href="#G" id="au" x1="180.687" y1="-125.125" x2="133.937" y2="-60.75" gradientUnits="userSpaceOnUse"/><linearGradient xlink:href="#G" id="av" x1="170.75" y1="-23.5" x2="130.219" y2="33.375" gradientUnits="userSpaceOnUse"/><linearGradient y2="-5.656" x2="181.75" y1="-76" x1="213.5" gradientUnits="userSpaceOnUse" id="aw" xlink:href="#G"/><linearGradient xlink:href="#H" id="ax" x1="94.25" y1="-94.672" x2="9" y2="-179.969" gradientUnits="userSpaceOnUse"/><linearGradient id="H"><stop offset="0"/><stop offset="1" stop-opacity="0"/></linearGradient><linearGradient xlink:href="#H" id="ay" x1="50.75" y1="-114.438" x2="35.75" y2="-30.438" gradientUnits="userSpaceOnUse"/><linearGradient><stop offset="0"/><stop offset="1" stop-opacity="0"/></linearGradient><linearGradient xlink:href="#H" id="az" x1="77.625" y1="-163.125" x2="115.25" y2="-74.625" gradientUnits="userSpaceOnUse"/><linearGradient><stop offset="0"/><stop offset="1" stop-opacity="0"/></linearGradient><linearGradient xlink:href="#H" id="aA" x1="56.5" y1="-50.438" x2="125.719" y2="7.063" gradientUnits="userSpaceOnUse"/><linearGradient><stop offset="0"/><stop offset="1" stop-opacity="0"/></linearGradient><linearGradient xlink:href="#H" id="aB" x1="35" y1="-163.297" x2="180.75" y2="-146.797" gradientUnits="userSpaceOnUse"/><linearGradient><stop offset="0"/><stop offset="1" stop-opacity="0"/></linearGradient><linearGradient xlink:href="#H" id="aC" x1="57" y1="-141.109" x2="179" y2="-41.609" gradientUnits="userSpaceOnUse"/><linearGradient><stop offset="0"/><stop offset="1" stop-opacity="0"/></linearGradient><linearGradient xlink:href="#H" id="aD" x1="156" y1="-26.5" x2="208.25" y2="39.75" gradientUnits="userSpaceOnUse"/><linearGradient><stop offset="0"/><stop offset="1" stop-opacity="0"/></linearGradient><linearGradient xlink:href="#H" id="aE" x1="142.75" y1="-169.297" x2="235" y2="-77.297" gradientUnits="userSpaceOnUse"/><linearGradient><stop offset="0"/><stop offset="1" stop-opacity="0"/></linearGradient><radialGradient xlink:href="#I" gradientUnits="userSpaceOnUse" gradientTransform="matrix(1.005 1.005 1.005 -1.005 -40.838 53.253)" cx="128" cy="86" fx="128" fy="86" r="47"/><linearGradient id="I"><stop offset="0" stop-color="#d0e9f2" stop-opacity="0"/><stop offset=".839" stop-color="#d0e9f2" stop-opacity="0"/><stop offset=".943" stop-color="#d0e9f2" stop-opacity=".282"/><stop offset="1" stop-color="#d0e9f2"/></linearGradient><clipPath id="ak"><path d="M123.623 141.062c20.832 20.243 54.607 19.289 75.439-2.132 20.832-21.421 20.832-55.196 0-75.439-20.832-20.243-54.607-19.289-75.439 2.132-20.832 21.421-20.832 55.196 0 75.439z" fill="url(#J)"/></clipPath><radialGradient xlink:href="#I" id="J" gradientUnits="userSpaceOnUse" gradientTransform="matrix(.803 .78 .803 -.825 -10.402 73.423)" cx="128" cy="86" fx="128" fy="86" r="47"/><filter id="N"><feGaussianBlur stdDeviation="6.311"/></filter><linearGradient xlink:href="#K" x1="210.172" y1="72.064" x2="9" y2="-213.253" gradientUnits="userSpaceOnUse"/><linearGradient id="K"><stop offset="0"/><stop offset="1" stop-opacity="0"/></linearGradient><filter id="P"><feGaussianBlur stdDeviation="4.457"/></filter><linearGradient xlink:href="#L" id="O" x1="122" y1="245.448" x2="122" y2="4.302" gradientUnits="userSpaceOnUse"/><linearGradient xlink:href="#E" gradientUnits="userSpaceOnUse" gradientTransform="translate(0 182)" x1="210.172" y1="72.064" x2="9" y2="-213.253"/><clipPath id="aF"><path d="M9 22.578s7.5 12.393 11.75 26.8c4.25 14.406 6.25 24.995 6.25 24.995s-5.5 13.195-8.25 25.417c-2.75 12.222-5.75 23.465-5.75 23.465s5.75 15.535 9.25 29.252c3.5 13.717 3.75 23.947 3.75 23.947s-4 10.574-7.5 24.857l-5 31.154s9.25-2.748 28.5-1.055c19.25 1.693 32.25 3.392 32.25 3.392s12.75-3.781 24-8.191l16.25-7.814s5.5.055 22.5 4.43l29.25 6.134s13-3.801 26-7.853c13-4.051 26.5-10.143 26.5-10.143s-.75-4.939 4.25-24.844c5-19.904 8.75-28.708 8.75-28.708s-.514-4.455-3.75-19.447c-1.75-8.108-2.25-4.068-2.25-4.068s16.264-26.155 16.5-40.334c.25-15.02-7.25-36.414-7.25-36.414s-4.75-14.866-7.5-29.143c-2.75-14.278-8.25-25.083-8.25-25.083s-24.25 10.961-31.75 13.068c-7.5 2.107-21 6.948-21 6.948s-9.75-3.461-22-6.721c-12.25-3.259-29.75-3.094-29.75-3.094s-3.25 3.763-22 9.779l-27.5 7.974s-18.5-7.504-31.5-8.952c-13-1.449-24-.059-24.75.252z" opacity=".039" fill="url(#M)"/></clipPath><linearGradient xlink:href="#E" id="M" gradientUnits="userSpaceOnUse" gradientTransform="matrix(1 -.081 0 1 0 203.056)" x1="210.172" y1="72.064" x2="9" y2="-213.253"/></defs><path d="M174.281 69.396c-17.599-1.214-35.192 3.209-48.719 13.539l-.5.363c-22.056 17.204-26.209 45.1-12.469 68.333l-2.281 1.222c2.249 3.755 4.942 7.393 8.094 10.853l-13.313 10.41c-1.341-.59-2.789-1.07-4.563-1.482l-2.844 2.218c-1.109-.487-2.138-.84-3.063-.954l-64.125 50.017c-.037.932.226 1.873.656 2.831l-.531.414-1.094.853c.715 3.223 2.01 5.931 5.469 9.106 3.458 3.175 6.42 4.374 10.281 5.352l1.094-.853.719-.561c1.088.468 2.13.814 3.094.93l64.125-50.017c-.243-.844-.62-1.686-1.031-2.539l3-2.34c-.25-1.488-.677-2.762-1.313-3.991l13.281-10.359c3.818 2.94 7.885 5.506 12.125 7.708l1.625-1.825c26.249 13.476 59.444 12.241 81.5-4.962l.469-.392c26.694-21.265 26.549-58.379-.469-83.181-13.59-12.476-31.407-19.465-49.219-20.694zm-.5 2.751l.313.022c.949.081 1.895.186 2.844.302.958.117 1.919.258 2.875.411l.281.046.281.046.438.083c.896.155 1.795.318 2.688.504.619.129 1.227.275 1.844.419l1.031.23c.724.179 1.436.374 2.156.573l.938.25.219.068c.956.281 1.897.569 2.844.886l.219.068c.947.32 1.907.663 2.844 1.019l.156.064c.955.365 1.902.749 2.844 1.151l.156.064c.942.405 1.885.84 2.813 1.282l.125.062c.935.448 1.862.901 2.781 1.386l.094.06c.927.491 1.841.987 2.75 1.516l.094.06c.908.53 1.799 1.076 2.688 1.645.549.351 1.084.728 1.625 1.094.365.247.733.486 1.094.739l.063.031c.878.617 1.74 1.275 2.594 1.93 1.743 1.338 3.431 2.752 5.063 4.249 1.62 1.488 3.136 3.019 4.563 4.586l.031.029c.703.774 1.407 1.553 2.063 2.344.283.341.539.694.813 1.038.37.464.74.932 1.094 1.402l.063.057c.598.797 1.167 1.59 1.719 2.4l.063.084c.546.804 1.063 1.626 1.563 2.443l.063.084c.498.816.954 1.631 1.406 2.458l.063.11c.446.82.88 1.647 1.281 2.476l.063.137c.395.822.775 1.662 1.125 2.492l.063.137c.348.829.666 1.646.969 2.481l.063.19c.294.819.561 1.647.813 2.47l.063.19.219.811c.177.623.348 1.24.5 1.865l.188.888c.12.532.242 1.056.344 1.589.147.768.265 1.539.375 2.308l.063.376.031.241.031.241c.102.819.19 1.64.25 2.458.059.804.107 1.621.125 2.423v.265c.015.895.004 1.786-.031 2.678-.032.788-.085 1.567-.156 2.35l-.031.316c-.076.774-.166 1.547-.281 2.315-.121.804-.274 1.615-.438 2.411l-.031.21-.063.314c-.165.759-.358 1.518-.563 2.269l-.094.338c-.208.74-.441 1.477-.688 2.208-.164.487-.35.967-.531 1.449-.175.467-.34.934-.531 1.396-.295.713-.605 1.409-.938 2.111l-.188.385-.125.283c-.356.721-.728 1.416-1.125 2.124-.377.673-.774 1.327-1.188 1.987l-.25.381c-.415.648-.83 1.293-1.281 1.928l-.281.405c-.199.274-.419.535-.625.806-.362.477-.742.94-1.125 1.408v.026c-.491.599-1.006 1.194-1.531 1.778-.457.508-.954.997-1.438 1.493l-.563.624-.406.396-.5.47c-.557.528-1.131 1.041-1.719 1.553-.606.528-1.235 1.058-1.875 1.569l-.469.392c-21.13 16.482-52.259 17.19-77.188 4.146l.125-.151c-3.704-1.866-7.262-4.016-10.625-6.49-.539-.396-1.065-.812-1.594-1.224-.514-.401-1.027-.803-1.531-1.22l-.281-.232c-.822-.692-1.612-1.4-2.406-2.129-.794-.729-1.565-1.453-2.313-2.202l-.25-.256c-.45-.459-.882-.924-1.313-1.391-.443-.479-.889-.957-1.313-1.444-2.641-3.038-4.885-6.213-6.781-9.489l-.188.093c-13.339-22.085-9.974-48.281 11.156-64.762l.5-.363c.653-.498 1.329-.985 2-1.454.651-.454 1.302-.897 1.969-1.323l.813-.528c.343-.212.715-.385 1.063-.59.624-.367 1.239-.747 1.875-1.091.738-.399 1.497-.776 2.25-1.145.582-.285 1.159-.568 1.75-.834.447-.201.892-.406 1.344-.597.681-.288 1.371-.549 2.063-.813l.531-.202c.945-.352 1.881-.69 2.844-.998.866-.277 1.715-.534 2.594-.776l.469-.1c.968-.259 1.925-.512 2.906-.728.56-.124 1.123-.225 1.688-.335.583-.113 1.163-.232 1.75-.33.881-.148 1.768-.285 2.656-.4l.219-.011c.416-.053.833-.107 1.25-.153.672-.073 1.356-.15 2.031-.205l.25-.009c.951-.073 1.919-.137 2.875-.173 1.964-.075 3.93-.07 5.906.01 1.052.042 2.103.106 3.156.191z" opacity=".7" fill="#2d3335" filter="url(#N)"/><path d="M9 42.271s7.5 9.317 11.75 21.81c4.25 12.493 6.25 21.598 6.25 21.598s-5.5 10.799-8.25 20.963c-2.75 10.164-5.75 21.175-5.75 21.175s5.75 13.552 9.25 25.41l3.75 18.846s-4 8.682-7.5 20.54c-3.5 11.858-5 26.045-5 26.045s9.25-1.694 28.5 1.059l32.25 5.082s12.75-2.329 24-5.294c11.25-2.965 16.25-5.505 16.25-5.505s5.5.423 22.5 5.294c17 4.87 29.25 7.199 29.25 7.199s13-2.329 26-4.87l26.5-6.776s-.75-4.235 4.25-20.752l8.75-23.716s-.5-2.117-3.75-15.034c-3.25-12.917-10-25.198-10-25.198s1.75-10.588 6.75-21.81c5-11.223 10.25-22.657 10.25-22.657s-4.75-12.917-7.5-25.198l-8.25-20.116s-24.25 7.623-31.75 8.893c-7.5 1.27-21 4.447-21 4.447s-9.75-3.6-22-7.199c-12.25-3.6-29.75-4.659-29.75-4.659s-3.25 2.965-22 6.776l-27.5 4.87s-18.5-7.623-31.5-9.74-24-1.694-24.75-1.482z" opacity=".5" fill="url(#O)" filter="url(#P)"/><path d="M9 2.25s7.5 13 11.75 27.75l6.25 25.5s-5.5 12.75-8.25 24.75l-5.75 23s5.75 16 9.25 30l3.75 24.25s-4 10.25-7.5 24.25l-5 30.75s9.25-2 28.5 1.25l32.25 6s12.75-2.75 24-6.25l16.25-6.5s5.5.5 22.5 6.25l29.25 8.5s13-2.75 26-5.75l26.5-8s-.75-5 4.25-24.5l8.75-28s-.5-4.5-3.75-19.75l-10-29.75s1.75-10.5 6.75-23.75l10.25-26.75s-4.75-15.25-7.5-29.75l-8.25-25.75s-24.25 9-31.75 10.5l-21 5.25s-9.75-4.25-22-8.5l-29.75-5.5s-3.25 3.5-22 8l-27.5 5.75s-18.5-9-31.5-11.5-24-2-24.75-1.75z" fill="#ceeeab"/><path d="M110.75-4.5l-4.25 7c-.75 9-2.25 13.75-8.5 16.5s-12.25 3.5-11 7.5 13 9.25 14.25 13 8.25 1.75 11 7 2 15.25-3.75 17.25-17.5.5-20.25 9.5-4.75 10.5-9 12.75-7.25 10.5-3.5 16.5 12.25-1.25 15-6.5l7.25-8.75h23.75l59-1.75 3.25-3.75s3.25 4 2.75 8.75-3.75 14.75.25 17.25 19.5-2 24-7-4.75-28.25-10.5-29.5-18.5-1.75-17-7 11.75 4.5 17.25 3.25 16.75-21 12-25.25-24.25-5.25-25.75-8 21-8 22.25-11-2.5-7.25-6.25-8.5-14 16.25-21 15.75-20 5.75-17.25 11.5-6 11-14.5 6.5-24.75-13-21.75-24l21.5-18.75-39.25-10.25zm-13.563 107.219c-1.595.146-4.469 4.688-4.938 7.031-.5 2.5-3.25 6.75-3.5 12.25s4.75 6.75 8.75 6.5 2.75-6.75 2-15c-.25 0-.5-10.25-2-10.75-.094-.031-.206-.041-.313-.031zm92.719 51.656c-6.335.295-6.625 7.469-7.406 8.875-1.25 2.25 2.25 13.75 2 18s-4.75 5.25-9.5 9.75.5 16 11.25 31l44.75 1.25-1-35s4.75-4.25-20.75-24.25c-9.563-7.5-15.542-9.802-19.344-9.625zm-149.969 16.531c-4.029-.103-8.281 5.719-9.688 7.594-1.5 2-6.25 5-17 9.5l-14.5 34.25 53 4.25s1.75-11-4.25-15.75-17.25-5.75-18.25-13.25 9.25-10 13.75-14.25 2-11.25-2.25-12.25c-.266-.063-.544-.087-.813-.094z" fill="#a6dd8b" clip-path="url(#Q)"/><path d="M158.531 75.344c-4.76-.014-9.031.969-11.531 3.156-8 7-35 .75-48.5 7s-13.25 38-14.75 44.5-17.5 20.75-20 23.5-13.25 7.25-19.5 8.5-12.75 7.25-15.5 11c-2.021 2.756-7.406 6.45-10.125 8.219l-.125.531c-.134.535-.247 1.083-.375 1.625 4.98-1.605 11.18-8.18 16.625-13.625 6.25-6.25 20-7.75 27.75-11.5s14.25-19.75 26.5-23.75 21.25 11.75 24.25 18.5 1.75 12.75 3.75 17 11 11.75 11.5 13.5-5 6.5-6.25 8.5-10.5 7-11.75 8.75c-.966 1.352-1.923 6.773-2.313 9.219l1.125-.469c.484-2.529 1.515-7.078 2.938-8.5 2-2 11.25-4.5 12.5-8.5l7-6.5s2.75 4 16 14c8.833 6.667 12.758 15.534 14.406 20.719l2.031.531c-1.221-4.319-4.836-16.239-8.938-20.75-5-5.5-18.5-10.75-22.75-22s-24.5-34.25-17.5-40.25 16.5-4 28.5 7.5 46.25 5.75 57.75 3.75c9.955-1.731 20.834 14.883 23.906 26.031.589-2.096 1.127-4.002 1.656-5.75-1.738-1.926-3.697-4.62-5.313-8.281-3.75-8.5-12-13.25-12-13.25s8.75-5 14.75-7.75c1.617-.741 3.006-1.677 4.188-2.656l-.438-2.094-.094-.438c-4.766 5.562-19.232 9.615-21.656 10.938-2.75 1.5-18.25 3-35.75 4.5s-26.75-7.5-34.25-14.75-13-36-3-38 20 13.75 30 17 21.5-15.75 19.75-27c-1.203-7.734-13.997-12.625-24.469-12.656zm-53.344 13.281c1.275.001 5.859 1.594 6.563 2.375 2.25 2.5 2 7.25 0 8s-12.75 8-10.5 14.25 1.75 18-3.5 18-8 0-10-2.5-2-12 0-19.75 3.5-15 8-18.25c3.094-2.234 6.632-2.128 9.438-2.125zm13.594 73.094c.203.014 1.906 3.516 4.719 7.031 3 3.75 3.25 8.25 3.25 8.25s-4.25-4.75-6-8l-2-7.25.031-.031z" fill="#aac3e7"/><path d="M122.75 62.25c6.25.5 12.25-2.25 10.75-6.5s-12.5-7.25-13.25-3 2 10.5 2.5 9.5zm-14-15.5c-8.5-5.5-8.5-7.25-7-8s10.25 5 12.75 8-2.25 2-5.75 0z" opacity=".387" stroke="#6d7f42" stroke-linecap="round" stroke-linejoin="round" fill="none"/><path d="M15.75 141.25c33-2.5 38.25-3.5 36.25-10.25s-8.75-23.5-23-22.5l-22.75-6.75m11.25 65.5c18.25-10 28.75-8.5 35-11.5s13.25-5.75 15.75-9.5 5.75-11.5 5.75-18-3.5-36 3.25-43.5 17.25-26 26-23.25 12.25 9.75 22 9.5 21.75-4 24.25-12.25-15.75-16-16-23 5.5-14.25 20.25-17l23.5-11.5m-162.75 143.75c15.25-1.5 22.25 3.5 31.5 1.75s13.25-3 17.75-5.75 6-3.75 6.25-6.5 1-12.5-3-22-12.5-31.5-8.25-38.75 5.25-21.5 15.75-24.5 21-6.25 27.75-1.25 12.75 14.25 20 14.5 11.75-1.5 14.5-4.5 4.5-10.25 1.75-13.75-15.5-5.5-17.25-9.5-10.75-17-.25-26.75l36.25-8.25m-136 143.25c13.75 1 21.5 4.25 33.5-.5s13.5-5.25 13.75-8.75-.25-15.75-3-20-13-13.75-15.75-24.25.25-41 8.5-48.25 32-7.25 37.5-10.5 5.25-16.75 13-24.5l27-12.25m54.25 8.5c11.75 5 39 9.75 47.25 40.25m-227.5 155.25c19-12.5 36-1.25 49-4s38.25-37.25 46-37 5.5-11.75 8.5-13.25 5.5 6 11.75 8 24.5-2.75 23.5-5.75-7-7.75-5.5-8.5 8.5 5 12.75 3.5 43.75-1 48.5-13.5l21.5-13.5m-148.25 103.5c13.5-11.5 23.25-25 28.5-27s12.75-3.75 15.75-8 2.5-10.75 5.25-12 3.75 5.75 8.75 6 36.75-5 42.75-11.75 32.25-12.5 32.5-14.5-1-4.75.25-5.5l24.75-6m-67.25 81.25c9-13.75 20.5-41 29.5-42s10.25-2.5 12.5-4.25l17 2.25" opacity=".387" clip-path="url(#R)" stroke="#6d7f42" fill="none"/><path d="M57.75 10l-8.5 28.25 18 6.25 7.75 36.25-21 22.25 9 10.5-12 11.5.5 4.5 20.25 24.5 14-6.75 20.5 18.5-10.5 28.25 10.25 8.5-2.75 13m2.5-13.25l12.5-27.75 11-7 27.5 15.75 20.5-3.75-.25-15.75-10.25-6 12.75-26.25 5.75-3.75 38.75-10" clip-path="url(#S)" stroke="#d38484" stroke-width="2" stroke-linecap="round" fill="none"/><g opacity=".504"><path d="M219.25 330s-24.25 9-31.75 10.5l-21 5.25s-9.75-4.25-22-8.5l-29.75-5.5s-3.25 3.5-22 8l-27.5 5.75s-18.5-9-31.5-11.5-24-2-24.75-1.75c0 0 7.5 13 11.75 27.75l6.25 25.5 51.469 5.125 48.969-4 52.25 12.031c10.386-4.418 52.117-4.9 55.313-13.156 0 0-4.75-15.25-7.5-29.75l-8.25-25.75z" fill="#b1e479"/><path d="M27 385.5s-5.5 12.75-8.25 24.75l-5.75 23 50.969 16.375 53.719-15.75 52.25 17.531c16.365-4.257 32.397-9.118 48.063-15.406 0 0 1.75-10.5 6.75-23.75l10.25-26.75c-3.196 8.256-44.927 8.739-55.313 13.156l-52.25-12.031-47.969 4-52.469-5.125z" fill="#87d531"/><path d="M231.75 485.5c-17.899 7.671-35.943 14.904-54.313 21.406l-52.25-18.531-50.219 9-48.969-9.875s-4 10.25-7.5 24.25l-5 30.75s9.25-2 28.5 1.25l32.25 6s12.75-2.75 24-6.25l16.25-6.5s5.5.5 22.5 6.25l29.25 8.5s13-2.75 26-5.75l26.5-8s-.75-5 4.25-24.5l8.75-28z" fill="#ceeeab"/><path d="M13 433.25s5.75 16 9.25 30l3.75 24.25 48.969 9.875 50.219-9 52.25 18.531c18.369-6.502 36.413-13.735 54.313-21.406 0 0-.5-4.5-3.75-19.75l-10-29.75c-15.666 6.288-31.698 11.15-48.063 15.406l-52.25-17.531-53.719 15.75-50.969-16.375z" fill="#b9e787"/></g><g opacity=".522"><path d="M13.719 332.031c-2.729-.007-4.438.125-4.719.219 0 0 7.5 13 11.75 27.75l6.25 25.5s-5.5 12.75-8.25 24.75l-5.75 23s5.75 16 9.25 30l3.75 24.25s-4 10.25-7.5 24.25l-5 30.75s9.25-2 28.5 1.25l32.25 6 1.5-53.25-12.25-46.5 16-59.75c-2.22-15.48-9.068-30.046-14.25-44.75 0 0-18.5-9-31.5-11.5-8.125-1.563-15.483-1.957-20.031-1.969z" fill="#83d32b"/><path d="M114.75 331.75s-3.25 3.5-22 8l-27.5 5.75c5.182 14.704 12.03 29.27 14.25 44.75l-16 59.75 12.25 46.5-1.5 53.25s12.75-2.75 24-6.25l16.25-6.5 11.25-48.5-8.25-54.25 11.75-45c-3.44-9.727-8.064-56.93-14.5-57.5z" fill="#b1e479"/><path d="M219.25 330s-24.25 9-31.75 10.5l-21 5.25c4.924-1.358 11.437 45.392 14.25 52.25l-11.25 53.25 9.5 55-12.75 45.5s13-2.75 26-5.75l26.5-8s-.75-5 4.25-24.5l8.75-28s-.5-4.5-3.75-19.75l-10-29.75s1.75-10.5 6.75-23.75l10.25-26.75s-4.75-15.25-7.5-29.75l-8.25-25.75z" fill="#a4df62"/><path d="M114.75 331.75c6.436.57 11.06 47.773 14.5 57.5l-11.75 45 8.25 53.25-11.25 49.5s5.5.5 22.5 6.25l29.25 8.5 12.75-45.5-9.5-55 11.25-53.25c-2.813-6.858-9.326-53.608-14.25-52.25 0 0-9.75-4.25-22-8.5l-29.75-5.5z" fill="#ceeeab"/></g><path d="M9 2.25s7.5 13 11.75 27.75l6.25 25.5s-5.5 12.75-8.25 24.75l-5.75 23s5.75 16 9.25 30l3.75 24.25s-4 10.25-7.5 24.25l-5 30.75s9.25-2 28.5 1.25l32.25 6s12.75-2.75 24-6.25l16.25-6.5s5.5.5 22.5 6.25l29.25 8.5s13-2.75 26-5.75l26.5-8s-.75-5 4.25-24.5l8.75-28s-.5-4.5-3.75-19.75l-10-29.75s1.75-10.5 6.75-23.75l10.25-26.75s-4.75-15.25-7.5-29.75l-8.25-25.75s-24.25 9-31.75 10.5l-21 5.25s-9.75-4.25-22-8.5l-29.75-5.5s-3.25 3.5-22 8l-27.5 5.75s-18.5-9-31.5-11.5-24-2-24.75-1.75z" opacity=".039" fill="url(#T)"/><g opacity=".27"><path d="M219.25 0s-24.25 9-31.75 10.5l-21 5.25c4.924-1.358 11.437 45.392 14.25 52.25l-.063.281c11.808-4.074 51.21-4.768 54.313-12.781 0 0-4.75-15.25-7.5-29.75l-8.25-25.75z" fill="url(#U)"/><path d="M27 55.5s-5.5 12.75-8.25 24.75l-5.75 23 50.625 16.281 15.781-58.906-52.406-5.125z" fill="url(#V)"/><path d="M26 157.5s-4 10.25-7.5 24.25l-5 30.75s.147-.045.438-.094c2.034-.338 11.219-1.5 28.063 1.344 19.25 3.25 32.25 6 32.25 6l1.469-52.5-.75.125-48.969-9.875z" fill="url(#W)"/><path d="M114.75 1.75s-3.25 3.5-22 8l-27.5 5.75c5.182 14.704 12.03 29.27 14.25 44.75l-.094.313 48.031-3.938 1.125.25c-3.362-13.323-7.796-54.592-13.813-55.125z" fill="url(#X)"/><path d="M117.594 103.906l-53.625 15.719-.344-.094-.125.469 12.25 46.5-.031.75 49.469-8.875.531.188.031-.063-8.25-54.25.094-.344z" fill="url(#Y)"/><path d="M128.563 56.875c.234.928.464 1.742.688 2.375l-11.656 44.656.094-.031 51.813 17.375 11.188-52.969c-.357.123-.695.245-1 .375l-51.125-11.781z" fill="url(#Z)"/><path d="M125.531 158.5l-11.031 48.5s5.5.5 22.5 6.25c2.125.719 4.163 1.406 6.125 2.031 1.962.625 3.855 1.186 5.625 1.719 10.617 3.199 17.5 4.75 17.5 4.75l12.719-45.406-1.531.563-51.906-18.406z" fill="url(#aa)"/><path d="M218 106c-15.666 6.288-31.698 11.15-48.063 15.406l-.438-.156 9.5 55-.031.094c17.839-6.36 35.381-13.387 52.781-20.844 0 0-.5-4.5-3.75-19.75l-10-29.75z" fill="url(#ab)"/></g><g opacity=".043"><path d="M13.719 2.031c-1.106-.003-1.972.032-2.719.063-.445.018-.855.039-1.156.063h-.094c-.398.033-.656.063-.75.094 0 0 7.5 13 11.75 27.75l6.25 25.5 51.469 5.125.938-.063.094-.313c-2.22-15.48-9.068-30.046-14.25-44.75 0 0-18.5-9-31.5-11.5-1.018-.196-2.01-.371-3-.531-.596-.097-1.167-.196-1.75-.281l-.688-.094c-1.306-.182-2.588-.34-3.813-.469-.735-.077-1.395-.128-2.094-.188-.685-.059-1.353-.112-2-.156-.992-.068-1.89-.118-2.781-.156-1.456-.063-2.769-.091-3.906-.094z" fill="url(#ac)"/><path d="M13 103.25s5.75 16 9.25 30l3.75 24.25 48.969 9.875.75-.125.031-.75-12.25-46.5.125-.469-50.625-16.281z" fill="url(#ad)"/><path d="M127.438 56.625l-47.969 4h-.063l-15.781 58.906.344.094 53.625-15.719 11.656-44.656c-.224-.633-.453-1.447-.688-2.375l-1.125-.25z" fill="url(#ae)"/><path d="M125.188 158.375l-49.469 8.875-1.469 52.5s12.75-2.75 24-6.25l16.25-6.5 11.219-48.438-.531-.188z" fill="url(#af)"/><path d="M114.75 1.75c6.016.533 10.45 41.802 13.813 55.125l51.125 11.781c.305-.13.643-.252 1-.375l.063-.281c-2.813-6.858-9.326-53.608-14.25-52.25l-1.719-.719c-3.316-1.395-11.094-4.594-20.281-7.781-12.25-4.25-29.75-5.5-29.75-5.5z" fill="url(#ag)"/><path d="M117.688 103.875l-.094.031-.094.344 8.25 53.25-.219 1 51.906 18.406 1.531-.562.031-.094-9.5-55-51.813-17.375z" fill="url(#ah)"/><path d="M231.75 155.5c-17.4 7.457-34.942 14.484-52.781 20.844l-12.719 45.406s13-2.75 26-5.75l26.5-8s-.75-5 4.25-24.5l8.75-28z" fill="url(#ai)"/><path d="M235 55.5c-3.102 8.014-42.505 8.707-54.313 12.781l-11.188 52.969.438.156c16.365-4.257 32.397-9.118 48.063-15.406 0 0 1.75-10.5 6.75-23.75l10.25-26.75z" fill="url(#aj)"/></g><g clip-path="url(#ak)"><path d="M-16.537-32.682s9.394 16.548 14.717 35.174c5.323 18.625 7.828 32.161 7.828 32.161s-6.889 15.775-10.333 30.708c-3.444 14.933-7.202 28.605-7.202 28.605s7.202 20.244 11.586 37.904c4.384 17.659 4.697 30.507 4.697 30.507s-5.01 12.697-9.394 30.109c-4.384 17.412-6.263 38.339-6.263 38.339s11.586-2.178 35.697 2.575c24.111 4.752 40.394 8.657 40.394 8.657s15.97-2.993 30.061-6.979l20.354-7.566s6.889.821 28.182 8.625l36.637 11.682s16.283-2.984 32.566-6.282c16.283-3.297 33.192-9.082 33.192-9.082s-.939-6.289 5.323-30.537c6.263-24.247 10.96-34.761 10.96-34.761s-.626-5.654-4.697-24.87l-12.525-37.617s2.192-13.09 8.455-29.509l12.839-33.143s-5.95-19.269-9.394-37.528l-10.333-32.545s-30.374 10.414-39.768 12.028c-9.394 1.613-26.303 5.832-26.303 5.832s-12.212-5.668-27.556-11.425c-15.344-5.757-37.263-7.942-37.263-7.942s-4.071 4.269-27.556 9.242c-23.485 4.973-34.445 6.229-34.445 6.229s-23.172-11.928-39.455-15.519c-16.283-3.592-30.061-3.355-31-3.068z" fill="#ceeeab"/><path d="M110.909-37.535l-5.323 8.617c-.939 11.246-2.818 17.143-10.647 20.366-7.828 3.223-15.344 3.95-13.778 9.005 1.566 5.054 16.283 12.046 17.849 16.787 1.566 4.741 10.333 2.484 13.778 9.157 3.444 6.673 2.505 19.172-4.697 21.474-7.202 2.302-21.919.007-25.364 11.182-3.444 11.175-5.95 12.983-11.273 15.651-5.323 2.668-9.081 12.895-4.384 20.543 4.697 7.648 15.344-1.132 18.788-7.611 3.444-6.478 9.081-10.703 9.081-10.703l29.748.841 73.9-.103 4.071-4.582s4.071 5.125 3.444 11.057c-.626 5.932-4.697 18.342.313 21.615 5.01 3.273 24.424-1.815 30.061-7.918 5.636-6.103-5.95-35.552-13.152-37.322-7.202-1.769-23.172-2.847-21.293-9.37 1.879-6.523 14.717 6.052 21.606 4.681 6.889-1.371 20.98-25.71 15.03-31.202-5.95-5.491-30.374-7.434-32.253-10.932-1.879-3.498 26.303-9.277 27.869-12.99 1.566-3.713-3.131-9.169-7.828-10.868-4.697-1.698-17.536 19.858-26.303 18.984-8.768-.874-25.051 6.494-21.606 13.794 3.444 7.299-7.515 13.566-18.162 7.628-10.647-5.937-31-17.159-27.243-30.831 3.758-13.672 26.93-22.724 26.93-22.724l-49.162-14.228zm-16.988 133.815c-1.998.127-5.597 5.713-6.184 8.632-.626 3.114-4.071 8.34-4.384 15.22-.313 6.88 5.95 8.623 10.96 8.451 5.01-.172 3.444-8.357 2.505-18.717-.313-.009-.626-12.856-2.505-13.536-.117-.042-.258-.059-.391-.05zm116.134 67.983c-7.935.146-8.298 9.12-9.277 10.854-1.566 2.774 2.818 17.302 2.505 22.616-.313 5.314-5.95 6.408-11.899 11.876-5.95 5.468.626 20.058 14.091 39.227l56.051 3.15-1.253-43.874s5.95-5.155-25.99-31.109c-11.977-9.733-19.468-12.828-24.229-12.74zm-187.841 15.397c-5.047-.271-10.373 6.87-12.134 9.169-1.879 2.452-7.828 6.041-21.293 11.297l-18.162 42.386 66.384 7.199s2.192-13.716-5.323-19.878c-7.515-6.162-21.606-7.813-22.859-17.242-1.253-9.429 11.586-12.198 17.222-17.362 5.636-5.164 2.505-14.02-2.818-15.423-.333-.088-.681-.128-1.018-.146z" fill="#a6dd8b" clip-path="url(#al)"/><path d="M170.757 64.164c-5.962-.186-11.312.894-14.443 3.545-10.02 8.485-43.839-.3-60.748 7.051-16.909 7.35-16.596 47.127-18.475 55.216-1.879 8.088-21.919 25.371-25.051 28.727-3.131 3.356-16.596 8.612-24.424 9.956-7.828 1.344-15.97 8.63-19.414 13.229-2.532 3.381-9.276 7.817-12.682 9.936l-.157.661c-.167.665-.31 1.348-.47 2.022 6.237-1.834 14.003-9.849 20.823-16.477 7.828-7.607 25.051-8.999 34.758-13.422 9.707-4.423 17.849-24.233 33.192-28.81 15.344-4.577 26.616 15.47 30.374 24.03 3.758 8.561 2.192 16.032 4.697 21.426 2.505 5.394 13.778 15.107 14.404 17.316.626 2.21-6.263 7.964-7.828 10.425-1.566 2.461-13.152 8.396-14.717 10.544-1.21 1.659-2.409 8.416-2.896 11.465.517-.197.945-.362 1.409-.547.606-3.151 1.898-8.812 3.679-10.543 2.505-2.434 14.091-5.238 15.657-10.204 1.566-4.966 8.768-7.894 8.768-7.894s3.444 5.107 20.041 18.102c11.064 8.663 15.98 19.908 18.044 26.461.844.238 1.92.567 2.544.737-1.53-5.453-6.058-20.511-11.195-26.307-6.263-7.066-23.172-14.12-28.495-28.361-5.323-14.241-30.687-43.767-21.919-51.034 8.768-7.267 20.667-4.426 35.697 10.403 15.03 14.829 57.93 8.839 72.334 6.741 12.468-1.816 26.096 19.379 29.943 33.451.738-2.604 1.411-4.973 2.075-7.143-2.177-2.474-4.631-5.918-6.654-10.561-4.697-10.779-15.03-17.021-15.03-17.021s10.96-5.953 18.475-9.185c2.025-.871 3.765-1.994 5.245-3.179-.203-.975-.324-1.582-.548-2.638l-.117-.551c-5.969 6.798-24.089 11.363-27.125 12.933-3.444 1.781-22.859 3.112-44.778 4.371-21.919 1.259-33.505-10.341-42.899-19.687-9.394-9.346-16.283-45.551-3.758-47.703 12.525-2.151 25.051 17.93 37.576 22.355 12.525 4.425 26.93-18.966 24.738-33.119-1.507-9.73-17.532-16.308-30.648-16.719zm-66.815 14.747c1.597.047 7.339 2.204 8.22 3.207 2.818 3.211 2.505 9.152 0 10.02-2.505.869-15.97 9.569-13.152 17.477 2.818 7.908 2.192 22.608-4.384 22.422-6.576-.186-10.02-.283-12.525-3.485-2.505-3.202-2.505-15.101 0-24.738 2.505-9.636 4.384-18.664 10.02-22.576 3.875-2.689 8.307-2.431 11.821-2.328zm17.027 92.034c.255.024 2.388 4.471 5.91 8.974 3.758 4.803 4.071 10.448 4.071 10.448s-5.323-6.1-7.515-10.233c-2.192-4.133-2.505-9.152-2.505-9.152l.039-.038z" fill="#aac3e7"/><path d="M125.939 46.497c7.828.848 15.344-2.385 13.465-7.761-1.879-5.376-15.657-9.523-16.596-4.227-.939 5.297 2.505 13.222 3.131 11.988zm-17.535-19.91c-10.647-7.19-10.647-9.382-8.768-10.268 1.879-.886 12.839 6.626 15.97 10.472 3.131 3.846-2.818 2.425-7.202-.204z" opacity=".387" stroke="#6d7f42" stroke-linecap="round" stroke-linejoin="round" stroke-width="1.253" fill="none"/><path d="M-8.082 141.66c41.334-1.963 47.91-3.03 45.404-11.555-2.505-8.525-10.96-29.744-28.808-28.996-17.849.748-28.495-9.26-28.495-9.26m14.091 82.439c22.859-11.879 36.01-9.629 43.839-13.165 7.828-3.536 16.596-6.733 19.727-11.342 3.131-4.609 7.202-14.201 7.202-22.342 0-8.141-4.384-45.215 4.071-54.37 8.455-9.155 21.606-31.955 32.566-28.201 10.96 3.754 15.344 12.646 27.556 12.678 12.212.032 27.243-4.24 30.374-14.485 3.131-10.245-19.727-20.598-20.041-29.375-.313-8.777 6.889-17.654 25.364-20.576 18.475-2.922 29.435-13.572 29.435-13.572m-203.851 174.29c19.101-1.339 27.869 5.171 39.455 3.307 11.586-1.865 16.596-3.289 22.233-6.574 5.636-3.285 7.515-4.485 7.828-7.92.313-3.436 1.253-15.621-3.758-27.662-5.01-12.041-15.657-39.897-10.333-48.828 5.323-8.93 6.576-26.744 19.727-30.13 13.152-3.386 26.303-7.085 34.758-.583 8.455 6.502 15.97 18.3 25.051 18.87 9.081.57 14.717-1.463 18.162-5.123 3.444-3.66 5.636-12.679 2.192-17.16s-19.414-7.438-21.606-12.51-13.465-21.674-.313-33.514c13.152-11.841 45.404-9.05 45.404-9.05m-170.345 174.611c17.222 1.739 26.93 6.084 41.96.56 15.03-5.525 16.909-6.098 17.222-10.473.313-4.375-.313-19.736-3.758-25.157-3.444-5.421-16.283-17.683-19.727-30.932-3.444-13.249.313-51.345 10.647-60.134 10.333-8.789 40.081-7.948 46.97-11.824 6.889-3.876 6.576-20.794 16.283-30.227l33.818-14.388m67.95 12.567c14.717 6.679 48.849 13.593 59.182 52.087m-284.951 186.403c23.798-14.984 45.091-.291 61.374-3.276 16.283-2.984 47.91-45.303 57.617-44.716 9.707.587 6.889-14.523 10.647-16.295 3.758-1.773 6.889 7.71 14.717 10.436s30.687-2.577 29.435-6.37c-1.253-3.793-8.768-9.955-6.889-10.841 1.879-.886 10.647 6.564 15.97 4.835 5.323-1.728 54.798.296 60.748-15.192 5.95-15.489 26.93-16.148 26.93-16.148m-185.69 124.39c16.909-13.926 29.121-30.49 35.697-32.81 6.576-2.319 15.97-4.246 19.727-9.463 3.758-5.217 3.131-13.376 6.576-14.845 3.444-1.468 4.697 7.335 10.96 7.825 6.263.49 46.031-4.962 53.546-13.204 7.515-8.242 40.394-14.515 40.707-17.011.313-2.496-1.253-5.985.313-6.88 1.566-.895 31-6.639 31-6.639m-84.232 99.388c11.273-16.904 25.677-50.628 36.95-51.562 11.273-.934 12.839-2.769 15.657-4.881 2.818-2.112 21.293 3.42 21.293 3.42" opacity=".387" clip-path="url(#am)" stroke="#6d7f42" fill="none"/><path d="M44.525-21.249l-10.647 35.083 22.546 8.466 9.707 45.679-26.303 27.126 11.273 13.47-15.03 13.979.626 5.654 25.364 31.404 17.536-7.959 25.677 23.898-13.152 35.012 12.839 11.009-3.444 16.186m3.129-16.508l15.657-34.315 13.778-8.378 34.445 20.701 25.677-3.971-.313-19.736-12.839-7.878 15.97-32.428 7.202-4.493 48.536-11.154" clip-path="url(#an)" stroke="#d38484" stroke-width="2" stroke-linecap="round" fill="none"/><path d="M-16.537-32.682s9.394 16.548 14.717 35.174c5.323 18.625 7.828 32.161 7.828 32.161s-6.889 15.775-10.333 30.708c-3.444 14.933-7.202 28.605-7.202 28.605s7.202 20.244 11.586 37.904c4.384 17.659 4.697 30.507 4.697 30.507s-5.01 12.697-9.394 30.109c-4.384 17.412-6.263 38.339-6.263 38.339s11.586-2.178 35.697 2.575c24.111 4.752 40.394 8.657 40.394 8.657s15.97-2.993 30.061-6.979l20.354-7.566s6.889.821 28.182 8.625l36.637 11.682s16.283-2.984 32.566-6.282c16.283-3.297 33.192-9.082 33.192-9.082s-.939-6.289 5.323-30.537c6.263-24.247 10.96-34.761 10.96-34.761s-.626-5.654-4.697-24.87l-12.525-37.617s2.192-13.09 8.455-29.509l12.839-33.143s-5.95-19.269-9.394-37.528l-10.333-32.545s-30.374 10.414-39.768 12.028c-9.394 1.613-26.303 5.832-26.303 5.832s-12.212-5.668-27.556-11.425c-15.344-5.757-37.263-7.942-37.263-7.942s-4.071 4.269-27.556 9.242c-23.485 4.973-34.445 6.229-34.445 6.229s-23.172-11.928-39.455-15.519c-16.283-3.592-30.061-3.355-31-3.068z" opacity=".039" fill="url(#ao)"/><g opacity=".27"><path d="M246.911-28.229s-30.385 10.428-39.783 12.045c-9.397 1.617-26.313 5.843-26.313 5.843 6.17-1.53 14.33 57.277 17.855 65.968l-.078.35c14.795-4.691 64.167-4.182 68.054-14.114 0 0-5.952-19.274-9.397-37.539-3.446-18.265-10.337-32.553-10.337-32.553z" fill="url(#ap)"/><path d="M6.022 34.584s-6.891 15.783-10.337 30.723c-3.446 14.94-7.205 28.618-7.205 28.618l63.433 22.172 19.774-73.257-65.665-8.256z" fill="url(#aq)"/><path d="M4.769 162.355s-5.012 12.703-9.397 30.123c-4.385 17.419-6.265 38.355-6.265 38.355s.184-.052.548-.102c2.548-.353 14.057-1.487 35.162 2.666 24.12 4.746 40.409 8.647 40.409 8.647l1.84-65.731-.94.13-61.358-14.087z" fill="url(#ar)"/><path d="M115.973-29.694s-4.072 4.272-27.566 9.254c-23.494 4.982-34.457 6.242-34.457 6.242 6.493 18.605 15.073 37.096 17.855 56.57l-.117.388 60.183-3.253 1.41.353c-4.213-16.811-9.768-68.676-17.307-69.555z" fill="url(#as)"/><path d="M119.536 98.407l-67.192 17.819-.431-.129-.157.583 15.349 58.693-.039.939 61.984-9.389.666.254.039-.077-10.337-68.264.117-.427z" fill="url(#at)"/><path d="M133.28 39.861c.293 1.171.581 2.198.861 3l-14.605 55.546.117-.036 64.921 23.584 14.018-65.978c-.447.142-.871.283-1.253.435l-64.06-16.551z" fill="url(#au)"/><path d="M129.482 167.091l-13.822 60.384s6.891.819 28.192 8.619c2.663.975 5.216 1.907 7.675 2.76 2.458.852 4.831 1.62 7.048 2.35 13.303 4.38 21.927 6.564 21.927 6.564l15.937-56.449-1.919.651-65.039-24.88z" fill="url(#av)"/><path d="M245.345 104.545c-19.629 7.331-39.717 12.861-60.222 17.622l-.548-.211 11.903 69.247-.039.116c22.352-7.345 44.333-15.535 66.135-24.27 0 0-.626-5.656-4.699-24.878-4.072-19.222-12.53-37.627-12.53-37.627z" fill="url(#aw)"/></g><g opacity=".043"><path d="M-10.619-32.878c-1.386-.042-2.471-.029-3.407-.017-.558.007-1.072.019-1.449.038l-.117-.003c-.499.027-.822.055-.94.091 0 0 9.397 16.551 14.723 35.182 5.325 18.631 7.831 32.17 7.831 32.17l64.49 8.223 1.175-.045.117-.388c-2.782-19.474-11.362-37.966-17.855-56.57 0 0-23.18-11.925-39.469-15.512-1.276-.281-2.519-.535-3.759-.771-.746-.142-1.462-.287-2.193-.414l-.861-.141c-1.637-.274-3.243-.517-4.777-.721-.92-.122-1.747-.209-2.623-.308-.858-.098-1.695-.188-2.506-.266-1.243-.12-2.369-.214-3.485-.293-1.825-.13-3.47-.211-4.895-.254z" fill="url(#ax)"/><path d="M-11.52 93.924s7.205 20.249 11.59 37.914c4.385 17.664 4.699 30.516 4.699 30.516l61.358 14.087.94-.13.039-.939-15.349-58.693.157-.583-63.433-22.172z" fill="url(#ay)"/><path d="M131.87 39.508l-60.105 3.333-.078-.002-19.774 73.257.431.129 67.192-17.819 14.605-55.546c-.281-.801-.568-1.829-.861-3l-1.41-.353z" fill="url(#az)"/><path d="M129.051 166.922l-61.984 9.389-1.84 65.731s15.976-2.999 30.072-6.991c14.096-3.992 20.361-7.576 20.361-7.576l14.057-60.3-.666-.254z" fill="url(#aA)"/><path d="M115.973-29.694c7.539.879 13.094 52.744 17.307 69.555l64.06 16.551c.382-.152.806-.293 1.253-.435l.078-.35c-3.525-8.691-11.686-67.498-17.855-65.968 0 0-.768-.34-2.154-.961-4.155-1.863-13.9-6.144-25.412-10.46-15.349-5.754-37.277-7.933-37.277-7.933z" fill="url(#aB)"/><path d="M119.653 98.371l-.117.036-.117.427 10.337 67.011-.274 1.245 65.039 24.88 1.919-.651.039-.116-11.903-69.247-64.921-23.584z" fill="url(#aC)"/><path d="M262.574 167.05c-21.802 8.735-43.783 16.925-66.135 24.27l-15.937 56.449s16.289-2.991 32.578-6.295l33.204-9.096s-.94-6.291 5.325-30.55c6.265-24.258 10.964-34.778 10.964-34.778z" fill="url(#aD)"/><path d="M266.646 41.864c-3.887 9.932-53.258 9.423-68.054 14.114l-14.018 65.978.548.211c20.505-4.761 40.593-10.291 60.222-17.622 0 0 2.193-13.095 8.458-29.523 6.265-16.427 12.843-33.159 12.843-33.159z" fill="url(#aE)"/></g></g><path d="M174.281 28.914c-17.599-1.423-35.192 3.793-48.719 15.966l-.5.428c-22.056 20.272-26.209 53.132-12.469 80.492l-2.281 1.44c2.249 4.422 4.942 8.706 8.094 12.78l-13.313 12.267c-1.341-.694-2.789-1.259-4.563-1.744l-2.844 2.614c-1.109-.574-2.138-.989-3.063-1.123l-64.125 58.939c-.037 1.098.226 2.206.656 3.334l-.531.488-1.094 1.005c.715 3.796 2.01 6.986 5.469 10.724 3.458 3.738 6.42 5.15 10.281 6.3l1.094-1.005.719-.661c1.088.55 2.13.958 3.094 1.094l64.125-58.939c-.243-.994-.62-1.986-1.031-2.99l3-2.757c-.25-1.752-.677-3.253-1.313-4.7l13.281-12.207c3.818 3.461 7.885 6.483 12.125 9.074l1.625-2.15c26.249 15.863 59.444 14.395 81.5-5.877l.469-.462c26.694-25.058 26.549-68.773-.469-97.975-13.59-14.689-31.407-22.915-49.219-24.356zm-.5 3.241l.313.025c.949.095 1.895.219 2.844.355.958.138 1.919.303 2.875.483l.281.054.281.054.438.098c.896.182 1.795.373 2.688.592.619.152 1.227.323 1.844.493l1.031.271c.724.211 1.436.44 2.156.674l.938.295.219.08c.956.33 1.897.67 2.844 1.042l.219.08c.947.376 1.907.78 2.844 1.199l.156.075c.955.43 1.902.881 2.844 1.355l.156.075c.942.476 1.885.989 2.813 1.509l.125.073c.935.527 1.862 1.06 2.781 1.631l.094.07c.927.578 1.841 1.162 2.75 1.785l.094.07c.908.624 1.799 1.267 2.688 1.936.549.413 1.084.857 1.625 1.288.365.29.733.572 1.094.87l.063.036c.878.726 1.74 1.501 2.594 2.272 1.743 1.575 3.431 3.24 5.063 5.003 1.62 1.752 3.136 3.554 4.563 5.4l.031.034c.703.911 1.407 1.829 2.063 2.761.283.402.539.817.813 1.222.37.547.74 1.098 1.094 1.651l.063.068c.598.938 1.167 1.872 1.719 2.827l.063.099c.546.947 1.063 1.915 1.563 2.876l.063.099c.498.961.954 1.921 1.406 2.895l.063.13c.446.966.88 1.939 1.281 2.916l.063.161c.395.968.775 1.958 1.125 2.935l.063.161c.348.976.666 1.938.969 2.922l.063.224c.294.965.561 1.939.813 2.909l.063.224.219.955c.177.734.348 1.461.5 2.197l.188 1.046c.12.627.242 1.244.344 1.872.147.904.265 1.813.375 2.718l.063.443.031.284.031.284c.102.964.19 1.932.25 2.895.059.947.107 1.909.125 2.854v.313c.015 1.055.004 2.104-.031 3.154-.032.928-.085 1.846-.156 2.769l-.031.372c-.076.912-.166 1.822-.281 2.727-.121.947-.274 1.902-.438 2.84l-.031.247-.063.37c-.165.894-.358 1.788-.563 2.673l-.094.399c-.208.872-.441 1.739-.688 2.601-.164.573-.35 1.139-.531 1.707-.175.55-.34 1.1-.531 1.645-.295.84-.605 1.66-.938 2.487l-.188.454-.125.334c-.356.85-.728 1.669-1.125 2.503-.377.793-.774 1.564-1.188 2.341l-.25.449c-.415.764-.83 1.524-1.281 2.271l-.281.477c-.199.323-.419.63-.625.949-.362.562-.742 1.108-1.125 1.659v.031c-.491.706-1.006 1.407-1.531 2.095-.457.599-.954 1.174-1.438 1.759l-.563.736-.406.467-.5.553c-.557.622-1.131 1.226-1.719 1.83-.606.622-1.235 1.247-1.875 1.848l-.469.462c-21.13 19.421-52.259 20.268-77.188 4.914l.125-.177c-3.704-2.196-7.262-4.728-10.625-7.641-.539-.467-1.065-.956-1.594-1.441-.514-.473-1.027-.946-1.531-1.436l-.281-.273c-.822-.814-1.612-1.649-2.406-2.507-.794-.859-1.565-1.711-2.313-2.593l-.25-.301c-.45-.54-.882-1.088-1.313-1.637-.443-.564-.889-1.127-1.313-1.7-2.641-3.577-4.885-7.316-6.781-11.173l-.188.11c-13.339-26.008-9.974-56.864 11.156-76.285l.5-.428c.653-.587 1.329-1.161 2-1.713.651-.535 1.302-1.057 1.969-1.56l.813-.622c.343-.25.715-.454 1.063-.695.624-.433 1.239-.88 1.875-1.286.738-.471 1.497-.915 2.25-1.349.582-.336 1.159-.67 1.75-.983.447-.237.892-.479 1.344-.704.681-.34 1.371-.647 2.063-.958l.531-.238c.945-.415 1.881-.814 2.844-1.176.866-.327 1.715-.63 2.594-.915l.469-.118c.968-.306 1.925-.603 2.906-.859.56-.146 1.123-.265 1.688-.395.583-.134 1.163-.273 1.75-.39.881-.175 1.768-.337 2.656-.473l.219-.014c.416-.062.833-.127 1.25-.18.672-.086 1.356-.178 2.031-.242l.25-.011c.951-.087 1.919-.162 2.875-.205 1.964-.089 3.93-.084 5.906.009 1.052.049 2.103.123 3.156.224z" clip-path="url(#aF)" fill="#2d3335" filter="url(#aG)"/><path d="M48.01 227.457l-4.808 4.558c-5.006-5.315-10.24-10.706-15.079-16.133l4.49-4.073c6.829 6.534 8.873 8.53 15.397 15.648z" fill="url(#aH)"/><path d="M-95.5 225c28.719 0 52 23.281 52 52s-23.281 52-52 52-52-23.281-52-52 23.281-52 52-52z" fill="#d0e9f2" fill-opacity=".476"/><path d="M-82 136c-27.614 0-50-22.386-50-50s22.386-50 50-50 50 22.386 50 50-22.386 50-50 50zm0-3c26.51 0 48-20.49 48-47s-21.49-47-48-47-48 20.49-48 47 21.49 47 48 47z" fill="#2d3335"/><path d="M-82 136c-27.614 0-50-22.386-50-50v-.5c.271 27.382 22.554 49.5 50 49.5s49.729-22.118 50-49.5v.5c0 27.614-22.386 50-50 50zm-48-50.5v-.5c0-26.51 21.49-47 48-47s48 20.49 48 47v.5c-.269-26.266-21.658-46.5-48-46.5s-47.731 20.234-48 46.5z" fill="#9eaaac"/><path d="M-82 134c26.51 0 48-21.49 48-48s-21.49-48-48-48-48 21.49-48 48 21.49 48 48 48z" fill="#d0e9f2" fill-opacity=".476"/><path d="M-82 134c26.51 0 48-21.49 48-48s-21.49-48-48-48-48 21.49-48 48 21.49 48 48 48z" fill="url(#aI)"/><path d="M-96.438 130.719l-.844 5c4.83 1.482 9.965 2.281 15.281 2.281 5.316 0 10.451-.799 15.281-2.281l-.844-5c-4.552 1.469-9.396 2.281-14.438 2.281-5.041 0-9.885-.812-14.438-2.281z" fill="url(#aJ)"/><path d="M-82 136.25c1.757 0 3.431.298 5 .813v26.625c-1.569.514-3.243.813-5 .813-1.757 0-3.431-.298-5-.813v-26.625c1.569-.514 3.243-.813 5-.813z" fill="url(#aK)"/><path d="M-82 150.5c3.514 0 5.613.653 8 2.438v67.124c-3.137.91-4.486 1.438-8 1.438-3.514 0-4.863-.528-8-1.438v-67.124c2.637-1.785 4.486-2.438 8-2.438z" fill="url(#aL)"/><path d="M-82 154.5c3.514 0 7.238.778 10 2.438v65.124c-2.012 1.785-6.486 2.438-10 2.438-3.514 0-7.863-.153-10-2.438v-65.124c1.887-1.66 6.486-2.438 10-2.438z" fill="url(#aM)"/><path d="M-82 217.5c3.514 0 5.863.778 8 2.438v5.124c-2.387 1.535-4.486 2.438-8 2.438-3.514 0-5.738-.903-8-2.438v-5.124c2.387-1.91 4.486-2.438 8-2.438z" fill="url(#aN)"/><path d="M-82 221.5c-3.514 0-5.613.277-8 2.438v1.125c2.262 1.535 4.486 2.438 8 2.438 3.514 0 5.613-.902 8-2.438v-1.125c-2.512-2.035-4.486-2.438-8-2.438z" fill="#e0bb41"/><path d="M125.064 134.686c-27.18-27.18-27.18-71.247 0-98.427 27.18-27.18 71.247-27.18 98.427 0 27.18 27.18 27.18 71.247 0 98.427-27.18 27.18-71.247 27.18-98.427 0zm2.953-2.953c26.093 26.093 67.413 27.077 93.506.984 26.093-26.093 25.108-67.413-.984-93.506-26.093-26.093-67.413-27.077-93.506-.984-26.093 26.093-25.108 67.413.984 93.506z" fill="#2d3335"/><path d="M125.064 134.686c-27.18-27.18-27.18-71.247 0-98.427l.492-.492c-26.685 27.218-26.522 70.921.492 97.935 27.014 27.014 70.717 27.177 97.935.492l-.492.492c-27.18 27.18-71.247 27.18-98.427 0zm2.461-96.951l.492-.492c26.093-26.093 67.413-25.108 93.506.984 26.093 26.093 27.077 67.413.984 93.506l-.492.492c25.587-26.118 24.451-67.086-1.476-93.014-25.928-25.928-66.896-27.064-93.014-1.476z" fill="#9eaaac"/><path d="M127.033 132.717c26.093 26.093 68.397 26.093 94.49 0 26.093-26.093 26.093-68.397 0-94.49-26.093-26.093-68.397-26.093-94.49 0-26.093 26.093-26.093 68.397 0 94.49z" fill="#d0e9f2" fill-opacity=".476"/><path d="M127.033 132.717c26.093 26.093 68.397 26.093 94.49 0 26.093-26.093 26.093-68.397 0-94.49-26.093-26.093-68.397-26.093-94.49 0-26.093 26.093-26.093 68.397 0 94.49z" fill="url(#aO)"/><path d="M116.052 115.277l-5.752 4.091c3.295 6.213 7.563 12.054 12.796 17.286 5.232 5.232 11.073 9.5 17.286 12.796l4.091-5.752c-5.927-3.035-11.494-7.003-16.456-11.965s-8.93-10.529-11.965-16.456z" fill="url(#aP)"/><path d="M124.818 134.932c1.729 1.729 3.084 3.671 4.122 5.721l-26.206 26.206c-2.05-1.038-3.992-2.392-5.721-4.122-1.729-1.729-3.084-3.671-4.122-5.721l26.206-26.206c2.05 1.038 3.992 2.392 5.721 4.122z" fill="url(#aQ)"/><path d="M116.267 159.232l-66.068 66.068c-3.984-2.192-5.831-3-9.29-6.459-3.458-3.458-4.267-5.306-6.459-9.29l66.068-66.068c5.063 3.748 12.117 10.398 15.748 15.748z" fill="url(#aR)"/><path d="M105.779 154.118c3.458 3.458 7.435 6.666 8.519 11.019l-64.1 64.1c-6.516-5.155-14.555-12.791-19.685-19.685l64.1-64.1c3.492.223 7.659 5.159 11.117 8.617l.049.049z" fill="url(#aS)"/><path d="M105.534 154.363c3.458 3.458 7.679 6.422 8.764 10.775l-64.1 64.1c-7.877-6.907-11.797-10.624-19.685-19.685l64.1-64.1c3.492.223 7.414 5.452 10.873 8.911h.049z" opacity=".596" fill="url(#aT)"/><path d="M131.168 37.05c40.659-32.173 78.135-12.728 77.782 5.303-.354 18.031-56.569 70.357-76.368 66.114-19.799-4.243-25.456-53.387-1.414-71.418z" opacity=".604" fill="url(#aU)"/><text style="-inkscape-font-specification:Sans" x="99.839" y="69.184" transform="rotate(-8.9)" font-size="19.8" opacity=".461" fill="url(#aV)" font-family="Sans"><tspan x="99.839" y="69.184" style="-inkscape-font-specification:Monospace Bold" font-weight="bold" fill="url(#aV)" font-family="Monospace">01011001</tspan><tspan x="99.839" y="93.934" style="-inkscape-font-specification:Monospace Bold" font-weight="bold" fill="url(#aV)" font-family="Monospace">00110101</tspan><tspan x="99.839" y="118.684" style="-inkscape-font-specification:Monospace Bold" font-weight="bold" fill="url(#aV)" font-family="Monospace">10010011</tspan></text><text style="-inkscape-font-specification:Sans" x="99.41" y="67.898" transform="rotate(-8.9)" font-size="19.8" fill="url(#aW)" font-family="Sans"><tspan x="99.41" y="67.898" style="-inkscape-font-specification:Monospace Bold" font-weight="bold" fill="url(#aW)" font-family="Monospace">01011001</tspan><tspan x="99.41" y="92.648" style="-inkscape-font-specification:Monospace Bold" font-weight="bold" fill="url(#aW)" font-family="Monospace">00110101</tspan><tspan x="99.41" y="117.398" style="-inkscape-font-specification:Monospace Bold" font-weight="bold" fill="url(#aW)" font-family="Monospace">10010011</tspan></text><path d="M219.463 129.09c-26.794 21.983-41.808 21.007-38.075 13.138 3.734-7.869 42.326-41.655 51.447-43.748 9.121-2.093 2.275 18.041-13.372 30.61z" opacity=".765" fill="url(#aX)"/></svg>