<svg xmlns="http://www.w3.org/2000/svg" xmlns:xlink="http://www.w3.org/1999/xlink" width="58.4" height="65.3" viewBox="0 34.7 58.4 65.3" enable-background="new 0 34.7 58.4 65.3"><polygon points="7.9,87 21,71 34.1,55.1 34.7,55.6 35.4,56.2 21.6,71.6" fill="#444"/><polygon points="16.5,92.7 28.7,76 40.8,59.3 41.5,59.8 42.1,60.3 29.3,76.5" fill="#444"/><polygon points="4,75 18.3,60.1 32.5,45.1 33.2,45.7 33.8,46.3 18.8,60.6" fill="#444"/><polygon points="28.4,95 38.9,78 49.4,61 50.1,61.4 50.7,61.9 39.6,78.4" fill="#444"/><circle cx="40.3" cy="54.6" r="9.5" fill="#444" stroke="#444" stroke-miterlimit="10"/><circle cx="40.3" cy="54.6" r="9.5" fill="#444" stroke="#444" stroke-width="6.03" stroke-miterlimit="10"/><defs><circle id="a" cx="41.1" cy="53.3" r="13.2"/></defs><clipPath id="b"><use xlink:href="#a" overflow="visible"/></clipPath><circle cx="45.7" cy="46.4" r="16.2" stroke="#fff" stroke-width=".932" stroke-miterlimit="10" fill="none" clip-path="url(#b)"/><path d="M40.7 44c1.4 3.4 4.7 5.8 8.6 5.8h.2c-1.5-3.5-4.9-5.8-8.8-5.8z" fill="#fff"/></svg>