<svg xmlns="http://www.w3.org/2000/svg" viewBox="0 0 47 46.9" enable-background="new 0 0 47 46.9"><g fill="#231F20"><path d="M23.4.5c-12.6 0-22.9 10.3-22.9 22.9 0 12.6 10.3 22.9 22.9 22.9 12.6 0 22.9-10.3 22.9-22.9 0-12.6-10.2-22.9-22.9-22.9zm0 40.8c-9.9 0-17.9-8-17.9-17.9 0-9.9 8-17.9 17.9-17.9 9.9 0 17.9 8 17.9 17.9 0 9.9-8 17.9-17.9 17.9zM31.3 19.3l-5.6 3.1v-12c0-1.4-1.1-2.5-2.5-2.5s-2.5 1.1-2.5 2.5v16.3c0 .9.5 1.7 1.2 2.2.4.2.8.3 1.3.3.4 0 .8-.1 1.2-.3l9.3-5.1c1.2-.7 1.6-2.2 1-3.4-.7-1.3-2.2-1.7-3.4-1.1z"/></g></svg>