<svg xmlns="http://www.w3.org/2000/svg" width="91.7" height="55.6" viewBox="3.7 2.4 91.7 55.6" enable-background="new 3.7 2.4 91.7 55.6"><path d="M16.9 2.4l9.8 11.1h-16.4l9.7 11.1.1.1h-16.4l9.8 11.1 9.8 11.1 9.7 11.1h49.1l-9.8-11.1-.1-.1h16.4l-9.7-11.1h16.4l-9.8-11.1-9.8-11.1-9.7-11.1h-49.1z" fill="#D73F3F"/><path d="M69.2 30.2c0 10.2-8.8 18.5-19.8 18.5s-19.8-8.3-19.8-18.5 8.8-18.5 19.8-18.5 19.8 8.3 19.8 18.5z" fill="#fff"/><g fill="#D73F3F"><path d="M38.5 31.5v6.2h-2.3v-14.1h2.3v5.9h3.3v-5.9h2.3v14.1h-2.3v-6.2h-3.3M48.6 33.2v1.2l.1.4.2.3c.1.2.3.4.6.6.3.1.6.2.9.2s.6-.1.9-.2c.3-.1.5-.3.6-.6.1-.1.1-.2.1-.3 0-.1.1-.2.1-.4v-7.4c0-.1 0-.3-.1-.4l-.1-.3c-.1-.2-.3-.4-.6-.5-.3-.1-.5-.2-.9-.2-.3 0-.6.1-.9.2-.3.1-.5.3-.6.5-.1.2-.2.4-.2.7v6.2m5.7 0c0 .8-.1 1.5-.2 2s-.4 1-.7 1.4c-.7.9-1.8 1.4-3.2 1.4-1.5 0-2.6-.5-3.2-1.4-.3-.4-.5-.9-.7-1.4-.1-.5-.2-1.2-.2-2v-5.1c0-.8.1-1.5.2-2s.4-1 .7-1.4c.7-.9 1.8-1.4 3.2-1.4 1.5 0 2.6.5 3.2 1.4.3.4.5.9.7 1.4.1.5.2 1.2.2 2v5.1M61.1 37.7h-2.3v-12.1h-2.9v-2h8.1v2h-2.9v12.1"/></g></svg>