<?xml version="1.0" encoding="utf-8"?>
<!-- Generator: Adobe Illustrator 17.1.0, SVG Export Plug-In . SVG Version: 6.00 Build 0)  -->
<!DOCTYPE svg PUBLIC "-//W3C//DTD SVG 1.1//EN" "http://www.w3.org/Graphics/SVG/1.1/DTD/svg11.dtd">
<svg version="1.1" id="Layer_1" xmlns="http://www.w3.org/2000/svg" xmlns:xlink="http://www.w3.org/1999/xlink" x="0px" y="0px"
	 viewBox="0 0 56.2 80" enable-background="new 0 0 56.2 80" xml:space="preserve">
<g>
	<defs>
		<filter id="Adobe_OpacityMaskFilter" filterUnits="userSpaceOnUse" x="5.8" y="74.4" width="44.6" height="5.6">
			<feColorMatrix  type="matrix" values="1 0 0 0 0  0 1 0 0 0  0 0 1 0 0  0 0 0 1 0"/>
		</filter>
	</defs>
	<mask maskUnits="userSpaceOnUse" x="5.8" y="74.4" width="44.6" height="5.6" id="Shadow_1_">
		<g filter="url(#Adobe_OpacityMaskFilter)">
			<g>
				<ellipse cx="28.1" cy="77.2" rx="22.3" ry="2.8"/>
				<ellipse fill="#070707" cx="28.1" cy="77.2" rx="21.5" ry="2.7"/>
				<ellipse fill="#0D0D0D" cx="28.1" cy="77.2" rx="20.7" ry="2.6"/>
				<ellipse fill="#141414" cx="28.1" cy="77.2" rx="19.8" ry="2.5"/>
				<ellipse fill="#1B1B1B" cx="28.1" cy="77.2" rx="19" ry="2.4"/>
				<ellipse fill="#212121" cx="28.1" cy="77.2" rx="18.2" ry="2.3"/>
				<ellipse fill="#282828" cx="28.1" cy="77.2" rx="17.4" ry="2.2"/>
				<ellipse fill="#2F2F2F" cx="28.1" cy="77.2" rx="16.5" ry="2.1"/>
				<ellipse fill="#353535" cx="28.1" cy="77.2" rx="15.7" ry="2"/>
				<ellipse fill="#3C3C3C" cx="28.1" cy="77.2" rx="14.9" ry="1.9"/>
				<ellipse fill="#434343" cx="28.1" cy="77.2" rx="14.1" ry="1.8"/>
				<ellipse fill="#494949" cx="28.1" cy="77.2" rx="13.3" ry="1.7"/>
				<ellipse fill="#505050" cx="28.1" cy="77.2" rx="12.4" ry="1.6"/>
				<ellipse fill="#565656" cx="28.1" cy="77.2" rx="11.6" ry="1.5"/>
				<ellipse fill="#5D5D5D" cx="28.1" cy="77.2" rx="10.8" ry="1.4"/>
				<ellipse fill="#646464" cx="28.1" cy="77.2" rx="10" ry="1.3"/>
				<ellipse fill="#6A6A6A" cx="28.1" cy="77.2" rx="9.2" ry="1.2"/>
				<ellipse fill="#717171" cx="28.1" cy="77.2" rx="8.3" ry="1.1"/>
				<ellipse fill="#787878" cx="28.1" cy="77.2" rx="7.5" ry="1"/>
				<ellipse fill="#7E7E7E" cx="28.1" cy="77.2" rx="6.7" ry="0.8"/>
				<ellipse fill="#858585" cx="28.1" cy="77.2" rx="5.9" ry="0.7"/>
				<ellipse fill="#8C8C8C" cx="28.1" cy="77.2" rx="5.1" ry="0.6"/>
				<ellipse fill="#929292" cx="28.1" cy="77.2" rx="4.2" ry="0.5"/>
				<ellipse fill="#999999" cx="28.1" cy="77.2" rx="3.4" ry="0.4"/>
				<ellipse fill="#A0A0A0" cx="28.1" cy="77.2" rx="2.6" ry="0.3"/>
				<ellipse fill="#A6A6A6" cx="28.1" cy="77.2" rx="1.8" ry="0.2"/>
				<ellipse fill="#ADADAD" cx="28.1" cy="77.2" rx="1" ry="0.1"/>
			</g>
		</g>
	</mask>
	<ellipse id="Shadow_160_" mask="url(#Shadow_1_)" fill="#505050" cx="28.1" cy="77.2" rx="22.3" ry="2.8"/>
	<g>
		<path id="Map_x5F_Marker_130_" fill="#FFFFFF" stroke="#667767" stroke-width="0.2031" stroke-miterlimit="10" d="M28.1,77.2
			c0,0-1-4.4-8.3-18.4C12.4,44.9,1.9,39,1.9,25.5C1.9,12,13.6,1.1,28.1,1.1c14.4,0,26.1,10.9,26.1,24.4c0,13.5-10.4,19.4-17.8,33.3
			C29.1,72.8,28.1,77.2,28.1,77.2z"/>
		<path id="Shadow_159_" fill="#B4B4B4" fill-opacity="0.5" d="M41.8,12.3l12.3,11.5c0,0.5,0.1,1.1,0.1,1.7
			c0,13.5-10.4,19.4-17.7,33.2L14.2,37.9L41.8,12.3z"/>
		<g id="Circle_84_">
			<path fill="#667767" d="M28.1,43.3c10.7,0,19.4-8.2,19.4-18.2c0-10-8.7-18.2-19.4-18.2C17.3,7,8.6,15.1,8.6,25.2
				C8.6,35.2,17.3,43.3,28.1,43.3L28.1,43.3z"/>
			<path fill="#FFFFFF" d="M28.1,34.2c5.3,0,9.6-4,9.6-9c0-2.4-1-4.7-2.9-6.4c-1.8-1.7-4.2-2.6-6.7-2.6c-2.6,0-5,0.9-6.8,2.6
				c-1.8,1.7-2.8,4-2.8,6.4c0,2.4,1,4.6,2.8,6.3C23.1,33.2,25.5,34.2,28.1,34.2z"/>
			<path fill="#414F40" d="M37.7,25.2c0-2.4-1-4.7-2.9-6.4l12,11.2c-1.8,6.2-7,11-13.6,12.7l-12-11.2c1.8,1.7,4.2,2.7,6.8,2.7
				C33.4,34.2,37.7,30.1,37.7,25.2z"/>
		</g>
	</g>
</g>
</svg>
