<?xml version="1.0" encoding="utf-8"?>
<!-- Generator: Adobe Illustrator 17.1.0, SVG Export Plug-In . SVG Version: 6.00 Build 0)  -->
<!DOCTYPE svg PUBLIC "-//W3C//DTD SVG 1.1//EN" "http://www.w3.org/Graphics/SVG/1.1/DTD/svg11.dtd">
<svg version="1.1" id="Layer_1" xmlns="http://www.w3.org/2000/svg" xmlns:xlink="http://www.w3.org/1999/xlink" x="0px" y="0px"
	 viewBox="69.5 5.3 66.7 100.8" style="enable-background:new 69.5 5.3 66.7 100.8;" xml:space="preserve">
<path style="fill:#667766;" d="M102.9,102.5c0,0-1.3-5.6-10.6-23.4c-9.4-17.7-22.7-25.2-22.7-42.4s15-31.2,33.3-31.2
	s33.3,13.9,33.3,31.1s-13.3,24.7-22.7,42.6C104.2,96.8,102.9,102.5,102.9,102.5L102.9,102.5z"/>
<path style="fill:#485448;fill-opacity:0.5;" d="M120.4,19.8L136,34.4c0,0.6,0.1,1.4,0.1,2.2c0,17.2-13.3,24.7-22.6,42.3L85.2,52.4
	L120.4,19.8L120.4,19.8z"/>
<g>
	<path style="fill:#FFFFFF;" d="M102.9,59.4c13.6,0,24.8-10.4,24.8-23.2c0-12.9-11.2-23.2-24.8-23.2S78.2,23.3,78.2,36.2
		C78.2,48.9,89.3,59.4,102.9,59.4z"/>
	<path style="fill:#667766;" d="M102.9,47.7c6.8,0,12.2-5.1,12.2-11.5c0-3.1-1.3-6-3.7-8.2c-2.3-2.2-5.4-3.3-8.5-3.3
		c-3.3,0-6.4,1.1-8.7,3.3c-2.3,2.2-3.6,5.1-3.6,8.2c0,3.1,1.3,5.9,3.6,8C96.5,46.4,99.6,47.7,102.9,47.7L102.9,47.7z"/>
	<path style="fill:#B4B4B4;" d="M115.1,36.2c0-3.1-1.3-6-3.7-8.2l15.3,14.3c-2.3,7.9-8.9,14-17.3,16.2L94.1,44.2
		c2.3,2.2,5.4,3.4,8.7,3.4C109.7,47.7,115.1,42.4,115.1,36.2z"/>
</g>
<defs>
	<filter id="Adobe_OpacityMaskFilter" filterUnits="userSpaceOnUse" x="74.5" y="98.7" width="56.8" height="7.2">
		<feColorMatrix  type="matrix" values="1 0 0 0 0  0 1 0 0 0  0 0 1 0 0  0 0 0 1 0"/>
	</filter>
</defs>
<mask maskUnits="userSpaceOnUse" x="74.5" y="98.7" width="56.8" height="7.2" id="Shadow_3_">
	<g style="filter:url(#Adobe_OpacityMaskFilter);">
		<g>
			<ellipse cx="102.9" cy="102.3" rx="28.4" ry="3.6"/>
			<ellipse style="fill:#070707;" cx="102.9" cy="102.3" rx="27.4" ry="3.4"/>
			<ellipse style="fill:#0D0D0D;" cx="102.9" cy="102.3" rx="26.4" ry="3.3"/>
			<ellipse style="fill:#141414;" cx="102.9" cy="102.3" rx="25.3" ry="3.2"/>
			<ellipse style="fill:#1B1B1B;" cx="102.9" cy="102.3" rx="24.2" ry="3.1"/>
			<ellipse style="fill:#212121;" cx="102.9" cy="102.3" rx="23.2" ry="2.9"/>
			<ellipse style="fill:#282828;" cx="102.9" cy="102.3" rx="22.2" ry="2.8"/>
			<ellipse style="fill:#2F2F2F;" cx="102.9" cy="102.3" rx="21" ry="2.7"/>
			<ellipse style="fill:#353535;" cx="102.9" cy="102.3" rx="20" ry="2.6"/>
			<ellipse style="fill:#3C3C3C;" cx="102.9" cy="102.3" rx="19" ry="2.4"/>
			<ellipse style="fill:#434343;" cx="102.9" cy="102.3" rx="18" ry="2.3"/>
			<ellipse style="fill:#494949;" cx="102.9" cy="102.3" rx="17" ry="2.2"/>
			<ellipse style="fill:#505050;" cx="102.9" cy="102.3" rx="15.8" ry="2"/>
			<ellipse style="fill:#565656;" cx="102.9" cy="102.3" rx="14.8" ry="1.9"/>
			<ellipse style="fill:#5D5D5D;" cx="102.9" cy="102.3" rx="13.8" ry="1.8"/>
			<ellipse style="fill:#646464;" cx="102.9" cy="102.3" rx="12.8" ry="1.7"/>
			<ellipse style="fill:#6A6A6A;" cx="102.9" cy="102.3" rx="11.7" ry="1.5"/>
			<ellipse style="fill:#717171;" cx="102.9" cy="102.3" rx="10.6" ry="1.4"/>
			<ellipse style="fill:#787878;" cx="102.9" cy="102.3" rx="9.6" ry="1.3"/>
			<ellipse style="fill:#7E7E7E;" cx="102.9" cy="102.3" rx="8.5" ry="1"/>
			<ellipse style="fill:#858585;" cx="102.9" cy="102.3" rx="7.5" ry="0.9"/>
			<ellipse style="fill:#8C8C8C;" cx="102.9" cy="102.3" rx="6.5" ry="0.8"/>
			<ellipse style="fill:#929292;" cx="102.9" cy="102.3" rx="5.4" ry="0.6"/>
			<ellipse style="fill:#999999;" cx="102.9" cy="102.3" rx="4.3" ry="0.5"/>
			<ellipse style="fill:#A0A0A0;" cx="102.9" cy="102.3" rx="3.3" ry="0.4"/>
			<ellipse style="fill:#A6A6A6;" cx="102.9" cy="102.3" rx="2.3" ry="0.3"/>
			<ellipse style="fill:#ADADAD;" cx="102.9" cy="102.3" rx="1.3" ry="0.1"/>
		</g>
	</g>
</mask>
<ellipse id="Shadow_160_" style="mask:url(#Shadow_3_);fill:#505050;" cx="102.9" cy="102.3" rx="28.4" ry="3.6"/>
</svg>
