<svg xmlns="http://www.w3.org/2000/svg" viewBox="0 0 286.5 241.5" enable-background="new 0 0 286.5 241.5"><path d="M279.2 36.7c-10.1 4.5-20.9 7.5-32.2 8.8 11.6-6.9 20.5-17.9 24.7-31-10.8 6.4-22.8 11.1-35.6 13.6-10.2-10.9-24.8-17.7-40.9-17.7-31 0-56.1 25.1-56.1 56.1 0 4.4.5 8.7 1.5 12.8-46.7-2.3-88.1-24.7-115.7-58.6-4.8 8.3-7.6 17.9-7.6 28.2 0 19.5 9.9 36.6 25 46.7-9.2-.3-17.8-2.8-25.4-7v.7c0 27.2 19.3 49.8 45 55-4.7 1.3-9.7 2-14.8 2-3.6 0-7.1-.4-10.6-1 7.1 22.3 27.9 38.5 52.4 39-19.2 15-43.4 24-69.7 24-4.5 0-9-.3-13.4-.8 24.8 15.9 54.3 25.2 86 25.2 103.2 0 159.6-85.5 159.6-159.6 0-2.4-.1-4.9-.2-7.3 11-7.9 20.5-17.8 28-29.1z" fill="#5FA9DD"/></svg>