<svg xmlns="http://www.w3.org/2000/svg" width="99.2" height="98"><g fill="#676"><path d="M49.6 98c-27.4 0-49.6-22-49.6-49s22.2-49 49.6-49c27.3 0 49.6 22 49.6 49s-22.3 49-49.6 49zm0-85.6c-20.4 0-37.1 16.4-37.1 36.6 0 20.2 16.6 36.6 37.1 36.6 20.4 0 37.1-16.4 37.1-36.6 0-20.2-16.7-36.6-37.1-36.6z"/><g fill-rule="evenodd" clip-rule="evenodd"><path d="M47.4 46.9c-.3-1 0-2.1-.6-2.9-1.3-1.7-3 .3-4.4.7-2.5.6-3.9-1.8-3.4-4.2.3-1.5 1.3-2.4 2.5-3.1 1.1-.6 2.4-1 3.6-1.5.5-.2 1.1-.4 1.6-.4 1.5 0 3.7 2.8 4.5 2.5.9-.3-.2-1.9-.2-2.5 0-1.9 1.9-3.4 2.5-5.2.5-1.7 1.2-3.8 2.7-4.8 1.9-1.3 4.2-1.8 6.1-2.9 2.7-1.5-8.7-10-11.5-9.6-2.7.3-1.3 2.2-1.1 4l-4.9 4.3c0-.4-1.4-3.3-1.7-3.8-1.3-2.1-2.5-1-4.4-.3-2.1.7-4.4-.4-5-2.7-.5-2 1.2-4.6-1.9-5.2-2.8-.5-6.1.5-8.7 1.4-1.8.6-5.1 4-3.2 6.1l2.7 2.3c2.2 1.9 1.6 7.1 1.3 9.6-.7 5.5 3.4 9.2 7.2 12.5 5.8 5.1 12.9 8.2 19.9 11.2-.5-.2-.7-2.2-1-2.7-.6-.9-1.5-1.3-2.3-2.1l-.3-.7zM86.6 65.8c-.3-4.3-4.9-7.7-8-10.2-3.6-2.9-8-5.2-12.5-6.3-2.7-.7-11.9-1.8-12.9 2.4-.2 1 1.3 2.3.9 3.6l-2.6 5c-1 3.2 1.2 10.2 3.7 12.5 2.5 2.2 5 3.5 4.6 7.3-.5 4.3-3 8.2-3.3 12.6-.1 1.8 1 6.2 3.6 3.9 1.1-1 1.4-2.6 2.2-3.8.8-1.4 2-2.6 3.2-3.6l7.9-6.2c4.5-4.2 11.6-8.6 13.1-15 .1-1 .1-1.6.1-2.2z"/></g></g></svg>