<svg xmlns="http://www.w3.org/2000/svg" width="298.1" height="89.056" viewBox="0 0 298.1 89.056"><g><g><g><path fill="none" stroke="#FFF" stroke-width=".2" stroke-miterlimit="3.85" d="M258.886 88.643l-.041.016h-.094l-.068.015h-.076l-.073.021h-.077l-.093.016h-.143l-.075.018h-.078l-.069.017H257.831l-.073.023h-.075l-.076.021H257.443l-.073.016h-.147l-.071.015H256.981l-.072.018H256.67l-.076.02h-.216l-.096.024H256.061l-.077.013h-.311l-.076.02h-.382l-.093.024h-.777l-.074.015H253.184l-.077-.015H252.334l-.072-.024h-.39l-.069-.02h-.315l-.075-.013h-.24l-.074-.024h-.22l-.093-.02H250.566l-.075-.018H250.323l-.074-.015H250.102l-.093-.016h-.149l-.066-.021h-.076l-.093-.023H249.477l-.071-.017h-.076l-.078-.018h-.163l-.07-.016h-.076l-.076-.021h-.076l-.087-.015h-.074l-.073-.016h-.078l-.073-.015h-.09l-.074-.026h-.073l-.075-.021h-.075l-.072-.014h-.093l-.075-.019-.072-.021h-.074l-.073-.018h-.076l-.075-.021-.091-.016h-.073l-.078-.017h-.07l-.076-.021-.074-.017h-.09l-.074-.018-.073-.015h-.074l-.076-.023-.072-.019h-.072l-.095-.018-.073-.017h-.074l-.073-.017-.075-.017-.076-.026h-.078l-.086-.015-.075-.018-.071-.017h-.078l-.074-.016-.072-.021-.071-.02-.074-.021h-.094l-.076-.014-.072-.016-.072-.015-.075-.027h-.072l-.075-.014-.072-.02-.075-.018-.093-.022-.075-.021-.075-.014-.072-.019h-.073l-.075-.017-.071-.023-.072-.017-.077-.017-.074-.021-.094-.016-.073-.017-.069-.012-.078-.019-.074-.029-.074-.013-.073-.013-.073-.02-.074-.028-.078-.013-.069-.023-.075-.017-.093-.019-.071-.021-.075-.013-.074-.018-.074-.016-.076-.025-.077-.017-.067-.017-.075-.018-.072-.016-.078-.024-.07-.037-.074-.016-.072-.017-.078-.013-.073-.027-.079-.02-.065-.013-.095-.035-.073-.02-.078-.025-.069-.014-.074-.017-.073-.017-.075-.04-.073-.017-.074-.019-.076-.017-.071-.016-.077-.041-.076-.02-.074-.018-.075-.013-.065-.039-.078-.02-.077-.02-.074-.014-.073-.041-.07-.02-.074-.019-.078-.04-.073-.014-.067-.016-.076-.039-.079-.02-.072-.018-.074-.033-.073-.021-.075-.014-.072-.037-.071-.024-.076-.033-.059-.026-.068-.017-.074-.03-.074-.021-.078-.039-.076-.016-.067-.017-.074-.035-.073-.023-.076-.036-.072-.016-.076-.041-.078-.02-.069-.034-.074-.017-.077-.036-.075-.023-.055-.034-.071-.021-.074-.026-.074-.032-.072-.035-.072-.016-.075-.037-.075-.018-.073-.039-.074-.016-.059-.037-.068-.042-.074-.009-.077-.041-.076-.019-.074-.04-.07-.034-.071-.021-.059-.034-.075-.039-.073-.013-.074-.041-.072-.02-.075-.032-.074-.04-.056-.022-.074-.033-.071-.037-.072-.036-.074-.02-.077-.033-.053-.035-.076-.026-.076-.036-.073-.038-.073-.033-.073-.017-.055-.043-.076-.033-.07-.033-.076-.022-.072-.039-.06-.033-.07-.041-.075-.033-.077-.02-.053-.04-.073-.034-.075-.04-.073-.034-.071-.035-.056-.024-.074-.035-.076-.036-.071-.031-.059-.042-.068-.031-.077-.04-.077-.04-.053-.02-.068-.041-.077-.029-.075-.044-.055-.033-.077-.033-.073-.034-.057-.045-.067-.028-.077-.048-.077-.034-.053-.04-.074-.032-.073-.034-.054-.04-.074-.035-.073-.035-.061-.041-.067-.037-.073-.033-.06-.04-.075-.033-.071-.037-.059-.039-.07-.044-.074-.032-.054-.037-.076-.04-.071-.033-.059-.033-.068-.036-.076-.057-.058-.037-.072-.038-.054-.047-.073-.026-.078-.04-.053-.038-.077-.037-.055-.055-.073-.038-.07-.034-.06-.04-.074-.032-.052-.037-.079-.059-.052-.031-.07-.04-.073-.035-.062-.044-.07-.049-.06-.037-.068-.04-.052-.036-.078-.047-.056-.052-.075-.029-.072-.039-.062-.055-.068-.04-.055-.031-.075-.042-.055-.052-.075-.039-.055-.035-.071-.049-.054-.046-.076-.03-.058-.064-.074-.031-.056-.043-.05-.05-.074-.033-.056-.045-.078-.046-.055-.04-.071-.041-.055-.058-.073-.028-.057-.061-.076-.033-.054-.042-.056-.051-.071-.041-.058-.052-.076-.034-.054-.044-.053-.05-.075-.04-.051-.061-.079-.031-.054-.051-.055-.039-.074-.056-.058-.036-.069-.061-.06-.038-.052-.048-.077-.042-.052-.052-.058-.034-.075-.056-.052-.045-.054-.049-.076-.045-.055-.046-.055-.039-.077-.055-.046-.057-.062-.035-.072-.054-.055-.041-.06-.053-.049-.034-.078-.064-.06-.048-.047-.041-.057-.054-.077-.049-.053-.045-.057-.057-.07-.035-.055-.058-.059-.052-.054-.033-.057-.06-.073-.053-.055-.04-.059-.05-.05-.058-.073-.037-.058-.056-.058-.053-.052-.04-.054-.054-.073-.054-.054-.053-.06-.041-.054-.049-.054-.06-.059-.058-.067-.034-.06-.058-.054-.048-.058-.061-.056-.033-.053-.061-.055-.053-.076-.056-.051-.038-.059-.057-.053-.056-.059-.051-.055-.052-.051-.065-.056-.027-.054-.059-.058-.061-.056-.048-.074-.058-.056-.055-.057-.036-.052-.054-.055-.056-.054-.055-.059-.059-.051-.05-.06-.057-.054-.057-.05-.037-.061-.055-.053-.059-.057-.048-.056-.061-.054-.051-.055-.06-.052-.054-.061-.054-.054-.052-.055-.061-.055-.051-.056-.056-.054-.055-.054-.058-.056-.055-.037-.054-.058-.059-.055-.058-.055-.027-.054-.067-.059-.069-.051-.054-.056-.053-.057-.061-.058-.046-.053-.06-.033-.058-.061-.053-.052-.057-.055-.053-.054-.061-.059-.047-.055-.056-.039-.062-.053-.051-.054-.058-.061-.054-.049-.056-.058-.05-.035-.073-.055-.062-.054-.054-.056-.056-.037-.05-.058-.062-.052-.058-.06-.048-.053-.076-.041-.057-.05-.055-.054-.055-.06-.058-.034-.054-.055-.052-.056-.075-.039-.056-.054-.054-.052-.056-.056-.054-.038-.073-.055-.054-.056-.055-.036-.059-.057-.05-.052-.077-.045-.06-.048-.058-.057-.048-.036-.076-.057-.059-.055-.054-.039-.057-.051-.049-.044-.074-.052-.053-.054-.061-.037-.068-.056-.057-.038-.059-.056-.053-.05-.075-.044-.057-.051-.054-.039-.073-.054-.059-.037-.05-.056-.077-.038-.054-.053-.055-.037-.059-.052-.068-.038-.055-.057-.072-.037-.059-.057-.058-.034-.077-.058-.045-.039-.061-.053-.074-.033-.053-.057-.062-.037-.073-.056-.054-.04-.072-.055-.054-.032-.053-.041-.078-.054-.054-.034-.077-.058-.057-.035-.049-.041-.074-.052-.056-.04-.071-.051-.06-.042-.078-.031-.05-.058-.052-.037-.078-.035-.056-.058-.075-.037-.048-.039-.078-.047-.055-.049-.068-.029-.066-.057-.072-.036-.051-.037-.076-.04-.054-.05-.066-.045-.069-.033-.074-.059-.046-.028-.077-.04-.056-.036-.075-.058-.055-.037-.078-.035-.047-.04-.078-.034-.056-.055-.073-.039-.058-.034-.071-.04-.078-.033-.047-.06-.077-.034-.053-.04-.074-.036-.061-.034-.069-.036-.075-.041-.053-.053-.077-.034-.057-.04-.073-.038-.073-.036-.062-.033-.065-.04-.058-.039-.071-.034-.073-.042-.061-.033-.067-.053-.059-.04-.073-.037-.073-.038-.054-.032-.075-.04-.073-.035-.06-.04-.073-.036-.075-.037-.051-.033-.076-.041-.074-.035-.054-.038-.073-.041-.073-.033-.055-.04-.072-.03-.078-.017-.056-.044-.073-.035-.07-.034-.079-.041-.056-.033-.07-.039-.077-.038-.057-.037-.068-.039-.072-.031-.079-.016-.055-.04-.075-.038-.073-.041-.053-.035-.073-.035-.075-.039-.07-.02-.05-.034-.08-.04-.075-.034-.068-.037-.062-.023-.077-.029-.066-.038-.077-.04-.078-.016-.046-.037-.077-.041-.078-.034-.066-.019-.06-.034-.073-.039-.075-.038-.08-.023-.068-.03-.055-.036-.078-.021-.066-.037-.074-.037-.076-.021-.075-.035-.052-.038-.078-.019-.073-.038-.078-.031-.069-.018-.075-.04-.057-.034-.069-.021-.075-.037-.074-.015-.073-.041-.073-.037-.058-.017-.076-.037-.07-.022-.076-.034-.076-.016-.072-.038-.068-.039-.082-.014-.051-.04-.073-.017-.075-.038-.07-.019-.077-.036-.076-.018-.071-.039-.074-.013-.06-.042-.072-.018-.069-.017-.076-.038-.077-.02-.073-.033-.068-.02-.072-.037-.078-.017-.076-.019-.069-.04-.072-.019-.06-.035-.081-.02-.068-.013-.072-.041-.078-.021-.076-.016-.067-.033-.073-.024-.075-.017-.076-.036-.071-.017-.073-.018-.074-.038-.077-.02-.071-.017-.072-.038-.078-.02-.077-.02-.073-.017-.067-.036-.061-.02-.074-.013-.07-.018-.076-.044-.074-.016-.073-.016-.071-.016-.077-.021-.074-.037-.072-.021-.075-.016-.069-.021-.079-.014-.075-.041-.071-.018-.073-.019-.075-.017-.08-.022-.067-.017-.073-.015-.078-.016-.075-.044-.075-.014-.067-.021-.074-.016-.075-.017-.095-.021-.077-.018-.067-.02-.074-.017-.077-.016-.07-.021-.074-.02-.074-.02-.073-.016-.069-.017-.085-.02-.07-.02-.074-.022-.076-.012-.068-.014-.073-.025-.078-.013-.069-.022-.078-.016-.077-.017-.073-.02-.067-.02-.081-.021-.094-.015-.068v-.078l-.018-.073-.019-.068-.024-.075-.018-.075-.017-.076-.016-.076-.02-.065v-.078l-.018-.076-.021-.075-.018-.093-.016-.068-.014-.073v-.077l-.023-.069-.024-.075-.014-.08v-.074l-.015-.066-.017-.08-.019-.071v-.094l-.021-.077-.02-.072-.018-.067v-.078l-.016-.078-.02-.07v-.079l-.019-.069-.02-.075v-.09l-.018-.077-.016-.077v-.072l-.018-.072-.023-.073v-.068l-.02-.078-.018-.093v-.078l-.015-.064v-.082l-.013-.071v-.077l-.02-.072-.027-.075v-.066l-.013-.094v-.077l-.015-.076v-.074l-.023-.068v-.075l-.017-.074v-.094l-.018-.078v-.067l-.018-.072v-.078l-.017-.077v-.067l-.02-.093v-.074l-.021-.073v-.148l-.019-.077v-.077l-.018-.088v-.152l-.015-.071v-.151l-.02-.067V48.343l-.016-.078V48.121l-.025-.073V47.88l-.016-.077V47.586l-.017-.074v-.241l-.021-.074v-.313l-.013-.075V46.515l-.021-.092V45.886l-.021-.073V43.818l.021-.066v-.536l.021-.095V42.827l.013-.069v-.319l.021-.072V42.125l.017-.073V41.83l.016-.073V41.591l.025-.069v-.154l.016-.072v-.161l.02-.079v-.148l.015-.078v-.164l.018-.072v-.074l.019-.074V40.3l.021-.078v-.09l.02-.069v-.077l.017-.076v-.073l.018-.071v-.077l.018-.074v-.09l.017-.076v-.078l.023-.068v-.075l.015-.074v-.067l.013-.101v-.069l.027-.077.02-.074v-.074l.013-.07v-.076l.015-.075v-.093l.018-.075.02-.066v-.077l.023-.077.018-.067v-.073l.016-.082.018-.068v-.094l.02-.077.019-.073v-.069l.02-.076.016-.076v-.067l.018-.081.02-.074.021-.074v-.09l.019-.07.017-.08.015-.074v-.072l.014-.076.024-.069.023-.074v-.076l.014-.072.016-.076.018-.095.021-.068.018-.078v-.073l.02-.072.016-.075.017-.075.018-.073.024-.071.019-.076.018-.074V35.3l.015-.074.021-.086.02-.077.02-.079.017-.072.016-.074.022-.069.013-.079.025-.073.014-.066.012-.08.022-.075.02-.073.02-.078.017-.069.016-.074.02-.077.02-.078.021-.065.016-.074.017-.078.02-.077.018-.066.021-.095.017-.072.016-.074.021-.071.014-.077.044-.073.016-.074.015-.076.017-.075.022-.07.017-.074.019-.072.018-.075.041-.073.014-.078.021-.069.016-.081.021-.074.037-.073.021-.073.016-.075.016-.07.016-.077.044-.073.018-.067.013-.074.02-.077.036-.05.017-.081.02-.072.02-.074.038-.073.017-.079.02-.069.038-.078.018-.072.017-.072.036-.072.017-.075.024-.069.033-.078.016-.08.021-.067.041-.073.013-.077.02-.076.035-.069.019-.059.04-.067.019-.073.017-.081.037-.067.02-.078.033-.075.02-.075.038-.073.017-.071.018-.08.042-.07.013-.053.039-.075.018-.072.036-.074.019-.077.038-.078.017-.066.04-.081.014-.072.039-.048.038-.076.016-.079.034-.072.022-.074.037-.07.017-.078.037-.048.041-.078.015-.077.037-.078.021-.072.034-.068.04-.073.018-.061.031-.072.038-.069.019-.075.038-.075.035-.054.021-.076.037-.078.037-.07.021-.075.036-.071.03-.052.023-.076.038-.081.039-.065.034-.076.019-.051.034-.082.041-.073.037-.071.016-.056.04-.075.038-.072.029-.07.023-.078.037-.057.034-.076.04-.068.034-.079.02-.055.039-.07.035-.073.035-.078.041-.052.038-.075.04-.072.016-.055.031-.072.039-.085.037-.07.038-.054.039-.066.033-.078.041-.059.034-.072.035-.075.044-.075.017-.051.03-.072.04-.078.033-.052.041-.075.038-.076.035-.061.041-.066.033-.075.037-.055.036-.072.04-.073.035-.06.04-.075.032-.066.038-.061.037-.069.04-.078.053-.052.033-.075.042-.053.034-.08.039-.073.04-.051.033-.076.036-.055.038-.074.04-.072.034-.062.053-.065.041-.061.036-.073.034-.074.036-.053.04-.074.034-.062.06-.073.033-.054.04-.072.034-.068.039-.06.055-.073.034-.053.04-.078.035-.051.037-.08.058-.053.036-.066.04-.061.028-.073.059-.061.033-.072.045-.055.05-.073.04-.053.037-.075.036-.053.057-.074.029-.06.049-.074.047-.052.039-.075.037-.058.058-.076.035-.051.037-.076.058-.053.031-.053.042-.074.051-.055.04-.076.052-.054.041-.073.035-.058.058-.052.034-.075.054-.058.041-.075.032-.054.055-.052.04-.075.056-.06.037-.074.057-.049.033-.057.053-.072.039-.058.058-.058.034-.066.057-.058.037-.076.057-.058.038-.053.052-.077.037-.047.053-.059.038-.062.056-.067.037-.056.054-.054.039-.077.051-.056.044-.052.05-.072.056-.054.038-.06.056-.057.037-.076.054-.048.052-.054.044-.08.051-.054.039-.055.055-.054.057-.077.036-.051.057-.057.048-.052.045-.061.052-.073.057-.051.036-.057.056-.06.055-.054.038-.073.056-.055.052-.052.054-.06.039-.051.056-.076.055-.055.034-.056.06-.057.054-.051.05-.057.041-.052.053-.078.06-.056.052-.055.058-.058.037-.055.056-.051.054-.059.055-.051.035-.075.058-.058.049-.054.061-.06.054-.047.053-.058.039-.052.055-.061.059-.055.054-.055.055-.057.052-.056.061-.051.033-.058.053-.053.058-.059.057-.05.056-.06.051-.072.059-.053.054-.057.055-.056.055-.037.058-.055.037-.055.056-.054.054-.055.054-.059.056-.054.055-.056.055-.054.054-.057.061-.054.052-.052.055-.062.054-.052.056-.054.057-.053.053-.061.061-.051.05-.042.054-.051.06-.057.051-.054.059-.06.054-.054.055-.052.052-.058.057-.037.056-.053.074-.057.056-.056.058-.054.054-.055.056-.031.051-.061.055-.055.059-.056.053-.056.059-.053.051-.034.076-.058.055-.056.053-.053.056-.041.058-.053.054-.061.06-.046.067-.047.059-.053.054-.052.054-.053.06-.04.054-.054.073-.056.054-.061.052-.034.058-.052.058-.054.073-.041.05-.052.059-.059.055-.036.073-.055.057-.052.054-.04.059-.053.055-.057.07-.038.057-.055.053-.055.077-.04.057-.05.047-.043.06-.051.078-.055.049-.038.06-.057.055-.037.072-.057.062-.034.046-.058.077-.052.055-.036.055-.057.076-.037.054-.058.052-.028.075-.062.058-.04.052-.049.077-.037.052-.057.06-.038.069-.056.058-.034.074-.061.055-.029.054-.06.079-.035.051-.055.075-.037.053-.058.054-.035.076-.031.058-.06.071-.035.056-.059.054-.034.076-.04.057-.054.073-.04.055-.054.071-.038.055-.034.078-.054.056-.036.074-.038.05-.056.056-.038.074-.038.058-.056.076-.039.054-.033.071-.054.055-.037.075-.038.055-.056.075-.036.055-.041.068-.032.062-.061.072-.034.075-.034.056-.039.078-.054.052-.037.068-.036.06-.034.07-.061.062-.034.073-.038.07-.034.052-.044.079-.049.052-.041.074-.033.06-.041.07-.037.073-.037.055-.057.077-.032.053-.037.078-.041.073-.034.054-.039.072-.033.058-.04.076-.055.068-.032.059-.038.071-.04.076-.034.054-.042.074-.034.07-.041.059-.034.071-.035.075-.038.06-.04.073-.03.067-.043.061-.034.073-.034.074-.04.054-.036.073-.037.074-.041.053-.033.077-.039.077-.034.067-.04.057-.035.073-.032.077-.044.055-.034.075-.037.077-.039.068-.033.053-.021.077-.041.077-.032.068-.04.059-.034.071-.034.076-.039.074-.038.056-.016.071-.04.073-.036.075-.034.073-.045.053-.033.077-.013.075-.046.07-.028.06-.047.072-.031.076-.014.07-.04.076-.038.055-.038.073-.016.073-.039.073-.037.076-.035.076-.023.053-.029.077-.047.074-.014.072-.034.071-.04.074-.035.056-.018.074-.034.075-.043.072-.018.074-.032.073-.023.075-.037.059-.035.071-.02.07-.031.074-.041.076-.021.077-.033.074-.021.068-.033.059-.04.074-.019.073-.035.075-.022.075-.033.072-.018.072-.037.074-.023.074-.034.071-.019.055-.034.075-.02.077-.041.074-.016.069-.036.078-.021.076-.033.072-.021.076-.037.073-.015.074-.038.067-.023.076-.014.078-.041.074-.016.074-.036.068-.02.059-.02.076-.034.071-.021.072-.031.075-.018.073-.023.074-.037.072-.017.079-.018.076-.039.067-.016.073-.02.078-.034.074-.021.07-.02.073-.035.074-.018.077-.012.078-.028.065-.034.075-.017.074-.024.076-.019.077-.03.071-.019.076-.025.074-.016.073-.018.075-.034.073-.018.074-.02.069-.021.078-.016.073-.02.095-.038.065-.019.079-.016.073-.017.078-.013.072-.029.074-.019.07-.031.078-.014.072-.028.075-.014.067-.02.077-.016.076-.018.074-.02.074-.021.075-.018.071-.017.093-.017.075-.017.069-.024.078-.02.074-.017.073-.016.073-.012.074-.022.074-.026.078-.014.069-.013.073-.021.094-.019.074-.02.077-.016.072-.017.071-.021.075-.023h.073l.072-.018.075-.016.075-.017.093-.018.075-.024.072-.017.075-.017h.072l.075-.017.072-.02.072-.014.076-.027h.094l.074-.015.071-.016.072-.015.074-.02h.078l.071-.02.075-.021.086-.016h.078l.076-.018.075-.018.073-.02h.074l.073-.02.095-.018h.072l.072-.016.076-.021h.074l.073-.017.074-.024h.09l.074-.015.076-.017h.07l.078-.017.073-.016h.091l.075-.027h.076l.073-.017h.074l.072-.018.075-.013h.093l.072-.018h.075l.075-.021h.073l.074-.02h.09l.073-.014h.078l.073-.02h.074l.087-.02h.076l.076-.02h.076l.07-.013h.163l.078-.021h.076l.071-.019H249.625l.093-.021h.076l.066-.012h.149l.093-.024H250.249l.074-.018H250.491l.075-.02H250.786l.093-.017H251.099l.074-.015h.24l.075-.024h.315l.069-.017h.39l.072-.02H253.107l.077-.013H254.271l.074.013H255.122l.093.02h.382l.076.017H255.984l.077.024H256.282l.096.015H256.594l.076.017h.239l.072.02H257.152l.071.018h.147l.073.024H257.607l.076.012h.075l.073.021H257.999l.069.019h.078l.075.021h.143l.093.013h.077l.073.02h.076l.068.02h.094l.074.02h.076l.068.014h.073l.078.02h.093l.072.021h.074l.071.018h.074l.078.013.094.018h.069l.073.017h.075l.076.027h.078l.073.016.086.017h.075l.072.017.077.015h.078l.071.024.089.017h.074l.077.021.071.016h.074l.076.018.069.02h.095l.07.02.078.018.075.018h.072l.073.016.074.021.073.02h.093l.074.02.074.015.073.016.073.015h.075l.073.027.074.014.093.02.075.017h.079l.068.017.073.017.078.024.069.018.075.017.072.016.095.018h.072l.079.023.069.021.074.017.073.016.075.02.072.019.075.021.073.013.093.014.074.026.073.022.075.012.073.016.074.017.073.02.07.024.077.017.078.017.069.017.075.018.072.021.095.02.073.018.078.016.069.02.075.014.08.028.066.014.073.031.075.019.077.029.077.013.069.017.071.016.077.019.077.038.066.02.075.016.073.021.078.02.075.018.072.034.075.018.076.016.069.025.071.019.093.03.076.019.077.024.071.017.078.034.068.028.078.012.067.018.078.035.075.02.075.021.073.034.053.02.075.016.074.039.067.018.082.017.072.037.076.023.073.018.071.031.074.021.08.034.066.02.074.02.076.036.075.016.076.041.071.014.069.023.078.038.077.015.071.037.069.021.078.033.073.021.054.036.077.016.077.041.071.02.073.034.074.019.073.034.074.023.073.037.073.018.075.033.057.022.069.035.078.019.077.04.07.033.07.021.074.033.08.021.067.041.06.031.074.02.073.035.074.037.071.023.076.032.073.018.055.043.072.034.082.018.072.035.069.04.075.034.054.014.077.047.067.029.076.023.078.035.074.037.053.039.076.016.072.038.073.038.074.04.061.014.066.031.074.047.074.028.077.046.051.013.079.033.073.045.071.034.075.036.055.04.077.016.069.038.074.039.061.034.07.034.077.04.069.032.059.041.072.021.074.033.073.039.054.037.075.034.073.044.06.032.069.035.08.04.072.034.054.039.07.033.078.041.055.037.071.036.073.04.057.034.077.034.071.043.057.03.073.04.074.038.056.035.071.034.074.041.056.034.077.042.075.034.051.04.076.038.073.032.053.055.075.04.059.033.068.039.072.034.061.041.07.037.056.032.074.057.075.037.054.037.072.041.055.033.079.041.075.049.053.044.073.034.053.038.072.034.061.061.076.034.066.036.06.037.075.054.045.039.082.034.059.034.068.061.055.032.078.041.055.036.071.056.062.038.067.037.056.054.077.033.054.039.072.056.062.038.073.038.047.056.078.038.055.036.075.054.055.034.051.038.073.054.057.04.071.054.061.04.077.034.049.059.075.035.055.06.054.031.079.035.051.058.075.037.053.055.06.035.067.06.061.029.053.061.074.034.06.056.07.038.057.057.055.037.069.049.062.04.049.062.077.028.055.058.055.037.072.057.061.036.052.052.072.058.057.034.057.057.073.037.055.057.053.038.057.055.073.051.057.043.054.05.057.04.074.055.059.055.05.038.058.057.073.053.058.04.049.052.054.055.076.036.058.059.054.052.059.041.05.054.076.052.056.034.053.061.056.056.054.054.076.04.059.053.05.052.059.053.054.047.053.046.078.061.051.053.059.041.054.053.053.056.056.058.059.034.053.053.076.056.053.056.057.055.055.061.051.031.055.055.06.054.057.056.051.057.052.053.061.037.053.058.058.052.057.054.069.06.054.054.058.057.052.051.061.042.052.051.059.061.053.053.053.054.057.052.054.062.059.052.055.054.056.057.05.054.041.056.053.054.055.059.059.055.054.054.057.055.05.055.059.037.061.056.047.057.057.053.055.072.058.06.034.05.061.059.05.053.053.058.059.051.055.056.057.057.053.055.037.055.054.061.06.052.054.058.054.047.056.06.037.054.057.058.053.075.054.051.055.059.038.051.057.055.053.058.054.055.041.056.052.078.055.052.057.057.056.051.033.057.062.056.049.055.044.076.051.051.055.06.054.052.041.055.053.073.057.054.031.06.058.057.055.051.04.073.053.061.057.052.037.057.057.051.054.077.038.054.057.055.032.054.056.08.054.054.04.048.055.076.038.057.055.06.053.054.036.072.054.052.042.056.051.077.042.054.056.056.053.067.037.062.051.059.039.047.055.077.04.053.052.058.038.076.056.058.036.066.058.058.034.058.055.072.038.057.058.049.037.074.035.06.055.075.037.052.052.054.042.075.052.058.04.075.033.052.055.058.04.073.054.054.033.076.04.055.053.074.04.053.038.053.056.076.034.051.04.076.055.058.039.075.033.052.055.074.038.06.038.074.056.053.036.075.034.053.037.073.061.055.033.072.034.061.06.073.033.061.041.066.036.053.038.08.052.051.041.078.034.053.036.073.036.06.058.068.034.072.039.054.036.073.035.062.054.074.04.053.036.074.036.073.042.061.031.065.042.062.037.072.055.074.038.055.03.076.042.051.031.073.041.08.037.053.037.075.039.052.037.078.034.069.037.061.04.066.033.075.041.06.034.073.038.072.034.055.041.075.037.066.036.061.041.076.034.075.033.052.042.078.031.072.04.051.034.075.039.075.038.072.038.059.033.078.038.066.038.054.017.07.037.085.036.072.037.055.037.072.041.075.031.052.042.078.02.073.037.07.038.055.031.079.033.068.021.076.041.057.039.078.034.07.037.072.017.075.041.056.031.071.041.073.02.082.031.051.036.076.04.065.018.081.037.076.039.052.017.071.037.075.04.07.034.078.014.076.044.054.015.075.04.075.033.069.019.072.035.061.04.073.021.068.034.072.038.078.02.077.035.078.02.048.04.078.012.07.038.074.037.072.016.079.038.076.018.048.037.072.017.081.042.066.02.078.032.077.02.074.04.072.017.075.031.053.021.07.038.08.017.071.038.073.013.075.026.075.033.078.021.067.04.081.017.073.034.067.023.059.012.069.041.076.014.077.02.073.041.067.013.08.039.078.021.069.016.075.037.072.021.072.02.072.016.078.036.069.017.079.024.073.034.074.019.072.013.081.021.05.04.077.014.074.019.067.022.073.035.077.017.07.02.075.02.073.014.073.04.074.019.081.013.069.025.078.017.073.02.075.033.072.022.074.014.07.017.075.02.076.02.074.021.073.017.077.017.071.039.074.019.072.015.095.02.066.02.077.02.078.013.074.026.065.014.078.021.077.015.074.018.069.02.078.014.073.024.075.016.08.019.066.017.073.018.079.019.069.021.074.019.072.018.079v.077l.017.086.019.074.02.073.02.074.014.076.016.071.025.073.019.075v.075l.014.072.019.073.016.078.017.068.024.095v.076l.017.072.02.076.017.074.017.069v.076l.019.072.02.074.021.08v.07l.016.09.017.074.021.074v.081l.019.067.022.076v.076l.012.069.012.073v.077l.024.094.024.068v.082l.014.073.016.067v.077l.017.077.025.066v.075l.018.093v.075l.018.076.015.07v.074l.018.074v.077l.019.069v.101l.021.067v.074l.021.075.017.068v.078l.014.076v.09l.02.074v.148l.021.073v.076l.021.077v.069l.017.09v.078l.016.075v.145l.02.074v.072l.018.095V40.908l.022.072v.155l.013.083v.15l.017.071V41.591l.017.071V41.83l.019.078V42.125l.023.095V42.439l.016.075V42.827l.019.075V43.283l.015.081V44.038l.018.094V45.501l-.018.089V46.274l-.015.078v.378l-.019.079v.309l-.016.079V47.423l-.023.089V47.734l-.019.069V47.974l-.017.074v.14l-.017.077v.154l-.013.09V48.654l-.022.073v.147l-.018.076v.088l-.02.077v.15l-.016.075v.073l-.017.074v.093l-.021.067v.077l-.021.078v.139l-.02.078v.094l-.014.074v.075l-.017.068-.021.074v.076l-.021.077v.094l-.019.066v.075l-.018.072v.077l-.015.071-.018.082v.064l-.018.078v.093l-.025.078-.017.068v.073l-.016.072-.014.072v.077l-.024.077-.024.09v.075l-.012.069-.012.079v.07l-.022.078-.019.078v.067l-.021.072-.017.077-.016.094v.071l-.021.08-.02.066-.019.074v.08l-.017.075-.017.069-.02.077-.017.073v.068l-.024.093-.017.075-.016.076-.019.078-.014.065v.076l-.019.076-.025.075-.016.075-.014.068-.02.073-.02.078-.019.068-.017.094v.081l-.018.067-.019.073-.021.077-.019.078-.018.069-.017.078-.019.073-.016.068-.024.076-.014.074-.02.07-.018.085-.015.069-.021.073-.014.074-.026.074-.013.07-.02.077-.02.074-.02.067-.015.077-.019.095-.039.075-.017.074-.017.067-.021.075-.02.075-.02.078-.017.073-.014.067-.022.08-.033.075-.02.073-.017.071-.025.075-.013.079-.019.069-.04.075-.014.072-.02.074-.02.077-.017.071-.035.073-.022.074-.019.076-.014.07-.04.074-.021.061-.013.067-.019.073-.034.077-.024.078-.017.072-.036.071-.016.077-.02.074-.021.073-.037.071-.016.076-.021.075-.039.073-.013.067-.041.076-.02.078-.014.072-.041.068-.012.081-.023.06-.034.072-.017.069-.04.076-.021.078-.033.072-.026.068-.013.073-.038.077-.017.076-.038.069-.021.072-.031.06-.017.074-.04.071-.02.076-.032.077-.02.07-.042.075-.017.073-.037.051-.018.082-.038.068-.016.072-.037.076-.038.076-.012.07-.04.076-.02.058-.035.073-.02.073-.038.074-.034.075-.021.069-.04.057-.035.075-.019.069-.033.078-.04.073-.015.078-.044.052-.031.075-.017.076-.04.074-.037.066-.017.078-.039.055-.037.068-.018.08-.04.075-.036.073-.031.06-.02.066-.041.078-.031.077-.041.046-.017.078-.037.077-.034.066-.039.077-.041.062-.021.068-.033.075-.031.08-.038.05-.037.07-.02.075-.042.073-.031.053-.041.073-.037.075-.037.055-.036.079-.037.072-.017.068-.038.057-.038.077-.033.07-.038.056-.038.079-.039.07-.034.073-.04.056-.031.078-.042.072-.033.055-.034.073-.041.073-.036.054-.037.074-.041.076-.034.051-.038.075-.034.073-.041.06-.033.073-.04.075-.037.054-.034.073-.037.073-.039.059-.037.067-.037.061-.041.073-.031.071-.042.058-.03.065-.038.062-.055.073-.037.073-.042.057-.031.077-.042.053-.036.075-.036.069-.04.061-.054.074-.035.053-.036.077-.039.047-.034.078-.058.071-.036.058-.036.073-.034.056-.041.078-.052.047-.038.078-.036.055-.041.075-.033.056-.06.077-.034.046-.033.074-.061.069-.037.066-.034.054-.036.076-.056.051-.038.072-.038.066-.055.068-.033.055-.039.078-.055.048-.04.075-.034.056-.056.078-.038.052-.04.05-.053.078-.04.06-.033.071-.054.056-.04.074-.055.049-.033.057-.04.077-.052.054-.042.078-.052.053-.037.054-.055.072-.035.054-.037.073-.058.062-.038.053-.055.074-.034.061-.058.045-.036.077-.056.058-.038.059-.052.072-.04.055-.055.068-.039.059-.051.055-.037.054-.053.077-.056.05-.042.059-.051.073-.042.054-.054.057-.036.075-.053.053-.055.059-.038.057-.055.068-.04.061-.054.053-.056.074-.032.049-.057.057-.038.054-.054.059-.057.076-.037.048-.057.058-.053.06-.04.077-.055.05-.058.059-.031.055-.057.054-.053.073-.041.054-.054.056-.055.054-.051.056-.044.075-.049.052-.062.054-.033.058-.056.055-.057.055-.055.057-.052.076-.041.048-.054.058-.053.062-.057.05-.038.056-.055.054-.054.062-.053.073-.057.05-.037.056-.056.054-.054.058-.054.051-.06.062-.054.056-.037.047-.053.061-.057.053-.055.057-.059.053-.053.058-.05.06-.061.046-.034.061-.058.053-.055.054-.057.069-.047.067-.061.027-.059.058-.05.059-.057.054-.054.055-.059.058-.055.055-.053.056-.041.051-.05.061-.056.052-.055.054-.059.054-.054.06-.057.051-.053.061-.053.048-.059.059-.052.055-.061.037-.052.057-.058.057-.054.05-.069.059-.057.055-.058.056-.053.054-.061.036-.052.055-.051.058-.057.048-.06.061-.055.059-.051.027-.055.065-.057.052-.053.051-.076.056-.053.057-.059.038-.056.056-.053.053-.054.061-.059.033-.051.061-.078.048-.053.058-.054.034-.059.058-.05.06-.059.049-.076.041-.054.053-.056.054-.053.054-.056.04-.076.053-.05.056-.059.037-.054.058-.058.05-.076.04-.054.053-.049.06-.058.033-.073.052-.058.058-.05.035-.059.057-.074.045-.057.049-.054.054-.057.041-.073.048-.057.064-.053.034-.055.053-.073.041-.057.054-.057.035-.072.057-.052.055-.061.039-.072.046-.055.045-.055.049-.077.045-.049.056-.062.034-.069.052-.055.042-.057.048-.07.038-.06.061-.074.036-.053.056-.061.039-.067.051-.06.031-.053.061-.075.04-.051.05-.079.044-.054.034-.055.052-.075.041-.049.051-.077.042-.061.033-.071.061-.057.028-.073.058-.051.041-.055.04-.075.046-.055.045-.078.033-.047.05-.073.043-.062.031-.072.064-.054.03-.077.046-.056.049-.067.035-.062.039-.071.052-.055.042-.078.031-.055.04-.068.055-.059.039-.082.029-.045.052-.075.047-.06.036-.066.04-.076.037-.061.049-.072.044-.053.035-.073.04-.053.031-.075.059-.079.037-.055.032-.072.04-.054.034-.075.038-.074.055-.056.037-.07.038-.061.04-.072.026-.068.047-.059.038-.075.037-.053.057-.073.036-.076.033-.051.033-.075.04-.077.037-.056.032-.074.044-.071.039-.056.037-.074.033-.073.04-.057.033-.071.037-.077.041-.057.035-.073.035-.071.04-.055.034-.078.032-.07.04-.054.034-.072.048-.08.028-.069.045-.06.034-.073.033-.075.033-.054.044-.073.029-.074.041-.072.02-.059.04-.069.04-.077.031-.07.042-.061.031-.074.036-.069.035-.077.024-.055.035-.075.034-.071.04-.073.034-.079.04-.051.02-.077.033-.074.041-.074.033-.066.039-.061.022-.074.033-.073.033-.072.043-.076.017-.053.033-.074.038-.078.036-.076.026-.067.035-.077.033-.054.02-.075.036-.069.037-.072.033-.082.022-.072.04-.055.032-.073.02-.076.041-.071.013-.074.039-.073.034-.074.021-.06.034-.067.04-.08.019-.074.041-.07.009-.07.042-.077.037-.078.016-.069.039-.057.018-.075.037-.073.016-.073.035-.074.032-.073.026-.074.021-.073.034-.071.023-.077.036-.077.017-.054.034-.073.02-.078.041-.069.016-.071.036-.077.023-.078.035-.069.017-.071.016-.076.039-.075.021-.076.03-.074.017-.066.026-.08.033-.074.024-.071.037-.073.014-.076.021-.072.033-.082.018-.067.02-.074.039-.075.016-.053.014-.073.04-.075.019-.075.02-.078.041-.067.014-.078.02-.068.02-.078.039-.071.013-.077.018-.076.02-.093.041-.071.016-.069.017-.076.019-.075.017-.072.04-.075.017-.078.017-.073.014-.075.025-.066.02-.077.035-.077.013-.071.02-.069.027-.077.013-.077.017-.075.016-.073.037-.066.024-.08.016-.075.018-.069.017-.078.017-.073.025-.095.016-.072.018-.075.013-.069.021-.078.019-.077.017-.07.023-.073.013-.074.028-.073.02-.075.013-.073.013-.074.029-.093.019-.073.012-.075.017-.072.016-.075.021-.073.017-.074.017-.069.023-.079.017h-.072l-.095.019-.072.014-.075.021-.069.022-.078.018-.073.02-.068.014h-.079l-.075.027-.093.015-.074.016-.073.014h-.075l-.073.021-.073.02-.074.021-.074.016h-.093l-.073.017-.074.018-.073.015h-.072l-.075.026-.078.017-.07.017h-.095l-.069.017-.076.018h-.074l-.071.019-.077.023h-.074l-.089.015-.071.018h-.078l-.077.017-.072.021h-.075l-.086.017h-.073l-.078.016-.076.021h-.075l-.073.018h-.069l-.094.021-.078.019h-.074l-.071.014h-.074l-.072.021h-.093z"/></g><path fill="none" stroke="#FFF" stroke-width=".1" stroke-miterlimit="3.85" d="M209.6 46.017l.458 1.181m0-.001l.796 1.162m0 0c.361.404.709.809 1.123 1.161m.168 3.638l-.168-3.638m.647 7.214l-.479-3.576m.479 3.576l.812 3.469m0 0l1.108 3.369m0 0l1.397 3.209m.7 2.045l-.479-.68m1.457 1.678l-1.678-3.043m.7 2.045l.979.998m-.001 0l1.96 2.863m0 .001l2.229 2.651m2.377 2.349l-2.376-2.349m-2.936-4.518l-1.254-.997m1.254.997l1.533.936m1.771.89l-1.771-.891m1.771.891c.675.288 1.344.575 2.028.849m0 0c.749.271 1.504.531 2.247.791m2.473.723l-1.161-2.821m1.161 2.821l-2.473-.723m2.473.723c.887.221 1.771.441 2.66.649m2.818.57c-.931-.218-1.881-.39-2.818-.569m2.818.569c.989.193 1.993.333 2.993.498m-8.471-1.717l1.348 2.576m-.001 0c.503.791.984 1.593 1.535 2.342m.001 0l1.698 2.064m-20.092-31.368l-1.438-1.104m1.438 1.104c.586.359 1.168.716 1.756 1.068m2.042 1.02c-.678-.327-1.356-.696-2.042-1.02m2.042 1.02c.781.322 1.562.662 2.348.96m2.6.907c-.867-.308-1.729-.612-2.601-.907m5.458 1.71l-2.856-.803m5.938 1.543l-3.082-.74m6.344 1.406c1.15.199 2.313.37 3.47.555m-6.732-1.221c1.091.225 2.182.457 3.263.666m-6.235 2.233l-.11-3.64m.459 7.162l-.349-3.521m.903 6.914l-.555-3.393m.555 3.393c.194 1.078.469 2.154.757 3.205m0 0c.317 1.018.609 2.048.977 3.048m18.467-3.289l-.151-3.332m.151 3.332l.199 3.155m.262 2.942l-.262-2.941m-8.006-14.234l-3.593-.479m3.593.479l3.708.364m0 .001c1.274.091 2.549.18 3.818.267m3.871.16l-3.871-.161m.035 3.629l-.035-3.629m.13 7.115l-.095-3.486m3.836-3.468l3.914.04m0 0l3.913-.04m3.873-.161l-3.873.161m3.873-.161l3.798-.267m3.729-.364l-3.729.364m3.729-.364l-.058 3.63m0 0l-.185 3.487m-.297 3.352l.298-3.352m-.298 3.352l-.4 3.158m-.518 2.945l.518-2.944m-20.716 8.679l.401 2.183m.466 1.886l-.466-1.887m-7.28-5.185l-3.116-.399m3.116.399l3.205.336m3.303.226l-.328-2.69m.328 2.69l-3.303-.226m3.303.226l3.339.146m-2.968 2.295l-.371-2.441m3.338.146l3.376.033m0 0l3.373-.033m3.339-.146l-3.339.146m6.646-.372l-3.307.226m6.512-.562l.631-2.732m-.631 2.732l-3.205.336m2.489 2.14l.716-2.476m-1.55 4.688l.834-2.213m-1.731 4.128l.897-1.915m-29.605 3.357l.925.366m0 0l1.295.462m-4.518-4.007l1.84 1.777m0 .001c.649.509 1.305.996 1.992 1.472m2.12 1.178l-2.12-1.179m2.12 1.179l-1.435-.421m2.965.795l-1.53-.374m1.53.374l1.626.335m1.713.295l-1.713-.295m-3.156-.709c.74.321 1.463.623 2.216.85m0 0l.499.154m2.154 0l1.795.233m0 0l1.858.188m1.313-.809l.567.937m-1.88-.128l1.88.128m1.943.101l-1.942-.102m-.001.001l.614.608m.625.278l-.624-.278m-1.717-2.801l-.499-1.582m.499 1.582l.535 1.256m15.219-3.307l-.979 1.626m0 0l-1.07 1.313m-10.66 1.406l1.933.015m-.001 0l1.938-.015m1.918-.101l-1.918.102m3.818-.23l-1.9.128m3.746-.316c.383-.317.75-.655 1.126-.989m-1.126.989l-1.846.188m1.846-.188l-1.182.667m-1.236.319l1.236-.318m-8.927.558l-.129-.023m7.787-.217h.033M217.97 18.852c-.719.901-1.319 1.907-1.949 2.87m-.08.13c-.163.322-.329.641-.461.977m4.783-6.782l2.56-2.566m-2.56 2.566l-2.293 2.805m6.146-.487l-2.476 2.994m-2.211 3.17l2.212-3.17m-6.161 1.469a3.628 3.628 0 0 0-.183 1.021m.001 0l.113 1.011m0-.001c.119.335.265.678.4 1.015m.001 0l.683.997m2.934-2.342c-.655 1.1-1.341 2.224-1.956 3.322m-.979-.98l.979.98m0 .001c-.569 1.117-1.112 2.295-1.661 3.446m0 0c-.472 1.184-.963 2.355-1.377 3.561m0-.001c-.39 1.204-.754 2.402-1.099 3.612m0 .001c-.298 1.212-.521 2.449-.767 3.674m-.464 3.688l.464-3.688m-.592 7.376l.129-3.688M238.96 3.225l.404-.144m-4.365 1.75c-.162.073-.321.154-.483.233m0 0c-.308.161-.605.35-.903.521m17.486-4.408l-1.291-.254m-.851.013l.851-.013m3.927 1.769l-1.326-.923m0 .001l-1.311-.593m-.332.943l2.97.572m-2.97-.572l-2.952-.261m-2.895.074l2.895-.073m-2.895.073c-.937.128-1.897.241-2.824.406m0 0l-2.73.742m6.757-.134c-1.264.177-2.504.351-3.749.608m0 .001c-1.228.225-2.433.571-3.628.924m0-.001c-1.205.287-2.369.801-3.527 1.222m18.517-3.009l-3.833-.043m-3.78.298l3.78-.298m.18.612l3.653-.568m-3.653.568c-1.222.277-2.43.537-3.634.866m0 0a58.839 58.839 0 0 0-3.56 1.202m.001 0c-1.218.452-2.339.961-3.507 1.489m0 0c-1.119.568-2.256 1.137-3.373 1.793m-7.375.443l-3.024 2.087m-.001 0c-.99.697-1.874 1.554-2.787 2.34m10.79-7.895l-.757.537m0 0l-.589.549m2.952-.971l-3.393 1.521m.442-.55l-.441.551m-.262.595l.261-.596m0 .001l-3.191 1.831m2.841-.663l.09-.572m-.014 1.14l-.076-.568m.311 1.164l-.235-.596m.643 1.162l-.408-.566m4.223-.944c-1.102.648-2.168 1.358-3.246 2.069m0 .001a7.312 7.312 0 0 0-.568-.56m.568.56a74.998 74.998 0 0 0-3.082 2.322m-2.894 2.561l2.894-2.562m-2.894 2.562c-.913.917-1.797 1.853-2.671 2.801m9.39-7.157l-.743-.527m.743.527l.884.519m0 0c.348.178.695.345 1.052.499m-.001 0c.39.161.776.321 1.176.462m0 0c.423.154.877.302 1.313.422m1.418.41l2.236-2.513m-3.653 2.102c.461.153.948.274 1.417.41m0 .001l1.553.346m1.639.315l-1.64-.315m3.373.591l-1.733-.276m-3.192-.661c-.702.908-1.466 1.795-2.102 2.748m0 0c-.705.971-1.354 1.968-2.011 2.965m0-.001c-.619 1.057-1.288 2.091-1.843 3.171m20.343-19.711l-2.508 1.051m.001 0c-.831.445-1.654.887-2.47 1.366m0 0c-.827.548-1.685 1.076-2.458 1.675m-2.395 1.976l2.395-1.976m-2.395 1.976l-2.321 2.247m10.144-3.466l.664-1.918m-.664 1.918l-.647 2.212m-.001 0c-.232.826-.422 1.65-.627 2.49m3.282-9.551l-.683 1.309m.001 0a25.252 25.252 0 0 0-.661 1.622m1.343-2.931l1.328 1.255m0 0l1.328 1.566m.001.001l1.291 1.88m0 0l1.294 2.161m0 0l1.237 2.438m-10.942 5.968l-.535 3.199m0 0l-.516 3.353m-3.948-10.056c.592.087 1.191.158 1.807.225m1.867.187l-1.867-.188m3.761.315l.612-2.753m-2.506 2.626l1.894.127m1.938.074l-1.938-.074m-.569 2.965l.568-2.965m3.895.093l-1.956-.019m1.956.019l1.954-.019m0 0l1.936-.074m0 0l1.899-.127m.69-2.877l1.171 2.689m-1.861.188c.625-.068 1.244-.113 1.86-.188m.001.001l1.13 2.931m1.072 3.135a128.651 128.651 0 0 0-1.072-3.136m2.045 6.476c-.317-1.115-.63-2.243-.973-3.34m-36.875 19.568l-.733 3.776m-.538 3.802l.537-3.801m-.872 7.583c.146-1.26.208-2.521.335-3.782m-.335 3.782c-.06 1.236-.06 2.476-.09 3.706m-7.543-27.53c.411.331.849.643 1.271.963m-.001-.001c.493.321 1.004.63 1.536.897m1.77.871l-1.77-.87m1.77.87l2.048.807m2.249.772l-2.249-.772m9.296-8.986c-.562 1.119-1.138 2.235-1.701 3.359m-1.532 3.488l1.531-3.487m-1.531 3.487l-1.347 3.597m-2.467-.686l2.468.686m2.678.645l-2.679-.646m2.679.646l2.836.55m0 0l3.01.48m-8.525-1.675l-1.137 3.707m.001 0l-.965 3.763m10.626-5.795l3.113.39m3.23.314l-3.229-.313m6.535.534l.368-3.747m-.368 3.747l-3.307-.222m6.664.369l-3.356-.146m-.318 3.833l.317-3.834m-.571 7.707l.254-3.873m1.552-14.768l-.463 3.521m-.404 3.666l.403-3.667m17.728-.462a165.176 165.176 0 0 0-.927-3.483m.927 3.483c.281 1.197.529 2.415.811 3.616m-12.562 4.448l-3.392-.041m6.765 0l-3.373.041m6.733-.188l-3.359.146m3.359-.146c1.104-.048 2.215-.141 3.32-.222m3.228-.313l-.719-3.725m.719 3.725l-3.228.313m3.84 3.489l-.612-3.802m1.125 7.655c-.17-1.285-.338-2.569-.513-3.854m-21.567 12.189l-.075 3.797m-.036 3.754l.035-3.754m.431-11.545l-.202 3.877m-.153 3.871l.153-3.871m22.314-.608c-.109-1.285-.257-2.567-.388-3.855m.388 3.855c.097 1.284.168 2.567.291 3.852m.171 3.801a442.99 442.99 0 0 0-.171-3.802m.171 3.802l.058 3.746m3.593-.479l-3.593.479m3.593-.479c1.157-.161 2.296-.371 3.45-.555m0 0c1.091-.215 2.201-.395 3.283-.666m0 0a92.551 92.551 0 0 0 3.078-.74m0 0l2.844-.803m.589-15.865l.886 3.739m0 0l.644 3.767m-.001 0l.37 3.742m.111 3.71a49.48 49.48 0 0 0-.11-3.71m-2.489 4.617c.866-.302 1.756-.565 2.599-.907m0 0c.787-.305 1.591-.586 2.343-.96m2.068-1.02l-2.068 1.02m2.068-1.02a22.351 22.351 0 0 0 1.753-1.068m-23.928-16.102l-3.115.39m3.115-.39c.996-.153 1.994-.312 2.989-.48m0 0l2.84-.55m0 0l2.677-.646m2.472-.685c-.829.207-1.649.454-2.473.686m1.327-8.372a148.76 148.76 0 0 0-2.007-3.249m3.815 6.646c-.555-1.158-1.199-2.276-1.809-3.397m3.415 6.914c-.476-1.194-1.059-2.35-1.605-3.517m1.605 3.517l-2.268.772m2.268-.772a54.752 54.752 0 0 0 2.026-.807m0 0a18.063 18.063 0 0 0 1.793-.87m0 0c.516-.292 1.036-.576 1.532-.897m-3.988 6.204l-1.363-3.63m2.508 7.325c-.354-1.24-.744-2.465-1.145-3.695m3.989-6.205c.436-.308.854-.615 1.251-.963m-.001.001c.343-.312.657-.653.98-.98m.701-.998l-2.027-3.208m1.327 4.205l.7-.997m0 0c.168-.32.288-.673.4-1.015m1.354 4.375c-.563-1.133-1.165-2.246-1.754-3.36m3.188 6.83a97.293 97.293 0 0 0-1.434-3.47m-6.105-9.611c-.835-.973-1.675-1.937-2.568-2.86m4.892 5.903a98.778 98.778 0 0 0-2.324-3.043m4.752 5.236c.07-.33.107-.676.114-1.011m0 .001a4.29 4.29 0 0 0-.182-1.021m-.459-.976l.459.977m5.274 20.698l-.48-3.65m-1.294 9.644l-1.435 1.104m2.56-2.266l-1.125 1.161m1.774-5.993l.141 3.67m-.79 1.162l.789-1.162m0 0l.466-1.181m-3.025-13.312l1.125 3.559m.813 3.614l-.813-3.614m1.9 9.754c.075-.334.123-.673.127-1.014m-36.615-30.321l1.814-.225m0 0c.568-.087 1.145-.187 1.72-.276m0 0c.555-.074 1.104-.198 1.653-.315m0-.001c.515-.113 1.024-.228 1.535-.346m0 .001c.495-.123.96-.25 1.438-.41m1.309-.422a54.507 54.507 0 0 0-2.657-2.383m1.348 2.804c.459-.12.873-.258 1.309-.422m1.178-.461c-.395.153-.786.309-1.179.462m1.179-.462l1.037-.499m0 0l.9-.519m-.592 4.116c-.776-.931-1.671-1.78-2.523-2.637m4.886 5.48c-.757-.976-1.567-1.899-2.363-2.843m4.579 5.902c-.737-1.017-1.466-2.048-2.216-3.059M256.708 3.593l-2.973-.9m2.973.9l2.968 1.238m0 0l2.914 1.525m2.837 1.829c-.891-.671-1.888-1.226-2.837-1.828m5.606 3.948a35.064 35.064 0 0 0-2.77-2.12m-.327-3.449a108.945 108.945 0 0 0-3.747-.993m7.394 2.302c-1.222-.397-2.43-.912-3.647-1.309m7.193 2.918a204.936 204.936 0 0 0-3.546-1.609m-11.192-2.987l-3.818-.365m7.616 1.05c-1.245-.271-2.529-.469-3.798-.686m24.382 11.069c-.977-.849-2.007-1.636-3.044-2.415m5.848 5.052l-2.805-2.637m-7.965-2.918l.719-.527m-.001 0l.593-.56m-2.989-2.467c1.108.663 2.264 1.27 3.395 1.9m-.406.567c.137-.187.271-.375.405-.566m.001 0l.24-.596m-.24.596l3.205 2.156M276 8.391l-.073.568m-.02-1.141l.093.573m-.093-.573l-.275-.596m0 .001l-.425-.551m0 0l-.592-.549m3.046 1.64l2.877 1.933m0-.001c.342.274.686.544 1.037.814m-6.96-4.386l-3.226-1.366m3.226 1.366l-.756-.537m0 0l-.903-.521m-.496-.234l.496.233m1.659 1.059l3.046 1.64m-13.101-4.8a75.365 75.365 0 0 0-3.556-.404m3.556.404l3.472.743m-.001 0l3.358 1.051m-14-2.288l-3.653.224m7.268-.134c-1.198-.104-2.416-.077-3.615-.09m-1.163-.503l-2.49.727m4.964-1.111l-2.475.384m4.909-.435l-2.434.051m4.793.204a28.565 28.565 0 0 0-2.359-.255m3.316.479l-.957-.224M255.728.771a22.23 22.23 0 0 0-.644.311m.644-.311c.109-.007.224-.009.333-.016m-1.663.954l-.663.983m.663-.983l.686-.627m-1.349 1.61l-1.326-.923m0 .001l-1.311-.593m.001 0l-1.291-.254m-.851.013l.851-.013m13.317 86.501l-1.788.233m1.788-.233l1.712-.295m1.646-.335l-1.646.335m3.181-.709l-1.534.374m2.952-.795l-1.418.421m7.591-3.777l2.199-1.88m-4.558 3.486l2.359-1.606m-2.359 1.606l-2.509 1.288m-1.305.462l1.306-.462m.922-.366l-.923.366m0 0l-1.104.462m-2.678-8.873l3.118-.399m2.972-.498l-2.972.498m5.811-1.068l-2.839.569m2.839-.569c.89-.214 1.773-.422 2.662-.649m2.466-.723l-2.466.723m6.1-4.413l-1.383 2.899m-2.251.791a89.841 89.841 0 0 0 2.252-.791m0 0c.681-.273 1.346-.561 2.028-.849m0 0l1.767-.891m1.532-.935l-1.532.936m-5.402 4.417a96.694 96.694 0 0 0 1.606-2.678m-1.606 2.678l-1.825 2.412m-2.027 2.177l2.027-2.177m7.935-21.282c.084-1.212.123-2.416.123-3.632m-.53 7.171c.173-1.179.301-2.349.407-3.539m-1.07 6.953c.25-1.133.461-2.267.663-3.414m-1.566 6.678c.305-1.077.695-2.162.903-3.265m-2.051 6.341a75.194 75.194 0 0 0 1.147-3.075m10.935-13.1l-.849 3.527m.001 0l-1.139 3.408m-1.458 3.308l1.458-3.308m2.662-14.16l-.18 3.628m-.495 3.597l.495-3.597m-7.373 18.999l-1.259.997m2.235-1.995l-.977.998m3.079-4.498l.355-.661m-1.975 3.481l-.481.68M209.6 46.017l-.134-1.014"/><path fill="#FFF" d="M240.77 87.02l.204.053-.073-.02-.076-.017-.071-.017-.021-.024.037.025zm.719.143l-.168-.034-.018.017-.075-.017-.161-.04-.079-.017h-.015l.073.017.035.021h.007l.033.02h.073l.181.048.26.08.014-.021.151.034-.056-.034-.255-.074zm-22.208-52.565l.147-.401.091-.663-.091-.094-.258.422.054.273-.054.463h.111zm.716-1.452l.266-.482-.171-.462-.018.074.034.367-.146.376.035.127zm-.404-.985l-.073.281.442.077.052-.188-.217-.15-.204-.02zm22.432 29.973l-.28-.253-.644-.094-.575-.259-.974-.884-1.089-.726-1.091-.106-1.418-.549-.813.09.11-.391-.35-.455-1.181-.637-.867-.401-.515.388-.04-.74-1.197-.329-.2-.261.494-.516v-.516l-.367-.185-.328-1.365-.155-.462h-.232l-.095-.326-.663-.773-.462-.281-.22-.124-.67-.338-.515-.072-.071.123-.739-.329-.22-.312-.295-.447-.247-.066.022-.39-.33-.596-.369-.381-.2-.24-.314-.058-.021-.626-.403-.498-.446-.184-.146-.401.497-.102-.665-.18-.677-.153-.046.186-.327.147-.401-.22-.262-.442-.557-.106-.453-.167.016-.261-.278-.529-.333-.139-.091-.578-.203.157v.388l-.644.078-.058.568.105.332-.161.505-.226-.04-.086-.67.257-.35.074-.391-.111-.403.298.026.03-.17.151-.226-.091-.24-.164-.106-.281.253-.221.094-.408.242-.348-.202-.054.128-.277-.114-.298.247-.182.586-.04.259h-.186l-.391.367-.199-.127-.128-.273-.087-.295-.171-.223-.203-.133.017-.066-.201-.153-.163.153-.241.018-.188.11-.18-.062-.073-.235-.052.037-.13-.115.037-.147-.095-.347-.113-.401-.087-.396-.017-.456-.017-.144.017-.23.104-.147v-.197l.093-.295.078-.043.054-.348.017-.205.095-.31.093-.276.13-.206.037-.294.055-.146.034-.057-.034-.261-.092-.182-.036-.219-.077-.209-.038-.048-.126-.185-.073.013-.074-.029-.072-.118-.075-.095-.06.062-.126.014-.129-.092-.113-.162-.05.019-.017-.093-.078-.042-.093.075-.018-.048-.06-.153-.053.095-.055-.204.128-.225.057.019.093-.147.145-.347v-.074l.113-.246v-.121l.146-.28.062-.202-.062-.037.034-.109.061.037.014.236.244-.514.144-.274-.014-.165.222-.41.295-.315.127-.328v-.208l-.204-.066-.218-.208-.314-.056-.241.056-.114.164-.237.593-.184.369-.261.166-.161-.02-.208-.026-.18-.102-.245.017.021-.384-.123-.422.053-.441.106-.462.094-.668.161-.59.1-.409.129-.422.147-.313.428-.921.233-.438.353-.538.076-.259.16-.354.225-.456.201-.264.243-.198.311-.093.426-.315h.238l.13.066.057.305.218.085-.036.501.149.168.161-.055.04.167.073-.039.04-.188.148-.273.057-.209.145-.027.199.088.188.255.335.133.069.281-.037.401.037.077.444-.133.071.184-.054.724-.109.441-.274.425-.078.297-.094.622-.091.716.055.241-.073.333.134.186.147-.036.253-.389.131-.274.219-.462.186-.922.147-.291.077-.593.184-.649.182-.512.298-.462.364-.338.354-.221.589-.252.168-.21.294-.161.205.038.438-.298.463-.014.5-.415.332-.69.093-.261-.076-.093.367-.63-.106-.328.168.215.182-.455.239-.258-.297.565.022.334-.376.405v.04l.524-.445.253-.203.147-.257-.017-.162.15-.372.014.205.062.072-.075.185.549-.41.368-.439-.091-.078.225-.126-.061.078.225.086h.609l-.017-.164-.593-.087.412-.061.213.041.188.033.334-.014.162.087.313-.021.147-.18-.02-.188-.11.265-.144-.077.092-.393.221-.35.147-.106.438-.309.499-.061.521-.094.602-.188.062-.219.479.058.625.161-.993.342-.317.548.26.131.72-.339.549-.145 1.131-.129.739-.295-.133-.294.236-.481-.825.614-.702-.093-.316-.462.168-.514.334-.704.606-.313-.107-.391-.571-.112-1.092.264-1.107.606h-.365l.794-.429 1.067-.623.628-.13.609-.328.39.071.514.164.699.331.7.073.796-.385.753-.058.428-.144.404-.171.39-.678-.021-.265-.24-.141.188-.533-.115-.243-.44-.277-.071-.405-.187-.428.404-.315.188-.749.2-.797.202-.515-.402.188-.796.494-.683.146.093-.367-.149-.166.555-.664.438-.421-.385-.187.151-.226.037-.381-.023-.245-.312.054-.164-.127-.188-.276-.254.038-.849.761-.427.455-.849.387-.165.496-.308.522-.341.347-.508.296-.653.239-.626.055-.131.369-.72.922-.661.5-.368.076.163-.703.446-.695.499-.575.514-.429-.146-.161-.291-.24.05-.335-.033-.287.163-.321.073-.295V11.8l-.313-.078.428-.404.531-.479-.051-.24.75-.498.555-.275.852-.351.662-.201.222.071.421-.259.374-.094.219.113.572-.169.333-.143.663-.246.367-.161-.056.201.274.055.726-.13.329-.161.24-.266.441-.141.315-.187.146-.276-.095-.169-.11-.125-.719.389-.662.255-.612.167.351-.318.536-.236.314-.315-.663.147.698-.328-.017-.221.403-.095.683-.441.261-.203.02-.15-.593.134-.792.328-.201.203-.367.298-.721.299-.057-.094-.588.217.661-.312.127-.239-.165-.015-.439.202-.057-.128-.182-.095.255-.28-.094-.069.368-.259.148-.131-.088-.035-.041-.095-.261.04-.288.201-.371.06.426-.261-.11-.04-.058-.196.182-.213.333-.013.386-.236v-.061l.172-.164.346-.274.39-.203.113-.114-.188.043-.033-.075.551-.164-.39.031.756-.296.135-.071-.323.071-.085-.017.352-.129-.017-.072-.154-.041.247-.127-.062-.037h-.165l.207-.09.499-.188.404-.167.24-.086.405-.154.11-.055.181-.068.371-.131.519-.16.107-.062.374-.093.106-.017.33-.11h-.034l.372-.078.388-.09.017-.034.201-.056.168-.061.146-.034v-.017l-.17.033-.071.018h-.073l-.075.023-.071.021-.071.017-.077.017-.074.02-.094.02-.073.021-.069.014-.078.014-.073.026-.074.021-.073.012-.073.017-.073.017-.078.021-.069.023-.075.018-.093.017-.071.017-.075.019-.077.016-.074.02-.076.018-.077.017-.066.02-.075.014-.072.028-.078.015-.069.03-.074.02-.072.028-.078.014-.073.017-.078.017-.065.019-.095.038-.073.02-.078.017-.069.021-.073.021-.073.018-.075.034-.073.018-.078.011-.076.025-.071.02-.077.03-.076.018-.073.024-.075.017-.065.034-.078.027-.076.013-.074.018-.073.035-.07.021-.073.021-.078.034-.073.02-.067.017-.076.039-.078.018-.072.017-.074.037-.073.023-.074.018-.072.031-.071.021-.076.033-.059.021-.068.02-.074.036-.073.017-.078.041-.076.014-.067.023-.073.037-.073.016-.076.037-.072.021-.076.033-.077.021-.069.036-.074.017-.077.041-.074.02-.056.034-.071.019-.073.034-.074.023-.072.037-.071.018-.075.033-.075.021-.073.035-.074.02-.059.04-.068.033-.073.021-.077.033-.076.021-.074.041-.07.031-.07.021-.06.034-.074.037-.073.023-.074.032-.072.018-.075.043-.073.034-.057.018-.073.035-.071.04-.072.034-.074.014-.076.047-.054.029-.076.023-.075.034-.073.037-.073.039-.073.017-.055.038-.054.017-.181.093h-.006l-.013.007-.356.174-.181.093h-.007l-.004.007-.103.055-.997.499-.388.217-.314.188-.198.106-.646.369-.702.424-.551.334-.358.205-.291.201-.312.203-.608.425-.499.331-.445.332-.334.224-.589.438-.496.425-.352.274-.796.726-.017.014-.496.428-.481.41-.107.066.589-.515.369-.373-.095.078-.293.255-.516.447-.74.642-.461.423-.463.428-.418.408-.425.442-.425.438-.375.388-.344.387-.405.446-.502.586-.221.285-.091.106-.74.92-.568.756-.24.356-.113.123-.147.247-.146.218-.095.145-.124.188-.097.166-.287.462-.229.345-.404.634-.35.575-.274.474-.28.476-.126.285-.317.625-.163.274-.111.144.053-.106-.033.031-.24.5-.113.281-.108.222.034-.061-.185.448-.109.295-.188.388-.234.478-.092.278-.164.477-.188.517-.185.466-.018.048.109-.164.056-.11.146-.382.134-.396.018-.126.164-.35.164-.367.15-.355.329-.682.188-.462.134-.274.109-.233.237-.448v-.034l.127-.24.04-.074.087-.185.297-.593.186-.333.294-.473.209-.335.141-.224-.141.302v.025l-.188.39-.146.24-.314.555-.316.575-.106.216-.208.41-.196.459-.044.168-.237.494-.184.448-.072.256-.209.367-.086.204-.13.463-.185.518-.223.736-.273.863-.134.424-.11.295-.11.391-.088.242-.076.124-.07.22-.06-.015-.108.394-.133.549-.073.643-.075.408v.462l.037.164-.037.244-.017.527.037.572.055.278.038.532.075.319.054.329.114.058.219-.093.108.052.11.372.039.351.037 1.037.054.422.073.234.147.151.095.233.036.225.131.17.066.239.078.146.168.13.052-.149.078.133v.268l-.017.048-.038-.154-.057.094.076.447.07.308.023.295.088.409.054.294-.094.106.056.15-.076.229-.027.217.014.164.09.145.038.262.095-.132.015-.243.058.194-.018.236.095.164.106.224.077.245-.021.175-.057.1.057.197.146.278.034.147.044-.167.145.093.072.143.128.139.04.352.126.109.059-.109.017.476.168.073.073-.094.109-.034-.131-.499.062-.127.086.017.164-.106.11-.229.188.033.168.318.034.295.092.093-.126.145.054.444.114.295.112.482.014.658-.106.15.031.718-.109.395.151.25-.168.312-.199.374-.209-.035-.09.203v.39l-.149-.021.059.255-.281.154-.22.04.04.312-.146.404-.075.4-.113.045.073.699-.073.167.241.438.13-.265.092.375-.168.428-.274.287-.074.446.242.773-.075.26.295.442.329.63.199.588.208.405.593 1.589.626 1.47.534 1.074-.021.163.312.648.426.572.964 1.065 1.063 1.017.112.295.57.556.389.943.37 1.043.39 1.331.363 1.179.462 1.108.094.61.424.715.133.411.59.843.313.723.294.716.365.723-.123-.055.462.57.48.498.108.257.645.797.495.59.278.147-.421-.503.329.222.72.815-.518-.294.626.646.131.217.592.313.04.162.348.314.864.649.461.293.225.171.405.259.624.347.646.35.422.213-.295-.138-.716-.369-.335-.182.941.534.558.274.624.314.366.147.35.16.207.095.164.061h.094l-.094-.073.337.147.255.094-.073-.115-.556-.208-.684-.308-.495-.298-.327-.183-.281-.108-.088.017.236.185.075.073-.193-.087.1.027-.404-.273h.094l.034-.035.276.11.171.058-.481-.261-.576-.39-.092-.106.13-.026-.295-.328.185-.069-.259-.278-.425-.208-.662-.381-.208-.26.095-.111.354.132-.114-.182-.335-.411.075-.145.281-.027-.316-.251-.113.077-.39-.227-.417-.441.055-.074.53.298.39.074.15-.099-.258-.233-.168-.314-.295-.298.537.184.846.168.552-.074.095-.482-.107-.217-.43-.28-.126-.312-.87-.596-.11-.234.446.354.353.051.565.331.26.019.441.182.444-.148.076-.25.236-.228.019-.419.275-.166.336-.314.292-.811.314-.227.055-.242-.075-.534-.181-.328-.036-.401.364-.489.63-.327.669-.054.402-.198.976-.076.721.093.089-.333.503-.208v-.589l.568-.716V70.4l.202-.222.024-.411.067-.955-.16-1.238.16-.461h.168l.494-.514.41-.724.983-.844.345-.429.257-1.124-.146-.421-.296-.923zm-16.898-50.853l.369-.31.367-.339.331-.268.243-.188.201-.185.168-.146.295-.241-.133.09-.368.283-.254.222-.182.147-.337.274-.238.207-.462.438v.016zm12.32 7.546l.167-.146-.167-.058-.462.134-.438.294-.997.884-.552.295.072.221-.394.168-.052.206.791.202.481.072.338.238-.463.244.235.066.795-.453.071.106-.365.514.235.188.227.02.456-.534.057-.445.11-.345-.349.05.368-.438-.312-.288-.276.113-.281-.254.261-.188-.185-.181-.384.146.568-.482.445-.349zm-7.766-11.05l-.294.188-.257.163-.158.107.603-.364.106-.094zm9.486 1.095l.197.068.298-.068.09-.057.262-.169.037-.168-.224-.021-.406.207-.254.208zm-10.202-.632l-.017.014.023-.018-.006.004zm-.164.115l-.374.256-.07.054.592-.411-.148.101zm6.986 1.88l-.2-.151-.407.132-.131.149.094.073.538-.134.106-.069zm1.198-1.55l-.626.332-.532.312-.428.113.241.09-.314.278.535-.073.483-.131-.209.241.113.237.352-.057.07-.198-.16-.039.275-.201.019-.24.055-.239.094-.15-.167.021.255-.2-.056-.096zm7.179-5.353l.057-.086-.425-.021h-.479l-.223.107.055.076.274.037v.041h.257l.576-.114-.092-.04zm-8.36 7.473l.075-.112-.052-.06-.26.1-.058.034-.124.147.031.093.388-.202zm9.266-6.586l.2-.11.033-.033-.017-.074-.291.095-.281.086-.147.078.222.032.281-.074zm-2.624.725l-.146.141.039.114.311-.073.202-.108.205-.134-.26-.018-.351.078zm2.343-1.146v.109l-.201.127-.037.113.291-.113.335-.11.222-.181.09-.11-.295.053-.164.112h-.241zm.295-.332l.038-.041h-.22l-.113.021-.017.074.146.036.166-.09zm-.811.033l-.262.114.222.054.225-.034.13-.095-.073-.052-.242.013zm2.657.609l.237.11.036.116-.327.015.017-.058-.109-.11-.335.13-.2.15-.263.075-.274-.027-.313.059-.033.129-.356.2.134-.217h-.093l-.482.186-.274-.015-.335.106.096.106.017.114.329.108.039.206.646-.057.15-.078-.164-.047.123-.076.318-.017.294-.093.316-.017.309-.062.239-.164.167-.018-.034-.092.309.077.187-.021.281.021.626-.171.291-.037.536-.106-.165-.058.182-.037.296.02.423-.075.148-.075v-.11l-.075-.071-.123-.072-.093-.054-.078-.054-.274-.04.058-.038-.188-.055-.149-.017h-.182l-.404.071.15-.071-.021-.038-.314.021-.203-.021-.055-.04-.205-.014-.243.075-.164.089-.259.111-.167.128zm-2.492.371l.043.017.086-.017.096-.073-.075-.095-.188.075.038.093zm-10.913 14.389l.142.381.35.318.188.039.071-.114-.222-.354-.366-.287-.163.017zm11.84-14.626l-.243.127v.11l.148.077.648-.095.295-.02.141-.131.429-.164.054-.093.093-.107.332-.149-.109-.078-.148.061-.095-.02-.24.038-.349.055-.336.095-.199.107.072.072-.219.041-.274.074zm-3.139.127l.369-.058.35-.113.038-.071-.148-.019.281-.091.346-.094.097-.071h-.281l-.72.256.058-.107.457-.203.298-.226h-.206l-.699.078-.166.11.021.258-.295-.057-.263.073v.093l.315.071.148.171zm1.478.073l-.109.02v-.075l-.299-.018v-.057l-.588.168.112.077-.447.124-.073.093.134.077.568-.154.388-.111.314-.144zm-2.972 1.144l.241-.228.381-.071.209-.088-.167-.073.113-.134-.408.039-.442.242.017-.164-.225.069-.478.393-.252.146v.09l.343.014.668-.235zm-1.459-.149l.516-.201.707-.291.291-.17.113-.111-.131-.02-.756.281-.292.067.717-.295.237-.129-.383.041.383-.203-.18-.095.328-.052.164-.112-.369-.072-.274.033-.518.09-.26.171-.031.11-.208-.073-.295.104-.055.12v.145l-.199.197-.113-.047.079-.134-.1-.071-.055-.039-.609.291.059.046-.226.182-.347.159.033.135.113.164.261.076.056.074-.148.221-.057.201.276-.094.239-.16.13.109.314-.109.274-.274.316-.265zm-.956 1.235l.24-.165.108-.09.093-.095.147-.187-.349.094-.261.02-.255.241.13.033-.13.208.277-.059zm2.249-1.747l.501-.094.145-.095-.038-.093-.106.02-.502.262zm1.124-1.094l.13-.164.224-.129.034-.183-.494.164-.426.036-.482.077-.256.034-.537.257-.33.131.199.093.313-.072.462-.058.447.037.148.041.327-.148.241-.116zm-.608 1.916l.222.021.74-.161.034-.187-.093-.133h-.258l-.331.093-.369.134-.589.28.033.087.611-.134zm1.07 1.687l.234-.167.113-.244.02-.311-.367.072-.425-.02.445-.197.498-.444-.519-.021-.63.202.356-.259.494-.147-.401-.076-.353.06-.705.221-.662.329.11.093-.405.075-.168.186.058.168.036.254.294.335.319.067.257-.067-.113.188.093.09-.22.298-.241.051.114.278-.041.294-.13.185-.201.203-.793.314-.349.182-.153.167-.442-.095-.346-.141-.558.255-.052.218.626.171.162-.127.021.328.02.354-.241.107v.327l.188.445.461.426.128-.188.06-.388.127-.511.161.572.188.236.441-.328.336-.519.035-.15-.076-.312.076-.331.329-.258.332.034-.148.538.073.298.979-.431.404-.295-.312-.124.154-.503-.209-.196-.113-.425.609-.074.332-.444.056-.204-.161-.294.198-.295-.403-.035zm.622-1.205l-.234.113-.22.242v.032l.22.02.109.075.113.072.164-.112.145-.274-.183-.168h-.114zm.93-.332l.234-.13.153-.161-.093-.113-.24-.073-.274-.04-.061-.093-.055-.088.132-.09.094-.117.274-.095.185-.106-.115-.11.187-.124-.033-.114-.313.067-.185.134v.131l-.265.17-.348.12-.368.171-.058.238.038.133.168.111.369.104.031.113.298.021.245-.059zm-11.416 14.927l-.04.235.334.411h.167l.342-.211-.365-.087-.236-.17.057-.329-.259.151zm-13.193 16.985l.278.087.314.02.093-.144-.221-.443-.3-.162.093-.206-.182-.256-.13-.042-.145-.459-.167-.609-.072-.24-.376-.088-.054-.328-.241-.436-.254-.165-.277-.219-.11.045-.259-.082-.216.037-.188.078-.171.199-.237.127.094.151.18.017.115-.14.13.066.365-.234.315.234-.202.107.074.213.402.362.061.201.254.367.22.094-.033.465.057.277.219.168.113.274-.389.273.589.202.258.189zm63.543-10.352l.242.247.221.018.242-.446-.041-.053-.086-.111.086-.404-.223.344-.276.095.037.203h-.037l-.165.107zm-15.197-10.434l-.057-.535-.291-.261-.429.292.188.243.589.261zm-46.964 23.242l.294-.448.188-.034.033.204.187.019.115-.095.148.095.236.035.185.241.261-.241-.188-.351-.199-.11.073-.208-.261-.09-.014-.295-.13-.02-.227-.294-.35-.151-.088.117-.357-.274-.253-.146-.148.16.237.244-.089.277.133.403-.208.089-.314-.178-.367-.28-.113.221.169.333.241-.055.259.163.219.04.259.241-.023.221.092.167zm15.846 44.001l-.074.057-.4-.145-.208.055.352.185.13-.042.315.151.384.033-.018-.073-.481-.221zm33.477-59.5l-.217.318v.274l.274.441.295.117-.035-.575-.317-.575zm-6.046-5.849l-.575-.049-.222-.245-.494-.662-.336-.071-.605-.686-.059-.054h-.459l.199-.572-.051-.479-.442.033-.39.111.222-.663-.441.094-.331-.022-.186.505.014.605.302.295.181.593.147-.313.188.168-.078.274.15.164.551.057.019.021.405.345.035.374h-.676l.014.399.352.333-.439.246.202.237.756.033-.39.188-.533.737.294.113.274-.278.461.028.241-.326.258.094.74-.255.625-.06.298-.389-.298-.291.171-.218-.094-.414zm15.788 9.757l.608-.253-.034-.222-.205.167-.043-.134-.345.057-.331.148-.367-.165.053.315.605-.018.059.105zM253.107 9.753l-.369-.017-.682-.041.335-.24-.037-.312.273.257.188.188.462-.073-.077-.371-.294-.298-.308-.106.14-.109.445.186.017-.204-.261-.294h.294l.34-.077.069-.15-.241-.162.463-.038-.26-.369.205-.034-.033-.354-.354-.205.313-.123.259-.021-.205-.261-.013-.422.106-.239.147-.256-.295-.021.406-.056.072-.094.445-.258-.109-.147-.353-.06-.538.154-.311.126.146-.204-.072-.123-.22.106-.294-.134-.401.027-.023-.073H253.461l.182-.132-.535-.258-.664-.075h-.314l-.2.093-.294-.058-.482.146-.167.129.054.2-.093-.123-.105-.055-.075-.151-.463.129.041-.111-.274-.049-.335-.027-.328.027-.208.126h-.166l-.704.111-.295.077.061.18-.24.095-.628.031h-.666l-.238.116-.021.2.319.244-.265-.061h-.459l-.185.257-.035.154.351.089.369.072.254.113.113.314-.203.147.038.181-.276.463-.168.298-.031.182-.634.333.073.149.266-.02.031.161.127.354-.346-.201-.205-.04-.292.228-.277.292.144.199.262-.015.188-.062.4-.104-.347.351-.241.161-.515.113-.702.476.017.205-.39.333.023.517-.298.462-.089.35.072.737-.113.556.13.347.686.114.276.516.514.035.441-.518.369-.421.077-.444.735-.353.332-.334.184-.368.406-.274.497-.069.461-.091h.227l.768-.299.597-.5.348-.172h.314l.891-.123.826-.353.748-.4zm43.147 22.783l.011.048-.035-.108-.401-1.251-.294-.811-.315-.83-.239-.596.201.724-.021.077-.328-.539-.106-.351-.115-.205-.255-.328h-.093l-.239-.421-.276-.354-.022.515-.111.372-.069.384-.302.188-.218.072-.203.147-.462-.736-.127-.039-.078.295v.531l-.326.024-.466-.335h-.291l-.482-.516-.626-.756-.076.207-.254-.094.053.331-.168.07.205.264.054.178.352.448.389.534.186.055.168.201.295.168.146.274.07.24.152.222.14.133.135.201.112.14-.247-.49-.105-.425.039-.132.159.17.188.387.128.46.167.245.021-.081.09.181.109-.274.168-.143.134-.114-.076-.612-.078-.606-.093-.555-.074-.288.061.031.106.314.041.152.274.517.294.367.188.146.146-.079h.128l.24.302.13.187h.071l.075.162.105.493.06.229.04.308.127.576-.075.05.035.231.113.384.185.442v.103l-.05.095-.02.415.086.36.021.201-.106.138-.021.274.09.273-.023.318-.121.054-.059.385-.095.15-.087.349.052.35.055.258-.146.536-.295.682-.107.702-.112.148-.095.017-.094.425-.16.28-.244.223-.054.086-.038.242-.052.113-.02.22-.168.089-.075.167-.24.113-.167-.393-.073-.404-.106-.182-.188-.5-.181-.237.073-.091-.132-.316.017-.167-.109-.309-.13-.283-.145-.163-.113-.281-.259-.159-.347-.503-.274-.549-.408-.369-.204-.042-.459-.554-.22-.491-.134-.444-.496-.682-.28-.202-.255-.062-.278-.346-.036-.168-.26-.328-.161-.11-.369-.465-.47-.479-.4-.411-.188.093-.106-.4-.093-.262-.074-.313-.053-.094.017.337.149.573.037.422-.037.167-.227-.194-.313-.235-.716-.898-.023.073.483.699.554.609.737.996.294.332.295.352.646.642-.037.167.188.463.679.441.11.134.373.64-.059.186.298.72.384.811.205.113.295.168.445.757.273.624.294.241.651.422.294.318.274.309.167.192.221.123.109.185.058.314-.167.295.187.106.128.078.127.257.201.223.166-.112.262-.391.315-.328.199-.409.13-.166.075-.2.144-.144.093-.096.094-.202.135-.201.05-.353.091-.093.056.201.053.444.072.384v.317l.057.867v.921l-.036 1.089-.135 1.271-.163 1.011-.298 1.259-.292.83-.458 1.047-.316.761-.386 1.123-.094.449-.095.216-.257.427-.109.367-.131.127-.09.539-.136.361-.103.521-.188.312-.258.993-.017.39.218.133v.186l-.166.47v.212l-.071.348.059.368.053.609.106.072v.284l-.146.694-.071.596-.237 1.07-.024.294-.236.533-.274.552-.354.534-.423.442-.517.534-.685.924-.183.201-.44.586-.223.225-.181.482.013.386-.059.33-.067.185.09-.059-.258.613-.182.311.031.073-.164.281-.254.294-.429.345-.63.559-.293.292-.073.225h.093l-.187.334-.314.455-.291.505-.239.313-.424.401-.13.116-.333.349-.276.328-.463.505-.788.729-.496.435-.484.342-.574.354-.24.111-.146.158h-.221l-.294.191-.438.055-.312.14-.188.027-.595.348-.456.181-.408.281-.241.074-.11-.129-.146.037-.095-.164-.07.072.014-.111.151-.295.015-.321.208-.122.182-.407-.095-.4-.073-.388-.091-.609-.24-.336-.07-.346.07-.538v-.367l.095-.87.203-.702.02-.308-.168-.208-.188-.445-.147-.662-.034-.368-.366-.519.053-.479.015-.401.186-.575.315-.647.089-.291.298-.645.185-.294.426-.517.255-.354.135-.516.02-.368-.171-.201-.127-.388-.111-.389.05-.15.227-.311-.147-.643-.095-.446-.295-.368.074-.169-.074-.201-.15-.493-.497-.646-.657-.612-.428-.514-.405-.688.018-.258.146-.25.164-.559.154-.574-.132-.092.222-.884.073-.589-.274-.463-.32-.069-.143-.317-.186-.073v-.208l-.699.388h-.26l-.257.211-.555.069-.388-.404-.259-.514-.515-.43-.538.077-.626.093-.59.168-.572.221-1.125.587-.403.297-.67.292-.663-.151-.326.039-.54-.106-.478.054-.887.2-.516.263-.757.333h-.15l-.199.014-.797-.312-.697-.538-.66-.384-.517-.466-.206-.048-.571-.28-.407-.385-.134-.277-.104-.572-.352-.438-.295-.277-.202-.095-.186-.15-.093-.347-.116-.168-.237-.108-.404-.32-.338-.053-.161-.201v-.135l-.239-.14-.055-.165-.134-.594.094-.348-.311-.594-.386-.274.328-.15.368-.558.166-.402-.071-.423.199-.388.074-.739-.094-.76-.087-.381.054-.392-.201-.365-.388-.335.02-.326.033-.356.277-.218.219-.404-.049-.261.236-.555.367-.496.241-.126.166-.463v-.407l.236-.496.466-.295.383-.791h.021l.331-.319.627-.106.503-.559.313-.218.493-.665-.237-.934.186-.648.038-.41.362-.534.596-.388.436-.336.321-.809.106-.456.463-.043.428.298.568-.11.662.11.259-.017.521-.466.609-.203.313-.328.515-.291.943-.261.943-.188.308.073.444-.367.586-.094.277.128.372-.108.495-.388.407.021.092.367.371-.348.095.127-.151.401.093.336.258.153.131.642-.265.423.223.371.301-.037.253.335.245.069.718.125.219-.108.501.021.811.181.463.596.531.037.85.123.684.222.187-.234.126-.404-.313-.54.015-.384.246-.425.295-.185.716-.038.294.26.168-.037.203.072.499-.053.217.196.612-.196.499.034.534.073.237.033.242-.345.086-.258.356-.208.331-.014.258.295v-.261l.388.034.327-.087.114-.262v-.274l-.054-.034-.061-.374-.16-.555-.041-.202-.14-.622-.093-.572v-.016l-.316-.522-.073-.315-.293-.233-.021-.318-.167.151-.39-.017-.031.499-.524.291-.511-.239-.424.141.055.322-.243.181-.569-.223-.441.168-.588-.608-.5-.281-.076-.589-.442-.237.114-.795.589-.239-.127-.545.75-.194.168-.586.298-.333.53-.263.87.208.609.038.295-.277.277-.095.11-.495-.168-.294-.371-.39-.328-.15-.202.017-.26-.127-.739-.328-.515-.072-.517-.246.129-.203-.145-.623-.351-.149.201-.459-.115-.114-.165.209-.183.16-.04.281-.258.161-.071.333.295.389.257.073.292-.185.095.26-.251.26-.17.535-.274-.06-.137-.312-.494-.036-.02-.151.167-.331-.204-.094-.605.04-.207-.221-.235.201.108.388.039.555.129.161-.095.194-.155-.024.397.813-.021.329.154.522.326.327.202.242.462.093.017.181-.438.203-.062.259-.12.461-.301-.254-.073-.153-.263.061h-.253l-.411.327.485.295-.147.166-.245.078-.405-.277-.014.167.308.388.375.261-.093.188.4.247.316.134.207.386-.502-.071.295.312-.255.164.462.576-.322.094-.509-.207-.428-.516-.274-.439-.327-.265-.431-.334-.112-.18-.106-.041-.075-.146-.373-.161-.182-.314-.181-.482-.039-.221-.128-.092-.133-.018-.221-.188-.259-.089-.551-.145-.369-.185-.515-.113-.608-.409.055-.066-.333-.225-.111-.224-.348-.058v.318l-.243-.188-.095-.239.076-.094-.405-.014-.257.315.167.314.034.199.294.315.59.257.48.5.772.438.373-.092.183.132-.076.17.538.14.426.129.568.261.112.127.021.26-.411-.26-.459-.018v.5l.459.166.095.389-.182.094-.022.643-.182.113-.094-.227-.034-.383.034-.188-.349-.346-.298-.336-.24-.04-.278-.25-.364-.077-.317-.221-.39.02-.507-.244-.633-.345-.479-.342-.424-.638-.278-.041-.482-.171-.2.137-.164.372-.185.067-.314.461-1.087-.033-.685.328.076.429.144.407-.384.517-.664.239.017.236-.239.441-.095.594.334.39-.257.36-.034.482-.41.188-.295.609-.777.069-.568.041-.335.298-.18.294-.314-.04-.261-.224-.235-.42-.596-.072-.22.217-.328-.094-.315.117.038-.593-.131-.444-.273-.053-.168-.258-.021-.479.205-.278v-.298l.052-.428-.052-.312-.145-.239-.061-.239-.034-.515-.276-.278.718-.553.685.074.734-.054.608.07.442-.07.891-.073.181-.448-.257-1.358-.72-.669-.462-.295-.834-.178-.163-.485.607-.206.87.093-.371-.735.532.239.964-.62-.057-.541.352-.183.315-.164.165-.204v-.978l.476-.335.354-.034.016-.146.318-.093.144.126.131-.349-.205-.199-.201-.335-.311-.314-.331-.589-.026-.168.026-.207.291-.088.04-.166.2-.221.17.294v.201l.121.168.264.035.037.239-.147-.035-.039.463.262.274.127.227.462.068.109.227.333-.193.129-.215.572.167.296.141.146-.215.405-.407.315-.295h.421l.13.15.353-.075-.111-.281.328-.309-.421-.466-.313-.424-.11-.388.128-.256.589.332.236-.076-.291-.424-.239-.326-.055.087-.352-.128-.293-.294.236-.258.278-.188h.371l.258-.11.017-.389-.496-.147-.448.201-.291.335-.371.24-.404-.24-.423-.091-.391-.518-.532-.422-.146-.318-.059-.363.021-.685.055-.146-.242-.187-.549-.108-.257.242.09.381.329.273-.052.507-.149.549.389.772.495.313.538.225.184.686-.241.201.535.96.167.569-.461.036.075.496-.409.117-.441-.52-.702-.594-.75-.754-.448-.295-.308.758-.429.216-.643-.216-.442-.586-.782-1.238.114-.388.552-.576.244-.622-.021-.777-.146-1.034.071-.428.037-.693.239-.301.353-.055-.147-.427.351-.067.197-.187.928.092-.06.188.54.178-.02-.204.609.133.568-.094 1.28.165.4.133.425.238.164.314-.095.242-1.229.012-.055.115.715.183.274.205.609.441.429.021.295.054-.261-.225-.368-.145-.111-.201.797.055v-.178l-.572-.247-.24-.586.167-.057.348.057-.367-.312-.499-.17-.318-.258-.494-.164.556-.116.421.17-.047.15.342.2.334.071.037-.222-.401-.254-.094-.332-.294-.575.09-.052.348.273.168-.054-.188-.184.113-.164-.221-.241.495.095-.418-.298-.466-.092-.22-.15.326-.147.266-.017.884.017-.372-.196-.388-.062-.161-.054-.077.071-.352-.164-.572-.164-.238-.077-.648-.354-.663-.254-.144-.087.165-.135.428.115.602.237.222.037.501.133 1.011.367.429.047.476.228 1.037.571.093-.056-.26-.146-.203-.161-.353-.171-.37-.203-.387-.091-.494-.22-.021.069-.409-.114-.749-.29-.581-.094-.51-.274-.531-.132-.023-.032.407.069.703.226.108-.041-.517-.109-.334-.205-.108-.147.336-.033-.572-.094-.774-.164-.226-.15-.092-.147-.223-.147-.309-.021-.559-.167-.095-.053-.478-.164-.275-.171-.207-.03-.273-.151.093-.017-.552-.15-.168-.065-.294-.048-.367-.073-.481-.108.036-.052.302.052-.154-.093.28.023-.241-.061-.333-.104v-.092l.092-.021.313.021.315.072.66.141.278.044-.094-.044-.073-.045-.238-.062h.278l-.203-.034-.331-.072-.423-.137h.18l-.679-.158-.334-.04-.31-.073-.299-.058-.092-.037h.147l.294.037h.021l-.202-.037-.574-.09-.101-.017h.067l.073.017.086.017h.075l.072.018.077.015h.077l.071.024.089.017h.074l.077.021.071.017h.073l.076.018.069.021h.095l.07.02.078.019.075.018h.071l.073.017.074.021.072.021h.094l.074.02.073.015.073.017.073.015h.075l.072.027.074.014.093.021.075.017h.079l.068.017.072.018.078.023.069.019.075.017.072.017.095.018h.072l.078.023.069.021.074.017.073.017.074.02.072.02.075.021.073.014.093.014.074.026.072.021.075.012.073.017.074.017.072.021.07.023.077.018.078.017.069.017.074.019.072.021.095.021.073.018.078.017.069.02.074.014.08.028.066.015.073.03.075.02.076.028.077.014.069.017.071.017.076.019.077.038.066.02.075.017.072.021.078.021.075.018.072.034.075.018.075.017.069.024.071.02.093.03.076.019.077.024.07.017.078.034.068.027.078.013.066.018.078.035.075.021.075.021.073.034.053.02.075.017.073.039.067.018.082.017.072.037.076.023.072.018.071.031.074.021.08.033.065.021.074.02.076.036.075.017.076.041.07.014.069.023.078.037.077.016.07.037.069.021.078.033.073.021.054.036.077.017.077.041.07.02.073.034.074.019.073.034.073.023.073.037.073.018.075.033.057.021.069.035.078.02.076.04.07.033.07.021.074.033.079.021.067.041.06.031.074.021.073.034.074.037.07.023.076.032.073.018.055.043.072.034.082.018.072.035.068.04.075.034.055.014.076.047.067.029.076.023.078.034.073.037.054.039.076.017.071.038.073.037.074.04.061.015.066.031.074.047.073.027.077.046.052.014.078.033.073.045.071.033.075.036.055.04.077.017.069.038.073.038.062.034.069.034.077.04.069.032.059.041.072.021.074.033.073.039.054.037.075.034.072.044.061.032.069.034.079.04.072.034.054.039.07.033.078.041.055.037.071.036.073.04.057.033.077.034.071.043.057.03.073.04.074.038.056.035.071.034.073.041.057.033.077.042.074.034.052.04.075.038.073.032.054.055.074.04.06.033.067.039.072.034.062.041.069.036.057.032.073.058.075.037.054.036.072.041.056.033.078.041.075.049.053.044.073.034.054.038.071.034.062.061.075.034.066.036.061.037.074.054.045.039.082.034.06.034.067.061.056.032.078.041.055.036.071.056.062.038.067.037.056.054.077.033.054.039.072.056.062.038.073.038.047.057.078.038.056.035.074.055.056.033.051.038.073.055.057.04.071.054.061.04.077.034.049.059.075.035.055.06.055.031.078.035.052.058.075.037.023.036.029.02.06.034.067.061.061.029.034.041.045.033.048.021.037.041.044.025.049.027.041.04.051.04.021.014.069.05.062.04.038.045.03.021.058.023.056.058.055.037.072.057.061.036.052.052.072.059.058.034.057.057.073.037.055.057.053.038.058.055.072.052.058.043.054.05.057.04.074.055.06.056.05.037.01.018.084.061-.036-.021.073.053.058.04.049.052.055.056.076.036.058.059.054.052.06.041.05.054.076.053.056.033.053.062.057.056.054.055.076.04.059.053.05.052.06.053.054.047.053.047.078.061.051.053.06.041.054.054.053.056.057.058.059.034.053.053.076.057.054.056.057.055.055.062.052.031.055.055.06.054.058.057.051.057.052.053.062.037.053.058.058.053.058.054.068.061.055.054.058.057.052.051.062.042.052.052.059.061.054.053.053.055.057.052.055.062.059.053.055.054.057.057.05.055.041.056.053.054.055.06.06.055.054.054.057.056.051.055.059.037.062.056.047.058.057.053.055.071.059.061.034.05.061.06.05.053.053.058.06.051.055.057.058.057.053.055.037.056.054.061.06.053.055.058.054.047.056.06.037.055.058.058.053.075.054.051.056.06.037.051.058.055.053.059.054.055.041.056.053.078.055.052.057.058.057.051.033.057.062.057.049.055.044.076.051.051.056.06.054.053.041.055.053.073.058.054.03.06.059.058.055.051.04.073.053.061.058.053.037.057.057.051.054.077.038.054.058.056.031.054.057.08.054.054.04.048.055.076.038.057.055.061.054.054.036.072.054.052.042.057.051.076.042.055.053-.001.053.067.037.062.051.06.039.047.055.076.04.054.052.058.038.076.057.058.035.066.059.058.034.059.055.071.038.058.058.049.037.074.035.06.055.075.037.052.052.055.042.074.053.059.04.075.033.052.055.058.04.073.054.054.033.076.04.055.053.074.04.053.038.054.056.076.034.051.04.076.055.058.039.075.033.052.055.074.038.06.038.074.057.053.035.075.034.053.037.073.062.055.032.072.034.062.061.072.032.062.041.065.036.054.004.015.034.043.039.057.014.017.04.078.034.053.036.073.036.06.058.068.034.072.039.054.036.073.035.062.054.074.04.053.036.074.036.073.042.061.031.065.042.062.036.072.056.074.038.055.029.076.042.051.031.073.041.08.037.053.037.075.039.052.037.078.034.069.037.061.039.066.033.074.041.061.034.073.038.071.034.056.041.074.037.066.036.061.04.076.034.075.033.052.042.078.031.072.04.051.034.075.039.075.037.072.038.059.033.078.038.065.038.055.017.069.037.085.036.072.037.055.037.072.041.075.031.052.042.078.02.073.037.07.038.055.031.079.033.067.021.076.041.058.039.077.034.07.037.072.017.075.041.056.031.071.041.072.02.082.031.052.036.075.04.065.018.081.037.076.039.052.017.071.037.075.04.069.034.078.014.076.045.054.015.075.04.075.033.068.019.072.035.062.04.072.021.068.034.072.038.078.021.076.034.078.021.049.04.077.012.07.038.074.037.072.016.078.038.076.019.048.037.072.017.081.041.068.02.078.032.076.021.074.04.072.017.075.031.053.021.07.038.08.018.07.038.073.013.075.026.075.032.078.021.066.04.081.017.073.034.066.023.06.012.068.041.076.014.077.021.073.041.067.013.079.039.078.021.069.017.075.037.072.021.071.021.072.016.078.036.069.017.078.024.073.034.074.019.072.013.081.021.05.04.077.014.073.02.067.021.073.035.077.017.069.021.075.02.073.015.073.04.073.019.081.014.069.018.088zm-13.562-14.421l-.11.233.319.756.657.422.317.429.798.534.36.223.442.348.113-.033.185.109-.128.182.333.518.13.242.017.22.241.295.388.421.293-.033.35.185.351-.131.164-.462-.094-.168-.345-.4-.461-.666-.279-.077-.295-.455-.126.066-.375-.547h.282l-.021-.35-.401-.236-.336-.298v.298l.336.453-.369-.351-.133-.123-.168-.291-.2-.178-.369-.017-.534-.438-.241-.076-.167-.182.221-.091-.365-.425.054-.221.218-.061-.496-.589-.346-.314-.135.188h-.276l.038.404-.057.277.22.41zm13.705 14.916l-.026-.095.006.038.02.057zm-.126-.422l.021.074.01.023-.036-.123.005.026zm.089.291l-.015-.07-.021-.074-.023-.049.07.229-.011-.036zm-37.11-12.878l.756-.435.208-.597-.168-.435.128-.441-.576-.358-.348.057-.273.315-.52.514.369.63-.276.683.7.067zm-3.834-8.125l.037-.354-.541-.014-.473.274-.409-.135-.475.281-.481-.348-.476.047-.265.342.679.14v.155l-.586.086.7.274-.349.224.957.187.462.071.295-.091.961-.391.367-.422-.403-.326zm18.482 16.597l.495.18-.037-.385-.144-.201-.04-.61-.367.15-.479.184-.632.061.056.381.867.208.281.032zm-3.93-1.827l.294.85.278.167.126-.274h.262l-.262-.943-.494-.444-.168.258-.294.019.258.367zm-51.945 11.784l-.07-.053-.187-.034-.095.141.15.395.185.222.168-.078.274.13-.018-.239-.164-.274-.243-.21zm76.163 20.272l-.11.421-.257.6-.094.015-.036.256-.182.414-.336.604-.273.514-.127.095-.154.2-.22.261-.164.128-.172.461-.218.448-.183.582-.075.393-.036.258-.187.414-.331.597-.087.227-.188.198-.24.499-.168.438-.111.425-.217.556-.074.274.128.057.087.036.371-.438.298-.298.457-.829.499-.956.663-1.363.462-1.014.376-.873.2-.57.106-.22.114-.298.11-.46.11-.256-.034.328.104-.233.113-.353.018-.263.181-.791.06-.4v-.245l-.015-.221-.168.382zM259.676 5.64l.236.078.044.104.329.021.052-.202-.273-.017-.244-.109-.144.125zm-.369-.054l.095-.206-.719-.128-.294-.073-.148.04.106.11-.168.029-.205-.085-.182.179.408.249.608.233.315.058.031.144.576.151.147-.038-.308-.314.026-.093-.288-.256zm-.85-.661l-.164.16.335.114.161-.042.15.078.404-.017.228-.134-.153-.201-.389-.032h-.367l.072.106-.277-.032zm-35.765 35.391l-.087.093-.041.338.294.066.368.134.181-.15-.047-.187-.247-.151-.421-.143zM257.758.862h-.067l.104.007-.037-.007zm-.151-.012h-.127l.195.013-.068-.013zm.392.033h-.097l.15.014-.053-.014zm.147.019h-.033l.053.004-.02-.004zm.388.034h-.02l.052.021-.032-.021zm-.17-.013h-.051l.097.006-.046-.006zm-.994-.097h-.108l.165.017-.057-.017zm3.466 1.201l-.147.073.021.038.126.017 1.015.126-.74-.236-.275-.018zm-.536 2.069l.037.086.131-.055.205.071.217.021-.054-.071-.126-.039v-.054l-.037-.074-.094-.033h-.218l.074.07.144.058-.204-.041-.075.061zm-1.455-3.12h-.056l.13.021-.074-.021zm-.33-.04l-.104-.007.047.007h.057zm.589.074l-.062-.007.02.007h.042zm-2.195-.222h-.068l.1.014-.032-.014zm.243.02h-.09l.141.012-.051-.012zm2.911 1.439l-.244.062.281.065.609.115.073-.041h.461l.167-.036v-.103l-.239-.093-.609-.028-.499.059zM258.995.996h-.076l.124.007-.048-.007zm5.214 3.41l.351.313.302.252.352.093.495.388.146-.032.481.374.385.161.071.13.389.145.334-.034.335.108.291-.202-.033-.073-.686-.094-.609-.217-.609-.372-.644-.354-.61-.406-.274-.274-.331-.294-.243-.094-.294-.036.074.13.258.164.069.224zm-4.235-3.289l.06.02-.046-.02h-.014zm-3.62-.291h.113l-.295-.038-.314-.017h-.28l.448.036.328.019zm1.219.15l.291.021h.301l-.206-.061-.368-.013-.703-.073h-.312l.552.073.445.053zm2.243.124l.046.007-.023-.007h-.023zm.247.044h.01l-.04-.007.03.007zm-.465-.075h-.073l-.071-.019h-.074l-.072-.021h-.11l.314.039.181.02-.017-.007-.078-.012zm.314.048h.062l-.111-.011.049.011zm-.142-.017h.047l-.124-.011.077.011zm-2.08-.238h-.015.015zm-.357-.012l.197.013.282.04.26.017-.39-.057-.332-.013h-.017zm.96.073h.021l-.148-.017.056.017h.071zm-.181 0l-.04-.004.019.004h.021zm-.21-.04l-.107-.014.036.014h.071zM257.48.85l-.054-.007.017.007h.037zm-.218-.024l-.059-.007.02.007h.039zm-.203-.018h.004l-.122-.006.041.006h.077zm1.053.094l-.06-.006.016.006h.044zM256.67.788h.171l-.21-.017.039.017zm-32.167 46.573l-.186.171.09.095.499.046.094-.555-.127-.073-.336.019-.034.297z"/></g><g fill="#231F20"><path d="M81.57 11.014c.08-1.117.294-1.847.294-1.847.468-1.058.967-1.552 1.484-1.833l.048-.04.047-.007c.881-.556 2.375-.931 4.47-.931h4.665V0H47.025v6.356h4.664c1.988 0 3.403.349 4.276.862 1.071.603 1.539 1.191 1.733 1.647.047.067.24.87.335 2.021.1 1.178.15 2.784.15 4.771v20.33H34.378v-20.33c0-1.954.057-3.513.154-4.645.079-1.117.287-1.847.312-1.847.463-1.058.952-1.552 1.465-1.833 1.039-.609 2.515-.978 4.566-.978h4.735V0H0v6.356h4.712c1.986 0 3.38.349 4.235.855 1.044.604 1.529 1.186 1.717 1.654.054.067.231.87.339 2.021.089 1.178.146 2.784.146 4.771V67.77c0 1.939-.058 3.507-.146 4.63-.094 1.11-.288 1.86-.298 1.86l-.041.056-.003.013c-.412 1.004-.881 1.473-1.405 1.761-1.004.596-2.496.976-4.544.976H0v6.339h45.61v-6.339h-4.735c-1.99 0-3.393-.354-4.223-.863-1.062-.616-1.565-1.204-1.773-1.687-.046-.066-.254-.843-.326-1.994-.118-1.171-.175-2.764-.175-4.751V45.323h23.804l.003 22.446c0 1.939-.051 3.507-.15 4.63-.088 1.11-.291 1.86-.294 1.86-.47 1.038-.966 1.541-1.5 1.829l-.04.018-.039.033c-.891.53-2.37.925-4.472.925h-4.664v6.339h45.553v-6.339h-4.665c-2 0-3.406-.354-4.276-.863-1.069-.623-1.549-1.204-1.747-1.653-.045-.08-.236-.863-.319-2.027-.104-1.171-.154-2.764-.154-4.751V15.658c-.002-1.954.048-3.512.152-4.644zM139.466 11.014c.08-1.117.274-1.847.295-1.847.479-1.058.955-1.552 1.479-1.833 1.033-.603 2.513-.978 4.57-.978h4.71V0h-45.605v6.356h4.717c1.982 0 3.387.349 4.243.855 1.044.604 1.532 1.186 1.721 1.654.053.067.234.87.327 2.021.088 1.178.141 2.784.141 4.771V67.77c0 1.939-.053 3.507-.141 4.63-.093 1.11-.274 1.86-.301 1.867-.449 1.065-.91 1.534-1.433 1.822-1.014.596-2.503.976-4.558.976h-4.717v6.339h45.605v-6.339h-4.71c-1.995 0-3.399-.354-4.243-.863-1.061-.616-1.554-1.204-1.767-1.687-.04-.066-.252-.843-.324-1.994-.11-1.171-.168-2.764-.168-4.751V15.658c.002-1.954.059-3.512.159-4.644zM218.01.006v6.351h2.11c2.982-.008 5.175.441 6.448 1.105.63.319 1.28.962 1.879 2.213.498.951.922 3.293.905 6.688v32.301c.017 8.279-.802 14.02-2.08 16.852-1.359 3.044-3.3 5.339-5.983 7.061-2.636 1.685-5.854 2.563-9.833 2.568-3.456 0-6.147-.702-8.186-1.986-2.174-1.34-3.589-2.925-4.479-4.819-.811-1.605-1.451-6.237-1.42-13.196V16.362c0-2.223.067-4.03.174-5.328.099-1.312.321-2.216.383-2.336.313-.702.756-1.191 1.553-1.64.469-.313 2.41-.736 5.324-.702h4.13V.006h-45.09v6.37l2.135-.02h.502c2.915-.034 4.859.355 5.388.689.917.488 1.404 1.019 1.697 1.673.055.093.291.97.397 2.268.113 1.332.185 3.126.182 5.376v38.779c.005 6.8 1.059 12.38 3.401 16.718 2.346 4.355 6.342 7.842 11.722 10.459 4.209 2.04 9.77 2.95 16.811 2.965 8.506 0 15.465-1.802 20.712-5.616 4.978-3.634 8.317-7.782 9.722-12.479 1.343-4.506 1.935-11.345 1.935-20.746v-30.08c-.017-3.106.295-5.261.597-5.944.575-1.484 1.305-2.368 2.369-3.018 1.076-.655 2.53-1.044 4.469-1.044h3.729V.006H218.01z"/></g></g></svg>