<svg xmlns="http://www.w3.org/2000/svg" width="296.446" height="85.307" viewBox="0 0 296.446 85.307"><g><path fill="#BCBCBC" stroke="#fff" stroke-miterlimit="3.85" d="M258.652 84.57c-2.48.356-4.963.204-7.46.204-2.437 0-4.973-.514-7.337-1.088-2.453-.597-4.822-1.397-7.125-2.395-2.432-1.05-4.598-2.478-6.86-3.806-2.157-1.268-4.097-3.133-5.9-4.87-.92-.89-1.68-1.926-2.585-2.815-.857-.845-1.782-2.046-2.367-3.09-.645-1.147-1.508-2.17-2.11-3.36-.606-1.195-1.194-2.4-1.794-3.6-1.115-2.23-1.73-4.68-2.405-7.076-.307-1.087-.713-2.46-.713-3.584 0-.634-.242-1.264-.242-1.9 0-.552-.03-1.274-.15-1.812-.264-1.16-.062-2.55-.062-3.737 0-1.158-.024-2.53.257-3.65.293-1.175.295-2.435.578-3.626.28-1.186.54-2.386.88-3.557.735-2.542 1.896-4.826 2.93-7.258 1.02-2.4 2.702-4.676 4.29-6.704 1.576-2.015 3.36-3.902 5.295-5.596 2.01-1.76 4.13-3.32 6.42-4.678.56-.33 1.127-.658 1.707-.952.553-.28 1.304-.524 1.785-.897.973-.752 2.463-.917 3.548-1.475 1.06-.544 2.4-.82 3.552-1.13 1.19-.323 2.4-.584 3.605-.788 2.467-.417 4.938-.65 7.46-.65 2.48 0 4.96.216 7.386.667 1.207.225 2.412.497 3.605.81 1.146.302 2.51.596 3.558 1.142 1.133.59 2.412.962 3.57 1.517 1.213.582 2.414 1.217 3.57 1.91 2.29 1.376 4.38 2.95 6.385 4.722 1.86 1.645 3.866 3.53 5.233 5.606 1.5 2.28 3.09 4.392 4.316 6.862 1.146 2.306 2.01 4.654 2.806 7.105.34 1.045.874 2.467.874 3.57 0 .597.312 1.194.312 1.794 0 .53.102 1.304.244 1.815.31 1.118.21 2.53.23 3.69.023 1.247.006 2.493-.088 3.728-.188 2.47-.602 4.838-1.133 7.27-.26 1.2-.645 2.39-1.043 3.547-.375 1.092-.728 2.568-1.39 3.514-.74 1.054-1.075 2.438-1.795 3.534-.748 1.14-1.405 2.32-2.186 3.434-1.498 2.14-3.2 4.162-5.082 5.988-.917.893-1.877 1.725-2.862 2.526-.997.812-2.163 1.46-3.117 2.3-.967.848-2.315 1.456-3.446 2.068-1.166.632-2.37 1.207-3.59 1.722-2.307.972-4.68 1.7-7.125 2.294-1.448.35-2.948.62-4.43.753z"/><path stroke="#fff" stroke-width=".7" stroke-miterlimit="3.85" stroke-opacity=".7" d="M211.65 43.917l.437 1.126m0 0l.758 1.108m0 0c.345.386.676.772 1.07 1.108m.16 3.47l-.16-3.47m.62 6.88l-.46-3.41m.46 3.41l.772 3.308m0 0l1.058 3.213m0 0l1.332 3.06m.668 1.95l-.457-.648m1.39 1.6l-1.602-2.902m.67 1.95l.933.95m-.002 0l1.87 2.732m0 0l2.124 2.527m2.267 2.24l-2.268-2.24m-2.8-4.308l-1.194-.95m1.195.95l1.462.892m1.69.85l-1.69-.85m1.69.85c.643.274 1.28.548 1.934.81m-.002 0c.714.258 1.435.506 2.144.754m2.357.688l-1.108-2.69m1.107 2.69l-2.358-.688m2.357.688c.845.212 1.687.42 2.536.62m2.687.543c-.888-.21-1.794-.373-2.687-.544m2.687.543c.943.183 1.9.317 2.854.474m-8.078-1.638l1.284 2.457m0 0c.48.755.938 1.52 1.464 2.233m0 0l1.62 1.97m-19.16-29.916l-1.373-1.052m1.372 1.052c.56.343 1.114.683 1.675 1.02m1.947.972c-.647-.313-1.295-.663-1.948-.973m1.947.972c.743.307 1.487.63 2.237.916m2.48.865c-.826-.294-1.648-.584-2.48-.865m5.206 1.63l-2.724-.766m5.66 1.47l-2.937-.704m6.05 1.34c1.097.19 2.206.354 3.31.53m-6.422-1.165c1.04.215 2.082.436 3.113.635m-5.946 2.13l-.104-3.472m.437 6.83l-.333-3.356m.86 6.593l-.528-3.236m.528 3.236c.186 1.03.448 2.055.723 3.057m0 0c.303.97.58 1.952.932 2.906m17.61-3.136l-.143-3.178m.143 3.178l.19 3.01m.25 2.804l-.25-2.804m-7.635-13.575l-3.426-.457m3.426.457l3.537.348m0 0c1.215.087 2.43.17 3.64.255m3.692.152l-3.69-.154m.032 3.46l-.034-3.46m.124 6.786l-.09-3.325m3.657-3.307l3.732.038m0 0l3.732-.037m3.693-.154l-3.693.154m3.693-.154l3.62-.254m3.558-.347l-3.557.348m3.557-.348l-.055 3.463m0 0l-.177 3.324m-.282 3.197l.284-3.197m-.284 3.196l-.382 3.01m-.493 2.81l.493-2.81M247.69 76.45l.384 2.083m.444 1.8l-.444-1.8m-6.944-4.945l-2.972-.38m2.972.38l3.057.32m3.15.216l-.313-2.564m.313 2.565l-3.15-.215m3.15.216l3.184.14m-2.83 2.188l-.353-2.327m3.183.14l3.22.032m0 0l3.217-.032m3.183-.14l-3.184.14m6.34-.355l-3.156.216m6.21-.535l.604-2.605m-.603 2.605l-3.055.32m2.374 2.04l.68-2.36m-1.477 4.47l.796-2.11m-1.652 3.937l.855-1.826m-28.233 3.2l.882.35m0 0l1.235.44m-4.31-3.82l1.755 1.694m0 0c.62.487 1.244.952 1.9 1.405m2.022 1.123l-2.02-1.124m2.02 1.124l-1.37-.4m2.83.756l-1.46-.356m1.46.356l1.55.32m1.635.28l-1.636-.28m-3.01-.676c.706.307 1.396.594 2.113.81m0 0l.478.147m2.054 0l1.71.223m0 0l1.77.18m1.254-.772l.54.894m-1.793-.123l1.794.122m1.854.096l-1.853-.098m0 0l.585.58m.596.266l-.596-.266m-1.637-2.67l-.476-1.51m.476 1.51l.51 1.198m14.515-3.154l-.934 1.55m0 0l-1.02 1.252m-10.166 1.342l1.843.014m0 0l1.85-.014m1.827-.097l-1.83.096m3.643-.22l-1.813.123m3.573-.302c.365-.303.716-.625 1.074-.943m-1.074.943l-1.76.18m1.76-.18l-1.127.637m-1.18.304l1.18-.306m-8.514.533l-.124-.02m7.426-.208h.032m-39.052-66.56c-.686.86-1.258 1.82-1.86 2.738m-.075.124c-.156.306-.314.61-.44.93m4.562-6.467l2.44-2.447m-2.44 2.447l-2.188 2.676m5.86-.464l-2.36 2.855m-2.11 3.025l2.11-3.023m-5.875 1.4c-.11.313-.156.64-.174.974m0 0l.108.964m.002 0c.112.32.253.646.38.967m0 0l.653.95m2.798-2.232c-.625 1.05-1.278 2.12-1.865 3.168m-.934-.935l.934.935m0 0c-.544 1.065-1.062 2.19-1.585 3.287m0 0c-.45 1.13-.918 2.246-1.313 3.396m0 0c-.37 1.147-.72 2.29-1.048 3.443m0 0c-.283 1.157-.496 2.336-.73 3.505m-.444 3.516l.442-3.516m-.564 7.035l.123-3.518m25.61-40.634l.386-.138m-4.164 1.67c-.154.07-.307.146-.46.222m0 0c-.294.153-.577.333-.862.496m16.676-4.204l-1.23-.242m-.813.013l.813-.013M253.74 2.6l-1.264-.88m0 0l-1.25-.566m-.318.9l2.832.545m-2.832-.547l-2.815-.25m-2.76.073l2.76-.07m-2.76.07c-.895.122-1.81.23-2.693.386m0 0l-2.604.708m6.444-.127c-1.206.168-2.388.334-3.575.58m0 0c-1.17.215-2.32.545-3.46.882m0-.002c-1.148.274-2.26.764-3.363 1.165m17.658-2.87l-3.655-.04m-3.605.285l3.604-.284m.173.58l3.483-.54m-3.483.54c-1.166.266-2.318.513-3.467.827m0 0c-1.15.346-2.268.73-3.395 1.147m0 0c-1.16.43-2.23.916-3.343 1.42m0 0c-1.067.54-2.15 1.084-3.217 1.71m-7.033.423l-2.885 1.99m0 0c-.943.664-1.787 1.482-2.658 2.23m10.288-7.528l-.72.51m0 0l-.564.524m2.817-.925l-3.235 1.45m.422-.526l-.42.526m-.25.568l.248-.568m0 0l-3.043 1.747m2.71-.633l.085-.546m-.014 1.087l-.072-.54m.298 1.11l-.225-.57m.614 1.11l-.39-.54m4.028-.9c-1.05.617-2.067 1.293-3.096 1.973m0 0c-.17-.19-.355-.365-.542-.534m.542.535c-.996.72-1.98 1.44-2.94 2.213m-2.76 2.442l2.76-2.443m-2.76 2.443c-.87.875-1.713 1.767-2.547 2.67m8.955-6.825l-.71-.502m.71.502l.843.496m0 0c.332.17.664.33 1.004.476m0 0c.37.154.74.306 1.12.44m0 0c.404.146.837.288 1.253.402m1.352.392l2.132-2.397m-3.484 2.003c.44.146.904.26 1.35.39m0 .003l1.482.33m1.564.3l-1.564-.3m3.216.563l-1.652-.264m-3.045-.63c-.67.865-1.398 1.712-2.005 2.62m0 0c-.672.927-1.29 1.877-1.918 2.828m0 0c-.59 1.007-1.23 1.993-1.758 3.023M253.74 2.6l-2.392 1m0 0c-.792.426-1.575.847-2.354 1.304m0 0c-.79.522-1.607 1.026-2.345 1.598m-2.285 1.883L246.65 6.5m-2.285 1.885l-2.213 2.143m9.673-3.305l.634-1.83m-.635 1.83l-.616 2.11m-.002 0c-.222.788-.402 1.574-.598 2.375m3.13-9.11l-.65 1.25m0 0c-.232.53-.434.997-.63 1.546m1.28-2.795l1.267 1.196m0 0l1.266 1.494m0 0l1.232 1.794m0 0l1.234 2.06m0 0l1.18 2.325m-10.436 5.69l-.51 3.05m0 .002l-.492 3.198m-3.766-9.59c.565.082 1.137.15 1.724.214m1.78.178l-1.78-.18m3.587.3l.584-2.624m-2.39 2.504l1.807.12m1.847.072l-1.848-.07m-.542 2.826l.542-2.828m3.714.09l-1.865-.018m1.865.018l1.863-.018m0 0l1.848-.07m0 0l1.81-.122m.66-2.744l1.115 2.565m-1.774.18c.597-.066 1.187-.11 1.774-.18m0 0l1.078 2.796m1.024 2.99c-.33-1.006-.667-1.995-1.023-2.992m1.95 6.176c-.302-1.063-.6-2.14-.927-3.185M227.97 38.48l-.7 3.6m-.513 3.628l.512-3.626m-.833 7.23c.14-1.2.2-2.403.32-3.604m-.32 3.605c-.057 1.18-.057 2.36-.086 3.535m-7.193-26.254c.393.315.81.613 1.213.918m0 0c.47.305.957.6 1.463.854m1.69.83l-1.69-.83m1.69.83l1.952.77m2.145.737l-2.146-.736m8.866-8.57c-.536 1.067-1.085 2.132-1.622 3.204m-1.46 3.327l1.46-3.325m-1.46 3.325l-1.286 3.43m-2.352-.654l2.354.655m2.554.614l-2.556-.616m2.556.616l2.704.524m0 0l2.87.458m-8.13-1.596l-1.084 3.535m0 0l-.92 3.588m10.135-5.525l2.97.372m3.08.3l-3.08-.3m6.23.51l.353-3.573m-.352 3.573l-3.153-.21m6.356.35l-3.2-.14M247 37.493l.302-3.656m-.543 7.35l.242-3.694m1.48-14.084l-.44 3.356m-.386 3.497l.385-3.498m16.907-.44c-.28-1.115-.58-2.214-.885-3.322m.885 3.322c.268 1.142.504 2.303.773 3.45m-11.98 4.24l-3.234-.04m6.45 0l-3.217.04m6.42-.178l-3.203.14m3.204-.14c1.054-.045 2.112-.134 3.167-.21m3.08-.3l-.687-3.553m.686 3.552l-3.078.3m3.662 3.326l-.584-3.625m1.072 7.3c-.162-1.226-.322-2.45-.488-3.676m-20.57 11.626l-.07 3.62m-.034 3.58l.033-3.58m.41-11.01l-.192 3.698m-.147 3.692l.147-3.692m21.28-.58c-.104-1.225-.244-2.448-.37-3.676m.37 3.676c.094 1.224.16 2.45.277 3.673m.164 3.625c-.05-1.205-.104-2.418-.164-3.625m.164 3.625l.055 3.572m3.427-.456l-3.427.457m3.427-.457c1.104-.152 2.19-.353 3.29-.53m0 0c1.04-.204 2.1-.375 3.132-.635m0 0c.987-.22 1.96-.453 2.935-.705m0 0l2.712-.766m.56-15.13l.846 3.566m0 0l.614 3.592m0 0l.353 3.568m.105 3.54c.01-1.177-.026-2.357-.105-3.54m-2.374 4.405c.825-.29 1.673-.54 2.478-.865m0 0c.75-.29 1.517-.56 2.234-.916m1.973-.973l-1.973.972m1.973-.973c.57-.308 1.123-.657 1.67-1.02m-22.82-15.355l-2.97.372m2.97-.372c.95-.146 1.903-.298 2.853-.458m0 0l2.707-.525m0 0l2.553-.616m2.357-.653c-.79.197-1.572.433-2.357.655m1.265-7.985c-.62-1.04-1.266-2.07-1.914-3.1m3.637 6.34c-.528-1.104-1.144-2.17-1.725-3.24m3.257 6.594c-.456-1.14-1.012-2.242-1.532-3.354m1.53 3.354l-2.163.736m2.164-.736c.655-.246 1.292-.502 1.93-.77m0 0c.584-.243 1.16-.523 1.71-.83m0 0c.493-.278.988-.55 1.462-.855m-3.803 5.917l-1.3-3.463m2.39 6.985c-.336-1.182-.71-2.35-1.09-3.523m3.803-5.92c.416-.293.814-.585 1.193-.917m-.002 0c.328-.297.627-.622.936-.934m.668-.953l-1.934-3.06m1.266 4.01l.668-.95m0 0c.16-.304.274-.642.38-.967m1.293 4.17c-.536-1.08-1.11-2.14-1.672-3.204m3.04 6.514c-.433-1.114-.894-2.214-1.367-3.31m-5.82-9.165c-.798-.927-1.6-1.847-2.45-2.727m4.665 5.63c-.722-.99-1.462-1.948-2.216-2.902m4.53 4.994c.066-.315.103-.645.11-.964m0 0c-.02-.332-.076-.66-.174-.974m-.438-.93l.438.93m5.03 19.74l-.458-3.48m-1.234 9.197l-1.37 1.052m2.442-2.16l-1.072 1.106m1.69-5.716l.136 3.5m-.754 1.11l.754-1.11m0 0l.443-1.125m-2.885-12.697l1.072 3.395m.777 3.446l-.776-3.445m1.813 9.302c.072-.318.117-.643.12-.968m-34.918-28.916l1.73-.215m0 0c.542-.084 1.093-.18 1.64-.264m0 0c.53-.07 1.054-.19 1.578-.3m0 0c.49-.11.976-.218 1.464-.33m0 0c.472-.117.914-.238 1.37-.39m1.25-.404c-.822-.78-1.673-1.557-2.535-2.272m1.286 2.673c.438-.114.832-.246 1.248-.402m1.124-.438c-.377.146-.75.294-1.125.44m1.125-.44l.988-.476m0 0l.858-.496m-.564 3.926c-.74-.887-1.594-1.698-2.406-2.515m4.66 5.227c-.723-.93-1.494-1.81-2.254-2.71m4.367 5.628c-.704-.97-1.4-1.954-2.114-2.917m-18.15-13.9L253.74 2.6m2.835.858l2.83 1.18m0 0l2.78 1.456m2.705 1.744c-.85-.64-1.8-1.17-2.705-1.744m5.346 3.766c-.835-.715-1.742-1.398-2.64-2.02m-.313-3.29c-1.18-.344-2.374-.646-3.574-.948m7.053 2.195c-1.166-.378-2.318-.87-3.48-1.248m6.86 2.78c-1.122-.522-2.25-1.032-3.38-1.534m-10.674-2.848L253.74 2.6m7.263 1c-1.187-.257-2.41-.446-3.62-.653m23.25 10.556c-.93-.81-1.913-1.56-2.9-2.303m5.576 4.82l-2.676-2.517m-7.597-2.783l.686-.502m0 0l.564-.534m-2.85-2.353c1.057.633 2.16 1.212 3.238 1.814m-.387.54c.13-.178.258-.357.385-.54m.002 0l.23-.568m-.23.57l3.057 2.054m-2.758-3.166l-.07.54m-.02-1.086l.09.547m-.09-.547l-.262-.568m0 0l-.404-.525m0 0l-.564-.524m2.904 1.566l2.744 1.843m0-.002c.326.26.653.52.988.776m-6.636-4.183l-3.078-1.302m3.078 1.303l-.723-.51m0 0l-.86-.497m-.472-.224l.473.222m1.584 1.01l2.904 1.564m-12.494-4.58c-1.133-.156-2.25-.28-3.392-.384m3.392.385l3.312.71m-.002 0l3.2 1m-13.35-2.18l-3.484.213m6.932-.128c-1.143-.1-2.304-.073-3.448-.086m-1.11-.48l-2.374.694m4.736-1.06l-2.36.366m4.68-.414l-2.32.048m4.57.195c-.765-.112-1.485-.195-2.25-.243m3.162.456l-.912-.213M255.64.767c-.2.093-.41.195-.613.296m.613-.296c.105-.006.215-.008.318-.016m-1.586.91l-.633.94m.632-.94l.654-.597M253.74 2.6l-1.264-.88m0 0l-1.25-.566m0 0l-1.23-.242m-.813.013l.813-.013m12.7 82.493l-1.706.223m1.705-.223l1.633-.28m1.57-.32l-1.57.318m3.033-.675l-1.462.356m2.815-.757l-1.353.4m7.24-3.6l2.098-1.794m-4.347 3.325l2.25-1.53m-2.25 1.53l-2.392 1.23m-1.245.44l1.247-.44m.88-.35l-.882.35m0-.002l-1.053.44m-2.554-8.46l2.976-.382m2.833-.475l-2.835.474m5.54-1.018l-2.706.543m2.706-.544c.85-.205 1.69-.402 2.54-.62m2.35-.688l-2.35.688m5.816-4.208l-1.318 2.765m-2.147.755c.718-.242 1.434-.493 2.147-.755m0 0c.65-.26 1.285-.534 1.936-.81m0 0l1.684-.85m1.462-.89l-1.462.89m-5.152 4.214c.523-.85 1.04-1.697 1.53-2.554m-1.53 2.554l-1.74 2.3m-1.934 2.076l1.934-2.076m7.566-20.296c.08-1.156.117-2.303.117-3.463m-.503 6.838c.164-1.124.287-2.24.387-3.374m-1.02 6.63c.237-1.08.438-2.16.63-3.255m-1.492 6.37c.29-1.027.663-2.062.86-3.113m-1.956 6.046c.387-.974.752-1.943 1.095-2.932m10.428-12.494l-.81 3.363m.002 0l-1.086 3.252m-1.39 3.154l1.39-3.153m2.54-13.505l-.173 3.46m-.472 3.43l.472-3.43m-7.032 18.12l-1.2.95m2.13-1.903l-.93.95m2.935-4.29l.34-.63m-1.885 3.32l-.457.648m-77.468-21.75l-.128-.97" fill="none"/><path fill="#fff" d="M241.375 83.02l.194.05-.07-.02-.07-.015-.07-.016-.02-.024.035.024zm.686.137l-.16-.033-.016.018-.072-.018-.153-.038-.076-.016h-.014l.07.016.033.02h.006l.03.02h.069l.172.046.248.076.014-.02.144.033-.053-.032-.244-.07zm-21.178-50.13l.14-.382.087-.632-.087-.09-.246.402.05.26-.05.442h.105zm.684-1.385l.253-.46-.164-.44-.017.07.03.35-.14.36.036.12zm-.387-.94l-.07.27.422.073.05-.18-.207-.143-.196-.02zm21.392 28.585l-.266-.24-.615-.09-.548-.247-.928-.844-1.04-.692-1.038-.1-1.354-.524-.775.086.105-.373-.334-.435-1.127-.606-.825-.383-.49.37-.04-.707-1.14-.314-.19-.25.47-.49v-.493l-.35-.176-.313-1.302-.148-.44h-.222l-.09-.31-.633-.738-.44-.268-.21-.12-.64-.32-.49-.07-.068.118-.705-.313-.21-.298-.28-.427-.235-.063.02-.372-.314-.568-.352-.363-.19-.23-.3-.055-.02-.597-.385-.475-.425-.176-.14-.383.476-.096-.634-.172-.646-.145-.043.177-.313.14-.382-.21-.25-.42-.532-.102-.432-.16.016-.248-.266-.505-.316-.133-.088-.55-.193.15v.37l-.613.074-.056.543.103.316-.154.48-.217-.038-.082-.64.246-.333.07-.374-.105-.385.286.026.027-.162.145-.216-.087-.228-.155-.102-.27.24-.21.09-.39.23-.33-.192-.052.122-.264-.108-.286.236-.174.56-.038.246h-.177l-.373.35-.19-.12-.12-.26-.085-.282-.163-.212-.193-.127.018-.062-.192-.146-.154.146-.23.017-.18.105-.17-.06-.07-.223-.05.035-.124-.11.035-.14-.09-.332-.11-.382-.08-.378-.017-.435-.018-.137.018-.22.098-.14v-.188l.09-.28.074-.042.05-.333.018-.195.09-.295.09-.264.124-.195.035-.28.053-.14.032-.053-.032-.25-.088-.173-.035-.21-.073-.2-.036-.045-.12-.176-.07.01-.07-.026-.067-.113-.073-.09-.057.06-.12.013-.124-.087-.107-.155-.048.02-.018-.09-.074-.04-.088.073-.018-.045-.058-.146-.05.09-.053-.194.122-.215.054.02.088-.142.14-.33v-.07l.106-.236v-.115l.14-.268.06-.193-.06-.036.033-.104.057.036.015.225.23-.49.14-.26-.02-.16.212-.39.28-.3.122-.314v-.2l-.194-.062-.208-.2-.3-.052-.228.053-.11.157-.225.565-.177.352-.25.157-.152-.02-.197-.024-.173-.097-.232.016.02-.366-.117-.402.052-.42.102-.442.09-.637.152-.563.096-.39.123-.402.14-.3.41-.877.222-.417.336-.513.072-.247.152-.338.215-.435.19-.25.233-.19.296-.09.408-.3h.227l.124.063.053.29.208.082-.033.478.143.16.153-.052.038.16.07-.038.038-.18.142-.26.054-.2.14-.025.19.084.178.244.32.127.064.268-.035.382.036.074.424-.128.068.175-.052.69-.104.42-.26.406-.076.284-.09.592-.086.683.053.23-.07.316.128.177.142-.035.24-.37.126-.263.21-.44.177-.88.14-.277.073-.565.176-.62.174-.487.283-.44.35-.32.337-.212.56-.24.16-.2.282-.154.194.037.418-.283.44-.013.478-.396.316-.66.09-.248-.073-.088.35-.6-.1-.314.16.205.173-.434.23-.247-.284.538.02.32-.357.386v.038l.5-.424.24-.193.14-.246-.015-.153.143-.354.014.194.06.07-.073.176.524-.39.35-.42-.086-.075.216-.12-.06.075.216.082h.58l-.016-.156-.566-.084.394-.058.203.04.178.03.318-.013.154.083.3-.02.14-.17-.02-.18-.104.25-.138-.072.088-.375.21-.332.142-.102.417-.294.476-.06.5-.088.572-.18.06-.21.457.057.595.154-.947.327-.302.523.247.125.688-.323.524-.14 1.078-.122.705-.28-.127-.28.226-.46-.787.586-.67-.09-.303-.44.16-.49.318-.67.578-.3-.102-.372-.543-.107-1.042.253-1.056.577h-.35l.758-.41 1.018-.593.6-.124.58-.313.372.068.49.155.667.316.668.07.758-.368.72-.055.408-.138.385-.164.372-.646-.02-.253-.23-.134.18-.51-.108-.23-.42-.265-.067-.386-.18-.408.386-.3.18-.715.19-.76.192-.492-.383.18-.76.47-.65.14.088-.35-.143-.158.53-.633.417-.4-.367-.18.145-.215.036-.363-.02-.235-.3.05-.154-.12-.18-.263-.242.036-.81.727-.408.433-.81.37-.157.473-.295.498-.325.332-.484.282-.622.228-.598.053-.125.352-.686.88-.63.476-.352.074.155-.67.426-.663.476-.548.49-.41-.14-.153-.277-.23.047-.32-.03-.273.154-.305.07-.28v-.403l-.3-.075.41-.386.505-.458-.05-.228.716-.475.53-.264.812-.334.63-.192.213.068.402-.248.357-.09.207.11.546-.162.317-.137.632-.234.35-.153-.052.19.26.054.694-.124.313-.154.23-.255.42-.134.3-.178.14-.263-.09-.162-.104-.12-.686.372-.64.24-.583.16.335-.304.51-.225.3-.3-.633.14.666-.312-.017-.21.385-.09.652-.42.25-.195.018-.144-.564.128-.756.312-.19.194-.352.284-.688.286-.055-.09-.562.207.63-.297.122-.228-.157-.014-.418.193-.056-.122-.172-.09.242-.267-.09-.066.352-.247.14-.125-.083-.034-.04-.09-.247.04-.275.19-.353.058.406-.25-.104-.037-.057-.186.174-.203.318-.01.367-.227v-.058l.164-.156.33-.262.372-.194.106-.11-.178.042-.032-.072.525-.156-.373.03.72-.283.13-.068-.307.068-.08-.015.336-.123-.016-.07-.147-.038.235-.122-.06-.035h-.157l.198-.086.477-.18.385-.16.23-.08.385-.147.105-.053.173-.064.353-.125.496-.152.102-.06.356-.088.102-.016.314-.105h-.032l.354-.075.37-.085.017-.033.192-.053.16-.058.14-.033v-.017l-.163.032-.068.017h-.068l-.072.022-.068.02-.068.017-.072.017-.07.02-.09.02-.07.02-.065.013-.074.013-.07.025-.07.02-.07.012-.07.016-.07.016-.072.02-.066.023-.072.017-.088.016-.068.017-.07.018-.074.016-.07.018-.072.018-.074.016-.063.02-.07.013-.07.026-.08.01-.066.03-.07.018-.068.027-.074.013-.07.016-.074.017-.06.02-.092.035-.07.02-.076.015-.065.02-.07.02-.07.02-.07.03-.07.02-.074.01-.07.023-.068.02-.073.028-.074.018-.07.023-.07.017-.062.033-.075.026-.074.012-.07.017-.068.034-.067.02-.068.02-.074.033-.07.02-.064.016-.072.037-.074.017-.068.017-.07.037-.07.02-.07.02-.068.028-.068.02-.072.033-.056.02-.065.02-.07.035-.067.016-.075.038-.073.013-.063.023-.07.035-.07.015-.082.027-.068.02-.072.032-.073.02-.066.035-.07.016-.072.04-.07.02-.055.03-.067.02-.07.033-.07.02-.067.036-.07.017-.07.03-.07.022-.07.034-.07.02-.063.034-.064.032-.068.02-.074.032-.07.02-.072.04-.067.03-.065.02-.057.033-.07.035-.07.02-.07.032-.068.017-.072.042-.068.032-.056.018-.07.032-.066.038-.07.033-.07.014-.07.043-.053.027-.073.022-.07.032-.07.036-.07.037-.068.016-.053.037-.05.016-.174.09h-.006l-.017.004-.34.166-.172.088h-.006l-.003.007-.1.054-.95.476-.37.207-.298.18-.19.1-.615.353-.67.404-.524.32-.342.194-.276.192-.298.193-.58.406-.476.314-.424.317-.318.214-.563.417-.473.407-.336.26-.76.694-.016.014-.473.408-.46.39-.1.064.56-.492.353-.356-.09.075-.28.243-.492.427-.706.613-.44.403-.44.407-.4.39-.403.42-.406.42-.357.37-.328.368-.387.425-.48.56-.21.27-.087.102-.706.877-.54.72-.23.34-.107.116-.14.236-.14.208-.09.138-.12.18-.09.158-.275.44-.22.33-.383.604-.335.548-.26.452-.27.455-.12.272-.302.596-.155.26-.105.14.05-.103-.03.03-.23.477-.106.267-.104.212.032-.06-.176.428-.104.28-.18.37-.223.457-.088.267-.157.455-.18.493-.176.445-.02.046.105-.157.053-.106.14-.364.128-.377.017-.12.157-.334.156-.35.143-.34.314-.65.18-.44.127-.26.104-.224.228-.428v-.03l.12-.23.04-.07.082-.177.283-.565.178-.317.282-.45.2-.32.132-.213-.133.288v.024l-.18.372-.14.228-.3.53-.3.548-.102.206-.198.39-.187.44-.043.16-.227.47-.174.427-.07.244-.2.35-.08.194-.125.44-.175.492-.213.7-.26.824-.13.404-.103.28-.105.375-.085.23-.072.12-.066.208-.058-.013-.104.375-.128.523-.068.614-.072.388v.44l.035.156-.035.233-.016.503.035.546.053.264.036.508.07.305.053.313.107.055.21-.087.102.05.104.354.037.334.036.99.052.402.07.224.14.144.09.222.034.215.126.162.062.226.075.14.16.124.05-.142.074.126v.255l-.017.044-.037-.146-.055.09.073.426.067.293.022.28.084.392.05.28-.088.1.053.143-.07.22-.026.206.013.156.086.138.037.25.09-.126.015-.23.056.184-.017.226.09.156.102.213.073.234-.02.168-.056.096.056.187.14.267.03.14.044-.16.14.09.066.136.122.133.038.335.12.105.057-.104.016.455.16.07.07-.09.105-.03-.126-.477.06-.12.08.015.158-.1.104-.22.18.032.16.304.032.28.088.088-.12.14.05.422.11.28.106.46.014.628-.102.143.03.687-.105.377.144.238-.16.298-.19.356-.2-.033-.086.193v.37l-.14-.02.055.245-.27.147-.21.037.038.3-.14.384-.07.38-.108.044.07.667-.07.158.23.418.124-.253.087.357-.16.408-.26.274-.07.425.23.737-.07.248.28.42.314.602.19.56.197.388.566 1.516.598 1.402.51 1.023-.022.156.298.616.406.547.92 1.015 1.014.97.106.28.543.532.37.898.354.995.372 1.27.345 1.124.442 1.057.09.582.404.682.127.392.563.804.3.69.28.683.347.69-.118-.054.44.544.46.476.103.244.614.76.473.563.266.14-.4-.48.313.214.687.777-.495-.28.598.617.125.207.564.3.04.15.33.302.824.62.44.278.213.163.386.247.596.33.615.334.403.203-.282-.13-.683-.352-.32-.174.898.51.532.26.595.3.35.14.333.154.197.09.156.058h.09l-.09-.07.322.142.242.09-.068-.11-.53-.198-.653-.294-.473-.284-.312-.174-.268-.104-.085.016.226.178.072.07-.186-.084.097.025-.385-.26h.09l.032-.034.264.104.164.057-.46-.25-.55-.37-.086-.103.123-.025-.28-.314.178-.066-.248-.264-.405-.2-.632-.362-.198-.248.09-.105.34.127-.11-.173-.32-.393.072-.138.27-.025-.303-.24-.107.074-.372-.216-.397-.42.053-.07.506.283.372.07.143-.094-.245-.223-.16-.3-.28-.284.512.176.807.16.526-.07.092-.46-.104-.206-.41-.268-.12-.297-.83-.568-.104-.223.426.336.336.05.54.315.247.02.422.173.422-.14.072-.24.226-.218.018-.398.262-.16.32-.298.28-.775.3-.215.05-.23-.07-.51-.173-.314-.034-.383.347-.465.6-.313.64-.05.382-.19.93-.072.688.088.086-.315.48-.2v-.56l.542-.684v-.798l.192-.213.022-.392.064-.91-.152-1.182.152-.44h.16l.47-.49.393-.69.937-.805.33-.407.244-1.072-.14-.4-.286-.883zM226.457 10.79l.353-.295.35-.324.314-.254.232-.18.19-.176.16-.14.282-.23-.126.086-.35.27-.243.212-.175.14-.32.262-.23.197-.44.418v.015h.002zm11.75 7.197l.16-.14-.16-.055-.442.128-.416.28-.952.844-.526.28.067.21-.376.16-.05.197.755.194.458.07.322.226-.44.233.223.063.76-.432.066.1-.35.492.225.18.217.02.435-.51.054-.425.106-.328-.332.048.35-.417-.297-.274-.264.106-.268-.242.25-.18-.178-.17-.366.138.543-.46.423-.335zM230.8 7.447l-.28.18-.245.155-.15.103.575-.348.1-.09zm9.047 1.045l.188.065.284-.065.085-.054.25-.16.034-.16-.214-.022-.388.197-.24.2zm-9.73-.602l-.016.013.022-.017-.005.004zm-.156.11l-.355.244-.067.05.565-.39-.142.096zm6.664 1.793l-.19-.145-.39.126-.125.143.09.07.513-.127.1-.067zm1.14-1.478l-.595.317-.51.297-.407.107.23.086-.3.265.51-.07.46-.125-.198.23.108.225.335-.054.067-.19-.153-.037.263-.192.018-.228.053-.228.09-.145-.16.02.244-.19-.055-.09zm6.85-5.106l.054-.083-.406-.02h-.457l-.212.102.052.072.262.035v.04h.245l.55-.11-.09-.038zm-7.974 7.127l.07-.107-.05-.058-.247.096-.055.033-.12.14.03.09.372-.193zm8.836-6.282l.19-.104.032-.03-.016-.07-.277.09-.27.082-.14.074.212.03.27-.07zm-2.502.692l-.14.134.038.11.296-.07.192-.103.195-.128-.247-.018-.334.075zm2.234-1.093v.104l-.19.12-.036.11.277-.11.318-.104.212-.172.086-.105-.28.05-.158.107h-.23zm.282-.317l.037-.04h-.21l-.108.022-.017.07.14.035.157-.088zm-.774.03l-.25.11.212.05.215-.03.124-.09-.07-.05-.23.01zm2.534.582l.226.103.035.11-.312.016.016-.057-.103-.104-.318.123-.19.143-.253.072-.26-.026-.3.057-.03.122-.34.19.126-.206h-.088l-.46.177-.26-.014-.32.1.09.102.017.108.314.104.036.196.617-.054.142-.075-.156-.044.116-.072.304-.017.28-.088.302-.017.295-.06.228-.157.16-.017-.033-.088.294.073.18-.02.268.02.598-.164.277-.034.51-.102-.16-.054.174-.036.282.02.403-.073.14-.07v-.105l-.07-.068-.118-.068-.088-.053-.074-.05-.262-.04.056-.036-.18-.05-.142-.018h-.174l-.385.068.143-.068-.02-.036-.3.02-.194-.02-.053-.04-.196-.012-.23.072-.158.084-.246.106-.16.123zm-2.377.353l.04.016.083-.017.093-.07-.073-.09-.18.07.036.09zm-10.407 13.723l.136.363.333.303.18.037.067-.11-.212-.336-.35-.273-.154.016zm11.292-13.95l-.23.122v.105l.14.074.618-.09.28-.02.135-.125.41-.156.052-.09.09-.1.315-.144-.104-.075-.14.06-.09-.02-.23.036-.333.053-.32.09-.19.102.07.068-.21.04-.262.07zm-2.994.122l.353-.055.333-.108.036-.068-.14-.018.268-.087.33-.09.092-.067h-.27l-.685.244.056-.102.437-.194.284-.215h-.197l-.666.074-.158.104.02.247-.28-.055-.252.07v.09l.3.067.14.16zm1.41.07l-.104.02v-.072l-.285-.018v-.054l-.56.16.105.074-.426.118-.07.088.128.074.542-.147.37-.105.3-.137zm-2.835 1.09l.23-.216.362-.068.2-.084-.16-.07.107-.127-.39.037-.42.23.015-.156-.215.065-.456.374-.24.14v.086l.327.013.64-.224zm-1.392-.14l.493-.193.675-.277.277-.162.107-.106-.126-.02-.72.268-.28.064.685-.28.225-.124-.364.04.365-.195-.17-.09.312-.05.155-.106-.35-.07-.263.032-.495.085-.25.163-.027.105-.2-.07-.28.1-.053.114v.14l-.19.187-.106-.045.074-.128-.096-.068-.052-.036-.582.277.057.044-.214.172-.33.152.03.128.107.156.25.073.053.072-.14.21-.057.192.263-.09.23-.152.123.104.3-.104.26-.262.302-.253zm-.912 1.176l.23-.157.103-.086.087-.09.14-.178-.332.09-.25.02-.24.23.122.03-.123.2.262-.058zm2.145-1.666l.48-.09.138-.09-.036-.087-.102.02-.48.248zm1.073-1.043l.123-.157.215-.123.033-.174-.472.157-.405.035-.46.073-.243.032-.513.245-.315.125.19.09.297-.07.44-.055.427.035.142.04.312-.142.23-.11zm-.58 1.827l.212.02.706-.153.033-.18-.09-.126h-.245l-.316.088-.352.128-.562.266.032.083.583-.128zm1.02 1.61l.225-.16.107-.232.02-.297-.352.07-.404-.02.423-.188.476-.424-.496-.02-.602.194.34-.248.472-.14-.383-.073-.335.057-.673.21-.63.315.103.088-.385.072-.16.177.055.16.035.242.28.32.304.064.245-.064-.11.18.09.085-.21.283-.23.048.11.267-.04.28-.123.176-.192.194-.757.3-.332.173-.146.16-.422-.09-.33-.135-.53.243-.05.208.596.163.154-.122.02.313.02.338-.23.103v.313l.18.424.438.407.122-.18.058-.37.12-.487.154.545.18.225.42-.313.32-.494.034-.144-.073-.297.074-.316.313-.247.316.033-.14.513.07.284.932-.41.386-.282-.298-.12.147-.478-.2-.187-.108-.405.582-.07.316-.424.053-.193-.153-.28.188-.282-.385-.033zm.593-1.15l-.223.107-.21.23v.03l.21.02.104.07.107.07.157-.108.14-.26-.175-.16h-.11zm.888-.316l.223-.124.146-.154-.088-.108-.23-.07-.26-.038-.06-.088-.052-.084.126-.086.088-.11.262-.09.177-.103-.11-.103.18-.118-.032-.11-.3.063-.176.13v.124l-.254.162-.332.114-.352.163-.055.228.037.126.16.106.352.1.03.108.284.02.234-.058zM233.286 19.89l-.037.226.317.39h.158l.326-.2-.347-.083-.225-.162.054-.313-.246.144zm-12.582 16.2l.266.083.3.02.088-.138-.21-.423-.287-.154.09-.197-.173-.243-.124-.04-.14-.438-.158-.582-.07-.228-.357-.084-.05-.313-.23-.416-.243-.158-.264-.21-.104.044-.246-.078-.206.035-.18.076-.163.19-.226.12.09.144.172.017.11-.134.124.063.348-.224.3.224-.192.103.07.202.385.345.058.192.242.35.21.088-.03.443.054.266.208.16.108.262-.37.26.56.193.244.18zm60.6-9.873l.23.236.21.018.23-.425-.038-.05-.082-.106.082-.387-.212.328-.264.092.036.193h-.036l-.156.102zm-14.493-9.95l-.053-.51-.277-.25-.41.278.18.232.56.25zM222.024 38.43l.28-.428.18-.032.032.194.178.018.11-.09.14.09.226.033.175.23.25-.23-.18-.334-.19-.105.07-.198-.25-.086-.012-.28-.125-.02-.217-.28-.332-.145-.085.11-.34-.26-.24-.14-.143.152.227.233-.085.264.127.383-.2.086-.298-.17-.35-.268-.11.21.163.318.23-.052.246.155.21.038.247.23-.022.212.088.16zm15.112 41.962l-.07.054-.382-.14-.2.054.337.177.125-.04.3.144.366.03-.017-.07-.458-.21zM269.06 23.65l-.206.304v.262l.26.42.282.112-.032-.548-.303-.55zm-5.765-5.578l-.55-.046-.21-.234-.472-.63-.32-.068-.578-.655-.055-.052h-.438l.19-.546-.05-.456-.42.03-.374.107.213-.632-.42.09-.315-.02-.178.48.014.578.288.28.174.566.14-.3.18.16-.074.263.142.157.527.054.018.02.387.33.033.356h-.645l.013.38.335.32-.418.232.193.227.72.032-.372.18-.507.702.28.108.26-.265.44.027.23-.31.246.088.705-.243.597-.057.283-.372-.283-.278.162-.208-.09-.395zm15.057 9.305l.58-.24-.032-.212-.195.16-.04-.128-.33.054-.317.143-.35-.157.05.3.577-.017.057.097zm-25.21-18.044l-.354-.016-.65-.04.32-.228-.035-.298.26.245.18.18.44-.07-.073-.354-.28-.284-.294-.103.133-.104.425.178.016-.194-.248-.28h.28l.324-.074.066-.144-.23-.153.44-.037-.247-.352.195-.032-.03-.338-.338-.194.298-.118.248-.02-.195-.25-.014-.402.1-.228.14-.244-.28-.02.388-.054.068-.09.426-.245-.105-.14-.336-.057-.513.146-.297.12.14-.196-.068-.117-.21.102-.28-.128-.382.025-.023-.07h.935l.173-.126-.51-.245-.633-.072h-.3l-.19.09-.28-.057-.46.14-.16.123.053.19-.088-.118-.102-.053-.07-.145-.442.123.04-.106-.263-.046-.32-.026-.312.026-.198.12h-.158l-.67.106-.282.074.057.17-.23.09-.6.03h-.637l-.227.112-.02.19.305.233-.254-.057h-.438l-.176.245-.034.147.335.084.353.068.242.107.107.3-.193.14.036.173-.264.44-.16.285-.03.173-.603.318.068.143.254-.02.03.154.12.34-.33-.193-.195-.04-.28.22-.263.277.138.19.25-.015.18-.06.38-.1-.33.334-.23.154-.49.108-.67.454.018.196-.373.317.02.494-.282.44-.086.333.067.703-.107.53.125.332.654.108.262.493.49.034.42-.495.353-.4.073-.425.7-.336.317-.32.175-.35.388-.262.474-.065.44-.086h.217l.73-.285.57-.477.332-.164h.3l.85-.118.786-.336.713-.377zm41.147 21.727l.01.046-.034-.103-.382-1.193-.28-.774-.3-.792-.23-.568.192.69-.02.074-.313-.514-.102-.334-.11-.195-.242-.313h-.088l-.23-.4-.262-.34-.02.493-.106.354-.065.367-.29.18-.207.068-.192.14-.44-.7-.122-.038-.074.28v.507l-.31.022-.446-.32h-.277l-.46-.49-.598-.722-.072.197-.242-.088.05.315-.16.066.196.252.05.17.337.426.372.51.178.053.16.192.28.16.14.26.067.23.146.21.133.127.13.192.106.134-.236-.468-.1-.405.036-.125.15.162.18.37.124.437.16.233.02-.077.084.172.105-.26.16-.138.127-.11-.072-.582-.074-.578-.09-.53-.07-.273.06.03.1.3.04.145.262.493.28.35.18.14.138-.076h.123l.228.287.124.178h.067l.07.155.1.47.06.22.037.292.12.55-.07.046.033.22.107.367.177.42v.1l-.047.09-.02.396.082.345.02.192-.103.13-.02.263.086.26-.022.304-.114.05-.056.368-.09.144-.084.333.05.333.052.246-.14.51-.28.65-.103.67-.106.14-.092.018-.09.405-.152.267-.233.212-.05.082-.037.23-.05.11-.02.208-.16.085-.07.16-.23.107-.16-.375-.07-.386-.1-.174-.18-.477-.172-.226.07-.087-.127-.3.017-.16-.104-.295-.125-.27-.14-.155-.105-.268-.248-.152-.33-.48-.26-.522-.39-.352-.195-.04-.438-.528-.21-.468-.13-.424-.474-.65-.266-.193-.243-.06-.265-.33-.035-.16-.247-.313-.153-.104-.353-.443-.447-.457-.383-.392-.178.09-.102-.383-.09-.25-.07-.298-.05-.09.017.322.143.547.036.403-.037.16-.217-.187-.298-.223-.683-.857-.022.07.46.667.528.58.705.95.28.317.28.335.616.613-.034.16.18.44.647.42.104.128.356.61-.058.178.285.687.367.774.195.108.28.16.425.722.26.595.28.23.622.4.28.305.26.294.16.182.21.118.104.176.056.3-.158.28.178.102.12.075.122.245.192.213.158-.106.25-.373.3-.312.19-.39.124-.158.072-.19.137-.138.088-.092.09-.192.13-.192.047-.337.087-.09.054.193.05.424.07.366v.302l.054.827v.878l-.034 1.038-.128 1.213-.156.965-.283 1.2-.28.792-.436.998-.302.727-.368 1.07-.09.428-.09.207-.245.407-.104.35-.126.122-.086.514-.13.344-.098.497-.18.3-.246.945-.016.372.208.127v.178l-.158.447V55l-.067.332.054.352.052.58.1.068v.27l-.138.663-.068.568-.227 1.02-.02.28-.227.51-.262.525-.337.51-.404.42-.493.51-.653.882-.174.19-.42.56-.212.215-.172.46.012.368-.057.314-.063.176.086-.057-.246.584-.174.296.03.07-.157.268-.243.28-.41.33-.6.533-.28.278-.07.215h.09l-.18.318-.298.435-.278.482-.23.3-.403.38-.125.11-.317.333-.264.313-.44.48-.753.696-.472.414-.46.325-.55.338-.228.106-.14.15h-.21l-.28.182-.417.053-.3.132-.177.025-.568.333-.435.173-.39.268-.23.07-.104-.122-.14.035-.09-.156-.067.068.013-.105.145-.28.016-.308.197-.115.175-.39-.09-.38-.07-.37-.088-.582-.228-.32-.067-.33.067-.513v-.35l.09-.83.193-.67.02-.293-.16-.2-.18-.424-.14-.63-.033-.353-.35-.495.052-.456.014-.383.178-.55.3-.617.085-.277.286-.615.176-.28.406-.492.243-.336.13-.493.02-.352-.163-.192-.12-.37-.107-.37.048-.144.217-.297-.14-.613-.092-.425-.28-.35.07-.163-.07-.19-.145-.472-.474-.615-.626-.584-.408-.49-.387-.656.018-.246.14-.237.157-.533.146-.547-.126-.088.21-.844.07-.56-.26-.44-.306-.067-.136-.303-.177-.07v-.197l-.667.37h-.248l-.244.2-.53.066-.37-.386-.246-.49-.49-.41-.514.072-.598.09-.563.16-.545.21-1.074.56-.384.284-.64.278-.632-.144-.312.038-.515-.102-.455.05-.846.192-.493.25-.72.317h-.14l-.188.014-.76-.3-.665-.513-.63-.364-.493-.444-.195-.046-.546-.268-.39-.366-.127-.265-.1-.545-.335-.418-.28-.265-.194-.092-.177-.143-.088-.33-.11-.16-.227-.104-.386-.304-.323-.05-.153-.192v-.13l-.228-.134-.053-.156-.127-.566.09-.332-.297-.567-.37-.262.313-.143.352-.532.158-.384-.068-.404.19-.37.07-.705-.09-.724-.082-.363.052-.375-.192-.348-.37-.32.02-.31.03-.34.266-.207.207-.386-.047-.25.225-.53.35-.47.23-.122.16-.44v-.39l.225-.472.443-.28.365-.755h.02l.315-.304.6-.102.478-.533.3-.21.47-.633-.227-.892.178-.617.037-.39.346-.51.568-.37.417-.32.306-.773.1-.435.442-.04.41.284.54-.105.632.104.246-.017.498-.444.58-.194.3-.314.49-.277.9-.25.9-.18.292.07.424-.35.56-.09.263.123.353-.103.473-.37.39.02.087.35.354-.333.09.12-.143.384.088.32.246.147.125.612-.253.402.212.354.29-.035.24.32.233.066.684.12.208-.104.48.02.772.173.44.57.507.034.81.116.653.212.18-.224.12-.385-.3-.516.016-.366.234-.405.28-.176.683-.036.28.25.16-.037.194.07.477-.052.206.188.584-.187.476.033.51.07.226.03.23-.328.083-.247.34-.2.313-.012.246.28v-.248l.37.033.31-.082.11-.25v-.26l-.053-.033-.057-.357-.153-.53-.04-.192-.132-.593-.09-.546v-.015l-.3-.5-.07-.3-.28-.222-.02-.304-.16.145-.37-.015-.03.476-.5.28-.487-.23-.404.134.053.307-.232.173-.543-.212-.42.16-.56-.58-.48-.266-.07-.562-.422-.227.11-.758.56-.23-.12-.52.715-.185.16-.56.284-.316.505-.25.83.198.58.036.28-.265.265-.09.105-.472-.16-.28-.354-.372-.312-.142-.192.016-.248-.12-.705-.314-.49-.068-.494-.235.122-.193-.138-.594-.335-.143.19-.438-.11-.11-.156.2-.175.153-.04.268-.245.154-.067.318.28.37.245.07.28-.175.09.248-.24.248-.16.51-.263-.057-.13-.298-.472-.035-.02-.144.16-.316-.195-.09-.577.038-.197-.21-.226.192.104.37.037.53.123.153-.09.186-.148-.022.38.776-.022.313.147.498.312.31.19.232.442.088.015.173-.418.195-.06.247-.114.44-.287-.243-.07-.147-.25.06h-.24l-.393.31.462.282-.14.158-.234.074-.385-.264-.013.16.293.37.357.248-.088.18.38.237.302.127.198.368-.48-.067.282.297-.242.157.44.548-.307.09-.485-.198-.408-.492-.262-.42-.312-.25-.41-.32-.107-.172-.102-.04-.07-.14-.356-.152-.173-.3-.17-.46-.04-.21-.12-.087-.128-.017-.21-.18-.247-.084-.525-.138-.353-.177-.49-.106-.58-.39.052-.063-.32-.213-.104-.213-.332-.056v.304l-.23-.18-.092-.228.072-.09-.386-.013-.245.302.16.3.03.19.282.3.563.245.458.477.735.417.356-.087.176.126-.072.16.513.135.405.123.542.25.106.12.02.248-.392-.248-.438-.018v.477l.438.158.09.372-.173.09-.02.612-.173.107-.09-.216-.032-.364.032-.18-.333-.33-.284-.32-.23-.038-.265-.24-.348-.072-.302-.21-.372.02-.482-.234-.604-.33-.456-.325-.404-.61-.265-.04-.46-.162-.19.13-.155.355-.178.063-.3.44-1.036-.033-.65.313.07.41.14.387-.368.494-.634.227.018.227-.23.42-.09.567.32.372-.246.344-.032.46-.392.18-.28.58-.742.065-.54.04-.32.283-.173.282-.298-.04-.248-.213-.225-.4-.57-.07-.21.208-.313-.09-.3.112.036-.565-.125-.424-.26-.05-.16-.246-.02-.457.193-.265v-.285l.052-.408-.05-.297-.138-.23-.06-.227-.03-.49-.265-.267.684-.527.654.07.7-.052.58.067.42-.067.85-.07.173-.427-.244-1.294-.687-.638-.44-.28-.797-.17-.154-.463.577-.197.83.09-.354-.702.507.228.92-.59-.055-.517.336-.175.302-.157.157-.193V17.7l.453-.32.338-.033.016-.14.304-.088.137.12.125-.333-.195-.19-.19-.32-.298-.298-.317-.563-.023-.16.023-.198.278-.084.04-.16.19-.21.162.28v.192l.115.16.25.034.037.228-.14-.033-.038.44.25.263.12.216.44.065.105.217.318-.184.123-.205.547.16.28.134.14-.205.387-.388.3-.282h.403l.123.143.336-.07-.104-.27.312-.294-.4-.444-.3-.404-.104-.37.123-.244.56.317.227-.072-.277-.404-.228-.31-.053.082-.336-.122-.28-.28.226-.247.266-.18h.354l.246-.104.016-.37-.473-.142-.425.192-.278.32-.354.23-.385-.23-.403-.087-.372-.494-.508-.4-.14-.304-.056-.347.02-.654.052-.14-.23-.178-.523-.104-.247.23.086.364.313.26-.05.484-.143.523.37.736.473.3.514.213.175.655-.23.192.51.916.16.542-.44.035.072.473-.39.112-.42-.496-.67-.567-.716-.72-.427-.28-.293.723-.41.206-.61-.206-.423-.56-.746-1.18.108-.37.527-.55.232-.593-.02-.74-.14-.986.067-.41.035-.66.228-.287.337-.052-.14-.407.334-.063.188-.18.885.088-.058.18.515.17-.02-.195.58.127.543-.09 1.22.158.382.126.406.227.156.3-.09.23-1.174.013-.052.11.682.174.262.196.58.42.41.02.28.052-.248-.214-.352-.138-.105-.192.76.053v-.158l-.545-.236-.23-.56.16-.055.33.055-.35-.298-.476-.162-.303-.246-.47-.157.528-.11.403.16-.045.145.326.19.318.068.035-.21-.383-.243-.09-.317-.28-.548.086-.05.333.26.16-.05-.18-.176.107-.156-.21-.23.47.09-.397-.284-.444-.087-.21-.145.31-.14.255-.017.842.017-.354-.188-.37-.06-.153-.05-.073.067-.336-.157-.544-.156-.228-.073-.618-.337-.632-.242-.137-.083.158-.13.408.11.574.227.212.036.478.126.964.35.41.045.453.216.988.545.09-.052-.25-.14-.192-.153-.336-.163-.354-.194-.37-.086-.47-.21-.02.066-.39-.108-.716-.277-.554-.09-.485-.26-.508-.126-.02-.03.388.065.67.215.104-.04-.494-.103-.318-.194-.104-.14.322-.033-.547-.09-.733-.157-.215-.144-.088-.14-.213-.14-.294-.02-.533-.16-.09-.05-.456-.156-.263-.163-.197-.03-.26-.144.088-.016-.525-.144-.16-.062-.28-.045-.35-.07-.46-.1.034-.05.288.05-.146-.088.267.02-.23-.057-.317-.1v-.087l.09-.02.297.02.3.07.63.133.266.042-.09-.042-.07-.043-.228-.06h.266l-.194-.032-.315-.068-.404-.13h.173l-.65-.15-.317-.04-.296-.07-.284-.054-.09-.035h.14l.282.035h.02l-.19-.035-.55-.086-.096-.016h.062l.07.017.08.016h.073l.068.018.073.015h.073l.067.023.085.016h.07l.073.02.068.016h.07l.07.018.067.02h.09l.066.02.075.018.072.017h.067l.07.017.07.02.067.02h.09l.07.02.07.015.07.016.068.015h.07l.07.026.07.014.09.02.07.017h.076l.065.018.068.017.074.022.066.018.07.017.07.016.09.017h.068l.075.022.066.02.07.017.07.016.07.02.07.02.07.02.07.013.087.013.07.025.07.022.07.01.07.017.07.016.07.02.066.022.073.017.073.017.065.016.07.018.07.02.09.02.07.02.072.015.066.02.07.014.076.027.062.015.07.03.072.018.072.027.074.013.064.017.068.016.072.02.074.035.063.02.07.016.07.02.075.02.07.02.068.032.072.017.072.017.064.022.07.02.087.028.073.02.073.02.067.018.074.033.064.025.075.013.063.018.074.034.07.02.072.02.07.034.05.02.072.016.07.037.062.017.08.016.067.036.072.02.07.018.066.03.07.02.077.032.063.02.07.02.072.035.072.016.072.04.066.014.065.02.075.036.073.016.067.035.064.022.074.032.07.02.05.034.075.017.073.04.066.018.07.033.07.018.07.033.07.022.067.034.07.017.073.033.054.02.065.034.075.02.072.038.065.03.067.022.07.032.076.02.063.038.06.03.07.02.068.033.07.036.068.022.07.03.07.018.054.04.067.034.078.017.07.034.064.04.07.032.052.013.072.044.064.027.072.02.074.034.07.037.05.037.074.017.067.037.07.035.07.038.058.015.063.03.07.044.068.025.074.044.05.013.074.03.07.044.067.032.07.033.053.04.073.015.066.036.068.037.06.034.065.032.074.04.065.03.055.04.07.02.07.03.07.038.05.035.072.032.067.042.058.03.066.033.074.038.07.033.05.037.067.032.074.04.052.034.068.035.07.038.053.032.074.033.068.04.054.03.068.038.07.036.054.033.068.033.07.04.054.03.073.04.07.034.05.038.07.036.07.03.053.053.07.037.057.032.063.036.07.032.058.04.065.034.056.03.067.056.072.036.05.034.068.04.054.03.074.04.07.047.052.042.07.032.05.036.07.033.06.057.07.033.063.034.06.036.07.05.043.038.078.033.06.033.062.058.054.032.074.04.052.033.068.053.06.036.063.036.053.05.074.033.05.037.07.053.06.036.068.035.045.054.074.035.055.034.07.05.053.033.05.036.07.05.053.04.068.05.058.04.073.03.047.058.07.034.054.057.053.03.075.033.05.055.07.035.022.035.028.02.057.032.064.06.058.026.033.04.043.03.045.022.035.04.042.022.048.026.04.038.048.04.02.012.065.048.06.038.035.042.03.02.054.022.055.056.052.035.068.054.057.035.05.05.07.056.055.033.054.055.07.036.053.054.05.037.056.052.068.05.1.003.052.048.055.038.07.052.057.053.048.037.01.018.08.058-.035-.02.07.05.056.04.047.048.052.054.073.035.055.056.052.05.057.038.047.05.072.052.052.03.052.06.054.054.052.053.072.037.056.05.05.05.056.05.05.045.053.045.075.058.048.05.057.04.052.05.05.054.055.055.057.033.05.05.073.055.05.053.055.052.054.06.05.03.052.052.057.05.056.056.047.054.05.05.06.036.05.056.057.05.055.05.064.06.052.05.056.055.05.047.06.04.05.05.056.058.05.05.052.053.055.05.053.058.055.05.054.052.054.054.05.053.038.053.052.05.052.06.057.05.05.052.056.054.05.052.056.036.06.053.044.056.055.05.053.07.056.057.032.047.06.058.046.05.05.055.06.05.05.053.056.054.052.053.034.053.053.06.057.05.053.054.05.045.055.057.036.052.055.055.05.07.05.05.055.057.035.048.056.053.05.056.052.05.04.055.05.074.053.05.056.054.054.05.03.054.06.054.048.052.042.072.048.05.055.057.05.05.04.052.05.07.056.052.028.057.057.055.052.048.038.07.05.058.057.05.034.054.055.05.053.073.036.05.054.054.03.05.056.077.05.052.04.045.05.074.038.054.052.058.052.052.033.068.053.05.04.054.048.072.04.052h.05l.053.063.033.06.05.057.037.045.052.072.038.05.05.056.036.073.054.057.034.063.057.056.032.056.053.068.037.055.055.046.035.072.033.057.053.07.035.05.05.052.04.07.05.057.038.07.032.05.054.055.038.07.05.052.033.072.038.052.05.07.038.05.037.052.053.073.033.048.037.073.053.055.037.072.03.05.054.07.037.058.035.07.054.05.033.072.033.05.035.07.06.053.03.068.03.06.06.07.03.058.04.063.033.05.004.015.033.04.037.056.014.016.037.075.033.05.034.07.034.057.055.064.032.07.037.05.034.07.033.06.05.07.04.05.033.072.035.07.04.058.028.063.04.06.034.068.055.072.036.052.027.073.04.048.03.07.038.077.035.05.036.07.037.05.037.075.03.066.036.058.037.064.03.07.04.06.033.07.036.067.03.054.04.07.035.063.034.06.037.07.033.072.03.05.04.074.03.068.038.05.032.07.038.072.035.07.035.055.032.073.036.063.037.052.016.066.034.08.035.07.034.052.034.07.04.07.03.05.038.074.02.07.035.067.037.052.03.075.03.064.02.072.04.055.037.073.033.066.035.07.016.07.04.054.028.068.04.07.02.077.028.05.035.07.036.063.018.077.036.073.036.05.017.067.036.072.036.065.033.074.013.073.042.05.015.072.037.072.032.065.018.067.033.06.038.07.02.063.033.07.037.074.02.073.033.074.02.048.037.073.013.067.036.07.035.07.017.074.036.073.018.047.037.068.016.077.04.065.02.074.03.073.02.07.037.07.018.07.03.05.02.068.035.077.017.066.037.07.013.072.024.072.03.075.02.062.04.077.016.07.03.063.022.057.013.065.04.072.012.074.02.07.04.064.013.075.037.074.02.067.017.072.034.068.02.067.02.07.017.073.034.066.015.073.023.07.032.07.018.07.013.078.022.047.038.074.013.07.02.063.02.07.034.072.016.065.02.072.02.07.015.07.04.068.017.077.013.066-.01.08zm-12.935-13.753l-.104.223.304.72.627.403.304.41.762.508.344.213.42.333.108-.032.176.104-.122.174.318.493.123.23.018.21.23.282.37.402.28-.033.332.176.335-.123.156-.44-.09-.16-.328-.383-.44-.635-.267-.073-.28-.435-.12.063-.357-.52h.27l-.02-.334-.383-.226-.32-.284v.284l.32.432-.353-.335-.126-.118-.16-.277-.19-.17-.353-.015-.51-.418-.23-.073-.157-.173.21-.085-.35-.405.053-.21.21-.06-.474-.56-.33-.3-.13.18h-.262l.035.384-.055.264.21.39zm13.07 14.225l-.023-.09.005.037.018.052zm-.12-.402l.02.07.01.022-.034-.117.005.025zm.085.278l-.014-.067-.02-.07-.022-.046.067.22-.01-.036zM259 19.128l.72-.417.2-.568-.16-.414.12-.42-.55-.343-.33.055-.26.3-.497.49.352.602-.264.65.67.065zm-3.657-7.75l.035-.338-.516-.013-.45.26-.392-.127-.453.268-.457-.332-.455.045-.252.327.646.133v.148l-.56.082.668.262-.334.213.913.18.44.066.282-.086.916-.373.35-.4-.383-.312zm17.625 15.828l.473.17-.034-.366-.137-.192-.04-.58-.35.142-.457.176-.604.058.054.363.827.198.268.03zm-3.747-1.743l.28.81.267.16.12-.26h.25l-.25-.9-.472-.424-.16.245-.28.018.246.35zM219.683 36.7l-.065-.05-.18-.032-.09.134.143.377.177.21.16-.074.26.124-.016-.227-.156-.262-.232-.2zm72.635 19.335l-.104.4-.246.573-.09.014-.033.244-.174.396-.32.575-.26.49-.122.092-.146.188-.21.25-.157.12-.164.44-.206.428-.175.555-.072.376-.035.246-.18.395-.314.57-.084.216-.18.188-.228.478-.16.417-.106.405-.206.53-.07.26.122.057.083.034.355-.417.283-.284.436-.79.477-.913.634-1.3.44-.968.358-.833.19-.544.1-.21.11-.283.104-.44.105-.243-.03.313.1-.223.105-.337.02-.25.172-.755.057-.38v-.234l-.015-.21-.163.365zM259.407 5.41l.225.075.042.1.314.02.05-.192-.262-.017-.233-.104-.137.12zm-.353-.05l.09-.197-.686-.122-.28-.068-.14.037.1.104-.16.028-.195-.08-.174.17.39.236.578.223.3.056.03.137.55.145.14-.037-.293-.298.024-.09-.276-.243zm-.81-.632l-.157.153.32.11.152-.04.142.074.386-.017.217-.127-.146-.192-.372-.03h-.35l.068.1-.263-.03zm-34.11 33.752l-.082.088-.04.322.28.063.352.127.174-.144-.046-.178-.235-.144-.403-.134zM257.576.854h-.063l.1.007-.037-.006zm-.143-.01h-.121l.186.01-.065-.01zm.374.03h-.093l.143.013-.05-.014zm.14.018h-.03l.05.003-.02-.003zm.37.033h-.02l.05.02-.03-.02zm-.16-.013h-.05l.092.006-.044-.006zm-.95-.092H257.103l.157.016-.054-.016zm3.305 1.145l-.14.07.02.036.12.017.968.12-.706-.226-.262-.015zm-.51 1.974l.034.08.125-.052.196.068.207.02-.052-.067-.12-.04V3.9l-.034-.072-.09-.03h-.208l.07.066.138.055-.194-.04-.07.06zM258.61.962h-.052l.124.02-.07-.02zM258.3.925l-.1-.006.046.005h.054zm.563.07l-.058-.007.018.006h.04zm-2.093-.212h-.064l.095.013-.03-.013zm.23.02h-.085l.136.01-.05-.01zm2.778 1.372l-.232.06.268.062.582.11.07-.04h.44l.158-.034v-.1l-.23-.088-.58-.026-.475.055zM258.757.982h-.073l.118.006-.045-.006zm4.972 3.252l.334.298.287.24.337.09.473.37.14-.03.458.355.367.154.068.125.37.14.32-.034.317.105.277-.193-.03-.07-.654-.09-.58-.207-.58-.354-.616-.337-.58-.388-.263-.26-.315-.28-.233-.09-.28-.035.07.124.247.156.065.214zm-4.04-3.137l.058.02-.045-.02h-.013zM256.238.82h.107l-.28-.037-.3-.016h-.268l.428.035.313.018zm1.163.143l.277.02h.288l-.196-.058-.353-.013-.67-.07h-.297l.525.07.426.05zm2.138.118l.045.007-.02-.006h-.025zm.237.043h.01l-.037-.007.027.007zm-.444-.07h-.07l-.065-.02h-.07l-.07-.02h-.104l.3.037.172.02-.016-.007-.075-.01zm.3.044h.06l-.106-.01.047.01zm-.135-.016h.045l-.12-.01.075.01zM257.51.855h-.013.014zm-.34-.01l.19.01.27.04.247.015-.372-.055-.317-.012h-.017zm.917.068h.02l-.14-.016.052.016h.067zm-.174 0l-.037-.004.018.004h.02zm-.2-.04l-.1-.012.032.013h.07zm-.4-.03l-.053-.006.016.007h.036zm-.21-.022l-.055-.007.018.007h.038zm-.194-.018h.003l-.116-.006.04.006h.072zm1.003.09l-.057-.006.016.006h.04zm-1.374-.11h.162l-.2-.015.037.016zM225.862 45.2l-.178.162.086.09.476.044.09-.53-.12-.07-.32.02-.033.283z"/></g><g><g fill="#51504D"><path d="M81.57 11.014c.08-1.117.294-1.848.294-1.848.47-1.058.968-1.552 1.484-1.833l.048-.04.047-.007c.882-.556 2.375-.93 4.47-.93h4.666V0H47.024v6.356h4.664c1.987 0 3.402.35 4.275.86 1.07.605 1.54 1.192 1.733 1.648.047.067.24.87.335 2.02.1 1.18.15 2.785.15 4.772v20.33H34.377v-20.33c0-1.954.057-3.513.154-4.645.078-1.116.286-1.847.312-1.847.463-1.058.952-1.552 1.465-1.833 1.038-.608 2.515-.978 4.565-.978h4.734V0H0v6.356h4.712c1.986 0 3.38.35 4.234.854 1.045.604 1.53 1.187 1.718 1.654.054.067.23.87.34 2.02.088 1.18.145 2.785.145 4.772V67.77c0 1.938-.06 3.507-.147 4.63-.094 1.11-.288 1.86-.298 1.86l-.04.056-.004.013c-.41 1.003-.88 1.472-1.404 1.76-1.004.597-2.496.977-4.544.977H0v6.34h45.61v-6.34h-4.734c-1.99 0-3.394-.354-4.224-.863-1.062-.616-1.564-1.204-1.772-1.687-.046-.066-.254-.844-.326-1.994-.118-1.17-.175-2.765-.175-4.75v-22.45h23.803l.003 22.446c0 1.937-.05 3.506-.15 4.63-.088 1.108-.29 1.858-.293 1.858-.47 1.038-.967 1.54-1.5 1.83l-.04.018-.04.033c-.89.528-2.37.924-4.472.924h-4.663v6.34H92.58v-6.34h-4.664c-2 0-3.406-.354-4.276-.863-1.07-.622-1.55-1.203-1.747-1.652-.045-.08-.236-.862-.32-2.026-.103-1.17-.152-2.765-.152-4.75V15.657c-.004-1.954.046-3.512.15-4.644zM139.466 11.014c.08-1.117.274-1.848.295-1.848.48-1.058.956-1.552 1.48-1.833 1.032-.603 2.513-.978 4.57-.978h4.71V0h-45.605v6.356h4.717c1.982 0 3.387.35 4.243.854 1.044.604 1.532 1.187 1.72 1.654.054.067.235.87.328 2.02.088 1.18.14 2.785.14 4.772V67.77c0 1.938-.052 3.507-.14 4.63-.093 1.11-.274 1.86-.3 1.867-.45 1.064-.91 1.533-1.435 1.82-1.014.598-2.503.978-4.558.978h-4.717v6.34h45.604v-6.34h-4.71c-1.995 0-3.398-.354-4.243-.863-1.06-.616-1.554-1.204-1.767-1.687-.04-.066-.252-.844-.324-1.994-.11-1.17-.168-2.764-.168-4.75V15.658c.004-1.954.06-3.512.16-4.644zM218.01.006v6.352h2.11c2.98-.008 5.175.44 6.447 1.104.63.32 1.28.962 1.88 2.213.497.95.922 3.293.904 6.688v32.3c.02 8.28-.8 14.022-2.08 16.854-1.357 3.044-3.3 5.34-5.98 7.06-2.638 1.686-5.855 2.564-9.834 2.57-3.456 0-6.147-.703-8.187-1.987-2.175-1.34-3.59-2.925-4.48-4.82-.812-1.603-1.45-6.235-1.42-13.194V16.362c0-2.223.066-4.03.174-5.328.1-1.312.32-2.216.383-2.336.313-.702.756-1.19 1.553-1.64.47-.313 2.41-.736 5.324-.702h4.13V.006h-45.09v6.37l2.135-.02h.5c2.916-.034 4.86.354 5.39.688.917.488 1.403 1.02 1.696 1.673.056.094.29.97.397 2.27.113 1.33.185 3.125.182 5.375v38.78c.005 6.8 1.06 12.38 3.4 16.717 2.347 4.353 6.343 7.84 11.723 10.458 4.21 2.04 9.77 2.95 16.812 2.965 8.506 0 15.465-1.802 20.712-5.616 4.978-3.634 8.316-7.782 9.722-12.48 1.343-4.505 1.936-11.345 1.936-20.745v-30.08c-.018-3.106.295-5.26.597-5.944.575-1.483 1.305-2.368 2.37-3.018 1.075-.655 2.528-1.044 4.468-1.044h3.73V.006H218.01z"/></g></g></svg>