<svg xmlns="http://www.w3.org/2000/svg" width="298.1" height="89.056" viewBox="0 0 298.1 89.056"><g><g><g><path stroke="#fff" stroke-width=".2" stroke-miterlimit="3.85" fill="none" d="M258.886 88.643l-.04.016h-.095l-.067.014h-.076l-.073.02h-.077l-.093.017H258.22l-.074.02h-.078l-.07.016H257.832l-.072.023h-.075l-.076.02H257.443l-.073.016h-.147l-.07.015h-.174l-.07.02H256.67l-.076.02h-.216l-.096.023h-.22l-.078.013h-.31l-.077.02h-.382l-.093.024h-.778l-.074.015H253.184l-.077-.015H252.335l-.072-.024h-.391l-.07-.02h-.313l-.075-.013h-.24l-.074-.024h-.221l-.094-.02H250.567l-.075-.02H250.324l-.074-.014H250.1l-.093-.016h-.15l-.066-.02h-.076l-.093-.024H249.477l-.07-.017h-.077l-.078-.02h-.164l-.07-.015h-.075l-.076-.02h-.076l-.086-.016h-.074l-.073-.017h-.078l-.074-.015h-.09l-.074-.026h-.073l-.076-.02h-.075l-.073-.015h-.093l-.075-.02-.073-.02h-.074l-.073-.018h-.076l-.075-.022-.092-.016h-.073l-.078-.017h-.07l-.076-.02-.073-.018h-.09l-.074-.018-.073-.016h-.074l-.076-.023-.072-.018h-.072l-.095-.018-.072-.017h-.074l-.073-.017-.074-.017-.076-.026h-.078l-.086-.015-.075-.018-.07-.017h-.078l-.074-.016-.072-.02-.07-.02-.075-.02h-.093l-.076-.015-.07-.016-.073-.016-.075-.027h-.072l-.075-.014-.072-.02-.075-.018-.093-.022-.075-.02-.075-.015-.072-.02h-.073l-.075-.016-.07-.023-.073-.018-.077-.017-.074-.02-.093-.017-.073-.017-.07-.01-.077-.02-.074-.03-.074-.012-.074-.013-.073-.02-.074-.028-.08-.013-.068-.023-.075-.016-.093-.02-.07-.02-.076-.013-.074-.017-.074-.016-.076-.025-.077-.017-.067-.017-.075-.018-.072-.016-.078-.024-.07-.037-.074-.016-.07-.017-.08-.013-.072-.027-.08-.02-.064-.013-.095-.035-.074-.02-.078-.025-.07-.014-.073-.017-.073-.017-.075-.04-.073-.018-.074-.02-.076-.016-.07-.016-.078-.04-.076-.02-.074-.02-.075-.012-.064-.04-.078-.02-.077-.02-.073-.013-.073-.04-.07-.02-.074-.02-.078-.04-.073-.014-.068-.015-.076-.04-.08-.02-.07-.017-.075-.033-.072-.02-.075-.015-.072-.037-.07-.024-.076-.034-.06-.026-.067-.017-.074-.03-.074-.02-.08-.04-.075-.016-.067-.017-.074-.035-.073-.023-.075-.036-.072-.016-.076-.04-.078-.02-.07-.035-.074-.017-.077-.036-.076-.023-.055-.035-.072-.02-.074-.027-.074-.032-.072-.035-.072-.015-.075-.037-.074-.018-.073-.04-.074-.015-.06-.037-.068-.042-.074-.01-.077-.04-.075-.02-.074-.04-.07-.033-.07-.02-.06-.035-.074-.04-.073-.012-.074-.04-.073-.02-.075-.033-.074-.04-.056-.022-.074-.032-.07-.037-.073-.035-.074-.02-.076-.033-.053-.035-.075-.026-.076-.035-.074-.038-.073-.033-.073-.017-.055-.043-.076-.033-.07-.032-.077-.022-.072-.04-.06-.032-.07-.04-.074-.034-.077-.02-.054-.04-.073-.034-.075-.04-.073-.034-.07-.035-.057-.024-.074-.035-.076-.036-.07-.03-.06-.043-.068-.032-.077-.04-.077-.04-.053-.02-.068-.04-.077-.03-.075-.044-.055-.033-.077-.032-.072-.034-.057-.045-.066-.03-.077-.047-.077-.034-.053-.04-.074-.033-.073-.034-.054-.04-.074-.035-.073-.035-.062-.04-.067-.038-.072-.033-.06-.04-.075-.033-.07-.038-.06-.04-.07-.043-.074-.033-.055-.037-.076-.04-.072-.033-.06-.033-.067-.036-.075-.057-.058-.036-.072-.038-.054-.047-.072-.027-.078-.04-.053-.038-.077-.037-.055-.055-.073-.038-.07-.034-.06-.04-.074-.03-.052-.038-.08-.06-.05-.03-.07-.04-.074-.035-.062-.044-.07-.05-.06-.036-.068-.04-.052-.036-.078-.046-.056-.052-.075-.03-.07-.038-.063-.055-.068-.04-.056-.032-.075-.042-.056-.052-.075-.04-.056-.034-.07-.05-.055-.045-.077-.03-.058-.064-.074-.03-.055-.043-.05-.05-.074-.033-.055-.045-.078-.047-.055-.04-.07-.04-.056-.06-.073-.027-.057-.06-.076-.034-.054-.042-.056-.05-.07-.042-.06-.052-.075-.034-.054-.044-.052-.05-.075-.04-.05-.06-.08-.032-.054-.05-.056-.04-.074-.056-.058-.036-.07-.06-.06-.04-.05-.047-.078-.042-.052-.052-.058-.034-.075-.057-.053-.045-.054-.05-.076-.044-.055-.046-.055-.04-.077-.054-.046-.057-.062-.035-.072-.054-.055-.04-.06-.054-.05-.034-.077-.064-.06-.048-.047-.04-.056-.055-.077-.05-.053-.044-.057-.058-.07-.035-.055-.058-.06-.053-.053-.033-.058-.06-.073-.053-.056-.04-.06-.05-.05-.057-.072-.037-.058-.056-.058-.053-.052-.04-.054-.054-.073-.054-.054-.054-.06-.04-.054-.05-.055-.06-.06-.058-.066-.034-.06-.058-.055-.048-.058-.06-.056-.034-.052-.06-.055-.054-.076-.056-.05-.038-.06-.057-.053-.057-.06-.05-.054-.053-.05-.065-.057-.027-.054-.06-.06-.06-.055-.048-.074-.058-.055-.055-.057-.036-.052-.053-.055-.056-.053-.054-.06-.06-.05-.05-.06-.056-.054-.057-.05-.037-.06-.055-.054-.058-.058-.048-.056-.06-.054-.052-.055-.06-.052-.054-.06-.054-.055-.052-.055-.06-.055-.052-.056-.056-.054-.055-.054-.06-.056-.054-.037-.054-.058-.06-.055-.057-.055-.027-.054-.067-.058-.068-.05-.054-.057-.053-.057-.06-.058-.047-.053-.06-.033-.058-.06-.053-.053-.057-.054-.053-.054-.06-.06-.048-.054-.057-.04-.062-.052-.05-.054-.058-.06-.054-.05-.056-.058-.05-.035-.073-.056-.063-.054-.054-.056-.056-.037-.05-.058-.062-.053-.058-.06-.048-.053-.077-.04-.057-.05-.055-.055-.054-.06-.058-.035-.054-.055-.052-.056-.075-.04-.056-.053-.053-.05-.056-.057-.053-.038-.073-.055-.054-.056-.055-.036-.06-.057-.05-.05-.076-.046-.06-.048-.06-.057-.047-.037-.076-.057-.06-.055-.053-.038-.057-.05-.05-.045-.073-.052-.053-.054-.06-.036-.068-.056-.057-.038-.06-.056-.052-.05-.075-.044-.057-.05-.053-.04-.073-.054-.06-.037-.05-.057-.076-.038-.054-.053-.055-.037-.06-.052-.068-.038-.055-.057-.072-.037-.06-.056-.057-.034-.077-.058-.044-.04-.06-.052-.075-.033-.052-.057-.062-.037-.073-.056-.054-.04-.073-.055-.054-.032-.053-.04-.078-.055-.054-.034-.077-.057-.056-.035-.05-.04-.073-.053-.055-.04-.07-.05-.06-.043-.08-.03-.05-.06-.05-.036-.08-.035-.055-.057-.075-.037-.048-.04-.078-.046-.056-.05-.068-.028-.066-.057-.072-.036-.05-.038-.077-.04-.053-.05-.066-.045-.068-.033-.074-.06-.046-.027-.077-.04-.056-.036-.076-.057-.055-.037-.08-.035-.046-.04-.078-.033-.056-.055-.073-.04-.058-.033-.072-.04-.078-.034-.047-.06-.077-.034-.053-.04-.074-.036-.062-.034-.07-.036-.074-.04-.053-.054-.076-.034-.057-.04-.073-.038-.073-.036-.06-.033-.066-.04-.058-.038-.07-.034-.074-.042-.06-.033-.068-.053-.06-.04-.072-.037-.073-.038-.055-.032-.075-.04-.073-.035-.06-.04-.073-.036-.075-.037-.052-.033-.076-.04-.074-.036-.054-.038-.073-.04-.072-.034-.055-.04-.072-.03-.077-.017-.056-.044-.073-.035-.07-.034-.08-.04-.055-.034-.07-.04-.078-.037-.057-.037-.068-.04-.072-.03-.08-.016-.054-.04-.074-.038-.073-.04-.053-.036-.073-.035-.075-.038-.07-.02-.05-.034-.08-.04-.075-.034-.068-.037-.063-.023-.077-.03-.066-.037-.077-.04-.078-.016-.047-.036-.077-.04-.078-.035-.066-.02-.06-.034-.073-.04-.076-.037-.08-.024-.068-.03-.055-.036-.077-.02-.066-.038-.074-.037-.076-.02-.075-.036-.052-.04-.078-.018-.073-.038-.08-.03-.068-.02-.075-.04-.057-.033-.07-.02-.074-.037-.074-.015-.073-.04-.074-.038-.058-.017-.076-.037-.07-.022-.076-.034-.076-.016-.072-.038-.068-.04-.082-.013-.05-.04-.074-.017-.075-.038-.07-.02-.078-.035-.076-.018-.07-.04-.075-.012-.06-.042-.07-.017-.07-.017-.076-.038-.077-.02-.073-.033-.068-.02-.072-.037-.078-.017-.076-.018-.07-.04-.07-.02-.06-.034-.082-.02-.068-.013-.072-.04-.078-.022-.076-.016-.067-.033-.073-.024-.075-.017-.077-.036-.07-.017-.074-.018-.075-.038-.077-.02-.07-.017-.073-.038-.078-.02-.077-.02-.073-.018-.067-.036-.06-.02-.075-.013-.07-.018-.076-.044-.075-.015-.073-.016-.07-.017-.078-.02-.074-.038-.072-.02-.075-.017-.07-.02-.078-.015-.075-.04-.07-.02-.074-.018-.075-.017-.08-.022-.066-.017-.073-.016-.077-.016-.075-.044-.075-.014-.067-.02-.074-.017-.075-.017-.095-.02-.077-.02-.067-.02-.074-.016-.077-.016-.07-.02-.074-.02-.074-.02-.074-.017-.07-.017-.084-.02-.07-.02-.074-.022-.076-.012-.068-.014-.073-.025-.077-.013-.07-.022-.077-.016-.077-.017-.074-.02-.067-.02-.082-.022-.094-.015-.068v-.078l-.018-.073-.02-.068-.023-.075-.018-.075-.017-.076-.016-.075-.02-.065v-.078l-.017-.076-.02-.075-.02-.092-.015-.068-.014-.073v-.077l-.023-.07-.023-.074-.014-.08v-.074l-.015-.066-.017-.08-.018-.07V52.6l-.02-.076-.02-.072-.02-.067v-.078l-.015-.078-.02-.07v-.08l-.02-.07-.02-.074v-.09l-.017-.077-.016-.078v-.072l-.018-.072-.023-.073v-.068l-.02-.078-.018-.094v-.078l-.015-.064v-.082l-.013-.07v-.078l-.02-.072-.027-.075v-.066l-.013-.093v-.077l-.015-.076v-.074l-.023-.068v-.075l-.018-.074v-.094l-.018-.08v-.066l-.018-.072v-.078l-.017-.077v-.067l-.02-.093v-.074l-.022-.073v-.148l-.02-.077v-.077l-.017-.088v-.152l-.014-.07v-.152l-.02-.067V48.342l-.016-.078V48.12l-.025-.072V47.88l-.016-.077V47.585l-.018-.074v-.243l-.02-.073v-.313l-.014-.075V46.513l-.02-.092v-.536l-.022-.074V43.817l.02-.066v-.537l.022-.095V42.828l.013-.07v-.317l.022-.073V42.124l.017-.073V41.83l.015-.073v-.165l.025-.07v-.155l.016-.072v-.161l.02-.08v-.147l.015-.078v-.164l.02-.072v-.074l.018-.074V40.3l.02-.078v-.09l.02-.07v-.076l.018-.076v-.073l.018-.07v-.078l.018-.075v-.09l.017-.076v-.08l.022-.067v-.075l.015-.074v-.067l.013-.1v-.07l.027-.077.02-.074v-.074l.013-.07v-.076l.015-.075v-.092l.018-.075.02-.066v-.077l.023-.077.018-.067v-.073l.016-.082.018-.067V37.7l.02-.078.02-.073v-.07l.02-.076.015-.076v-.067l.018-.08.02-.074.022-.074v-.09l.02-.07.016-.08.015-.074v-.072l.014-.076.024-.07.024-.073v-.076l.014-.07.016-.077.018-.095.02-.068.02-.078v-.073l.02-.073.015-.075.017-.075.018-.073.024-.07.02-.077.017-.074V35.3l.015-.074.02-.086.02-.077.02-.08.018-.07.016-.075.022-.07.013-.078.025-.073.014-.066.012-.08.022-.074.02-.073.02-.078.017-.07.016-.073.02-.077.02-.078.02-.065.017-.074.017-.078.02-.077.018-.066.02-.095.018-.072.016-.074.02-.07.014-.078.044-.073.016-.074.015-.075.016-.075.022-.07.017-.074.02-.072.017-.075.04-.074.015-.078.02-.07.017-.08.02-.074.038-.073.02-.072.017-.075.015-.07.016-.077.045-.073.018-.067.013-.074.02-.077.036-.05.017-.08.02-.073.02-.074.037-.073.017-.08.02-.068.038-.078.018-.073.017-.072.036-.072.017-.075.024-.07.033-.077.016-.08.02-.066.042-.073.013-.076.02-.076.035-.07.02-.058.04-.067.018-.073.018-.08.037-.068.02-.078.033-.075.02-.076.038-.073.017-.07.018-.08.043-.07.013-.053.04-.075.017-.072.036-.074.018-.077.038-.08.017-.065.04-.08.014-.073.04-.048.037-.076.016-.08.034-.07.022-.075.037-.07.017-.078.037-.048.04-.078.016-.078.037-.078.02-.072.035-.068.04-.073.018-.06.03-.072.04-.07.018-.074.04-.075.034-.055.02-.076.038-.08.037-.07.02-.074.036-.07.03-.053.023-.076.037-.08.04-.066.033-.075.02-.05.033-.083.04-.073.038-.072.017-.056.04-.075.038-.072.03-.07.022-.078.037-.057.034-.076.04-.068.034-.08.02-.054.04-.07.034-.073.035-.08.042-.05.038-.076.04-.072.016-.055.03-.072.04-.085.037-.07.038-.054.04-.066.033-.078.04-.06.035-.07.035-.076.044-.075.017-.05.03-.072.04-.078.033-.052.04-.075.04-.076.034-.06.042-.067.033-.075.037-.055.036-.072.04-.073.035-.06.04-.075.032-.066.038-.06.037-.07.04-.078.053-.052.033-.075.042-.054.034-.08.04-.073.04-.05.032-.077.036-.055.038-.073.04-.072.034-.062.053-.065.04-.06.037-.074.034-.074.036-.053.04-.074.034-.062.06-.072.033-.054.04-.072.033-.068.04-.06.054-.073.034-.052.04-.078.036-.05.037-.08.058-.054.037-.066.04-.06.028-.074.06-.06.032-.073.045-.055.05-.073.04-.053.037-.075.035-.053.057-.074.03-.06.048-.074.047-.052.04-.075.036-.06.058-.075.036-.05.037-.077.058-.053.032-.053.042-.074.05-.055.04-.076.053-.054.04-.073.036-.058.058-.052.035-.075.054-.058.04-.075.032-.054.055-.052.04-.075.056-.06.037-.073.057-.05.033-.056.053-.07.04-.06.057-.057.034-.066.057-.058.038-.077.057-.058.038-.053.052-.077.037-.047.053-.06.038-.06.056-.068.036-.056.054-.054.04-.077.05-.056.044-.052.05-.072.056-.054.038-.06.056-.058.037-.076.055-.048.052-.054.044-.08.052-.054.04-.055.054-.054.057-.076.036-.05.056-.058.048-.052.045-.06.05-.074.058-.05.036-.058.056-.06.055-.054.038-.073.056-.055.05-.052.055-.06.04-.05.055-.077.055-.054.034-.056.06-.057.053-.05.05-.058.04-.052.054-.078.06-.056.052-.056.057-.058.037-.055.056-.05.054-.06.055-.05.034-.075.058-.058.05-.054.06-.06.054-.047.053-.058.038-.052.055-.06.06-.056.053-.055.055-.057.053-.056.06-.05.034-.06.053-.052.058-.06.057-.05.056-.06.052-.07.06-.054.053-.057.055-.057.055-.037.058-.055.037-.054.056-.054.054-.055.054-.06.056-.053.055-.056.055-.054.054-.057.06-.054.053-.052.055-.06.054-.053.056-.054.057-.053.052-.06.06-.052.05-.042.055-.05.06-.058.05-.054.06-.06.054-.054.056-.052.052-.058.057-.037.056-.053.075-.057.056-.056.06-.054.053-.055.056-.03.05-.062.055-.055.06-.055.052-.056.06-.054.05-.034.076-.058.055-.056.053-.053.057-.04.058-.054.054-.06.06-.046.066-.047.06-.053.053-.052.053-.053.06-.04.054-.055.073-.056.054-.062.052-.034.058-.052.058-.054.073-.04.05-.053.06-.06.054-.035.072-.055.057-.052.053-.04.06-.053.054-.057.07-.038.057-.055.053-.055.077-.04.057-.05.048-.043.06-.05.078-.056.05-.038.06-.057.054-.036.072-.057.062-.034.046-.058.077-.052.055-.036.055-.057.076-.037.054-.058.052-.028.074-.062.058-.04.052-.05.077-.036.053-.058.06-.038.07-.056.057-.034.074-.06.055-.03.053-.06.08-.035.05-.056.075-.037.053-.058.055-.036.076-.03.06-.06.07-.036.056-.06.054-.033.076-.04.057-.054.073-.04.055-.053.072-.038.055-.035.078-.054.056-.035.075-.038.05-.056.056-.037.075-.038.058-.056.076-.04.053-.033.07-.054.056-.037.074-.038.055-.056.074-.036.055-.04.067-.033.062-.06.07-.035.076-.034.056-.04.078-.053.052-.036.068-.036.06-.034.07-.06.062-.035.073-.04.07-.033.052-.044.08-.05.05-.04.075-.033.06-.04.07-.038.073-.037.055-.057.077-.032.053-.037.078-.042.073-.034.055-.04.072-.032.058-.04.076-.055.07-.032.058-.038.07-.04.077-.034.054-.042.073-.033.07-.04.06-.035.07-.035.075-.038.06-.04.073-.03.068-.044.06-.034.074-.034.074-.04.054-.036.073-.037.074-.04.053-.034.077-.038.077-.034.067-.04.058-.035.073-.032.078-.043.055-.034.075-.037.077-.04.068-.032.053-.02.077-.042.077-.032.068-.04.06-.034.07-.034.076-.04.074-.037.056-.016.07-.04.074-.037.075-.034.073-.046.053-.033.076-.012.075-.046.07-.028.06-.047.073-.03.076-.015.07-.04.075-.038.055-.038.073-.016.073-.04.073-.036.075-.035.076-.024.054-.03.077-.046.075-.014.072-.034.07-.04.075-.035.056-.018.074-.035.075-.043.072-.018.073-.032.073-.023.075-.038.06-.035.07-.02.07-.03.075-.042.076-.02L236.9 4l.074-.02.068-.033.06-.04.073-.02.073-.034.075-.022.076-.032.072-.018.072-.037.074-.023.074-.034.07-.02.056-.033.075-.02.076-.04.074-.017.07-.036.077-.02.076-.034.072-.02.076-.038.074-.015.074-.038.067-.023.076-.014.08-.04.073-.017.074-.035.068-.02.06-.02.075-.034.07-.02.073-.03.075-.02.073-.022.075-.037.072-.016.08-.018.075-.04.067-.015.072-.02.078-.033.074-.02.07-.02.073-.036.074-.017.078-.012.078-.027.065-.034.076-.018.074-.024.076-.02.077-.03.07-.018.077-.025.074-.016.073-.02.075-.033.073-.018.074-.02.068-.022.078-.016.073-.02.094-.038.065-.02.078-.015.073-.018.08-.013.07-.03.075-.02.07-.03.078-.014.072-.028.075-.014.067-.02.077-.016.076-.018.074-.02.074-.02.075-.02.07-.016.094-.017.075-.017.07-.024.077-.02.073-.017.073-.017.073-.012.073-.02.074-.027.078-.014.07-.014.072-.02.094-.02.075-.02.077-.016.072-.017.07-.02.076-.024h.073l.072-.02.075-.015.075-.017.093-.018.075-.024.072-.017.075-.018h.072l.075-.017.072-.02.07-.014.077-.026h.094l.075-.015.07-.017.073-.015.074-.02h.078l.07-.02.076-.02.086-.017h.078l.076-.017.075-.018.074-.02h.074l.073-.02.096-.018h.072l.072-.016.076-.02h.074l.073-.017.074-.024h.09l.074-.016.077-.017h.07l.078-.017.073-.016h.09l.076-.027h.076l.073-.017h.074l.072-.018.074-.013h.093l.072-.02h.074l.075-.02h.072l.074-.02h.09l.073-.014h.077l.073-.02h.074l.087-.02h.077l.076-.02h.076l.07-.013h.162l.078-.02h.076l.07-.02H249.627l.092-.02h.076l.066-.013h.149l.092-.024H250.25l.073-.018H250.49l.076-.02H250.787l.093-.017H251.098l.073-.014h.24l.075-.024h.316l.07-.017h.388l.072-.02H253.108l.077-.013h1.087l.075.013H255.12l.093.02h.384l.075.017H255.984l.077.024H256.283l.096.015H256.594l.076.018h.239l.07.02h.172l.07.018h.148l.073.024H257.608l.075.012h.075l.073.02H258l.068.02h.078l.075.02H258.364l.094.014h.077l.073.02h.076l.068.02h.095l.074.02h.075l.068.014h.073l.078.02h.093l.072.02h.073l.07.02h.075l.078.012.094.018h.07l.072.017h.075l.076.027h.078l.074.016.086.017h.075l.072.017.077.015h.078l.07.023.09.017h.074l.077.02.07.017h.075l.076.018.07.02h.094l.07.02.078.018.075.018h.073l.073.017.074.02.073.02h.093l.074.02.074.016.073.016.073.014h.075l.073.027.074.015.093.02.075.017h.08l.067.017.073.016.078.024.07.018.074.017.072.016.095.02h.07l.08.022.07.02.073.018.073.016.075.02.073.02.075.02.073.013.094.013.074.026.073.02.076.013.073.016.073.016.073.02.07.024.077.017.078.017.07.017.075.02.072.02.095.02.073.018.078.016.07.02.074.014.08.028.066.014.073.03.075.02.078.03.077.012.07.017.07.015.077.02.077.037.065.02.075.016.073.02.078.02.076.02.072.033.075.02.076.015.068.025.07.02.094.03.076.018.077.024.07.017.08.033.067.028.078.013.067.018.078.036.075.02.075.02.073.035.053.02.076.017.074.04.067.017.082.017.07.038.077.023.073.02.07.03.075.02.08.035.066.02.075.02.076.036.076.017.076.04.07.015.07.023.078.038.077.015.07.037.07.02.078.034.073.02.054.036.077.016.076.04.07.02.074.035.074.02.073.033.074.023.074.037.073.018.075.033.057.023.068.035.078.02.077.04.07.032.07.02.074.034.08.02.067.042.06.03.074.02.073.036.075.037.07.022.077.032.073.018.055.043.072.034.082.017.072.035.07.04.074.034.054.014.077.047.068.03.076.022.078.034.074.037.053.04.075.016.072.038.073.038.074.04.06.014.067.03.075.048.074.028.076.046.05.013.08.034.073.045.07.033.075.036.055.04.077.015.07.038.073.04.06.033.07.034.078.04.07.032.058.04.072.022.074.033.073.04.054.036.074.034.073.044.06.033.07.035.08.04.07.034.055.04.07.032.078.04.055.038.07.036.074.04.056.034.077.034.07.043.058.03.074.04.074.037.056.035.07.034.075.04.055.035.077.043.075.034.05.04.077.038.073.032.053.055.075.04.06.033.067.04.072.033.06.04.07.038.057.032.075.057.075.037.054.037.072.04.055.033.08.04.075.05.053.044.073.034.054.04.072.033.06.06.077.035.066.036.06.037.074.055.045.04.08.033.06.034.068.06.055.033.078.04.056.037.07.056.063.038.066.037.056.054.077.033.053.04.072.055.062.038.073.038.047.057.078.038.055.036.075.055.055.034.05.037.074.054.057.04.072.055.06.04.078.034.05.058.074.035.055.06.053.03.08.036.05.057.075.037.053.055.06.034.068.06.06.03.054.06.074.034.06.056.07.038.057.057.055.036.07.05.06.04.05.06.077.03.055.057.055.037.072.057.06.036.053.052.072.058.057.034.056.057.073.037.054.058.053.038.057.055.073.052.057.043.054.05.057.04.074.055.058.055.05.038.058.057.073.053.057.04.05.052.053.055.076.036.058.06.054.05.06.042.05.054.075.052.056.034.052.06.056.057.054.054.076.04.06.052.05.052.058.053.054.047.053.046.078.06.052.054.06.04.053.054.053.056.056.058.06.034.052.053.076.055.053.056.057.056.055.06.05.032.056.055.06.054.057.056.05.057.053.053.06.037.054.058.058.052.057.054.07.06.053.054.058.057.052.05.06.043.053.05.06.062.052.053.053.054.057.052.054.06.06.053.054.054.056.057.05.054.04.056.054.054.055.06.06.054.053.054.057.055.05.056.06.037.06.056.047.056.057.053.055.07.058.06.034.05.06.06.05.053.054.058.06.052.054.056.057.057.052.055.037.055.053.06.06.053.054.058.054.047.057.06.037.054.057.058.054.075.054.05.055.06.038.05.058.056.053.058.055.055.04.055.053.078.055.052.057.057.056.05.033.058.06.056.05.055.044.077.05.05.056.06.054.053.04.055.054.073.057.054.03.06.06.057.054.05.04.073.052.06.057.053.036.057.057.05.054.078.038.055.057.055.032.054.056.08.054.054.04.048.055.076.037.057.055.06.053.053.036.072.055.052.042.056.05.077.043.054.056.056.053.067.036.062.05.058.04.047.055.077.04.053.053.058.038.076.057.057.036.066.058.058.035.06.055.07.038.058.058.05.037.073.035.06.055.076.037.052.052.054.042.075.052.058.04.075.033.052.054.058.04.073.054.054.033.076.04.055.054.074.04.053.038.053.056.076.034.05.04.077.055.06.04.074.032.052.054.074.038.06.038.074.056.053.036.075.034.053.037.073.06.055.034.072.034.06.06.074.034.06.04.066.037.053.04.08.05.05.042.078.034.053.036.074.036.06.058.068.034.072.04.054.035.073.035.063.054.074.04.053.036.074.036.073.042.06.03.066.043.062.038.072.055.074.038.056.03.076.043.05.03.074.042.08.037.053.037.074.038.052.037.078.034.07.036.06.04.066.033.075.04.06.034.073.038.072.034.055.04.075.038.066.036.06.04.077.035.075.033.052.042.078.03.072.04.05.035.076.04.075.037.073.038.06.033.077.038.066.04.054.016.07.037.085.036.072.036.055.037.072.04.075.032.05.042.08.02.072.037.07.038.055.03.08.034.067.02.076.042.057.04.078.033.07.038.072.017.075.04.056.032.07.04.074.02.082.032.05.035.077.04.066.018.08.037.077.04.052.016.07.037.076.04.07.034.08.014.075.045.054.015.074.04.075.033.068.02.072.034.06.04.074.02.068.035.072.038.078.02.077.035.077.02.048.04.078.012.07.038.074.037.072.016.078.038.076.018.048.037.072.018.08.042.067.02.08.032.076.02.074.04.072.017.075.03.053.02.07.04.08.016.07.038.074.013.075.026.074.033.078.02.067.04.08.018.073.034.067.023.06.013.068.04.076.015.077.02.074.04.067.014.08.04.08.02.068.016.075.037.072.02.072.02.072.017.077.036.07.017.078.024.073.033.074.02.072.012.08.02.05.04.078.015.074.02.067.02.073.036.077.017.07.02.075.02.073.014.074.04.074.02.08.012.07.024.078.017.073.02.074.034.072.022.074.014.07.017.075.02.076.02.075.02.073.018.077.017.07.04.075.018.072.015.095.02.066.02.077.02.078.013.074.026.065.014.078.02.077.016.074.018.07.02.077.014.073.024.075.016.08.02.067.016.073.018.08.02.068.02.074.02.072.017.08v.076l.017.086.02.074.02.073.02.074.013.076.016.07.025.074.02.075v.075l.013.072.02.072.016.078.017.068.024.095v.076l.017.07.02.077.017.074.018.07v.076l.02.072.02.074.02.08v.07l.016.09.017.074.022.074v.08l.02.068.02.076v.076l.013.07.012.072v.077l.024.093.025.068v.083l.014.073.015.067v.077l.017.077.025.066v.075l.018.093v.076l.018.076.015.07v.074l.018.074v.077l.02.07v.1l.02.067v.074l.02.075.018.068v.08l.014.075v.09l.02.074V39.835l.02.074v.076l.022.077v.07l.017.09v.077l.016.075V40.52l.02.074v.072l.018.095V40.91l.023.072v.156l.013.082v.15l.017.07V41.593l.017.07V41.83l.02.078V42.125l.022.095V42.44l.016.074V42.83l.02.074V43.284l.014.08V44.038l.018.094V45.5l-.018.09V46.273l-.015.08v.376l-.02.08v.308l-.015.08V47.423l-.023.09V47.732l-.02.07V47.973l-.017.074V48.19l-.017.077v.154l-.013.09V48.653l-.022.073V48.874l-.017.076v.088l-.02.077v.15l-.016.075v.073l-.017.074v.093l-.02.067v.077l-.022.078v.139l-.02.08v.093l-.014.074v.075l-.017.068-.02.074v.076l-.022.077v.094l-.02.067v.075l-.017.072v.077l-.015.072-.018.082v.064l-.018.078v.093l-.025.077-.017.068v.073l-.016.072-.015.072v.077l-.024.076-.023.09v.075l-.012.07-.012.08v.07l-.022.077-.018.078v.067l-.02.072-.018.077-.016.095v.07l-.02.08-.02.067-.02.074v.08l-.017.075-.016.07-.02.077-.017.073v.068l-.024.093-.017.076-.016.076-.02.078-.013.065v.076l-.02.077-.024.075-.016.075-.014.068-.02.073-.02.078-.02.068-.016.094v.08l-.018.068-.02.073-.02.076-.02.078-.018.07-.017.077-.02.074-.015.068-.024.076-.014.074-.02.07-.018.085-.015.07-.022.072-.014.073-.026.074-.013.07-.02.077-.02.074-.02.067-.015.077-.02.095-.038.075-.017.074-.017.067-.02.075-.02.075-.02.078-.018.074-.014.067-.022.08-.033.076-.02.073-.016.07-.025.075-.014.08-.02.068-.04.075-.013.072-.02.074-.02.077-.017.072-.035.073-.02.074-.02.075-.014.07-.04.074-.02.06-.014.067-.02.073-.033.077-.025.078-.017.072-.036.07-.016.078-.02.074-.02.072-.038.07-.016.077-.02.074-.04.073-.013.067-.042.076-.02.078-.014.072-.04.068-.013.08-.022.06-.034.073-.017.07-.04.076-.02.078-.034.072-.026.068-.013.073-.038.077-.017.076-.04.07-.02.07-.03.06-.018.075-.04.07-.02.077-.032.077-.02.07-.042.074-.017.073-.036.05-.018.083-.038.068-.016.072-.037.076-.038.076-.012.07-.04.076-.02.058-.035.073-.02.072-.038.074-.034.075-.02.07-.04.057-.036.075-.02.07-.032.077-.04.072-.015.078-.044.052-.03.075-.017.076-.04.074-.037.066-.017.078-.04.056-.037.068-.018.08-.04.075-.036.072-.032.06-.02.066-.04.078-.032.077-.04.046-.018.077-.037.077-.033.066-.04.077-.04.062-.02.067-.034.075-.03.08-.04.05-.036.07-.02.075-.042.073-.03.053-.042.073-.037.075-.037.056-.037.08-.037.07-.017.07-.04.056-.037.077-.033.07-.038.055-.038.08-.04.07-.033.072-.04.056-.03.078-.042.073-.033.055-.034.073-.04.074-.036.054-.037.074-.04.076-.035.05-.038.076-.034.073-.04.06-.034.073-.04.075-.037.054-.035.072-.037.073-.04.06-.036.066-.037.062-.04.073-.032.07-.042.06-.03.064-.037.06-.055.074-.037.073-.04.057-.032.077-.042.054-.036.075-.036.068-.04.06-.054.075-.035.053-.036.077-.04.047-.034.078-.058.07-.036.06-.036.072-.034.056-.04.078-.053.047-.04.08-.035.054-.04.075-.034.055-.06.077-.033.046-.033.074-.06.07-.038.065-.034.054-.036.077-.056.05-.038.073-.038.066-.055.068-.034.055-.04.077-.054.048-.04.075-.034.056-.056.078-.038.052-.04.05-.053.078-.04.06-.032.07-.054.057-.04.075-.055.05-.034.056-.04.078-.052.054-.042.078-.052.053-.037.054-.055.072-.035.053-.037.073-.058.062-.038.053-.055.075-.034.06-.057.046-.036.078-.056.058-.037.06-.052.07-.04.056-.054.068-.04.06-.05.054-.037.054-.054.077-.056.05-.042.06-.05.072-.043.054-.054.058-.035.075-.053.053-.055.06-.038.056-.056.068-.04.06-.054.054-.056.074-.032.05-.057.056-.038.054-.054.06-.057.075-.037.048-.058.06-.053.06-.04.076-.056.05-.058.06-.03.054-.058.054-.053.073-.04.054-.055.057-.055.054-.05.057-.045.075-.05.052-.06.054-.034.058-.056.055-.057.056-.055.057-.052.076-.04.047-.055.058-.052.062-.057.05-.037.056-.055.054-.054.062-.053.072-.056.05-.037.056-.056.054-.053.058-.054.05-.06.063-.054.056-.038.046-.053.06-.058.054-.055.057-.06.053-.052.058-.05.06-.06.046-.035.06-.058.054-.055.054-.057.07-.047.066-.06.027-.06.058-.05.06-.057.053-.054.055-.06.06-.054.054-.053.056-.04.05-.05.062-.057.052-.055.054-.06.054-.053.06-.057.05-.053.062-.053.048-.06.06-.05.054-.062.037-.052.057-.058.057-.054.05-.068.06-.057.054-.058.057-.053.054-.06.037-.053.055-.05.058-.057.048-.06.06-.055.06-.05.027-.056.065-.057.052-.053.05-.076.057-.053.056-.06.038-.055.056-.053.053-.054.06-.058.034-.05.06-.08.05-.052.057-.054.034-.06.058-.05.06-.058.05-.076.04-.054.053-.056.053-.053.054-.057.04-.076.053-.05.056-.06.037-.053.058-.058.05-.076.04-.054.054-.05.06-.057.033-.074.052-.058.057-.05.035-.06.057-.073.044-.057.05-.054.053-.057.04-.073.05-.057.063-.053.034-.055.053-.074.04-.057.055-.058.035-.072.057-.052.055-.06.038-.073.046-.055.045-.055.048-.077.045-.05.056-.06.033-.07.052-.055.042-.057.048-.07.038-.06.06-.074.037-.053.056-.062.04-.067.05-.06.03-.052.062-.075.04-.05.05-.08.044-.054.034-.056.052-.075.04-.05.052-.077.042-.06.033-.072.06-.056.03-.073.057-.05.04-.055.04-.075.047-.055.044-.078.033-.047.05-.073.043-.062.03-.072.065-.054.03-.078.046-.056.05-.067.035-.063.04-.07.05-.056.043-.077.03-.055.04-.068.056-.06.04-.08.028-.046.052-.075.047-.06.037-.067.04-.076.037-.06.05-.073.043-.053.035-.072.04-.053.03-.075.06-.08.037-.054.03-.072.04-.054.035-.075.038-.074.055-.055.037-.07.038-.06.04-.073.026-.068.046-.06.038-.074.037-.053.058-.073.036-.076.033-.05.033-.076.04-.077.037-.056.032-.075.043-.07.04-.057.036-.074.032-.073.04-.056.033-.07.037-.078.04-.057.036-.074.035-.07.04-.056.034-.078.032-.07.04-.054.033-.072.048-.08.03-.07.044-.06.034-.072.033-.075.034-.055.044-.073.03-.074.04-.072.02-.06.04-.068.04-.077.03-.07.043-.06.032-.074.036-.07.035-.076.024-.055.035-.075.034-.07.04-.074.034-.08.04-.05.02-.077.033-.075.04-.074.034-.065.04-.06.02-.075.034-.073.034-.072.043-.076.017-.054.033-.074.038-.078.036-.076.027-.067.035-.076.033-.054.02-.075.036-.07.038-.07.033-.083.023-.072.04-.055.032-.073.02-.076.04-.07.014-.075.038-.072.034-.074.02-.06.035-.067.04-.08.02-.074.04-.07.01-.07.04-.077.038-.078.016-.07.04-.056.018-.075.037-.073.016-.073.036-.073.032-.073.026-.074.02-.073.035-.07.022-.078.036-.078.017-.054.034-.073.02-.078.04-.07.016-.07.036-.077.023-.078.035-.07.017-.07.016-.076.04-.075.02-.075.03-.074.017-.065.026-.08.033-.074.023-.07.037-.073.014-.076.02-.07.034-.083.018-.067.02-.074.04-.075.015-.052.015-.073.04-.075.02-.075.02-.078.04-.067.014-.078.02-.068.02-.078.038-.07.013-.078.02-.076.02-.093.04-.072.016-.07.017-.075.02-.075.016-.072.04-.075.016-.077.017-.073.014-.075.025-.066.02-.078.035-.077.013-.07.02-.07.027-.077.013-.077.017-.074.016-.073.037-.066.024-.08.016-.075.018-.07.017-.077.017-.073.025-.095.016-.072.018-.075.014-.07.02-.077.02-.077.017-.07.024-.073.013-.074.028-.074.02-.075.013-.072.013-.074.03-.093.02-.072.01-.075.018-.072.016-.074.02-.073.018-.074.017-.07.022-.08.017h-.07l-.096.018-.072.014-.075.02-.07.023-.077.018-.073.02-.068.014h-.08l-.075.027-.093.015-.074.015-.073.014h-.075l-.073.02-.073.02-.074.02-.074.017h-.093l-.073.017-.074.018-.073.015h-.072l-.074.026-.078.017-.07.017h-.095l-.07.017-.075.018h-.074l-.07.02-.078.022h-.074l-.09.015-.07.017h-.078l-.077.017-.072.02h-.075l-.086.018h-.073l-.077.016-.076.02h-.075l-.073.02h-.07l-.094.02-.078.02h-.074l-.07.013h-.075l-.073.022h-.093z"/></g><path stroke="#fff" stroke-width=".1" stroke-miterlimit="3.85" d="M209.6 46.017l.458 1.18m0 0l.796 1.162m0 0c.36.403.71.808 1.123 1.16m.168 3.638l-.168-3.638m.647 7.214l-.48-3.576m.48 3.576l.812 3.47m0 0l1.108 3.368m0 0l1.397 3.21m.7 2.044l-.478-.68m1.457 1.678l-1.68-3.043m.7 2.046l.98.998m0 0l1.96 2.863m0 0l2.228 2.652m2.377 2.348l-2.376-2.35m-2.937-4.517l-1.254-.996m1.253.997l1.533.937m1.77.89l-1.77-.89m1.77.89c.676.288 1.345.575 2.03.85m0 0c.748.27 1.503.53 2.246.79m2.473.723l-1.16-2.82m1.16 2.82l-2.473-.723m2.473.723c.887.22 1.77.44 2.66.65m2.818.57c-.93-.22-1.88-.39-2.818-.57m2.818.57c.99.192 1.993.332 2.993.497m-8.47-1.717l1.347 2.576m0 0c.502.79.983 1.593 1.534 2.342m0 0l1.7 2.064m-20.093-31.368l-1.438-1.104m1.438 1.104c.586.36 1.168.716 1.756 1.068m2.042 1.02c-.678-.327-1.356-.696-2.042-1.02m2.042 1.02c.78.322 1.562.662 2.348.96m2.6.907c-.867-.31-1.73-.613-2.6-.908m5.457 1.71l-2.856-.803m5.94 1.542l-3.083-.74m6.344 1.406c1.15.2 2.314.37 3.47.555m-6.73-1.22c1.09.224 2.18.456 3.262.665m-6.235 2.233l-.11-3.64m.46 7.163l-.35-3.52m.903 6.913l-.555-3.393m.555 3.393c.194 1.078.47 2.154.757 3.205m0 0c.317 1.02.61 2.05.977 3.05m18.467-3.29l-.15-3.332m.15 3.332l.2 3.155m.262 2.942l-.262-2.94m-8.006-14.235l-3.593-.48m3.594.48l3.708.364m0 0c1.274.092 2.55.18 3.818.268m3.87.16l-3.87-.16m.035 3.628l-.035-3.63m.13 7.116l-.095-3.486m3.836-3.468l3.915.04m0 0l3.913-.04m3.873-.16l-3.872.16m3.873-.16l3.8-.268m3.728-.364l-3.73.364m3.73-.364l-.058 3.63m0 0l-.185 3.487m-.297 3.35l.298-3.35m-.298 3.35l-.4 3.16m-.518 2.944l.518-2.944m-20.716 8.68l.4 2.182m.467 1.886l-.467-1.887m-7.28-5.184l-3.116-.4m3.116.4l3.205.336m3.303.226l-.327-2.69m.328 2.69l-3.302-.226m3.303.226l3.34.146m-2.968 2.295l-.37-2.442m3.337.146l3.375.033m0 0l3.373-.033m3.34-.146l-3.34.146m6.646-.372l-3.307.226m6.512-.562l.63-2.732m-.63 2.732l-3.206.336m2.49 2.14l.715-2.476m-1.55 4.688l.833-2.213m-1.73 4.13l.896-1.916m-29.606 3.357l.925.367m0 0l1.294.462m-4.518-4.008l1.84 1.777m0 0c.65.51 1.305.996 1.992 1.472m2.12 1.178l-2.12-1.18m2.12 1.18l-1.435-.42m2.965.794l-1.53-.374m1.53.374l1.626.335m1.713.294l-1.713-.295m-3.156-.71c.74.32 1.463.623 2.216.85m0 0l.5.154m2.153 0l1.795.233m0 0l1.858.188m1.313-.81l.567.938m-1.88-.128l1.88.128m1.943.1l-1.942-.1m0 0l.614.608m.625.28l-.625-.28m-1.717-2.8l-.5-1.582m.5 1.582l.535 1.256m15.22-3.307l-.98 1.625m0 0l-1.07 1.313m-10.66 1.406l1.933.015m0 0l1.937-.016m1.918-.1l-1.917.1m3.818-.23l-1.9.13m3.747-.317c.383-.317.75-.655 1.126-.99m-1.126.99l-1.846.188m1.847-.188l-1.182.667m-1.236.32l1.235-.32m-8.927.56l-.13-.024m7.788-.217h.033m-40.95-69.79c-.72.9-1.32 1.906-1.95 2.87m-.08.13c-.162.32-.328.64-.46.976m4.783-6.783l2.56-2.566m-2.56 2.567l-2.293 2.805m6.146-.487l-2.476 2.994m-2.21 3.17l2.21-3.17m-6.16 1.468c-.117.328-.163.67-.183 1.02m0 0l.114 1.012m0 0c.12.334.266.677.4 1.014m.002 0l.683.997m2.934-2.34c-.656 1.1-1.342 2.223-1.957 3.32m-.98-.98l.98.98m0 .002c-.57 1.117-1.112 2.295-1.66 3.446m0 0c-.473 1.184-.964 2.355-1.378 3.56m0 0c-.39 1.204-.754 2.402-1.1 3.612m0 0c-.297 1.213-.52 2.45-.766 3.675m-.465 3.688l.464-3.688m-.593 7.376l.13-3.687M238.96 3.225l.404-.144M235 4.83c-.163.074-.322.155-.484.234m0 0c-.308.16-.605.35-.903.52M251.1 1.178l-1.292-.254m-.85.013l.85-.013m3.927 1.77l-1.326-.924m0 0l-1.312-.593m-.332.943l2.97.572m-2.97-.572l-2.952-.26m-2.895.073l2.894-.073m-2.895.073c-.938.128-1.898.24-2.825.406m0 0l-2.73.74m6.757-.133c-1.264.177-2.504.35-3.75.608m0 0c-1.227.226-2.432.572-3.627.925m0 0c-1.205.286-2.37.8-3.527 1.22m18.517-3.008l-3.833-.043m-3.78.297l3.78-.298m.18.61l3.653-.567m-3.653.568c-1.222.278-2.43.538-3.634.867m0 0c-1.207.362-2.378.764-3.56 1.202m0 0c-1.217.45-2.338.96-3.506 1.488m0 0c-1.12.568-2.256 1.137-3.373 1.793m-7.376.444l-3.024 2.087m0 0c-.99.698-1.875 1.555-2.788 2.34m10.79-7.894l-.757.537m0 0l-.59.55m2.953-.972l-3.393 1.522m.442-.55l-.44.55m-.263.596l.26-.596m0 0l-3.19 1.832m2.84-.663l.09-.57m-.013 1.14l-.075-.57m.31 1.165l-.234-.596m.644 1.16l-.408-.565m4.223-.944c-1.103.65-2.17 1.36-3.247 2.07m0 0c-.178-.2-.373-.382-.568-.56m.568.56c-1.044.756-2.075 1.513-3.082 2.323m-2.893 2.56l2.894-2.56m-2.893 2.56c-.913.918-1.797 1.854-2.67 2.802m9.39-7.157l-.744-.527m.743.528l.884.52m0 0c.348.177.695.344 1.052.498m0 0c.39.16.775.32 1.175.462m0 0c.423.154.877.302 1.313.422m1.418.41l2.236-2.513m-3.653 2.102c.462.152.95.273 1.418.41m0 0l1.553.346m1.64.315l-1.64-.314m3.373.59l-1.733-.275m-3.192-.66c-.702.908-1.466 1.795-2.102 2.748m0 0c-.705.97-1.354 1.968-2.01 2.965m0 0c-.62 1.056-1.29 2.09-1.844 3.17m20.343-19.71l-2.508 1.05m0 0c-.83.445-1.653.887-2.47 1.366m0 0c-.826.547-1.684 1.075-2.457 1.674m-2.395 1.976l2.395-1.976m-2.395 1.976l-2.32 2.247m10.143-3.466l.664-1.917m-.664 1.918l-.647 2.213m0 0c-.232.826-.422 1.65-.627 2.49m3.282-9.55L253.052 4m0 0c-.242.557-.453 1.048-.66 1.623m1.343-2.93l1.328 1.254m0 0l1.328 1.566m.002 0l1.29 1.88m0 0l1.295 2.162m0 0l1.237 2.438m-10.942 5.968l-.535 3.2m0 0l-.516 3.353m-3.947-10.056c.592.087 1.19.158 1.807.225m1.867.187l-1.867-.19m3.76.316l.613-2.753m-2.506 2.626l1.894.126m1.94.074l-1.94-.074m-.568 2.965l.568-2.964m3.895.093l-1.956-.02m1.955.02l1.954-.02m0 0l1.935-.074m0 0l1.9-.127m.69-2.878l1.17 2.69m-1.86.187c.624-.07 1.243-.114 1.86-.19m0 .002l1.13 2.93m1.072 3.136c-.346-1.054-.7-2.09-1.072-3.136m2.045 6.476c-.317-1.115-.63-2.243-.973-3.34m-36.875 19.568l-.733 3.776m-.54 3.802l.538-3.8m-.872 7.582c.146-1.26.208-2.52.335-3.782m-.334 3.782c-.06 1.236-.06 2.476-.09 3.706m-7.543-27.53c.41.33.85.643 1.27.963m0 0c.493.32 1.004.63 1.536.896m1.77.872l-1.77-.87m1.77.87l2.047.807m2.25.77l-2.25-.77m9.296-8.987c-.562 1.12-1.138 2.235-1.7 3.36m-1.533 3.487l1.53-3.487m-1.53 3.487l-1.347 3.597m-2.467-.686l2.468.687m2.678.645l-2.68-.646m2.68.646l2.836.55m0 0l3.01.48m-8.525-1.675l-1.137 3.707m0 0l-.964 3.763m10.626-5.795l3.113.39m3.23.314l-3.228-.313m6.535.534l.368-3.747m-.368 3.747l-3.307-.222m6.664.37l-3.356-.147m-.318 3.833l.317-3.833m-.57 7.707l.253-3.873m1.552-14.767l-.463 3.52m-.405 3.667l.403-3.667m17.728-.462c-.294-1.168-.608-2.32-.927-3.482m.926 3.483c.28 1.198.53 2.416.81 3.617m-12.56 4.448l-3.393-.04m6.765 0l-3.373.04m6.733-.188l-3.36.146m3.36-.146c1.104-.048 2.215-.14 3.32-.222m3.228-.313l-.72-3.725m.72 3.725l-3.228.313m3.84 3.49l-.612-3.803m1.125 7.655c-.17-1.285-.337-2.57-.512-3.854m-21.567 12.19l-.074 3.796m-.036 3.753l.035-3.754m.43-11.546l-.2 3.877m-.154 3.872l.154-3.87m22.314-.61c-.11-1.284-.257-2.566-.388-3.854m.388 3.855c.097 1.284.168 2.567.29 3.852m.172 3.8c-.05-1.264-.11-2.534-.17-3.8m.17 3.8l.058 3.747m3.593-.48l-3.592.48m3.593-.48c1.158-.16 2.297-.37 3.45-.554m0 0c1.092-.215 2.202-.395 3.284-.666m0 0c1.036-.23 2.055-.475 3.078-.74m0 0l2.844-.803m.59-15.866l.885 3.74m0 0l.645 3.766m0 0l.37 3.742m.11 3.71c.01-1.234-.028-2.472-.11-3.71m-2.49 4.617c.867-.303 1.757-.566 2.6-.908m0 0c.787-.305 1.59-.586 2.343-.96m2.068-1.02l-2.068 1.02m2.068-1.02c.6-.32 1.178-.688 1.753-1.068m-23.93-16.102l-3.114.39m3.115-.39c.997-.153 1.995-.312 2.99-.48m0 0l2.84-.55m0 0l2.677-.646m2.472-.685c-.83.208-1.65.455-2.474.687m1.327-8.372c-.65-1.09-1.326-2.17-2.007-3.25m3.815 6.647c-.554-1.158-1.198-2.276-1.808-3.397m3.415 6.914c-.476-1.195-1.06-2.35-1.605-3.518m1.605 3.517l-2.268.77m2.267-.77c.688-.258 1.356-.527 2.026-.808m0 0c.61-.255 1.214-.55 1.793-.87m0 0c.516-.292 1.036-.576 1.532-.897m-3.988 6.204l-1.363-3.63m2.508 7.324c-.354-1.24-.744-2.465-1.145-3.695m3.99-6.206c.435-.308.853-.615 1.25-.963m0 .002c.342-.312.656-.653.98-.98m.7-.998l-2.027-3.208m1.327 4.205l.7-.996m0 0c.168-.32.288-.673.4-1.015m1.354 4.374c-.563-1.133-1.165-2.246-1.754-3.36m3.188 6.83c-.453-1.168-.937-2.322-1.434-3.47m-6.105-9.61c-.836-.974-1.676-1.938-2.57-2.86m4.893 5.902c-.757-1.037-1.533-2.043-2.324-3.043m4.75 5.236c.07-.33.108-.677.115-1.012m0 0c-.02-.346-.08-.69-.182-1.02m-.46-.976l.46.977m5.274 20.697l-.48-3.65m-1.294 9.644l-1.435 1.105m2.56-2.266l-1.125 1.16m1.774-5.993l.14 3.67m-.79 1.162l.79-1.163m0 0l.466-1.18m-3.025-13.313l1.125 3.56m.813 3.613l-.813-3.614m1.9 9.754c.075-.334.123-.673.127-1.014m-36.615-30.32l1.814-.226m0 0c.567-.087 1.144-.187 1.72-.276m0 0c.554-.073 1.103-.197 1.652-.314m0 0c.515-.114 1.024-.23 1.535-.347m0 0c.495-.123.96-.25 1.438-.41m1.31-.422c-.863-.817-1.754-1.633-2.658-2.383m1.348 2.804c.46-.12.873-.26 1.31-.423m1.177-.46c-.395.152-.786.308-1.18.46m1.18-.46l1.037-.5m0 0l.9-.52m-.593 4.117c-.776-.93-1.67-1.78-2.523-2.637m4.886 5.48c-.757-.976-1.567-1.9-2.363-2.843m4.58 5.902c-.738-1.017-1.467-2.048-2.217-3.06M256.708 3.594l-2.973-.9m2.973.9l2.968 1.238m0 0l2.914 1.526m2.837 1.83c-.89-.672-1.888-1.227-2.837-1.83m5.606 3.95c-.876-.75-1.83-1.467-2.77-2.12m-.327-3.45c-1.238-.36-2.49-.676-3.748-.993m7.394 2.302c-1.222-.397-2.43-.912-3.647-1.31m7.192 2.92c-1.178-.55-2.36-1.084-3.546-1.61m-11.192-2.987l-3.818-.365m7.616 1.05c-1.245-.27-2.53-.47-3.798-.686m24.382 11.07c-.977-.85-2.007-1.637-3.044-2.416m5.848 5.053l-2.805-2.637m-7.965-2.918l.72-.527m-.002 0l.593-.56m-2.988-2.466c1.108.663 2.264 1.27 3.395 1.9m-.406.567c.138-.186.272-.374.406-.565m0 0l.24-.596m-.24.595l3.206 2.156M276 8.39l-.073.57m-.02-1.142l.093.573m-.093-.572l-.275-.596m0 0l-.425-.55m0 0l-.592-.55m3.046 1.64l2.878 1.934m0 0c.342.273.686.543 1.037.813m-6.96-4.387l-3.226-1.366m3.225 1.366l-.756-.537m0 0l-.904-.52m-.496-.235l.496.234m1.66 1.06l3.045 1.64m-13.1-4.8c-1.188-.166-2.36-.296-3.556-.405m3.556.403l3.472.743m0 0l3.357 1.05m-14-2.287l-3.654.223m7.268-.134c-1.198-.105-2.416-.078-3.615-.09m-1.164-.504l-2.49.727m4.964-1.11l-2.475.383m4.91-.435l-2.435.052m4.793.204c-.8-.117-1.557-.204-2.36-.255m3.317.48l-.957-.224M255.728.77c-.21.1-.432.205-.644.312m.644-.31c.11-.008.224-.01.333-.017m-1.662.954l-.663.982m.663-.983l.686-.628m-1.35 1.61l-1.325-.923m0 0l-1.312-.593m0 0l-1.29-.254m-.85.013l.85-.013m13.317 86.5l-1.788.234m1.788-.233l1.712-.295m1.646-.336l-1.646.335m3.18-.71l-1.533.374m2.952-.795l-1.418.42m7.59-3.777l2.2-1.88m-4.558 3.486l2.36-1.607m-2.36 1.606l-2.51 1.287m-1.304.462l1.306-.463m.922-.366l-.923.367m0 0l-1.103.462m-2.678-8.874l3.117-.4m2.972-.497l-2.973.497m5.81-1.068l-2.838.568m2.838-.57c.89-.213 1.773-.42 2.662-.648m2.466-.723l-2.466.723m6.1-4.413l-1.383 2.9m-2.25.79c.752-.253 1.502-.517 2.25-.79m0 0c.682-.274 1.347-.562 2.03-.85m0 0l1.766-.89m1.532-.936l-1.532.937m-5.402 4.417c.55-.89 1.093-1.78 1.607-2.678m-1.606 2.678l-1.824 2.412m-2.027 2.177l2.026-2.177m7.935-21.282c.085-1.212.124-2.416.124-3.632m-.53 7.17c.173-1.178.3-2.348.407-3.538m-1.07 6.953c.25-1.133.462-2.267.664-3.414m-1.566 6.678c.305-1.076.695-2.16.903-3.264m-2.05 6.34c.404-1.02.788-2.037 1.147-3.074m10.935-13.1l-.85 3.527m.002 0l-1.14 3.407m-1.457 3.308l1.458-3.308m2.662-14.16l-.18 3.628m-.495 3.597l.495-3.597m-7.373 19l-1.26.996m2.236-1.994l-.977.998m3.08-4.498l.354-.66m-1.975 3.48l-.48.68M209.6 46.016l-.134-1.013" fill="none"/><path fill="#fff" d="M240.77 87.02l.204.053-.073-.02-.075-.017-.07-.017-.022-.025.037.025zm.72.143l-.17-.034-.017.016-.075-.017-.16-.04-.08-.018h-.015l.073.017.035.02h.008l.033.02h.074l.18.048.26.08.015-.02.15.033-.056-.033-.255-.074zm-22.21-52.565l.148-.4.09-.664-.09-.094-.258.422.054.273-.054.463h.11zm.717-1.452l.266-.482-.17-.462-.02.074.035.367-.146.376.035.126zm-.404-.985l-.073.282.442.077.052-.19-.217-.15-.204-.02zm22.432 29.974l-.28-.253-.644-.093-.574-.26-.974-.883-1.09-.726-1.09-.106-1.418-.55-.813.09.11-.39-.35-.455-1.18-.637-.867-.4-.515.387-.04-.74-1.197-.33-.2-.26.495-.516v-.515l-.367-.185-.328-1.365-.155-.462h-.232l-.095-.326-.663-.773-.462-.28-.22-.125-.67-.34-.515-.07-.07.122-.74-.33-.22-.31-.295-.448-.247-.066.022-.39-.33-.596-.37-.38-.2-.24-.313-.06-.02-.625-.404-.498-.445-.185-.146-.4.496-.103-.665-.18-.676-.153-.046.185-.327.147-.4-.22-.262-.442-.557-.106-.452-.167.016-.26-.278-.53-.333-.14-.09-.577-.204.157v.388l-.645.078-.058.568.105.333-.16.505-.227-.04-.086-.67.256-.35.074-.39-.11-.404.297.026.03-.17.15-.226-.09-.24-.164-.106-.28.253-.222.095-.407.242-.348-.202-.054.128-.276-.114-.298.246-.182.586-.04.26h-.186l-.39.366-.2-.127-.128-.272-.087-.295-.17-.223-.204-.133.016-.066-.2-.152-.164.153-.24.02-.19.11-.18-.063-.072-.235-.052.037-.13-.116.037-.147-.095-.347-.113-.4-.087-.397-.017-.456-.017-.144.017-.23.104-.147v-.197l.093-.296.078-.043.054-.347.017-.205.094-.31.093-.276.13-.206.037-.294.055-.146.033-.057-.034-.262-.093-.182-.036-.22-.076-.208-.038-.048-.126-.185-.073.013-.074-.03-.072-.117-.074-.094-.06.062-.126.014-.13-.092-.112-.162-.05.02-.017-.094-.077-.042-.093.075-.018-.048-.06-.154-.053.095-.056-.203.128-.225.057.02.092-.148.145-.347v-.074l.113-.246v-.12l.146-.28.062-.203-.062-.037.034-.11.06.038.015.236.244-.513.143-.274-.014-.165.22-.41.296-.315.127-.328v-.208l-.204-.066-.22-.207-.313-.056-.24.056-.115.164-.237.593-.184.37-.26.165-.16-.02-.21-.026-.18-.103-.244.017.02-.384-.122-.422.053-.44.106-.463.094-.668.16-.59.1-.41.13-.42.147-.314.428-.92.233-.44.353-.537.076-.26.16-.353.225-.456.2-.264.243-.198.31-.093.427-.315h.238l.13.066.057.305.218.085-.036.5.15.17.16-.056.04.167.073-.04.04-.187.148-.273.057-.21.145-.026.2.088.187.255.335.134.07.28-.038.402.037.077.445-.133.07.184-.053.724-.11.44-.273.426-.08.297-.093.623-.09.716.054.24-.072.333.134.186.147-.037.252-.39.13-.273.22-.462.186-.922.147-.29.077-.594.184-.65.182-.51.298-.463.364-.34.354-.22.59-.252.167-.21.295-.16.205.037.438-.298.463-.014.5-.415.333-.69.093-.26-.076-.094.367-.63-.106-.328.17.215.18-.454.24-.258-.297.565.022.334-.376.405v.04l.523-.445.253-.203.147-.257-.017-.162.15-.372.014.205.062.072-.075.185.55-.41.367-.44-.09-.077.224-.126-.06.078.224.086h.61l-.018-.164-.593-.087.413-.06.213.04.188.033.334-.014.162.087.313-.02.147-.18-.02-.188-.11.265-.144-.077.092-.393.22-.35.148-.106.438-.308.5-.06.52-.095.602-.188.062-.22.48.058.624.16-.993.343-.318.55.26.13.72-.34.55-.144 1.13-.13.74-.294-.134-.294.236-.48-.825.613-.703-.092-.316-.462.17-.514.333-.704.606-.313-.108-.39-.57-.113-1.093.264-1.108.606h-.365l.794-.43 1.068-.622.628-.13.61-.328.39.07.513.165.698.33.7.074.796-.384.753-.058.428-.144.404-.17.39-.68-.022-.264-.24-.14.188-.534-.115-.243-.44-.277-.07-.405-.187-.427.404-.315.188-.75.2-.796.202-.515-.402.188-.796.494-.684.145.093-.367-.15-.166.555-.664.438-.42-.385-.188.15-.226.038-.38-.023-.246-.312.054-.163-.127-.188-.276-.255.037-.85.76-.426.456-.85.387-.165.496-.308.522-.34.347-.51.296-.652.24-.626.055-.132.37-.72.92-.66.5-.37.077.164-.703.446-.696.5-.575.513-.43-.145-.16-.29-.24.05-.336-.034-.287.164-.32.073-.296v-.42l-.313-.078.428-.404.53-.48-.05-.24.75-.497.555-.274.852-.35.66-.202.223.07.42-.258.375-.094.22.113.57-.17.334-.142.663-.246.367-.16-.056.2.274.055.726-.13.33-.16.24-.267.44-.14.315-.188.147-.276-.095-.168-.11-.125-.72.39-.66.254-.613.168.35-.318.536-.236.314-.315-.663.146.698-.328-.017-.22.403-.096.684-.44.26-.204.02-.15-.592.134-.792.328-.2.203-.368.298-.72.3-.058-.094-.588.217.66-.312.128-.238-.165-.015-.44.202-.057-.13-.182-.094.256-.28-.094-.07.368-.258.148-.13-.088-.036-.04-.095-.262.04-.288.2-.37.06.425-.26-.11-.04-.058-.196.182-.212.332-.013.386-.236v-.062l.172-.164.346-.274.39-.203.113-.114-.19.043-.032-.075.55-.163-.39.03.757-.295.135-.07-.323.07-.085-.017.352-.13-.017-.07-.154-.042.247-.127-.062-.037h-.165l.207-.09.5-.19.403-.166.24-.086.405-.154.11-.055.18-.07.372-.13.52-.16.106-.062.374-.093.106-.017.33-.11h-.034l.372-.078.388-.09.017-.034.2-.056.168-.06.146-.035v-.017l-.17.033-.07.02h-.074l-.075.022-.07.02-.072.018-.077.017-.074.02-.094.02-.073.02-.07.015-.077.014-.073.026-.074.02-.072.013-.073.017-.073.017-.078.02-.07.023-.074.018-.093.018-.07.017-.076.02-.076.015-.074.02-.076.018-.077.017-.066.02-.074.014-.072.027-.078.015-.07.03-.073.02-.072.028-.077.014-.073.017-.078.018-.065.02-.095.037-.073.02-.08.017-.068.02-.073.022-.074.018-.075.034-.072.018-.078.01-.076.026-.07.02-.078.03-.076.018-.073.024-.075.017-.065.033-.078.027-.077.013-.074.018-.074.036-.07.02-.073.022-.078.034-.073.02-.067.017-.076.038-.08.018-.07.017-.075.037-.073.023-.074.018-.072.032-.07.02-.077.034-.06.02-.068.02-.074.037-.073.017-.078.04-.076.015-.066.023-.073.037-.072.016-.076.038-.072.02-.076.034-.077.02-.07.037-.073.016-.077.04-.074.02-.056.035-.07.02-.074.034-.074.023-.073.037-.07.018-.076.033-.074.02-.073.036-.074.02-.06.04-.068.034-.073.02-.078.034-.076.02-.074.042-.07.03-.07.022-.06.034-.074.037-.073.023-.074.032-.07.018-.076.043-.073.033-.056.018-.073.036-.07.04-.072.034-.074.014-.076.047-.054.03-.076.023-.075.034-.073.037-.073.04-.073.016-.055.038-.055.017-.18.093h-.007l-.013.007-.356.174-.182.092h-.007l-.003.007-.103.054-.997.5-.388.216-.315.188-.198.106-.646.37-.7.423-.552.334-.358.206-.29.2-.313.204-.608.425-.5.33-.445.333-.334.224-.588.438-.496.425-.352.274-.796.725-.017.014-.495.427-.48.41-.108.066.59-.515.368-.373-.095.078-.293.255-.516.447-.74.642-.46.423-.463.428-.418.408-.426.442-.425.438-.376.388-.344.387-.405.447-.502.586-.22.285-.092.106-.74.92-.567.756-.24.356-.113.123-.147.246-.146.218-.095.145-.124.187-.097.166-.286.462-.23.345-.403.634-.35.575-.273.473-.28.476-.126.284-.316.625-.163.273-.11.144.053-.106-.033.032-.24.5-.113.28-.108.223.033-.06-.185.447-.11.295-.187.388-.233.478-.092.278-.164.478-.187.517-.185.466-.018.05.11-.165.055-.11.146-.382.135-.396.018-.126.164-.35.164-.366.15-.355.33-.683.188-.462.134-.274.11-.232.236-.448v-.034l.127-.24.04-.074.087-.185.297-.593.185-.333.294-.472.208-.335.14-.224-.14.3v.026l-.188.39-.146.24-.314.555-.316.576-.106.216-.208.41-.196.46-.044.167-.237.493-.184.448-.073.257-.21.367-.085.204-.13.463-.185.52-.223.735-.273.863-.133.424-.11.295-.11.39-.088.243-.077.124-.07.22-.06-.015-.108.393-.133.55-.073.642-.076.408v.462l.037.164-.036.243-.017.527.037.572.055.278.037.532.075.32.054.328.114.058.22-.093.107.052.11.372.04.35.036 1.037.054.422.073.233.147.15.095.234.036.225.13.17.067.24.078.145.168.13.053-.15.078.134v.27l-.016.047-.038-.154-.057.094.075.447.07.308.023.295.088.41.054.293-.094.106.056.15-.076.23-.027.216.013.164.09.145.038.263.096-.132.015-.242.06.194-.02.236.096.164.106.224.077.245-.022.176-.057.1.058.197.146.278.034.148.044-.167.145.094.072.143.127.14.04.35.126.11.06-.11.016.477.167.073.073-.094.11-.034-.132-.5.062-.127.086.017.164-.106.11-.23.188.034.168.318.034.295.092.094-.126.145.054.443.114.295.112.482.014.658-.106.15.03.718-.108.395.15.25-.167.313-.2.374-.21-.035-.09.203v.39l-.148-.02.06.254-.282.153-.22.04.04.312-.146.404-.075.4-.114.044.073.7-.074.166.24.438.13-.265.093.375-.17.428-.273.287-.074.446.242.772-.075.26.295.442.33.63.198.588.208.405.594 1.59.626 1.47.534 1.073-.02.163.31.648.427.573.965 1.065 1.063 1.017.112.295.57.556.39.943.37 1.042.39 1.33.362 1.18.462 1.108.094.61.424.715.133.41.59.844.313.722.294.716.365.723-.123-.054.462.57.48.498.108.257.645.798.494.59.278.147-.42-.503.328.222.72.815-.518-.295.626.646.13.218.593.313.04.163.35.314.863.65.46.292.226.17.404.26.624.346.646.35.422.213-.295-.14-.715-.368-.335-.182.94.534.56.274.623.314.366.147.35.16.206.094.164.06h.094l-.094-.072.337.147.255.093-.073-.115-.557-.208-.684-.308-.496-.298-.327-.183-.28-.107-.09.017.237.185.075.073-.194-.087.1.028-.404-.273h.094l.034-.035.276.11.17.058-.48-.26-.576-.39-.092-.107.13-.025-.295-.328.185-.07-.26-.277-.424-.208-.662-.38-.208-.26.095-.112.353.132-.114-.182-.336-.41.075-.146.28-.027-.316-.25-.113.076-.39-.227-.416-.44.055-.075.53.3.39.073.15-.1-.26-.232-.167-.313-.295-.298.537.183.846.168.553-.073.095-.482-.107-.217-.43-.28-.125-.312-.87-.596-.11-.234.446.354.354.05.565.332.26.02.44.18.444-.147.076-.25.236-.228.02-.42.274-.165.336-.314.292-.81.314-.228.055-.242-.075-.534-.18-.328-.037-.4.364-.49.63-.327.668-.055.402-.198.976-.076.72.094.09-.333.503-.207v-.59l.567-.715V70.4l.202-.222.023-.41.067-.956-.16-1.238.16-.46h.168l.494-.515.41-.725.983-.844.345-.428.257-1.124-.146-.42-.295-.924zM225.127 11.28l.37-.31.366-.338.33-.268.244-.188.2-.185.17-.145.294-.24-.132.09-.368.282-.254.222-.182.146-.337.274-.238.207-.463.438v.016zm12.32 7.547l.167-.146-.167-.057-.462.134-.438.294-.997.885-.552.295.072.22-.394.17-.052.205.79.202.482.072.338.237-.463.244.236.067.795-.453.072.106-.365.514.235.188.227.02.455-.534.057-.445.11-.345-.35.05.37-.438-.313-.288-.277.113-.28-.254.26-.187-.185-.18-.384.145.568-.482.445-.35zm-7.766-11.05l-.293.188-.257.163-.158.107.603-.364.106-.093zm9.487 1.095l.197.068.298-.068.09-.057.262-.17.037-.167-.223-.02-.406.206-.253.208zm-10.202-.632l-.017.014.023-.018-.005.004zm-.164.115l-.373.256-.07.055.592-.41-.15.1zm6.987 1.88l-.2-.15-.407.13-.13.15.093.073.538-.134.107-.07zm1.198-1.55l-.626.332-.533.312-.428.112.24.09-.314.278.535-.073.484-.13-.21.24.114.237.352-.057.07-.198-.16-.04.275-.2.02-.24.054-.24.093-.15-.167.02.255-.2-.055-.095zm7.18-5.353l.056-.086-.424-.02h-.48l-.222.106.055.076.273.037v.04h.257l.576-.113-.092-.04zm-8.36 7.473l.074-.112-.053-.06-.26.1-.058.034-.125.147.03.093.39-.202zm9.265-6.586l.2-.11.033-.034-.017-.074-.29.095-.282.086-.147.078.222.033.28-.074zm-2.624.724l-.146.14.04.115.31-.074.202-.108.205-.134-.26-.018-.35.078zm2.343-1.146v.11l-.202.126-.037.113.292-.113.335-.11.222-.18.09-.11-.296.052-.164.112h-.24zm.294-.332l.038-.04h-.22l-.113.02-.018.074.146.036.166-.09zm-.81.033l-.263.113.223.054.225-.034.13-.095-.073-.052-.242.013zm2.656.608l.237.11.036.116-.327.015.017-.06-.11-.11-.334.13-.2.15-.264.076-.274-.027-.313.058-.034.13-.356.2.134-.218h-.093l-.48.186-.275-.015-.335.107.096.106.017.114.33.108.038.206.647-.056.15-.078-.164-.047.123-.077.318-.017.294-.093.316-.017.31-.062.238-.164.167-.018-.035-.092.31.077.186-.02.282.02.626-.17.29-.038.537-.107-.165-.058.182-.037.296.02.423-.075.15-.075v-.11l-.076-.07-.123-.073L249.63 4l-.078-.053-.274-.04.058-.038-.188-.056-.15-.017h-.18l-.405.07.15-.07-.02-.038-.314.02-.203-.02-.055-.04-.205-.015-.243.075-.164.09-.26.11-.166.128zm-2.492.37l.043.018.087-.017.096-.074-.075-.095-.188.076.038.093zm-10.913 14.39l.142.38.35.32.188.038.07-.114-.22-.354-.367-.287-.163.018zm11.84-14.626l-.243.127v.11l.148.076.648-.095.295-.02.14-.13.43-.164.054-.093.093-.107.332-.15-.11-.077-.147.06-.095-.02-.24.038-.35.055-.335.095-.2.107.073.072-.22.04-.273.075zm-3.14.127l.37-.06.35-.112.038-.07-.148-.02.28-.09.347-.095.097-.07h-.282l-.72.255.058-.107.457-.202.298-.226h-.205l-.7.078-.165.11.02.258-.294-.057-.263.074v.093l.315.07.148.172zm1.48.072l-.11.02v-.075l-.3-.018V4.31l-.587.168.112.077-.447.124-.073.094.134.077.568-.153.388-.11.314-.145zm-2.973 1.144l.24-.228.382-.07.21-.09-.168-.072.113-.134-.41.04-.44.24.016-.163-.225.068-.477.393-.252.147v.09l.344.014.668-.234zm-1.46-.15l.517-.2.706-.29.29-.17.114-.112-.13-.02-.757.28-.292.068.718-.295.237-.13-.383.042.383-.204-.18-.095.328-.05.164-.113-.37-.072-.273.033-.518.09-.26.17-.03.11-.21-.072-.294.104-.055.12v.145l-.2.197-.112-.047.08-.134-.1-.07-.056-.04-.61.292.06.046-.227.182-.347.16.033.134.112.164.26.076.057.074-.15.22-.056.202.276-.094.24-.16.13.11.313-.11.274-.274.316-.265zm-.955 1.236l.24-.165.108-.09.093-.095.147-.187-.35.094-.26.02-.255.24.13.033-.13.208.277-.058zm2.25-1.747l.5-.094.145-.094-.038-.093-.106.02-.502.262zm1.123-1.094l.13-.163.224-.13.034-.182-.494.164-.426.035-.482.077-.256.034-.537.257-.33.13.2.094.312-.072.462-.058.447.037.148.04.327-.147.24-.116zm-.608 1.917l.222.02.74-.16.034-.187-.093-.133h-.258l-.33.093-.37.134-.59.28.034.087.612-.133zm1.07 1.687l.234-.167.113-.244.02-.31-.368.07-.425-.02.445-.196.498-.444-.52-.02-.63.2.357-.258.494-.147-.4-.076-.353.06-.705.22-.662.33.11.093-.405.075-.168.186.058.168.036.254.295.335.32.067.256-.067-.112.188.093.09-.22.3-.24.05.114.278-.04.294-.13.185-.202.203-.793.314-.35.182-.153.167-.442-.095-.346-.14-.56.254-.05.218.625.17.162-.126.02.328.02.354-.24.107v.327l.188.445.46.426.13-.187.06-.388.126-.51.162.57.188.237.44-.328.337-.52.035-.15-.076-.31.076-.332.33-.258.33.034-.147.538.073.298.98-.43.403-.296-.31-.124.153-.503-.21-.195-.112-.425.61-.074.332-.444.056-.204-.16-.294.197-.295-.403-.036zm.622-1.205l-.234.112-.22.242v.032l.22.02.11.075.112.073.164-.112.145-.273-.182-.168h-.114zm.93-.333l.234-.13.153-.16-.092-.114-.24-.073-.274-.04-.06-.093-.056-.088.132-.09.094-.118.274-.095.185-.106-.115-.11.187-.123-.033-.114-.313.067-.186.134v.13l-.265.17-.35.12-.367.172-.058.238.038.133.168.11.37.105.03.113.3.02.244-.058zm-11.416 14.927l-.04.235.334.41h.167l.34-.21-.364-.088-.236-.17.057-.33-.26.152zM219.095 37.81l.278.086.314.02.093-.144-.22-.443-.3-.163.092-.206-.182-.255-.13-.042-.145-.46-.167-.608-.072-.24-.376-.088-.054-.328-.24-.437-.255-.165-.276-.22-.11.046-.26-.082-.215.037-.19.077-.17.2-.237.126.094.15.18.018.115-.14.13.067.365-.234.315.234-.202.107.074.213.402.362.06.2.255.367.22.094-.032.466.057.277.22.168.112.275-.39.273.59.202.258.19zm63.543-10.353l.242.247.22.018.243-.446-.04-.053-.087-.11.086-.405-.223.344-.277.095.037.203h-.037l-.165.107zM267.44 17.023l-.056-.535-.29-.26-.43.29.188.244.59.26zm-46.963 23.242l.294-.448.19-.034.032.204.187.02.114-.096.148.096.236.035.185.242.26-.24-.187-.352-.2-.11.074-.208-.26-.09-.015-.295-.13-.02-.227-.294-.35-.15-.088.116-.357-.275-.253-.146-.148.16.237.243-.09.277.133.403-.208.09-.314-.18-.366-.28-.113.222.17.333.24-.055.26.163.22.04.258.24-.023.222.092.167zm15.846 44l-.074.058-.4-.145-.21.055.353.185.13-.042.315.15.384.034-.018-.073-.48-.22zm33.477-59.5l-.217.32v.273l.274.44.295.118-.035-.575-.317-.574zm-6.046-5.848l-.575-.05-.223-.244-.494-.662-.336-.07-.605-.686-.06-.054h-.458l.2-.572-.052-.48-.442.034-.39.11.222-.662-.44.094-.332-.022-.186.505.014.605.302.295.18.593.148-.313.188.168-.078.274.15.163.55.057.02.02.405.346.035.374h-.676l.014.4.352.332-.44.246.203.237.757.033-.39.188-.533.737.294.113.274-.278.46.028.242-.326.258.094.74-.255.625-.06.298-.39-.298-.29.17-.22-.093-.413zm15.788 9.757l.608-.253-.034-.22-.205.166-.042-.134-.345.057-.33.147-.368-.165.053.315.605-.018.06.104zm-26.435-18.92l-.37-.018-.68-.04.334-.24-.036-.313.273.257.188.188.462-.073-.077-.37-.294-.3-.308-.105.14-.11.445.187.017-.204-.26-.294h.293l.34-.078.07-.15-.242-.162.464-.038-.26-.37.205-.033-.034-.355-.354-.205.313-.123.26-.02-.206-.262-.014-.422.106-.24.147-.255-.296-.02.406-.057.072-.093.445-.258-.11-.148-.352-.06-.538.154-.31.126.145-.204-.072-.123-.22.106-.294-.133-.4.027-.024-.073h.98l.18-.13-.534-.26-.664-.074h-.314l-.2.093-.294-.06-.482.147-.167.13.054.2-.092-.124-.105-.055-.075-.15-.463.128.04-.11-.273-.05-.335-.027-.328.026-.21.126h-.165l-.704.11-.294.078.06.18-.24.095-.627.03h-.667l-.238.117-.02.2.318.244-.265-.06h-.46l-.184.256-.035.154.35.09.37.07.253.114.113.314-.203.147.038.182-.275.463-.168.298-.03.182-.635.333.073.15.266-.02.032.16.127.354-.347-.2-.205-.04-.292.227-.277.29.143.2.262-.015.188-.062.4-.104-.347.35-.24.16-.516.114-.702.476.017.205-.39.333.023.517-.298.462-.09.35.073.737-.113.556.13.347.686.114.276.517.514.035.44-.518.37-.42.077-.445.735-.354.332-.334.184-.368.406-.274.497-.07.46-.09h.228l.768-.3.597-.5.348-.17h.314l.89-.124.827-.353.747-.4zm43.147 22.782l.01.048-.034-.108-.4-1.25-.295-.812-.315-.83-.24-.596.202.724-.02.077-.33-.54-.105-.35-.115-.206-.255-.328h-.093l-.24-.42-.275-.355-.023.516-.11.372-.07.384-.302.188-.218.072-.203.147-.462-.737-.127-.04-.078.296v.53l-.326.024-.465-.335h-.29l-.483-.517-.626-.756-.076.207-.254-.094.053.33-.17.07.206.265.054.178.352.448.39.535.185.055.168.2.295.17.146.273.07.24.152.222.14.133.135.2.112.14-.247-.49-.105-.424.04-.132.158.17.19.387.127.46.167.244.02-.08.09.18.11-.274.168-.143.134-.114-.076-.612-.078-.605-.093-.555-.075-.288.06.03.107.315.04.152.275.516.294.367.19.146.145-.08h.128l.24.302.13.187h.07l.076.16.104.494.06.23.04.307.127.577-.074.05.035.23.114.385.185.442v.103l-.05.095-.02.415.085.36.02.2-.105.14-.02.273.09.273-.024.318-.12.055-.06.385-.095.15-.086.35.052.35.055.257-.145.536-.295.682-.107.702-.112.148-.094.017-.094.425-.16.28-.244.223-.054.086-.038.242-.052.113-.02.22-.168.09-.075.167-.24.113-.166-.393-.073-.404-.105-.182-.188-.5-.18-.236.072-.09-.133-.317.017-.167-.11-.31-.13-.282-.144-.163-.113-.28-.26-.16-.346-.503-.273-.55-.408-.368-.205-.042-.46-.554-.22-.49-.133-.445-.496-.682-.28-.2-.255-.063-.277-.346-.036-.167-.26-.328-.16-.11-.37-.465-.47-.48-.4-.41-.188.093-.107-.4-.093-.262-.074-.312-.053-.094.017.337.15.574.036.422-.037.167-.228-.194-.313-.236-.717-.898-.023.073.483.698.554.61.737.995.294.332.295.352.646.642-.038.166.188.463.68.44.11.134.372.64-.06.186.3.72.383.81.205.114.295.168.445.757.273.623.294.24.65.423.295.318.274.31.167.19.22.124.11.185.058.314-.166.295.187.106.13.078.126.257.2.223.167-.112.262-.39.315-.33.2-.408.13-.166.074-.2.144-.144.093-.096.095-.202.135-.2.05-.354.09-.093.057.202.053.444.072.384v.317l.057.867v.92l-.037 1.09-.135 1.27-.163 1.012-.298 1.26-.292.83-.458 1.046-.316.76-.385 1.124-.094.45-.094.215-.257.428-.11.367-.13.127-.09.54-.137.36-.103.52-.188.313-.258.993-.017.39.218.133v.187l-.166.47v.212l-.072.347.06.368.052.61.106.07v.285l-.146.694-.07.596-.238 1.07-.024.294-.236.533-.274.552-.354.533-.423.442-.516.534-.685.923-.184.2-.44.587-.223.225-.18.482.012.386-.06.33-.066.185.09-.06-.26.614-.18.31.03.074-.164.28-.254.295-.43.346-.63.56-.292.29-.073.226h.093l-.187.334-.314.455-.292.506-.24.313-.423.4-.13.116-.333.35-.276.327-.463.505-.788.73-.496.434-.485.342-.574.354-.24.11-.145.16h-.22l-.295.19-.438.055-.312.14-.188.027-.595.348-.456.18-.407.282-.24.074-.11-.13-.147.038-.095-.164-.07.072.015-.11.15-.296.016-.32.21-.123.18-.406-.094-.4-.073-.388-.09-.61-.24-.335-.07-.345.07-.538v-.367l.094-.87.203-.702.02-.308-.168-.208-.188-.445-.147-.662-.034-.368-.366-.52.053-.478.015-.402.186-.575.316-.647.09-.29.297-.646.185-.294.426-.517.255-.355.134-.516.02-.37-.17-.2-.128-.388-.11-.39.05-.15.226-.31-.147-.643-.095-.447-.295-.368.074-.17-.075-.2-.15-.493-.497-.646-.657-.612-.427-.514-.405-.688.018-.258.146-.25.164-.56.154-.573-.132-.09.222-.885.073-.59-.274-.462-.32-.07-.144-.316-.186-.073v-.208l-.7.388h-.26l-.256.21-.555.07-.39-.404-.258-.514-.515-.43-.538.077-.627.093-.59.168-.572.22-1.124.588-.403.297-.67.29-.663-.15-.326.04-.54-.107-.478.054-.887.2-.517.263-.757.333h-.15l-.2.014-.796-.312-.697-.538-.66-.384-.517-.466-.206-.048-.57-.28-.408-.386-.134-.277-.104-.572-.352-.438-.295-.277-.202-.095-.186-.15-.094-.347-.116-.168-.237-.108-.404-.32-.34-.053-.16-.202v-.135l-.24-.14-.054-.165-.134-.594.094-.348-.31-.594-.387-.274.327-.15.368-.558.166-.402-.07-.423.2-.388.073-.74-.094-.76-.088-.38.054-.392-.2-.365-.39-.335.02-.326.034-.357.277-.218.22-.404-.05-.26.236-.555.367-.496.24-.127.167-.463v-.407l.236-.496.466-.295.382-.79h.02l.332-.32.627-.106.504-.56.313-.217.493-.666-.237-.934.186-.648.037-.41.362-.534.595-.388.436-.336.322-.81.106-.455.463-.044.43.298.567-.11.662.11.258-.017.52-.466.61-.202.313-.328.516-.29.943-.262.942-.188.308.073.444-.367.586-.094.277.128.372-.108.494-.388.407.02.093.368.37-.348.096.127-.152.402.093.336.26.153.13.643-.265.423.223.37.3-.036.254.335.245.07.718.124.22-.11.5.022.81.18.464.597.53.036.85.123.684.22.187-.233.127-.404-.313-.54.015-.384.245-.426.295-.185.716-.04.294.26.168-.036.203.072.5-.053.217.196.612-.197.498.034.534.073.237.033.24-.345.087-.258.356-.208.33-.014.26.295v-.26l.387.033.327-.087.114-.263v-.274l-.053-.034-.06-.375-.16-.555-.042-.202-.14-.622-.093-.572v-.016l-.316-.522-.073-.315-.293-.232-.02-.318-.168.15-.39-.016-.03.5-.525.29-.51-.24-.425.142.055.322-.243.18-.57-.222-.44.168-.588-.608-.5-.28-.076-.59-.442-.237.114-.796.59-.24-.128-.544.75-.194.168-.586.298-.333.53-.263.87.208.61.038.294-.277.277-.095.11-.495-.167-.294-.37-.39-.33-.15-.2.016-.26-.127-.74-.33-.515-.07-.517-.247.13-.203-.145-.623-.35-.15.2-.458-.115-.115-.165.21-.183.16-.04.28-.258.16-.07.334.294.388.257.073.292-.184.095.26-.25.26-.17.535-.275-.06-.137-.31-.494-.037-.02-.15.167-.332-.204-.093-.606.04-.207-.22-.235.2.108.388.04.555.128.16-.095.195-.155-.024.397.814-.02.33.153.52.326.328.202.242.462.093.017.18-.438.204-.062.26-.12.46-.3-.253-.074-.153-.262.06h-.253l-.41.328.484.295-.148.166-.245.078-.405-.276-.014.167.308.39.375.26-.092.188.4.247.316.134.207.385-.5-.07.294.31-.255.165.46.576-.32.094-.51-.207-.428-.516-.274-.44-.327-.264-.43-.334-.112-.18-.106-.042-.075-.146-.373-.16-.182-.315-.18-.482-.04-.22-.128-.093-.133-.018-.22-.188-.26-.09-.55-.144-.37-.185-.514-.113-.608-.41.055-.065-.333-.226-.11-.224-.35-.058v.318l-.242-.188-.095-.24.076-.093-.406-.015-.257.315.167.314.034.2.294.314.59.257.48.5.772.438.373-.092.183.133-.076.17.538.14.426.13.568.26.112.127.02.26-.41-.26-.46-.018v.5l.46.166.095.39-.182.093-.02.644-.183.113-.094-.227-.034-.383.033-.188-.35-.347-.297-.336-.24-.04-.278-.25-.364-.077-.317-.22-.39.02-.507-.245-.633-.345-.48-.342-.423-.638-.278-.04-.482-.172-.2.137-.164.372-.185.067-.314.46-1.086-.032-.685.328.075.43.144.406-.385.517-.664.24.018.235-.24.44-.094.595.334.39-.257.36-.033.482-.41.188-.295.61-.777.068-.568.042-.335.298-.18.294-.314-.04-.26-.224-.236-.42-.596-.072-.22.217-.328-.094-.315.118.038-.593-.13-.444-.273-.052-.168-.258-.022-.48.205-.277v-.298l.052-.428-.052-.312-.145-.24-.06-.238-.035-.515-.276-.278.718-.553.685.075.734-.054.608.07.442-.07.89-.072.182-.448-.257-1.358-.72-.67-.463-.294-.834-.178-.163-.485.607-.206.87.092-.37-.735.53.24.965-.62-.057-.542.352-.183.315-.164.165-.204v-.978l.476-.335.354-.033.016-.146.318-.092.145.126.13-.35-.204-.198-.2-.335-.31-.313-.332-.59-.026-.167.026-.207.29-.088.04-.166.2-.222.17.294v.2l.122.17.264.034.037.24-.146-.036-.04.463.263.274.127.227.462.068.11.227.332-.194.13-.215.57.168.297.14.146-.214.406-.407.315-.295h.422l.13.15.353-.075-.11-.28.327-.31-.42-.466-.314-.423-.11-.388.128-.257.59.332.235-.076-.29-.425-.24-.326-.054.086-.352-.128-.293-.294.237-.258.278-.188h.37l.26-.11.016-.39-.495-.146-.448.2-.29.336-.372.24-.404-.24-.422-.09-.39-.52-.533-.42-.146-.32-.06-.362.02-.685.056-.145-.242-.187-.55-.108-.256.242.09.38.33.274-.053.507-.15.55.39.77.495.314.538.225.184.686-.24.2.534.96.167.57-.46.036.074.496-.41.117-.44-.52-.702-.594-.75-.754-.448-.296-.308.758-.43.216-.643-.216-.442-.586-.782-1.238.114-.388.552-.576.243-.622-.02-.777-.147-1.034.07-.427.038-.693.24-.3.352-.056-.147-.427.35-.067.197-.187.928.092-.06.188.54.178-.02-.203.61.133.567-.094 1.28.165.4.134.425.238.164.314-.094.242-1.23.012-.054.115.715.183.274.205.61.44.43.022.294.054-.26-.226-.37-.145-.11-.202.797.055v-.178l-.57-.247-.24-.586.166-.057.348.057-.367-.312-.5-.17-.317-.258-.494-.164.556-.116.42.17-.046.15.342.2.334.07.037-.22-.402-.255-.094-.332-.294-.575.09-.052.348.273.168-.053-.188-.184.113-.164-.22-.242.495.095-.418-.298-.466-.092-.22-.15.327-.147.266-.017.884.016-.372-.196-.388-.062-.16-.054-.078.07-.353-.163-.572-.163-.238-.077-.648-.354-.664-.254-.144-.087.165-.135.428.115.602.237.222.037.5.132 1.01.367.43.046.476.228 1.037.57.093-.055-.26-.147-.203-.16-.353-.172-.37-.202-.387-.09-.494-.22-.022.068-.41-.114-.748-.29-.58-.094-.51-.274-.532-.132-.023-.032.407.07.703.225.108-.04-.517-.11-.334-.205-.108-.147.336-.033-.572-.094-.774-.164-.226-.15-.092-.147-.223-.147-.31-.02-.558-.168-.095-.053-.478-.164-.275-.17-.207-.03-.273-.152.093-.016-.552-.15-.168-.065-.294-.05-.367-.072-.482-.108.036-.052.302.052-.154-.093.28.023-.24-.06-.334-.105v-.092l.092-.02.313.02.315.072.66.14.278.045-.094-.044-.073-.045-.24-.06h.28l-.204-.035-.33-.072-.424-.137h.18l-.68-.158-.333-.04-.31-.073-.3-.058-.092-.037h.147l.294.037h.02l-.202-.037-.574-.09-.1-.017h.066l.073.017.086.017h.074l.072.018.077.015h.077l.07.024.09.017h.074l.077.022.072.017h.073l.076.017.07.02h.095l.07.02.078.02.075.018h.07l.074.017.074.02.072.022h.094l.074.02.073.015.072.016.073.015h.075l.072.028.074.014.093.02.074.018h.08l.067.017.073.018.078.023.07.02.075.016.072.017.095.02h.072l.078.022.07.02.073.018.073.017.074.02.072.02.075.02.072.015.093.014.074.026.07.02.076.013.073.017.073.017.072.02.07.023.077.018.078.018.07.017.073.02.072.02.095.02.073.02.078.016.07.02.074.015.08.028.066.015.073.03.075.02.076.028.077.014.07.017.07.017.077.02.077.037.066.02.075.018.072.02.078.022.075.018.072.034.075.018.075.017.07.024.07.02.093.03.076.02.078.024.07.017.078.035.068.027.078.013.066.018.078.035.075.02.076.022.073.034.052.02.075.017.073.04.067.018.082.017.07.037.077.023.072.018.07.03.074.022.08.033.065.02.073.02.076.037.074.017.076.04.07.015.07.023.077.037.077.016.07.037.07.02.077.034.074.02.054.037.077.018.077.04.07.02.073.035.074.02.072.033.073.023.073.036.073.018.076.033.057.02.07.036.077.02.076.04.07.033.07.02.074.034.08.02.066.042.06.03.074.022.073.034.074.037.07.023.076.032.073.018.055.043.073.035.082.018.072.035.068.04.075.034.055.014.076.047.068.03.076.022.078.034.073.036.054.04.075.016.07.038.074.037.073.04.06.015.067.03.074.048.073.027.077.046.052.014.078.033.073.045.07.033.076.036.055.04.077.017.07.04.072.037.062.034.068.035.077.04.07.032.058.04.072.022.074.032.072.04.054.036.075.034.073.044.06.032.07.034.08.04.07.034.055.04.07.032.078.04.055.038.072.036.073.04.057.033.077.034.07.042.057.03.073.04.074.038.056.035.07.034.074.04.057.033.078.042.074.034.052.04.075.037.072.032.054.054.074.04.06.033.067.04.072.033.06.04.07.037.057.032.073.057.075.037.054.036.07.04.057.034.078.04.075.05.053.044.073.034.054.038.07.034.063.06.075.035.066.035.06.037.075.054.044.04.082.033.06.033.067.06.056.033.077.04.055.037.07.056.063.037.067.037.056.054.077.033.054.04.07.056.063.038.073.038.047.057.078.037.057.035.074.055.057.033.05.038.074.055.058.04.07.054.062.04.077.034.05.06.074.035.056.06.055.03.08.036.05.06.076.036.023.036.028.02.06.034.067.06.06.03.035.04.045.034.048.02.037.042.044.025.05.027.04.04.05.04.022.014.07.05.06.04.04.045.03.02.057.024.056.058.054.037.072.057.06.035.053.052.07.06.06.033.056.057.073.037.054.057.053.04.058.054.072.052.058.043.054.05.056.04.074.054.06.056.05.037.01.018.084.06-.036-.02.073.053.06.04.048.052.055.056.076.036.057.06.054.05.06.042.05.054.077.053.056.034.053.062.057.056.054.055.076.04.06.053.05.052.06.053.053.047.053.047.077.06.05.053.06.04.055.055.053.056.057.058.06.034.052.053.076.056.054.056.057.055.056.062.052.03.055.055.06.054.058.056.052.057.052.053.062.037.053.058.057.054.058.054.068.06.055.055.058.057.052.05.062.043.052.052.06.06.053.054.053.054.057.052.055.062.06.053.054.055.057.057.05.055.042.056.053.054.055.06.06.055.054.054.057.056.052.055.06.037.06.056.048.058.057.053.055.072.06.06.033.05.06.06.05.054.054.058.06.05.054.058.058.057.053.054.037.056.054.06.06.054.055.058.055.047.056.06.038.054.058.058.053.075.053.05.056.06.036.052.058.054.053.06.054.054.042.056.053.078.055.052.057.058.057.05.033.058.062.057.048.055.044.076.05.05.057.06.053.054.04.055.054.073.058.054.03.06.06.058.054.05.04.074.052.06.058.054.037.057.057.05.054.078.038.054.058.055.03.054.058.08.054.053.04.048.055.077.04.057.054.06.054.055.036.07.054.053.042.057.05.076.043.055h.053l.053.067.036.062.05.06.04.046.055.076.04.054.053.058.038.076.058.058.035.066.06.058.033.06.055.07.04.058.057.05.037.073.035.06.054.075.037.052.053.055.042.074.053.058.04.075.033.052.056.058.04.073.054.054.033.076.04.055.053.075.04.053.038.054.056.076.034.05.04.077.055.058.038.075.033.052.056.074.038.06.038.074.057.053.034.076.034.053.037.072.062.055.032.072.033.06.06.073.033.062.04.065.037.054.004.015.034.042.04.057.014.016.04.078.034.053.036.073.036.06.058.068.034.072.04.054.035.073.035.062.054.073.04.053.036.074.036.073.042.06.03.066.043.06.036.073.055.074.038.055.03.076.04.05.032.074.04.08.038.053.037.075.04.052.036.078.034.07.037.06.04.066.032.074.04.06.034.074.038.07.034.057.04.075.038.066.036.062.04.076.034.075.033.052.042.078.03.072.04.05.034.076.04.076.036.072.038.06.033.077.04.065.037.055.017.07.037.084.037.07.037.056.037.072.042.075.03.052.043.078.02.073.037.07.038.055.03.08.034.067.02.076.042.058.04.078.033.07.036.072.017.075.04.056.032.072.04.072.02.082.032.052.036.075.04.065.018.08.038.077.04.052.016.07.037.076.04.07.035.077.014.076.044.054.015.075.04.075.032.068.02.072.034.062.04.072.02.068.035.072.04.078.02.076.034.078.02.05.04.076.013.07.038.074.037.072.016.078.038.076.02.048.036.072.017.08.04.07.02.077.032.075.02.074.04.07.018.076.03.053.022.07.038.08.018.07.038.072.013.075.025.075.032.078.02.066.04.08.018.074.034.066.022.06.012.068.04.076.015.077.02.073.04.067.014.08.04.077.02.07.017.074.038.072.02.07.022.073.016.078.036.07.017.078.023.073.034.075.02.072.012.08.02.05.04.078.014.073.02.067.02.073.036.077.017.07.02.074.02.072.016.073.04.073.02.08.013.07.018.088zm-13.562-14.42l-.11.232.32.756.656.422.317.43.798.533.36.222.442.348.113-.033.185.11-.128.18.333.52.13.24.017.22.24.296.39.42.292-.032.35.186.35-.13.165-.463-.094-.168-.345-.4-.46-.666-.28-.078-.295-.455-.126.066-.375-.547h.282l-.022-.35-.4-.236-.337-.298v.298l.337.453-.37-.35-.132-.124-.168-.292-.2-.178-.37-.017-.533-.438-.24-.076-.168-.183.22-.09-.364-.426.054-.22.218-.06-.496-.59-.346-.314-.135.188h-.276l.04.404-.058.277.22.41zm13.705 14.915l-.026-.094.007.038.02.057zm-.126-.42l.022.073.01.023-.036-.123.005.026zm.09.29l-.015-.07-.02-.074-.024-.05.07.23-.01-.036zm-37.11-12.878l.756-.435.208-.597-.168-.435.128-.44-.576-.36-.348.058-.273.315-.52.514.37.63-.277.683.7.067zm-3.834-8.125l.037-.354-.54-.014-.474.273-.41-.135-.475.28-.48-.347-.477.048-.265.342.68.14v.155l-.587.086.7.275-.35.224.958.186.462.07.295-.09.962-.39.367-.423-.404-.326zm18.482 16.597l.495.18-.037-.385-.144-.202-.04-.61-.367.15-.48.184-.63.06.055.382.867.208.28.032zm-3.93-1.827l.294.85.278.167.126-.274h.262l-.262-.943-.494-.444-.168.258-.294.02.258.367zM218.023 38.45l-.07-.052-.187-.034-.095.14.15.396.186.222.168-.078.274.13-.018-.24-.164-.273-.243-.21zm76.163 20.273l-.11.42-.257.6-.095.016-.036.255-.183.414-.336.603-.272.514-.127.095-.153.2-.22.26-.164.13-.172.46-.217.448-.183.582-.075.393-.036.258-.188.414-.33.597-.088.227-.188.2-.24.498-.168.438-.11.425-.218.557-.074.274.128.058.087.036.372-.438.298-.298.457-.83.5-.955.662-1.363.46-1.014.377-.873.2-.57.106-.22.114-.298.11-.46.11-.256-.034.327.104-.233.113-.353.018-.262.18-.79.06-.4v-.246l-.014-.22-.168.38zM259.676 5.64l.236.078.044.104.33.02.05-.2-.272-.018-.244-.11-.144.126zm-.37-.054l.096-.206-.72-.128-.293-.073-.15.04.107.11-.168.028-.206-.085-.182.18.408.248.608.234.315.058.03.144.577.15.147-.037-.308-.315.025-.093-.288-.256zm-.85-.66l-.163.16.335.113.16-.043.15.078.405-.017.228-.134-.152-.2-.39-.033h-.366l.072.107-.277-.032zm-35.764 35.39l-.087.093-.04.337.293.066.368.134.18-.15-.046-.187-.247-.15-.42-.144zM257.758.862h-.067l.105.007-.037-.008zm-.15-.012h-.128l.195.013-.068-.013zm.39.033h-.096l.15.014L258 .883zm.148.02h-.033l.053.003-.02-.004zm.388.033h-.02l.052.02-.032-.02zm-.17-.013h-.05l.096.006-.046-.007zm-.994-.097h-.108l.165.017-.057-.017zm3.466 1.2l-.147.074.02.038.126.017 1.015.126-.74-.235-.274-.018zm-.536 2.07l.037.086.13-.055.206.07.217.022-.054-.072-.126-.04v-.053l-.037-.074-.094-.032h-.22l.075.07.144.058-.205-.04-.075.06zm-1.455-3.12h-.056l.13.02-.075-.02zm-.33-.04L258.41.93l.048.006h.057zm.59.074l-.063-.007.02.007h.042zm-2.196-.222h-.07l.1.014-.03-.014zm.242.02h-.09l.14.012-.05-.012zm2.91 1.44l-.243.06.28.066.61.115.072-.042h.46l.168-.036V2.31l-.24-.094-.608-.028-.5.06zM258.996.995h-.076l.123.007-.048-.007zm5.214 3.41l.35.313.302.25.352.094.495.388.145-.032.48.374.386.16.072.13.39.146.333-.034.335.108.29-.202-.032-.073-.686-.095-.61-.217-.608-.372-.644-.354-.61-.406-.274-.274-.33-.294-.244-.094-.294-.036.074.13.258.164.07.224zm-4.236-3.29l.06.02-.046-.02h-.014zm-3.62-.29h.113l-.295-.038-.314-.017h-.28l.448.037.328.02zm1.22.15l.29.02h.3l-.205-.06-.37-.013-.702-.073h-.312l.552.073.445.053zm2.242.124l.046.007-.023-.007h-.024zm.247.044h.01l-.04-.007.03.007zm-.465-.075h-.073l-.07-.02h-.075l-.072-.02h-.11l.314.038.18.02-.016-.007-.078-.01zm.314.047h.062l-.11-.01.048.01zm-.142-.017h.047l-.124-.01.077.01zm-2.08-.238h-.015.015zm-.357-.012l.197.013.282.04.26.017-.39-.057-.332-.013h-.017zm.96.073h.02l-.147-.017.056.017h.07zm-.18 0l-.04-.004.018.003h.022zm-.21-.04l-.108-.014.036.013h.072zM257.48.85l-.054-.007.017.007h.037zm-.218-.024l-.06-.007.02.006h.04zm-.203-.018h.003l-.122-.006.042.006h.077zm1.052.094l-.06-.006.016.006h.044zM256.67.788h.171l-.21-.017.04.018zM224.503 47.36l-.186.172.09.095.5.046.093-.555-.127-.073-.336.02-.034.296z"/></g><g fill="#231F20"><path d="M81.57 11.014c.08-1.117.294-1.847.294-1.847.468-1.058.967-1.552 1.484-1.833l.048-.04.047-.007c.88-.556 2.375-.93 4.47-.93h4.665V0H47.025v6.356h4.664c1.987 0 3.402.35 4.275.862 1.07.603 1.54 1.19 1.733 1.647.047.067.24.87.335 2.02.1 1.18.15 2.785.15 4.772v20.33H34.378v-20.33c0-1.954.057-3.513.154-4.645.08-1.117.287-1.847.312-1.847.463-1.058.952-1.552 1.465-1.833 1.038-.61 2.514-.978 4.565-.978h4.735V0H0v6.356h4.712c1.986 0 3.38.35 4.235.855 1.044.605 1.53 1.187 1.717 1.655.054.067.23.87.34 2.02.088 1.18.145 2.785.145 4.772V67.77c0 1.94-.06 3.507-.147 4.63-.094 1.11-.288 1.86-.298 1.86l-.04.056-.004.013c-.41 1.003-.88 1.472-1.404 1.76-1.004.596-2.496.976-4.544.976H0v6.34h45.61v-6.34h-4.735c-1.99 0-3.393-.354-4.223-.863-1.062-.616-1.565-1.204-1.773-1.687-.047-.066-.255-.843-.327-1.994-.118-1.17-.175-2.764-.175-4.75V45.32h23.804l.003 22.447c0 1.938-.05 3.506-.15 4.63-.088 1.11-.29 1.86-.294 1.86-.47 1.037-.965 1.54-1.5 1.828l-.04.018-.038.033c-.89.53-2.37.924-4.472.924h-4.664v6.34H92.58v-6.34h-4.666c-2 0-3.406-.354-4.276-.863-1.07-.622-1.55-1.203-1.747-1.652-.044-.08-.235-.863-.318-2.027-.104-1.17-.154-2.763-.154-4.75V15.658c-.002-1.954.048-3.512.152-4.644zM139.466 11.014c.08-1.117.274-1.847.295-1.847.48-1.058.956-1.552 1.48-1.833 1.033-.603 2.513-.978 4.57-.978h4.71V0h-45.605v6.356h4.717c1.982 0 3.387.35 4.243.855 1.044.605 1.532 1.187 1.72 1.655.054.067.235.87.328 2.02.088 1.18.14 2.785.14 4.772V67.77c0 1.94-.052 3.507-.14 4.63-.093 1.11-.274 1.86-.3 1.867-.45 1.065-.91 1.534-1.434 1.822-1.015.595-2.504.975-4.56.975h-4.716v6.34h45.605v-6.34h-4.71c-1.996 0-3.4-.354-4.244-.863-1.06-.616-1.554-1.204-1.767-1.687-.04-.066-.253-.843-.325-1.994-.11-1.17-.168-2.763-.168-4.75V15.658c.002-1.954.06-3.512.16-4.644zM218.01.006v6.35h2.11c2.982-.007 5.175.442 6.448 1.106.63.32 1.28.962 1.88 2.213.497.95.92 3.293.904 6.688v32.3c.017 8.28-.802 14.02-2.08 16.853-1.36 3.044-3.3 5.34-5.983 7.06-2.637 1.686-5.855 2.564-9.834 2.57-3.456 0-6.147-.703-8.186-1.987-2.174-1.34-3.59-2.926-4.48-4.82-.81-1.605-1.45-6.237-1.42-13.196V16.362c0-2.223.068-4.03.175-5.328.1-1.312.32-2.216.383-2.336.313-.702.756-1.19 1.553-1.64.47-.313 2.41-.736 5.325-.702h4.13V.006h-45.09v6.37l2.135-.02h.502c2.915-.034 4.86.355 5.388.69.917.487 1.404 1.018 1.697 1.672.055.093.29.97.397 2.268.113 1.332.185 3.126.182 5.376v38.78c.005 6.8 1.06 12.38 3.4 16.717 2.347 4.354 6.343 7.84 11.723 10.458 4.208 2.04 9.77 2.95 16.81 2.965 8.506 0 15.465-1.802 20.712-5.616 4.978-3.634 8.317-7.782 9.722-12.48 1.343-4.505 1.935-11.344 1.935-20.745v-30.08c-.018-3.106.294-5.26.596-5.944.575-1.484 1.305-2.368 2.37-3.018 1.075-.655 2.53-1.044 4.468-1.044h3.73V.006H218.01z"/></g></g></svg>