<?xml version="1.0" encoding="utf-8"?>
<!-- Generator: Adobe Illustrator 16.0.0, SVG Export Plug-In . SVG Version: 6.00 Build 0)  -->
<!DOCTYPE svg PUBLIC "-//W3C//DTD SVG 1.1//EN" "http://www.w3.org/Graphics/SVG/1.1/DTD/svg11.dtd">
<svg version="1.1" xmlns="http://www.w3.org/2000/svg" xmlns:xlink="http://www.w3.org/1999/xlink" x="0px" y="0px"
	 width="296.446px" height="85.307px" viewBox="0 0 296.446 85.307" enable-background="new 0 0 296.446 85.307"
	 xml:space="preserve">
<g id="Layer_1">
</g>
<g id="GLOBE">
	<path fill="#BCBCBC" stroke="#FFFFFF" stroke-miterlimit="3.85" d="M258.652,84.569c-2.479,0.357-4.963,0.205-7.461,0.205
		c-2.436,0-4.972-0.514-7.336-1.088c-2.453-0.597-4.822-1.397-7.125-2.395c-2.432-1.051-4.598-2.479-6.859-3.807
		c-2.158-1.268-4.098-3.133-5.902-4.871c-0.92-0.888-1.678-1.925-2.584-2.814c-0.857-0.844-1.782-2.045-2.367-3.088
		c-0.645-1.148-1.508-2.17-2.111-3.36c-0.605-1.196-1.193-2.4-1.793-3.601c-1.115-2.23-1.729-4.68-2.405-7.076
		c-0.306-1.087-0.712-2.461-0.712-3.584c0-0.634-0.242-1.264-0.242-1.9c0-0.552-0.029-1.274-0.151-1.812
		c-0.263-1.16-0.061-2.551-0.061-3.737c0-1.159-0.024-2.531,0.257-3.652c0.293-1.174,0.295-2.434,0.578-3.625
		c0.281-1.186,0.541-2.386,0.88-3.557c0.735-2.542,1.896-4.826,2.93-7.258c1.021-2.398,2.702-4.675,4.289-6.703
		c1.577-2.015,3.362-3.902,5.296-5.596c2.01-1.759,4.131-3.321,6.421-4.678c0.558-0.33,1.126-0.658,1.706-0.952
		c0.553-0.28,1.304-0.524,1.785-0.897c0.973-0.752,2.463-0.917,3.548-1.475c1.061-0.544,2.401-0.82,3.552-1.131
		c1.189-0.322,2.399-0.583,3.605-0.787c2.467-0.417,4.938-0.649,7.459-0.649c2.48,0,4.962,0.215,7.387,0.666
		c1.207,0.225,2.412,0.497,3.605,0.811c1.145,0.301,2.508,0.595,3.557,1.141c1.133,0.59,2.412,0.963,3.57,1.518
		c1.213,0.582,2.414,1.217,3.57,1.911c2.29,1.375,4.38,2.949,6.385,4.721c1.861,1.646,3.866,3.53,5.233,5.607
		c1.501,2.279,3.089,4.392,4.316,6.862c1.146,2.306,2.01,4.654,2.806,7.105c0.34,1.045,0.874,2.467,0.874,3.571
		c0,0.596,0.312,1.193,0.312,1.793c0,0.531,0.102,1.304,0.244,1.815c0.311,1.118,0.209,2.529,0.23,3.691
		c0.023,1.246,0.006,2.492-0.088,3.727c-0.188,2.471-0.602,4.838-1.133,7.27c-0.261,1.201-0.645,2.391-1.043,3.547
		c-0.375,1.092-0.728,2.568-1.391,3.514c-0.738,1.053-1.074,2.437-1.794,3.533c-0.747,1.141-1.404,2.319-2.185,3.434
		c-1.498,2.141-3.2,4.162-5.082,5.988c-0.917,0.893-1.877,1.725-2.862,2.526c-0.997,0.812-2.163,1.46-3.117,2.3
		c-0.967,0.848-2.315,1.456-3.446,2.068c-1.166,0.632-2.369,1.207-3.59,1.722c-2.307,0.972-4.681,1.7-7.125,2.294
		C261.634,84.167,260.134,84.435,258.652,84.569z"/>
	<path fill="none" stroke="#FFFFFF" stroke-width="0.7" stroke-miterlimit="3.85" stroke-opacity="0.7" d="M211.65,43.917
		l0.437,1.126 M212.086,45.042l0.759,1.109 M212.845,46.151c0.345,0.385,0.676,0.771,1.071,1.107 M214.076,50.727l-0.16-3.469
		 M214.534,54.137l-0.458-3.41 M214.534,54.137l0.773,3.309 M215.308,57.446l1.057,3.213 M216.365,60.659l1.332,3.061
		 M218.365,65.669l-0.457-0.647 M219.298,66.621l-1.602-2.901 M218.365,65.669l0.934,0.952 M219.298,66.621l1.869,2.731
		 M221.167,69.352l2.125,2.527 M225.559,74.121l-2.267-2.241 M220.493,67.572l-1.195-0.951 M220.493,67.572l1.462,0.892
		 M223.644,69.313l-1.688-0.85 M223.644,69.313c0.644,0.275,1.281,0.549,1.935,0.81 M225.578,70.123
		c0.714,0.259,1.435,0.507,2.144,0.755 M230.079,71.566l-1.107-2.689 M230.079,71.566l-2.357-0.688 M230.079,71.566
		c0.846,0.212,1.688,0.421,2.537,0.62 M235.303,72.729c-0.888-0.209-1.794-0.372-2.687-0.543 M235.303,72.729
		c0.943,0.184,1.901,0.318,2.854,0.475 M230.079,71.566l1.285,2.457 M231.364,74.023c0.479,0.755,0.938,1.521,1.464,2.233
		 M232.829,76.257l1.619,1.969 M215.287,48.31l-1.372-1.052 M215.287,48.31c0.559,0.343,1.114,0.683,1.675,1.019 M218.909,50.302
		c-0.646-0.313-1.294-0.663-1.947-0.973 M218.909,50.302c0.744,0.307,1.488,0.631,2.238,0.916 M223.628,52.083
		c-0.827-0.294-1.649-0.584-2.48-0.865 M226.353,52.848l-2.724-0.766 M229.291,53.553l-2.938-0.705 M232.402,54.188
		c1.098,0.19,2.207,0.354,3.311,0.529 M229.291,53.553c1.04,0.215,2.081,0.436,3.112,0.635 M226.457,56.319l-0.104-3.473
		 M226.79,59.677l-0.333-3.357 M227.318,62.913l-0.529-3.236 M227.318,62.913c0.186,1.029,0.448,2.055,0.723,3.057 M228.04,65.969
		c0.303,0.971,0.58,1.953,0.932,2.907 M246.583,65.74l-0.144-3.178 M246.583,65.74l0.189,3.009 M247.023,71.554l-0.25-2.804
		 M239.138,55.175l-3.426-0.457 M239.138,55.175l3.537,0.348 M242.675,55.523c1.215,0.087,2.43,0.171,3.641,0.255 M250.007,55.93
		l-3.691-0.154 M246.349,59.237l-0.033-3.461 M246.44,62.562l-0.091-3.325 M250.007,55.93l3.732,0.038 M253.74,55.969l3.732-0.038
		 M261.165,55.776l-3.693,0.154 M261.165,55.776l3.621-0.254 M268.343,55.175l-3.557,0.348 M268.343,55.175l-0.055,3.463
		 M268.288,58.637l-0.177,3.325 M267.828,65.159l0.284-3.196 M267.828,65.159l-0.382,3.012 M266.953,70.979l0.493-2.808
		 M247.691,76.448l0.383,2.083 M248.518,80.329l-0.444-1.799 M241.13,73.585l-2.972-0.381 M241.13,73.585l3.057,0.32
		 M247.337,74.121l-0.313-2.565 M247.337,74.121l-3.15-0.216 M247.337,74.121l3.184,0.139 M247.691,76.448l-0.354-2.327
		 M250.52,74.26l3.22,0.032 M253.74,74.292l3.217-0.032 M260.14,74.121l-3.184,0.139 M263.295,73.905l-3.155,0.216 M266.351,73.585
		l0.603-2.605 M266.351,73.585l-3.056,0.32 M265.669,75.946l0.682-2.361 M264.873,78.055l0.796-2.109 M264.018,79.882l0.855-1.826
		 M236.64,81.257l0.882,0.35 M237.522,81.606l1.235,0.44 M234.448,78.225l1.754,1.695 M236.202,79.921
		c0.619,0.486,1.244,0.951,1.9,1.404 M240.124,82.448l-2.021-1.124 M240.124,82.448l-1.369-0.401 M241.583,82.804l-1.459-0.356
		 M241.583,82.804l1.551,0.319 M244.769,83.405l-1.635-0.281 M240.124,82.448c0.706,0.307,1.396,0.594,2.113,0.811 M242.238,83.259
		l0.477,0.146 M244.769,83.405l1.711,0.223 M246.48,83.628l1.771,0.18 M249.504,83.036l0.54,0.894 M248.251,83.807l1.793,0.122
		 M251.898,84.026l-1.853-0.098 M250.044,83.929l0.586,0.579 M251.226,84.774l-0.596-0.266 M248.993,81.839l-0.476-1.51
		 M248.993,81.839l0.511,1.197 M264.018,79.882l-0.934,1.551 M263.084,81.432l-1.021,1.252 M251.898,84.026l1.843,0.014
		 M253.74,84.04l1.849-0.014 M257.417,83.929l-1.829,0.097 M259.23,83.807l-1.813,0.122 M260.99,83.628
		c0.365-0.303,0.716-0.625,1.074-0.943 M260.99,83.628l-1.76,0.18 M260.99,83.628l-1.127,0.637 M258.684,84.569l1.179-0.305
		 M251.349,84.797l-0.123-0.021 M258.652,84.569h0.032 M219.632,18.011c-0.686,0.858-1.258,1.818-1.859,2.737 M217.697,20.872
		c-0.156,0.306-0.314,0.611-0.439,0.931 M221.819,15.335l2.442-2.447 M221.819,15.335l-2.187,2.676 M225.493,17.546l-2.361,2.855
		 M221.023,23.425l2.109-3.023 M217.257,21.802c-0.111,0.313-0.156,0.64-0.174,0.974 M217.083,22.776l0.108,0.964 M217.192,23.74
		c0.112,0.319,0.253,0.646,0.381,0.967 M217.573,24.707l0.652,0.951 M221.023,23.425c-0.625,1.049-1.278,2.121-1.865,3.168
		 M218.224,25.658l0.934,0.935 M219.157,26.594c-0.543,1.064-1.061,2.188-1.584,3.286 M217.573,29.88
		c-0.449,1.129-0.918,2.246-1.313,3.396 M216.261,33.275c-0.372,1.148-0.72,2.29-1.049,3.444 M215.212,36.721
		c-0.283,1.156-0.496,2.335-0.731,3.504 M214.038,43.741l0.442-3.517 M213.916,47.259l0.123-3.517 M239.65,3.108l0.386-0.138
		 M235.872,4.639c-0.154,0.07-0.307,0.147-0.461,0.223 M235.411,4.862c-0.293,0.153-0.576,0.333-0.861,0.496 M251.226,1.154
		l-1.23-0.242 M249.183,0.925l0.813-0.013 M253.74,2.599l-1.264-0.88 M252.476,1.72l-1.251-0.566 M250.908,2.053l2.832,0.546
		 M250.908,2.053l-2.815-0.249 M245.333,1.876l2.76-0.07 M245.333,1.876c-0.895,0.122-1.811,0.229-2.693,0.386 M242.64,2.262
		l-2.604,0.708 M246.48,2.843c-1.206,0.168-2.388,0.334-3.575,0.58 M242.905,3.424c-1.171,0.214-2.321,0.544-3.46,0.881
		 M239.445,4.303c-1.148,0.274-2.26,0.764-3.363,1.165 M253.74,2.599l-3.655-0.041 M246.48,2.843l3.604-0.284 M250.257,3.141
		L253.74,2.6 M250.257,3.141c-1.166,0.265-2.318,0.512-3.467,0.826 M246.79,3.968c-1.15,0.345-2.268,0.729-3.395,1.146
		 M243.396,5.114c-1.16,0.431-2.23,0.916-3.344,1.42 M240.052,6.534c-1.067,0.541-2.151,1.084-3.217,1.71 M229.802,8.667
		l-2.885,1.99 M226.917,10.657c-0.943,0.664-1.787,1.482-2.658,2.231 M234.548,5.359l-0.721,0.512 M233.827,5.871l-0.563,0.523
		 M236.081,5.469l-3.236,1.451 M233.267,6.394l-0.42,0.526 M232.596,7.488l0.249-0.568 M232.845,6.921l-3.043,1.746 M232.511,8.034
		l0.086-0.546 M232.583,8.575l-0.072-0.541 M232.808,9.145l-0.225-0.569 M233.197,9.684l-0.389-0.539 M236.835,8.244
		c-1.051,0.618-2.067,1.294-3.096,1.974 M233.74,10.219c-0.17-0.192-0.355-0.366-0.542-0.535 M233.74,10.219
		c-0.996,0.72-1.979,1.441-2.939,2.214 M228.04,14.875l2.76-2.443 M228.04,14.875c-0.87,0.875-1.713,1.767-2.547,2.671
		 M234.448,10.72l-0.709-0.502 M234.448,10.72l0.843,0.496 M235.291,11.216c0.331,0.169,0.663,0.329,1.003,0.476 M236.293,11.692
		c0.372,0.154,0.74,0.306,1.122,0.44 M237.415,12.132c0.403,0.146,0.836,0.288,1.252,0.402 M240.019,12.926l2.133-2.397
		 M238.668,12.533c0.439,0.146,0.904,0.261,1.351,0.391 M240.019,12.926l1.481,0.33 M243.064,13.556l-1.564-0.301 M244.716,13.819
		l-1.652-0.263 M240.019,12.926c-0.669,0.865-1.397,1.712-2.004,2.621 M238.015,15.547c-0.672,0.926-1.291,1.876-1.918,2.827
		 M236.097,18.373c-0.59,1.008-1.229,1.994-1.758,3.024 M253.74,2.599l-2.392,1.002 M251.349,3.601
		c-0.793,0.425-1.576,0.846-2.355,1.303 M248.993,4.904c-0.789,0.522-1.606,1.026-2.344,1.598 M244.365,8.385l2.285-1.884
		 M244.365,8.385l-2.213,2.143 M251.825,7.223l0.634-1.829 M251.825,7.223l-0.616,2.109 M251.208,9.333
		c-0.222,0.788-0.402,1.574-0.598,2.375 M253.74,2.599l-0.65,1.248 M253.089,3.847c-0.231,0.531-0.433,0.998-0.63,1.547
		 M253.74,2.599l1.267,1.197 M255.006,3.796l1.267,1.494 M256.274,5.291l1.231,1.793 M257.505,7.084l1.234,2.061 M258.74,9.145
		l1.18,2.324 M249.484,17.16l-0.511,3.051 M248.973,20.212l-0.491,3.198 M244.716,13.819c0.565,0.083,1.137,0.151,1.724,0.215
		 M248.22,14.212l-1.78-0.179 M250.027,14.333l0.584-2.625 M248.22,14.212l1.807,0.121 M251.874,14.404l-1.848-0.071 M249.484,17.16
		l0.542-2.828 M253.74,14.422l-1.865-0.018 M253.74,14.422l1.863-0.018 M255.603,14.404l1.848-0.071 M257.45,14.333l1.811-0.121
		 M259.919,11.468l1.116,2.565 M259.261,14.212c0.596-0.065,1.186-0.108,1.773-0.179 M261.035,14.034l1.077,2.795 M263.136,19.819
		c-0.33-1.005-0.667-1.994-1.023-2.991 M264.064,23.004c-0.303-1.063-0.602-2.139-0.928-3.185 M227.969,38.48l-0.699,3.601
		 M226.757,45.708l0.512-3.626 M226.437,49.313c0.141-1.201,0.199-2.404,0.32-3.605 M226.437,49.313
		c-0.057,1.18-0.057,2.361-0.086,3.535 M219.157,26.594c0.393,0.315,0.81,0.613,1.213,0.918 M220.369,27.511
		c0.47,0.306,0.958,0.601,1.464,0.855 M223.522,29.197l-1.688-0.83 M223.522,29.197l1.953,0.77 M227.62,30.703l-2.146-0.736
		 M234.34,21.397c-0.536,1.067-1.085,2.132-1.622,3.204 M231.257,27.927l1.46-3.325 M231.257,27.927l-1.285,3.431 M227.62,30.703
		l2.354,0.655 M232.528,31.972l-2.556-0.616 M232.528,31.972l2.704,0.524 M235.232,32.496l2.871,0.458 M229.972,31.358l-1.084,3.535
		 M228.889,34.893l-0.92,3.588 M238.103,32.955l2.969,0.372 M244.152,33.626l-3.079-0.299 M247.304,33.837l0.352-3.573
		 M247.304,33.837l-3.153-0.211 M250.506,33.976l-3.201-0.139 M247.002,37.493l0.302-3.656 M246.761,41.187l0.241-3.694
		 M248.482,23.409l-0.441,3.357 M247.656,30.263l0.385-3.498 M264.947,26.325c-0.281-1.115-0.58-2.214-0.885-3.322 M264.947,26.325
		c0.268,1.142,0.504,2.303,0.773,3.449 M253.74,34.015l-3.234-0.039 M256.956,33.976l-3.217,0.039 M260.161,33.837l-3.204,0.139
		 M260.161,33.837c1.053-0.045,2.111-0.134,3.166-0.211 M266.406,33.326l-0.686-3.552 M266.406,33.326l-3.078,0.299 M266.99,36.952
		l-0.584-3.625 M267.478,40.627c-0.162-1.226-0.322-2.45-0.488-3.676 M246.421,48.576l-0.072,3.62 M246.316,55.776l0.033-3.58
		 M246.761,41.187l-0.193,3.697 M246.421,48.576l0.146-3.692 M267.847,44.304c-0.104-1.225-0.244-2.448-0.369-3.676 M267.847,44.304
		c0.094,1.224,0.16,2.449,0.277,3.673 M268.288,51.602c-0.049-1.205-0.104-2.418-0.164-3.625 M268.288,51.602l0.055,3.572
		 M271.77,54.718l-3.427,0.457 M271.77,54.718c1.104-0.152,2.19-0.353,3.29-0.529 M275.06,54.188c1.041-0.204,2.1-0.375,3.132-0.635
		 M278.192,53.553c0.987-0.22,1.96-0.453,2.935-0.705 M281.126,52.848l2.713-0.766 M284.401,36.952l0.845,3.566 M285.245,40.518
		l0.615,3.592 M285.859,44.11l0.354,3.568 M286.318,51.218c0.01-1.177-0.026-2.357-0.105-3.539 M283.839,52.083
		c0.826-0.289,1.674-0.539,2.479-0.865 M286.318,51.218c0.75-0.291,1.517-0.559,2.234-0.916 M290.525,49.329l-1.973,0.973
		 M290.525,49.329c0.57-0.307,1.123-0.656,1.671-1.019 M269.376,32.955l-2.971,0.372 M269.376,32.955
		c0.95-0.146,1.902-0.298,2.852-0.458 M272.228,32.496l2.707-0.524 M274.935,31.972l2.553-0.616 M279.845,30.703
		c-0.79,0.197-1.572,0.433-2.357,0.655 M278.753,23.373c-0.621-1.041-1.266-2.07-1.914-3.099 M280.477,26.613
		c-0.528-1.104-1.144-2.17-1.725-3.239 M282.009,29.967c-0.455-1.139-1.011-2.242-1.531-3.354 M282.009,29.967l-2.164,0.736
		 M282.009,29.967c0.656-0.246,1.293-0.502,1.932-0.77 M283.941,29.197c0.583-0.243,1.158-0.523,1.709-0.83 M285.65,28.367
		c0.493-0.278,0.988-0.549,1.462-0.855 M283.309,33.429l-1.3-3.462 M284.401,36.952c-0.337-1.182-0.71-2.351-1.092-3.523
		 M287.113,27.511c0.416-0.294,0.814-0.586,1.193-0.918 M288.304,26.594c0.328-0.298,0.627-0.623,0.936-0.935 M289.908,24.707
		l-1.934-3.059 M289.24,25.658l0.668-0.951 M289.908,24.707c0.16-0.304,0.274-0.642,0.381-0.967 M291.581,27.911
		c-0.537-1.08-1.111-2.142-1.673-3.205 M292.948,31.22c-0.433-1.114-0.894-2.214-1.367-3.309 M285.759,18.745
		c-0.797-0.927-1.598-1.847-2.449-2.727 M287.975,21.648c-0.722-0.989-1.462-1.948-2.216-2.902 M290.29,23.74
		c0.066-0.315,0.103-0.645,0.109-0.964 M290.4,22.776c-0.021-0.332-0.076-0.66-0.174-0.974 M289.788,20.872l0.438,0.931
		 M295.255,41.542l-0.457-3.481 M293.564,47.259l-1.369,1.053 M294.636,46.151l-1.072,1.107 M295.255,41.542l0.135,3.5
		 M294.636,46.151l0.754-1.109 M295.39,45.042l0.443-1.125 M292.948,31.22l1.072,3.395 M294.797,38.061l-0.776-3.446
		 M295.833,43.917c0.072-0.318,0.117-0.643,0.121-0.968 M261.035,14.034l1.73-0.215 M262.766,13.819
		c0.541-0.083,1.092-0.178,1.64-0.263 M264.406,13.556c0.529-0.071,1.053-0.189,1.577-0.301 M265.982,13.255
		c0.492-0.108,0.977-0.217,1.465-0.33 M267.447,12.926c0.472-0.117,0.914-0.238,1.371-0.391 M270.066,12.132
		c-0.821-0.779-1.672-1.557-2.534-2.272 M268.818,12.533c0.438-0.114,0.832-0.246,1.248-0.402 M271.19,11.692
		c-0.377,0.146-0.749,0.294-1.125,0.44 M271.19,11.692l0.988-0.476 M272.178,11.216l0.858-0.496 M272.472,14.646
		c-0.74-0.887-1.594-1.698-2.406-2.515 M274.726,17.357c-0.723-0.931-1.494-1.811-2.254-2.711 M276.839,20.275
		c-0.703-0.97-1.398-1.954-2.113-2.917 M256.575,3.458L253.74,2.6 M256.575,3.458l2.83,1.181 M259.406,4.639l2.779,1.455
		 M264.89,7.838c-0.85-0.64-1.8-1.17-2.705-1.744 M267.531,9.86c-0.836-0.715-1.743-1.398-2.641-2.021 M264.577,4.549
		c-1.18-0.343-2.374-0.645-3.574-0.947 M268.056,5.797c-1.166-0.378-2.318-0.87-3.479-1.248 M271.437,7.331
		c-1.123-0.523-2.25-1.033-3.381-1.535 M257.382,2.948L253.74,2.6 M261.003,3.601c-1.187-0.258-2.41-0.447-3.621-0.654
		 M280.634,13.503c-0.932-0.81-1.914-1.56-2.902-2.303 M283.309,16.019l-2.675-2.516 M273.037,10.72l0.686-0.502 M273.722,10.219
		l0.565-0.535 M271.437,7.331c1.057,0.632,2.16,1.211,3.238,1.813 M274.288,9.684c0.131-0.178,0.258-0.357,0.385-0.539
		 M274.675,9.145l0.229-0.569 M274.675,9.145l3.057,2.055 M274.974,8.034l-0.07,0.541 M274.885,7.488l0.089,0.547 M274.885,7.488
		l-0.263-0.568 M274.622,6.921l-0.404-0.526 M274.218,6.394l-0.564-0.523 M276.558,7.436l2.744,1.843 M279.302,9.278
		c0.326,0.261,0.653,0.519,0.988,0.776 M273.654,5.871l-3.078-1.303 M273.654,5.871l-0.723-0.512 M272.931,5.359l-0.86-0.496
		 M271.598,4.639l0.473,0.223 M273.654,5.871l2.904,1.565 M264.064,2.857c-1.133-0.157-2.25-0.281-3.392-0.385 M264.064,2.857
		l3.312,0.709 M267.374,3.566l3.201,1.002 M257.224,2.386L253.74,2.6 M260.672,2.472c-1.143-0.1-2.304-0.073-3.448-0.086
		 M256.115,1.906L253.74,2.6 M258.476,1.54l-2.361,0.366 M260.796,1.492l-2.32,0.048 M263.046,1.735
		c-0.765-0.112-1.485-0.195-2.25-0.243 M263.958,1.948l-0.912-0.213 M255.64,0.767c-0.201,0.093-0.411,0.195-0.613,0.296
		 M255.64,0.767c0.105-0.006,0.215-0.008,0.318-0.016 M254.372,1.661l-0.633,0.938 M254.372,1.661l0.654-0.598 M253.74,2.599
		l-1.264-0.88 M252.476,1.72l-1.251-0.566 M251.226,1.154l-1.23-0.242 M249.183,0.925l0.813-0.013 M262.695,83.405l-1.705,0.223
		 M262.695,83.405l1.633-0.281 M265.898,82.804l-1.57,0.319 M267.361,82.448l-1.463,0.356 M268.713,82.047l-1.353,0.401
		 M274.601,78.846l2.097-1.793 M272.351,80.378l2.25-1.531 M272.351,80.378l-2.393,1.229 M268.713,82.047l1.247-0.44
		 M270.839,81.257l-0.881,0.35 M269.958,81.606l-1.053,0.44 M266.351,73.585l2.975-0.381 M272.159,72.729l-2.834,0.475
		 M274.866,72.186l-2.707,0.543 M274.866,72.186c0.849-0.205,1.691-0.402,2.539-0.62 M279.757,70.878l-2.352,0.688 M283.222,67.358
		l-1.318,2.765 M279.757,70.878c0.718-0.242,1.434-0.493,2.147-0.755 M281.905,70.123c0.649-0.26,1.284-0.534,1.935-0.81
		 M283.839,69.313l1.685-0.85 M286.986,67.572l-1.462,0.892 M280.372,72.677c0.523-0.85,1.041-1.697,1.531-2.554 M280.372,72.677
		l-1.74,2.301 M276.698,77.053l1.934-2.076 M286.198,54.681c0.08-1.157,0.117-2.304,0.117-3.464 M285.812,58.055
		c0.164-1.124,0.287-2.24,0.387-3.374 M285.179,61.311c0.238-1.08,0.439-2.161,0.632-3.256 M284.318,64.425
		c0.291-1.027,0.663-2.062,0.861-3.113 M283.222,67.358c0.387-0.974,0.752-1.943,1.095-2.932 M294.745,51.932l-0.811,3.363
		 M293.937,55.296l-1.086,3.251 M291.46,61.701l1.391-3.154 M295.39,45.042l-0.173,3.461 M294.745,51.932l0.472-3.43
		 M288.185,66.621l-1.199,0.951 M289.116,65.669l-0.932,0.952 M291.12,62.331l0.34-0.63 M289.575,65.021l-0.457,0.647
		 M211.65,43.917l-0.128-0.968"/>
	<path fill="#FFFFFF" d="M241.375,83.02l0.194,0.051l-0.069-0.02l-0.071-0.016l-0.068-0.016l-0.021-0.023L241.375,83.02z
		 M242.061,83.157l-0.16-0.033l-0.017,0.018l-0.072-0.018l-0.153-0.038l-0.075-0.016h-0.014l0.069,0.016l0.034,0.021l0,0h0.006
		l0.031,0.019h0.014h0.021h0.034l0.173,0.046l0.248,0.076l0.014-0.02l0.144,0.033l-0.053-0.033L242.061,83.157z M220.882,33.028
		l0.141-0.383l0.086-0.632l-0.086-0.09l-0.246,0.402l0.051,0.26l-0.051,0.442H220.882z M221.566,31.642l0.253-0.46l-0.163-0.44
		l-0.017,0.071l0.032,0.35l-0.14,0.358L221.566,31.642z M221.179,30.703l-0.069,0.268l0.422,0.074l0.05-0.18l-0.207-0.143
		L221.179,30.703z M242.572,59.287l-0.266-0.241l-0.615-0.09l-0.549-0.246l-0.928-0.844l-1.039-0.692l-1.039-0.101l-1.354-0.523
		l-0.775,0.086l0.105-0.373l-0.334-0.435l-1.127-0.606l-0.826-0.383l-0.491,0.37l-0.038-0.706l-1.142-0.314l-0.19-0.248l0.471-0.492
		v-0.492l-0.35-0.176l-0.313-1.303l-0.148-0.439h-0.222l-0.091-0.312l-0.632-0.737l-0.44-0.268l-0.209-0.119l-0.639-0.321
		l-0.492-0.069l-0.067,0.117l-0.705-0.313l-0.21-0.298l-0.281-0.426l-0.234-0.063l0.02-0.372l-0.314-0.568l-0.352-0.363
		l-0.191-0.229l-0.299-0.056l-0.021-0.597l-0.384-0.475l-0.426-0.176l-0.139-0.383l0.475-0.097l-0.635-0.172l-0.646-0.145
		l-0.043,0.177l-0.313,0.141l-0.382-0.21l-0.251-0.421l-0.531-0.102l-0.432-0.159l0.016-0.249l-0.266-0.505l-0.316-0.132
		l-0.088-0.551l-0.193,0.15v0.37l-0.614,0.075l-0.056,0.542l0.102,0.316l-0.154,0.481l-0.216-0.038l-0.082-0.639l0.245-0.334
		l0.07-0.373l-0.105-0.385l0.285,0.025l0.027-0.162l0.145-0.216l-0.087-0.228l-0.156-0.102l-0.269,0.241l-0.21,0.089l-0.39,0.231
		l-0.332-0.193l-0.051,0.122l-0.264-0.108l-0.285,0.236l-0.174,0.559l-0.038,0.247h-0.177l-0.373,0.351l-0.189-0.121l-0.122-0.261
		l-0.084-0.281l-0.163-0.212l-0.193-0.127l0.017-0.063l-0.192-0.146l-0.154,0.146l-0.23,0.017l-0.18,0.105l-0.171-0.059
		l-0.069-0.224l-0.05,0.035l-0.124-0.11l0.035-0.141l-0.091-0.331l-0.108-0.382l-0.082-0.378l-0.016-0.435l-0.018-0.137l0.018-0.22
		l0.098-0.14V40.19l0.09-0.281l0.074-0.041l0.051-0.333l0.017-0.195l0.091-0.295l0.089-0.264l0.124-0.196l0.035-0.28l0.053-0.139
		l0.032-0.054l-0.032-0.25l-0.088-0.173l-0.035-0.208l-0.073-0.2l-0.036-0.046l-0.12-0.176l-0.069,0.012l-0.07-0.027l-0.068-0.113
		l-0.072-0.09l-0.057,0.059l-0.121,0.013l-0.123-0.087l-0.107-0.155l-0.047,0.019l-0.018-0.089l-0.074-0.04l-0.088,0.072
		l-0.018-0.045l-0.058-0.146l-0.05,0.091l-0.053-0.195l0.122-0.215l0.054,0.019l0.089-0.141l0.139-0.331v-0.071l0.107-0.235v-0.115
		l0.14-0.267l0.059-0.193l-0.059-0.035l0.033-0.104l0.057,0.036l0.015,0.225l0.231-0.49l0.139-0.262L216.751,34l0.211-0.391
		l0.281-0.3l0.121-0.313v-0.199l-0.194-0.063l-0.208-0.199l-0.299-0.053l-0.229,0.053l-0.109,0.157l-0.226,0.565l-0.176,0.352
		l-0.25,0.158l-0.152-0.019l-0.198-0.025l-0.173-0.097l-0.232,0.016l0.02-0.366l-0.117-0.402l0.051-0.421l0.102-0.441l0.089-0.637
		l0.153-0.563l0.096-0.39l0.123-0.402l0.141-0.299l0.408-0.878l0.223-0.417l0.336-0.513l0.072-0.247l0.152-0.338l0.215-0.435
		l0.191-0.251l0.232-0.189l0.296-0.089l0.407-0.301h0.227l0.124,0.063l0.054,0.291l0.208,0.081l-0.034,0.478l0.143,0.16l0.153-0.052
		l0.038,0.159l0.069-0.037l0.038-0.179l0.142-0.261l0.054-0.199l0.139-0.026l0.19,0.083l0.179,0.244l0.319,0.127l0.065,0.268
		l-0.035,0.382l0.035,0.074l0.424-0.127l0.068,0.175l-0.052,0.691l-0.104,0.42l-0.261,0.405l-0.075,0.284l-0.089,0.592l-0.087,0.684
		l0.053,0.229l-0.07,0.317l0.128,0.178l0.141-0.035l0.241-0.371l0.125-0.262l0.209-0.44l0.178-0.879l0.139-0.277l0.074-0.565
		l0.176-0.619l0.174-0.488l0.283-0.44l0.348-0.322l0.338-0.211l0.561-0.24l0.16-0.2l0.281-0.154l0.195,0.037l0.418-0.284
		l0.441-0.013l0.477-0.396l0.316-0.659l0.089-0.249l-0.072-0.088l0.351-0.601l-0.102-0.313l0.16,0.205l0.174-0.434l0.229-0.246
		l-0.283,0.538l0.02,0.319l-0.357,0.386v0.038l0.5-0.424l0.24-0.193l0.141-0.246l-0.016-0.154l0.143-0.354l0.014,0.194l0.059,0.069
		l-0.072,0.177l0.524-0.391l0.351-0.419l-0.087-0.075l0.216-0.12l-0.06,0.075l0.216,0.082h0.58l-0.016-0.156l-0.566-0.083
		l0.394-0.058l0.203,0.039l0.179,0.032l0.318-0.014l0.154,0.083l0.299-0.02l0.141-0.171l-0.02-0.18l-0.104,0.252l-0.138-0.073
		l0.088-0.375l0.211-0.333l0.141-0.102l0.417-0.294l0.476-0.059l0.498-0.089l0.573-0.18l0.059-0.209l0.458,0.056l0.596,0.153
		l-0.947,0.327l-0.302,0.522l0.247,0.125l0.688-0.323l0.523-0.139l1.078-0.123l0.705-0.281l-0.127-0.28l0.226-0.458l-0.787,0.585
		l-0.669-0.088l-0.303-0.44l0.16-0.49l0.318-0.671l0.578-0.299l-0.102-0.373l-0.544-0.107l-1.042,0.252l-1.056,0.577h-0.349
		l0.758-0.409l1.018-0.594l0.6-0.124l0.58-0.313l0.372,0.068l0.489,0.155l0.668,0.316l0.668,0.07l0.758-0.367l0.719-0.055
		l0.408-0.138l0.385-0.163l0.372-0.646l-0.02-0.253l-0.229-0.134l0.18-0.509l-0.109-0.232l-0.42-0.264l-0.067-0.386l-0.179-0.408
		l0.385-0.301l0.18-0.714l0.191-0.76l0.191-0.491l-0.383,0.179l-0.76,0.471l-0.65,0.14l0.088-0.35l-0.143-0.158l0.53-0.633
		l0.417-0.401l-0.367-0.179l0.145-0.215l0.036-0.363l-0.022-0.234l-0.299,0.051l-0.154-0.121l-0.18-0.263l-0.242,0.036l-0.811,0.727
		l-0.407,0.433l-0.81,0.37l-0.157,0.473l-0.294,0.497l-0.325,0.332l-0.484,0.282l-0.622,0.228l-0.598,0.053l-0.125,0.352
		l-0.687,0.879l-0.63,0.477l-0.352,0.073l0.155-0.67l0.426-0.663l0.476-0.549l0.49-0.409l-0.139-0.154l-0.277-0.229l0.047-0.319
		l-0.031-0.274l0.155-0.305l0.069-0.281v-0.402l-0.299-0.074l0.409-0.386l0.506-0.457l-0.048-0.228l0.715-0.475l0.529-0.263
		l0.813-0.334l0.631-0.192l0.212,0.068l0.401-0.248l0.357-0.089l0.208,0.108l0.546-0.161l0.317-0.137l0.632-0.235l0.351-0.153
		l-0.053,0.191l0.261,0.053l0.693-0.124l0.313-0.154l0.229-0.254l0.422-0.134l0.299-0.179l0.141-0.263l-0.091-0.161l-0.104-0.119
		l-0.686,0.371L239.088,7.5l-0.584,0.159l0.335-0.303l0.511-0.225l0.3-0.301l-0.633,0.141l0.666-0.313l-0.017-0.21l0.385-0.091
		l0.651-0.42l0.249-0.194l0.019-0.144l-0.564,0.129l-0.756,0.312l-0.191,0.194l-0.351,0.284l-0.688,0.286l-0.055-0.091l-0.562,0.208
		l0.631-0.298l0.121-0.228l-0.157-0.014l-0.418,0.192l-0.056-0.122l-0.172-0.091l0.242-0.267l-0.09-0.066l0.352-0.247l0.141-0.125
		l-0.084-0.034l-0.039-0.09l-0.248,0.038l-0.275,0.191l-0.354,0.058l0.406-0.249l-0.104-0.038l-0.056-0.187l0.174-0.203l0.318-0.012
		l0.367-0.226V4.845l0.164-0.156l0.33-0.261l0.372-0.194l0.106-0.109l-0.178,0.041l-0.032-0.072l0.525-0.156l-0.372,0.029
		l0.721-0.282l0.129-0.068l-0.307,0.068L239.88,3.67l0.336-0.123L240.2,3.478l-0.147-0.039l0.235-0.121l-0.06-0.035h-0.157
		l0.197-0.086l0.477-0.18l0.385-0.159l0.229-0.082l0.386-0.146l0.105-0.053l0.173-0.064l0.353-0.125l0.496-0.152l0.102-0.06
		l0.356-0.088l0.102-0.016l0.314-0.105h-0.032l0.354-0.075l0.37-0.085l0.017-0.033l0.192-0.053l0.16-0.059l0.139-0.033V1.613
		l-0.162,0.032l-0.068,0.017h-0.068l-0.072,0.022l-0.068,0.02l-0.068,0.017l-0.072,0.016l-0.07,0.02l-0.09,0.019l-0.069,0.021
		l-0.066,0.013l-0.074,0.013l-0.07,0.025l-0.069,0.02l-0.07,0.012l-0.07,0.016l-0.069,0.016l-0.073,0.021l-0.066,0.022l-0.072,0.017
		l-0.088,0.016l-0.068,0.017l-0.071,0.018l-0.073,0.016l-0.07,0.019l-0.072,0.018l-0.074,0.016l-0.063,0.019l-0.071,0.014
		l-0.069,0.026L242.64,2.16l-0.066,0.029l-0.069,0.019l-0.069,0.027l-0.074,0.013l-0.07,0.016l-0.074,0.017l-0.061,0.018
		l-0.091,0.036l-0.069,0.02L241.92,2.37l-0.065,0.021l-0.07,0.02l-0.069,0.018l-0.071,0.032l-0.07,0.018l-0.074,0.01l-0.072,0.024
		l-0.067,0.019l-0.073,0.029l-0.073,0.017l-0.069,0.023l-0.071,0.016l-0.062,0.033l-0.075,0.026l-0.073,0.012l-0.069,0.017
		l-0.069,0.034l-0.067,0.021l-0.069,0.02l-0.074,0.033l-0.07,0.02l-0.064,0.016l-0.072,0.038l-0.074,0.017l-0.068,0.017l-0.07,0.036
		l-0.07,0.021l-0.07,0.018l-0.068,0.029l-0.068,0.021l-0.072,0.032l-0.056,0.02l-0.065,0.02l-0.07,0.035l-0.068,0.016l-0.075,0.039
		l-0.073,0.013l-0.063,0.022l-0.069,0.035l-0.07,0.015L239.06,3.32l-0.068,0.02l-0.072,0.032l-0.073,0.021l-0.066,0.034l-0.07,0.016
		l-0.073,0.039l-0.071,0.02l-0.054,0.032l-0.067,0.019l-0.069,0.033l-0.07,0.021l-0.068,0.035l-0.068,0.017l-0.071,0.032
		l-0.071,0.021l-0.07,0.034l-0.07,0.019L237.827,3.8l-0.064,0.032l-0.068,0.02l-0.074,0.032l-0.072,0.021l-0.071,0.039l-0.067,0.029
		l-0.066,0.021l-0.057,0.033l-0.071,0.035l-0.069,0.021l-0.07,0.031l-0.068,0.017l-0.072,0.041l-0.068,0.032l-0.056,0.018
		l-0.069,0.032l-0.067,0.038l-0.069,0.033l-0.07,0.014l-0.072,0.044l-0.052,0.027l-0.073,0.022l-0.07,0.032l-0.07,0.036
		l-0.069,0.037l-0.069,0.016l-0.053,0.037l-0.051,0.016l-0.174,0.089h-0.006L235.763,4.7l-0.34,0.166l-0.172,0.088h-0.007
		l-0.003,0.007l-0.1,0.053l-0.951,0.476l-0.369,0.207l-0.299,0.179l-0.189,0.102l-0.616,0.352l-0.67,0.404l-0.524,0.319
		l-0.342,0.195l-0.277,0.192l-0.298,0.193l-0.579,0.406l-0.477,0.315l-0.424,0.317l-0.318,0.213l-0.563,0.417l-0.473,0.406
		l-0.336,0.261l-0.76,0.693l-0.016,0.013l-0.473,0.408l-0.459,0.391l-0.102,0.063l0.561-0.492l0.353-0.356l-0.091,0.075
		l-0.279,0.243l-0.492,0.427l-0.706,0.613l-0.439,0.403l-0.441,0.408l-0.399,0.39l-0.404,0.421l-0.405,0.418l-0.357,0.37
		l-0.328,0.369l-0.386,0.425l-0.479,0.559l-0.212,0.272l-0.086,0.101l-0.706,0.877l-0.541,0.721l-0.229,0.339l-0.107,0.117
		l-0.141,0.236l-0.139,0.208l-0.091,0.138l-0.118,0.18l-0.092,0.158l-0.274,0.441l-0.219,0.329l-0.384,0.604l-0.335,0.548
		l-0.261,0.452l-0.268,0.455l-0.12,0.272l-0.303,0.596l-0.155,0.261l-0.105,0.138l0.051-0.102l-0.032,0.03l-0.229,0.477
		l-0.106,0.267l-0.104,0.212l0.032-0.059l-0.176,0.427l-0.104,0.281l-0.18,0.37l-0.223,0.456l-0.088,0.266l-0.156,0.455l-0.18,0.493
		l-0.176,0.445l-0.019,0.046l0.104-0.157l0.053-0.105l0.141-0.364l0.127-0.377l0.017-0.12l0.157-0.334l0.156-0.35l0.143-0.338
		l0.314-0.651l0.179-0.44l0.128-0.261l0.104-0.223l0.227-0.428v-0.031l0.121-0.229l0.039-0.071l0.082-0.176l0.283-0.566l0.178-0.317
		l0.281-0.451l0.199-0.319l0.133-0.213l-0.133,0.288v0.024l-0.18,0.372l-0.14,0.229l-0.3,0.529l-0.302,0.549l-0.101,0.206
		l-0.198,0.391l-0.187,0.438l-0.043,0.16l-0.227,0.471l-0.174,0.427l-0.069,0.245l-0.2,0.349l-0.081,0.195l-0.124,0.441L215.29,26.6
		l-0.213,0.701l-0.261,0.823l-0.128,0.404l-0.104,0.281l-0.105,0.374l-0.084,0.231l-0.072,0.118l-0.066,0.209l-0.058-0.014
		l-0.103,0.375l-0.128,0.523l-0.068,0.614l-0.072,0.389v0.441l0.035,0.155l-0.035,0.233l-0.016,0.503l0.035,0.546l0.053,0.264
		l0.036,0.508l0.071,0.305l0.052,0.313l0.108,0.055l0.209-0.088l0.103,0.049l0.105,0.355l0.037,0.334l0.035,0.989l0.052,0.402
		l0.069,0.224l0.14,0.144l0.092,0.222l0.033,0.215l0.126,0.162l0.062,0.227l0.075,0.14l0.16,0.124l0.05-0.142l0.074,0.126v0.255
		l-0.016,0.045l-0.037-0.146l-0.055,0.089l0.072,0.427l0.067,0.293l0.022,0.281l0.084,0.391l0.051,0.28l-0.089,0.101l0.053,0.143
		l-0.072,0.219l-0.025,0.207l0.013,0.157l0.086,0.138l0.037,0.25l0.09-0.126l0.015-0.231l0.056,0.185l-0.018,0.226l0.09,0.156
		l0.102,0.213l0.073,0.234l-0.02,0.167l-0.056,0.096l0.056,0.187l0.139,0.266l0.032,0.141l0.043-0.16l0.139,0.089l0.067,0.136
		l0.122,0.133l0.038,0.335l0.12,0.104l0.057-0.104l0.016,0.454l0.16,0.07l0.07-0.089l0.104-0.032l-0.126-0.476l0.06-0.121
		l0.082,0.016l0.157-0.101l0.104-0.219l0.179,0.032l0.16,0.304l0.033,0.281l0.088,0.088l-0.121,0.139l0.051,0.423l0.109,0.281
		l0.107,0.46l0.014,0.627l-0.102,0.143l0.029,0.686l-0.104,0.377l0.144,0.238l-0.16,0.298l-0.188,0.356l-0.2-0.033l-0.087,0.193
		v0.371l-0.141-0.02l0.056,0.244l-0.268,0.146l-0.21,0.037l0.037,0.299l-0.139,0.385l-0.071,0.381l-0.108,0.043l0.07,0.667
		l-0.07,0.159l0.23,0.418l0.124-0.253l0.087,0.357l-0.16,0.408l-0.26,0.274l-0.071,0.425l0.231,0.737l-0.072,0.248l0.281,0.421
		l0.314,0.601l0.189,0.561l0.198,0.387l0.565,1.516l0.598,1.402l0.509,1.023l-0.021,0.156l0.298,0.617l0.406,0.547l0.919,1.015
		l1.015,0.97l0.106,0.281l0.543,0.531l0.371,0.898l0.354,0.995l0.372,1.27l0.345,1.124l0.441,1.057l0.09,0.582l0.404,0.682
		l0.127,0.392l0.563,0.804l0.299,0.69l0.28,0.683l0.348,0.689l-0.118-0.053l0.441,0.544l0.458,0.476l0.104,0.244l0.614,0.76
		l0.473,0.563l0.266,0.141l-0.402-0.48l0.314,0.213l0.687,0.777l-0.495-0.281l0.598,0.617l0.125,0.207l0.564,0.299l0.039,0.152
		l0.331,0.301l0.824,0.619l0.439,0.279l0.214,0.163l0.387,0.247l0.596,0.33l0.615,0.334l0.403,0.203l-0.282-0.132l-0.683-0.351
		l-0.319-0.174l0.897,0.509l0.532,0.262l0.595,0.299l0.349,0.141l0.334,0.153l0.197,0.09l0.156,0.058h0.091l-0.091-0.069
		l0.322,0.141l0.242,0.089l-0.068-0.108l-0.531-0.199l-0.652-0.294l-0.472-0.284l-0.312-0.174l-0.268-0.104l-0.085,0.016
		l0.226,0.178l0.072,0.069l-0.186-0.083l0.097,0.025l-0.386-0.26h0.09l0.032-0.033l0.264,0.104l0.163,0.057l-0.459-0.249
		l-0.55-0.372l-0.087-0.102l0.123-0.025l-0.281-0.313l0.178-0.066l-0.248-0.264l-0.405-0.199l-0.632-0.363l-0.198-0.248l0.091-0.105
		l0.338,0.126l-0.109-0.173l-0.319-0.393l0.071-0.139l0.269-0.025l-0.302-0.239l-0.107,0.073l-0.372-0.217l-0.397-0.421l0.053-0.069
		l0.505,0.283l0.372,0.071l0.143-0.095l-0.246-0.223l-0.16-0.299l-0.281-0.285l0.513,0.176l0.807,0.16l0.526-0.07l0.092-0.459
		l-0.104-0.207l-0.409-0.268l-0.12-0.297l-0.83-0.569l-0.105-0.223l0.426,0.337l0.336,0.049l0.539,0.316l0.248,0.018l0.422,0.174
		l0.422-0.141l0.072-0.238l0.227-0.219l0.018-0.398l0.262-0.159l0.32-0.299l0.279-0.774l0.3-0.215l0.052-0.231l-0.071-0.51
		l-0.173-0.313l-0.034-0.383l0.348-0.465l0.601-0.313l0.638-0.051l0.383-0.189l0.932-0.072l0.687,0.088l0.086-0.316l0.479-0.199
		v-0.562l0.543-0.683v-0.799l0.192-0.213l0.022-0.391l0.064-0.911l-0.152-1.181l0.152-0.439h0.16l0.471-0.49l0.392-0.691
		l0.937-0.805l0.33-0.408l0.244-1.072l-0.139-0.401L242.572,59.287z M226.457,10.79l0.353-0.295l0.35-0.324l0.314-0.255l0.232-0.18
		l0.191-0.176l0.16-0.14l0.281-0.229l-0.126,0.085l-0.351,0.271l-0.242,0.211l-0.174,0.141l-0.321,0.261l-0.228,0.197l-0.44,0.418
		V10.79L226.457,10.79z M238.206,17.987l0.16-0.139l-0.16-0.056l-0.441,0.128l-0.416,0.28l-0.951,0.844l-0.526,0.281l0.067,0.21
		l-0.375,0.16l-0.049,0.196l0.754,0.193l0.459,0.069l0.322,0.227l-0.441,0.233l0.224,0.063l0.759-0.432l0.067,0.101l-0.349,0.491
		l0.225,0.179l0.217,0.02l0.435-0.51l0.054-0.424l0.105-0.329l-0.332,0.048l0.35-0.417l-0.297-0.274l-0.264,0.107l-0.268-0.242
		l0.249-0.179l-0.177-0.172l-0.366,0.139l0.542-0.46L238.206,17.987z M230.8,7.448l-0.28,0.179l-0.245,0.155l-0.15,0.103
		l0.575-0.348L230.8,7.448z M239.847,8.492l0.188,0.065l0.284-0.065l0.086-0.054l0.249-0.161l0.035-0.16l-0.213-0.021l-0.388,0.197
		L239.847,8.492z M230.117,7.89l-0.016,0.013l0.021-0.017L230.117,7.89z M229.961,8l-0.356,0.244l-0.067,0.051l0.565-0.392
		L229.961,8z M236.624,9.793l-0.191-0.145l-0.389,0.126l-0.125,0.143l0.09,0.07l0.514-0.127L236.624,9.793z M237.765,8.315
		l-0.596,0.317l-0.508,0.297l-0.408,0.108l0.23,0.086l-0.299,0.265l0.509-0.07l0.461-0.125l-0.199,0.23l0.108,0.225l0.335-0.054
		l0.067-0.189l-0.153-0.038l0.263-0.192l0.018-0.228l0.053-0.228l0.09-0.144l-0.159,0.021l0.243-0.191L237.765,8.315z
		 M244.613,3.209l0.055-0.082l-0.406-0.02h-0.457l-0.212,0.102l0.052,0.073l0.262,0.035v0.039h0.245l0.55-0.109L244.613,3.209z
		 M236.64,10.337l0.071-0.107l-0.05-0.058l-0.248,0.096l-0.055,0.033l-0.119,0.14l0.03,0.088L236.64,10.337z M245.476,4.055
		l0.191-0.104l0.031-0.032l-0.016-0.07l-0.277,0.091l-0.269,0.082l-0.141,0.074l0.212,0.031L245.476,4.055z M242.974,4.747
		l-0.139,0.134l0.037,0.109l0.296-0.07l0.192-0.103l0.195-0.128l-0.247-0.017L242.974,4.747z M245.208,3.654v0.104l-0.191,0.121
		l-0.035,0.108l0.277-0.108l0.319-0.105l0.212-0.172l0.086-0.105l-0.281,0.051l-0.157,0.106H245.208z M245.49,3.337l0.037-0.039
		h-0.211l-0.107,0.021l-0.016,0.071l0.139,0.035L245.49,3.337z M244.716,3.368l-0.25,0.109l0.212,0.051l0.215-0.032l0.124-0.09
		l-0.07-0.05L244.716,3.368z M247.25,3.949l0.226,0.104l0.035,0.111l-0.313,0.015l0.016-0.056l-0.103-0.104l-0.319,0.124
		l-0.191,0.143l-0.252,0.072l-0.26-0.026l-0.299,0.057l-0.031,0.123l-0.34,0.191l0.127-0.207h-0.088l-0.46,0.177l-0.261-0.014
		l-0.319,0.101l0.091,0.102l0.016,0.108l0.314,0.104l0.037,0.196l0.617-0.054l0.142-0.075l-0.156-0.045l0.117-0.072l0.304-0.017
		l0.28-0.088l0.302-0.016l0.295-0.06l0.228-0.157l0.159-0.017l-0.032-0.087l0.294,0.073l0.18-0.021l0.268,0.021l0.598-0.164
		l0.277-0.035l0.511-0.102L249.101,4.3l0.173-0.036l0.282,0.019l0.403-0.072l0.142-0.071V4.035l-0.072-0.068l-0.117-0.068
		l-0.088-0.052l-0.074-0.051l-0.262-0.039l0.056-0.036l-0.18-0.052l-0.142-0.017h-0.174l-0.385,0.068l0.143-0.068l-0.02-0.036
		l-0.301,0.021l-0.193-0.021l-0.053-0.039l-0.195-0.013l-0.231,0.072l-0.157,0.084l-0.246,0.106L247.25,3.949z M244.873,4.303
		l0.041,0.016l0.082-0.016l0.093-0.07l-0.072-0.09l-0.18,0.071L244.873,4.303z M234.466,18.026l0.136,0.363l0.333,0.304l0.18,0.037
		l0.067-0.109l-0.212-0.337l-0.349-0.273L234.466,18.026z M245.758,4.077l-0.231,0.121v0.105l0.141,0.074l0.618-0.091l0.281-0.019
		l0.134-0.125l0.41-0.156l0.051-0.089l0.089-0.102l0.316-0.143l-0.104-0.075l-0.141,0.059l-0.09-0.02l-0.229,0.037l-0.333,0.053
		l-0.32,0.09l-0.189,0.102l0.068,0.068l-0.209,0.039L245.758,4.077z M242.764,4.198l0.353-0.055l0.333-0.108l0.036-0.068
		l-0.141-0.018l0.269-0.086l0.329-0.09l0.093-0.067h-0.269l-0.686,0.244l0.055-0.102l0.437-0.194l0.284-0.215h-0.197l-0.666,0.075
		l-0.158,0.104l0.02,0.247l-0.281-0.055l-0.251,0.07v0.089l0.301,0.068L242.764,4.198z M244.174,4.268l-0.104,0.019V4.216
		l-0.285-0.018V4.144l-0.561,0.16l0.106,0.074l-0.426,0.118l-0.069,0.088l0.127,0.074l0.542-0.147l0.37-0.106L244.174,4.268z
		 M241.339,5.359l0.23-0.217l0.363-0.068l0.199-0.084l-0.16-0.07l0.108-0.127l-0.39,0.037l-0.42,0.231l0.016-0.157l-0.215,0.065
		l-0.456,0.375l-0.24,0.139V5.57l0.327,0.013L241.339,5.359z M239.948,5.217l0.493-0.192l0.674-0.277l0.277-0.162l0.107-0.106
		l-0.125-0.019l-0.721,0.267l-0.278,0.064l0.684-0.281l0.226-0.123l-0.364,0.039l0.364-0.194l-0.171-0.09l0.313-0.05l0.155-0.106
		l-0.351-0.069l-0.262,0.031l-0.494,0.086l-0.249,0.163l-0.028,0.105l-0.199-0.07l-0.281,0.099l-0.053,0.115v0.139l-0.189,0.188
		l-0.107-0.045l0.075-0.127l-0.096-0.068l-0.052-0.036l-0.582,0.277l0.057,0.044l-0.215,0.173l-0.331,0.152l0.032,0.128l0.106,0.156
		l0.249,0.073l0.054,0.071l-0.141,0.21l-0.056,0.192l0.264-0.09l0.229-0.152l0.124,0.104l0.299-0.104l0.262-0.262L239.948,5.217z
		 M239.036,6.394l0.229-0.157l0.104-0.086l0.088-0.09l0.141-0.179l-0.333,0.09l-0.249,0.019l-0.242,0.23l0.123,0.032l-0.123,0.199
		L239.036,6.394z M241.181,4.728l0.478-0.089l0.139-0.09l-0.036-0.088l-0.102,0.019L241.181,4.728z M242.253,3.685l0.123-0.157
		l0.215-0.123l0.032-0.174l-0.472,0.156l-0.406,0.035l-0.459,0.073l-0.244,0.032l-0.513,0.245l-0.314,0.125l0.19,0.089l0.297-0.069
		l0.441-0.055l0.426,0.035l0.143,0.039l0.312-0.141L242.253,3.685z M241.673,5.512l0.212,0.021l0.706-0.154l0.032-0.179
		l-0.089-0.126h-0.246l-0.316,0.088l-0.352,0.128l-0.562,0.266l0.032,0.083L241.673,5.512z M242.693,7.122l0.225-0.159l0.107-0.233
		l0.019-0.297l-0.351,0.069l-0.404-0.019l0.424-0.188l0.476-0.424l-0.495-0.02l-0.602,0.193l0.34-0.248l0.472-0.14l-0.383-0.073
		l-0.336,0.057l-0.673,0.211l-0.631,0.314l0.104,0.088l-0.385,0.072l-0.16,0.177l0.055,0.16l0.035,0.242l0.279,0.32l0.305,0.064
		l0.245-0.064l-0.108,0.18l0.089,0.085l-0.21,0.284l-0.229,0.048l0.108,0.266l-0.039,0.28l-0.123,0.176l-0.192,0.194l-0.757,0.3
		l-0.332,0.173l-0.146,0.159l-0.422-0.09l-0.329-0.134l-0.532,0.243l-0.05,0.208l0.597,0.163l0.154-0.121l0.021,0.313l0.018,0.337
		l-0.229,0.103v0.312l0.179,0.424l0.439,0.407l0.122-0.18l0.058-0.37l0.121-0.487l0.153,0.545l0.18,0.225l0.42-0.313l0.321-0.494
		l0.033-0.144l-0.073-0.297l0.073-0.315l0.313-0.247l0.316,0.033l-0.141,0.513l0.07,0.284l0.933-0.411l0.386-0.281l-0.299-0.119
		l0.147-0.479l-0.199-0.187l-0.108-0.405l0.582-0.071l0.316-0.423l0.053-0.194l-0.153-0.28l0.188-0.282L242.693,7.122z
		 M243.286,5.972l-0.223,0.107l-0.211,0.231v0.03l0.211,0.019l0.104,0.071l0.107,0.069l0.157-0.107l0.138-0.261l-0.174-0.16H243.286
		z M244.174,5.656l0.223-0.124l0.146-0.154l-0.088-0.108l-0.229-0.07l-0.262-0.038l-0.059-0.088l-0.052-0.084l0.126-0.086
		l0.089-0.111l0.262-0.09l0.177-0.102l-0.11-0.104l0.179-0.118l-0.031-0.109l-0.299,0.063l-0.177,0.129v0.125l-0.253,0.162
		l-0.332,0.115l-0.352,0.163l-0.055,0.228l0.037,0.126l0.16,0.105l0.352,0.1l0.029,0.108l0.285,0.02L244.174,5.656z M233.286,19.891
		l-0.037,0.225l0.318,0.391h0.158l0.326-0.201l-0.348-0.083l-0.225-0.162l0.054-0.314L233.286,19.891z M220.704,36.09l0.266,0.083
		l0.299,0.019l0.089-0.137l-0.21-0.423l-0.287-0.154l0.089-0.197l-0.173-0.244l-0.124-0.04l-0.139-0.438l-0.159-0.581l-0.069-0.228
		l-0.358-0.084l-0.051-0.313l-0.23-0.416l-0.242-0.158l-0.264-0.208l-0.105,0.043l-0.246-0.078l-0.206,0.035l-0.18,0.075
		l-0.163,0.19l-0.227,0.121l0.09,0.143l0.172,0.017l0.11-0.134l0.124,0.063l0.348-0.224l0.301,0.224l-0.193,0.103l0.07,0.203
		l0.385,0.345l0.057,0.192l0.242,0.35l0.21,0.089l-0.03,0.443l0.054,0.265l0.208,0.16l0.108,0.262l-0.37,0.26l0.561,0.193
		L220.704,36.09z M281.304,26.217l0.23,0.236l0.211,0.018l0.23-0.426l-0.039-0.05l-0.082-0.106l0.082-0.386l-0.212,0.328
		l-0.264,0.091l0.036,0.193h-0.036L281.304,26.217z M266.811,16.266l-0.054-0.51l-0.277-0.249l-0.41,0.278l0.18,0.232
		L266.811,16.266z M222.023,38.432l0.28-0.428l0.18-0.032l0.032,0.194l0.178,0.018l0.109-0.09l0.141,0.09l0.226,0.033l0.176,0.23
		l0.249-0.23l-0.18-0.334l-0.189-0.105l0.07-0.198l-0.249-0.086l-0.013-0.281l-0.125-0.02l-0.217-0.28l-0.333-0.144l-0.085,0.112
		l-0.34-0.262l-0.241-0.14l-0.142,0.153l0.227,0.233l-0.085,0.264l0.127,0.384l-0.198,0.086l-0.299-0.17l-0.351-0.267l-0.108,0.21
		l0.162,0.318l0.229-0.052l0.247,0.155l0.209,0.038l0.247,0.23l-0.022,0.211L222.023,38.432z M237.135,80.394l-0.071,0.054
		l-0.381-0.139l-0.199,0.053l0.336,0.177l0.125-0.04l0.299,0.145l0.367,0.031l-0.018-0.07L237.135,80.394z M269.061,23.651
		l-0.207,0.303v0.262l0.261,0.42l0.281,0.112l-0.032-0.548L269.061,23.651z M263.295,18.072l-0.549-0.046l-0.212-0.234l-0.471-0.631
		l-0.32-0.067l-0.578-0.655l-0.055-0.051h-0.438l0.19-0.546l-0.05-0.456l-0.421,0.031l-0.373,0.106l0.213-0.632l-0.421,0.089
		l-0.315-0.021l-0.178,0.481l0.014,0.578l0.287,0.281l0.174,0.565l0.14-0.299l0.18,0.16l-0.074,0.262l0.142,0.157l0.527,0.054
		l0.018,0.021l0.387,0.329l0.033,0.356h-0.645l0.013,0.381l0.335,0.318l-0.418,0.233l0.193,0.227l0.721,0.032l-0.373,0.179
		l-0.508,0.703l0.281,0.108l0.26-0.265l0.44,0.027l0.229-0.311l0.246,0.089l0.706-0.243l0.597-0.057l0.283-0.372l-0.283-0.278
		l0.162-0.208L263.295,18.072z M278.352,27.377l0.579-0.241l-0.031-0.211l-0.195,0.159l-0.041-0.127l-0.33,0.054l-0.316,0.142
		l-0.349-0.157l0.05,0.3l0.576-0.017L278.352,27.377z M253.141,9.333l-0.353-0.016l-0.65-0.039l0.32-0.229l-0.035-0.297l0.26,0.245
		l0.18,0.179l0.44-0.069l-0.073-0.354l-0.281-0.284l-0.293-0.102l0.133-0.104l0.426,0.178l0.016-0.195l-0.249-0.28h0.28l0.324-0.074
		l0.066-0.144l-0.23-0.153l0.441-0.037l-0.248-0.352l0.195-0.032l-0.031-0.338l-0.337-0.194l0.298-0.118l0.248-0.021l-0.195-0.249
		l-0.014-0.402l0.102-0.228l0.14-0.244l-0.281-0.021l0.388-0.053l0.068-0.089l0.426-0.246l-0.105-0.141l-0.336-0.057l-0.514,0.146
		l-0.297,0.12l0.141-0.195l-0.069-0.117l-0.21,0.102l-0.281-0.127l-0.381,0.025l-0.023-0.069h0.545h0.39l0.173-0.127l-0.51-0.246
		l-0.633-0.072h-0.3l-0.19,0.089l-0.281-0.056l-0.459,0.14l-0.16,0.123l0.053,0.191l-0.088-0.118l-0.102-0.053l-0.071-0.144
		l-0.441,0.123l0.039-0.106l-0.262-0.046l-0.319-0.026l-0.313,0.026l-0.198,0.12h-0.158l-0.671,0.106l-0.281,0.074l0.057,0.171
		l-0.229,0.09l-0.6,0.03H246.9l-0.227,0.111l-0.02,0.191l0.305,0.232l-0.254-0.058h-0.438l-0.176,0.245l-0.034,0.147l0.335,0.084
		l0.352,0.069l0.242,0.107l0.107,0.3l-0.193,0.14l0.037,0.173l-0.264,0.441l-0.16,0.284l-0.029,0.173l-0.604,0.318l0.069,0.143
		l0.254-0.019l0.029,0.153l0.121,0.338l-0.33-0.192l-0.195-0.039l-0.279,0.218l-0.264,0.278l0.138,0.189l0.249-0.014l0.18-0.06
		l0.381-0.099l-0.33,0.334l-0.23,0.154l-0.49,0.108l-0.67,0.454l0.018,0.196l-0.373,0.317l0.021,0.494l-0.283,0.44l-0.086,0.333
		l0.068,0.703l-0.107,0.53l0.125,0.332l0.654,0.108l0.263,0.493l0.49,0.034l0.421-0.495l0.352-0.401l0.073-0.424l0.701-0.336
		l0.316-0.319l0.175-0.351l0.388-0.262l0.474-0.065l0.439-0.086h0.218l0.731-0.286l0.569-0.477l0.333-0.164h0.299l0.85-0.118
		l0.787-0.336L253.141,9.333z M294.289,31.06l0.011,0.046l-0.034-0.103l-0.382-1.193l-0.28-0.774l-0.301-0.792l-0.228-0.568
		l0.191,0.69l-0.02,0.074l-0.313-0.514l-0.102-0.334l-0.11-0.195l-0.243-0.313h-0.088l-0.229-0.401l-0.263-0.338l-0.021,0.492
		l-0.105,0.354l-0.065,0.366l-0.289,0.179l-0.208,0.069l-0.192,0.141l-0.441-0.702l-0.121-0.037l-0.074,0.281v0.506l-0.311,0.022
		l-0.445-0.319h-0.277l-0.459-0.492l-0.598-0.721l-0.072,0.197l-0.242-0.089l0.051,0.315l-0.16,0.066l0.195,0.252l0.051,0.169
		l0.336,0.427l0.371,0.509l0.178,0.053l0.16,0.192l0.281,0.16l0.139,0.261l0.067,0.229l0.146,0.211l0.133,0.126l0.129,0.192
		l0.107,0.134l-0.236-0.468l-0.1-0.405l0.036-0.125l0.151,0.162l0.18,0.369l0.123,0.438l0.159,0.234l0.02-0.077l0.085,0.172
		l0.105-0.261l0.16-0.137l0.127-0.109l-0.072-0.583l-0.074-0.578l-0.09-0.529l-0.069-0.274l0.058,0.03l0.102,0.299l0.039,0.146
		l0.262,0.493l0.279,0.35l0.18,0.14l0.139-0.076h0.123l0.229,0.288l0.124,0.178h0.067l0.072,0.155l0.1,0.47l0.058,0.219l0.038,0.293
		l0.121,0.549l-0.071,0.047l0.033,0.221l0.107,0.366l0.177,0.421v0.099l-0.047,0.09l-0.02,0.396l0.082,0.344l0.02,0.192
		l-0.102,0.131l-0.02,0.262l0.086,0.26l-0.022,0.304l-0.115,0.051l-0.056,0.367l-0.091,0.144l-0.083,0.333l0.05,0.334l0.052,0.246
		l-0.139,0.511l-0.281,0.65l-0.103,0.67l-0.106,0.141l-0.091,0.017l-0.089,0.405l-0.153,0.267l-0.233,0.212l-0.051,0.082
		l-0.036,0.231l-0.05,0.108l-0.02,0.209l-0.16,0.085l-0.071,0.159l-0.228,0.108l-0.16-0.375l-0.07-0.385l-0.101-0.174l-0.179-0.477
		l-0.173-0.226l0.069-0.087l-0.126-0.301l0.017-0.159l-0.104-0.295l-0.125-0.269l-0.139-0.156l-0.106-0.268l-0.248-0.152
		l-0.331-0.479l-0.26-0.523l-0.39-0.352l-0.194-0.04l-0.438-0.528l-0.21-0.468l-0.129-0.424l-0.474-0.65l-0.266-0.193l-0.243-0.059
		l-0.265-0.331l-0.035-0.16L285.9,31.87l-0.153-0.104l-0.353-0.443l-0.447-0.457l-0.383-0.392l-0.178,0.089l-0.102-0.382
		l-0.089-0.25l-0.071-0.299l-0.05-0.089l0.017,0.321l0.142,0.547l0.036,0.402l-0.036,0.159l-0.217-0.186l-0.298-0.223l-0.683-0.857
		l-0.022,0.07l0.461,0.667l0.527,0.58l0.704,0.95l0.28,0.317l0.281,0.335l0.615,0.613l-0.035,0.159l0.18,0.441l0.647,0.421
		l0.104,0.127l0.356,0.61l-0.058,0.178l0.285,0.687l0.367,0.773l0.195,0.108l0.281,0.16l0.424,0.722l0.26,0.595l0.281,0.23
		l0.621,0.402l0.28,0.304l0.261,0.294l0.159,0.183l0.212,0.118l0.103,0.176l0.056,0.3l-0.158,0.281l0.178,0.101l0.121,0.075
		l0.121,0.245l0.192,0.213l0.158-0.107l0.249-0.373l0.301-0.313l0.19-0.39l0.124-0.158l0.072-0.191l0.137-0.137l0.088-0.092
		l0.09-0.192l0.129-0.192l0.048-0.337l0.087-0.088l0.054,0.192l0.05,0.424l0.068,0.366v0.302l0.055,0.827v0.878l-0.034,1.038
		l-0.128,1.213l-0.156,0.964l-0.283,1.2l-0.279,0.792l-0.437,0.998l-0.302,0.727l-0.368,1.071l-0.089,0.427l-0.092,0.207
		l-0.244,0.407l-0.104,0.351l-0.126,0.121l-0.086,0.514l-0.13,0.344l-0.098,0.497l-0.18,0.298l-0.246,0.946l-0.016,0.372
		l0.208,0.127v0.178l-0.158,0.447v0.203l-0.067,0.332l0.055,0.352l0.052,0.58l0.101,0.068v0.271l-0.139,0.662l-0.068,0.568
		l-0.227,1.02l-0.021,0.281l-0.226,0.508l-0.262,0.526l-0.337,0.509l-0.404,0.422l-0.493,0.51l-0.653,0.881l-0.174,0.191
		l-0.42,0.559l-0.212,0.215l-0.173,0.46l0.012,0.368l-0.057,0.314l-0.063,0.177l0.086-0.057l-0.246,0.585l-0.174,0.296l0.029,0.069
		l-0.156,0.269l-0.242,0.28l-0.409,0.329l-0.601,0.534l-0.28,0.277l-0.069,0.215h0.089l-0.179,0.318l-0.299,0.434l-0.277,0.482
		l-0.229,0.299l-0.404,0.381l-0.124,0.111l-0.317,0.332l-0.264,0.313l-0.441,0.481l-0.752,0.695l-0.473,0.415l-0.461,0.325
		l-0.548,0.339l-0.229,0.106l-0.139,0.149h-0.211l-0.28,0.183l-0.417,0.053l-0.299,0.133l-0.178,0.025l-0.568,0.333l-0.435,0.173
		l-0.39,0.268l-0.229,0.07l-0.105-0.123l-0.139,0.035l-0.091-0.156l-0.066,0.068l0.013-0.105l0.145-0.281l0.015-0.307l0.197-0.115
		l0.175-0.389l-0.091-0.382l-0.069-0.37l-0.088-0.581l-0.228-0.32l-0.067-0.329l0.067-0.514v-0.35l0.09-0.83l0.193-0.669l0.02-0.294
		l-0.16-0.199l-0.18-0.424l-0.141-0.631l-0.032-0.352l-0.349-0.495l0.051-0.456l0.014-0.383l0.178-0.549l0.301-0.617l0.084-0.277
		l0.285-0.615l0.176-0.28l0.406-0.493l0.243-0.336l0.13-0.493l0.018-0.351l-0.162-0.192l-0.121-0.37l-0.106-0.371l0.048-0.143
		l0.217-0.297l-0.141-0.613l-0.091-0.425l-0.281-0.351l0.071-0.162l-0.071-0.191l-0.144-0.471l-0.474-0.615l-0.626-0.584
		l-0.408-0.49l-0.387-0.656l0.018-0.246l0.14-0.238l0.156-0.533l0.146-0.547l-0.126-0.088l0.211-0.844l0.07-0.561l-0.261-0.441
		l-0.306-0.066l-0.137-0.303l-0.177-0.069v-0.198l-0.667,0.369h-0.248l-0.244,0.201l-0.529,0.066l-0.371-0.385l-0.246-0.49
		l-0.491-0.41l-0.513,0.072l-0.598,0.09l-0.563,0.16l-0.545,0.211l-1.074,0.56l-0.384,0.283l-0.64,0.278l-0.632-0.144l-0.312,0.038
		l-0.515-0.102l-0.455,0.051l-0.846,0.191l-0.493,0.25l-0.722,0.317H262.8l-0.188,0.015l-0.761-0.299l-0.664-0.514l-0.63-0.365
		l-0.493-0.444l-0.195-0.046l-0.545-0.268l-0.389-0.366l-0.128-0.265l-0.1-0.545l-0.335-0.418l-0.281-0.265l-0.193-0.091
		l-0.177-0.143l-0.089-0.331l-0.11-0.16l-0.227-0.103l-0.386-0.305l-0.322-0.051l-0.153-0.191v-0.13l-0.228-0.134l-0.053-0.156
		l-0.127-0.566l0.089-0.332l-0.296-0.567l-0.369-0.261l0.313-0.143l0.352-0.532l0.158-0.384l-0.068-0.403l0.19-0.37l0.071-0.705
		l-0.09-0.725l-0.083-0.363l0.052-0.375l-0.192-0.348l-0.37-0.319l0.02-0.311l0.031-0.339l0.265-0.208l0.208-0.386l-0.047-0.249
		l0.225-0.53l0.351-0.472l0.229-0.121l0.159-0.441v-0.388l0.226-0.473l0.443-0.281l0.365-0.754h0.021l0.314-0.304l0.599-0.102
		l0.479-0.533l0.298-0.208l0.471-0.634l-0.227-0.892l0.178-0.617l0.036-0.391l0.346-0.51l0.568-0.37l0.416-0.32l0.306-0.772
		l0.101-0.435l0.441-0.041l0.409,0.285l0.541-0.105l0.632,0.105l0.246-0.017l0.498-0.444l0.58-0.194l0.299-0.313l0.49-0.277
		l0.9-0.249l0.899-0.179l0.293,0.069l0.424-0.35l0.56-0.089l0.263,0.122l0.354-0.103l0.473-0.371l0.389,0.021l0.088,0.35
		l0.354-0.333l0.09,0.121l-0.143,0.383l0.088,0.32l0.246,0.146l0.125,0.612l-0.253,0.403l0.212,0.354l0.289-0.035l0.24,0.319
		l0.234,0.066l0.684,0.12l0.209-0.104l0.479,0.021l0.773,0.172l0.441,0.569l0.506,0.035l0.811,0.117l0.652,0.212l0.179-0.224
		l0.12-0.385l-0.299-0.515l0.016-0.366l0.234-0.405l0.281-0.176l0.682-0.036l0.281,0.248l0.16-0.036l0.193,0.069l0.477-0.051
		l0.206,0.187l0.584-0.187l0.476,0.032l0.509,0.07l0.227,0.031l0.231-0.329l0.082-0.247l0.34-0.199l0.314-0.013l0.246,0.281v-0.249
		l0.37,0.033l0.312-0.083l0.109-0.25v-0.261l-0.053-0.032l-0.057-0.357l-0.153-0.529l-0.039-0.193l-0.133-0.593l-0.09-0.546v-0.015
		l-0.301-0.499l-0.069-0.3l-0.279-0.223l-0.02-0.304l-0.16,0.145l-0.372-0.016l-0.03,0.476l-0.498,0.278l-0.488-0.229l-0.404,0.134
		l0.053,0.307l-0.232,0.172l-0.543-0.212l-0.42,0.16l-0.561-0.58l-0.478-0.267l-0.071-0.562l-0.422-0.227l0.109-0.758l0.561-0.229
		l-0.121-0.52l0.716-0.186l0.16-0.559l0.284-0.317l0.506-0.25l0.83,0.198l0.58,0.036l0.281-0.265l0.264-0.09l0.105-0.472l-0.16-0.28
		l-0.354-0.372l-0.313-0.143l-0.192,0.016l-0.248-0.121l-0.705-0.313l-0.49-0.068l-0.494-0.235l0.123-0.193l-0.138-0.594
		l-0.335-0.143l0.191-0.438l-0.109-0.108l-0.157,0.199l-0.175,0.153l-0.038,0.268l-0.246,0.153l-0.067,0.318l0.281,0.371l0.244,0.07
		l0.279-0.176l0.091,0.248l-0.239,0.248l-0.162,0.51l-0.262-0.057l-0.131-0.298l-0.471-0.035l-0.02-0.144l0.159-0.315l-0.194-0.089
		l-0.577,0.037l-0.197-0.21l-0.225,0.192l0.104,0.37l0.037,0.53l0.123,0.153l-0.091,0.186l-0.147-0.022l0.379,0.775l-0.021,0.313
		l0.147,0.499l0.312,0.311l0.191,0.231l0.441,0.088l0.016,0.173l-0.418,0.194l-0.059,0.247l-0.115,0.439l-0.287-0.242l-0.069-0.146
		l-0.251,0.059h-0.24l-0.393,0.311l0.462,0.282l-0.14,0.158l-0.234,0.074l-0.386-0.264l-0.013,0.159l0.293,0.37l0.357,0.249
		l-0.088,0.18l0.381,0.236l0.301,0.127l0.198,0.368l-0.479-0.067l0.281,0.297l-0.242,0.157l0.44,0.549l-0.307,0.089l-0.485-0.197
		l-0.408-0.492l-0.262-0.419l-0.312-0.252l-0.411-0.319l-0.106-0.172l-0.102-0.04l-0.071-0.139l-0.356-0.153l-0.173-0.299
		l-0.172-0.46l-0.038-0.21l-0.122-0.088l-0.127-0.017l-0.211-0.179l-0.246-0.085l-0.525-0.138l-0.353-0.177l-0.491-0.107l-0.58-0.39
		l0.053-0.063l-0.318-0.214l-0.105-0.213l-0.332-0.056v0.304l-0.231-0.18l-0.091-0.228l0.072-0.09l-0.386-0.013l-0.245,0.301
		l0.159,0.299l0.032,0.19l0.281,0.3l0.563,0.246l0.458,0.477l0.735,0.417l0.355-0.088l0.176,0.126l-0.072,0.162l0.513,0.134
		l0.405,0.123l0.542,0.249l0.106,0.121l0.021,0.248l-0.393-0.248l-0.438-0.018v0.477l0.438,0.158l0.09,0.372l-0.173,0.089
		l-0.021,0.613l-0.173,0.108l-0.09-0.216l-0.032-0.365l0.032-0.18l-0.333-0.33l-0.284-0.32l-0.229-0.038l-0.266-0.239l-0.348-0.073
		l-0.302-0.21l-0.372,0.019l-0.482-0.233l-0.605-0.329l-0.456-0.326l-0.404-0.609l-0.265-0.04l-0.46-0.163l-0.19,0.131l-0.156,0.354
		l-0.178,0.063l-0.299,0.439l-1.037-0.032l-0.652,0.313l0.072,0.41l0.138,0.387l-0.367,0.494l-0.634,0.227l0.018,0.226l-0.229,0.421
		l-0.09,0.566l0.318,0.372l-0.245,0.344l-0.032,0.46l-0.392,0.179l-0.281,0.581l-0.741,0.065l-0.541,0.039l-0.32,0.284l-0.172,0.282
		l-0.299-0.039l-0.248-0.214l-0.225-0.401l-0.568-0.069l-0.211,0.208l-0.313-0.09l-0.3,0.112l0.036-0.565l-0.125-0.424l-0.261-0.05
		l-0.16-0.246l-0.02-0.457l0.194-0.265v-0.285l0.051-0.408l-0.051-0.297l-0.137-0.229l-0.06-0.228l-0.031-0.491l-0.264-0.266
		l0.685-0.527l0.654,0.071l0.699-0.052l0.58,0.067l0.422-0.067l0.85-0.069l0.172-0.428l-0.245-1.295l-0.687-0.638l-0.44-0.281
		l-0.796-0.17l-0.154-0.462l0.578-0.197l0.83,0.089l-0.354-0.701l0.507,0.228l0.92-0.591l-0.055-0.516l0.336-0.175l0.301-0.157
		l0.157-0.193v-0.933l0.454-0.32l0.338-0.032l0.015-0.139l0.304-0.089l0.137,0.121l0.125-0.333l-0.195-0.19l-0.191-0.319
		l-0.297-0.299l-0.316-0.562l-0.023-0.16l0.023-0.198l0.278-0.083l0.038-0.159l0.191-0.211l0.162,0.28v0.192l0.115,0.16l0.251,0.034
		l0.036,0.228l-0.141-0.033l-0.037,0.441l0.25,0.262l0.121,0.216l0.44,0.065l0.104,0.216l0.317-0.184l0.123-0.205l0.546,0.159
		l0.281,0.135l0.139-0.205l0.387-0.388l0.301-0.281h0.402l0.123,0.143l0.336-0.071l-0.104-0.269l0.312-0.295l-0.4-0.444
		l-0.299-0.404l-0.105-0.37l0.123-0.244l0.561,0.317l0.226-0.073l-0.277-0.404l-0.228-0.311l-0.053,0.083l-0.336-0.122l-0.279-0.28
		l0.225-0.247l0.266-0.179h0.354l0.246-0.105l0.016-0.371l-0.473-0.141l-0.426,0.191l-0.278,0.32l-0.354,0.229l-0.385-0.229
		l-0.403-0.087l-0.372-0.494l-0.508-0.402l-0.141-0.303l-0.055-0.347l0.02-0.653l0.053-0.14l-0.23-0.178l-0.523-0.104l-0.246,0.231
		l0.086,0.363l0.314,0.261l-0.051,0.483l-0.142,0.523l0.37,0.736l0.473,0.298l0.514,0.214l0.175,0.655l-0.229,0.192l0.51,0.916
		l0.159,0.542l-0.439,0.035l0.071,0.473l-0.39,0.112l-0.42-0.496l-0.67-0.567l-0.716-0.719l-0.427-0.281l-0.294,0.723l-0.409,0.206
		l-0.612-0.206l-0.422-0.559l-0.746-1.18l0.108-0.371l0.527-0.55l0.232-0.593l-0.021-0.74l-0.139-0.986l0.067-0.408l0.035-0.661
		l0.228-0.287l0.337-0.052l-0.14-0.408l0.334-0.063l0.188-0.179l0.885,0.087l-0.057,0.18l0.515,0.17l-0.02-0.195l0.581,0.127
		l0.542-0.09l1.221,0.158l0.381,0.126l0.406,0.227l0.156,0.3l-0.091,0.23l-1.173,0.012l-0.052,0.11l0.682,0.174l0.262,0.196
		l0.581,0.42l0.409,0.021l0.281,0.051l-0.249-0.214l-0.352-0.139l-0.105-0.192l0.76,0.053V9.145l-0.545-0.236l-0.229-0.559
		l0.159-0.055l0.331,0.055l-0.35-0.298l-0.477-0.162l-0.303-0.246l-0.471-0.157l0.529-0.111l0.402,0.162l-0.045,0.144l0.326,0.191
		l0.318,0.067l0.035-0.211l-0.383-0.242l-0.09-0.317l-0.279-0.548l0.085-0.05l0.333,0.26l0.16-0.051l-0.18-0.175l0.107-0.156
		l-0.211-0.23l0.472,0.09l-0.398-0.284l-0.444-0.087l-0.209-0.144l0.311-0.14l0.254-0.017l0.842,0.017l-0.354-0.188l-0.37-0.059
		l-0.153-0.052l-0.073,0.068l-0.336-0.157l-0.545-0.156l-0.228-0.074l-0.618-0.337l-0.632-0.242l-0.137-0.083l0.157-0.129
		l0.408,0.11l0.574,0.226l0.212,0.036l0.478,0.126l0.964,0.35l0.409,0.045l0.454,0.217l0.988,0.545l0.089-0.053l-0.248-0.14
		l-0.193-0.153l-0.336-0.163l-0.354-0.194l-0.369-0.086l-0.471-0.209l-0.02,0.065l-0.391-0.108l-0.715-0.277l-0.554-0.09
		l-0.485-0.261l-0.508-0.125l-0.021-0.031l0.389,0.066l0.67,0.215l0.104-0.039l-0.494-0.104l-0.318-0.194l-0.104-0.141l0.322-0.032
		l-0.547-0.089L265.497,3.6l-0.215-0.144l-0.088-0.14l-0.213-0.141l-0.295-0.02l-0.533-0.159l-0.09-0.05l-0.456-0.156l-0.263-0.163
		l-0.197-0.029l-0.26-0.145l0.088-0.016l-0.525-0.144l-0.16-0.062l-0.281-0.046l-0.35-0.069L261.2,2.015l0.034-0.049l0.288,0.049
		l-0.146-0.088l0.267,0.021l-0.229-0.058l-0.318-0.1V1.703l0.089-0.02l0.298,0.02l0.301,0.069l0.629,0.134l0.266,0.042l-0.09-0.042
		l-0.07-0.043l-0.227-0.059h0.266l-0.194-0.033l-0.315-0.069l-0.403-0.13h0.173l-0.648-0.151l-0.318-0.038l-0.296-0.07l-0.284-0.055
		l-0.09-0.035h0.141l0.281,0.035h0.021l-0.192-0.035l-0.549-0.086l-0.096-0.016h0.063l0.07,0.016l0.081,0.016h0.072l0.068,0.018
		l0.073,0.014h0.073l0.068,0.023l0.085,0.016h0.071l0.072,0.02l0.068,0.016h0.069l0.072,0.018l0.066,0.02h0.091l0.065,0.02
		l0.075,0.018l0.071,0.017h0.067l0.07,0.017l0.07,0.02l0.068,0.021h0.09l0.07,0.019l0.07,0.015l0.069,0.016l0.069,0.014h0.071
		l0.069,0.026l0.07,0.013l0.089,0.021l0.071,0.016h0.076l0.064,0.017l0.068,0.017l0.074,0.022l0.066,0.018l0.07,0.017l0.069,0.016
		l0.091,0.017h0.068l0.074,0.022l0.066,0.021l0.07,0.016l0.069,0.016l0.071,0.02l0.068,0.019l0.07,0.021l0.07,0.013l0.088,0.013
		l0.071,0.025l0.069,0.021l0.071,0.011l0.069,0.016l0.07,0.017l0.069,0.02l0.067,0.022l0.073,0.017l0.073,0.017l0.066,0.016
		l0.07,0.018l0.069,0.021l0.091,0.02l0.069,0.018l0.073,0.016l0.066,0.02l0.07,0.013l0.076,0.027l0.063,0.014l0.07,0.029
		l0.072,0.019l0.072,0.027l0.074,0.013l0.064,0.017l0.068,0.016l0.072,0.019l0.074,0.036l0.063,0.019l0.07,0.016l0.07,0.021
		l0.074,0.02l0.07,0.018l0.068,0.033l0.072,0.017l0.072,0.017l0.064,0.022l0.068,0.02l0.088,0.028l0.073,0.019l0.073,0.022
		l0.067,0.017l0.074,0.033l0.064,0.025l0.075,0.013l0.063,0.017l0.074,0.034l0.071,0.02l0.071,0.021l0.07,0.033l0.051,0.019
		l0.071,0.017l0.069,0.037l0.063,0.018l0.079,0.016l0.068,0.036l0.072,0.022l0.069,0.017l0.067,0.03l0.07,0.02l0.076,0.032
		l0.063,0.021l0.07,0.019l0.072,0.035l0.072,0.016l0.072,0.039l0.066,0.014l0.065,0.021l0.075,0.035l0.073,0.016l0.067,0.035
		l0.064,0.021l0.074,0.032l0.07,0.02l0.051,0.034l0.074,0.017l0.073,0.039l0.066,0.019l0.069,0.033l0.071,0.018l0.069,0.033
		l0.07,0.022l0.068,0.035l0.07,0.017l0.072,0.032l0.054,0.02l0.065,0.034l0.075,0.02l0.072,0.038l0.066,0.031l0.067,0.021
		l0.07,0.032l0.076,0.02l0.063,0.039l0.059,0.03l0.069,0.02l0.069,0.033l0.071,0.035l0.067,0.022l0.071,0.03l0.069,0.018
		l0.054,0.041l0.067,0.033l0.078,0.017l0.069,0.034l0.065,0.038l0.07,0.033l0.053,0.013l0.072,0.044l0.064,0.028l0.072,0.021
		l0.074,0.033l0.07,0.036l0.051,0.037l0.073,0.017l0.067,0.036l0.069,0.035l0.071,0.038l0.058,0.015l0.063,0.029l0.07,0.045
		l0.068,0.026l0.074,0.044l0.051,0.014l0.073,0.031l0.069,0.043l0.068,0.032l0.072,0.034l0.052,0.039l0.073,0.016l0.066,0.036
		l0.068,0.037l0.061,0.033l0.064,0.032l0.074,0.039l0.066,0.031l0.055,0.039l0.069,0.02l0.071,0.032l0.069,0.037l0.052,0.035
		l0.071,0.033l0.067,0.042l0.059,0.03l0.066,0.033l0.074,0.038l0.069,0.033l0.052,0.037l0.066,0.032l0.074,0.039l0.053,0.035
		l0.068,0.034l0.069,0.038l0.054,0.032l0.074,0.033l0.068,0.041l0.054,0.029l0.069,0.038l0.071,0.036l0.053,0.033l0.068,0.033
		l0.069,0.039l0.055,0.032l0.073,0.04l0.069,0.033l0.051,0.038l0.07,0.036l0.07,0.031l0.053,0.052l0.069,0.038l0.058,0.032
		l0.063,0.037l0.069,0.032l0.059,0.039l0.065,0.035l0.056,0.031l0.068,0.055l0.072,0.036l0.051,0.034l0.068,0.04l0.054,0.031
		l0.074,0.04l0.071,0.046l0.051,0.042l0.07,0.032l0.051,0.037l0.068,0.033l0.06,0.058l0.071,0.033l0.063,0.034l0.059,0.036
		l0.07,0.051l0.043,0.037l0.078,0.033l0.058,0.032l0.063,0.058l0.054,0.031l0.074,0.039l0.052,0.034l0.068,0.053l0.059,0.036
		l0.064,0.036l0.053,0.051l0.074,0.032l0.051,0.037l0.069,0.053l0.059,0.036l0.069,0.036l0.045,0.054l0.074,0.036l0.055,0.034
		l0.07,0.052l0.053,0.032l0.049,0.036l0.07,0.052l0.054,0.038l0.068,0.052l0.058,0.038l0.073,0.032l0.047,0.057l0.071,0.034
		l0.053,0.057l0.053,0.03l0.074,0.034l0.05,0.055l0.071,0.035l0.021,0.035l0.028,0.019l0.057,0.033l0.064,0.059l0.058,0.027
		l0.033,0.039l0.043,0.032l0.045,0.021l0.035,0.039l0.042,0.023l0.048,0.026l0.039,0.038l0.049,0.039l0.02,0.013l0.065,0.048
		l0.06,0.038l0.035,0.042l0.029,0.021l0.055,0.021l0.055,0.056l0.052,0.035l0.069,0.054l0.057,0.034l0.051,0.049l0.068,0.057
		l0.056,0.032l0.054,0.055l0.07,0.036l0.053,0.054l0.05,0.037l0.056,0.052l0.068,0.05L280.1,9.94l0.052,0.048l0.055,0.038
		l0.069,0.052l0.058,0.053l0.048,0.036l0.009,0.018l0.08,0.058l-0.034-0.02l0.069,0.05l0.057,0.039l0.047,0.049l0.052,0.053
		l0.073,0.035l0.055,0.057l0.052,0.049l0.057,0.039l0.048,0.051l0.072,0.051l0.053,0.031l0.052,0.06l0.054,0.053l0.052,0.053
		l0.072,0.037l0.056,0.051l0.049,0.049l0.057,0.05l0.051,0.045l0.052,0.045l0.075,0.058l0.048,0.05l0.057,0.039l0.052,0.052
		l0.051,0.053l0.055,0.055l0.057,0.033l0.05,0.05l0.073,0.055l0.051,0.053l0.054,0.052l0.054,0.06l0.049,0.03l0.053,0.052
		l0.057,0.051l0.056,0.055l0.048,0.054l0.05,0.05l0.06,0.036l0.051,0.056l0.056,0.05l0.055,0.051l0.065,0.059l0.052,0.051
		l0.056,0.054l0.05,0.048l0.059,0.04l0.05,0.05l0.057,0.058l0.051,0.05l0.051,0.053l0.055,0.049l0.053,0.059l0.055,0.051
		l0.054,0.051l0.054,0.054l0.048,0.053l0.039,0.053l0.052,0.051l0.052,0.058l0.057,0.052l0.052,0.051l0.055,0.054l0.049,0.052
		l0.057,0.036l0.059,0.053l0.045,0.056l0.055,0.05l0.052,0.068l0.056,0.058l0.033,0.047l0.059,0.058l0.047,0.05l0.051,0.055
		l0.058,0.049l0.052,0.054l0.055,0.054l0.052,0.053l0.034,0.053l0.053,0.059l0.057,0.05l0.053,0.055l0.051,0.045l0.054,0.058
		l0.036,0.052l0.055,0.056l0.051,0.071l0.051,0.049l0.054,0.057l0.035,0.048l0.056,0.053l0.051,0.056l0.051,0.052l0.039,0.054
		l0.051,0.074l0.053,0.05l0.055,0.055l0.054,0.049l0.031,0.055l0.06,0.054l0.047,0.052l0.042,0.072l0.048,0.049l0.055,0.058
		l0.051,0.05l0.039,0.052l0.051,0.07l0.055,0.052l0.029,0.057l0.057,0.055l0.052,0.049l0.038,0.069l0.051,0.059l0.056,0.05
		l0.034,0.054l0.055,0.05l0.052,0.073l0.036,0.051l0.055,0.053l0.03,0.051l0.056,0.076l0.051,0.052l0.038,0.045l0.052,0.073
		l0.037,0.054l0.052,0.058l0.052,0.052l0.033,0.068l0.053,0.05l0.04,0.054l0.048,0.072l0.041,0.052l0.05-0.001l0.052,0.064
		l0.034,0.059l0.05,0.058l0.037,0.045l0.052,0.073l0.038,0.051l0.049,0.055l0.037,0.073l0.054,0.056l0.034,0.063l0.057,0.056
		l0.031,0.056l0.053,0.068l0.037,0.055l0.055,0.046l0.035,0.071l0.033,0.057l0.053,0.071l0.035,0.05l0.049,0.052l0.041,0.071
		l0.051,0.056l0.037,0.071l0.031,0.05l0.054,0.055l0.038,0.07l0.051,0.052l0.032,0.072l0.038,0.053l0.051,0.07l0.037,0.051
		l0.037,0.051l0.053,0.073l0.033,0.048l0.037,0.073l0.053,0.055l0.037,0.072l0.031,0.049l0.053,0.071l0.037,0.058l0.035,0.07
		l0.055,0.051l0.033,0.071l0.033,0.051l0.035,0.069l0.059,0.053l0.031,0.068l0.031,0.06l0.059,0.069l0.03,0.059l0.04,0.063
		l0.033,0.051l0.004,0.014l0.033,0.041l0.037,0.055l0.014,0.016l0.037,0.075l0.033,0.05l0.034,0.07l0.034,0.058l0.055,0.064
		l0.033,0.069l0.037,0.051l0.035,0.07l0.033,0.059l0.051,0.071l0.039,0.05l0.033,0.071l0.035,0.07l0.04,0.058l0.028,0.063
		l0.041,0.06l0.033,0.068l0.055,0.071l0.036,0.052l0.027,0.073l0.04,0.048l0.029,0.07l0.039,0.077l0.035,0.05l0.036,0.071
		l0.037,0.049l0.036,0.075l0.031,0.066l0.035,0.058l0.037,0.063l0.031,0.071l0.039,0.058l0.033,0.07l0.036,0.068l0.032,0.053
		l0.039,0.071l0.035,0.062l0.034,0.059l0.038,0.072l0.033,0.071l0.031,0.05l0.04,0.075l0.028,0.068l0.039,0.049l0.032,0.071
		l0.038,0.072l0.035,0.069l0.035,0.056l0.032,0.074l0.036,0.063l0.037,0.052l0.016,0.066l0.035,0.081l0.035,0.068l0.035,0.053
		l0.034,0.069l0.039,0.071l0.03,0.05l0.039,0.074l0.02,0.07l0.035,0.067l0.036,0.052l0.03,0.076l0.031,0.064l0.02,0.073l0.039,0.055
		l0.037,0.073l0.033,0.066l0.035,0.069l0.016,0.072l0.039,0.053l0.029,0.068l0.039,0.069l0.02,0.078l0.029,0.049l0.035,0.072
		l0.037,0.062l0.018,0.077l0.036,0.073l0.036,0.049l0.017,0.068l0.036,0.072l0.037,0.065l0.033,0.074l0.014,0.073l0.042,0.051
		l0.015,0.072l0.037,0.072l0.032,0.065l0.019,0.068l0.033,0.06l0.037,0.069l0.021,0.064l0.032,0.069l0.036,0.075l0.02,0.073
		l0.033,0.074l0.02,0.047l0.037,0.073l0.013,0.066l0.036,0.071l0.035,0.069l0.016,0.074l0.036,0.072l0.018,0.047l0.036,0.068
		l0.016,0.077l0.039,0.065l0.02,0.074l0.03,0.073l0.021,0.07l0.037,0.069l0.018,0.072l0.029,0.05l0.02,0.067l0.036,0.077
		l0.017,0.066l0.037,0.07l0.013,0.072l0.024,0.072l0.03,0.075l0.021,0.062l0.038,0.078l0.017,0.07l0.031,0.063l0.021,0.057
		l0.013,0.065l0.039,0.072l0.013,0.074l0.02,0.07l0.039,0.064l0.014,0.075l0.037,0.074l0.02,0.066l0.017,0.072l0.034,0.069
		l0.021,0.067l0.02,0.069l0.016,0.074l0.034,0.066l0.016,0.073l0.023,0.07l0.032,0.071l0.018,0.069l0.013,0.078l0.021,0.047
		l0.038,0.074l0.013,0.069l0.02,0.064l0.02,0.07l0.034,0.073l0.016,0.065l0.021,0.072l0.019,0.07l0.015,0.07l0.039,0.069
		l0.018,0.077l0.013,0.066L294.289,31.06z M281.355,17.307l-0.104,0.223l0.303,0.721l0.627,0.402l0.303,0.409l0.762,0.509
		l0.344,0.212l0.42,0.333l0.108-0.032l0.176,0.104l-0.122,0.174l0.318,0.493l0.123,0.231l0.018,0.21l0.229,0.281l0.37,0.402
		l0.279-0.032l0.333,0.176L286.177,22l0.156-0.441l-0.09-0.16l-0.328-0.382l-0.439-0.635l-0.268-0.073l-0.281-0.434l-0.119,0.063
		l-0.357-0.521h0.269l-0.02-0.333l-0.383-0.226l-0.32-0.284v0.284l0.32,0.432l-0.353-0.335l-0.126-0.118l-0.16-0.277l-0.19-0.169
		l-0.353-0.016l-0.51-0.418l-0.229-0.073l-0.158-0.173l0.21-0.086l-0.349-0.405l0.052-0.211l0.208-0.058l-0.473-0.562l-0.33-0.3
		l-0.129,0.18h-0.263l0.035,0.385l-0.054,0.264L281.355,17.307z M294.425,31.532l-0.023-0.09l0.005,0.037L294.425,31.532z
		 M294.305,31.13l0.021,0.071l0.01,0.021l-0.035-0.117L294.305,31.13z M294.39,31.408l-0.014-0.067l-0.02-0.071l-0.022-0.046
		l0.067,0.219L294.39,31.408z M258.999,19.127l0.721-0.416l0.199-0.569l-0.16-0.414l0.121-0.421l-0.549-0.342l-0.332,0.055
		l-0.26,0.3l-0.496,0.491l0.352,0.601l-0.264,0.651L258.999,19.127z M255.343,11.378l0.035-0.338l-0.516-0.013l-0.451,0.261
		l-0.391-0.128l-0.453,0.268l-0.457-0.332l-0.455,0.045l-0.252,0.326l0.646,0.133v0.148l-0.559,0.082l0.668,0.262l-0.334,0.213
		l0.913,0.179l0.44,0.067l0.282-0.087l0.917-0.373l0.349-0.402L255.343,11.378z M272.968,27.206l0.473,0.171l-0.035-0.367
		l-0.137-0.192l-0.039-0.581l-0.35,0.143l-0.457,0.176l-0.604,0.058l0.055,0.363l0.827,0.198L272.968,27.206z M269.221,25.463
		l0.28,0.811l0.266,0.16l0.12-0.262h0.249l-0.249-0.9l-0.472-0.423l-0.16,0.246l-0.28,0.018L269.221,25.463z M219.682,36.701
		l-0.065-0.05l-0.18-0.033l-0.09,0.134l0.143,0.377l0.177,0.211l0.16-0.074l0.261,0.124l-0.017-0.227l-0.157-0.262L219.682,36.701z
		 M292.317,56.035l-0.104,0.401l-0.246,0.572l-0.089,0.014l-0.034,0.244l-0.174,0.396l-0.32,0.575l-0.261,0.49l-0.121,0.092
		l-0.146,0.189l-0.211,0.25l-0.156,0.121l-0.164,0.439l-0.207,0.428l-0.175,0.555l-0.071,0.375l-0.035,0.246l-0.179,0.395
		l-0.315,0.569l-0.083,0.217l-0.179,0.188l-0.229,0.477l-0.16,0.417l-0.106,0.405l-0.206,0.531l-0.071,0.26l0.123,0.056l0.083,0.034
		l0.354-0.418l0.283-0.284l0.436-0.79l0.477-0.912l0.633-1.301l0.439-0.967l0.359-0.832l0.189-0.544l0.102-0.21l0.109-0.283
		l0.104-0.439l0.105-0.244l-0.032,0.313l0.1-0.223l0.106-0.337l0.019-0.25l0.173-0.755l0.057-0.381v-0.233l-0.015-0.212
		L292.317,56.035z M259.406,5.411l0.226,0.074l0.042,0.1l0.314,0.02l0.049-0.192l-0.261-0.017l-0.233-0.104L259.406,5.411z
		 M259.054,5.359l0.09-0.196l-0.686-0.122l-0.279-0.069l-0.141,0.037l0.1,0.105l-0.16,0.028l-0.195-0.081l-0.174,0.17l0.39,0.237
		l0.579,0.223l0.301,0.055l0.029,0.137l0.549,0.145l0.141-0.037l-0.293-0.299l0.024-0.089L259.054,5.359z M258.243,4.728
		l-0.156,0.153l0.319,0.109l0.153-0.04l0.143,0.074l0.386-0.017l0.217-0.127l-0.146-0.192l-0.371-0.03h-0.35l0.068,0.101
		L258.243,4.728z M224.134,38.48l-0.082,0.088l-0.039,0.322l0.28,0.063l0.351,0.127l0.174-0.144l-0.046-0.178l-0.235-0.144
		L224.134,38.48z M257.576,0.854h-0.063l0.1,0.007L257.576,0.854z M257.433,0.843h-0.086h-0.035l0.186,0.012L257.433,0.843z
		 M257.807,0.873h-0.091h-0.002l0.143,0.014L257.807,0.873z M257.947,0.892h-0.031l0.051,0.003L257.947,0.892z M258.318,0.925h-0.02
		l0.049,0.02L258.318,0.925z M258.156,0.912h-0.05l0.093,0.006L258.156,0.912z M257.206,0.82h-0.07h-0.032l0.157,0.016L257.206,0.82
		z M260.512,1.965l-0.141,0.07l0.021,0.036l0.12,0.016l0.968,0.12l-0.706-0.226L260.512,1.965z M260.001,3.939l0.035,0.082
		l0.125-0.053l0.195,0.068l0.207,0.02l-0.052-0.067l-0.12-0.038V3.899l-0.035-0.071l-0.09-0.031h-0.208l0.07,0.067l0.138,0.055
		l-0.194-0.039L260.001,3.939z M258.613,0.963h-0.053l0.124,0.02L258.613,0.963z M258.298,0.925l-0.099-0.006l0.045,0.006H258.298z
		 M258.861,0.994l-0.059-0.006l0.018,0.006H258.861z M256.767,0.783h-0.064l0.095,0.013L256.767,0.783z M256.998,0.802h-0.086
		l0.136,0.011L256.998,0.802z M259.775,2.175l-0.232,0.06l0.268,0.062l0.581,0.11l0.069-0.039h0.44l0.159-0.035V2.234l-0.229-0.089
		l-0.581-0.026L259.775,2.175z M258.757,0.982h-0.073l0.118,0.006L258.757,0.982z M263.729,4.234l0.335,0.298l0.287,0.241
		l0.336,0.089l0.473,0.37l0.139-0.031l0.459,0.356l0.367,0.154l0.068,0.124l0.37,0.139l0.319-0.033l0.318,0.104l0.277-0.193
		l-0.031-0.07l-0.653-0.089l-0.581-0.208l-0.58-0.354l-0.615-0.338l-0.581-0.388l-0.262-0.261l-0.315-0.28l-0.232-0.09l-0.28-0.034
		l0.071,0.124l0.246,0.156L263.729,4.234z M259.69,1.097l0.058,0.02l-0.045-0.02H259.69z M256.238,0.82h0.107l-0.281-0.037
		l-0.299-0.016h-0.268l0.428,0.035L256.238,0.82z M257.401,0.963l0.276,0.02h0.288l-0.196-0.058l-0.352-0.013l-0.67-0.069h-0.297
		l0.525,0.069L257.401,0.963z M259.538,1.081l0.045,0.006l-0.021-0.006H259.538z M259.775,1.123h0.01l-0.037-0.007L259.775,1.123z
		 M259.331,1.052h-0.07l-0.066-0.019h-0.07l-0.07-0.02h-0.088h-0.016l0.299,0.037l0.172,0.019l-0.016-0.006L259.331,1.052z
		 M259.631,1.097h0.059l-0.106-0.01L259.631,1.097z M259.495,1.081h0.045l-0.119-0.011L259.495,1.081z M257.511,0.854h-0.014h0.007
		H257.511z M257.171,0.843l0.188,0.012l0.27,0.038l0.248,0.016l-0.372-0.054l-0.317-0.012H257.171z M258.087,0.912h0.02
		l-0.141-0.016l0.053,0.016H258.087z M257.913,0.912l-0.037-0.004l0.018,0.004H257.913z M257.714,0.873l-0.102-0.013l0.033,0.013
		H257.714z M257.312,0.843l-0.052-0.007l0.016,0.007H257.312z M257.104,0.82l-0.056-0.007l0.018,0.007H257.104z M256.909,0.802
		h0.004l-0.116-0.006l0.039,0.006H256.909z M257.913,0.892l-0.057-0.006l0.016,0.006H257.913z M256.539,0.783h0.091h0.065h0.007
		l-0.201-0.016L256.539,0.783z M225.863,45.199l-0.178,0.163l0.086,0.09l0.475,0.044l0.091-0.529l-0.121-0.07l-0.32,0.019
		L225.863,45.199z"/>
</g>
<g id="hiu">
	<g>
		<path fill="#51504D" d="M81.57,11.014c0.08-1.117,0.294-1.848,0.294-1.848c0.469-1.058,0.968-1.552,1.484-1.833l0.048-0.04
			l0.047-0.007c0.882-0.556,2.375-0.931,4.471-0.931h4.665V0H47.025v6.356h4.664c1.988,0,3.403,0.349,4.276,0.861
			c1.071,0.604,1.539,1.191,1.733,1.647c0.047,0.067,0.239,0.87,0.335,2.021c0.1,1.179,0.149,2.784,0.149,4.771v20.33H34.378v-20.33
			c0-1.954,0.057-3.513,0.154-4.645c0.078-1.117,0.286-1.848,0.312-1.848c0.463-1.058,0.952-1.552,1.465-1.833
			c1.039-0.608,2.516-0.978,4.566-0.978h4.734V0H0v6.356h4.712c1.986,0,3.38,0.349,4.234,0.854c1.045,0.604,1.529,1.187,1.718,1.654
			c0.054,0.067,0.23,0.87,0.339,2.021c0.089,1.179,0.146,2.784,0.146,4.771V67.77c0,1.938-0.058,3.507-0.146,4.63
			c-0.094,1.109-0.288,1.859-0.298,1.859l-0.041,0.057l-0.003,0.013c-0.412,1.004-0.882,1.473-1.405,1.761
			c-1.004,0.597-2.496,0.977-4.544,0.977H0v6.339H45.61v-6.339h-4.734c-1.99,0-3.394-0.354-4.224-0.863
			c-1.062-0.616-1.564-1.204-1.772-1.687c-0.046-0.066-0.254-0.844-0.326-1.994c-0.118-1.171-0.175-2.765-0.175-4.751V45.323h23.804
			l0.003,22.446c0,1.938-0.051,3.507-0.149,4.63c-0.089,1.109-0.291,1.859-0.294,1.859c-0.471,1.038-0.967,1.541-1.5,1.829
			l-0.04,0.019l-0.039,0.033c-0.892,0.529-2.37,0.925-4.473,0.925h-4.664v6.339h45.554v-6.339h-4.665c-2,0-3.406-0.354-4.276-0.863
			c-1.069-0.623-1.549-1.204-1.747-1.653c-0.045-0.08-0.236-0.862-0.319-2.026c-0.104-1.171-0.153-2.765-0.153-4.751V15.658
			C81.416,13.704,81.466,12.146,81.57,11.014z"/>
		<path fill="#51504D" d="M139.466,11.014c0.08-1.117,0.274-1.848,0.295-1.848c0.479-1.058,0.955-1.552,1.479-1.833
			c1.032-0.603,2.513-0.978,4.569-0.978h4.71V0h-45.604v6.356h4.717c1.982,0,3.387,0.349,4.243,0.854
			c1.044,0.604,1.532,1.187,1.721,1.654c0.053,0.067,0.234,0.87,0.327,2.021c0.088,1.179,0.141,2.784,0.141,4.771V67.77
			c0,1.938-0.053,3.507-0.141,4.63c-0.093,1.109-0.274,1.859-0.301,1.867c-0.449,1.064-0.91,1.533-1.434,1.821
			c-1.014,0.597-2.503,0.977-4.558,0.977h-4.717v6.339h45.604v-6.339h-2.08h-2.63c-1.995,0-3.398-0.354-4.243-0.863
			c-1.061-0.616-1.554-1.204-1.767-1.687c-0.04-0.066-0.252-0.844-0.324-1.994c-0.109-1.171-0.168-2.765-0.168-4.751V15.658
			C139.309,13.704,139.366,12.146,139.466,11.014z"/>
		<path fill="#51504D" d="M218.01,0.006v6.352h2.11c2.981-0.008,5.175,0.44,6.447,1.104c0.631,0.319,1.28,0.962,1.879,2.213
			c0.498,0.951,0.923,3.293,0.905,6.688v32.301c0.018,8.279-0.802,14.021-2.08,16.853c-1.358,3.044-3.3,5.339-5.982,7.061
			c-2.637,1.685-5.854,2.563-9.833,2.568c-3.456,0-6.147-0.702-8.187-1.986c-2.174-1.34-3.589-2.925-4.479-4.819
			c-0.812-1.604-1.451-6.236-1.42-13.195V16.362c0-2.223,0.066-4.03,0.174-5.328c0.099-1.312,0.321-2.216,0.383-2.336
			c0.313-0.702,0.756-1.191,1.553-1.64c0.47-0.313,2.41-0.736,5.324-0.702h4.13V0.006h-45.09v2.08v4.29l2.135-0.02
			c0.16,0,0.323,0,0.502,0c2.915-0.034,4.859,0.354,5.389,0.688c0.917,0.488,1.403,1.02,1.696,1.673
			c0.056,0.094,0.291,0.971,0.397,2.269c0.113,1.332,0.185,3.126,0.182,5.376v38.779c0.005,6.8,1.06,12.38,3.401,16.718
			c2.346,4.354,6.342,7.842,11.722,10.459c4.209,2.04,9.771,2.95,16.812,2.965c8.506,0,15.465-1.802,20.712-5.616
			c4.978-3.634,8.316-7.782,9.722-12.479c1.343-4.506,1.936-11.346,1.936-20.746v-30.08c-0.018-3.106,0.295-5.261,0.597-5.944
			c0.575-1.483,1.305-2.368,2.369-3.018c1.076-0.655,2.529-1.044,4.469-1.044h3.729V0.006H218.01z"/>
	</g>
</g>
</svg>
