<svg xmlns="http://www.w3.org/2000/svg" width="296.446" height="85.307"><g><path fill="#BCBCBC" stroke="#FFF" stroke-miterlimit="3.85" d="M258.652 84.569c-2.479.357-4.963.205-7.461.205-2.436 0-4.972-.514-7.336-1.088a44.095 44.095 0 0 1-7.125-2.395c-2.432-1.051-4.598-2.479-6.859-3.807-2.158-1.268-4.098-3.133-5.902-4.871-.92-.888-1.678-1.925-2.584-2.814-.857-.844-1.782-2.045-2.367-3.088-.645-1.148-1.508-2.17-2.111-3.36-.605-1.196-1.193-2.4-1.793-3.601-1.115-2.23-1.729-4.68-2.405-7.076-.306-1.087-.712-2.461-.712-3.584 0-.634-.242-1.264-.242-1.9 0-.552-.029-1.274-.151-1.812-.263-1.16-.061-2.551-.061-3.737 0-1.159-.024-2.531.257-3.652.293-1.174.295-2.434.578-3.625.281-1.186.541-2.386.88-3.557.735-2.542 1.896-4.826 2.93-7.258 1.021-2.398 2.702-4.675 4.289-6.703a41.32 41.32 0 0 1 5.296-5.596 43.044 43.044 0 0 1 6.421-4.678c.558-.33 1.126-.658 1.706-.952.553-.28 1.304-.524 1.785-.897.973-.752 2.463-.917 3.548-1.475 1.061-.544 2.401-.82 3.552-1.131a38.19 38.19 0 0 1 3.605-.787 44.557 44.557 0 0 1 7.459-.649c2.48 0 4.962.215 7.387.666 1.207.225 2.412.497 3.605.811 1.145.301 2.508.595 3.557 1.141 1.133.59 2.412.963 3.57 1.518a43.525 43.525 0 0 1 3.57 1.911c2.29 1.375 4.38 2.949 6.385 4.721 1.861 1.646 3.866 3.53 5.233 5.607 1.501 2.279 3.089 4.392 4.316 6.862 1.146 2.306 2.01 4.654 2.806 7.105.34 1.045.874 2.467.874 3.571 0 .596.312 1.193.312 1.793 0 .531.102 1.304.244 1.815.311 1.118.209 2.529.23 3.691a39.541 39.541 0 0 1-.088 3.727c-.188 2.471-.602 4.838-1.133 7.27-.261 1.201-.645 2.391-1.043 3.547-.375 1.092-.728 2.568-1.391 3.514-.738 1.053-1.074 2.437-1.794 3.533-.747 1.141-1.404 2.319-2.185 3.434a41.497 41.497 0 0 1-5.082 5.988 42.638 42.638 0 0 1-2.862 2.526c-.997.812-2.163 1.46-3.117 2.3-.967.848-2.315 1.456-3.446 2.068a40.9 40.9 0 0 1-3.59 1.722c-2.307.972-4.681 1.7-7.125 2.294a30.687 30.687 0 0 1-4.43.753z"/><path fill="none" stroke="#FFF" stroke-width=".7" stroke-miterlimit="3.85" stroke-opacity=".7" d="M211.65 43.917l.437 1.126m-.001-.001l.759 1.109m0 0c.345.385.676.771 1.071 1.107m.16 3.469l-.16-3.469m.618 6.879l-.458-3.41m.458 3.41l.773 3.309m.001 0l1.057 3.213m0 0l1.332 3.061m.668 1.949l-.457-.647m1.39 1.599l-1.602-2.901m.669 1.949l.934.952m-.001 0l1.869 2.731m0 0l2.125 2.527m2.267 2.242l-2.267-2.241m-2.799-4.308l-1.195-.951m1.195.951l1.462.892m1.689.849l-1.688-.85m1.688.85c.644.275 1.281.549 1.935.81m-.001 0c.714.259 1.435.507 2.144.755m2.357.688l-1.107-2.689m1.107 2.689l-2.357-.688m2.357.688c.846.212 1.688.421 2.537.62m2.687.543c-.888-.209-1.794-.372-2.687-.543m2.687.543c.943.184 1.901.318 2.854.475m-8.078-1.638l1.285 2.457m0 0c.479.755.938 1.521 1.464 2.233m.001.001l1.619 1.969M215.287 48.31l-1.372-1.052m1.372 1.052c.559.343 1.114.683 1.675 1.019m1.947.973c-.646-.313-1.294-.663-1.947-.973m1.947.973c.744.307 1.488.631 2.238.916m2.481.865c-.827-.294-1.649-.584-2.48-.865m5.205 1.63l-2.724-.766m5.662 1.471l-2.938-.705m6.049 1.34c1.098.19 2.207.354 3.311.529m-6.422-1.164c1.04.215 2.081.436 3.112.635m-5.946 2.131l-.104-3.473m.437 6.831l-.333-3.357m.861 6.593l-.529-3.236m.529 3.236c.186 1.029.448 2.055.723 3.057m-.001-.001c.303.971.58 1.953.932 2.907m17.611-3.136l-.144-3.178m.144 3.178l.189 3.009m.251 2.805l-.25-2.804m-7.635-13.575l-3.426-.457m3.426.457l3.537.348m0 0c1.215.087 2.43.171 3.641.255m3.691.152l-3.691-.154m.033 3.461l-.033-3.461m.124 6.786l-.091-3.325m3.658-3.307l3.732.038m.001.001l3.732-.038m3.693-.155l-3.693.154m3.693-.154l3.621-.254m3.557-.347l-3.557.348m3.557-.348l-.055 3.463m0-.001l-.177 3.325m-.283 3.197l.284-3.196m-.284 3.196l-.382 3.012m-.493 2.808l.493-2.808m-19.755 8.277l.383 2.083m.444 1.798l-.444-1.799m-6.944-4.945l-2.972-.381m2.972.381l3.057.32m3.15.216l-.313-2.565m.313 2.565l-3.15-.216m3.15.216l3.184.139m-2.83 2.188l-.354-2.327m3.183.139l3.22.032m0 0l3.217-.032m3.183-.139l-3.184.139m6.339-.355l-3.155.216m6.211-.536l.603-2.605m-.603 2.605l-3.056.32m2.374 2.041l.682-2.361m-1.478 4.47l.796-2.109m-1.651 3.936l.855-1.826m-28.233 3.201l.882.35m0-.001l1.235.44m-4.309-3.821l1.754 1.695m0 .001c.619.486 1.244.951 1.9 1.404m2.022 1.123l-2.021-1.124m2.021 1.124l-1.369-.401m2.828.757l-1.459-.356m1.459.356l1.551.319m1.635.282l-1.635-.281m-3.01-.676c.706.307 1.396.594 2.113.811m.001 0l.477.146m2.054 0l1.711.223m0 0l1.771.18m1.253-.772l.54.894m-1.793-.123l1.793.122m1.854.097l-1.853-.098m-.001.001l.586.579m.596.266l-.596-.266m-1.637-2.669l-.476-1.51m.476 1.51l.511 1.197m14.514-3.154l-.934 1.551m0-.001l-1.021 1.252m-10.165 1.342l1.843.014m-.001 0l1.849-.014m1.828-.097l-1.829.097m3.642-.219l-1.813.122m3.573-.301c.365-.303.716-.625 1.074-.943m-1.074.943l-1.76.18m1.76-.18l-1.127.637m-1.179.304l1.179-.305m-8.514.533l-.123-.021m7.426-.207h.032m-39.052-66.558c-.686.858-1.258 1.818-1.859 2.737m-.076.124c-.156.306-.314.611-.439.931m4.561-6.468l2.442-2.447m-2.442 2.447l-2.187 2.676m5.861-.465l-2.361 2.855m-2.109 3.024l2.109-3.023m-5.875 1.4c-.111.313-.156.64-.174.974m0 0l.108.964m.001 0c.112.319.253.646.381.967m0 0l.652.951m2.798-2.233c-.625 1.049-1.278 2.121-1.865 3.168m-.934-.935l.934.935m-.001.001c-.543 1.064-1.061 2.188-1.584 3.286m0 0c-.449 1.129-.918 2.246-1.313 3.396m.001-.001a100.76 100.76 0 0 0-1.049 3.444m0 .002c-.283 1.156-.496 2.335-.731 3.504m-.443 3.516l.442-3.517m-.564 7.035l.123-3.517M239.65 3.108l.386-.138m-4.164 1.669c-.154.07-.307.147-.461.223m0 0c-.293.153-.576.333-.861.496m16.676-4.204l-1.23-.242m-.813.013l.813-.013m3.744 1.687l-1.264-.88m0 .001l-1.251-.566m-.317.899l2.832.546m-2.832-.546l-2.815-.249m-2.76.072l2.76-.07m-2.76.07c-.895.122-1.811.229-2.693.386m0 0l-2.604.708m6.444-.127c-1.206.168-2.388.334-3.575.58m0 .001c-1.171.214-2.321.544-3.46.881m0-.002c-1.148.274-2.26.764-3.363 1.165m17.658-2.869l-3.655-.041m-3.605.285l3.604-.284m.173.582l3.483-.541m-3.483.541c-1.166.265-2.318.512-3.467.826m0 .001c-1.15.345-2.268.729-3.395 1.146m.001 0c-1.16.431-2.23.916-3.344 1.42m0 0c-1.067.541-2.151 1.084-3.217 1.71m-7.033.423l-2.885 1.99m0 0c-.943.664-1.787 1.482-2.658 2.231m10.289-7.529l-.721.512m0 0l-.563.523m2.817-.925l-3.236 1.451m.422-.526l-.42.526m-.251.568l.249-.568m0 .001l-3.043 1.746m2.709-.633l.086-.546m-.014 1.087l-.072-.541m.297 1.111l-.225-.569m.614 1.108l-.389-.539m4.027-.901c-1.051.618-2.067 1.294-3.096 1.974m.001.001a6.834 6.834 0 0 0-.542-.535m.542.535a70.537 70.537 0 0 0-2.939 2.214m-2.761 2.442l2.76-2.443m-2.76 2.443a98.572 98.572 0 0 0-2.547 2.671m8.955-6.826l-.709-.502m.709.502l.843.496m0 0c.331.169.663.329 1.003.476m-.001 0c.372.154.74.306 1.122.44m0 0c.403.146.836.288 1.252.402m1.352.392l2.133-2.397m-3.484 2.004c.439.146.904.261 1.351.391m0 .002l1.481.33m1.564.3l-1.564-.301m3.216.564l-1.652-.263m-3.045-.63c-.669.865-1.397 1.712-2.004 2.621m0 0c-.672.926-1.291 1.876-1.918 2.827m0-.001c-.59 1.008-1.229 1.994-1.758 3.024M253.74 2.599l-2.392 1.002m.001 0c-.793.425-1.576.846-2.355 1.303m-.001 0c-.789.522-1.606 1.026-2.344 1.598m-2.284 1.883l2.285-1.884m-2.285 1.884l-2.213 2.143m9.673-3.305l.634-1.829m-.634 1.829l-.616 2.109m-.001.001c-.222.788-.402 1.574-.598 2.375m3.13-9.109l-.65 1.248m-.001 0c-.231.531-.433.998-.63 1.547m1.281-2.795l1.267 1.197m-.001 0l1.267 1.494m.001.001l1.231 1.793m0 0l1.234 2.061m.001 0l1.18 2.324m-10.436 5.691l-.511 3.051m0 .001l-.491 3.198m-3.766-9.591c.565.083 1.137.151 1.724.215m1.78.178l-1.78-.179m3.587.3l.584-2.625m-2.391 2.504l1.807.121m1.847.071l-1.848-.071m-.542 2.827l.542-2.828m3.714.09l-1.865-.018m1.865.018l1.863-.018m0 0l1.848-.071m-.001 0l1.811-.121m.658-2.744l1.116 2.565m-1.774.179c.596-.065 1.186-.108 1.773-.179m.001.001l1.077 2.795m1.024 2.99a122.51 122.51 0 0 0-1.023-2.991m1.951 6.176c-.303-1.063-.602-2.139-.928-3.185M227.969 38.48l-.699 3.601m-.513 3.627l.512-3.626m-.832 7.231c.141-1.201.199-2.404.32-3.605m-.32 3.605c-.057 1.18-.057 2.361-.086 3.535m-7.194-26.254c.393.315.81.613 1.213.918m-.001-.001c.47.306.958.601 1.464.855m1.689.831l-1.688-.83m1.688.83l1.953.77m2.145.736l-2.146-.736m8.866-8.57c-.536 1.067-1.085 2.132-1.622 3.204m-1.461 3.326l1.46-3.325m-1.46 3.325l-1.285 3.431m-2.352-.655l2.354.655m2.554.614l-2.556-.616m2.556.616l2.704.524m0 0l2.871.458m-8.131-1.596l-1.084 3.535m.001 0l-.92 3.588m10.134-5.526l2.969.372m3.08.299l-3.079-.299m6.231.51l.352-3.573m-.352 3.573l-3.153-.211m6.355.35l-3.201-.139m-.303 3.656l.302-3.656m-.543 7.35l.241-3.694m1.48-14.084l-.441 3.357m-.385 3.497l.385-3.498m16.906-.44c-.281-1.115-.58-2.214-.885-3.322m.885 3.322c.268 1.142.504 2.303.773 3.449m-11.98 4.241l-3.234-.039m6.45 0l-3.217.039m6.422-.178l-3.204.139m3.204-.139c1.053-.045 2.111-.134 3.166-.211m3.079-.3l-.686-3.552m.686 3.552l-3.078.299m3.662 3.327l-.584-3.625m1.072 7.3c-.162-1.226-.322-2.45-.488-3.676m-20.569 11.625l-.072 3.62m-.033 3.58l.033-3.58m.412-11.009l-.193 3.697m-.147 3.692l.146-3.692m21.28-.58c-.104-1.225-.244-2.448-.369-3.676m.369 3.676c.094 1.224.16 2.449.277 3.673m.164 3.625a402.739 402.739 0 0 0-.164-3.625m.164 3.625l.055 3.572m3.427-.456l-3.427.457m3.427-.457c1.104-.152 2.19-.353 3.29-.529m0-.001c1.041-.204 2.1-.375 3.132-.635m0 0c.987-.22 1.96-.453 2.935-.705m-.001 0l2.713-.766m.562-15.13l.845 3.566m-.001 0l.615 3.592m-.001 0l.354 3.568m.105 3.54a47.065 47.065 0 0 0-.105-3.539m-2.374 4.404c.826-.289 1.674-.539 2.479-.865m0 0c.75-.291 1.517-.559 2.234-.916m1.973-.973l-1.973.973m1.973-.973c.57-.307 1.123-.656 1.671-1.019m-22.82-15.355l-2.971.372m2.971-.372c.95-.146 1.902-.298 2.852-.458m0-.001l2.707-.524m0 0l2.553-.616m2.357-.653c-.79.197-1.572.433-2.357.655m1.265-7.985a151.056 151.056 0 0 0-1.914-3.099m3.638 6.339c-.528-1.104-1.144-2.17-1.725-3.239m3.257 6.593c-.455-1.139-1.011-2.242-1.531-3.354m1.531 3.354l-2.164.736m2.164-.736a53.944 53.944 0 0 0 1.932-.77m0 0a16.83 16.83 0 0 0 1.709-.83m0 0c.493-.278.988-.549 1.462-.855m-3.803 5.917l-1.3-3.462m2.392 6.985a98.71 98.71 0 0 0-1.092-3.523m3.804-5.918c.416-.294.814-.586 1.193-.918m-.002.001c.328-.298.627-.623.936-.935m.668-.952l-1.934-3.059m1.266 4.01l.668-.951m0 0c.16-.304.274-.642.381-.967m1.292 4.171c-.537-1.08-1.111-2.142-1.673-3.205m3.04 6.514a96.624 96.624 0 0 0-1.367-3.309m-5.822-9.166c-.797-.927-1.598-1.847-2.449-2.727m4.665 5.63a95.223 95.223 0 0 0-2.216-2.902m4.531 4.994c.066-.315.103-.645.109-.964m.001 0a4.147 4.147 0 0 0-.174-.974m-.438-.93l.438.931m5.029 19.739l-.457-3.481m-1.234 9.198l-1.369 1.053m2.441-2.161l-1.072 1.107m1.691-5.716l.135 3.5m-.754 1.109l.754-1.109m0 0l.443-1.125m-2.885-12.697l1.072 3.395m.777 3.446l-.776-3.446m1.812 9.302c.072-.318.117-.643.121-.968m-34.919-28.915l1.73-.215m.001 0c.541-.083 1.092-.178 1.64-.263m0 0c.529-.071 1.053-.189 1.577-.301m-.001 0c.492-.108.977-.217 1.465-.33m0 .001c.472-.117.914-.238 1.371-.391m1.248-.403a51.48 51.48 0 0 0-2.534-2.272m1.286 2.673c.438-.114.832-.246 1.248-.402m1.124-.439c-.377.146-.749.294-1.125.44m1.125-.44l.988-.476m0 0l.858-.496m-.564 3.926c-.74-.887-1.594-1.698-2.406-2.515m4.66 5.226c-.723-.931-1.494-1.811-2.254-2.711m4.367 5.629c-.703-.97-1.398-1.954-2.113-2.917m-18.151-13.9L253.74 2.6m2.835.858l2.83 1.181m.001 0l2.779 1.455m2.705 1.744c-.85-.64-1.8-1.17-2.705-1.744m5.346 3.766a33.31 33.31 0 0 0-2.641-2.021m-.313-3.29c-1.18-.343-2.374-.645-3.574-.947m7.053 2.195c-1.166-.378-2.318-.87-3.479-1.248m6.86 2.782a204.91 204.91 0 0 0-3.381-1.535m-10.674-2.848L253.74 2.6m7.263 1.001c-1.187-.258-2.41-.447-3.621-.654m23.252 10.556c-.932-.81-1.914-1.56-2.902-2.303m5.577 4.819l-2.675-2.516m-7.597-2.783l.686-.502m-.001.001l.565-.535m-2.85-2.353c1.057.632 2.16 1.211 3.238 1.813m-.387.54c.131-.178.258-.357.385-.539m.002 0l.229-.569m-.229.569l3.057 2.055m-2.758-3.166l-.07.541m-.019-1.087l.089.547m-.089-.547l-.263-.568m0 .001l-.404-.526m0-.001l-.564-.523m2.904 1.565l2.744 1.843m0-.001c.326.261.653.519.988.776m-6.636-4.183l-3.078-1.303m3.078 1.303l-.723-.512m0 0l-.86-.496m-.473-.224l.473.223m1.583 1.009l2.904 1.565m-12.494-4.579a72.38 72.38 0 0 0-3.392-.385m3.392.385l3.312.709m-.002 0l3.201 1.002m-13.351-2.182l-3.484.214m6.932-.128c-1.143-.1-2.304-.073-3.448-.086m-1.109-.48l-2.375.694m4.736-1.06l-2.361.366m4.681-.414l-2.32.048m4.57.195a26.842 26.842 0 0 0-2.25-.243m3.162.456l-.912-.213M255.64.767c-.201.093-.411.195-.613.296m.613-.296c.105-.006.215-.008.318-.016m-1.586.91l-.633.938m.633-.938l.654-.598m-1.286 1.536l-1.264-.88m0 .001l-1.251-.566m.001 0l-1.23-.242m-.813.013l.813-.013m12.699 82.493l-1.705.223m1.705-.223l1.633-.281m1.57-.32l-1.57.319m3.033-.675l-1.463.356m2.815-.757l-1.353.401m7.241-3.602l2.097-1.793m-4.347 3.325l2.25-1.531m-2.25 1.531l-2.393 1.229m-1.245.44l1.247-.44m.879-.35l-.881.35m0-.001l-1.053.44m-2.554-8.461l2.975-.381m2.833-.475l-2.834.475m5.541-1.018l-2.707.543m2.707-.543c.849-.205 1.691-.402 2.539-.62m2.352-.688l-2.352.688m5.817-4.208l-1.318 2.765m-2.147.755a84.118 84.118 0 0 0 2.147-.755m.001 0c.649-.26 1.284-.534 1.935-.81m-.001 0l1.685-.85m1.462-.891l-1.462.892m-5.152 4.213a92.649 92.649 0 0 0 1.531-2.554m-1.531 2.554l-1.74 2.301m-1.934 2.075l1.934-2.076m7.566-20.296c.08-1.157.117-2.304.117-3.464m-.503 6.838c.164-1.124.287-2.24.387-3.374m-1.02 6.63c.238-1.08.439-2.161.632-3.256m-1.493 6.37c.291-1.027.663-2.062.861-3.113m-1.957 6.046c.387-.974.752-1.943 1.095-2.932m10.428-12.494l-.811 3.363m.003.001l-1.086 3.251m-1.391 3.154l1.391-3.154m2.539-13.505l-.173 3.461m-.472 3.429l.472-3.43m-7.032 18.119l-1.199.951m2.13-1.903l-.932.952m2.936-4.29l.34-.63m-1.885 3.32l-.457.647M211.65 43.917l-.128-.968"/><path fill="#FFF" d="M241.375 83.02l.194.051-.069-.02-.071-.016-.068-.016-.021-.023.035.024zm.686.137l-.16-.033-.017.018-.072-.018-.153-.038-.075-.016h-.014l.069.016.034.021h.006l.031.019h.069l.173.046.248.076.014-.02.144.033-.053-.033-.244-.071zm-21.179-50.129l.141-.383.086-.632-.086-.09-.246.402.051.26-.051.442h.105zm.684-1.386l.253-.46-.163-.44-.017.071.032.35-.14.358.035.121zm-.387-.939l-.069.268.422.074.05-.18-.207-.143-.196-.019zm21.393 28.584l-.266-.241-.615-.09-.549-.246-.928-.844-1.039-.692-1.039-.101-1.354-.523-.775.086.105-.373-.334-.435-1.127-.606-.826-.383-.491.37-.038-.706-1.142-.314-.19-.248.471-.492v-.492l-.35-.176-.313-1.303-.148-.439h-.222l-.091-.312-.632-.737-.44-.268-.209-.119-.639-.321-.492-.069-.067.117-.705-.313-.21-.298-.281-.426-.234-.063.02-.372-.314-.568-.352-.363-.191-.229-.299-.056-.021-.597-.384-.475-.426-.176-.139-.383.475-.097-.635-.172-.646-.145-.043.177-.313.141-.382-.21-.251-.421-.531-.102-.432-.159.016-.249-.266-.505-.316-.132-.088-.551-.193.15v.37l-.614.075-.056.542.102.316-.154.481-.216-.038-.082-.639.245-.334.07-.373-.105-.385.285.025.027-.162.145-.216-.087-.228-.156-.102-.269.241-.21.089-.39.231-.332-.193-.051.122-.264-.108-.285.236-.174.559-.038.247h-.177l-.373.351-.189-.121-.122-.261-.084-.281-.163-.212-.193-.127.017-.063-.192-.146-.154.146-.23.017-.18.105-.171-.059-.069-.224-.05.035-.124-.11.035-.141-.091-.331-.108-.382-.082-.378-.016-.435-.018-.137.018-.22.098-.14v-.188l.09-.281.074-.041.051-.333.017-.195.091-.295.089-.264.124-.196.035-.28.053-.139.032-.054-.032-.25-.088-.173-.035-.208-.073-.2-.036-.046-.12-.176-.069.012-.07-.027-.068-.113-.072-.09-.057.059-.121.013-.123-.087-.107-.155-.047.019-.018-.089-.074-.04-.088.072-.018-.045-.058-.146-.05.091-.053-.195.122-.215.054.019.089-.141.139-.331v-.071l.107-.235v-.115l.14-.267.059-.193-.059-.035.033-.104.057.036.015.225.231-.49.139-.262-.018-.159.211-.391.281-.3.121-.313v-.199l-.194-.063-.208-.199-.299-.053-.229.053-.109.157-.226.565-.176.352-.25.158-.152-.019-.198-.025-.173-.097-.232.016.02-.366-.117-.402.051-.421.102-.441.089-.637.153-.563.096-.39.123-.402.141-.299.408-.878.223-.417.336-.513.072-.247.152-.338.215-.435.191-.251.232-.189.296-.089.407-.301h.227l.124.063.054.291.208.081-.034.478.143.16.153-.052.038.159.069-.037.038-.179.142-.261.054-.199.139-.026.19.083.179.244.319.127.065.268-.035.382.035.074.424-.127.068.175-.052.691-.104.42-.261.405-.075.284-.089.592-.087.684.053.229-.07.317.128.178.141-.035.241-.371.125-.262.209-.44.178-.879.139-.277.074-.565.176-.619.174-.488.283-.44.348-.322.338-.211.561-.24.16-.2.281-.154.195.037.418-.284.441-.013.477-.396.316-.659.089-.249-.072-.088.351-.601-.102-.313.16.205.174-.434.229-.246-.283.538.02.319-.357.386v.038l.5-.424.24-.193.141-.246-.016-.154.143-.354.014.194.059.069-.072.177.524-.391.351-.419-.087-.075.216-.12-.06.075.216.082h.58l-.016-.156-.566-.083.394-.058.203.039.179.032.318-.014.154.083.299-.02.141-.171-.02-.18-.104.252-.138-.073.088-.375.211-.333.141-.102.417-.294.476-.059.498-.089.573-.18.059-.209.458.056.596.153-.947.327-.302.522.247.125.688-.323.523-.139 1.078-.123.705-.281-.127-.28.226-.458-.787.585-.669-.088-.303-.44.16-.49.318-.671.578-.299-.102-.373-.544-.107-1.042.252-1.056.577h-.349l.758-.409 1.018-.594.6-.124.58-.313.372.068.489.155.668.316.668.07.758-.367.719-.055.408-.138.385-.163.372-.646-.02-.253-.229-.134.18-.509-.109-.232-.42-.264-.067-.386-.179-.408.385-.301.18-.714.191-.76.191-.491-.383.179-.76.471-.65.14.088-.35-.143-.158.53-.633.417-.401-.367-.179.145-.215.036-.363-.022-.234-.299.051-.154-.121-.18-.263-.242.036-.811.727-.407.433-.81.37-.157.473-.294.497-.325.332-.484.282-.622.228-.598.053-.125.352-.687.879-.63.477-.352.073.155-.67.426-.663.476-.549.49-.409-.139-.154-.277-.229.047-.319-.031-.274.155-.305.069-.281v-.402l-.299-.074.409-.386.506-.457-.048-.228.715-.475.529-.263.813-.334.631-.192.212.068.401-.248.357-.089.208.108.546-.161.317-.137.632-.235.351-.153-.053.191.261.053.693-.124.313-.154.229-.254.422-.134.299-.179.141-.263-.091-.161-.104-.119-.686.371-.639.24-.584.159.335-.303.511-.225.3-.301-.633.141.666-.313-.017-.21.385-.091.651-.42.249-.194.019-.144-.564.129-.756.312-.191.194-.351.284-.688.286-.055-.091-.562.208.631-.298.121-.228-.157-.014-.418.192-.056-.122-.172-.091.242-.267-.09-.066.352-.247.141-.125-.084-.034-.039-.09-.248.038-.275.191-.354.058.406-.249-.104-.038-.056-.187.174-.203.318-.012.367-.226v-.058l.164-.156.33-.261.372-.194.106-.109-.178.041-.032-.072.525-.156-.372.029.721-.282.129-.068-.307.068-.08-.015.336-.123-.016-.069-.147-.039.235-.121-.06-.035h-.157l.197-.086.477-.18.385-.159.229-.082.386-.146.105-.053.173-.064.353-.125.496-.152.102-.06.356-.088.102-.016.314-.105h-.032l.354-.075.37-.085.017-.033.192-.053.16-.059.139-.033v-.016l-.162.032-.068.017h-.068l-.072.022-.068.02-.068.017-.072.016-.07.02-.09.019-.069.021-.066.013-.074.013-.07.025-.069.02-.07.012-.07.016-.069.016-.073.021-.066.022-.072.017-.088.016-.068.017-.071.018-.073.016-.07.019-.072.018-.074.016-.063.019-.071.014-.069.026-.081.009-.066.029-.069.019-.069.027-.074.013-.07.016-.074.017-.061.018-.091.036-.069.02-.077.015-.065.021-.07.02-.069.018-.071.032-.07.018-.074.01-.072.024-.067.019-.073.029-.073.017-.069.023-.071.016-.062.033-.075.026-.073.012-.069.017-.069.034-.067.021-.069.02-.074.033-.07.02-.064.016-.072.038-.074.017-.068.017-.07.036-.07.021-.07.018-.068.029-.068.021-.072.032-.056.02-.065.02-.07.035-.068.016-.075.039-.073.013-.063.022-.069.035-.07.015-.083.027-.068.02-.072.032-.073.021-.066.034-.07.016-.073.039-.071.02-.054.032-.067.019-.069.033-.07.021-.068.035-.068.017-.071.032-.071.021-.07.034-.07.019-.062.035-.064.032-.068.02-.074.032-.072.021-.071.039-.067.029-.066.021-.057.033-.071.035-.069.021-.07.031-.068.017-.072.041-.068.032-.056.018-.069.032-.067.038-.069.033-.07.014-.072.044-.052.027-.073.022-.07.032-.07.036-.069.037-.069.016-.053.037-.051.016-.174.089h-.006l-.017.005-.34.166-.172.088h-.007l-.003.007-.1.053-.951.476-.369.207-.299.179-.189.102-.616.352-.67.404-.524.319-.342.195-.277.192-.298.193-.579.406-.477.315-.424.317-.318.213-.563.417-.473.406-.336.261-.76.693-.016.013-.473.408-.459.391-.102.063.561-.492.353-.356-.091.075-.279.243-.492.427-.706.613-.439.403-.441.408-.399.39-.404.421-.405.418-.357.37-.328.369-.386.425-.479.559-.212.272-.086.101-.706.877-.541.721-.229.339-.107.117-.141.236-.139.208-.091.138-.118.18-.092.158-.274.441-.219.329-.384.604-.335.548-.261.452-.268.455-.12.272-.303.596-.155.261-.105.138.051-.102-.032.03-.229.477-.106.267-.104.212.032-.059-.176.427-.104.281-.18.37-.223.456-.088.266-.156.455-.18.493-.176.445-.019.046.104-.157.053-.105.141-.364.127-.377.017-.12.157-.334.156-.35.143-.338.314-.651.179-.44.128-.261.104-.223.227-.428v-.031l.121-.229.039-.071.082-.176.283-.566.178-.317.281-.451.199-.319.133-.213-.133.288v.024l-.18.372-.14.229-.3.529-.302.549-.101.206-.198.391-.187.438-.043.16-.227.471-.174.427-.069.245-.2.349-.081.195-.124.441-.175.491-.213.701-.261.823-.128.404-.104.281-.105.374-.084.231-.072.118-.066.209-.058-.014-.103.375-.128.523-.068.614-.072.389v.441l.035.155-.035.233-.016.503.035.546.053.264.036.508.071.305.052.313.108.055.209-.088.103.049.105.355.037.334.035.989.052.402.069.224.14.144.092.222.033.215.126.162.062.227.075.14.16.124.05-.142.074.126v.255l-.016.045-.037-.146-.055.089.072.427.067.293.022.281.084.391.051.28-.089.101.053.143-.072.219-.025.207.013.157.086.138.037.25.09-.126.015-.231.056.185-.018.226.09.156.102.213.073.234-.02.167-.056.096.056.187.139.266.032.141.043-.16.139.089.067.136.122.133.038.335.12.104.057-.104.016.454.16.07.07-.089.104-.032-.126-.476.06-.121.082.016.157-.101.104-.219.179.032.16.304.033.281.088.088-.121.139.051.423.109.281.107.46.014.627-.102.143.029.686-.104.377.144.238-.16.298-.188.356-.2-.033-.087.193v.371l-.141-.02.056.244-.268.146-.21.037.037.299-.139.385-.071.381-.108.043.07.667-.07.159.23.418.124-.253.087.357-.16.408-.26.274-.071.425.231.737-.072.248.281.421.314.601.189.561.198.387.565 1.516.598 1.402.509 1.023-.021.156.298.617.406.547.919 1.015 1.015.97.106.281.543.531.371.898.354.995.372 1.27.345 1.124.441 1.057.09.582.404.682.127.392.563.804.299.69.28.683.348.689-.118-.053.441.544.458.476.104.244.614.76.473.563.266.141-.402-.48.314.213.687.777-.495-.281.598.617.125.207.564.299.039.152.331.301.824.619.439.279.214.163.387.247.596.33.615.334.403.203-.282-.132-.683-.351-.319-.174.897.509.532.262.595.299.349.141.334.153.197.09.156.058h.091l-.091-.069.322.141.242.089-.068-.108-.531-.199-.652-.294-.472-.284-.312-.174-.268-.104-.085.016.226.178.072.069-.186-.083.097.025-.386-.26h.09l.032-.033.264.104.163.057-.459-.249-.55-.372-.087-.102.123-.025-.281-.313.178-.066-.248-.264-.405-.199-.632-.363-.198-.248.091-.105.338.126-.109-.173-.319-.393.071-.139.269-.025-.302-.239-.107.073-.372-.217-.397-.421.053-.069.505.283.372.071.143-.095-.246-.223-.16-.299-.281-.285.513.176.807.16.526-.07.092-.459-.104-.207-.409-.268-.12-.297-.83-.569-.105-.223.426.337.336.049.539.316.248.018.422.174.422-.141.072-.238.227-.219.018-.398.262-.159.32-.299.279-.774.3-.215.052-.231-.071-.51-.173-.313-.034-.383.348-.465.601-.313.638-.051.383-.189.932-.072.687.088.086-.316.479-.199v-.562l.543-.683v-.799l.192-.213.022-.391.064-.911-.152-1.181.152-.439h.16l.471-.49.392-.691.937-.805.33-.408.244-1.072-.139-.401-.287-.883zM226.457 10.79l.353-.295.35-.324.314-.255.232-.18.191-.176.16-.14.281-.229-.126.085-.351.271-.242.211-.174.141-.321.261-.228.197-.44.418v.015h.001zm11.749 7.197l.16-.139-.16-.056-.441.128-.416.28-.951.844-.526.281.067.21-.375.16-.049.196.754.193.459.069.322.227-.441.233.224.063.759-.432.067.101-.349.491.225.179.217.02.435-.51.054-.424.105-.329-.332.048.35-.417-.297-.274-.264.107-.268-.242.249-.179-.177-.172-.366.139.542-.46.423-.335zM230.8 7.448l-.28.179-.245.155-.15.103.575-.348.1-.089zm9.047 1.044l.188.065.284-.065.086-.054.249-.161.035-.16-.213-.021-.388.197-.241.199zm-9.73-.602l-.016.013.021-.017-.005.004zm-.156.11l-.356.244-.067.051.565-.392-.142.097zm6.663 1.793l-.191-.145-.389.126-.125.143.09.07.514-.127.101-.067zm1.141-1.478l-.596.317-.508.297-.408.108.23.086-.299.265.509-.07.461-.125-.199.23.108.225.335-.054.067-.189-.153-.038.263-.192.018-.228.053-.228.09-.144-.159.021.243-.191-.055-.09zm6.848-5.106l.055-.082-.406-.02h-.457l-.212.102.052.073.262.035v.039h.245l.55-.109-.089-.038zm-7.973 7.128l.071-.107-.05-.058-.248.096-.055.033-.119.14.03.088.371-.192zm8.836-6.282l.191-.104.031-.032-.016-.07-.277.091-.269.082-.141.074.212.031.269-.072zm-2.502.692l-.139.134.037.109.296-.07.192-.103.195-.128-.247-.017-.334.075zm2.234-1.093v.104l-.191.121-.035.108.277-.108.319-.105.212-.172.086-.105-.281.051-.157.106h-.23zm.282-.317l.037-.039h-.211l-.107.021-.016.071.139.035.158-.088zm-.774.031l-.25.109.212.051.215-.032.124-.09-.07-.05-.231.012zm2.534.581l.226.104.035.111-.313.015.016-.056-.103-.104-.319.124-.191.143-.252.072-.26-.026-.299.057-.031.123-.34.191.127-.207h-.088l-.46.177-.261-.014-.319.101.091.102.016.108.314.104.037.196.617-.054.142-.075-.156-.045.117-.072.304-.017.28-.088.302-.016.295-.06.228-.157.159-.017-.032-.087.294.073.18-.021.268.021.598-.164.277-.035.511-.102-.159-.054.173-.036.282.019.403-.072.142-.071v-.105l-.072-.068-.117-.068-.088-.052-.074-.051-.262-.039.056-.036-.18-.052-.142-.017h-.174l-.385.068.143-.068-.02-.036-.301.021-.193-.021-.053-.039-.195-.013-.231.072-.157.084-.246.106-.16.123zm-2.377.354l.041.016.082-.016.093-.07-.072-.09-.18.071.036.089zm-10.407 13.723l.136.363.333.304.18.037.067-.109-.212-.337-.349-.273-.155.015zm11.292-13.949l-.231.121v.105l.141.074.618-.091.281-.019.134-.125.41-.156.051-.089.089-.102.316-.143-.104-.075-.141.059-.09-.02-.229.037-.333.053-.32.09-.189.102.068.068-.209.039-.262.072zm-2.994.121l.353-.055.333-.108.036-.068-.141-.018.269-.086.329-.09.093-.067h-.269l-.686.244.055-.102.437-.194.284-.215h-.197l-.666.075-.158.104.02.247-.281-.055-.251.07v.089l.301.068.139.161zm1.41.07l-.104.019v-.071l-.285-.018v-.054l-.561.16.106.074-.426.118-.069.088.127.074.542-.147.37-.106.3-.137zm-2.835 1.091l.23-.217.363-.068.199-.084-.16-.07.108-.127-.39.037-.42.231.016-.157-.215.065-.456.375-.24.139v.087l.327.013.638-.224zm-1.391-.142l.493-.192.674-.277.277-.162.107-.106-.125-.019-.721.267-.278.064.684-.281.226-.123-.364.039.364-.194-.171-.09.313-.05.155-.106-.351-.069-.262.031-.494.086-.249.163-.028.105-.199-.07-.281.099-.053.115v.139l-.189.188-.107-.045.075-.127-.096-.068-.052-.036-.582.277.057.044-.215.173-.331.152.032.128.106.156.249.073.054.071-.141.21-.056.192.264-.09.229-.152.124.104.299-.104.262-.262.301-.253zm-.912 1.177l.229-.157.104-.086.088-.09.141-.179-.333.09-.249.019-.242.23.123.032-.123.199.262-.058zm2.145-1.666l.478-.089.139-.09-.036-.088-.102.019-.479.248zm1.072-1.043l.123-.157.215-.123.032-.174-.472.156-.406.035-.459.073-.244.032-.513.245-.314.125.19.089.297-.069.441-.055.426.035.143.039.312-.141.229-.11zm-.58 1.827l.212.021.706-.154.032-.179-.089-.126h-.246l-.316.088-.352.128-.562.266.032.083.583-.127zm1.02 1.61l.225-.159.107-.233.019-.297-.351.069-.404-.019.424-.188.476-.424-.495-.02-.602.193.34-.248.472-.14-.383-.073-.336.057-.673.211-.631.314.104.088-.385.072-.16.177.055.16.035.242.279.32.305.064.245-.064-.108.18.089.085-.21.284-.229.048.108.266-.039.28-.123.176-.192.194-.757.3-.332.173-.146.159-.422-.09-.329-.134-.532.243-.05.208.597.163.154-.121.021.313.018.337-.229.103v.312l.179.424.439.407.122-.18.058-.37.121-.487.153.545.18.225.42-.313.321-.494.033-.144-.073-.297.073-.315.313-.247.316.033-.141.513.07.284.933-.411.386-.281-.299-.119.147-.479-.199-.187-.108-.405.582-.071.316-.423.053-.194-.153-.28.188-.282-.385-.033zm.593-1.15l-.223.107-.211.231v.03l.211.019.104.071.107.069.157-.107.138-.261-.174-.16h-.109zm.888-.316l.223-.124.146-.154-.088-.108-.229-.07-.262-.038-.059-.088-.052-.084.126-.086.089-.111.262-.09.177-.102-.11-.104.179-.118-.031-.109-.299.063-.177.129v.125l-.253.162-.332.115-.352.163-.055.228.037.126.16.105.352.1.029.108.285.02.234-.058zm-10.888 14.235l-.037.225.318.391h.158l.326-.201-.348-.083-.225-.162.054-.314-.246.144zM220.704 36.09l.266.083.299.019.089-.137-.21-.423-.287-.154.089-.197-.173-.244-.124-.04-.139-.438-.159-.581-.069-.228-.358-.084-.051-.313-.23-.416-.242-.158-.264-.208-.105.043-.246-.078-.206.035-.18.075-.163.19-.227.121.09.143.172.017.11-.134.124.063.348-.224.301.224-.193.103.07.203.385.345.057.192.242.35.21.089-.03.443.054.265.208.16.108.262-.37.26.561.193.243.179zm60.6-9.873l.23.236.211.018.23-.426-.039-.05-.082-.106.082-.386-.212.328-.264.091.036.193h-.036l-.156.102zm-14.493-9.951l-.054-.51-.277-.249-.41.278.18.232.561.249zm-44.788 22.166l.28-.428.18-.032.032.194.178.018.109-.09.141.09.226.033.176.23.249-.23-.18-.334-.189-.105.07-.198-.249-.086-.013-.281-.125-.02-.217-.28-.333-.144-.085.112-.34-.262-.241-.14-.142.153.227.233-.085.264.127.384-.198.086-.299-.17-.351-.267-.108.21.162.318.229-.052.247.155.209.038.247.23-.022.211.088.16zm15.112 41.962l-.071.054-.381-.139-.199.053.336.177.125-.04.299.145.367.031-.018-.07-.458-.211zm31.926-56.743l-.207.303v.262l.261.42.281.112-.032-.548-.303-.549zm-5.766-5.579l-.549-.046-.212-.234-.471-.631-.32-.067-.578-.655-.055-.051h-.438l.19-.546-.05-.456-.421.031-.373.106.213-.632-.421.089-.315-.021-.178.481.014.578.287.281.174.565.14-.299.18.16-.074.262.142.157.527.054.018.021.387.329.033.356h-.645l.013.381.335.318-.418.233.193.227.721.032-.373.179-.508.703.281.108.26-.265.44.027.229-.311.246.089.706-.243.597-.057.283-.372-.283-.278.162-.208-.089-.395zm15.057 9.305l.579-.241-.031-.211-.195.159-.041-.127-.33.054-.316.142-.349-.157.05.3.576-.017.057.098zM253.141 9.333l-.353-.016-.65-.039.32-.229-.035-.297.26.245.18.179.44-.069-.073-.354-.281-.284-.293-.102.133-.104.426.178.016-.195-.249-.28h.28l.324-.074.066-.144-.23-.153.441-.037-.248-.352.195-.032-.031-.338-.337-.194.298-.118.248-.021-.195-.249-.014-.402.102-.228.14-.244-.281-.021.388-.053.068-.089.426-.246-.105-.141-.336-.057-.514.146-.297.12.141-.195-.069-.117-.21.102-.281-.127-.381.025-.023-.069h.935l.173-.127-.51-.246-.633-.072h-.3l-.19.089-.281-.056-.459.14-.16.123.053.191-.088-.118-.102-.053-.071-.144-.441.123.039-.106-.262-.046-.319-.026-.313.026-.198.12h-.158l-.671.106-.281.074.057.171-.229.09-.6.03h-.638l-.227.111-.02.191.305.232-.254-.058h-.438l-.176.245-.034.147.335.084.352.069.242.107.107.3-.193.14.037.173-.264.441-.16.284-.029.173-.604.318.069.143.254-.019.029.153.121.338-.33-.192-.195-.039-.279.218-.264.278.138.189.249-.014.18-.06.381-.099-.33.334-.23.154-.49.108-.67.454.018.196-.373.317.021.494-.283.44-.086.333.068.703-.107.53.125.332.654.108.263.493.49.034.421-.495.352-.401.073-.424.701-.336.316-.319.175-.351.388-.262.474-.065.439-.086h.218l.731-.286.569-.477.333-.164h.299l.85-.118.787-.336.713-.377zm41.148 21.727l.011.046-.034-.103-.382-1.193-.28-.774-.301-.792-.228-.568.191.69-.02.074-.313-.514-.102-.334-.11-.195-.243-.313h-.088l-.229-.401-.263-.338-.021.492-.105.354-.065.366-.289.179-.208.069-.192.141-.441-.702-.121-.037-.074.281v.506l-.311.022-.445-.319h-.277l-.459-.492-.598-.721-.072.197-.242-.089.051.315-.16.066.195.252.051.169.336.427.371.509.178.053.16.192.281.16.139.261.067.229.146.211.133.126.129.192.107.134-.236-.468-.1-.405.036-.125.151.162.18.369.123.438.159.234.02-.077.085.172.105-.261.16-.137.127-.109-.072-.583-.074-.578-.09-.529-.069-.274.058.03.102.299.039.146.262.493.279.35.18.14.139-.076h.123l.229.288.124.178h.067l.072.155.1.47.058.219.038.293.121.549-.071.047.033.221.107.366.177.421v.099l-.047.09-.02.396.082.344.02.192-.102.131-.02.262.086.26-.022.304-.115.051-.056.367-.091.144-.083.333.05.334.052.246-.139.511-.281.65-.103.67-.106.141-.091.017-.089.405-.153.267-.233.212-.051.082-.036.231-.05.108-.02.209-.16.085-.071.159-.228.108-.16-.375-.07-.385-.101-.174-.179-.477-.173-.226.069-.087-.126-.301.017-.159-.104-.295-.125-.269-.139-.156-.106-.268-.248-.152-.331-.479-.26-.523-.39-.352-.194-.04-.438-.528-.21-.468-.129-.424-.474-.65-.266-.193-.243-.059-.265-.331-.035-.16-.247-.313-.153-.104-.353-.443-.447-.457-.383-.392-.178.089-.102-.382-.089-.25-.071-.299-.05-.089.017.321.142.547.036.402-.036.159-.217-.186-.298-.223-.683-.857-.022.07.461.667.527.58.704.95.28.317.281.335.615.613-.035.159.18.441.647.421.104.127.356.61-.058.178.285.687.367.773.195.108.281.16.424.722.26.595.281.23.621.402.28.304.261.294.159.183.212.118.103.176.056.3-.158.281.178.101.121.075.121.245.192.213.158-.107.249-.373.301-.313.19-.39.124-.158.072-.191.137-.137.088-.092.09-.192.129-.192.048-.337.087-.088.054.192.05.424.068.366v.302l.055.827v.878l-.034 1.038-.128 1.213-.156.964-.283 1.2-.279.792-.437.998-.302.727-.368 1.071-.089.427-.092.207-.244.407-.104.351-.126.121-.086.514-.13.344-.098.497-.18.298-.246.946-.016.372.208.127v.178l-.158.447v.203l-.067.332.055.352.052.58.101.068v.271l-.139.662-.068.568-.227 1.02-.021.281-.226.508-.262.526-.337.509-.404.422-.493.51-.653.881-.174.191-.42.559-.212.215-.173.46.012.368-.057.314-.063.177.086-.057-.246.585-.174.296.029.069-.156.269-.242.28-.409.329-.601.534-.28.277-.069.215h.089l-.179.318-.299.434-.277.482-.229.299-.404.381-.124.111-.317.332-.264.313-.441.481-.752.695-.473.415-.461.325-.548.339-.229.106-.139.149h-.211l-.28.183-.417.053-.299.133-.178.025-.568.333-.435.173-.39.268-.229.07-.105-.123-.139.035-.091-.156-.066.068.013-.105.145-.281.015-.307.197-.115.175-.389-.091-.382-.069-.37-.088-.581-.228-.32-.067-.329.067-.514v-.35l.09-.83.193-.669.02-.294-.16-.199-.18-.424-.141-.631-.032-.352-.349-.495.051-.456.014-.383.178-.549.301-.617.084-.277.285-.615.176-.28.406-.493.243-.336.13-.493.018-.351-.162-.192-.121-.37-.106-.371.048-.143.217-.297-.141-.613-.091-.425-.281-.351.071-.162-.071-.191-.144-.471-.474-.615-.626-.584-.408-.49-.387-.656.018-.246.14-.238.156-.533.146-.547-.126-.088.211-.844.07-.561-.261-.441-.306-.066-.137-.303-.177-.069v-.198l-.667.369h-.248l-.244.201-.529.066-.371-.385-.246-.49-.491-.41-.513.072-.598.09-.563.16-.545.211-1.074.56-.384.283-.64.278-.632-.144-.312.038-.515-.102-.455.051-.846.191-.493.25-.722.317h-.139l-.188.015-.761-.299-.664-.514-.63-.365-.493-.444-.195-.046-.545-.268-.389-.366-.128-.265-.1-.545-.335-.418-.281-.265-.193-.091-.177-.143-.089-.331-.11-.16-.227-.103-.386-.305-.322-.051-.153-.191v-.13l-.228-.134-.053-.156-.127-.566.089-.332-.296-.567-.369-.261.313-.143.352-.532.158-.384-.068-.403.19-.37.071-.705-.09-.725-.083-.363.052-.375-.192-.348-.37-.319.02-.311.031-.339.265-.208.208-.386-.047-.249.225-.53.351-.472.229-.121.159-.441v-.388l.226-.473.443-.281.365-.754h.021l.314-.304.599-.102.479-.533.298-.208.471-.634-.227-.892.178-.617.036-.391.346-.51.568-.37.416-.32.306-.772.101-.435.441-.041.409.285.541-.105.632.105.246-.017.498-.444.58-.194.299-.313.49-.277.9-.249.899-.179.293.069.424-.35.56-.089.263.122.354-.103.473-.371.389.021.088.35.354-.333.09.121-.143.383.088.32.246.146.125.612-.253.403.212.354.289-.035.24.319.234.066.684.12.209-.104.479.021.773.172.441.569.506.035.811.117.652.212.179-.224.12-.385-.299-.515.016-.366.234-.405.281-.176.682-.036.281.248.16-.036.193.069.477-.051.206.187.584-.187.476.032.509.07.227.031.231-.329.082-.247.34-.199.314-.013.246.281v-.249l.37.033.312-.083.109-.25v-.261l-.053-.032-.057-.357-.153-.529-.039-.193-.133-.593-.09-.546v-.015l-.301-.499-.069-.3-.279-.223-.02-.304-.16.145-.372-.016-.03.476-.498.278-.488-.229-.404.134.053.307-.232.172-.543-.212-.42.16-.561-.58-.478-.267-.071-.562-.422-.227.109-.758.561-.229-.121-.52.716-.186.16-.559.284-.317.506-.25.83.198.58.036.281-.265.264-.09.105-.472-.16-.28-.354-.372-.313-.143-.192.016-.248-.121-.705-.313-.49-.068-.494-.235.123-.193-.138-.594-.335-.143.191-.438-.109-.108-.157.199-.175.153-.038.268-.246.153-.067.318.281.371.244.07.279-.176.091.248-.239.248-.162.51-.262-.057-.131-.298-.471-.035-.02-.144.159-.315-.194-.089-.577.037-.197-.21-.225.192.104.37.037.53.123.153-.091.186-.147-.022.379.775-.021.313.147.499.312.311.191.231.441.088.016.173-.418.194-.059.247-.115.439-.287-.242-.069-.146-.251.059h-.24l-.393.311.462.282-.14.158-.234.074-.386-.264-.013.159.293.37.357.249-.088.18.381.236.301.127.198.368-.479-.067.281.297-.242.157.44.549-.307.089-.485-.197-.408-.492-.262-.419-.312-.252-.411-.319-.106-.172-.102-.04-.071-.139-.356-.153-.173-.299-.172-.46-.038-.21-.122-.088-.127-.017-.211-.179-.246-.085-.525-.138-.353-.177-.491-.107-.58-.39.053-.063-.318-.214-.105-.213-.332-.056v.304l-.231-.18-.091-.228.072-.09-.386-.013-.245.301.159.299.032.19.281.3.563.246.458.477.735.417.355-.088.176.126-.072.162.513.134.405.123.542.249.106.121.021.248-.393-.248-.438-.018v.477l.438.158.09.372-.173.089-.021.613-.173.108-.09-.216-.032-.365.032-.18-.333-.33-.284-.32-.229-.038-.266-.239-.348-.073-.302-.21-.372.019-.482-.233-.605-.329-.456-.326-.404-.609-.265-.04-.46-.163-.19.131-.156.354-.178.063-.299.439-1.037-.032-.652.313.072.41.138.387-.367.494-.634.227.018.226-.229.421-.09.566.318.372-.245.344-.032.46-.392.179-.281.581-.741.065-.541.039-.32.284-.172.282-.299-.039-.248-.214-.225-.401-.568-.069-.211.208-.313-.09-.3.112.036-.565-.125-.424-.261-.05-.16-.246-.02-.457.194-.265v-.285l.051-.408-.051-.297-.137-.229-.06-.228-.031-.491-.264-.266.685-.527.654.071.699-.052.58.067.422-.067.85-.069.172-.428-.245-1.295-.687-.638-.44-.281-.796-.17-.154-.462.578-.197.83.089-.354-.701.507.228.92-.591-.055-.516.336-.175.301-.157.157-.193v-.933l.454-.32.338-.032.015-.139.304-.089.137.121.125-.333-.195-.19-.191-.319-.297-.299-.316-.562-.023-.16.023-.198.278-.083.038-.159.191-.211.162.28v.192l.115.16.251.034.036.228-.141-.033-.037.441.25.262.121.216.44.065.104.216.317-.184.123-.205.546.159.281.135.139-.205.387-.388.301-.281h.402l.123.143.336-.071-.104-.269.312-.295-.4-.444-.299-.404-.105-.37.123-.244.561.317.226-.073-.277-.404-.228-.311-.053.083-.336-.122-.279-.28.225-.247.266-.179h.354l.246-.105.016-.371-.473-.141-.426.191-.278.32-.354.229-.385-.229-.403-.087-.372-.494-.508-.402-.141-.303-.055-.347.02-.653.053-.14-.23-.178-.523-.104-.246.231.086.363.314.261-.051.483-.142.523.37.736.473.298.514.214.175.655-.229.192.51.916.159.542-.439.035.071.473-.39.112-.42-.496-.67-.567-.716-.719-.427-.281-.294.723-.409.206-.612-.206-.422-.559-.746-1.18.108-.371.527-.55.232-.593-.021-.74-.139-.986.067-.408.035-.661.228-.287.337-.052-.14-.408.334-.063.188-.179.885.087-.057.18.515.17-.02-.195.581.127.542-.09 1.221.158.381.126.406.227.156.3-.091.23-1.173.012-.052.11.682.174.262.196.581.42.409.021.281.051-.249-.214-.352-.139-.105-.192.76.053v-.158l-.545-.236-.229-.559.159-.055.331.055-.35-.298-.477-.162-.303-.246-.471-.157.529-.111.402.162-.045.144.326.191.318.067.035-.211-.383-.242-.09-.317-.279-.548.085-.05.333.26.16-.051-.18-.175.107-.156-.211-.23.472.09-.398-.284-.444-.087-.209-.144.311-.14.254-.017.842.017-.354-.188-.37-.059-.153-.052-.073.068-.336-.157-.545-.156-.228-.074-.618-.337-.632-.242-.137-.083.157-.129.408.11.574.226.212.036.478.126.964.35.409.045.454.217.988.545.089-.053-.248-.14-.193-.153-.336-.163-.354-.194-.369-.086-.471-.209-.02.065-.391-.108-.715-.277-.554-.09-.485-.261-.508-.125-.021-.031.389.066.67.215.104-.039-.494-.104-.318-.194-.104-.141.322-.032-.547-.089-.734-.158-.215-.144-.088-.14-.213-.141-.295-.02-.533-.159-.09-.05-.456-.156-.263-.163-.197-.029-.26-.145.088-.016-.525-.144-.16-.062-.281-.046-.35-.069-.459-.101.034-.049.288.049-.146-.088.267.021-.229-.058-.318-.1v-.087l.089-.02.298.02.301.069.629.134.266.042-.09-.042-.07-.043-.227-.059h.266l-.194-.033-.315-.069-.403-.13h.173l-.648-.151-.318-.038-.296-.07-.284-.055-.09-.035h.141l.281.035h.021l-.192-.035-.549-.086-.096-.016h.063l.07.016.081.016h.072l.068.018.073.014h.073l.068.023.085.016h.071l.072.02.068.016h.069l.072.018.066.02h.091l.065.02.075.018.071.017h.067l.07.017.07.02.068.021h.09l.07.019.07.015.069.016.069.014h.071l.069.026.07.013.089.021.071.016h.076l.064.017.068.017.074.022.066.018.07.017.069.016.091.017h.068l.074.022.066.021.07.016.069.016.071.02.068.019.07.021.07.013.088.013.071.025.069.021.071.011.069.016.07.017.069.02.067.022.073.017.073.017.066.016.07.018.069.021.091.02.069.018.073.016.066.02.07.013.076.027.063.014.07.029.072.019.072.027.074.013.064.017.068.016.072.019.074.036.063.019.07.016.07.021.074.02.07.018.068.033.072.017.072.017.064.022.068.02.088.028.073.019.073.022.067.017.074.033.064.025.075.013.063.017.074.034.071.02.071.021.07.033.051.019.071.017.069.037.063.018.079.016.068.036.072.022.069.017.067.03.07.02.076.032.063.021.07.019.072.035.072.016.072.039.066.014.065.021.075.035.073.016.067.035.064.021.074.032.07.02.051.034.074.017.073.039.066.019.069.033.071.018.069.033.07.022.068.035.07.017.072.032.054.02.065.034.075.02.072.038.066.031.067.021.07.032.076.02.063.039.059.03.069.02.069.033.071.035.067.022.071.03.069.018.054.041.067.033.078.017.069.034.065.038.07.033.053.013.072.044.064.028.072.021.074.033.07.036.051.037.073.017.067.036.069.035.071.038.058.015.063.029.07.045.068.026.074.044.051.014.073.031.069.043.068.032.072.034.052.039.073.016.066.036.068.037.061.033.064.032.074.039.066.031.055.039.069.02.071.032.069.037.052.035.071.033.067.042.059.03.066.033.074.038.069.033.052.037.066.032.074.039.053.035.068.034.069.038.054.032.074.033.068.041.054.029.069.038.071.036.053.033.068.033.069.039.055.032.073.04.069.033.051.038.07.036.07.031.053.052.069.038.058.032.063.037.069.032.059.039.065.035.056.031.068.055.072.036.051.034.068.04.054.031.074.04.071.046.051.042.07.032.051.037.068.033.06.058.071.033.063.034.059.036.07.051.043.037.078.033.058.032.063.058.054.031.074.039.052.034.068.053.059.036.064.036.053.051.074.032.051.037.069.053.059.036.069.036.045.054.074.036.055.034.07.052.053.032.049.036.07.052.054.038.068.052.058.038.073.032.047.057.071.034.053.057.053.03.074.034.05.055.071.035.021.035.028.019.057.033.064.059.058.027.033.039.043.032.045.021.035.039.042.023.048.026.039.038.049.039.02.013.065.048.06.038.035.042.029.021.055.021.055.056.052.035.069.054.057.034.051.049.068.057.056.032.054.055.07.036.053.054.05.037.056.052.068.05.099.003.052.048.055.038.069.052.058.053.048.036.009.018.08.058-.034-.02.069.05.057.039.047.049.052.053.073.035.055.057.052.049.057.039.048.051.072.051.053.031.052.06.054.053.052.053.072.037.056.051.049.049.057.05.051.045.052.045.075.058.048.05.057.039.052.052.051.053.055.055.057.033.05.05.073.055.051.053.054.052.054.06.049.03.053.052.057.051.056.055.048.054.05.05.06.036.051.056.056.05.055.051.065.059.052.051.056.054.05.048.059.04.05.05.057.058.051.05.051.053.055.049.053.059.055.051.054.051.054.054.048.053.039.053.052.051.052.058.057.052.052.051.055.054.049.052.057.036.059.053.045.056.055.05.052.068.056.058.033.047.059.058.047.05.051.055.058.049.052.054.055.054.052.053.034.053.053.059.057.05.053.055.051.045.054.058.036.052.055.056.051.071.051.049.054.057.035.048.056.053.051.056.051.052.039.054.051.074.053.05.055.055.054.049.031.055.06.054.047.052.042.072.048.049.055.058.051.05.039.052.051.07.055.052.029.057.057.055.052.049.038.069.051.059.056.05.034.054.055.05.052.073.036.051.055.053.03.051.056.076.051.052.038.045.052.073.037.054.052.058.052.052.033.068.053.05.04.054.048.072.041.052.05-.001.052.064.034.059.05.058.037.045.052.073.038.051.049.055.037.073.054.056.034.063.057.056.031.056.053.068.037.055.055.046.035.071.033.057.053.071.035.05.049.052.041.071.051.056.037.071.031.05.054.055.038.07.051.052.032.072.038.053.051.07.037.051.037.051.053.073.033.048.037.073.053.055.037.072.031.049.053.071.037.058.035.07.055.051.033.071.033.051.035.069.059.053.031.068.031.06.059.069.03.059.04.063.033.051.004.014.033.041.037.055.014.016.037.075.033.05.034.07.034.058.055.064.033.069.037.051.035.07.033.059.051.071.039.05.033.071.035.07.04.058.028.063.041.06.033.068.055.071.036.052.027.073.04.048.029.07.039.077.035.05.036.071.037.049.036.075.031.066.035.058.037.063.031.071.039.058.033.07.036.068.032.053.039.071.035.062.034.059.038.072.033.071.031.05.04.075.028.068.039.049.032.071.038.072.035.069.035.056.032.074.036.063.037.052.016.066.035.081.035.068.035.053.034.069.039.071.03.05.039.074.02.07.035.067.036.052.03.076.031.064.02.073.039.055.037.073.033.066.035.069.016.072.039.053.029.068.039.069.02.078.029.049.035.072.037.062.018.077.036.073.036.049.017.068.036.072.037.065.033.074.014.073.042.051.015.072.037.072.032.065.019.068.033.06.037.069.021.064.032.069.036.075.02.073.033.074.02.047.037.073.013.066.036.071.035.069.016.074.036.072.018.047.036.068.016.077.039.065.02.074.03.073.021.07.037.069.018.072.029.05.02.067.036.077.017.066.037.07.013.072.024.072.03.075.021.062.038.078.017.07.031.063.021.057.013.065.039.072.013.074.02.07.039.064.014.075.037.074.02.066.017.072.034.069.021.067.02.069.016.074.034.066.016.073.023.07.032.071.018.069.013.078.021.047.038.074.013.069.02.064.02.07.034.073.016.065.021.072.019.07.015.07.039.069.018.077.013.066-.009.079zm-12.934-13.753l-.104.223.303.721.627.402.303.409.762.509.344.212.42.333.108-.032.176.104-.122.174.318.493.123.231.018.21.229.281.37.402.279-.032.333.176.335-.123.156-.441-.09-.16-.328-.382-.439-.635-.268-.073-.281-.434-.119.063-.357-.521h.269l-.02-.333-.383-.226-.32-.284v.284l.32.432-.353-.335-.126-.118-.16-.277-.19-.169-.353-.016-.51-.418-.229-.073-.158-.173.21-.086-.349-.405.052-.211.208-.058-.473-.562-.33-.3-.129.18h-.263l.035.385-.054.264.21.389zm13.07 14.225l-.023-.09.005.037.018.053zm-.12-.402l.021.071.01.021-.035-.117.004.025zm.085.278l-.014-.067-.02-.071-.022-.046.067.219-.011-.035zm-35.391-12.281l.721-.416.199-.569-.16-.414.121-.421-.549-.342-.332.055-.26.3-.496.491.352.601-.264.651.668.064zm-3.656-7.749l.035-.338-.516-.013-.451.261-.391-.128-.453.268-.457-.332-.455.045-.252.326.646.133v.148l-.559.082.668.262-.334.213.913.179.44.067.282-.087.917-.373.349-.402-.382-.311zm17.625 15.828l.473.171-.035-.367-.137-.192-.039-.581-.35.143-.457.176-.604.058.055.363.827.198.267.031zm-3.747-1.743l.28.811.266.16.12-.262h.249l-.249-.9-.472-.423-.16.246-.28.018.246.35zm-49.539 11.238l-.065-.05-.18-.033-.09.134.143.377.177.211.16-.074.261.124-.017-.227-.157-.262-.232-.2zm72.635 19.334l-.104.401-.246.572-.089.014-.034.244-.174.396-.32.575-.261.49-.121.092-.146.189-.211.25-.156.121-.164.439-.207.428-.175.555-.071.375-.035.246-.179.395-.315.569-.083.217-.179.188-.229.477-.16.417-.106.405-.206.531-.071.26.123.056.083.034.354-.418.283-.284.436-.79.477-.912.633-1.301.439-.967.359-.832.189-.544.102-.21.109-.283.104-.439.105-.244-.032.313.1-.223.106-.337.019-.25.173-.755.057-.381v-.233l-.015-.212-.162.366zM259.406 5.411l.226.074.042.1.314.02.049-.192-.261-.017-.233-.104-.137.119zm-.352-.052l.09-.196-.686-.122-.279-.069-.141.037.1.105-.16.028-.195-.081-.174.17.39.237.579.223.301.055.029.137.549.145.141-.037-.293-.299.024-.089-.275-.244zm-.811-.631l-.156.153.319.109.153-.04.143.074.386-.017.217-.127-.146-.192-.371-.03h-.35l.068.101-.263-.031zM224.134 38.48l-.082.088-.039.322.28.063.351.127.174-.144-.046-.178-.235-.144-.403-.134zM257.576.854h-.063l.1.007-.037-.007zm-.143-.011h-.121l.186.012-.065-.012zm.374.03h-.093l.143.014-.05-.014zm.14.019h-.031l.051.003-.02-.003zm.371.033h-.02l.049.02-.029-.02zm-.162-.013h-.05l.093.006-.043-.006zm-.95-.092H257.104l.157.016-.055-.016zm3.306 1.145l-.141.07.021.036.12.016.968.12-.706-.226-.262-.016zm-.511 1.974l.035.082.125-.053.195.068.207.02-.052-.067-.12-.038v-.052l-.035-.071-.09-.031h-.208l.07.067.138.055-.194-.039-.071.059zM258.613.963h-.053l.124.02-.071-.02zm-.315-.038l-.099-.006.045.006h.054zm.563.069l-.059-.006.018.006h.041zm-2.094-.211h-.064l.095.013-.031-.013zm.231.019h-.086l.136.011-.05-.011zm2.777 1.373l-.232.06.268.062.581.11.069-.039h.44l.159-.035v-.099l-.229-.089-.581-.026-.475.056zM258.757.982h-.073l.118.006-.045-.006zm4.972 3.252l.335.298.287.241.336.089.473.37.139-.031.459.356.367.154.068.124.37.139.319-.033.318.104.277-.193-.031-.07-.653-.089-.581-.208-.58-.354-.615-.338-.581-.388-.262-.261-.315-.28-.232-.09-.28-.034.071.124.246.156.065.214zm-4.039-3.137l.058.02-.045-.02h-.013zM256.238.82h.107l-.281-.037-.299-.016h-.268l.428.035.313.018zm1.163.143l.276.02h.288l-.196-.058-.352-.013-.67-.069h-.297l.525.069.426.051zm2.137.118l.045.006-.021-.006h-.024zm.237.042h.01l-.037-.007.027.007zm-.444-.071h-.07l-.066-.019h-.07l-.07-.02h-.104l.299.037.172.019-.016-.006-.075-.011zm.3.045h.059l-.106-.01.047.01zm-.136-.016h.045l-.119-.011.074.011zm-1.984-.227h-.014.014zm-.34-.011l.188.012.27.038.248.016-.372-.054-.317-.012h-.017zm.916.069h.02l-.141-.016.053.016h.068zm-.174 0l-.037-.004.018.004h.019zm-.199-.039l-.102-.013.033.013h.069zm-.402-.03l-.052-.007.016.007h.036zm-.208-.023l-.056-.007.018.007h.038zm-.195-.018h.004l-.116-.006.039.006h.073zm1.004.09l-.057-.006.016.006h.041zm-1.374-.109h.163l-.201-.016.038.016zm-30.676 44.416l-.178.163.086.09.475.044.091-.529-.121-.07-.32.019-.033.283z"/></g><g><g fill="#51504D"><path d="M81.57 11.014c.08-1.117.294-1.848.294-1.848.469-1.058.968-1.552 1.484-1.833l.048-.04.047-.007c.882-.556 2.375-.931 4.471-.931h4.665V0H47.025v6.356h4.664c1.988 0 3.403.349 4.276.861 1.071.604 1.539 1.191 1.733 1.647.047.067.239.87.335 2.021.1 1.179.149 2.784.149 4.771v20.33H34.378v-20.33c0-1.954.057-3.513.154-4.645.078-1.117.286-1.848.312-1.848.463-1.058.952-1.552 1.465-1.833 1.039-.608 2.516-.978 4.566-.978h4.734V0H0v6.356h4.712c1.986 0 3.38.349 4.234.854 1.045.604 1.529 1.187 1.718 1.654.054.067.23.87.339 2.021.089 1.179.146 2.784.146 4.771V67.77c0 1.938-.058 3.507-.146 4.63-.094 1.109-.288 1.859-.298 1.859l-.041.057-.003.013c-.412 1.004-.882 1.473-1.405 1.761-1.004.597-2.496.977-4.544.977H0v6.339h45.61v-6.339h-4.734c-1.99 0-3.394-.354-4.224-.863-1.062-.616-1.564-1.204-1.772-1.687-.046-.066-.254-.844-.326-1.994-.118-1.171-.175-2.765-.175-4.751V45.323h23.804l.003 22.446c0 1.938-.051 3.507-.149 4.63-.089 1.109-.291 1.859-.294 1.859-.471 1.038-.967 1.541-1.5 1.829l-.04.019-.039.033c-.892.529-2.37.925-4.473.925h-4.664v6.339h45.554v-6.339h-4.665c-2 0-3.406-.354-4.276-.863-1.069-.623-1.549-1.204-1.747-1.653-.045-.08-.236-.862-.319-2.026-.104-1.171-.153-2.765-.153-4.751V15.658c-.005-1.954.045-3.512.149-4.644zM139.466 11.014c.08-1.117.274-1.848.295-1.848.479-1.058.955-1.552 1.479-1.833 1.032-.603 2.513-.978 4.569-.978h4.71V0h-45.604v6.356h4.717c1.982 0 3.387.349 4.243.854 1.044.604 1.532 1.187 1.721 1.654.053.067.234.87.327 2.021.088 1.179.141 2.784.141 4.771V67.77c0 1.938-.053 3.507-.141 4.63-.093 1.109-.274 1.859-.301 1.867-.449 1.064-.91 1.533-1.434 1.821-1.014.597-2.503.977-4.558.977h-4.717v6.339h45.604v-6.339h-4.71c-1.995 0-3.398-.354-4.243-.863-1.061-.616-1.554-1.204-1.767-1.687-.04-.066-.252-.844-.324-1.994-.109-1.171-.168-2.765-.168-4.751V15.658c.004-1.954.061-3.512.161-4.644zM218.01.006v6.352h2.11c2.981-.008 5.175.44 6.447 1.104.631.319 1.28.962 1.879 2.213.498.951.923 3.293.905 6.688v32.301c.018 8.279-.802 14.021-2.08 16.853-1.358 3.044-3.3 5.339-5.982 7.061-2.637 1.685-5.854 2.563-9.833 2.568-3.456 0-6.147-.702-8.187-1.986-2.174-1.34-3.589-2.925-4.479-4.819-.812-1.604-1.451-6.236-1.42-13.195V16.362c0-2.223.066-4.03.174-5.328.099-1.312.321-2.216.383-2.336.313-.702.756-1.191 1.553-1.64.47-.313 2.41-.736 5.324-.702h4.13V.006h-45.09v6.37l2.135-.02h.502c2.915-.034 4.859.354 5.389.688.917.488 1.403 1.02 1.696 1.673.056.094.291.971.397 2.269.113 1.332.185 3.126.182 5.376v38.779c.005 6.8 1.06 12.38 3.401 16.718 2.346 4.354 6.342 7.842 11.722 10.459 4.209 2.04 9.771 2.95 16.812 2.965 8.506 0 15.465-1.802 20.712-5.616 4.978-3.634 8.316-7.782 9.722-12.479 1.343-4.506 1.936-11.346 1.936-20.746v-30.08c-.018-3.106.295-5.261.597-5.944.575-1.483 1.305-2.368 2.369-3.018 1.076-.655 2.529-1.044 4.469-1.044h3.729V.006H218.01z"/></g></g></svg>