<svg xmlns="http://www.w3.org/2000/svg" width="72.2" height="104"><defs><filter height="7.1" width="56.7" y="199.9" x="185.7" filterUnits="userSpaceOnUse" id="a" color-interpolation-filters="sRGB"><feColorMatrix values="1 0 0 0 0 0 1 0 0 0 0 0 1 0 0 0 0 0 1 0"/></filter><mask id="b" height="7.1" width="56.7" y="199.9" x="185.7" maskUnits="userSpaceOnUse"><g filter="url(#a)"><g><ellipse ry="3.6" rx="28.3" cy="203.4" cx="214.1"/><ellipse ry="3.4" rx="27.3" cy="203.4" cx="214.1" fill="#070707"/><ellipse ry="3.3" rx="26.3" cy="203.4" cx="214.1" fill="#0d0d0d"/><ellipse ry="3.2" rx="25.2" cy="203.4" cx="214.1" fill="#141414"/><ellipse ry="3" rx="24.1" cy="203.4" cx="214.1" fill="#1b1b1b"/><ellipse ry="2.9" rx="23.1" cy="203.4" cx="214.1" fill="#212121"/><ellipse ry="2.8" rx="22.1" cy="203.4" cx="214.1" fill="#282828"/><ellipse ry="2.7" rx="21" cy="203.4" cx="214.1" fill="#2f2f2f"/><ellipse ry="2.5" rx="20" cy="203.4" cx="214.1" fill="#353535"/><ellipse ry="2.4" rx="18.9" cy="203.4" cx="214.1" fill="#3c3c3c"/><ellipse ry="2.3" rx="17.9" cy="203.4" cx="214.1" fill="#434343"/><ellipse ry="2.2" rx="16.9" cy="203.4" cx="214.1" fill="#494949"/><ellipse ry="2" rx="15.8" cy="203.4" cx="214.1" fill="#505050"/><ellipse ry="1.9" rx="14.7" cy="203.4" cx="214.1" fill="#565656"/><ellipse ry="1.8" rx="13.7" cy="203.4" cx="214.1" fill="#5d5d5d"/><ellipse ry="1.7" rx="12.7" cy="203.4" cx="214.1" fill="#646464"/><ellipse ry="1.5" rx="11.7" cy="203.4" cx="214.1" fill="#6a6a6a"/><ellipse ry="1.4" rx="10.5" cy="203.4" cx="214.1" fill="#717171"/><ellipse ry="1.3" rx="9.5" cy="203.4" cx="214.1" fill="#787878"/><ellipse ry="1" rx="8.5" cy="203.4" cx="214.1" fill="#7e7e7e"/><ellipse ry=".9" rx="7.5" cy="203.4" cx="214.1" fill="#858585"/><ellipse ry=".8" rx="6.5" cy="203.4" cx="214.1" fill="#8c8c8c"/><ellipse ry=".6" rx="5.3" cy="203.4" cx="214.1" fill="#929292"/><ellipse ry=".5" rx="4.3" cy="203.4" cx="214.1" fill="#999"/><ellipse ry=".4" rx="3.3" cy="203.4" cx="214.1" fill="#a0a0a0"/><ellipse ry=".3" rx="2.3" cy="203.4" cx="214.1" fill="#a6a6a6"/><ellipse ry=".1" rx="1.3" cy="203.4" cx="214.1" fill="#adadad"/></g></g></mask></defs><g><g transform="translate(-178 -104)"><path d="M214.1 203.6s-1.3-5.6-10.5-23.3c-9.4-17.6-22.6-25.1-22.6-42.3 0-17.2 14.9-31 33.1-31 18.2 0 33.1 13.8 33.1 31s-13.2 24.6-22.6 42.4c-9.3 17.6-10.5 23.2-10.5 23.2z" fill="#d73f3f"/><path d="M231.4 121.2l15.6 14.6c0 .6.1 1.4.1 2.2 0 17.1-13.2 24.6-22.5 42.1l-28.3-26.4 35.1-32.5z" fill="#485448" fill-opacity=".5"/><g><path d="M214.1 160.7c13.6 0 24.8-10.4 24.8-23.1 0-12.8-11.2-23.1-24.8-23.1-13.6 0-24.6 10.3-24.6 23.1-.1 12.7 11 23.1 24.6 23.1z" fill="#fff"/><path d="M214.1 149c6.7 0 12.2-5.1 12.2-11.4 0-3-1.3-6-3.7-8.1-2.3-2.2-5.3-3.3-8.5-3.3-3.3 0-6.3 1.1-8.6 3.3-2.3 2.2-3.6 5.1-3.6 8.1s1.3 5.8 3.6 8 5.3 3.4 8.6 3.4z" fill="#d73f3f"/><path d="M226.2 137.6c0-3-1.3-6-3.7-8.1l15.2 14.2c-2.3 7.9-8.9 14-17.3 16.1l-15.2-14.2c2.3 2.2 5.3 3.4 8.6 3.4 7 0 12.4-5.2 12.4-11.4z" fill="#b4b4b4"/></g><ellipse mask="url(#b)" ry="3.6" rx="28.3" cy="203.4" cx="214.1" fill="#505050"/></g><path d="M122.497 99.863c-.223-.316-2.256-3.951-4.517-8.078-6.092-11.118-7.767-13.917-14.821-24.769C94.697 54 93.71 52.287 92.753 48.943c-.78-2.718-1.012-4.443-1-7.415.03-7.967 3.51-15.585 9.692-21.209 2.283-2.077 3.957-3.193 6.866-4.577 4.7-2.237 8.514-3.232 13.196-3.442 9.064-.407 17.622 2.844 23.885 9.073 2.633 2.619 4.232 4.887 6.288 8.918 1.43 2.803 1.55 3.117 1.192 3.117-.222 0-3.873-2.909-8.633-6.878-6.865-5.725-8.602-6.856-12.59-8.193-5.388-1.808-12.762-1.787-18.101.052-2.98 1.027-5.325 2.56-8.305 5.43-6.271 6.04-7.701 9.674-7.402 18.816.131 4.023.535 5.856 1.81 8.227 1.671 3.107 2.328 3.825 16.824 18.415 11.281 11.354 14.402 14.666 14.404 15.287.003.888-7.222 15.64-7.74 15.801-.129.04-.418-.185-.642-.502z" fill="#d73f3f" fill-rule="evenodd"/><path d="M35.063 65.266C22.39 53.412 22.294 53.32 22.455 53.158c.064-.064.8.252 1.634.702.835.45 2.49 1.142 3.677 1.54 12.94 4.323 27.134-1.994 31.822-14.164 1.567-4.068 1.774-9.33.536-13.604-.529-1.825-1.73-4.535-2.557-5.77-.246-.367-.348-.668-.226-.668.122 0 2.744 2.361 5.827 5.247 6.49 6.075 6.052 5.332 5.707 9.702-.353 4.469-1.088 7.151-3.085 11.26-1.623 3.338-3.228 5.73-8.842 13.184-4.928 6.544-7.378 10.091-9.241 13.383-.592 1.046-1.136 1.895-1.208 1.887-.072-.008-5.218-4.774-11.436-10.59z" fill="#8f2929" fill-rule="evenodd"/></g></svg>