<svg xmlns="http://www.w3.org/2000/svg" width="72.2" height="104"><defs><mask id="b" height="7.1" width="56.7" y="199.9" x="185.7" maskUnits="userSpaceOnUse"><g filter="url(#a)"><g><ellipse ry="3.6" rx="28.3" cy="203.4" cx="214.1"/><ellipse ry="3.4" rx="27.3" cy="203.4" cx="214.1" fill="#070707"/><ellipse ry="3.3" rx="26.3" cy="203.4" cx="214.1" fill="#0d0d0d"/><ellipse ry="3.2" rx="25.2" cy="203.4" cx="214.1" fill="#141414"/><ellipse ry="3" rx="24.1" cy="203.4" cx="214.1" fill="#1b1b1b"/><ellipse ry="2.9" rx="23.1" cy="203.4" cx="214.1" fill="#212121"/><ellipse ry="2.8" rx="22.1" cy="203.4" cx="214.1" fill="#282828"/><ellipse ry="2.7" rx="21" cy="203.4" cx="214.1" fill="#2f2f2f"/><ellipse ry="2.5" rx="20" cy="203.4" cx="214.1" fill="#353535"/><ellipse ry="2.4" rx="18.9" cy="203.4" cx="214.1" fill="#3c3c3c"/><ellipse ry="2.3" rx="17.9" cy="203.4" cx="214.1" fill="#434343"/><ellipse ry="2.2" rx="16.9" cy="203.4" cx="214.1" fill="#494949"/><ellipse ry="2" rx="15.8" cy="203.4" cx="214.1" fill="#505050"/><ellipse ry="1.9" rx="14.7" cy="203.4" cx="214.1" fill="#565656"/><ellipse ry="1.8" rx="13.7" cy="203.4" cx="214.1" fill="#5d5d5d"/><ellipse ry="1.7" rx="12.7" cy="203.4" cx="214.1" fill="#646464"/><ellipse ry="1.5" rx="11.7" cy="203.4" cx="214.1" fill="#6a6a6a"/><ellipse ry="1.4" rx="10.5" cy="203.4" cx="214.1" fill="#717171"/><ellipse ry="1.3" rx="9.5" cy="203.4" cx="214.1" fill="#787878"/><ellipse ry="1" rx="8.5" cy="203.4" cx="214.1" fill="#7e7e7e"/><ellipse ry=".9" rx="7.5" cy="203.4" cx="214.1" fill="#858585"/><ellipse ry=".8" rx="6.5" cy="203.4" cx="214.1" fill="#8c8c8c"/><ellipse ry=".6" rx="5.3" cy="203.4" cx="214.1" fill="#929292"/><ellipse ry=".5" rx="4.3" cy="203.4" cx="214.1" fill="#999"/><ellipse ry=".4" rx="3.3" cy="203.4" cx="214.1" fill="#a0a0a0"/><ellipse ry=".3" rx="2.3" cy="203.4" cx="214.1" fill="#a6a6a6"/><ellipse ry=".1" rx="1.3" cy="203.4" cx="214.1" fill="#adadad"/></g></g></mask><filter height="7.1" width="56.7" y="199.9" x="185.7" filterUnits="userSpaceOnUse" id="a" color-interpolation-filters="sRGB"><feColorMatrix values="1 0 0 0 0 0 1 0 0 0 0 0 1 0 0 0 0 0 1 0"/></filter></defs><g><g transform="translate(-312.471 -319.362) translate(134.471 215.362)"><path d="M214.1 203.6s-1.3-5.6-10.5-23.3c-9.4-17.6-22.6-25.1-22.6-42.3 0-17.2 14.9-31 33.1-31 18.2 0 33.1 13.8 33.1 31s-13.2 24.6-22.6 42.4c-9.3 17.6-10.5 23.2-10.5 23.2z" fill="#d73f3f"/><path d="M231.4 121.2l15.6 14.6c0 .6.1 1.4.1 2.2 0 17.1-13.2 24.6-22.5 42.1l-28.3-26.4 35.1-32.5z" fill="#485448" fill-opacity=".5"/><g><path d="M214.1 160.7c13.6 0 24.8-10.4 24.8-23.1 0-12.8-11.2-23.1-24.8-23.1-13.6 0-24.6 10.3-24.6 23.1-.1 12.7 11 23.1 24.6 23.1z" fill="#fff"/><path d="M214.1 149c6.7 0 12.2-5.1 12.2-11.4 0-3-1.3-6-3.7-8.1-2.3-2.2-5.3-3.3-8.5-3.3-3.3 0-6.3 1.1-8.6 3.3-2.3 2.2-3.6 5.1-3.6 8.1s1.3 5.8 3.6 8 5.3 3.4 8.6 3.4z" fill="#d73f3f"/><path d="M226.2 137.6c0-3-1.3-6-3.7-8.1l15.2 14.2c-2.3 7.9-8.9 14-17.3 16.1l-15.2-14.2c2.3 2.2 5.3 3.4 8.6 3.4 7 0 12.4-5.2 12.4-11.4z" fill="#b4b4b4"/></g><defs><filter height="7.1" width="56.7" y="199.9" x="185.7" filterUnits="userSpaceOnUse" color-interpolation-filters="sRGB"><feColorMatrix values="1 0 0 0 0 0 1 0 0 0 0 0 1 0 0 0 0 0 1 0"/></filter></defs><mask height="7.1" width="56.7" y="199.9" x="185.7" maskUnits="userSpaceOnUse"><g filter="url(#a)"><g><ellipse ry="3.6" rx="28.3" cy="203.4" cx="214.1"/><ellipse ry="3.4" rx="27.3" cy="203.4" cx="214.1" fill="#070707"/><ellipse ry="3.3" rx="26.3" cy="203.4" cx="214.1" fill="#0d0d0d"/><ellipse ry="3.2" rx="25.2" cy="203.4" cx="214.1" fill="#141414"/><ellipse ry="3" rx="24.1" cy="203.4" cx="214.1" fill="#1b1b1b"/><ellipse ry="2.9" rx="23.1" cy="203.4" cx="214.1" fill="#212121"/><ellipse ry="2.8" rx="22.1" cy="203.4" cx="214.1" fill="#282828"/><ellipse ry="2.7" rx="21" cy="203.4" cx="214.1" fill="#2f2f2f"/><ellipse ry="2.5" rx="20" cy="203.4" cx="214.1" fill="#353535"/><ellipse ry="2.4" rx="18.9" cy="203.4" cx="214.1" fill="#3c3c3c"/><ellipse ry="2.3" rx="17.9" cy="203.4" cx="214.1" fill="#434343"/><ellipse ry="2.2" rx="16.9" cy="203.4" cx="214.1" fill="#494949"/><ellipse ry="2" rx="15.8" cy="203.4" cx="214.1" fill="#505050"/><ellipse ry="1.9" rx="14.7" cy="203.4" cx="214.1" fill="#565656"/><ellipse ry="1.8" rx="13.7" cy="203.4" cx="214.1" fill="#5d5d5d"/><ellipse ry="1.7" rx="12.7" cy="203.4" cx="214.1" fill="#646464"/><ellipse ry="1.5" rx="11.7" cy="203.4" cx="214.1" fill="#6a6a6a"/><ellipse ry="1.4" rx="10.5" cy="203.4" cx="214.1" fill="#717171"/><ellipse ry="1.3" rx="9.5" cy="203.4" cx="214.1" fill="#787878"/><ellipse ry="1" rx="8.5" cy="203.4" cx="214.1" fill="#7e7e7e"/><ellipse ry=".9" rx="7.5" cy="203.4" cx="214.1" fill="#858585"/><ellipse ry=".8" rx="6.5" cy="203.4" cx="214.1" fill="#8c8c8c"/><ellipse ry=".6" rx="5.3" cy="203.4" cx="214.1" fill="#929292"/><ellipse ry=".5" rx="4.3" cy="203.4" cx="214.1" fill="#999"/><ellipse ry=".4" rx="3.3" cy="203.4" cx="214.1" fill="#a0a0a0"/><ellipse ry=".3" rx="2.3" cy="203.4" cx="214.1" fill="#a6a6a6"/><ellipse ry=".1" rx="1.3" cy="203.4" cx="214.1" fill="#adadad"/></g></g></mask><ellipse mask="url(#b)" ry="3.6" rx="28.3" cy="203.4" cx="214.1" fill="#505050"/></g><path fill="#d73f3f" fill-rule="evenodd" stroke="#d40000" stroke-width=".221" transform="translate(-312.471 -319.362)"/><path fill="#d73f3f" fill-rule="evenodd" stroke="#d40000" stroke-width=".221" transform="translate(-312.471 -319.362)"/><path fill="#d73f3f" fill-rule="evenodd" stroke="#d40000" stroke-width=".221" transform="translate(-312.471 -319.362)"/><path fill="#d73f3f" fill-rule="evenodd" stroke="#d40000" stroke-width=".097" transform="translate(-312.471 -319.362)"/><path d="M122.498 99.864c-.224-.317-2.257-3.952-4.518-8.078-6.092-11.12-7.767-13.917-14.82-24.77C94.697 54 93.71 52.286 92.752 48.944c-.78-2.72-1.012-4.444-1-7.416.03-7.966 3.51-15.585 9.692-21.208 2.283-2.078 3.958-3.194 6.866-4.578 4.702-2.237 8.516-3.23 13.197-3.442 9.064-.406 17.623 2.845 23.886 9.074 2.633 2.618 4.232 4.886 6.288 8.917 1.43 2.805 1.55 3.12 1.193 3.12-.223 0-3.874-2.91-8.633-6.88-6.865-5.725-8.603-6.856-12.59-8.193-5.39-1.808-12.762-1.786-18.102.053-2.98 1.026-5.325 2.56-8.304 5.428-6.272 6.04-7.702 9.675-7.403 18.817.133 4.024.536 5.856 1.812 8.227 1.67 3.107 2.328 3.826 16.824 18.415 11.28 11.354 14.402 14.667 14.404 15.288.003.887-7.223 15.64-7.74 15.8-.13.04-.418-.185-.642-.502z" fill="#d73f3f" fill-rule="evenodd"/><path d="M35.063 65.266C22.39 53.412 22.295 53.32 22.456 53.158c.064-.064.8.252 1.634.702.835.45 2.49 1.143 3.676 1.54 12.94 4.323 27.134-1.994 31.822-14.164 1.567-4.068 1.775-9.33.536-13.604-.53-1.825-1.73-4.534-2.557-5.77-.246-.367-.347-.668-.225-.668.122 0 2.744 2.362 5.827 5.247 6.488 6.076 6.05 5.333 5.705 9.703-.353 4.47-1.088 7.15-3.085 11.26-1.623 3.338-3.227 5.73-8.84 13.184-4.93 6.544-7.38 10.092-9.243 13.383-.592 1.046-1.135 1.895-1.207 1.887-.072-.008-5.22-4.774-11.437-10.59z" fill="#8f2929" fill-rule="evenodd"/></g></svg>