<svg xmlns="http://www.w3.org/2000/svg" width="72.2" height="104"><defs><mask id="b" height="7.1" width="56.7" y="199.9" x="185.7" maskUnits="userSpaceOnUse"><g filter="url(#a)"><g><ellipse ry="3.6" rx="28.3" cy="203.4" cx="214.1"/><ellipse ry="3.4" rx="27.3" cy="203.4" cx="214.1" fill="#070707"/><ellipse ry="3.3" rx="26.3" cy="203.4" cx="214.1" fill="#0d0d0d"/><ellipse ry="3.2" rx="25.2" cy="203.4" cx="214.1" fill="#141414"/><ellipse ry="3" rx="24.1" cy="203.4" cx="214.1" fill="#1b1b1b"/><ellipse ry="2.9" rx="23.1" cy="203.4" cx="214.1" fill="#212121"/><ellipse ry="2.8" rx="22.1" cy="203.4" cx="214.1" fill="#282828"/><ellipse ry="2.7" rx="21" cy="203.4" cx="214.1" fill="#2f2f2f"/><ellipse ry="2.5" rx="20" cy="203.4" cx="214.1" fill="#353535"/><ellipse ry="2.4" rx="18.9" cy="203.4" cx="214.1" fill="#3c3c3c"/><ellipse ry="2.3" rx="17.9" cy="203.4" cx="214.1" fill="#434343"/><ellipse ry="2.2" rx="16.9" cy="203.4" cx="214.1" fill="#494949"/><ellipse ry="2" rx="15.8" cy="203.4" cx="214.1" fill="#505050"/><ellipse ry="1.9" rx="14.7" cy="203.4" cx="214.1" fill="#565656"/><ellipse ry="1.8" rx="13.7" cy="203.4" cx="214.1" fill="#5d5d5d"/><ellipse ry="1.7" rx="12.7" cy="203.4" cx="214.1" fill="#646464"/><ellipse ry="1.5" rx="11.7" cy="203.4" cx="214.1" fill="#6a6a6a"/><ellipse ry="1.4" rx="10.5" cy="203.4" cx="214.1" fill="#717171"/><ellipse ry="1.3" rx="9.5" cy="203.4" cx="214.1" fill="#787878"/><ellipse ry="1" rx="8.5" cy="203.4" cx="214.1" fill="#7e7e7e"/><ellipse ry=".9" rx="7.5" cy="203.4" cx="214.1" fill="#858585"/><ellipse ry=".8" rx="6.5" cy="203.4" cx="214.1" fill="#8c8c8c"/><ellipse ry=".6" rx="5.3" cy="203.4" cx="214.1" fill="#929292"/><ellipse ry=".5" rx="4.3" cy="203.4" cx="214.1" fill="#999"/><ellipse ry=".4" rx="3.3" cy="203.4" cx="214.1" fill="#a0a0a0"/><ellipse ry=".3" rx="2.3" cy="203.4" cx="214.1" fill="#a6a6a6"/><ellipse ry=".1" rx="1.3" cy="203.4" cx="214.1" fill="#adadad"/></g></g></mask><filter height="7.1" width="56.7" y="199.9" x="185.7" filterUnits="userSpaceOnUse" id="a" color-interpolation-filters="sRGB"><feColorMatrix values="1 0 0 0 0 0 1 0 0 0 0 0 1 0 0 0 0 0 1 0"/></filter></defs><g><g transform="translate(-312.471 -319.362) translate(134.471 215.362)"><path d="M214.1 203.6s-1.3-5.6-10.5-23.3c-9.4-17.6-22.6-25.1-22.6-42.3 0-17.2 14.9-31 33.1-31 18.2 0 33.1 13.8 33.1 31s-13.2 24.6-22.6 42.4c-9.3 17.6-10.5 23.2-10.5 23.2z" fill="#676"/><path d="M231.4 121.2l15.6 14.6c0 .6.1 1.4.1 2.2 0 17.1-13.2 24.6-22.5 42.1l-28.3-26.4 35.1-32.5z" fill="#485448" fill-opacity=".5"/><g><path d="M214.1 160.7c13.6 0 24.8-10.4 24.8-23.1 0-12.8-11.2-23.1-24.8-23.1-13.6 0-24.6 10.3-24.6 23.1-.1 12.7 11 23.1 24.6 23.1z" fill="#fff"/><path d="M214.1 149c6.7 0 12.2-5.1 12.2-11.4 0-3-1.3-6-3.7-8.1-2.3-2.2-5.3-3.3-8.5-3.3-3.3 0-6.3 1.1-8.6 3.3-2.3 2.2-3.6 5.1-3.6 8.1s1.3 5.8 3.6 8 5.3 3.4 8.6 3.4z" fill="#676"/><path d="M226.2 137.6c0-3-1.3-6-3.7-8.1l15.2 14.2c-2.3 7.9-8.9 14-17.3 16.1l-15.2-14.2c2.3 2.2 5.3 3.4 8.6 3.4 7 0 12.4-5.2 12.4-11.4z" fill="#b4b4b4"/></g><defs><filter height="7.1" width="56.7" y="199.9" x="185.7" filterUnits="userSpaceOnUse" color-interpolation-filters="sRGB"><feColorMatrix values="1 0 0 0 0 0 1 0 0 0 0 0 1 0 0 0 0 0 1 0"/></filter></defs><mask height="7.1" width="56.7" y="199.9" x="185.7" maskUnits="userSpaceOnUse"><g filter="url(#a)"><g><ellipse ry="3.6" rx="28.3" cy="203.4" cx="214.1"/><ellipse ry="3.4" rx="27.3" cy="203.4" cx="214.1" fill="#070707"/><ellipse ry="3.3" rx="26.3" cy="203.4" cx="214.1" fill="#0d0d0d"/><ellipse ry="3.2" rx="25.2" cy="203.4" cx="214.1" fill="#141414"/><ellipse ry="3" rx="24.1" cy="203.4" cx="214.1" fill="#1b1b1b"/><ellipse ry="2.9" rx="23.1" cy="203.4" cx="214.1" fill="#212121"/><ellipse ry="2.8" rx="22.1" cy="203.4" cx="214.1" fill="#282828"/><ellipse ry="2.7" rx="21" cy="203.4" cx="214.1" fill="#2f2f2f"/><ellipse ry="2.5" rx="20" cy="203.4" cx="214.1" fill="#353535"/><ellipse ry="2.4" rx="18.9" cy="203.4" cx="214.1" fill="#3c3c3c"/><ellipse ry="2.3" rx="17.9" cy="203.4" cx="214.1" fill="#434343"/><ellipse ry="2.2" rx="16.9" cy="203.4" cx="214.1" fill="#494949"/><ellipse ry="2" rx="15.8" cy="203.4" cx="214.1" fill="#505050"/><ellipse ry="1.9" rx="14.7" cy="203.4" cx="214.1" fill="#565656"/><ellipse ry="1.8" rx="13.7" cy="203.4" cx="214.1" fill="#5d5d5d"/><ellipse ry="1.7" rx="12.7" cy="203.4" cx="214.1" fill="#646464"/><ellipse ry="1.5" rx="11.7" cy="203.4" cx="214.1" fill="#6a6a6a"/><ellipse ry="1.4" rx="10.5" cy="203.4" cx="214.1" fill="#717171"/><ellipse ry="1.3" rx="9.5" cy="203.4" cx="214.1" fill="#787878"/><ellipse ry="1" rx="8.5" cy="203.4" cx="214.1" fill="#7e7e7e"/><ellipse ry=".9" rx="7.5" cy="203.4" cx="214.1" fill="#858585"/><ellipse ry=".8" rx="6.5" cy="203.4" cx="214.1" fill="#8c8c8c"/><ellipse ry=".6" rx="5.3" cy="203.4" cx="214.1" fill="#929292"/><ellipse ry=".5" rx="4.3" cy="203.4" cx="214.1" fill="#999"/><ellipse ry=".4" rx="3.3" cy="203.4" cx="214.1" fill="#a0a0a0"/><ellipse ry=".3" rx="2.3" cy="203.4" cx="214.1" fill="#a6a6a6"/><ellipse ry=".1" rx="1.3" cy="203.4" cx="214.1" fill="#adadad"/></g></g></mask><ellipse mask="url(#b)" ry="3.6" rx="28.3" cy="203.4" cx="214.1" fill="#505050"/></g><path fill="#d73f3f" fill-rule="evenodd" stroke="#d40000" stroke-width=".221" transform="translate(-312.471 -319.362)"/><path fill="#d73f3f" fill-rule="evenodd" stroke="#d40000" stroke-width=".221" transform="translate(-312.471 -319.362)"/><path fill="#d73f3f" fill-rule="evenodd" stroke="#d40000" stroke-width=".221" transform="translate(-312.471 -319.362)"/><path fill="#d73f3f" fill-rule="evenodd" stroke="#d40000" stroke-width=".097" transform="translate(-312.471 -319.362)"/><path d="M10.09 15.36c0-.04.16-.203.358-.358.326-.256.334-.25.078.077-.27.342-.437.45-.437.28z" fill="#d73f3f" fill-rule="evenodd" stroke="#d40000" stroke-width=".097"/><path d="M35.32 3.792c.142-.057.373-.057.514 0 .14.057.026.104-.257.104-.282 0-.398-.047-.257-.104z" fill="#d73f3f" fill-rule="evenodd" stroke="#d40000" stroke-width=".097"/></g></svg>