<svg xmlns="http://www.w3.org/2000/svg" width="100" height="100"><g fill="#676"><path d="M71.2 10.7c-4.8-6.7-12.3-10.4-20.5-10.4-8 0-15.4 3.6-20.2 10-5.1 6.7-6.8 15.5-4.5 23.7 3 10.9 6 20.7 8.8 30.1 3 9.9 6.1 20.1 9.2 31.5.7 2.7 3.1 4.5 5.9 4.6h.1c2.7 0 5.1-1.8 5.9-4.3l19.3-61.4c2.5-8.1 1-17-4-23.8zm-7.9 20l-13.1 41.7c-1.2-4.1-2.4-8-3.6-11.9-2.9-9.4-5.8-19.1-8.8-29.8-1.2-4.5-.3-9.3 2.4-12.9 2.5-3.3 6.2-5.1 10.4-5.1 4.3 0 8 1.9 10.6 5.3 2.7 3.6 3.5 8.4 2.1 12.7zM50.7 16.9c-4.5 0-8.1 3.6-8.1 8.1s3.6 8.1 8.1 8.1 8.1-3.6 8.1-8.1-3.6-8.1-8.1-8.1z"/></g></svg>