<svg xmlns="http://www.w3.org/2000/svg" xmlns:xlink="http://www.w3.org/1999/xlink" width="95" height="93.87"><title>OpenStreetMap logo 2011</title><defs><linearGradient id="K"><stop offset="0"/><stop offset="1" stop-opacity="0"/></linearGradient><linearGradient id="s"><stop offset="0" stop-color="#fff"/><stop offset=".5" stop-color="#fff" stop-opacity=".931"/><stop offset="1" stop-color="#fff" stop-opacity="0"/></linearGradient><linearGradient id="v"><stop offset="0" stop-color="#fff"/><stop offset="1" stop-color="#fff" stop-opacity="0"/></linearGradient><linearGradient id="h"><stop offset="0" stop-color="#f9e295"/><stop offset=".125" stop-color="#f7dd84"/><stop offset=".206" stop-color="#fff"/><stop offset=".301" stop-color="#f4ce51"/><stop offset=".341" stop-color="#f9e7aa"/><stop offset="1" stop-color="#efbb0e"/></linearGradient><linearGradient id="e"><stop offset="0" stop-color="#2d3335"/><stop offset=".5" stop-color="#4c464a"/><stop offset="1" stop-color="#384042"/></linearGradient><linearGradient id="d"><stop offset="0" stop-color="#d0e9f2" stop-opacity="0"/><stop offset=".839" stop-color="#d0e9f2" stop-opacity="0"/><stop offset=".943" stop-color="#d0e9f2" stop-opacity=".282"/><stop offset="1" stop-color="#d0e9f2"/></linearGradient><linearGradient id="c"><stop offset="0"/><stop offset="1" stop-opacity="0"/></linearGradient><linearGradient x1="94.25" y1="-94.672" x2="9" y2="-179.969" id="aa" xlink:href="#a" gradientUnits="userSpaceOnUse"/><linearGradient id="a"><stop offset="0"/><stop offset="1" stop-opacity="0"/></linearGradient><linearGradient x1="50.75" y1="-114.438" x2="35.75" y2="-30.438" id="ab" xlink:href="#a" gradientUnits="userSpaceOnUse"/><linearGradient x1="77.625" y1="-163.125" x2="115.25" y2="-74.625" id="ac" xlink:href="#a" gradientUnits="userSpaceOnUse"/><linearGradient x1="56.5" y1="-50.438" x2="125.719" y2="7.063" id="ad" xlink:href="#a" gradientUnits="userSpaceOnUse"/><linearGradient x1="35" y1="-163.297" x2="180.75" y2="-146.797" id="ae" xlink:href="#a" gradientUnits="userSpaceOnUse"/><linearGradient x1="57" y1="-141.109" x2="179" y2="-41.609" id="af" xlink:href="#a" gradientUnits="userSpaceOnUse"/><linearGradient x1="156" y1="-26.5" x2="208.25" y2="39.75" id="ag" xlink:href="#a" gradientUnits="userSpaceOnUse"/><linearGradient x1="142.75" y1="-169.297" x2="235" y2="-77.297" id="ah" xlink:href="#a" gradientUnits="userSpaceOnUse"/><linearGradient x1="214.25" y1="-161.359" x2="166.5" y2="-113.719" id="S" xlink:href="#b" gradientUnits="userSpaceOnUse"/><linearGradient id="b"><stop offset="0" stop-color="#fff"/><stop offset="1" stop-color="#fff" stop-opacity="0"/></linearGradient><linearGradient x1="53.25" y1="-126.5" x2="57.656" y2="-62.469" id="T" xlink:href="#b" gradientUnits="userSpaceOnUse"/><linearGradient x1="39.5" y1="6.625" x2="75.719" y2="-17.125" id="U" xlink:href="#b" gradientUnits="userSpaceOnUse"/><linearGradient x1="102" y1="-162.344" x2="85.313" y2="-121.438" id="V" xlink:href="#b" gradientUnits="userSpaceOnUse"/><linearGradient x1="117.75" y1="-78.094" x2="63.5" y2="-14.75" id="W" xlink:href="#b" gradientUnits="userSpaceOnUse"/><linearGradient x1="180.687" y1="-125.125" x2="133.937" y2="-60.75" id="X" xlink:href="#b" gradientUnits="userSpaceOnUse"/><linearGradient x1="170.75" y1="-23.5" x2="130.219" y2="33.375" id="Y" xlink:href="#b" gradientUnits="userSpaceOnUse"/><linearGradient x1="213.5" y1="-76" x2="181.75" y2="-5.656" id="Z" xlink:href="#b" gradientUnits="userSpaceOnUse"/><linearGradient x1="210.172" y1="72.064" x2="9" y2="-213.253" id="R" xlink:href="#c" gradientUnits="userSpaceOnUse" gradientTransform="matrix(.36438 0 0 .36438 .618 -3.644)"/><clipPath id="P"><path d="M9 12.25s7.5 13 11.75 27.75L27 65.5s-5.5 12.75-8.25 24.75l-5.75 23s5.75 16 9.25 30L26 167.5s-4 10.25-7.5 24.25l-5 30.75s9.25-2 28.5 1.25l32.25 6s12.75-2.75 24-6.25l16.25-6.5s5.5.5 22.5 6.25l29.25 8.5s13-2.75 26-5.75l26.5-8s-.75-5 4.25-24.5l8.75-28s-.5-4.5-3.75-19.75L218 116s1.75-10.5 6.75-23.75L235 65.5s-4.75-15.25-7.5-29.75L219.25 10S195 19 187.5 20.5l-21 5.25s-9.75-4.25-22-8.5l-29.75-5.5s-3.25 3.5-22 8l-27.5 5.75s-18.5-9-31.5-11.5-24-2-24.75-1.75z"/></clipPath><clipPath id="Q"><path d="M9 12.25s7.5 13 11.75 27.75L27 65.5s-5.5 12.75-8.25 24.75l-5.75 23s5.75 16 9.25 30L26 167.5s-4 10.25-7.5 24.25l-5 30.75s9.25-2 28.5 1.25l32.25 6s12.75-2.75 24-6.25l16.25-6.5s5.5.5 22.5 6.25l29.25 8.5s13-2.75 26-5.75l26.5-8s-.75-5 4.25-24.5l8.75-28s-.5-4.5-3.75-19.75L218 116s1.75-10.5 6.75-23.75L235 65.5s-4.75-15.25-7.5-29.75L219.25 10S195 19 187.5 20.5l-21 5.25s-9.75-4.25-22-8.5l-29.75-5.5s-3.25 3.5-22 8l-27.5 5.75s-18.5-9-31.5-11.5-24-2-24.75-1.75z"/></clipPath><clipPath id="O"><path d="M9 12.25s7.5 13 11.75 27.75L27 65.5s-5.5 12.75-8.25 24.75l-5.75 23s5.75 16 9.25 30L26 167.5s-4 10.25-7.5 24.25l-5 30.75s9.25-2 28.5 1.25l32.25 6s12.75-2.75 24-6.25l16.25-6.5s5.5.5 22.5 6.25l29.25 8.5s13-2.75 26-5.75l26.5-8s-.75-5 4.25-24.5l8.75-28s-.5-4.5-3.75-19.75L218 116s1.75-10.5 6.75-23.75L235 65.5s-4.75-15.25-7.5-29.75L219.25 10S195 19 187.5 20.5l-21 5.25s-9.75-4.25-22-8.5l-29.75-5.5s-3.25 3.5-22 8l-27.5 5.75s-18.5-9-31.5-11.5-24-2-24.75-1.75z"/></clipPath><linearGradient id="f"><stop offset="0" stop-color="#2d3335"/><stop offset=".5" stop-color="#4c464a"/><stop offset="1" stop-color="#384042"/></linearGradient><linearGradient id="g"><stop offset="0" stop-color="#2d3335"/><stop offset=".5" stop-color="#4c464a"/><stop offset="1" stop-color="#384042"/></linearGradient><linearGradient id="i"><stop offset="0" stop-color="#f9e295"/><stop offset=".125" stop-color="#f7dd84"/><stop offset=".206" stop-color="#fff"/><stop offset=".301" stop-color="#f4ce51"/><stop offset=".341" stop-color="#f9e7aa"/><stop offset="1" stop-color="#efbb0e"/></linearGradient><linearGradient id="j"><stop offset="0" stop-color="#f9e295"/><stop offset=".125" stop-color="#f7dd84"/><stop offset=".206" stop-color="#fff"/><stop offset=".301" stop-color="#f4ce51"/><stop offset=".341" stop-color="#f9e7aa"/><stop offset="1" stop-color="#efbb0e"/></linearGradient><linearGradient id="k"><stop offset="0" stop-color="#f9e295"/><stop offset=".125" stop-color="#f7dd84"/><stop offset=".206" stop-color="#fff"/><stop offset=".301" stop-color="#f4ce51"/><stop offset=".341" stop-color="#f9e7aa"/><stop offset="1" stop-color="#efbb0e"/></linearGradient><linearGradient id="l"><stop offset="0" stop-color="#f9e295"/><stop offset=".125" stop-color="#f7dd84"/><stop offset=".206" stop-color="#fff"/><stop offset=".301" stop-color="#f4ce51"/><stop offset=".341" stop-color="#f9e7aa"/><stop offset="1" stop-color="#efbb0e"/></linearGradient><linearGradient id="q"><stop offset="0" stop-color="#d0e9f2" stop-opacity="0"/><stop offset=".839" stop-color="#d0e9f2" stop-opacity="0"/><stop offset=".943" stop-color="#d0e9f2" stop-opacity=".282"/><stop offset="1" stop-color="#d0e9f2"/></linearGradient><linearGradient id="p"><stop offset="0" stop-color="#2d3335"/><stop offset=".5" stop-color="#4c464a"/><stop offset="1" stop-color="#384042"/></linearGradient><linearGradient id="o"><stop offset="0" stop-color="#f9e295"/><stop offset=".125" stop-color="#f7dd84"/><stop offset=".206" stop-color="#fff"/><stop offset=".301" stop-color="#f4ce51"/><stop offset=".341" stop-color="#f9e7aa"/><stop offset="1" stop-color="#efbb0e"/></linearGradient><linearGradient id="n"><stop offset="0" stop-color="#2d3335"/><stop offset=".5" stop-color="#4c464a"/><stop offset="1" stop-color="#384042"/></linearGradient><linearGradient id="m"><stop offset="0" stop-color="#f9e295"/><stop offset=".125" stop-color="#f7dd84"/><stop offset=".206" stop-color="#fff"/><stop offset=".301" stop-color="#f4ce51"/><stop offset=".341" stop-color="#f9e7aa"/><stop offset="1" stop-color="#efbb0e"/></linearGradient><linearGradient x1="120" y1="186.5" x2="136" y2="186.5" id="aF" xlink:href="#m" gradientUnits="userSpaceOnUse" gradientTransform="scale(.50706) rotate(45 76.046 38.306)"/><linearGradient x1="123" y1="150.375" x2="133" y2="150.375" id="aK" xlink:href="#n" gradientUnits="userSpaceOnUse" gradientTransform="rotate(-135 121.57 -14.6) scale(1.01464 -.89767)"/><linearGradient x1="120" y1="186.5" x2="136" y2="186.5" id="aJ" xlink:href="#o" gradientUnits="userSpaceOnUse" gradientTransform="scale(.50706) rotate(45 156.944 71.816)"/><linearGradient x1="123" y1="150.375" x2="133" y2="150.375" id="aI" xlink:href="#p" gradientUnits="userSpaceOnUse" gradientTransform="scale(.50706) rotate(-135 157.783 -11.974)"/><linearGradient x1="128" y1="134.359" x2="130.875" y2="143.359" id="aH" xlink:href="#p" gradientUnits="userSpaceOnUse" gradientTransform="scale(.50706) rotate(45 156.944 71.816)"/><radialGradient cx="128" cy="86" r="47" fx="128" fy="86" id="aG" xlink:href="#q" gradientUnits="userSpaceOnUse" gradientTransform="matrix(.3662 .3662 .3662 -.3662 -14.262 15.76)"/><linearGradient id="r"><stop offset="0" stop-color="#2d3335"/><stop offset=".5" stop-color="#4c464a"/><stop offset="1" stop-color="#384042"/></linearGradient><linearGradient x1="108.003" y1="167.727" x2="133" y2="150.375" id="aL" xlink:href="#c" gradientUnits="userSpaceOnUse" gradientTransform="rotate(-135 121.57 -14.6) scale(1.01464 -.89767)"/><radialGradient cx="159.613" cy="72.588" r="38.417" fx="159.613" fy="72.588" id="aO" xlink:href="#s" gradientUnits="userSpaceOnUse" gradientTransform="matrix(.44163 0 0 .3057 -16.277 9.033)"/><linearGradient id="t"><stop offset="0" stop-color="#fff"/><stop offset="1" stop-color="#fff" stop-opacity="0"/></linearGradient><radialGradient cx="159.613" cy="72.588" r="38.417" fx="159.613" fy="72.588" id="aN" xlink:href="#t" gradientUnits="userSpaceOnUse" gradientTransform="matrix(.44163 0 0 .3057 -16.12 9.502)"/><linearGradient id="u"><stop offset="0" stop-color="#d0e9f2" stop-opacity="0"/><stop offset=".839" stop-color="#d0e9f2" stop-opacity="0"/><stop offset=".943" stop-color="#d0e9f2" stop-opacity=".282"/><stop offset="1" stop-color="#d0e9f2"/></linearGradient><linearGradient x1="126.643" y1="29.815" x2="179.961" y2="137.196" id="aM" xlink:href="#v" gradientUnits="userSpaceOnUse" gradientTransform="matrix(.36438 0 0 .36438 .618 -3.644)"/><linearGradient id="w"><stop offset="0" stop-color="#fff"/><stop offset="1" stop-color="#fff" stop-opacity="0"/></linearGradient><linearGradient x1="126.643" y1="29.815" x2="179.961" y2="137.196" id="aP" xlink:href="#w" gradientUnits="userSpaceOnUse" gradientTransform="matrix(-.18328 .07215 .07178 -.15778 101.243 44.97)"/><linearGradient id="x"><stop offset="0" stop-color="#fff"/><stop offset="1" stop-color="#fff" stop-opacity="0"/></linearGradient><linearGradient id="y"><stop offset="0" stop-color="#fff"/><stop offset="1" stop-color="#fff" stop-opacity="0"/></linearGradient><linearGradient id="z"><stop offset="0" stop-color="#fff"/><stop offset="1" stop-color="#fff" stop-opacity="0"/></linearGradient><linearGradient id="A"><stop offset="0" stop-color="#fff"/><stop offset=".5" stop-color="#fff" stop-opacity=".931"/><stop offset="1" stop-color="#fff" stop-opacity="0"/></linearGradient><linearGradient id="B"><stop offset="0" stop-color="#fff"/><stop offset="1" stop-color="#fff" stop-opacity="0"/></linearGradient><filter color-interpolation-filters="sRGB" id="aE"><feGaussianBlur stdDeviation="4.287"/></filter><linearGradient id="C"><stop offset="0"/><stop offset="1" stop-opacity="0"/></linearGradient><linearGradient id="D"><stop offset="0"/><stop offset="1" stop-opacity="0"/></linearGradient><linearGradient id="E"><stop offset="0"/><stop offset="1" stop-opacity="0"/></linearGradient><clipPath id="aj"><path d="M9 12.25s7.5 13 11.75 27.75L27 65.5s-5.5 12.75-8.25 24.75l-5.75 23s5.75 16 9.25 30L26 167.5s-4 10.25-7.5 24.25l-5 30.75s9.25-2 28.5 1.25l32.25 6s12.75-2.75 24-6.25l16.25-6.5s5.5.5 22.5 6.25l29.25 8.5s13-2.75 26-5.75l26.5-8s-.75-5 4.25-24.5l8.75-28s-.5-4.5-3.75-19.75L218 116s1.75-10.5 6.75-23.75L235 65.5s-4.75-15.25-7.5-29.75L219.25 10S195 19 187.5 20.5l-21 5.25s-9.75-4.25-22-8.5l-29.75-5.5s-3.25 3.5-22 8l-27.5 5.75s-18.5-9-31.5-11.5-24-2-24.75-1.75z"/></clipPath><clipPath id="ak"><path d="M9 12.25s7.5 13 11.75 27.75L27 65.5s-5.5 12.75-8.25 24.75l-5.75 23s5.75 16 9.25 30L26 167.5s-4 10.25-7.5 24.25l-5 30.75s9.25-2 28.5 1.25l32.25 6s12.75-2.75 24-6.25l16.25-6.5s5.5.5 22.5 6.25l29.25 8.5s13-2.75 26-5.75l26.5-8s-.75-5 4.25-24.5l8.75-28s-.5-4.5-3.75-19.75L218 116s1.75-10.5 6.75-23.75L235 65.5s-4.75-15.25-7.5-29.75L219.25 10S195 19 187.5 20.5l-21 5.25s-9.75-4.25-22-8.5l-29.75-5.5s-3.25 3.5-22 8l-27.5 5.75s-18.5-9-31.5-11.5-24-2-24.75-1.75z"/></clipPath><clipPath id="al"><path d="M9 12.25s7.5 13 11.75 27.75L27 65.5s-5.5 12.75-8.25 24.75l-5.75 23s5.75 16 9.25 30L26 167.5s-4 10.25-7.5 24.25l-5 30.75s9.25-2 28.5 1.25l32.25 6s12.75-2.75 24-6.25l16.25-6.5s5.5.5 22.5 6.25l29.25 8.5s13-2.75 26-5.75l26.5-8s-.75-5 4.25-24.5l8.75-28s-.5-4.5-3.75-19.75L218 116s1.75-10.5 6.75-23.75L235 65.5s-4.75-15.25-7.5-29.75L219.25 10S195 19 187.5 20.5l-21 5.25s-9.75-4.25-22-8.5l-29.75-5.5s-3.25 3.5-22 8l-27.5 5.75s-18.5-9-31.5-11.5-24-2-24.75-1.75z"/></clipPath><linearGradient x1="210.172" y1="72.064" x2="9" y2="-213.253" id="am" xlink:href="#F" gradientUnits="userSpaceOnUse" gradientTransform="translate(0 192)"/><linearGradient id="F"><stop offset="0"/><stop offset="1" stop-opacity="0"/></linearGradient><linearGradient x1="214.25" y1="-161.359" x2="166.5" y2="-113.719" id="an" xlink:href="#G" gradientUnits="userSpaceOnUse"/><linearGradient id="G"><stop offset="0" stop-color="#fff"/><stop offset="1" stop-color="#fff" stop-opacity="0"/></linearGradient><linearGradient x1="53.25" y1="-126.5" x2="57.656" y2="-62.469" id="ao" xlink:href="#G" gradientUnits="userSpaceOnUse"/><linearGradient x1="39.5" y1="6.625" x2="75.719" y2="-17.125" id="ap" xlink:href="#G" gradientUnits="userSpaceOnUse"/><linearGradient x1="102" y1="-162.344" x2="85.313" y2="-121.438" id="aq" xlink:href="#G" gradientUnits="userSpaceOnUse"/><linearGradient x1="117.75" y1="-78.094" x2="63.5" y2="-14.75" id="ar" xlink:href="#G" gradientUnits="userSpaceOnUse"/><linearGradient x1="180.687" y1="-125.125" x2="133.937" y2="-60.75" id="as" xlink:href="#G" gradientUnits="userSpaceOnUse"/><linearGradient x1="170.75" y1="-23.5" x2="130.219" y2="33.375" id="at" xlink:href="#G" gradientUnits="userSpaceOnUse"/><linearGradient x1="213.5" y1="-76" x2="181.75" y2="-5.656" id="au" xlink:href="#G" gradientUnits="userSpaceOnUse"/><linearGradient x1="94.25" y1="-94.672" x2="9" y2="-179.969" id="av" xlink:href="#H" gradientUnits="userSpaceOnUse"/><linearGradient id="H"><stop offset="0"/><stop offset="1" stop-opacity="0"/></linearGradient><linearGradient x1="50.75" y1="-114.438" x2="35.75" y2="-30.438" id="aw" xlink:href="#H" gradientUnits="userSpaceOnUse"/><linearGradient x1="77.625" y1="-163.125" x2="115.25" y2="-74.625" id="ax" xlink:href="#H" gradientUnits="userSpaceOnUse"/><linearGradient x1="56.5" y1="-50.438" x2="125.719" y2="7.063" id="ay" xlink:href="#H" gradientUnits="userSpaceOnUse"/><linearGradient x1="35" y1="-163.297" x2="180.75" y2="-146.797" id="az" xlink:href="#H" gradientUnits="userSpaceOnUse"/><linearGradient x1="57" y1="-141.109" x2="179" y2="-41.609" id="aA" xlink:href="#H" gradientUnits="userSpaceOnUse"/><linearGradient x1="156" y1="-26.5" x2="208.25" y2="39.75" id="aB" xlink:href="#H" gradientUnits="userSpaceOnUse"/><linearGradient x1="142.75" y1="-169.297" x2="235" y2="-77.297" id="aC" xlink:href="#H" gradientUnits="userSpaceOnUse"/><linearGradient id="I"><stop offset="0" stop-color="#d0e9f2" stop-opacity="0"/><stop offset=".839" stop-color="#d0e9f2" stop-opacity="0"/><stop offset=".943" stop-color="#d0e9f2" stop-opacity=".282"/><stop offset="1" stop-color="#d0e9f2"/></linearGradient><clipPath id="ai"><path d="M123.623 141.062c20.832 20.243 54.607 19.29 75.44-2.132 20.83-21.42 20.83-55.196 0-75.44-20.833-20.242-54.608-19.288-75.44 2.133-20.832 21.42-20.832 55.196 0 75.44z"/></clipPath><filter color-interpolation-filters="sRGB" id="L"><feGaussianBlur stdDeviation="6.311"/></filter><linearGradient id="J"><stop offset="0"/><stop offset="1" stop-opacity="0"/></linearGradient><filter color-interpolation-filters="sRGB" id="N"><feGaussianBlur stdDeviation="4.457"/></filter><linearGradient x1="122" y1="245.448" x2="122" y2="4.302" id="M" xlink:href="#K" gradientUnits="userSpaceOnUse"/><clipPath id="aD"><path d="M9 22.578s7.5 12.393 11.75 26.8C25 63.784 27 74.373 27 74.373s-5.5 13.195-8.25 25.417C16 112.012 13 123.255 13 123.255s5.75 15.535 9.25 29.252c3.5 13.717 3.75 23.947 3.75 23.947s-4 10.574-7.5 24.857l-5 31.155s9.25-2.748 28.5-1.055c19.25 1.693 32.25 3.392 32.25 3.392s12.75-3.78 24-8.19l16.25-7.815s5.5.055 22.5 4.43l29.25 6.134s13-3.8 26-7.852c13-4.05 26.5-10.143 26.5-10.143s-.75-4.94 4.25-24.844c5-19.903 8.75-28.707 8.75-28.707s-.514-4.455-3.75-19.447c-1.75-8.108-2.25-4.068-2.25-4.068s16.264-26.155 16.5-40.334C242.5 78.944 235 57.55 235 57.55s-4.75-14.866-7.5-29.143c-2.75-14.278-8.25-25.083-8.25-25.083S195 14.284 187.5 16.392c-7.5 2.107-21 6.948-21 6.948s-9.75-3.46-22-6.72-29.75-3.095-29.75-3.095-3.25 3.763-22 9.78l-27.5 7.973s-18.5-7.504-31.5-8.952c-13-1.45-24-.06-24.75.252z"/></clipPath></defs><path d="M174.28 69.396c-17.598-1.214-35.19 3.21-48.718 13.54l-.5.362c-22.056 17.204-26.21 45.1-12.47 68.333l-2.28 1.223a68.022 68.022 0 0 0 8.094 10.853l-13.313 10.41c-1.34-.59-2.79-1.07-4.563-1.482l-2.844 2.218c-1.11-.487-2.138-.84-3.063-.954l-64.125 50.017c-.037.932.226 1.873.656 2.83l-.53.415-1.095.853c.714 3.223 2.01 5.93 5.468 9.106 3.458 3.174 6.42 4.373 10.28 5.35l1.095-.852.72-.56c1.087.467 2.13.813 3.093.93l64.125-50.018c-.242-.844-.62-1.686-1.03-2.54l3-2.34c-.25-1.487-.677-2.76-1.313-3.99l13.28-10.36a81.187 81.187 0 0 0 12.126 7.71l1.625-1.826c26.25 13.476 59.444 12.24 81.5-4.962l.47-.392c26.693-21.265 26.548-58.38-.47-83.18-13.59-12.477-31.407-19.466-49.22-20.695zm-.5 2.75l.314.023a78.345 78.345 0 0 1 5.72.712l.28.046.28.046.44.083c.895.155 1.794.318 2.687.504.62.13 1.228.276 1.845.42l1.03.23c.725.18 1.437.374 2.157.573l.938.25.22.068c.955.282 1.896.57 2.843.887l.22.068c.946.32 1.906.663 2.843 1.02l.156.063c.955.365 1.902.75 2.844 1.15l.156.065c.942.405 1.885.84 2.813 1.282l.125.062c.935.448 1.862.9 2.78 1.386l.095.06c.927.49 1.84.987 2.75 1.516l.094.06c.907.53 1.798 1.075 2.687 1.644.55.35 1.084.728 1.625 1.094.365.247.733.486 1.094.74l.063.03c.877.617 1.74 1.275 2.593 1.93a75.432 75.432 0 0 1 5.063 4.25 72.488 72.488 0 0 1 4.563 4.585l.03.03a69.883 69.883 0 0 1 2.063 2.343c.283.34.54.694.813 1.038.37.464.74.932 1.094 1.402l.063.057a64.61 64.61 0 0 1 1.72 2.4l.062.084a61.286 61.286 0 0 1 1.563 2.443l.063.084c.5.816.955 1.63 1.407 2.458l.063.11c.446.82.88 1.647 1.28 2.476l.064.137a56.25 56.25 0 0 1 1.125 2.492l.062.137c.348.83.666 1.646.97 2.48l.062.19c.294.82.56 1.648.813 2.47l.063.19.22.812c.176.623.347 1.24.5 1.865l.187.89c.12.53.242 1.055.344 1.588.148.768.266 1.54.376 2.308l.063.376.03.24.03.242a48.822 48.822 0 0 1 .376 4.88v.266c.015.895.004 1.786-.03 2.678a47.12 47.12 0 0 1-.157 2.35l-.032.316a45.97 45.97 0 0 1-.28 2.315c-.122.803-.275 1.614-.44 2.41l-.03.21-.063.314c-.165.76-.358 1.518-.563 2.27l-.094.337c-.208.74-.44 1.478-.688 2.21-.164.486-.35.966-.53 1.448-.176.467-.34.934-.532 1.396a45.39 45.39 0 0 1-.938 2.11l-.188.386-.125.283a45.514 45.514 0 0 1-2.313 4.11l-.25.382c-.415.648-.83 1.293-1.28 1.928l-.282.405c-.2.274-.42.535-.625.806-.362.477-.742.94-1.125 1.408v.026c-.49.6-1.006 1.194-1.53 1.778-.458.508-.955.997-1.44 1.493l-.562.623-.406.396-.5.47a54.79 54.79 0 0 1-1.72 1.552 57.166 57.166 0 0 1-1.874 1.57l-.47.39c-21.13 16.483-52.258 17.19-77.187 4.147l.125-.152c-3.704-1.866-7.262-4.016-10.625-6.49-.54-.396-1.065-.812-1.594-1.224-.515-.4-1.028-.803-1.532-1.22l-.28-.232a74.374 74.374 0 0 1-2.407-2.13 73.586 73.586 0 0 1-2.312-2.2l-.25-.257a63.17 63.17 0 0 1-1.313-1.39c-.443-.48-.89-.958-1.313-1.445a61.025 61.025 0 0 1-6.78-9.49l-.19.094c-13.338-22.085-9.973-48.28 11.157-64.762l.5-.363c.652-.5 1.328-.986 2-1.455.65-.454 1.3-.897 1.968-1.323l.813-.528c.344-.212.716-.385 1.064-.59.624-.367 1.24-.747 1.875-1.09.737-.4 1.496-.777 2.25-1.146.58-.285 1.158-.568 1.75-.834.446-.2.89-.406 1.343-.597.68-.288 1.37-.55 2.063-.813l.53-.202c.946-.352 1.882-.69 2.845-.998a65.596 65.596 0 0 1 2.595-.776l.47-.1a66.68 66.68 0 0 1 2.905-.728c.56-.124 1.123-.225 1.688-.335.583-.113 1.163-.232 1.75-.33a71.42 71.42 0 0 1 2.656-.4l.22-.01c.415-.054.832-.108 1.25-.154.67-.072 1.355-.15 2.03-.204l.25-.01c.95-.072 1.92-.136 2.875-.172 1.963-.075 3.93-.07 5.905.01 1.052.042 2.103.106 3.156.19z" transform="matrix(.36438 0 0 .36438 .618 0)" opacity=".7" fill="#2d3335" filter="url(#L)"/><path d="M9 42.27s7.5 9.318 11.75 21.81C25 76.575 27 85.68 27 85.68s-5.5 10.798-8.25 20.962S13 127.817 13 127.817s5.75 13.552 9.25 25.41L26 172.073s-4 8.682-7.5 20.54c-3.5 11.858-5 26.045-5 26.045s9.25-1.694 28.5 1.06l32.25 5.08s12.75-2.328 24-5.293C109.5 216.54 114.5 214 114.5 214s5.5.423 22.5 5.294c17 4.87 29.25 7.2 29.25 7.2s13-2.33 26-4.87l26.5-6.777s-.75-4.235 4.25-20.752l8.75-23.716s-.5-2.118-3.75-15.035-10-25.198-10-25.198 1.75-10.588 6.75-21.81C229.75 97.114 235 85.68 235 85.68s-4.75-12.917-7.5-25.198l-8.25-20.116S195 47.99 187.5 49.26c-7.5 1.27-21 4.446-21 4.446s-9.75-3.6-22-7.2-29.75-4.658-29.75-4.658-3.25 2.965-22 6.776l-27.5 4.87s-18.5-7.623-31.5-9.74S9.75 42.06 9 42.272z" transform="matrix(.36438 0 0 .36438 .618 0)" opacity=".5" fill="url(#M)" filter="url(#N)"/><path d="M3.898.82s2.733 4.737 4.28 10.11l2.278 9.293S8.452 24.87 7.45 29.24l-2.095 8.382s2.095 5.83 3.37 10.93l1.367 8.838s-1.457 3.734-2.733 8.836L5.536 77.43s3.37-.728 10.385.456l11.75 2.186s4.647-1.002 8.746-2.277l5.922-2.37s2.004.183 8.198 2.28L61.196 80.8s4.737-1 9.474-2.094l9.656-2.915s-.273-1.82 1.55-8.927l3.187-10.202s-.182-1.64-1.367-7.196l-3.643-10.84s.637-3.826 2.46-8.654l3.734-9.747s-1.73-5.557-2.733-10.84L80.508 0s-8.836 3.28-11.57 3.826L61.29 5.74S57.734 4.19 53.27 2.64L42.43.638s-1.184 1.275-8.016 2.915l-10.02 2.095s-6.74-3.28-11.478-4.19C8.18.548 4.17.728 3.898.82z" fill="#ceeeab"/><path d="M110.75-4.5l-4.25 7c-.75 9-2.25 13.75-8.5 16.5s-12.25 3.5-11 7.5 13 9.25 14.25 13 8.25 1.75 11 7 2 15.25-3.75 17.25-17.5.5-20.25 9.5-4.75 10.5-9 12.75-7.25 10.5-3.5 16.5 12.25-1.25 15-6.5L98 87.25h23.75l59-1.75 3.25-3.75s3.25 4 2.75 8.75-3.75 14.75.25 17.25 19.5-2 24-7-4.75-28.25-10.5-29.5-18.5-1.75-17-7 11.75 4.5 17.25 3.25 16.75-21 12-25.25-24.25-5.25-25.75-8 21-8 22.25-11-2.5-7.25-6.25-8.5S189 31 182 30.5s-20 5.75-17.25 11.5-6 11-14.5 6.5-24.75-13-21.75-24L150 5.75 110.75-4.5zM97.187 102.72c-1.595.145-4.47 4.687-4.938 7.03-.5 2.5-3.25 6.75-3.5 12.25s4.75 6.75 8.75 6.5 2.75-6.75 2-15c-.25 0-.5-10.25-2-10.75-.095-.03-.207-.04-.314-.03zm92.72 51.655c-6.336.295-6.626 7.47-7.407 8.875-1.25 2.25 2.25 13.75 2 18s-4.75 5.25-9.5 9.75.5 16 11.25 31l44.75 1.25-1-35s4.75-4.25-20.75-24.25c-9.563-7.5-15.542-9.802-19.344-9.625zm-149.97 16.53c-4.03-.102-8.28 5.72-9.688 7.595-1.5 2-6.25 5-17 9.5l-14.5 34.25 53 4.25s1.75-11-4.25-15.75S30.25 205 29.25 197.5s9.25-10 13.75-14.25S45 172 40.75 171a4 4 0 0 0-.814-.094z" transform="matrix(.36438 0 0 .36438 .618 0)" clip-path="url(#O)" fill="#a6dd8b"/><path d="M58.383 27.454c-1.734-.005-3.29.353-4.2 1.15-2.916 2.55-12.754.273-17.674 2.55C31.59 33.432 31.68 45 31.134 47.37c-.547 2.368-6.377 7.56-7.288 8.562-.91 1.002-4.828 2.642-7.105 3.097-2.277.455-4.646 2.64-5.648 4.007-.736 1.005-2.698 2.35-3.69 2.995l-.045.194c-.05.195-.09.394-.137.592 1.814-.585 4.073-2.98 6.057-4.965 2.278-2.277 7.288-2.824 10.112-4.19 2.824-1.367 5.192-7.197 9.656-8.654 4.464-1.46 7.743 4.28 8.836 6.74s.638 4.646 1.366 6.194c.73 1.55 4.01 4.282 4.19 4.92.183.637-1.82 2.368-2.277 3.097-.455.73-3.825 2.55-4.28 3.19-.353.49-.702 2.467-.844 3.358l.41-.17c.176-.922.55-2.58 1.07-3.098.728-.73 4.1-1.64 4.554-3.097l2.55-2.37s1.003 1.46 5.83 5.103c3.22 2.43 4.65 5.66 5.25 7.55l.74.193c-.445-1.575-1.762-5.92-3.256-7.562-1.822-2.004-6.74-3.917-8.29-8.017-1.55-4.098-8.927-12.478-6.377-14.665 2.552-2.186 6.014-1.457 10.386 2.733 4.373 4.19 16.853 2.095 21.043 1.366 3.626-.63 7.59 5.424 8.71 9.486.214-.764.41-1.46.603-2.096a11.255 11.255 0 0 1-1.936-3.017c-1.366-3.097-4.372-4.828-4.372-4.828s3.188-1.823 5.374-2.825c.588-.27 1.095-.61 1.525-.968l-.16-.763-.034-.16c-1.735 2.027-7.006 3.504-7.89 3.986-1.002.547-6.65 1.093-13.026 1.64-6.377.547-9.747-2.733-12.48-5.375-2.733-2.64-4.737-13.117-1.093-13.846 3.645-.73 7.288 5.01 10.932 6.193 3.644 1.185 7.834-5.74 7.197-9.838-.44-2.818-5.1-4.6-8.917-4.61zm-19.437 4.84c.465 0 2.135.58 2.392.864.82.91.728 2.642 0 2.915-.73.274-4.646 2.915-3.826 5.193.82 2.277.637 6.56-1.276 6.56s-2.915 0-3.644-.912c-.728-.91-.728-4.373 0-7.197.73-2.824 1.276-5.465 2.915-6.65 1.128-.814 2.417-.775 3.44-.774zM43.9 58.926c.073.005.694 1.28 1.72 2.562 1.092 1.365 1.183 3.005 1.183 3.005s-1.548-1.73-2.186-2.915l-.73-2.642.012-.01z" fill="#aac3e7"/><path d="M45.346 22.683c2.277.182 4.463-.82 3.917-2.37-.547-1.548-4.555-2.64-4.828-1.092-.274 1.55.728 3.827.91 3.463zm-5.102-5.648c-3.097-2.004-3.097-2.642-2.55-2.915.546-.274 3.735 1.822 4.646 2.915.91 1.093-.82.728-2.096 0z" opacity=".387" fill="none" stroke="#6d7f42" stroke-width=".364" stroke-linecap="round" stroke-linejoin="round"/><path d="M15.75 141.25c33-2.5 38.25-3.5 36.25-10.25s-8.75-23.5-23-22.5l-22.75-6.75m11.25 65.5c18.25-10 28.75-8.5 35-11.5s13.25-5.75 15.75-9.5 5.75-11.5 5.75-18-3.5-36 3.25-43.5 17.25-26 26-23.25 12.25 9.75 22 9.5S147 67 149.5 58.75s-15.75-16-16-23 5.5-14.25 20.25-17l23.5-11.5M14.5 151c15.25-1.5 22.25 3.5 31.5 1.75s13.25-3 17.75-5.75 6-3.75 6.25-6.5 1-12.5-3-22S54.5 87 58.75 79.75 64 58.25 74.5 55.25 95.5 49 102.25 54s12.75 14.25 20 14.5S134 67 136.75 64s4.5-10.25 1.75-13.75-15.5-5.5-17.25-9.5-10.75-17-.25-26.75l36.25-8.25M21.25 149c13.75 1 21.5 4.25 33.5-.5s13.5-5.25 13.75-8.75-.25-15.75-3-20S52.5 106 49.75 95.5s.25-41 8.5-48.25 32-7.25 37.5-10.5 5.25-16.75 13-24.5l27-12.25M190 8.5c11.75 5 39 9.75 47.25 40.25M9.75 204c19-12.5 36-1.25 49-4s38.25-37.25 46-37 5.5-11.75 8.5-13.25 5.5 6 11.75 8 24.5-2.75 23.5-5.75-7-7.75-5.5-8.5 8.5 5 12.75 3.5 43.75-1 48.5-13.5l21.5-13.5M77.5 223.5c13.5-11.5 23.25-25 28.5-27s12.75-3.75 15.75-8 2.5-10.75 5.25-12 3.75 5.75 8.75 6 36.75-5 42.75-11.75 32.25-12.5 32.5-14.5-1-4.75.25-5.5l24.75-6M168.75 226c9-13.75 20.5-41 29.5-42s10.25-2.5 12.5-4.25l17 2.25" transform="matrix(.36438 0 0 .36438 .618 0)" clip-path="url(#P)" opacity=".387" fill="none" stroke="#6d7f42"/><path d="M57.75 10l-8.5 28.25 18 6.25L75 80.75 54 103l9 10.5L51 125l.5 4.5L71.75 154l14-6.75 20.5 18.5L95.75 194l10.25 8.5-2.75 13m2.5-13.25l12.5-27.75 11-7 27.5 15.75 20.5-3.75-.25-15.75-10.25-6 12.75-26.25 5.75-3.75 38.75-10" transform="matrix(.36438 0 0 .36438 .618 0)" clip-path="url(#Q)" fill="none" stroke="#d38484" stroke-width="2" stroke-linecap="round"/><path d="M3.898.82s2.733 4.737 4.28 10.11l2.278 9.293S8.452 24.87 7.45 29.24l-2.095 8.382s2.095 5.83 3.37 10.93l1.367 8.838s-1.457 3.734-2.733 8.836L5.536 77.43s3.37-.728 10.385.456l11.75 2.186s4.647-1.002 8.746-2.277l5.922-2.37s2.004.183 8.198 2.28L61.196 80.8s4.737-1 9.474-2.094l9.656-2.915s-.273-1.82 1.55-8.927l3.187-10.202s-.182-1.64-1.367-7.196l-3.643-10.84s.637-3.826 2.46-8.654l3.734-9.747s-1.73-5.557-2.733-10.84L80.508 0s-8.836 3.28-11.57 3.826L61.29 5.74S57.734 4.19 53.27 2.64L42.43.638s-1.184 1.275-8.016 2.915l-10.02 2.095s-6.74-3.28-11.478-4.19C8.18.548 4.17.728 3.898.82z" opacity=".039" fill="url(#R)"/><g opacity=".27"><path d="M219.25 0S195 9 187.5 10.5l-21 5.25c4.924-1.358 11.437 45.392 14.25 52.25l-.063.28c11.808-4.073 51.21-4.767 54.313-12.78 0 0-4.75-15.25-7.5-29.75L219.25 0z" fill="url(#S)" transform="translate(.618) scale(.36438)"/><path d="M27 55.5s-5.5 12.75-8.25 24.75l-5.75 23 50.625 16.28 15.78-58.905L27 55.5z" fill="url(#T)" transform="translate(.618) scale(.36438)"/><path d="M26 157.5s-4 10.25-7.5 24.25l-5 30.75s.147-.045.438-.094c2.034-.338 11.22-1.5 28.063 1.344 19.25 3.25 32.25 6 32.25 6l1.47-52.5-.75.125L26 157.5z" fill="url(#U)" transform="translate(.618) scale(.36438)"/><path d="M114.75 1.75s-3.25 3.5-22 8l-27.5 5.75c5.182 14.704 12.03 29.27 14.25 44.75l-.094.313 48.03-3.938 1.126.25C125.2 43.552 120.766 2.283 114.75 1.75z" fill="url(#V)" transform="translate(.618) scale(.36438)"/><path d="M117.594 103.906l-53.625 15.72-.345-.095-.125.47 12.25 46.5-.03.75 49.468-8.875.53.188.032-.063-8.25-54.25.094-.344z" fill="url(#W)" transform="translate(.618) scale(.36438)"/><path d="M128.563 56.875c.234.928.464 1.742.688 2.375l-11.655 44.656.094-.03L169.5 121.25l11.188-52.97c-.357.124-.695.246-1 .376l-51.125-11.78z" fill="url(#X)" transform="translate(.618) scale(.36438)"/><path d="M125.53 158.5L114.5 207s5.5.5 22.5 6.25c2.125.72 4.163 1.406 6.125 2.03 1.962.626 3.855 1.187 5.625 1.72 10.617 3.2 17.5 4.75 17.5 4.75l12.72-45.406-1.532.563-51.906-18.406z" fill="url(#Y)" transform="translate(.618) scale(.36438)"/><path d="M218 106c-15.666 6.288-31.698 11.15-48.063 15.406l-.438-.156 9.5 55-.032.094c17.84-6.36 35.38-13.387 52.78-20.844 0 0-.5-4.5-3.75-19.75L218 106z" fill="url(#Z)" transform="translate(.618) scale(.36438)"/></g><g opacity=".043"><path d="M13.72 2.03a57.72 57.72 0 0 0-2.72.064c-.445.018-.855.04-1.156.063H9.75c-.398.033-.656.063-.75.094 0 0 7.5 13 11.75 27.75L27 55.5l51.47 5.126.937-.063.094-.313c-2.22-15.48-9.067-30.046-14.25-44.75 0 0-18.5-9-31.5-11.5-1.017-.196-2.01-.37-3-.53-.595-.098-1.166-.197-1.75-.282l-.687-.094c-1.306-.182-2.588-.34-3.813-.47-.735-.076-1.395-.127-2.094-.187a111.77 111.77 0 0 0-4.78-.312 96.923 96.923 0 0 0-3.907-.094z" fill="url(#aa)" transform="translate(.618) scale(.36438)"/><path d="M13 103.25s5.75 16 9.25 30L26 157.5l48.97 9.875.75-.125.03-.75L63.5 120l.125-.47L13 103.25z" fill="url(#ab)" transform="translate(.618) scale(.36438)"/><path d="M127.438 56.625l-47.97 4h-.062l-15.78 58.906.343.095 53.624-15.72L129.25 59.25c-.224-.633-.453-1.447-.688-2.375l-1.125-.25z" fill="url(#ac)" transform="translate(.618) scale(.36438)"/><path d="M125.188 158.375l-49.47 8.875-1.468 52.5s12.75-2.75 24-6.25l16.25-6.5 11.22-48.438-.532-.188z" fill="url(#ad)" transform="translate(.618) scale(.36438)"/><path d="M114.75 1.75c6.016.533 10.45 41.802 13.813 55.125l51.125 11.78c.305-.13.643-.25 1-.374l.063-.28c-2.812-6.858-9.325-53.608-14.25-52.25l-1.718-.72a349.596 349.596 0 0 0-20.28-7.78c-12.25-4.25-29.75-5.5-29.75-5.5z" fill="url(#ae)" transform="translate(.618) scale(.36438)"/><path d="M117.688 103.875l-.094.03-.094.345 8.25 53.25-.22 1 51.907 18.406 1.53-.562.032-.094-9.5-55-51.814-17.375z" fill="url(#af)" transform="translate(.618) scale(.36438)"/><path d="M231.75 155.5c-17.4 7.457-34.942 14.484-52.78 20.844l-12.72 45.406s13-2.75 26-5.75l26.5-8s-.75-5 4.25-24.5l8.75-28z" fill="url(#ag)" transform="translate(.618) scale(.36438)"/><path d="M235 55.5c-3.102 8.014-42.505 8.707-54.313 12.78L169.5 121.25l.437.156C186.302 117.15 202.334 112.288 218 106c0 0 1.75-10.5 6.75-23.75L235 55.5z" fill="url(#ah)" transform="translate(.618) scale(.36438)"/></g><g transform="matrix(.36438 0 0 .36438 .618 0)" clip-path="url(#ai)"><path d="M-16.537-32.682S-7.143-16.134-1.82 2.492c5.323 18.625 7.828 32.16 7.828 32.16S-.882 50.43-4.325 65.363c-3.444 14.932-7.202 28.604-7.202 28.604S-4.325 114.21.06 131.87c4.383 17.66 4.696 30.507 4.696 30.507s-5.01 12.697-9.394 30.11c-4.384 17.41-6.263 38.338-6.263 38.338s11.585-2.178 35.696 2.575c24.11 4.752 40.394 8.657 40.394 8.657s15.97-2.993 30.06-6.98l20.355-7.565s6.89.82 28.182 8.625l36.637 11.682s16.283-2.985 32.566-6.283c16.283-3.297 33.192-9.082 33.192-9.082s-.94-6.29 5.323-30.537 10.96-34.76 10.96-34.76-.626-5.655-4.697-24.87l-12.525-37.618s2.192-13.09 8.455-29.51l12.84-33.142s-5.95-19.27-9.395-37.528L246.81-28.055s-30.374 10.414-39.768 12.028c-9.394 1.613-26.303 5.832-26.303 5.832s-12.213-5.668-27.557-11.425c-15.344-5.757-37.263-7.942-37.263-7.942s-4.07 4.27-27.556 9.242C64.88-15.347 53.92-14.09 53.92-14.09S30.746-26.02 14.463-29.61c-16.283-3.592-30.06-3.355-31-3.068z" fill="#ceeeab"/><path d="M110.91-37.535l-5.324 8.617c-.94 11.246-2.818 17.143-10.647 20.366C87.11-5.33 79.594-4.602 81.16.453 82.728 5.507 97.445 12.5 99.01 17.24c1.566 4.74 10.333 2.484 13.778 9.157 3.444 6.673 2.505 19.172-4.697 21.474-7.2 2.303-21.918.008-25.363 11.183-3.444 11.175-5.95 12.983-11.273 15.65-5.323 2.67-9.08 12.896-4.384 20.544 4.697 7.648 15.344-1.132 18.788-7.61 3.444-6.48 9.08-10.704 9.08-10.704l29.75.84 73.9-.102 4.07-4.58s4.07 5.124 3.444 11.056c-.626 5.932-4.697 18.342.313 21.615 5.01 3.274 24.424-1.814 30.06-7.917 5.637-6.103-5.95-35.552-13.15-37.322-7.203-1.768-23.173-2.846-21.294-9.37 1.88-6.522 14.718 6.053 21.607 4.682 6.89-1.37 20.98-25.71 15.03-31.202-5.95-5.49-30.374-7.434-32.253-10.932-1.88-3.498 26.303-9.277 27.87-12.99 1.565-3.713-3.132-9.17-7.83-10.868-4.696-1.698-17.535 19.858-26.302 18.984-8.768-.874-25.05 6.494-21.606 13.794 3.444 7.3-7.515 13.566-18.162 7.628-10.647-5.937-31-17.16-27.243-30.83 3.76-13.673 26.93-22.725 26.93-22.725l-49.16-14.227zM93.92 96.28c-1.997.127-5.596 5.713-6.183 8.632-.626 3.114-4.07 8.34-4.384 15.22-.313 6.88 5.95 8.623 10.96 8.45 5.01-.17 3.444-8.356 2.505-18.716-.313-.01-.626-12.856-2.505-13.536a.994.994 0 0 0-.39-.05zm116.135 67.983c-7.935.146-8.298 9.12-9.277 10.854-1.566 2.774 2.818 17.302 2.505 22.616-.313 5.314-5.95 6.408-11.9 11.876-5.95 5.467.627 20.057 14.092 39.226l56.05 3.15-1.252-43.874s5.95-5.155-25.99-31.11c-11.977-9.732-19.468-12.827-24.23-12.74zM22.215 179.66c-5.048-.27-10.374 6.87-12.135 9.17-1.88 2.45-7.828 6.04-21.293 11.296l-18.162 42.386 66.384 7.2s2.19-13.717-5.324-19.88c-7.515-6.16-21.606-7.812-22.86-17.24-1.252-9.43 11.587-12.2 17.223-17.363 5.635-5.165 2.504-14.02-2.82-15.424a5.06 5.06 0 0 0-1.017-.146z" clip-path="url(#aj)" fill="#a6dd8b"/><path d="M170.757 64.164c-5.962-.186-11.312.894-14.443 3.545-10.02 8.484-43.84-.3-60.748 7.05-16.91 7.35-16.596 47.127-18.475 55.216-1.878 8.088-21.918 25.37-25.05 28.727-3.13 3.356-16.596 8.612-24.424 9.956-7.828 1.343-15.97 8.63-19.414 13.228-2.532 3.38-9.276 7.817-12.682 9.936l-.157.66c-.167.666-.31 1.35-.47 2.023 6.237-1.834 14.003-9.85 20.823-16.477 7.828-7.607 25.05-9 34.758-13.422 9.707-4.423 17.85-24.233 33.192-28.81 15.344-4.577 26.616 15.47 30.374 24.03 3.758 8.56 2.192 16.032 4.697 21.426 2.505 5.394 13.778 15.107 14.404 17.316.627 2.21-6.262 7.964-7.827 10.425-1.566 2.46-13.152 8.396-14.717 10.544-1.21 1.658-2.41 8.415-2.896 11.464a95.19 95.19 0 0 0 1.41-.547c.605-3.15 1.897-8.812 3.678-10.543 2.505-2.434 14.09-5.238 15.657-10.204 1.566-4.966 8.768-7.894 8.768-7.894s3.444 5.107 20.04 18.102c11.065 8.663 15.98 19.908 18.045 26.46.844.24 1.92.568 2.544.738-1.53-5.453-6.058-20.51-11.195-26.307-6.263-7.067-23.172-14.12-28.495-28.362-5.323-14.24-30.687-43.767-21.92-51.034 8.77-7.267 20.668-4.426 35.698 10.403 15.03 14.83 57.93 8.84 72.334 6.74 12.468-1.815 26.096 19.38 29.943 33.452.738-2.605 1.41-4.974 2.075-7.144-2.177-2.474-4.63-5.918-6.654-10.56-4.697-10.78-15.03-17.022-15.03-17.022s10.96-5.953 18.475-9.185a22.828 22.828 0 0 0 5.245-3.18c-.203-.975-.324-1.582-.548-2.638l-.117-.55c-5.97 6.797-24.09 11.362-27.125 12.932-3.444 1.78-22.86 3.112-44.778 4.37-21.92 1.26-33.505-10.34-42.9-19.686-9.393-9.346-16.282-45.55-3.757-47.703 12.525-2.15 25.05 17.93 37.576 22.355 12.524 4.425 26.93-18.966 24.737-33.12-1.507-9.73-17.532-16.307-30.648-16.718zM103.942 78.91c1.597.048 7.34 2.205 8.22 3.208 2.818 3.21 2.505 9.152 0 10.02-2.505.87-15.97 9.57-13.152 17.477 2.818 7.908 2.192 22.608-4.384 22.422-6.576-.186-10.02-.283-12.525-3.485-2.504-3.202-2.504-15.1 0-24.738 2.506-9.636 4.385-18.664 10.02-22.576 3.876-2.69 8.308-2.43 11.822-2.328zm17.027 92.035c.254.024 2.387 4.47 5.91 8.974 3.757 4.802 4.07 10.447 4.07 10.447s-5.323-6.1-7.515-10.233c-2.192-4.133-2.505-9.152-2.505-9.152l.04-.038z" fill="#aac3e7"/><path d="M125.94 46.497c7.827.848 15.343-2.385 13.464-7.76-1.88-5.377-15.657-9.524-16.596-4.228-.94 5.296 2.505 13.22 3.13 11.987zm-17.536-19.91c-10.647-7.19-10.647-9.382-8.768-10.268 1.88-.887 12.84 6.625 15.97 10.47 3.13 3.847-2.818 2.426-7.202-.203z" opacity=".387" fill="none" stroke="#6d7f42" stroke-width="1.253" stroke-linecap="round" stroke-linejoin="round"/><path d="M-8.082 141.66c41.334-1.963 47.91-3.03 45.404-11.555-2.505-8.525-10.96-29.744-28.808-28.996-17.85.747-28.495-9.26-28.495-9.26m14.09 82.438c22.86-11.88 36.01-9.63 43.84-13.165 7.827-3.536 16.595-6.733 19.726-11.342 3.13-4.608 7.202-14.2 7.202-22.34 0-8.142-4.384-45.216 4.07-54.37 8.456-9.156 21.607-31.956 32.567-28.202 10.96 3.754 15.344 12.646 27.556 12.678 12.213.032 27.244-4.24 30.375-14.485 3.13-10.244-19.727-20.597-20.04-29.374-.314-8.777 6.888-17.654 25.363-20.576 18.475-2.922 29.435-13.572 29.435-13.572m-9.648 153.828c19.1-1.34 27.87 5.17 39.455 3.307 11.586-1.865 16.596-3.29 22.233-6.574 5.636-3.286 7.515-4.486 7.828-7.92.314-3.437 1.254-15.622-3.757-27.663C41.453 256.767 30.805 228.91 36.13 219.98c5.322-8.93 6.575-26.745 19.726-30.13 13.152-3.387 26.303-7.086 34.758-.584 8.455 6.502 15.97 18.3 25.05 18.87 9.082.57 14.718-1.463 18.163-5.123 3.444-3.66 5.636-12.68 2.192-17.16-3.445-4.48-19.415-7.438-21.607-12.51s-13.465-21.674-.313-33.514c13.152-11.842 45.404-9.05 45.404-9.05m-1.193 151.56c17.223 1.74 26.93 6.085 41.96.56 15.03-5.524 16.91-6.097 17.223-10.472.313-4.375-.313-19.736-3.758-25.157C39.945 416.46 27.107 404.2 23.663 390.95c-3.444-13.25.313-51.345 10.647-60.134 10.333-8.79 40.08-7.948 46.97-11.824 6.89-3.876 6.576-20.794 16.283-30.227l33.818-14.388m67.95 12.567c14.718 6.68 48.85 13.593 59.183 52.087m-15.597 220.045c23.798-14.984 45.09-.29 61.374-3.276 16.283-2.985 47.91-45.304 57.617-44.717 9.707.587 6.89-14.523 10.647-16.295 3.758-1.773 6.89 7.71 14.717 10.436 7.83 2.726 30.688-2.577 29.436-6.37-1.253-3.793-8.768-9.955-6.89-10.84 1.88-.887 10.648 6.563 15.97 4.834 5.324-1.728 54.8.296 60.75-15.192 5.95-15.49 26.93-16.148 26.93-16.148m-185.69 124.39c16.908-13.926 29.12-30.49 35.696-32.81 6.576-2.32 15.97-4.246 19.727-9.463 3.757-5.217 3.13-13.376 6.575-14.845 3.444-1.468 4.697 7.335 10.96 7.825 6.263.49 46.03-4.962 53.546-13.204 7.516-8.24 40.395-14.514 40.708-17.01.313-2.496-1.253-5.985.313-6.88 1.567-.895 31-6.64 31-6.64m-84.23 99.39c11.272-16.905 25.676-50.63 36.95-51.563 11.272-.934 12.838-2.77 15.656-4.88 2.818-2.113 21.293 3.42 21.293 3.42" clip-path="url(#ak)" opacity=".387" fill="none" stroke="#6d7f42"/><path d="M44.525-21.25L33.878 13.835 56.424 22.3l9.707 45.68L39.83 95.104l11.273 13.47-15.03 13.98.627 5.653 25.364 31.404 17.537-7.96 25.677 23.9-13.152 35.01 12.84 11.01-3.445 16.186m3.13-16.508l15.656-34.315 13.778-8.378 34.446 20.7 25.677-3.97-.313-19.736-12.84-7.877 15.97-32.428 7.203-4.493 48.536-11.154" clip-path="url(#al)" fill="none" stroke="#d38484" stroke-width="2" stroke-linecap="round"/><path d="M-16.537-32.682S-7.143-16.134-1.82 2.492c5.323 18.625 7.828 32.16 7.828 32.16S-.882 50.43-4.325 65.363c-3.444 14.932-7.202 28.604-7.202 28.604S-4.325 114.21.06 131.87c4.383 17.66 4.696 30.507 4.696 30.507s-5.01 12.697-9.394 30.11c-4.384 17.41-6.263 38.338-6.263 38.338s11.585-2.178 35.696 2.575c24.11 4.752 40.394 8.657 40.394 8.657s15.97-2.993 30.06-6.98l20.355-7.565s6.89.82 28.182 8.625l36.637 11.682s16.283-2.985 32.566-6.283c16.283-3.297 33.192-9.082 33.192-9.082s-.94-6.29 5.323-30.537 10.96-34.76 10.96-34.76-.626-5.655-4.697-24.87l-12.525-37.618s2.192-13.09 8.455-29.51l12.84-33.142s-5.95-19.27-9.395-37.528L246.81-28.055s-30.374 10.414-39.768 12.028c-9.394 1.613-26.303 5.832-26.303 5.832s-12.213-5.668-27.557-11.425c-15.344-5.757-37.263-7.942-37.263-7.942s-4.07 4.27-27.556 9.242C64.88-15.347 53.92-14.09 53.92-14.09S30.746-26.02 14.463-29.61c-16.283-3.592-30.06-3.355-31-3.068z" opacity=".039" fill="url(#am)"/><g opacity=".27"><path d="M246.91-28.23S216.527-17.8 207.13-16.183c-9.397 1.617-26.313 5.843-26.313 5.843 6.17-1.53 14.33 57.276 17.855 65.967l-.078.35c14.795-4.69 64.167-4.182 68.054-14.114 0 0-5.952-19.274-9.397-37.54-3.447-18.264-10.338-32.552-10.338-32.552z" fill="url(#an)"/><path d="M6.022 34.584S-.868 50.367-4.315 65.307c-3.446 14.94-7.205 28.618-7.205 28.618l63.433 22.172L71.687 42.84 6.022 34.584z" fill="url(#ao)"/><path d="M4.77 162.355s-5.013 12.703-9.398 30.123-6.265 38.355-6.265 38.355.184-.052.548-.102c2.548-.352 14.057-1.486 35.162 2.667 24.12 4.746 40.41 8.647 40.41 8.647l1.84-65.73-.94.13-61.36-14.088z" fill="url(#ap)"/><path d="M115.973-29.694s-4.072 4.272-27.566 9.254c-23.494 4.982-34.457 6.242-34.457 6.242 6.493 18.605 15.073 37.096 17.855 56.57l-.117.388 60.183-3.253 1.41.353c-4.212-16.81-9.767-68.676-17.306-69.555z" fill="url(#aq)"/><path d="M119.536 98.407l-67.192 17.82-.43-.13-.158.583 15.35 58.693-.04.94 61.984-9.39.666.254.04-.077-10.338-68.264.117-.427z" fill="url(#ar)"/><path d="M133.28 39.86c.293 1.172.58 2.2.86 3l-14.604 55.547.117-.036 64.92 23.585 14.02-65.978c-.448.142-.872.283-1.254.435l-64.06-16.55z" fill="url(#as)"/><path d="M129.482 167.09l-13.822 60.385s6.89.82 28.192 8.62c2.663.974 5.216 1.906 7.675 2.76 2.458.85 4.83 1.62 7.048 2.35 13.303 4.38 21.927 6.563 21.927 6.563l15.937-56.45-1.92.652-65.04-24.88z" fill="url(#at)"/><path d="M245.345 104.545c-19.63 7.33-39.717 12.86-60.222 17.622l-.548-.21 11.903 69.246-.04.116c22.353-7.346 44.334-15.536 66.136-24.27 0 0-.626-5.657-4.7-24.88-4.07-19.22-12.53-37.626-12.53-37.626z" fill="url(#au)"/></g><g opacity=".043"><path d="M-10.62-32.878a74.04 74.04 0 0 0-3.406-.017c-.558.007-1.072.02-1.45.038l-.116-.003c-.5.027-.822.055-.94.09 0 0 9.397 16.552 14.723 35.183 5.326 18.63 7.832 32.17 7.832 32.17l64.49 8.223 1.175-.045.117-.387C69.022 22.9 60.442 4.407 53.95-14.197c0 0-23.18-11.925-39.47-15.512-1.276-.28-2.52-.534-3.76-.77-.745-.142-1.46-.287-2.192-.414l-.86-.14a144.454 144.454 0 0 0-4.778-.722c-.92-.122-1.747-.21-2.623-.308a141.79 141.79 0 0 0-5.99-.56c-1.826-.13-3.47-.21-4.896-.253z" fill="url(#av)"/><path d="M-11.52 93.924s7.205 20.25 11.59 37.914 4.7 30.516 4.7 30.516l61.357 14.087.94-.13.04-.938-15.35-58.693.157-.584-63.433-22.172z" fill="url(#aw)"/><path d="M131.87 39.508L71.765 42.84h-.078l-19.774 73.256.43.13 67.193-17.82L134.14 42.86c-.28-.8-.567-1.83-.86-3l-1.41-.353z" fill="url(#ax)"/><path d="M129.05 166.922l-61.983 9.39-1.84 65.73s15.976-3 30.072-6.99c14.095-3.993 20.36-7.577 20.36-7.577l14.057-60.3-.666-.254z" fill="url(#ay)"/><path d="M115.973-29.694c7.54.88 13.094 52.744 17.307 69.555l64.06 16.552c.382-.152.806-.293 1.253-.435l.078-.35c-3.524-8.69-11.685-67.498-17.854-65.968 0 0-.768-.34-2.154-.962a452.216 452.216 0 0 0-25.412-10.46c-15.35-5.754-37.277-7.933-37.277-7.933z" fill="url(#az)"/><path d="M119.653 98.37l-.117.037-.117.427 10.336 67.01-.274 1.246 65.04 24.88 1.918-.65.04-.117-11.904-69.247-64.92-23.584z" fill="url(#aA)"/><path d="M262.574 167.05c-21.802 8.735-43.783 16.925-66.135 24.27L180.5 247.77s16.29-2.992 32.578-6.296l33.204-9.096s-.94-6.29 5.325-30.55c6.264-24.258 10.963-34.778 10.963-34.778z" fill="url(#aB)"/><path d="M266.646 41.864c-3.887 9.932-53.258 9.423-68.054 14.114l-14.018 65.978.548.21c20.505-4.76 40.593-10.29 60.222-17.62 0 0 2.193-13.096 8.458-29.524 6.265-16.427 12.843-33.16 12.843-33.16z" fill="url(#aC)"/></g></g><path d="M174.28 28.914c-17.598-1.423-35.19 3.793-48.718 15.966l-.5.428c-22.056 20.272-26.21 53.132-12.47 80.492l-2.28 1.44a80.545 80.545 0 0 0 8.094 12.78l-13.313 12.267c-1.34-.694-2.79-1.26-4.563-1.744l-2.844 2.614c-1.11-.574-2.138-.99-3.063-1.123l-64.125 58.94c-.037 1.097.226 2.205.656 3.333l-.53.488-1.095 1.005c.714 3.796 2.01 6.986 5.468 10.724 3.458 3.738 6.42 5.15 10.28 6.3l1.095-1.005.72-.662c1.087.55 2.13.958 3.093 1.094l64.125-58.94c-.242-.993-.62-1.985-1.03-2.99l3-2.756c-.25-1.752-.677-3.253-1.313-4.7l13.28-12.207a80.698 80.698 0 0 0 12.126 9.073l1.625-2.15c26.25 15.863 59.444 14.395 81.5-5.877l.47-.462c26.693-25.058 26.548-68.773-.47-97.975-13.59-14.69-31.407-22.916-49.22-24.357zm-.5 3.24l.314.026a67.31 67.31 0 0 1 5.72.838l.28.054.28.054.44.098c.895.182 1.794.373 2.687.592.62.152 1.228.323 1.845.493l1.03.27c.725.21 1.437.44 2.157.674l.938.295.22.08c.955.33 1.896.67 2.843 1.04l.22.08c.946.377 1.906.78 2.843 1.2l.156.075c.955.43 1.902.88 2.844 1.355l.156.075c.942.476 1.885.99 2.813 1.51l.125.072a75.25 75.25 0 0 1 2.78 1.63l.095.07c.927.58 1.84 1.163 2.75 1.786l.094.07c.907.624 1.798 1.267 2.687 1.936.55.412 1.084.856 1.625 1.287.365.29.733.572 1.094.87l.063.036c.877.726 1.74 1.5 2.593 2.272a79.793 79.793 0 0 1 5.063 5.003 80.1 80.1 0 0 1 4.563 5.4l.03.034c.703.91 1.407 1.83 2.063 2.76.283.403.54.818.813 1.223.37.547.74 1.098 1.094 1.65l.063.07a75.813 75.813 0 0 1 1.72 2.826l.062.1a75.832 75.832 0 0 1 1.563 2.876l.063.1c.5.96.955 1.92 1.407 2.894l.063.13c.446.966.88 1.94 1.28 2.916l.064.16c.395.97.775 1.96 1.125 2.936l.062.16c.348.977.666 1.94.97 2.923l.062.224c.294.964.56 1.938.813 2.908l.063.224.22.955c.176.734.347 1.46.5 2.197l.187 1.046c.12.627.242 1.244.344 1.872.148.904.266 1.813.376 2.718l.063.443.03.284.03.284a67.408 67.408 0 0 1 .376 5.75v.313a66.272 66.272 0 0 1-.03 3.154 65.38 65.38 0 0 1-.157 2.77l-.032.37a63.41 63.41 0 0 1-.28 2.728 62.75 62.75 0 0 1-.44 2.84l-.03.247-.063.37a60.68 60.68 0 0 1-.563 2.673l-.094.4c-.208.87-.44 1.738-.688 2.6-.164.573-.35 1.14-.53 1.707-.176.55-.34 1.1-.532 1.645-.295.84-.605 1.66-.938 2.487l-.188.454-.125.334a57.116 57.116 0 0 1-2.313 4.844l-.25.45c-.415.763-.83 1.523-1.28 2.27l-.282.477c-.2.323-.42.63-.625.95-.362.56-.742 1.107-1.125 1.658v.032a58.957 58.957 0 0 1-1.53 2.095c-.458.6-.955 1.174-1.44 1.76l-.562.735-.406.467-.5.552a60.183 60.183 0 0 1-1.72 1.83 59.514 59.514 0 0 1-1.874 1.848l-.47.462c-21.13 19.42-52.258 20.268-77.187 4.914l.125-.177a73.224 73.224 0 0 1-10.625-7.642c-.54-.467-1.065-.956-1.594-1.44a76.336 76.336 0 0 1-1.532-1.437l-.28-.272a79.44 79.44 0 0 1-2.407-2.507 81.087 81.087 0 0 1-2.312-2.592l-.25-.3c-.45-.54-.882-1.09-1.313-1.638-.443-.564-.89-1.127-1.313-1.7a72.94 72.94 0 0 1-6.78-11.173l-.19.11c-13.338-26.008-9.973-56.864 11.157-76.285l.5-.428a60.37 60.37 0 0 1 2-1.713 60.076 60.076 0 0 1 1.968-1.56l.813-.62c.344-.25.716-.455 1.064-.696.624-.433 1.24-.88 1.875-1.286.737-.47 1.496-.915 2.25-1.35.58-.335 1.158-.67 1.75-.982.446-.237.89-.48 1.343-.704.68-.34 1.37-.647 2.063-.958l.53-.238c.946-.415 1.882-.814 2.845-1.176.867-.327 1.716-.63 2.595-.915l.47-.118a59.29 59.29 0 0 1 2.905-.86c.56-.145 1.123-.264 1.688-.394.583-.134 1.163-.273 1.75-.39.88-.175 1.768-.337 2.656-.473l.22-.014c.415-.062.832-.127 1.25-.18.67-.086 1.355-.178 2.03-.242l.25-.01c.95-.088 1.92-.163 2.875-.206 1.963-.09 3.93-.084 5.905.01a64.43 64.43 0 0 1 3.156.223z" transform="matrix(.36438 0 0 .36438 .618 0)" clip-path="url(#aD)" fill="#2d3335" filter="url(#aE)"/><path d="M18.112 82.88l-1.752 1.66c-1.824-1.936-3.73-3.9-5.494-5.877l1.636-1.484c2.488 2.38 3.233 3.107 5.61 5.7z" fill="url(#aF)"/><path d="M46.19 49.077c-9.905-9.904-9.905-25.96 0-35.865 9.903-9.904 25.96-9.904 35.863 0 9.904 9.904 9.904 25.96 0 35.865-9.903 9.903-25.96 9.903-35.864 0zM47.264 48c9.508 9.508 24.564 9.867 34.07.36 9.51-9.51 9.15-24.565-.357-34.072-9.508-9.508-24.564-9.867-34.072-.36-9.507 9.51-9.15 24.565.36 34.073z" fill="#2d3335"/><path d="M46.19 49.077c-9.905-9.904-9.905-25.96 0-35.865l.178-.18c-9.723 9.918-9.664 25.843.18 35.686 9.843 9.843 25.767 9.903 35.685.18l-.18.18c-9.903 9.902-25.96 9.902-35.864 0zm.896-35.327l.18-.18c9.507-9.507 24.563-9.148 34.07.36 9.508 9.507 9.867 24.563.36 34.07l-.18.18c9.323-9.517 8.91-24.445-.538-33.892-9.448-9.448-24.376-9.862-33.892-.538z" fill="#9eaaac"/><path d="M46.906 48.36c9.508 9.507 24.923 9.507 34.43 0 9.508-9.51 9.508-24.923 0-34.43-9.507-9.51-24.922-9.51-34.43 0-9.507 9.507-9.507 24.92 0 34.43z" fill="#d0e9f2" fill-opacity=".476"/><path d="M46.906 48.36c9.508 9.507 24.923 9.507 34.43 0 9.508-9.51 9.508-24.923 0-34.43-9.507-9.51-24.922-9.51-34.43 0-9.507 9.507-9.507 24.92 0 34.43z" fill="url(#aG)"/><path d="M42.905 42.004l-2.096 1.49a26.378 26.378 0 0 0 4.662 6.3 26.398 26.398 0 0 0 6.298 4.662l1.49-2.096A23.79 23.79 0 0 1 47.266 48a23.79 23.79 0 0 1-4.36-5.996z" fill="url(#aH)"/><path d="M46.1 49.166a8.12 8.12 0 0 1 1.5 2.085l-9.548 9.55a8.11 8.11 0 0 1-2.084-1.502 8.12 8.12 0 0 1-1.502-2.085l9.55-9.55a8.11 8.11 0 0 1 2.083 1.503z" fill="url(#aI)"/><path d="M42.983 58.02L18.91 82.095c-1.452-.798-2.125-1.093-3.385-2.353-1.26-1.26-1.555-1.933-2.354-3.384l24.075-24.074c1.845 1.366 4.415 3.79 5.738 5.738z" fill="url(#aJ)"/><path d="M39.162 56.157c1.26 1.26 2.71 2.43 3.104 4.015L18.91 83.53c-2.375-1.88-5.304-4.662-7.173-7.174L35.093 53c1.273.08 2.79 1.88 4.05 3.14l.02.017z" fill="url(#aK)"/><path d="M39.073 56.246c1.26 1.26 2.798 2.34 3.193 3.927L18.91 83.53c-2.87-2.517-4.3-3.872-7.173-7.174L35.093 53c1.273.08 2.702 1.986 3.962 3.247h.018z" opacity=".596" fill="url(#aL)"/><path d="M48.413 13.5c14.815-11.723 28.47-4.638 28.342 1.932-.13 6.57-20.612 25.637-27.827 24.09-7.214-1.545-9.275-19.452-.515-26.022z" opacity=".604" fill="url(#aM)"/><text x="36.99" y="25.305" transform="rotate(-8.9)" style="-inkscape-font-specification:Sans" font-size="7.215" opacity=".461" fill="url(#aN)" font-family="Sans"><tspan x="36.99" y="25.305" style="-inkscape-font-specification:Monospace Bold" font-weight="700" font-family="Monospace">01011001</tspan> <tspan x="36.99" y="34.323" style="-inkscape-font-specification:Monospace Bold" font-weight="700" font-family="Monospace">00110101</tspan> <tspan x="36.99" y="43.341" style="-inkscape-font-specification:Monospace Bold" font-weight="700" font-family="Monospace">10010011</tspan></text><text x="36.834" y="24.836" transform="rotate(-8.9)" style="-inkscape-font-specification:Sans" font-size="7.215" fill="url(#aO)" font-family="Sans"><tspan x="36.834" y="24.836" style="-inkscape-font-specification:Monospace Bold" font-weight="700" font-family="Monospace">01011001</tspan> <tspan x="36.834" y="33.855" style="-inkscape-font-specification:Monospace Bold" font-weight="700" font-family="Monospace">00110101</tspan> <tspan x="36.834" y="42.873" style="-inkscape-font-specification:Monospace Bold" font-weight="700" font-family="Monospace">10010011</tspan></text><path d="M80.586 47.038c-9.763 8.01-15.234 7.654-13.874 4.787 1.36-2.868 15.423-15.178 18.746-15.94 3.324-.764.83 6.573-4.872 11.153z" opacity=".765" fill="url(#aP)"/></svg>