<svg xmlns="http://www.w3.org/2000/svg" xmlns:xlink="http://www.w3.org/1999/xlink" width="95" height="93.87"><defs><linearGradient id="K"><stop offset="0"/><stop offset="1" stop-opacity="0"/></linearGradient><linearGradient id="s"><stop offset="0" stop-color="#fff"/><stop offset=".5" stop-color="#fff" stop-opacity=".931"/><stop offset="1" stop-color="#fff" stop-opacity="0"/></linearGradient><linearGradient id="v"><stop offset="0" stop-color="#fff"/><stop offset="1" stop-color="#fff" stop-opacity="0"/></linearGradient><linearGradient id="h"><stop offset="0" stop-color="#f9e295"/><stop offset=".125" stop-color="#f7dd84"/><stop offset=".206" stop-color="#fff"/><stop offset=".301" stop-color="#f4ce51"/><stop offset=".341" stop-color="#f9e7aa"/><stop offset="1" stop-color="#efbb0e"/></linearGradient><linearGradient id="e"><stop offset="0" stop-color="#2d3335"/><stop offset=".5" stop-color="#4c464a"/><stop offset="1" stop-color="#384042"/></linearGradient><linearGradient id="d"><stop offset="0" stop-color="#d0e9f2" stop-opacity="0"/><stop offset=".839" stop-color="#d0e9f2" stop-opacity="0"/><stop offset=".943" stop-color="#d0e9f2" stop-opacity=".282"/><stop offset="1" stop-color="#d0e9f2"/></linearGradient><linearGradient id="c"><stop offset="0"/><stop offset="1" stop-opacity="0"/></linearGradient><linearGradient x1="94.25" y1="-94.672" x2="9" y2="-179.969" id="aa" xlink:href="#a" gradientUnits="userSpaceOnUse"/><linearGradient id="a"><stop offset="0"/><stop offset="1" stop-opacity="0"/></linearGradient><linearGradient x1="50.75" y1="-114.438" x2="35.75" y2="-30.438" id="ab" xlink:href="#a" gradientUnits="userSpaceOnUse"/><linearGradient x1="77.625" y1="-163.125" x2="115.25" y2="-74.625" id="ac" xlink:href="#a" gradientUnits="userSpaceOnUse"/><linearGradient x1="56.5" y1="-50.438" x2="125.719" y2="7.063" id="ad" xlink:href="#a" gradientUnits="userSpaceOnUse"/><linearGradient x1="35" y1="-163.297" x2="180.75" y2="-146.797" id="ae" xlink:href="#a" gradientUnits="userSpaceOnUse"/><linearGradient x1="57" y1="-141.109" x2="179" y2="-41.609" id="af" xlink:href="#a" gradientUnits="userSpaceOnUse"/><linearGradient x1="156" y1="-26.5" x2="208.25" y2="39.75" id="ag" xlink:href="#a" gradientUnits="userSpaceOnUse"/><linearGradient x1="142.75" y1="-169.297" x2="235" y2="-77.297" id="ah" xlink:href="#a" gradientUnits="userSpaceOnUse"/><linearGradient x1="214.25" y1="-161.359" x2="166.5" y2="-113.719" id="S" xlink:href="#b" gradientUnits="userSpaceOnUse"/><linearGradient id="b"><stop offset="0" stop-color="#fff"/><stop offset="1" stop-color="#fff" stop-opacity="0"/></linearGradient><linearGradient x1="53.25" y1="-126.5" x2="57.656" y2="-62.469" id="T" xlink:href="#b" gradientUnits="userSpaceOnUse"/><linearGradient x1="39.5" y1="6.625" x2="75.719" y2="-17.125" id="U" xlink:href="#b" gradientUnits="userSpaceOnUse"/><linearGradient x1="102" y1="-162.344" x2="85.313" y2="-121.438" id="V" xlink:href="#b" gradientUnits="userSpaceOnUse"/><linearGradient x1="117.75" y1="-78.094" x2="63.5" y2="-14.75" id="W" xlink:href="#b" gradientUnits="userSpaceOnUse"/><linearGradient x1="180.687" y1="-125.125" x2="133.937" y2="-60.75" id="X" xlink:href="#b" gradientUnits="userSpaceOnUse"/><linearGradient x1="170.75" y1="-23.5" x2="130.219" y2="33.375" id="Y" xlink:href="#b" gradientUnits="userSpaceOnUse"/><linearGradient x1="213.5" y1="-76" x2="181.75" y2="-5.656" id="Z" xlink:href="#b" gradientUnits="userSpaceOnUse"/><linearGradient x1="210.172" y1="72.064" x2="9" y2="-213.253" id="R" xlink:href="#c" gradientUnits="userSpaceOnUse" gradientTransform="matrix(.36438 0 0 .36438 .618 -3.644)"/><clipPath id="P"><path d="M9 12.25s7.5 13 11.75 27.75L27 65.5s-5.5 12.75-8.25 24.75l-5.75 23s5.75 16 9.25 30L26 167.5s-4 10.25-7.5 24.25l-5 30.75s9.25-2 28.5 1.25l32.25 6s12.75-2.75 24-6.25l16.25-6.5s5.5.5 22.5 6.25l29.25 8.5s13-2.75 26-5.75l26.5-8s-.75-5 4.25-24.5l8.75-28s-.5-4.5-3.75-19.75L218 116s1.75-10.5 6.75-23.75L235 65.5s-4.75-15.25-7.5-29.75L219.25 10S195 19 187.5 20.5l-21 5.25s-9.75-4.25-22-8.5l-29.75-5.5s-3.25 3.5-22 8l-27.5 5.75s-18.5-9-31.5-11.5-24-2-24.75-1.75z"/></clipPath><clipPath id="Q"><path d="M9 12.25s7.5 13 11.75 27.75L27 65.5s-5.5 12.75-8.25 24.75l-5.75 23s5.75 16 9.25 30L26 167.5s-4 10.25-7.5 24.25l-5 30.75s9.25-2 28.5 1.25l32.25 6s12.75-2.75 24-6.25l16.25-6.5s5.5.5 22.5 6.25l29.25 8.5s13-2.75 26-5.75l26.5-8s-.75-5 4.25-24.5l8.75-28s-.5-4.5-3.75-19.75L218 116s1.75-10.5 6.75-23.75L235 65.5s-4.75-15.25-7.5-29.75L219.25 10S195 19 187.5 20.5l-21 5.25s-9.75-4.25-22-8.5l-29.75-5.5s-3.25 3.5-22 8l-27.5 5.75s-18.5-9-31.5-11.5-24-2-24.75-1.75z"/></clipPath><clipPath id="O"><path d="M9 12.25s7.5 13 11.75 27.75L27 65.5s-5.5 12.75-8.25 24.75l-5.75 23s5.75 16 9.25 30L26 167.5s-4 10.25-7.5 24.25l-5 30.75s9.25-2 28.5 1.25l32.25 6s12.75-2.75 24-6.25l16.25-6.5s5.5.5 22.5 6.25l29.25 8.5s13-2.75 26-5.75l26.5-8s-.75-5 4.25-24.5l8.75-28s-.5-4.5-3.75-19.75L218 116s1.75-10.5 6.75-23.75L235 65.5s-4.75-15.25-7.5-29.75L219.25 10S195 19 187.5 20.5l-21 5.25s-9.75-4.25-22-8.5l-29.75-5.5s-3.25 3.5-22 8l-27.5 5.75s-18.5-9-31.5-11.5-24-2-24.75-1.75z"/></clipPath><linearGradient id="f"><stop offset="0" stop-color="#2d3335"/><stop offset=".5" stop-color="#4c464a"/><stop offset="1" stop-color="#384042"/></linearGradient><linearGradient id="g"><stop offset="0" stop-color="#2d3335"/><stop offset=".5" stop-color="#4c464a"/><stop offset="1" stop-color="#384042"/></linearGradient><linearGradient id="i"><stop offset="0" stop-color="#f9e295"/><stop offset=".125" stop-color="#f7dd84"/><stop offset=".206" stop-color="#fff"/><stop offset=".301" stop-color="#f4ce51"/><stop offset=".341" stop-color="#f9e7aa"/><stop offset="1" stop-color="#efbb0e"/></linearGradient><linearGradient id="j"><stop offset="0" stop-color="#f9e295"/><stop offset=".125" stop-color="#f7dd84"/><stop offset=".206" stop-color="#fff"/><stop offset=".301" stop-color="#f4ce51"/><stop offset=".341" stop-color="#f9e7aa"/><stop offset="1" stop-color="#efbb0e"/></linearGradient><linearGradient id="k"><stop offset="0" stop-color="#f9e295"/><stop offset=".125" stop-color="#f7dd84"/><stop offset=".206" stop-color="#fff"/><stop offset=".301" stop-color="#f4ce51"/><stop offset=".341" stop-color="#f9e7aa"/><stop offset="1" stop-color="#efbb0e"/></linearGradient><linearGradient id="l"><stop offset="0" stop-color="#f9e295"/><stop offset=".125" stop-color="#f7dd84"/><stop offset=".206" stop-color="#fff"/><stop offset=".301" stop-color="#f4ce51"/><stop offset=".341" stop-color="#f9e7aa"/><stop offset="1" stop-color="#efbb0e"/></linearGradient><linearGradient id="q"><stop offset="0" stop-color="#d0e9f2" stop-opacity="0"/><stop offset=".839" stop-color="#d0e9f2" stop-opacity="0"/><stop offset=".943" stop-color="#d0e9f2" stop-opacity=".282"/><stop offset="1" stop-color="#d0e9f2"/></linearGradient><linearGradient id="p"><stop offset="0" stop-color="#2d3335"/><stop offset=".5" stop-color="#4c464a"/><stop offset="1" stop-color="#384042"/></linearGradient><linearGradient id="o"><stop offset="0" stop-color="#f9e295"/><stop offset=".125" stop-color="#f7dd84"/><stop offset=".206" stop-color="#fff"/><stop offset=".301" stop-color="#f4ce51"/><stop offset=".341" stop-color="#f9e7aa"/><stop offset="1" stop-color="#efbb0e"/></linearGradient><linearGradient id="n"><stop offset="0" stop-color="#2d3335"/><stop offset=".5" stop-color="#4c464a"/><stop offset="1" stop-color="#384042"/></linearGradient><linearGradient id="m"><stop offset="0" stop-color="#f9e295"/><stop offset=".125" stop-color="#f7dd84"/><stop offset=".206" stop-color="#fff"/><stop offset=".301" stop-color="#f4ce51"/><stop offset=".341" stop-color="#f9e7aa"/><stop offset="1" stop-color="#efbb0e"/></linearGradient><linearGradient x1="120" y1="186.5" x2="136" y2="186.5" id="aF" xlink:href="#m" gradientUnits="userSpaceOnUse" gradientTransform="scale(.50706) rotate(45 76.046 38.306)"/><linearGradient x1="123" y1="150.375" x2="133" y2="150.375" id="aK" xlink:href="#n" gradientUnits="userSpaceOnUse" gradientTransform="rotate(135 121.569 -14.6) scale(1.01464 -.89767)"/><linearGradient x1="120" y1="186.5" x2="136" y2="186.5" id="aJ" xlink:href="#o" gradientUnits="userSpaceOnUse" gradientTransform="scale(.50706) rotate(45 156.944 71.816)"/><linearGradient x1="123" y1="150.375" x2="133" y2="150.375" id="aI" xlink:href="#p" gradientUnits="userSpaceOnUse" gradientTransform="scale(-.50706 .50706) rotate(-45 -28.909 380.92)"/><linearGradient x1="128" y1="134.359" x2="130.875" y2="143.359" id="aH" xlink:href="#p" gradientUnits="userSpaceOnUse" gradientTransform="scale(.50706) rotate(45 156.944 71.816)"/><radialGradient cx="128" cy="86" r="47" fx="128" fy="86" id="aG" xlink:href="#q" gradientUnits="userSpaceOnUse" gradientTransform="matrix(.3662 .3662 .3662 -.3662 -14.262 15.76)"/><linearGradient id="r"><stop offset="0" stop-color="#2d3335"/><stop offset=".5" stop-color="#4c464a"/><stop offset="1" stop-color="#384042"/></linearGradient><linearGradient x1="108.003" y1="167.727" x2="133" y2="150.375" id="aL" xlink:href="#c" gradientUnits="userSpaceOnUse" gradientTransform="rotate(135 121.569 -14.6) scale(1.01464 -.89767)"/><radialGradient cx="159.613" cy="72.588" r="38.417" fx="159.613" fy="72.588" id="aO" xlink:href="#s" gradientUnits="userSpaceOnUse" gradientTransform="matrix(.44163 0 0 .30571 -16.277 9.033)"/><linearGradient id="t"><stop offset="0" stop-color="#fff"/><stop offset="1" stop-color="#fff" stop-opacity="0"/></linearGradient><radialGradient cx="159.613" cy="72.588" r="38.417" fx="159.613" fy="72.588" id="aN" xlink:href="#t" gradientUnits="userSpaceOnUse" gradientTransform="matrix(.44163 0 0 .30571 -16.121 9.502)"/><linearGradient id="u"><stop offset="0" stop-color="#d0e9f2" stop-opacity="0"/><stop offset=".839" stop-color="#d0e9f2" stop-opacity="0"/><stop offset=".943" stop-color="#d0e9f2" stop-opacity=".282"/><stop offset="1" stop-color="#d0e9f2"/></linearGradient><linearGradient x1="126.643" y1="29.815" x2="179.961" y2="137.196" id="aM" xlink:href="#v" gradientUnits="userSpaceOnUse" gradientTransform="matrix(.36438 0 0 .36438 .618 -3.644)"/><linearGradient id="w"><stop offset="0" stop-color="#fff"/><stop offset="1" stop-color="#fff" stop-opacity="0"/></linearGradient><linearGradient x1="126.643" y1="29.815" x2="179.961" y2="137.196" id="aP" xlink:href="#w" gradientUnits="userSpaceOnUse" gradientTransform="matrix(-.18328 .07215 .07178 -.15778 101.243 44.97)"/><linearGradient id="x"><stop offset="0" stop-color="#fff"/><stop offset="1" stop-color="#fff" stop-opacity="0"/></linearGradient><linearGradient id="y"><stop offset="0" stop-color="#fff"/><stop offset="1" stop-color="#fff" stop-opacity="0"/></linearGradient><linearGradient id="z"><stop offset="0" stop-color="#fff"/><stop offset="1" stop-color="#fff" stop-opacity="0"/></linearGradient><linearGradient id="A"><stop offset="0" stop-color="#fff"/><stop offset=".5" stop-color="#fff" stop-opacity=".931"/><stop offset="1" stop-color="#fff" stop-opacity="0"/></linearGradient><linearGradient id="B"><stop offset="0" stop-color="#fff"/><stop offset="1" stop-color="#fff" stop-opacity="0"/></linearGradient><filter color-interpolation-filters="sRGB" id="aE"><feGaussianBlur stdDeviation="4.287"/></filter><linearGradient id="C"><stop offset="0"/><stop offset="1" stop-opacity="0"/></linearGradient><linearGradient id="D"><stop offset="0"/><stop offset="1" stop-opacity="0"/></linearGradient><linearGradient id="E"><stop offset="0"/><stop offset="1" stop-opacity="0"/></linearGradient><clipPath id="aj"><path d="M9 12.25s7.5 13 11.75 27.75L27 65.5s-5.5 12.75-8.25 24.75l-5.75 23s5.75 16 9.25 30L26 167.5s-4 10.25-7.5 24.25l-5 30.75s9.25-2 28.5 1.25l32.25 6s12.75-2.75 24-6.25l16.25-6.5s5.5.5 22.5 6.25l29.25 8.5s13-2.75 26-5.75l26.5-8s-.75-5 4.25-24.5l8.75-28s-.5-4.5-3.75-19.75L218 116s1.75-10.5 6.75-23.75L235 65.5s-4.75-15.25-7.5-29.75L219.25 10S195 19 187.5 20.5l-21 5.25s-9.75-4.25-22-8.5l-29.75-5.5s-3.25 3.5-22 8l-27.5 5.75s-18.5-9-31.5-11.5-24-2-24.75-1.75z"/></clipPath><clipPath id="ak"><path d="M9 12.25s7.5 13 11.75 27.75L27 65.5s-5.5 12.75-8.25 24.75l-5.75 23s5.75 16 9.25 30L26 167.5s-4 10.25-7.5 24.25l-5 30.75s9.25-2 28.5 1.25l32.25 6s12.75-2.75 24-6.25l16.25-6.5s5.5.5 22.5 6.25l29.25 8.5s13-2.75 26-5.75l26.5-8s-.75-5 4.25-24.5l8.75-28s-.5-4.5-3.75-19.75L218 116s1.75-10.5 6.75-23.75L235 65.5s-4.75-15.25-7.5-29.75L219.25 10S195 19 187.5 20.5l-21 5.25s-9.75-4.25-22-8.5l-29.75-5.5s-3.25 3.5-22 8l-27.5 5.75s-18.5-9-31.5-11.5-24-2-24.75-1.75z"/></clipPath><clipPath id="al"><path d="M9 12.25s7.5 13 11.75 27.75L27 65.5s-5.5 12.75-8.25 24.75l-5.75 23s5.75 16 9.25 30L26 167.5s-4 10.25-7.5 24.25l-5 30.75s9.25-2 28.5 1.25l32.25 6s12.75-2.75 24-6.25l16.25-6.5s5.5.5 22.5 6.25l29.25 8.5s13-2.75 26-5.75l26.5-8s-.75-5 4.25-24.5l8.75-28s-.5-4.5-3.75-19.75L218 116s1.75-10.5 6.75-23.75L235 65.5s-4.75-15.25-7.5-29.75L219.25 10S195 19 187.5 20.5l-21 5.25s-9.75-4.25-22-8.5l-29.75-5.5s-3.25 3.5-22 8l-27.5 5.75s-18.5-9-31.5-11.5-24-2-24.75-1.75z"/></clipPath><linearGradient x1="210.172" y1="72.064" x2="9" y2="-213.253" id="am" xlink:href="#F" gradientUnits="userSpaceOnUse" gradientTransform="translate(0 192)"/><linearGradient id="F"><stop offset="0"/><stop offset="1" stop-opacity="0"/></linearGradient><linearGradient x1="214.25" y1="-161.359" x2="166.5" y2="-113.719" id="an" xlink:href="#G" gradientUnits="userSpaceOnUse"/><linearGradient id="G"><stop offset="0" stop-color="#fff"/><stop offset="1" stop-color="#fff" stop-opacity="0"/></linearGradient><linearGradient x1="53.25" y1="-126.5" x2="57.656" y2="-62.469" id="ao" xlink:href="#G" gradientUnits="userSpaceOnUse"/><linearGradient x1="39.5" y1="6.625" x2="75.719" y2="-17.125" id="ap" xlink:href="#G" gradientUnits="userSpaceOnUse"/><linearGradient x1="102" y1="-162.344" x2="85.313" y2="-121.438" id="aq" xlink:href="#G" gradientUnits="userSpaceOnUse"/><linearGradient x1="117.75" y1="-78.094" x2="63.5" y2="-14.75" id="ar" xlink:href="#G" gradientUnits="userSpaceOnUse"/><linearGradient x1="180.687" y1="-125.125" x2="133.937" y2="-60.75" id="as" xlink:href="#G" gradientUnits="userSpaceOnUse"/><linearGradient x1="170.75" y1="-23.5" x2="130.219" y2="33.375" id="at" xlink:href="#G" gradientUnits="userSpaceOnUse"/><linearGradient x1="213.5" y1="-76" x2="181.75" y2="-5.656" id="au" xlink:href="#G" gradientUnits="userSpaceOnUse"/><linearGradient x1="94.25" y1="-94.672" x2="9" y2="-179.969" id="av" xlink:href="#H" gradientUnits="userSpaceOnUse"/><linearGradient id="H"><stop offset="0"/><stop offset="1" stop-opacity="0"/></linearGradient><linearGradient x1="50.75" y1="-114.438" x2="35.75" y2="-30.438" id="aw" xlink:href="#H" gradientUnits="userSpaceOnUse"/><linearGradient x1="77.625" y1="-163.125" x2="115.25" y2="-74.625" id="ax" xlink:href="#H" gradientUnits="userSpaceOnUse"/><linearGradient x1="56.5" y1="-50.438" x2="125.719" y2="7.063" id="ay" xlink:href="#H" gradientUnits="userSpaceOnUse"/><linearGradient x1="35" y1="-163.297" x2="180.75" y2="-146.797" id="az" xlink:href="#H" gradientUnits="userSpaceOnUse"/><linearGradient x1="57" y1="-141.109" x2="179" y2="-41.609" id="aA" xlink:href="#H" gradientUnits="userSpaceOnUse"/><linearGradient x1="156" y1="-26.5" x2="208.25" y2="39.75" id="aB" xlink:href="#H" gradientUnits="userSpaceOnUse"/><linearGradient x1="142.75" y1="-169.297" x2="235" y2="-77.297" id="aC" xlink:href="#H" gradientUnits="userSpaceOnUse"/><linearGradient id="I"><stop offset="0" stop-color="#d0e9f2" stop-opacity="0"/><stop offset=".839" stop-color="#d0e9f2" stop-opacity="0"/><stop offset=".943" stop-color="#d0e9f2" stop-opacity=".282"/><stop offset="1" stop-color="#d0e9f2"/></linearGradient><clipPath id="ai"><path d="M123.623 141.062c20.832 20.243 54.607 19.289 75.439-2.132 20.832-21.421 20.832-55.196 0-75.439-20.832-20.243-54.607-19.289-75.439 2.132-20.832 21.421-20.832 55.196 0 75.439z"/></clipPath><filter color-interpolation-filters="sRGB" id="L"><feGaussianBlur stdDeviation="6.311"/></filter><linearGradient id="J"><stop offset="0"/><stop offset="1" stop-opacity="0"/></linearGradient><filter color-interpolation-filters="sRGB" id="N"><feGaussianBlur stdDeviation="4.457"/></filter><linearGradient x1="122" y1="245.448" x2="122" y2="4.302" id="M" xlink:href="#K" gradientUnits="userSpaceOnUse"/><clipPath id="aD"><path d="M9 22.578s7.5 12.393 11.75 26.8C25 63.784 27 74.373 27 74.373s-5.5 13.195-8.25 25.417C16 112.012 13 123.255 13 123.255s5.75 15.535 9.25 29.252c3.5 13.717 3.75 23.947 3.75 23.947s-4 10.574-7.5 24.857l-5 31.154s9.25-2.748 28.5-1.055c19.25 1.693 32.25 3.392 32.25 3.392s12.75-3.781 24-8.191l16.25-7.814s5.5.055 22.5 4.43l29.25 6.134s13-3.801 26-7.853c13-4.051 26.5-10.143 26.5-10.143s-.75-4.939 4.25-24.844c5-19.904 8.75-28.708 8.75-28.708s-.514-4.455-3.75-19.447c-1.75-8.108-2.25-4.068-2.25-4.068s16.264-26.155 16.5-40.334C242.5 78.944 235 57.55 235 57.55s-4.75-14.866-7.5-29.143c-2.75-14.278-8.25-25.083-8.25-25.083S195 14.285 187.5 16.392c-7.5 2.107-21 6.948-21 6.948s-9.75-3.461-22-6.721c-12.25-3.259-29.75-3.094-29.75-3.094s-3.25 3.763-22 9.779l-27.5 7.974s-18.5-7.504-31.5-8.952c-13-1.449-24-.059-24.75.252z"/></clipPath></defs><path d="M174.281 69.396c-17.599-1.214-35.192 3.209-48.719 13.539l-.5.363c-22.056 17.204-26.209 45.1-12.469 68.333l-2.281 1.222a68.022 68.022 0 0 0 8.094 10.853l-13.313 10.41c-1.341-.59-2.789-1.07-4.563-1.482l-2.844 2.218c-1.109-.487-2.138-.84-3.063-.954l-64.125 50.017c-.037.932.226 1.873.656 2.831l-.531.414-1.094.853c.715 3.223 2.01 5.931 5.469 9.106 3.458 3.175 6.42 4.374 10.281 5.352l1.094-.853.719-.561c1.088.468 2.13.814 3.094.93l64.125-50.017c-.243-.844-.62-1.686-1.031-2.539l3-2.34c-.25-1.488-.677-2.762-1.313-3.991l13.281-10.359a81.187 81.187 0 0 0 12.125 7.708l1.625-1.825c26.249 13.476 59.444 12.241 81.5-4.962l.469-.392c26.694-21.265 26.549-58.379-.469-83.181-13.59-12.476-31.407-19.465-49.219-20.694zm-.5 2.751l.313.022a78.345 78.345 0 0 1 5.719.713l.281.046.281.046.438.083c.896.155 1.795.318 2.688.504.619.129 1.227.275 1.844.419l1.031.23c.724.179 1.436.374 2.156.573l.938.25.219.068c.956.281 1.897.569 2.844.886l.219.068c.947.32 1.907.663 2.844 1.019l.156.064c.955.365 1.902.749 2.844 1.151l.156.064c.942.405 1.885.84 2.813 1.282l.125.062c.935.448 1.862.901 2.781 1.386l.094.06c.927.491 1.841.987 2.75 1.516l.094.06a76.67 76.67 0 0 1 2.688 1.645c.549.351 1.084.728 1.625 1.094.365.247.733.486 1.094.739l.063.031c.878.617 1.74 1.275 2.594 1.93a75.432 75.432 0 0 1 5.063 4.249 72.488 72.488 0 0 1 4.563 4.586l.031.029a69.883 69.883 0 0 1 2.063 2.344c.283.341.539.694.813 1.038.37.464.74.932 1.094 1.402l.063.057a64.61 64.61 0 0 1 1.719 2.4l.063.084a61.286 61.286 0 0 1 1.563 2.443l.063.084c.498.816.954 1.631 1.406 2.458l.063.11c.446.82.88 1.647 1.281 2.476l.063.137a56.25 56.25 0 0 1 1.125 2.492l.063.137c.348.829.666 1.646.969 2.481l.063.19c.294.819.561 1.647.813 2.47l.063.19.219.811c.177.623.348 1.24.5 1.865l.188.888c.12.532.242 1.056.344 1.589.147.768.265 1.539.375 2.308l.063.376.031.241.031.241a48.822 48.822 0 0 1 .375 4.881v.265c.015.895.004 1.786-.031 2.678a47.12 47.12 0 0 1-.156 2.35l-.031.316a45.97 45.97 0 0 1-.281 2.315 45.772 45.772 0 0 1-.438 2.411l-.031.21-.063.314a44.715 44.715 0 0 1-.563 2.269l-.094.338c-.208.74-.441 1.477-.688 2.208-.164.487-.35.967-.531 1.449-.175.467-.34.934-.531 1.396a45.391 45.391 0 0 1-.938 2.111l-.188.385-.125.283a45.514 45.514 0 0 1-2.313 4.111l-.25.381c-.415.648-.83 1.293-1.281 1.928l-.281.405c-.199.274-.419.535-.625.806-.362.477-.742.94-1.125 1.408v.026a51.623 51.623 0 0 1-1.531 1.778c-.457.508-.954.997-1.438 1.493l-.563.624-.406.396-.5.47a54.79 54.79 0 0 1-1.719 1.553 57.166 57.166 0 0 1-1.875 1.569l-.469.392c-21.13 16.482-52.259 17.19-77.188 4.146l.125-.151c-3.704-1.866-7.262-4.016-10.625-6.49-.539-.396-1.065-.812-1.594-1.224a68.152 68.152 0 0 1-1.531-1.22l-.281-.232a74.374 74.374 0 0 1-2.406-2.129 73.586 73.586 0 0 1-2.313-2.202l-.25-.256c-.45-.459-.882-.924-1.313-1.391-.443-.479-.889-.957-1.313-1.444a61.025 61.025 0 0 1-6.781-9.489l-.188.093c-13.339-22.085-9.974-48.281 11.156-64.762l.5-.363a59.877 59.877 0 0 1 2-1.454 58.324 58.324 0 0 1 1.969-1.323l.813-.528c.343-.212.715-.385 1.063-.59.624-.367 1.239-.747 1.875-1.091a63.348 63.348 0 0 1 2.25-1.145c.582-.285 1.159-.568 1.75-.834.447-.201.892-.406 1.344-.597.681-.288 1.371-.549 2.063-.813l.531-.202c.945-.352 1.881-.69 2.844-.998a65.596 65.596 0 0 1 2.594-.776l.469-.1a66.68 66.68 0 0 1 2.906-.728c.56-.124 1.123-.225 1.688-.335.583-.113 1.163-.232 1.75-.33a71.419 71.419 0 0 1 2.656-.4l.219-.011c.416-.053.833-.107 1.25-.153.672-.073 1.356-.15 2.031-.205l.25-.009a74.273 74.273 0 0 1 2.875-.173c1.964-.075 3.93-.07 5.906.01 1.052.042 2.103.106 3.156.191z" transform="matrix(.36438 0 0 .36438 .618 0)" opacity=".7" fill="#2d3335" filter="url(#L)"/><path d="M9 42.271s7.5 9.317 11.75 21.81C25 76.574 27 85.679 27 85.679s-5.5 10.799-8.25 20.963C16 116.806 13 127.817 13 127.817s5.75 13.552 9.25 25.41L26 172.073s-4 8.682-7.5 20.54c-3.5 11.858-5 26.045-5 26.045s9.25-1.694 28.5 1.059l32.25 5.082s12.75-2.329 24-5.294C109.5 216.54 114.5 214 114.5 214s5.5.423 22.5 5.294c17 4.87 29.25 7.199 29.25 7.199s13-2.329 26-4.87l26.5-6.776s-.75-4.235 4.25-20.752l8.75-23.716s-.5-2.117-3.75-15.034c-3.25-12.917-10-25.198-10-25.198s1.75-10.588 6.75-21.81C229.75 97.114 235 85.68 235 85.68s-4.75-12.917-7.5-25.198l-8.25-20.116S195 47.989 187.5 49.259c-7.5 1.27-21 4.447-21 4.447s-9.75-3.6-22-7.199c-12.25-3.6-29.75-4.659-29.75-4.659s-3.25 2.965-22 6.776l-27.5 4.87s-18.5-7.623-31.5-9.74S9.75 42.06 9 42.272z" transform="matrix(.36438 0 0 .36438 .618 0)" opacity=".5" fill="url(#M)" filter="url(#N)"/><path d="M3.898.82S6.63 5.557 8.179 10.93l2.277 9.292s-2.004 4.646-3.006 9.018l-2.095 8.381s2.095 5.83 3.37 10.931l1.367 8.837s-1.457 3.734-2.733 8.836L5.537 77.43s3.37-.728 10.385.456l11.751 2.186s4.646-1.002 8.745-2.277l5.922-2.369s2.004.182 8.198 2.278L61.196 80.8s4.737-1.002 9.474-2.095l9.656-2.915s-.273-1.822 1.549-8.928l3.188-10.202s-.182-1.64-1.367-7.197l-3.643-10.84s.637-3.826 2.46-8.654l3.734-9.747s-1.73-5.557-2.733-10.84L80.508 0S71.672 3.28 68.94 3.826l-7.652 1.913s-3.552-1.549-8.016-3.097L42.43.638s-1.185 1.275-8.017 2.915l-10.02 2.095s-6.741-3.28-11.478-4.19C8.179.547 4.171.728 3.898.82z" fill="#ceeeab"/><path d="M110.75-4.5l-4.25 7c-.75 9-2.25 13.75-8.5 16.5s-12.25 3.5-11 7.5 13 9.25 14.25 13 8.25 1.75 11 7 2 15.25-3.75 17.25-17.5.5-20.25 9.5-4.75 10.5-9 12.75-7.25 10.5-3.5 16.5 12.25-1.25 15-6.5L98 87.25h23.75l59-1.75 3.25-3.75s3.25 4 2.75 8.75-3.75 14.75.25 17.25 19.5-2 24-7-4.75-28.25-10.5-29.5-18.5-1.75-17-7 11.75 4.5 17.25 3.25 16.75-21 12-25.25-24.25-5.25-25.75-8 21-8 22.25-11-2.5-7.25-6.25-8.5S189 31 182 30.5s-20 5.75-17.25 11.5-6 11-14.5 6.5-24.75-13-21.75-24L150 5.75 110.75-4.5zM97.187 102.719c-1.595.146-4.469 4.688-4.938 7.031-.5 2.5-3.25 6.75-3.5 12.25s4.75 6.75 8.75 6.5 2.75-6.75 2-15c-.25 0-.5-10.25-2-10.75-.094-.031-.206-.041-.313-.031zm92.719 51.656c-6.335.295-6.625 7.469-7.406 8.875-1.25 2.25 2.25 13.75 2 18s-4.75 5.25-9.5 9.75.5 16 11.25 31l44.75 1.25-1-35s4.75-4.25-20.75-24.25c-9.563-7.5-15.542-9.802-19.344-9.625zM39.937 170.906c-4.029-.103-8.281 5.719-9.688 7.594-1.5 2-6.25 5-17 9.5l-14.5 34.25 53 4.25s1.75-11-4.25-15.75-17.25-5.75-18.25-13.25 9.25-10 13.75-14.25 2-11.25-2.25-12.25a4 4 0 0 0-.813-.094z" transform="matrix(.36438 0 0 .36438 .618 0)" clip-path="url(#O)" fill="#a6dd8b"/><path d="M58.383 27.454c-1.734-.005-3.29.353-4.201 1.15-2.915 2.55-12.753.273-17.673 2.55-4.919 2.278-4.828 13.847-5.374 16.215-.547 2.369-6.377 7.561-7.288 8.563-.91 1.002-4.828 2.642-7.105 3.097-2.277.456-4.646 2.642-5.648 4.008-.736 1.005-2.698 2.35-3.69 2.995l-.045.194c-.049.195-.09.394-.136.592 1.814-.585 4.073-2.98 6.057-4.965 2.278-2.277 7.288-2.824 10.112-4.19 2.824-1.367 5.192-7.197 9.656-8.654 4.464-1.458 7.743 4.281 8.836 6.74 1.093 2.46.638 4.647 1.366 6.195.73 1.549 4.009 4.282 4.19 4.92.183.637-1.821 2.368-2.277 3.097-.455.728-3.825 2.55-4.281 3.188-.352.492-.7 2.468-.843 3.36l.41-.172c.177-.921.552-2.579 1.07-3.097.73-.729 4.1-1.64 4.555-3.097l2.551-2.369s1.002 1.458 5.83 5.102c3.219 2.429 4.649 5.66 5.25 7.55l.74.193c-.446-1.574-1.763-5.918-3.257-7.561-1.822-2.004-6.741-3.917-8.29-8.017-1.549-4.099-8.927-12.48-6.377-14.666 2.551-2.186 6.013-1.457 10.385 2.733 4.373 4.19 16.853 2.095 21.043 1.366 3.627-.63 7.591 5.424 8.71 9.486.215-.764.411-1.459.604-2.096a11.255 11.255 0 0 1-1.936-3.017c-1.366-3.097-4.372-4.828-4.372-4.828s3.188-1.822 5.374-2.824a6.904 6.904 0 0 0 1.526-.968l-.16-.763-.034-.16c-1.736 2.027-7.007 3.504-7.89 3.986-1.003.547-6.65 1.093-13.027 1.64-6.377.547-9.747-2.733-12.48-5.375-2.733-2.641-4.737-13.117-1.093-13.846 3.644-.729 7.287 5.01 10.931 6.194 3.644 1.185 7.834-5.739 7.197-9.838-.439-2.818-5.1-4.6-8.916-4.611zm-19.437 4.839c.465 0 2.135.58 2.392.865.82.911.728 2.642 0 2.915-.73.274-4.646 2.915-3.826 5.193.82 2.277.637 6.559-1.276 6.559s-2.915 0-3.644-.911c-.728-.911-.728-4.373 0-7.197.73-2.824 1.276-5.465 2.915-6.65 1.128-.814 2.417-.775 3.44-.774zM43.9 58.927c.074.005.695 1.281 1.72 2.562 1.093 1.366 1.184 3.006 1.184 3.006s-1.548-1.73-2.186-2.915l-.729-2.642.011-.011z" fill="#aac3e7"/><path d="M45.346 22.683c2.277.182 4.463-.82 3.917-2.369-.547-1.549-4.555-2.642-4.828-1.093-.274 1.549.728 3.826.91 3.462zm-5.102-5.648c-3.097-2.004-3.097-2.642-2.55-2.915.546-.274 3.735 1.822 4.646 2.915.91 1.093-.82.728-2.096 0z" opacity=".387" fill="none" stroke="#6d7f42" stroke-width=".364" stroke-linecap="round" stroke-linejoin="round"/><path d="M15.75 141.25c33-2.5 38.25-3.5 36.25-10.25s-8.75-23.5-23-22.5l-22.75-6.75m11.25 65.5c18.25-10 28.75-8.5 35-11.5s13.25-5.75 15.75-9.5 5.75-11.5 5.75-18-3.5-36 3.25-43.5 17.25-26 26-23.25 12.25 9.75 22 9.5S147 67 149.5 58.75s-15.75-16-16-23 5.5-14.25 20.25-17l23.5-11.5M14.5 151c15.25-1.5 22.25 3.5 31.5 1.75s13.25-3 17.75-5.75 6-3.75 6.25-6.5 1-12.5-3-22S54.5 87 58.75 79.75 64 58.25 74.5 55.25 95.5 49 102.25 54s12.75 14.25 20 14.5S134 67 136.75 64s4.5-10.25 1.75-13.75-15.5-5.5-17.25-9.5-10.75-17-.25-26.75l36.25-8.25M21.25 149c13.75 1 21.5 4.25 33.5-.5s13.5-5.25 13.75-8.75-.25-15.75-3-20S52.5 106 49.75 95.5s.25-41 8.5-48.25 32-7.25 37.5-10.5 5.25-16.75 13-24.5l27-12.25M190 8.5c11.75 5 39 9.75 47.25 40.25M9.75 204c19-12.5 36-1.25 49-4s38.25-37.25 46-37 5.5-11.75 8.5-13.25 5.5 6 11.75 8 24.5-2.75 23.5-5.75-7-7.75-5.5-8.5 8.5 5 12.75 3.5 43.75-1 48.5-13.5l21.5-13.5M77.5 223.5c13.5-11.5 23.25-25 28.5-27s12.75-3.75 15.75-8 2.5-10.75 5.25-12 3.75 5.75 8.75 6 36.75-5 42.75-11.75 32.25-12.5 32.5-14.5-1-4.75.25-5.5l24.75-6M168.75 226c9-13.75 20.5-41 29.5-42s10.25-2.5 12.5-4.25l17 2.25" transform="matrix(.36438 0 0 .36438 .618 0)" clip-path="url(#P)" opacity=".387" fill="none" stroke="#6d7f42"/><path d="M57.75 10l-8.5 28.25 18 6.25L75 80.75 54 103l9 10.5L51 125l.5 4.5L71.75 154l14-6.75 20.5 18.5L95.75 194l10.25 8.5-2.75 13m2.5-13.25l12.5-27.75 11-7 27.5 15.75 20.5-3.75-.25-15.75-10.25-6 12.75-26.25 5.75-3.75 38.75-10" transform="matrix(.36438 0 0 .36438 .618 0)" clip-path="url(#Q)" fill="none" stroke="#d38484" stroke-width="2" stroke-linecap="round"/><path d="M3.898.82S6.63 5.557 8.179 10.93l2.277 9.292s-2.004 4.646-3.006 9.018l-2.095 8.381s2.095 5.83 3.37 10.931l1.367 8.837s-1.457 3.734-2.733 8.836L5.537 77.43s3.37-.728 10.385.456l11.751 2.186s4.646-1.002 8.745-2.277l5.922-2.369s2.004.182 8.198 2.278L61.196 80.8s4.737-1.002 9.474-2.095l9.656-2.915s-.273-1.822 1.549-8.928l3.188-10.202s-.182-1.64-1.367-7.197l-3.643-10.84s.637-3.826 2.46-8.654l3.734-9.747s-1.73-5.557-2.733-10.84L80.508 0S71.672 3.28 68.94 3.826l-7.652 1.913s-3.552-1.549-8.016-3.097L42.43.638s-1.185 1.275-8.017 2.915l-10.02 2.095s-6.741-3.28-11.478-4.19C8.179.547 4.171.728 3.898.82z" opacity=".039" fill="url(#R)"/><g opacity=".27"><path d="M219.25 0S195 9 187.5 10.5l-21 5.25c4.924-1.358 11.437 45.392 14.25 52.25l-.063.281c11.808-4.074 51.21-4.768 54.313-12.781 0 0-4.75-15.25-7.5-29.75L219.25 0z" fill="url(#S)" transform="matrix(.36438 0 0 .36438 .618 0)"/><path d="M27 55.5s-5.5 12.75-8.25 24.75l-5.75 23 50.625 16.281 15.781-58.906L27 55.5z" fill="url(#T)" transform="matrix(.36438 0 0 .36438 .618 0)"/><path d="M26 157.5s-4 10.25-7.5 24.25l-5 30.75s.147-.045.438-.094c2.034-.338 11.219-1.5 28.063 1.344 19.25 3.25 32.25 6 32.25 6l1.469-52.5-.75.125-48.969-9.875z" fill="url(#U)" transform="matrix(.36438 0 0 .36438 .618 0)"/><path d="M114.75 1.75s-3.25 3.5-22 8l-27.5 5.75c5.182 14.704 12.03 29.27 14.25 44.75l-.094.313 48.031-3.938 1.125.25C125.2 43.552 120.766 2.283 114.749 1.75z" fill="url(#V)" transform="matrix(.36438 0 0 .36438 .618 0)"/><path d="M117.594 103.906l-53.625 15.719-.344-.094-.125.469 12.25 46.5-.031.75 49.469-8.875.531.188.031-.063-8.25-54.25.094-.344z" fill="url(#W)" transform="matrix(.36438 0 0 .36438 .618 0)"/><path d="M128.563 56.875c.234.928.464 1.742.688 2.375l-11.656 44.656.094-.031 51.813 17.375 11.188-52.969c-.357.123-.695.245-1 .375l-51.125-11.781z" fill="url(#X)" transform="matrix(.36438 0 0 .36438 .618 0)"/><path d="M125.531 158.5L114.5 207s5.5.5 22.5 6.25c2.125.719 4.163 1.406 6.125 2.031 1.962.625 3.855 1.186 5.625 1.719 10.617 3.199 17.5 4.75 17.5 4.75l12.719-45.406-1.531.563-51.906-18.406z" fill="url(#Y)" transform="matrix(.36438 0 0 .36438 .618 0)"/><path d="M218 106c-15.666 6.288-31.698 11.15-48.063 15.406l-.438-.156 9.5 55-.031.094c17.839-6.36 35.381-13.387 52.781-20.844 0 0-.5-4.5-3.75-19.75l-10-29.75z" fill="url(#Z)" transform="matrix(.36438 0 0 .36438 .618 0)"/></g><g opacity=".043"><path d="M13.719 2.031A57.72 57.72 0 0 0 11 2.094c-.445.018-.855.039-1.156.063H9.75c-.398.033-.656.063-.75.094 0 0 7.5 13 11.75 27.75l6.25 25.5 51.469 5.125.938-.063.094-.313c-2.22-15.48-9.068-30.046-14.25-44.75 0 0-18.5-9-31.5-11.5-1.018-.196-2.01-.371-3-.531-.596-.097-1.167-.196-1.75-.281l-.688-.094c-1.306-.182-2.588-.34-3.813-.469-.735-.077-1.395-.128-2.094-.188a111.77 111.77 0 0 0-4.781-.312 96.923 96.923 0 0 0-3.906-.094z" fill="url(#aa)" transform="matrix(.36438 0 0 .36438 .618 0)"/><path d="M13 103.25s5.75 16 9.25 30L26 157.5l48.969 9.875.75-.125.031-.75L63.5 120l.125-.469L13 103.25z" fill="url(#ab)" transform="matrix(.36438 0 0 .36438 .618 0)"/><path d="M127.438 56.625l-47.969 4h-.063l-15.781 58.906.344.094 53.625-15.719L129.25 59.25c-.224-.633-.453-1.447-.688-2.375l-1.125-.25z" fill="url(#ac)" transform="matrix(.36438 0 0 .36438 .618 0)"/><path d="M125.188 158.375l-49.469 8.875-1.469 52.5s12.75-2.75 24-6.25l16.25-6.5 11.219-48.438-.531-.188z" fill="url(#ad)" transform="matrix(.36438 0 0 .36438 .618 0)"/><path d="M114.75 1.75c6.016.533 10.45 41.802 13.813 55.125l51.125 11.781c.305-.13.643-.252 1-.375l.063-.281c-2.813-6.858-9.326-53.608-14.25-52.25l-1.719-.719a349.596 349.596 0 0 0-20.281-7.781c-12.25-4.25-29.75-5.5-29.75-5.5z" fill="url(#ae)" transform="matrix(.36438 0 0 .36438 .618 0)"/><path d="M117.688 103.875l-.094.031-.094.344 8.25 53.25-.219 1 51.906 18.406 1.531-.562.031-.094-9.5-55-51.813-17.375z" fill="url(#af)" transform="matrix(.36438 0 0 .36438 .618 0)"/><path d="M231.75 155.5c-17.4 7.457-34.942 14.484-52.781 20.844L166.25 221.75s13-2.75 26-5.75l26.5-8s-.75-5 4.25-24.5l8.75-28z" fill="url(#ag)" transform="matrix(.36438 0 0 .36438 .618 0)"/><path d="M235 55.5c-3.102 8.014-42.505 8.707-54.313 12.781l-11.188 52.969.438.156c16.365-4.257 32.397-9.118 48.063-15.406 0 0 1.75-10.5 6.75-23.75L235 55.5z" fill="url(#ah)" transform="matrix(.36438 0 0 .36438 .618 0)"/></g><g transform="matrix(.36438 0 0 .36438 .618 0)" clip-path="url(#ai)"><path d="M-16.537-32.682S-7.143-16.134-1.82 2.492c5.323 18.625 7.828 32.161 7.828 32.161S-.881 50.428-4.325 65.361c-3.444 14.933-7.202 28.605-7.202 28.605S-4.325 114.21.059 131.87c4.384 17.659 4.697 30.507 4.697 30.507s-5.01 12.697-9.394 30.109c-4.384 17.412-6.263 38.339-6.263 38.339s11.586-2.178 35.697 2.575c24.111 4.752 40.394 8.657 40.394 8.657s15.97-2.993 30.061-6.979l20.354-7.566s6.889.821 28.182 8.625l36.637 11.682s16.283-2.984 32.566-6.282c16.283-3.297 33.192-9.082 33.192-9.082s-.939-6.289 5.323-30.537c6.263-24.247 10.96-34.761 10.96-34.761s-.626-5.654-4.697-24.87l-12.525-37.617s2.192-13.09 8.455-29.509l12.839-33.143s-5.95-19.269-9.394-37.528L246.81-28.055s-30.374 10.414-39.768 12.028c-9.394 1.613-26.303 5.832-26.303 5.832s-12.212-5.668-27.556-11.425c-15.344-5.757-37.263-7.942-37.263-7.942s-4.071 4.269-27.556 9.242c-23.485 4.973-34.445 6.229-34.445 6.229S30.747-26.019 14.464-29.61c-16.283-3.592-30.061-3.355-31-3.068z" fill="#ceeeab"/><path d="M110.909-37.535l-5.323 8.617c-.939 11.246-2.818 17.143-10.647 20.366-7.828 3.223-15.344 3.95-13.778 9.005C82.727 5.507 97.444 12.499 99.01 17.24c1.566 4.741 10.333 2.484 13.778 9.157 3.444 6.673 2.505 19.172-4.697 21.474-7.202 2.302-21.919.007-25.364 11.182-3.444 11.175-5.95 12.983-11.273 15.651-5.323 2.668-9.081 12.895-4.384 20.543 4.697 7.648 15.344-1.132 18.788-7.611 3.444-6.478 9.081-10.703 9.081-10.703l29.748.841 73.9-.103 4.071-4.582s4.071 5.125 3.444 11.057c-.626 5.932-4.697 18.342.313 21.615 5.01 3.273 24.424-1.815 30.061-7.918 5.636-6.103-5.95-35.552-13.152-37.322-7.202-1.769-23.172-2.847-21.293-9.37 1.879-6.523 14.717 6.052 21.606 4.681 6.889-1.371 20.98-25.71 15.03-31.202-5.95-5.491-30.374-7.434-32.253-10.932-1.879-3.498 26.303-9.277 27.869-12.99 1.566-3.713-3.131-9.169-7.828-10.868-4.697-1.698-17.536 19.858-26.303 18.984-8.768-.874-25.051 6.494-21.606 13.794 3.444 7.299-7.515 13.566-18.162 7.628-10.647-5.937-31-17.159-27.243-30.831 3.758-13.672 26.93-22.724 26.93-22.724l-49.162-14.228zM93.921 96.28c-1.998.127-5.597 5.713-6.184 8.632-.626 3.114-4.071 8.34-4.384 15.22-.313 6.88 5.95 8.623 10.96 8.451 5.01-.172 3.444-8.357 2.505-18.717-.313-.009-.626-12.856-2.505-13.536a.994.994 0 0 0-.391-.05zm116.134 67.983c-7.935.146-8.298 9.12-9.277 10.854-1.566 2.774 2.818 17.302 2.505 22.616-.313 5.314-5.95 6.408-11.899 11.876-5.95 5.468.626 20.058 14.091 39.227l56.051 3.15-1.253-43.874s5.95-5.155-25.99-31.109c-11.977-9.733-19.468-12.828-24.229-12.74zM22.214 179.66c-5.047-.271-10.373 6.87-12.134 9.169-1.879 2.452-7.828 6.041-21.293 11.297l-18.162 42.386 66.384 7.199s2.192-13.716-5.323-19.878c-7.515-6.162-21.606-7.813-22.859-17.242-1.253-9.429 11.586-12.198 17.222-17.362 5.636-5.164 2.505-14.02-2.818-15.423a5.06 5.06 0 0 0-1.018-.146z" clip-path="url(#aj)" fill="#a6dd8b"/><path d="M170.757 64.164c-5.962-.186-11.312.894-14.443 3.545-10.02 8.485-43.839-.3-60.748 7.051-16.909 7.35-16.596 47.127-18.475 55.216-1.879 8.088-21.919 25.371-25.051 28.727-3.131 3.356-16.596 8.612-24.424 9.956-7.828 1.344-15.97 8.63-19.414 13.229-2.532 3.381-9.276 7.817-12.682 9.936l-.157.661c-.167.665-.31 1.348-.47 2.022 6.237-1.834 14.003-9.849 20.823-16.477 7.828-7.607 25.051-8.999 34.758-13.422 9.707-4.423 17.849-24.233 33.192-28.81 15.344-4.577 26.616 15.47 30.374 24.03 3.758 8.561 2.192 16.032 4.697 21.426 2.505 5.394 13.778 15.107 14.404 17.316.626 2.21-6.263 7.964-7.828 10.425-1.566 2.461-13.152 8.396-14.717 10.544-1.21 1.659-2.409 8.416-2.896 11.465.517-.197.945-.362 1.409-.547.606-3.151 1.898-8.812 3.679-10.543 2.505-2.434 14.091-5.238 15.657-10.204 1.566-4.966 8.768-7.894 8.768-7.894s3.444 5.107 20.041 18.102c11.064 8.663 15.98 19.908 18.044 26.461.844.238 1.92.567 2.544.737-1.53-5.453-6.058-20.511-11.195-26.307-6.263-7.066-23.172-14.12-28.495-28.361-5.323-14.241-30.687-43.767-21.919-51.034 8.768-7.267 20.667-4.426 35.697 10.403 15.03 14.829 57.93 8.839 72.334 6.741 12.468-1.816 26.096 19.379 29.943 33.451.738-2.604 1.411-4.973 2.075-7.143-2.177-2.474-4.631-5.918-6.654-10.561-4.697-10.779-15.03-17.021-15.03-17.021s10.96-5.953 18.475-9.185a22.828 22.828 0 0 0 5.245-3.179c-.203-.975-.324-1.582-.548-2.638l-.117-.551c-5.969 6.798-24.089 11.363-27.125 12.933-3.444 1.781-22.859 3.112-44.778 4.371-21.919 1.259-33.505-10.341-42.899-19.687-9.394-9.346-16.283-45.551-3.758-47.703 12.525-2.151 25.051 17.93 37.576 22.355 12.525 4.425 26.93-18.966 24.738-33.119-1.507-9.73-17.532-16.308-30.648-16.719zm-66.815 14.747c1.597.047 7.339 2.204 8.22 3.207 2.818 3.211 2.505 9.152 0 10.02-2.505.869-15.97 9.569-13.152 17.477 2.818 7.908 2.192 22.608-4.384 22.422-6.576-.186-10.02-.283-12.525-3.485-2.505-3.202-2.505-15.101 0-24.738 2.505-9.636 4.384-18.664 10.02-22.576 3.875-2.689 8.307-2.431 11.821-2.328zm17.027 92.034c.255.024 2.388 4.471 5.91 8.974 3.758 4.803 4.071 10.448 4.071 10.448s-5.323-6.1-7.515-10.233c-2.192-4.133-2.505-9.152-2.505-9.152l.039-.038z" fill="#aac3e7"/><path d="M125.939 46.497c7.828.848 15.344-2.385 13.465-7.761-1.879-5.376-15.657-9.523-16.596-4.227-.939 5.297 2.505 13.222 3.131 11.988zm-17.535-19.91c-10.647-7.19-10.647-9.382-8.768-10.268 1.879-.886 12.839 6.626 15.97 10.472 3.131 3.846-2.818 2.425-7.202-.204z" opacity=".387" fill="none" stroke="#6d7f42" stroke-width="1.253" stroke-linecap="round" stroke-linejoin="round"/><path d="M-8.082 141.66c41.334-1.963 47.91-3.03 45.404-11.555-2.505-8.525-10.96-29.744-28.808-28.996-17.849.748-28.495-9.26-28.495-9.26m14.091 82.439c22.859-11.879 36.01-9.629 43.839-13.165 7.828-3.536 16.596-6.733 19.727-11.342 3.131-4.609 7.202-14.201 7.202-22.342 0-8.141-4.384-45.215 4.071-54.37 8.455-9.155 21.606-31.955 32.566-28.201 10.96 3.754 15.344 12.646 27.556 12.678 12.212.032 27.243-4.24 30.374-14.485 3.131-10.245-19.727-20.598-20.041-29.375-.313-8.777 6.889-17.654 25.364-20.576 18.475-2.922 29.435-13.572 29.435-13.572m-9.648 153.828c19.101-1.339 27.869 5.171 39.455 3.307 11.586-1.865 16.596-3.289 22.233-6.574 5.636-3.285 7.515-4.485 7.828-7.92.313-3.436 1.253-15.621-3.758-27.662C41.452 256.766 30.805 228.91 36.129 219.979c5.323-8.93 6.576-26.744 19.727-30.13 13.152-3.386 26.303-7.085 34.758-.583 8.455 6.502 15.97 18.3 25.051 18.87 9.081.57 14.717-1.463 18.162-5.123 3.444-3.66 5.636-12.679 2.192-17.16s-19.414-7.438-21.606-12.51-13.465-21.674-.313-33.514c13.152-11.841 45.404-9.05 45.404-9.05m-1.193 151.562c17.222 1.739 26.93 6.084 41.96.56 15.03-5.525 16.909-6.098 17.222-10.473.313-4.375-.313-19.736-3.758-25.157C39.946 416.461 27.107 404.199 23.663 390.95c-3.444-13.249.313-51.345 10.647-60.134 10.333-8.789 40.081-7.948 46.97-11.824 6.889-3.876 6.576-20.794 16.283-30.227l33.818-14.388m67.95 12.567c14.717 6.679 48.849 13.593 59.182 52.087m-15.597 220.044c23.798-14.984 45.091-.291 61.374-3.276 16.283-2.984 47.91-45.303 57.617-44.716 9.707.587 6.889-14.523 10.647-16.295 3.758-1.773 6.889 7.71 14.717 10.436s30.687-2.577 29.435-6.37c-1.253-3.793-8.768-9.955-6.889-10.841 1.879-.886 10.647 6.564 15.97 4.835 5.323-1.728 54.798.296 60.748-15.192 5.95-15.489 26.93-16.148 26.93-16.148m-185.69 124.39c16.909-13.926 29.121-30.49 35.697-32.81 6.576-2.319 15.97-4.246 19.727-9.463 3.758-5.217 3.131-13.376 6.576-14.845 3.444-1.468 4.697 7.335 10.96 7.825 6.263.49 46.031-4.962 53.546-13.204 7.515-8.242 40.394-14.515 40.707-17.011.313-2.496-1.253-5.985.313-6.88 1.566-.895 31-6.639 31-6.639m-84.232 99.388c11.273-16.904 25.677-50.628 36.95-51.562 11.273-.934 12.839-2.769 15.657-4.881 2.818-2.112 21.293 3.42 21.293 3.42" clip-path="url(#ak)" opacity=".387" fill="none" stroke="#6d7f42"/><path d="M44.525-21.249L33.878 13.834 56.424 22.3l9.707 45.679-26.303 27.126 11.273 13.47-15.03 13.979.626 5.654 25.364 31.404 17.536-7.959 25.677 23.898-13.152 35.012 12.839 11.009-3.444 16.186m3.129-16.508l15.657-34.315 13.778-8.378 34.445 20.701 25.677-3.971-.313-19.736-12.839-7.878 15.97-32.428 7.202-4.493 48.536-11.154" clip-path="url(#al)" fill="none" stroke="#d38484" stroke-width="2" stroke-linecap="round"/><path d="M-16.537-32.682S-7.143-16.134-1.82 2.492c5.323 18.625 7.828 32.161 7.828 32.161S-.881 50.428-4.325 65.361c-3.444 14.933-7.202 28.605-7.202 28.605S-4.325 114.21.059 131.87c4.384 17.659 4.697 30.507 4.697 30.507s-5.01 12.697-9.394 30.109c-4.384 17.412-6.263 38.339-6.263 38.339s11.586-2.178 35.697 2.575c24.111 4.752 40.394 8.657 40.394 8.657s15.97-2.993 30.061-6.979l20.354-7.566s6.889.821 28.182 8.625l36.637 11.682s16.283-2.984 32.566-6.282c16.283-3.297 33.192-9.082 33.192-9.082s-.939-6.289 5.323-30.537c6.263-24.247 10.96-34.761 10.96-34.761s-.626-5.654-4.697-24.87l-12.525-37.617s2.192-13.09 8.455-29.509l12.839-33.143s-5.95-19.269-9.394-37.528L246.81-28.055s-30.374 10.414-39.768 12.028c-9.394 1.613-26.303 5.832-26.303 5.832s-12.212-5.668-27.556-11.425c-15.344-5.757-37.263-7.942-37.263-7.942s-4.071 4.269-27.556 9.242c-23.485 4.973-34.445 6.229-34.445 6.229S30.747-26.019 14.464-29.61c-16.283-3.592-30.061-3.355-31-3.068z" opacity=".039" fill="url(#am)"/><g opacity=".27"><path d="M246.911-28.229s-30.385 10.428-39.783 12.045c-9.397 1.617-26.313 5.843-26.313 5.843 6.17-1.53 14.33 57.277 17.855 65.968l-.078.35c14.795-4.691 64.167-4.182 68.054-14.114 0 0-5.952-19.274-9.397-37.539-3.446-18.265-10.337-32.553-10.337-32.553z" fill="url(#an)"/><path d="M6.022 34.584S-.869 50.367-4.315 65.307c-3.446 14.94-7.205 28.618-7.205 28.618l63.433 22.172L71.687 42.84 6.022 34.584z" fill="url(#ao)"/><path d="M4.769 162.355s-5.012 12.703-9.397 30.123c-4.385 17.419-6.265 38.355-6.265 38.355s.184-.052.548-.102c2.548-.353 14.057-1.487 35.162 2.666 24.12 4.746 40.409 8.647 40.409 8.647l1.84-65.731-.94.13-61.358-14.087z" fill="url(#ap)"/><path d="M115.973-29.694s-4.072 4.272-27.566 9.254c-23.494 4.982-34.457 6.242-34.457 6.242 6.493 18.605 15.073 37.096 17.855 56.57l-.117.388 60.183-3.253 1.41.353c-4.213-16.811-9.768-68.676-17.307-69.555z" fill="url(#aq)"/><path d="M119.536 98.407l-67.192 17.819-.431-.129-.157.583 15.349 58.693-.039.939 61.984-9.389.666.254.039-.077-10.337-68.264.117-.427z" fill="url(#ar)"/><path d="M133.28 39.861c.293 1.171.581 2.198.861 3l-14.605 55.546.117-.036 64.921 23.584 14.018-65.978c-.447.142-.871.283-1.253.435l-64.06-16.551z" fill="url(#as)"/><path d="M129.482 167.091l-13.822 60.384s6.891.819 28.192 8.619c2.663.975 5.216 1.907 7.675 2.76 2.458.852 4.831 1.62 7.048 2.35 13.303 4.38 21.927 6.564 21.927 6.564l15.937-56.449-1.919.651-65.039-24.88z" fill="url(#at)"/><path d="M245.345 104.545c-19.629 7.331-39.717 12.861-60.222 17.622l-.548-.211 11.903 69.247-.039.116c22.352-7.345 44.333-15.535 66.135-24.27 0 0-.626-5.656-4.699-24.878-4.072-19.222-12.53-37.627-12.53-37.627z" fill="url(#au)"/></g><g opacity=".043"><path d="M-10.619-32.878a74.039 74.039 0 0 0-3.407-.017c-.558.007-1.072.019-1.449.038l-.117-.003c-.499.027-.822.055-.94.091 0 0 9.397 16.551 14.723 35.182 5.325 18.631 7.831 32.17 7.831 32.17l64.49 8.223 1.175-.045.117-.388c-2.782-19.474-11.362-37.966-17.855-56.57 0 0-23.18-11.925-39.469-15.512a133.194 133.194 0 0 0-3.759-.771c-.746-.142-1.462-.287-2.193-.414l-.861-.141a144.454 144.454 0 0 0-4.777-.721c-.92-.122-1.747-.209-2.623-.308a141.789 141.789 0 0 0-5.991-.559c-1.825-.13-3.47-.211-4.895-.254z" fill="url(#av)"/><path d="M-11.52 93.924s7.205 20.249 11.59 37.914c4.385 17.664 4.699 30.516 4.699 30.516l61.358 14.087.94-.13.039-.939-15.349-58.693.157-.583-63.433-22.172z" fill="url(#aw)"/><path d="M131.87 39.508l-60.105 3.333-.078-.002-19.774 73.257.431.129 67.192-17.819 14.605-55.546c-.281-.801-.568-1.829-.861-3l-1.41-.353z" fill="url(#ax)"/><path d="M129.051 166.922l-61.984 9.389-1.84 65.731s15.976-2.999 30.072-6.991c14.096-3.992 20.361-7.576 20.361-7.576l14.057-60.3-.666-.254z" fill="url(#ay)"/><path d="M115.973-29.694c7.539.879 13.094 52.744 17.307 69.555l64.06 16.551c.382-.152.806-.293 1.253-.435l.078-.35c-3.525-8.691-11.686-67.498-17.855-65.968 0 0-.768-.34-2.154-.961a452.216 452.216 0 0 0-25.412-10.46c-15.349-5.754-37.277-7.933-37.277-7.933z" fill="url(#az)"/><path d="M119.653 98.371l-.117.036-.117.427 10.337 67.011-.274 1.245 65.039 24.88 1.919-.651.039-.116-11.903-69.247-64.921-23.584z" fill="url(#aA)"/><path d="M262.574 167.05c-21.802 8.735-43.783 16.925-66.135 24.27l-15.937 56.449s16.289-2.991 32.578-6.295l33.204-9.096s-.94-6.291 5.325-30.55c6.265-24.258 10.964-34.778 10.964-34.778z" fill="url(#aB)"/><path d="M266.646 41.864c-3.887 9.932-53.258 9.423-68.054 14.114l-14.018 65.978.548.211c20.505-4.761 40.593-10.291 60.222-17.622 0 0 2.193-13.095 8.458-29.523 6.265-16.427 12.843-33.159 12.843-33.159z" fill="url(#aC)"/></g></g><path d="M174.281 28.914c-17.599-1.423-35.192 3.793-48.719 15.966l-.5.428C103.006 65.58 98.853 98.44 112.593 125.8l-2.281 1.44a80.545 80.545 0 0 0 8.094 12.78l-13.313 12.267c-1.341-.694-2.789-1.259-4.563-1.744l-2.844 2.614c-1.109-.574-2.138-.989-3.063-1.123l-64.125 58.939c-.037 1.098.226 2.206.656 3.334l-.531.488-1.094 1.005c.715 3.796 2.01 6.986 5.469 10.724 3.458 3.738 6.42 5.15 10.281 6.3l1.094-1.005.719-.661c1.088.55 2.13.958 3.094 1.094l64.125-58.939c-.243-.994-.62-1.986-1.031-2.99l3-2.757c-.25-1.752-.677-3.253-1.313-4.7l13.281-12.207a80.698 80.698 0 0 0 12.125 9.074l1.625-2.15c26.249 15.863 59.444 14.395 81.5-5.877l.469-.462c26.694-25.058 26.549-68.773-.469-97.975-13.59-14.689-31.407-22.915-49.219-24.356zm-.5 3.241l.313.025a67.31 67.31 0 0 1 5.719.838l.281.054.281.054.438.098c.896.182 1.795.373 2.688.592.619.152 1.227.323 1.844.493l1.031.271c.724.211 1.436.44 2.156.674l.938.295.219.08c.956.33 1.897.67 2.844 1.042l.219.08c.947.376 1.907.78 2.844 1.199l.156.075c.955.43 1.902.881 2.844 1.355l.156.075a74.84 74.84 0 0 1 2.813 1.509l.125.073c.935.527 1.862 1.06 2.781 1.631l.094.07a75.366 75.366 0 0 1 2.75 1.785l.094.07a76.822 76.822 0 0 1 2.688 1.936c.549.413 1.084.857 1.625 1.288.365.29.733.572 1.094.87l.063.036c.878.726 1.74 1.501 2.594 2.272a79.793 79.793 0 0 1 5.063 5.003 80.1 80.1 0 0 1 4.563 5.4l.031.034a78.855 78.855 0 0 1 2.063 2.761c.283.402.539.817.813 1.222.37.547.74 1.098 1.094 1.651l.063.068a75.813 75.813 0 0 1 1.719 2.827l.063.099a75.832 75.832 0 0 1 1.563 2.876l.063.099c.498.961.954 1.921 1.406 2.895l.063.13c.446.966.88 1.939 1.281 2.916l.063.161c.395.968.775 1.958 1.125 2.935l.063.161c.348.976.666 1.938.969 2.922l.063.224c.294.965.561 1.939.813 2.909l.063.224.219.955c.177.734.348 1.461.5 2.197l.188 1.046c.12.627.242 1.244.344 1.872.147.904.265 1.813.375 2.718l.063.443.031.284.031.284a67.408 67.408 0 0 1 .375 5.749v.313a66.272 66.272 0 0 1-.031 3.154 65.38 65.38 0 0 1-.156 2.769l-.031.372a63.41 63.41 0 0 1-.281 2.727 62.75 62.75 0 0 1-.438 2.84l-.031.247-.063.37a60.68 60.68 0 0 1-.563 2.673l-.094.399a59.938 59.938 0 0 1-.688 2.601c-.164.573-.35 1.139-.531 1.707-.175.55-.34 1.1-.531 1.645-.295.84-.605 1.66-.938 2.487l-.188.454-.125.334a57.116 57.116 0 0 1-2.313 4.844l-.25.449c-.415.764-.83 1.524-1.281 2.271l-.281.477c-.199.323-.419.63-.625.949-.362.562-.742 1.108-1.125 1.659v.031a58.957 58.957 0 0 1-1.531 2.095c-.457.599-.954 1.174-1.438 1.759l-.563.736-.406.467-.5.553a60.183 60.183 0 0 1-1.719 1.83 59.514 59.514 0 0 1-1.875 1.848l-.469.462c-21.13 19.421-52.259 20.268-77.188 4.914l.125-.177a73.224 73.224 0 0 1-10.625-7.641c-.539-.467-1.065-.956-1.594-1.441a76.336 76.336 0 0 1-1.531-1.436l-.281-.273a79.44 79.44 0 0 1-2.406-2.507 81.087 81.087 0 0 1-2.313-2.593l-.25-.301c-.45-.54-.882-1.088-1.313-1.637-.443-.564-.889-1.127-1.313-1.7a72.94 72.94 0 0 1-6.781-11.173l-.188.11c-13.339-26.008-9.974-56.864 11.156-76.285l.5-.428a60.371 60.371 0 0 1 2-1.713 60.076 60.076 0 0 1 1.969-1.56l.813-.622c.343-.25.715-.454 1.063-.695.624-.433 1.239-.88 1.875-1.286a58.164 58.164 0 0 1 2.25-1.349c.582-.336 1.159-.67 1.75-.983.447-.237.892-.479 1.344-.704.681-.34 1.371-.647 2.063-.958l.531-.238a56.533 56.533 0 0 1 2.844-1.176c.866-.327 1.715-.63 2.594-.915l.469-.118a59.29 59.29 0 0 1 2.906-.859c.56-.146 1.123-.265 1.688-.395.583-.134 1.163-.273 1.75-.39a61.235 61.235 0 0 1 2.656-.473l.219-.014c.416-.062.833-.127 1.25-.18.672-.086 1.356-.178 2.031-.242l.25-.011a62.598 62.598 0 0 1 2.875-.205 63.925 63.925 0 0 1 5.906.009c1.052.049 2.103.123 3.156.224z" transform="matrix(.36438 0 0 .36438 .618 0)" clip-path="url(#aD)" fill="#2d3335" filter="url(#aE)"/><path d="M18.112 82.88l-1.752 1.661c-1.824-1.937-3.731-3.9-5.494-5.878l1.636-1.484c2.488 2.38 3.233 3.108 5.61 5.701z" fill="url(#aF)"/><path d="M46.189 49.077c-9.904-9.904-9.904-25.961 0-35.865 9.904-9.904 25.96-9.904 35.864 0 9.904 9.904 9.904 25.96 0 35.865-9.903 9.903-25.96 9.903-35.864 0zM47.265 48c9.508 9.507 24.564 9.866 34.071.358 9.508-9.508 9.15-24.564-.358-34.071-9.508-9.508-24.564-9.867-34.072-.359-9.507 9.508-9.149 24.564.359 34.072z" fill="#2d3335"/><path d="M46.189 49.077c-9.904-9.904-9.904-25.961 0-35.865l.18-.18c-9.724 9.918-9.665 25.843.178 35.686 9.844 9.843 25.768 9.903 35.686.18l-.18.179c-9.903 9.903-25.96 9.903-35.864 0zm.897-35.327l.179-.18c9.508-9.507 24.564-9.148 34.071.36 9.508 9.507 9.867 24.563.359 34.07l-.18.18c9.324-9.517 8.91-24.445-.537-33.892-9.448-9.448-24.376-9.862-33.892-.538z" fill="#9eaaac"/><path d="M46.906 48.36c9.508 9.507 24.923 9.507 34.43 0 9.508-9.509 9.508-24.923 0-34.43-9.507-9.509-24.922-9.509-34.43 0-9.507 9.507-9.507 24.921 0 34.43z" fill="#d0e9f2" fill-opacity=".476"/><path d="M46.906 48.36c9.508 9.507 24.923 9.507 34.43 0 9.508-9.509 9.508-24.923 0-34.43-9.507-9.509-24.922-9.509-34.43 0-9.507 9.507-9.507 24.921 0 34.43z" fill="url(#aG)"/><path d="M42.905 42.004l-2.096 1.491a26.378 26.378 0 0 0 4.663 6.299 26.398 26.398 0 0 0 6.298 4.662l1.491-2.096A23.79 23.79 0 0 1 47.265 48a23.79 23.79 0 0 1-4.36-5.996z" fill="url(#aH)"/><path d="M46.1 49.166a8.12 8.12 0 0 1 1.501 2.085L38.052 60.8a8.111 8.111 0 0 1-2.084-1.502 8.12 8.12 0 0 1-1.502-2.085l9.549-9.549a8.111 8.111 0 0 1 2.084 1.502z" fill="url(#aI)"/><path d="M42.983 58.02L18.91 82.095c-1.452-.798-2.125-1.093-3.385-2.353-1.26-1.26-1.555-1.934-2.354-3.385l24.074-24.074c1.845 1.366 4.415 3.789 5.738 5.738z" fill="url(#aJ)"/><path d="M39.162 56.157c1.26 1.26 2.709 2.43 3.104 4.015L18.909 83.53c-2.374-1.878-5.303-4.66-7.172-7.173L35.093 53c1.273.082 2.79 1.88 4.05 3.14l.019.018z" fill="url(#aK)"/><path d="M39.073 56.246c1.26 1.26 2.798 2.34 3.193 3.927L18.909 83.529c-2.87-2.516-4.298-3.87-7.172-7.173L35.093 53c1.273.081 2.702 1.986 3.962 3.247h.018z" opacity=".596" fill="url(#aL)"/><path d="M48.413 13.5c14.815-11.723 28.47-4.638 28.342 1.932-.129 6.57-20.612 25.637-27.827 24.091-7.214-1.546-9.275-19.453-.515-26.023z" opacity=".604" fill="url(#aM)"/><text x="36.99" y="25.305" transform="rotate(-8.9)" style="-inkscape-font-specification:Sans" font-size="7.215" opacity=".461" fill="url(#aN)" font-family="Sans"><tspan x="36.99" y="25.305" style="-inkscape-font-specification:Monospace Bold" font-weight="700" font-family="Monospace">01011001</tspan> <tspan x="36.99" y="34.323" style="-inkscape-font-specification:Monospace Bold" font-weight="700" font-family="Monospace">00110101</tspan> <tspan x="36.99" y="43.341" style="-inkscape-font-specification:Monospace Bold" font-weight="700" font-family="Monospace">10010011</tspan></text><text x="36.834" y="24.836" transform="rotate(-8.9)" style="-inkscape-font-specification:Sans" font-size="7.215" fill="url(#aO)" font-family="Sans"><tspan x="36.834" y="24.836" style="-inkscape-font-specification:Monospace Bold" font-weight="700" font-family="Monospace">01011001</tspan> <tspan x="36.834" y="33.855" style="-inkscape-font-specification:Monospace Bold" font-weight="700" font-family="Monospace">00110101</tspan> <tspan x="36.834" y="42.873" style="-inkscape-font-specification:Monospace Bold" font-weight="700" font-family="Monospace">10010011</tspan></text><path d="M80.586 47.038c-9.763 8.01-15.234 7.654-13.874 4.787 1.36-2.868 15.423-15.178 18.746-15.941 3.324-.763.83 6.574-4.872 11.154z" opacity=".765" fill="url(#aP)"/></svg>