<svg xmlns="http://www.w3.org/2000/svg" xmlns:xlink="http://www.w3.org/1999/xlink" width="95" height="93.87"><title>OpenStreetMap logo 2011</title><defs><linearGradient id="K"><stop offset="0"/><stop offset="1" stop-opacity="0"/></linearGradient><linearGradient id="s"><stop offset="0" stop-color="#fff"/><stop offset=".5" stop-color="#fff" stop-opacity=".931"/><stop offset="1" stop-color="#fff" stop-opacity="0"/></linearGradient><linearGradient id="v"><stop offset="0" stop-color="#fff"/><stop offset="1" stop-color="#fff" stop-opacity="0"/></linearGradient><linearGradient id="h"><stop offset="0" stop-color="#f9e295"/><stop offset=".125" stop-color="#f7dd84"/><stop offset=".206" stop-color="#fff"/><stop offset=".301" stop-color="#f4ce51"/><stop offset=".341" stop-color="#f9e7aa"/><stop offset="1" stop-color="#efbb0e"/></linearGradient><linearGradient id="e"><stop offset="0" stop-color="#2d3335"/><stop offset=".5" stop-color="#4c464a"/><stop offset="1" stop-color="#384042"/></linearGradient><linearGradient id="d"><stop offset="0" stop-color="#d0e9f2" stop-opacity="0"/><stop offset=".839" stop-color="#d0e9f2" stop-opacity="0"/><stop offset=".943" stop-color="#d0e9f2" stop-opacity=".282"/><stop offset="1" stop-color="#d0e9f2"/></linearGradient><linearGradient id="c"><stop offset="0"/><stop offset="1" stop-opacity="0"/></linearGradient><linearGradient x1="94.25" y1="-94.672" x2="9" y2="-179.969" id="aa" xlink:href="#a" gradientUnits="userSpaceOnUse"/><linearGradient id="a"><stop offset="0"/><stop offset="1" stop-opacity="0"/></linearGradient><linearGradient x1="50.75" y1="-114.438" x2="35.75" y2="-30.438" id="ab" xlink:href="#a" gradientUnits="userSpaceOnUse"/><linearGradient><stop offset="0"/><stop offset="1" stop-opacity="0"/></linearGradient><linearGradient x1="77.625" y1="-163.125" x2="115.25" y2="-74.625" id="ac" xlink:href="#a" gradientUnits="userSpaceOnUse"/><linearGradient><stop offset="0"/><stop offset="1" stop-opacity="0"/></linearGradient><linearGradient x1="56.5" y1="-50.438" x2="125.719" y2="7.063" id="ad" xlink:href="#a" gradientUnits="userSpaceOnUse"/><linearGradient><stop offset="0"/><stop offset="1" stop-opacity="0"/></linearGradient><linearGradient x1="35" y1="-163.297" x2="180.75" y2="-146.797" id="ae" xlink:href="#a" gradientUnits="userSpaceOnUse"/><linearGradient><stop offset="0"/><stop offset="1" stop-opacity="0"/></linearGradient><linearGradient x1="57" y1="-141.109" x2="179" y2="-41.609" id="af" xlink:href="#a" gradientUnits="userSpaceOnUse"/><linearGradient><stop offset="0"/><stop offset="1" stop-opacity="0"/></linearGradient><linearGradient x1="156" y1="-26.5" x2="208.25" y2="39.75" id="ag" xlink:href="#a" gradientUnits="userSpaceOnUse"/><linearGradient><stop offset="0"/><stop offset="1" stop-opacity="0"/></linearGradient><linearGradient x1="142.75" y1="-169.297" x2="235" y2="-77.297" id="ah" xlink:href="#a" gradientUnits="userSpaceOnUse"/><linearGradient><stop offset="0"/><stop offset="1" stop-opacity="0"/></linearGradient><linearGradient x1="214.25" y1="-161.359" x2="166.5" y2="-113.719" id="S" xlink:href="#b" gradientUnits="userSpaceOnUse"/><linearGradient id="b"><stop offset="0" stop-color="#fff"/><stop offset="1" stop-color="#fff" stop-opacity="0"/></linearGradient><linearGradient x1="53.25" y1="-126.5" x2="57.656" y2="-62.469" id="T" xlink:href="#b" gradientUnits="userSpaceOnUse"/><linearGradient x1="39.5" y1="6.625" x2="75.719" y2="-17.125" id="U" xlink:href="#b" gradientUnits="userSpaceOnUse"/><linearGradient x1="102" y1="-162.344" x2="85.313" y2="-121.438" id="V" xlink:href="#b" gradientUnits="userSpaceOnUse"/><linearGradient x1="117.75" y1="-78.094" x2="63.5" y2="-14.75" id="W" xlink:href="#b" gradientUnits="userSpaceOnUse"/><linearGradient x1="180.687" y1="-125.125" x2="133.937" y2="-60.75" id="X" xlink:href="#b" gradientUnits="userSpaceOnUse"/><linearGradient x1="170.75" y1="-23.5" x2="130.219" y2="33.375" id="Y" xlink:href="#b" gradientUnits="userSpaceOnUse"/><linearGradient x1="213.5" y1="-76" x2="181.75" y2="-5.656" xlink:href="#b" gradientUnits="userSpaceOnUse"/><linearGradient x1="213.5" y1="-76" x2="181.75" y2="-5.656" id="Z" xlink:href="#b" gradientUnits="userSpaceOnUse"/><linearGradient x1="210.172" y1="72.064" x2="9" y2="-213.253" id="R" xlink:href="#c" gradientUnits="userSpaceOnUse" gradientTransform="matrix(.364 0 0 .364 .618 -3.644)"/><clipPath id="P"><path d="M9 12.25s7.5 13 11.75 27.75L27 65.5s-5.5 12.75-8.25 24.75l-5.75 23s5.75 16 9.25 30L26 167.5s-4 10.25-7.5 24.25l-5 30.75s9.25-2 28.5 1.25l32.25 6s12.75-2.75 24-6.25l16.25-6.5s5.5.5 22.5 6.25l29.25 8.5s13-2.75 26-5.75l26.5-8s-.75-5 4.25-24.5l8.75-28s-.5-4.5-3.75-19.75L218 116s1.75-10.5 6.75-23.75L235 65.5s-4.75-15.25-7.5-29.75L219.25 10S195 19 187.5 20.5l-21 5.25s-9.75-4.25-22-8.5l-29.75-5.5s-3.25 3.5-22 8l-27.5 5.75s-18.5-9-31.5-11.5-24-2-24.75-1.75z"/></clipPath><clipPath id="Q"><path d="M9 12.25s7.5 13 11.75 27.75L27 65.5s-5.5 12.75-8.25 24.75l-5.75 23s5.75 16 9.25 30L26 167.5s-4 10.25-7.5 24.25l-5 30.75s9.25-2 28.5 1.25l32.25 6s12.75-2.75 24-6.25l16.25-6.5s5.5.5 22.5 6.25l29.25 8.5s13-2.75 26-5.75l26.5-8s-.75-5 4.25-24.5l8.75-28s-.5-4.5-3.75-19.75L218 116s1.75-10.5 6.75-23.75L235 65.5s-4.75-15.25-7.5-29.75L219.25 10S195 19 187.5 20.5l-21 5.25s-9.75-4.25-22-8.5l-29.75-5.5s-3.25 3.5-22 8l-27.5 5.75s-18.5-9-31.5-11.5-24-2-24.75-1.75z"/></clipPath><clipPath id="O"><path d="M9 12.25s7.5 13 11.75 27.75L27 65.5s-5.5 12.75-8.25 24.75l-5.75 23s5.75 16 9.25 30L26 167.5s-4 10.25-7.5 24.25l-5 30.75s9.25-2 28.5 1.25l32.25 6s12.75-2.75 24-6.25l16.25-6.5s5.5.5 22.5 6.25l29.25 8.5s13-2.75 26-5.75l26.5-8s-.75-5 4.25-24.5l8.75-28s-.5-4.5-3.75-19.75L218 116s1.75-10.5 6.75-23.75L235 65.5s-4.75-15.25-7.5-29.75L219.25 10S195 19 187.5 20.5l-21 5.25s-9.75-4.25-22-8.5l-29.75-5.5s-3.25 3.5-22 8l-27.5 5.75s-18.5-9-31.5-11.5-24-2-24.75-1.75z"/></clipPath><radialGradient cx="128" cy="86" r="47" fx="128" fy="86" xlink:href="#d" gradientUnits="userSpaceOnUse" gradientTransform="matrix(1.021 0 0 -1.021 -212.723 173.83)"/><linearGradient x1="123" y1="150.375" x2="133" y2="150.375" xlink:href="#e" gradientUnits="userSpaceOnUse" gradientTransform="matrix(-1 0 0 1 46 0)"/><linearGradient x1="128" y1="134.359" x2="130.875" y2="143.359" xlink:href="#e" gradientUnits="userSpaceOnUse" gradientTransform="translate(-210)"/><linearGradient x1="123" y1="150.375" x2="133" y2="150.375" xlink:href="#f" gradientUnits="userSpaceOnUse" gradientTransform="matrix(-1 0 0 1 256 0)"/><linearGradient id="f"><stop offset="0" stop-color="#2d3335"/><stop offset=".5" stop-color="#4c464a"/><stop offset="1" stop-color="#384042"/></linearGradient><linearGradient x1="123" y1="150.375" x2="133" y2="150.375" xlink:href="#f" gradientUnits="userSpaceOnUse" gradientTransform="matrix(-2 0 0 1.77 174 -86.65)"/><linearGradient x1="123" y1="150.375" x2="133" y2="150.375" xlink:href="#g" gradientUnits="userSpaceOnUse" gradientTransform="matrix(-2 0 0 1.77 384 -86.65)"/><linearGradient id="g"><stop offset="0" stop-color="#2d3335"/><stop offset=".5" stop-color="#4c464a"/><stop offset="1" stop-color="#384042"/></linearGradient><linearGradient x1="120" y1="186.5" x2="136" y2="186.5" xlink:href="#h" gradientUnits="userSpaceOnUse" gradientTransform="translate(-210)"/><linearGradient x1="120" y1="186.5" x2="136" y2="186.5" xlink:href="#i" gradientUnits="userSpaceOnUse"/><linearGradient id="i"><stop offset="0" stop-color="#f9e295"/><stop offset=".125" stop-color="#f7dd84"/><stop offset=".206" stop-color="#fff"/><stop offset=".301" stop-color="#f4ce51"/><stop offset=".341" stop-color="#f9e7aa"/><stop offset="1" stop-color="#efbb0e"/></linearGradient><linearGradient x1="120" y1="186.5" x2="136" y2="186.5" xlink:href="#i" gradientUnits="userSpaceOnUse" gradientTransform="translate(-210 67)"/><linearGradient x1="120" y1="186.5" x2="136" y2="186.5" xlink:href="#j" gradientUnits="userSpaceOnUse" gradientTransform="translate(0 69)"/><linearGradient id="j"><stop offset="0" stop-color="#f9e295"/><stop offset=".125" stop-color="#f7dd84"/><stop offset=".206" stop-color="#fff"/><stop offset=".301" stop-color="#f4ce51"/><stop offset=".341" stop-color="#f9e7aa"/><stop offset="1" stop-color="#efbb0e"/></linearGradient><linearGradient x1="120" y1="186.5" x2="136" y2="186.5" xlink:href="#k" gradientUnits="userSpaceOnUse" gradientTransform="translate(0 69)"/><linearGradient id="k"><stop offset="0" stop-color="#f9e295"/><stop offset=".125" stop-color="#f7dd84"/><stop offset=".206" stop-color="#fff"/><stop offset=".301" stop-color="#f4ce51"/><stop offset=".341" stop-color="#f9e7aa"/><stop offset="1" stop-color="#efbb0e"/></linearGradient><linearGradient x1="120" y1="186.5" x2="136" y2="186.5" xlink:href="#l" gradientUnits="userSpaceOnUse" gradientTransform="translate(0 67)"/><linearGradient id="l"><stop offset="0" stop-color="#f9e295"/><stop offset=".125" stop-color="#f7dd84"/><stop offset=".206" stop-color="#fff"/><stop offset=".301" stop-color="#f4ce51"/><stop offset=".341" stop-color="#f9e7aa"/><stop offset="1" stop-color="#efbb0e"/></linearGradient><linearGradient id="q"><stop offset="0" stop-color="#d0e9f2" stop-opacity="0"/><stop offset=".839" stop-color="#d0e9f2" stop-opacity="0"/><stop offset=".943" stop-color="#d0e9f2" stop-opacity=".282"/><stop offset="1" stop-color="#d0e9f2"/></linearGradient><linearGradient id="p"><stop offset="0" stop-color="#2d3335"/><stop offset=".5" stop-color="#4c464a"/><stop offset="1" stop-color="#384042"/></linearGradient><linearGradient><stop offset="0" stop-color="#2d3335"/><stop offset=".5" stop-color="#4c464a"/><stop offset="1" stop-color="#384042"/></linearGradient><linearGradient id="o"><stop offset="0" stop-color="#f9e295"/><stop offset=".125" stop-color="#f7dd84"/><stop offset=".206" stop-color="#fff"/><stop offset=".301" stop-color="#f4ce51"/><stop offset=".341" stop-color="#f9e7aa"/><stop offset="1" stop-color="#efbb0e"/></linearGradient><linearGradient id="n"><stop offset="0" stop-color="#2d3335"/><stop offset=".5" stop-color="#4c464a"/><stop offset="1" stop-color="#384042"/></linearGradient><linearGradient id="m"><stop offset="0" stop-color="#f9e295"/><stop offset=".125" stop-color="#f7dd84"/><stop offset=".206" stop-color="#fff"/><stop offset=".301" stop-color="#f4ce51"/><stop offset=".341" stop-color="#f9e7aa"/><stop offset="1" stop-color="#efbb0e"/></linearGradient><linearGradient x1="120" y1="186.5" x2="136" y2="186.5" id="aF" xlink:href="#m" gradientUnits="userSpaceOnUse" gradientTransform="matrix(.359 .359 -.359 .359 25.029 -21.577)"/><linearGradient x1="123" y1="150.375" x2="133" y2="150.375" id="aK" xlink:href="#n" gradientUnits="userSpaceOnUse" gradientTransform="matrix(-.717 -.717 -.635 .635 217.855 61.037)"/><linearGradient x1="120" y1="186.5" x2="136" y2="186.5" id="aJ" xlink:href="#o" gradientUnits="userSpaceOnUse" gradientTransform="matrix(.359 .359 -.359 .359 49.058 -45.606)"/><linearGradient x1="123" y1="150.375" x2="133" y2="150.375" id="aI" xlink:href="#p" gradientUnits="userSpaceOnUse" gradientTransform="matrix(-.359 -.359 -.359 .359 140.872 46.207)"/><linearGradient x1="128" y1="134.359" x2="130.875" y2="143.359" id="aH" xlink:href="#p" gradientUnits="userSpaceOnUse" gradientTransform="matrix(.359 .359 -.359 .359 49.058 -45.606)"/><radialGradient cx="128" cy="86" r="47" fx="128" fy="86" id="aG" xlink:href="#q" gradientUnits="userSpaceOnUse" gradientTransform="matrix(.366 .366 .366 -.366 -14.262 15.76)"/><linearGradient x1="123" y1="150.375" x2="133" y2="150.375" xlink:href="#r" gradientUnits="userSpaceOnUse" gradientTransform="matrix(-1.969 -1.969 -1.742 1.742 596.186 177.511)"/><linearGradient id="r"><stop offset="0" stop-color="#2d3335"/><stop offset=".5" stop-color="#4c464a"/><stop offset="1" stop-color="#384042"/></linearGradient><linearGradient x1="108.003" y1="167.727" x2="133" y2="150.375" id="aL" xlink:href="#c" gradientUnits="userSpaceOnUse" gradientTransform="matrix(-.717 -.717 -.635 .635 217.855 61.037)"/><radialGradient cx="159.613" cy="72.588" r="38.417" fx="159.613" fy="72.588" id="aO" xlink:href="#s" gradientUnits="userSpaceOnUse" gradientTransform="matrix(.442 0 0 .306 -16.277 9.033)"/><radialGradient cx="159.613" cy="72.588" r="38.417" fx="159.613" fy="72.588" xlink:href="#t" gradientUnits="userSpaceOnUse" gradientTransform="matrix(1 0 0 .692 -1.414 17.754)"/><linearGradient id="t"><stop offset="0" stop-color="#fff"/><stop offset="1" stop-color="#fff" stop-opacity="0"/></linearGradient><radialGradient cx="159.613" cy="72.588" r="38.417" fx="159.613" fy="72.588" xlink:href="#t" gradientUnits="userSpaceOnUse" gradientTransform="matrix(1 0 0 .692 -1.414 17.754)"/><radialGradient cx="159.613" cy="72.588" r="38.417" fx="159.613" fy="72.588" xlink:href="#t" gradientUnits="userSpaceOnUse" gradientTransform="matrix(1 0 0 .692 -1.414 17.754)"/><radialGradient cx="159.613" cy="72.588" r="38.417" fx="159.613" fy="72.588" xlink:href="#t" gradientUnits="userSpaceOnUse" gradientTransform="matrix(1 0 0 .692 -1.414 17.754)"/><radialGradient cx="159.613" cy="72.588" r="38.417" fx="159.613" fy="72.588" xlink:href="#t" gradientUnits="userSpaceOnUse" gradientTransform="matrix(1 0 0 .692 -1.414 17.754)"/><radialGradient cx="159.613" cy="72.588" r="38.417" fx="159.613" fy="72.588" id="aN" xlink:href="#t" gradientUnits="userSpaceOnUse" gradientTransform="matrix(.442 0 0 .306 -16.121 9.502)"/><radialGradient cx="128" cy="86" r="47" fx="128" fy="86" xlink:href="#u" gradientUnits="userSpaceOnUse" gradientTransform="matrix(1.005 1.005 1.005 -1.005 -40.838 53.253)"/><linearGradient id="u"><stop offset="0" stop-color="#d0e9f2" stop-opacity="0"/><stop offset=".839" stop-color="#d0e9f2" stop-opacity="0"/><stop offset=".943" stop-color="#d0e9f2" stop-opacity=".282"/><stop offset="1" stop-color="#d0e9f2"/></linearGradient><linearGradient x1="126.643" y1="29.815" x2="179.961" y2="137.196" id="aM" xlink:href="#v" gradientUnits="userSpaceOnUse" gradientTransform="matrix(.364 0 0 .364 .618 -3.644)"/><linearGradient x1="126.643" y1="29.815" x2="179.961" y2="137.196" xlink:href="#w" gradientUnits="userSpaceOnUse"/><linearGradient id="w"><stop offset="0" stop-color="#fff"/><stop offset="1" stop-color="#fff" stop-opacity="0"/></linearGradient><linearGradient x1="126.643" y1="29.815" x2="179.961" y2="137.196" id="aP" xlink:href="#w" gradientUnits="userSpaceOnUse" gradientTransform="matrix(-.183 .072 .072 -.158 101.243 44.97)"/><linearGradient x1="126.643" y1="29.815" x2="179.961" y2="137.196" xlink:href="#x" gradientUnits="userSpaceOnUse"/><linearGradient id="x"><stop offset="0" stop-color="#fff"/><stop offset="1" stop-color="#fff" stop-opacity="0"/></linearGradient><radialGradient cx="159.613" cy="72.588" r="38.417" fx="159.613" fy="72.588" xlink:href="#y" gradientUnits="userSpaceOnUse" gradientTransform="matrix(1.212 0 0 .839 -47.895 34.408)"/><linearGradient id="y"><stop offset="0" stop-color="#fff"/><stop offset="1" stop-color="#fff" stop-opacity="0"/></linearGradient><radialGradient cx="159.613" cy="72.588" r="38.417" fx="159.613" fy="72.588" xlink:href="#y" gradientUnits="userSpaceOnUse" gradientTransform="matrix(1.212 0 0 .839 -47.895 34.408)"/><radialGradient cx="159.613" cy="72.588" r="38.417" fx="159.613" fy="72.588" xlink:href="#y" gradientUnits="userSpaceOnUse" gradientTransform="matrix(1.212 0 0 .839 -47.895 34.408)"/><radialGradient cx="159.613" cy="72.588" r="38.417" fx="159.613" fy="72.588" xlink:href="#y" gradientUnits="userSpaceOnUse" gradientTransform="matrix(1.212 0 0 .839 -47.895 34.408)"/><radialGradient cx="159.613" cy="72.588" r="38.417" fx="159.613" fy="72.588" xlink:href="#y" gradientUnits="userSpaceOnUse" gradientTransform="matrix(1.212 0 0 .839 -47.895 34.408)"/><radialGradient cx="159.613" cy="72.588" r="38.417" fx="159.613" fy="72.588" xlink:href="#y" gradientUnits="userSpaceOnUse" gradientTransform="matrix(1.212 0 0 .839 -47.895 34.408)"/><radialGradient cx="159.613" cy="72.588" r="38.417" fx="159.613" fy="72.588" xlink:href="#z" gradientUnits="userSpaceOnUse" gradientTransform="matrix(1.212 0 0 .839 -47.895 34.408)"/><linearGradient id="z"><stop offset="0" stop-color="#fff"/><stop offset="1" stop-color="#fff" stop-opacity="0"/></linearGradient><radialGradient cx="159.613" cy="72.588" r="38.417" fx="159.613" fy="72.588" xlink:href="#z" gradientUnits="userSpaceOnUse" gradientTransform="matrix(1.212 0 0 .839 -47.895 34.408)"/><radialGradient cx="159.613" cy="72.588" r="38.417" fx="159.613" fy="72.588" xlink:href="#z" gradientUnits="userSpaceOnUse" gradientTransform="matrix(1.212 0 0 .839 -47.895 34.408)"/><radialGradient cx="159.613" cy="72.588" r="38.417" fx="159.613" fy="72.588" xlink:href="#z" gradientUnits="userSpaceOnUse" gradientTransform="matrix(1.212 0 0 .839 -47.895 34.408)"/><radialGradient cx="159.613" cy="72.588" r="38.417" fx="159.613" fy="72.588" xlink:href="#z" gradientUnits="userSpaceOnUse" gradientTransform="matrix(1.212 0 0 .839 -47.895 34.408)"/><radialGradient cx="159.613" cy="72.588" r="38.417" fx="159.613" fy="72.588" xlink:href="#z" gradientUnits="userSpaceOnUse" gradientTransform="matrix(1.212 0 0 .839 -47.895 34.408)"/><linearGradient><stop offset="0" stop-color="#fff"/><stop offset="1" stop-color="#fff" stop-opacity="0"/></linearGradient><radialGradient cx="159.613" cy="72.588" r="38.417" fx="159.613" fy="72.588" xlink:href="#A" gradientUnits="userSpaceOnUse" gradientTransform="matrix(1.212 0 0 .839 -47.895 34.408)"/><linearGradient id="A"><stop offset="0" stop-color="#fff"/><stop offset=".5" stop-color="#fff" stop-opacity=".931"/><stop offset="1" stop-color="#fff" stop-opacity="0"/></linearGradient><radialGradient cx="159.613" cy="72.588" r="38.417" fx="159.613" fy="72.588" xlink:href="#A" gradientUnits="userSpaceOnUse" gradientTransform="matrix(1.212 0 0 .839 -47.895 34.408)"/><linearGradient><stop offset="0" stop-color="#fff"/><stop offset=".5" stop-color="#fff" stop-opacity=".931"/><stop offset="1" stop-color="#fff" stop-opacity="0"/></linearGradient><radialGradient cx="159.613" cy="72.588" r="38.417" fx="159.613" fy="72.588" xlink:href="#A" gradientUnits="userSpaceOnUse" gradientTransform="matrix(1.212 0 0 .839 -47.895 34.408)"/><linearGradient><stop offset="0" stop-color="#fff"/><stop offset=".5" stop-color="#fff" stop-opacity=".931"/><stop offset="1" stop-color="#fff" stop-opacity="0"/></linearGradient><radialGradient cx="159.613" cy="72.588" r="38.417" fx="159.613" fy="72.588" xlink:href="#A" gradientUnits="userSpaceOnUse" gradientTransform="matrix(1.212 0 0 .839 -47.895 34.408)"/><linearGradient><stop offset="0" stop-color="#fff"/><stop offset=".5" stop-color="#fff" stop-opacity=".931"/><stop offset="1" stop-color="#fff" stop-opacity="0"/></linearGradient><radialGradient cx="159.613" cy="72.588" r="38.417" fx="159.613" fy="72.588" xlink:href="#A" gradientUnits="userSpaceOnUse" gradientTransform="matrix(1.212 0 0 .839 -47.895 34.408)"/><linearGradient><stop offset="0" stop-color="#fff"/><stop offset=".5" stop-color="#fff" stop-opacity=".931"/><stop offset="1" stop-color="#fff" stop-opacity="0"/></linearGradient><radialGradient cx="159.613" cy="72.588" r="38.417" fx="159.613" fy="72.588" xlink:href="#B" gradientUnits="userSpaceOnUse" gradientTransform="matrix(1.212 0 0 .839 -47.467 35.694)"/><linearGradient id="B"><stop offset="0" stop-color="#fff"/><stop offset="1" stop-color="#fff" stop-opacity="0"/></linearGradient><radialGradient cx="159.613" cy="72.588" r="38.417" fx="159.613" fy="72.588" xlink:href="#B" gradientUnits="userSpaceOnUse" gradientTransform="matrix(1.212 0 0 .839 -47.467 35.694)"/><radialGradient cx="159.613" cy="72.588" r="38.417" fx="159.613" fy="72.588" xlink:href="#B" gradientUnits="userSpaceOnUse" gradientTransform="matrix(1.212 0 0 .839 -47.467 35.694)"/><radialGradient cx="159.613" cy="72.588" r="38.417" fx="159.613" fy="72.588" xlink:href="#B" gradientUnits="userSpaceOnUse" gradientTransform="matrix(1.212 0 0 .839 -47.467 35.694)"/><radialGradient cx="159.613" cy="72.588" r="38.417" fx="159.613" fy="72.588" xlink:href="#B" gradientUnits="userSpaceOnUse" gradientTransform="matrix(1.212 0 0 .839 -47.467 35.694)"/><linearGradient><stop offset="0" stop-color="#f9e295"/><stop offset=".125" stop-color="#f7dd84"/><stop offset=".206" stop-color="#fff"/><stop offset=".301" stop-color="#f4ce51"/><stop offset=".341" stop-color="#f9e7aa"/><stop offset="1" stop-color="#efbb0e"/></linearGradient><linearGradient><stop offset="0"/><stop offset="1" stop-opacity="0"/></linearGradient><linearGradient><stop offset="0" stop-color="#2d3335"/><stop offset=".5" stop-color="#4c464a"/><stop offset="1" stop-color="#384042"/></linearGradient><linearGradient><stop offset="0" stop-color="#f9e295"/><stop offset=".125" stop-color="#f7dd84"/><stop offset=".206" stop-color="#fff"/><stop offset=".301" stop-color="#f4ce51"/><stop offset=".341" stop-color="#f9e7aa"/><stop offset="1" stop-color="#efbb0e"/></linearGradient><linearGradient><stop offset="0" stop-color="#2d3335"/><stop offset=".5" stop-color="#4c464a"/><stop offset="1" stop-color="#384042"/></linearGradient><linearGradient><stop offset="0" stop-color="#2d3335"/><stop offset=".5" stop-color="#4c464a"/><stop offset="1" stop-color="#384042"/></linearGradient><linearGradient><stop offset="0" stop-color="#d0e9f2" stop-opacity="0"/><stop offset=".839" stop-color="#d0e9f2" stop-opacity="0"/><stop offset=".943" stop-color="#d0e9f2" stop-opacity=".282"/><stop offset="1" stop-color="#d0e9f2"/></linearGradient><filter color-interpolation-filters="sRGB" id="aE"><feGaussianBlur stdDeviation="4.287"/></filter><linearGradient x1="210.172" y1="72.064" x2="9" y2="-213.253" xlink:href="#C" gradientUnits="userSpaceOnUse"/><linearGradient id="C"><stop offset="0"/><stop offset="1" stop-opacity="0"/></linearGradient><linearGradient x1="210.172" y1="72.064" x2="9" y2="-213.253" xlink:href="#D" gradientUnits="userSpaceOnUse"/><linearGradient id="D"><stop offset="0"/><stop offset="1" stop-opacity="0"/></linearGradient><linearGradient x1="210.172" y1="72.064" x2="9" y2="-213.253" xlink:href="#E" gradientUnits="userSpaceOnUse"/><linearGradient id="E"><stop offset="0"/><stop offset="1" stop-opacity="0"/></linearGradient><linearGradient x1="210.172" y1="72.064" x2="9" y2="-213.253" xlink:href="#E" gradientUnits="userSpaceOnUse" gradientTransform="matrix(1 -.081 0 1 0 203.056)"/><linearGradient><stop offset="0"/><stop offset="1" stop-opacity="0"/></linearGradient><linearGradient><stop offset="0"/><stop offset="1" stop-opacity="0"/></linearGradient><linearGradient><stop offset="0"/><stop offset="1" stop-opacity="0"/></linearGradient><linearGradient><stop offset="0"/><stop offset="1" stop-opacity="0"/></linearGradient><linearGradient><stop offset="0"/><stop offset="1" stop-opacity="0"/></linearGradient><linearGradient><stop offset="0"/><stop offset="1" stop-opacity="0"/></linearGradient><linearGradient><stop offset="0"/><stop offset="1" stop-opacity="0"/></linearGradient><linearGradient><stop offset="0"/><stop offset="1" stop-opacity="0"/></linearGradient><linearGradient><stop offset="0"/><stop offset="1" stop-opacity="0"/></linearGradient><clipPath><path d="M9 12.25s7.5 13 11.75 27.75L27 65.5s-5.5 12.75-8.25 24.75l-5.75 23s5.75 16 9.25 30L26 167.5s-4 10.25-7.5 24.25l-5 30.75s9.25-2 28.5 1.25l32.25 6s12.75-2.75 24-6.25l16.25-6.5s5.5.5 22.5 6.25l29.25 8.5s13-2.75 26-5.75l26.5-8s-.75-5 4.25-24.5l8.75-28s-.5-4.5-3.75-19.75L218 116s1.75-10.5 6.75-23.75L235 65.5s-4.75-15.25-7.5-29.75L219.25 10S195 19 187.5 20.5l-21 5.25s-9.75-4.25-22-8.5l-29.75-5.5s-3.25 3.5-22 8l-27.5 5.75s-18.5-9-31.5-11.5-24-2-24.75-1.75z"/></clipPath><clipPath><path d="M9 12.25s7.5 13 11.75 27.75L27 65.5s-5.5 12.75-8.25 24.75l-5.75 23s5.75 16 9.25 30L26 167.5s-4 10.25-7.5 24.25l-5 30.75s9.25-2 28.5 1.25l32.25 6s12.75-2.75 24-6.25l16.25-6.5s5.5.5 22.5 6.25l29.25 8.5s13-2.75 26-5.75l26.5-8s-.75-5 4.25-24.5l8.75-28s-.5-4.5-3.75-19.75L218 116s1.75-10.5 6.75-23.75L235 65.5s-4.75-15.25-7.5-29.75L219.25 10S195 19 187.5 20.5l-21 5.25s-9.75-4.25-22-8.5l-29.75-5.5s-3.25 3.5-22 8l-27.5 5.75s-18.5-9-31.5-11.5-24-2-24.75-1.75z"/></clipPath><clipPath><path d="M9 12.25s7.5 13 11.75 27.75L27 65.5s-5.5 12.75-8.25 24.75l-5.75 23s5.75 16 9.25 30L26 167.5s-4 10.25-7.5 24.25l-5 30.75s9.25-2 28.5 1.25l32.25 6s12.75-2.75 24-6.25l16.25-6.5s5.5.5 22.5 6.25l29.25 8.5s13-2.75 26-5.75l26.5-8s-.75-5 4.25-24.5l8.75-28s-.5-4.5-3.75-19.75L218 116s1.75-10.5 6.75-23.75L235 65.5s-4.75-15.25-7.5-29.75L219.25 10S195 19 187.5 20.5l-21 5.25s-9.75-4.25-22-8.5l-29.75-5.5s-3.25 3.5-22 8l-27.5 5.75s-18.5-9-31.5-11.5-24-2-24.75-1.75z"/></clipPath><clipPath id="aj"><path d="M9 12.25s7.5 13 11.75 27.75L27 65.5s-5.5 12.75-8.25 24.75l-5.75 23s5.75 16 9.25 30L26 167.5s-4 10.25-7.5 24.25l-5 30.75s9.25-2 28.5 1.25l32.25 6s12.75-2.75 24-6.25l16.25-6.5s5.5.5 22.5 6.25l29.25 8.5s13-2.75 26-5.75l26.5-8s-.75-5 4.25-24.5l8.75-28s-.5-4.5-3.75-19.75L218 116s1.75-10.5 6.75-23.75L235 65.5s-4.75-15.25-7.5-29.75L219.25 10S195 19 187.5 20.5l-21 5.25s-9.75-4.25-22-8.5l-29.75-5.5s-3.25 3.5-22 8l-27.5 5.75s-18.5-9-31.5-11.5-24-2-24.75-1.75z"/></clipPath><clipPath id="ak"><path d="M9 12.25s7.5 13 11.75 27.75L27 65.5s-5.5 12.75-8.25 24.75l-5.75 23s5.75 16 9.25 30L26 167.5s-4 10.25-7.5 24.25l-5 30.75s9.25-2 28.5 1.25l32.25 6s12.75-2.75 24-6.25l16.25-6.5s5.5.5 22.5 6.25l29.25 8.5s13-2.75 26-5.75l26.5-8s-.75-5 4.25-24.5l8.75-28s-.5-4.5-3.75-19.75L218 116s1.75-10.5 6.75-23.75L235 65.5s-4.75-15.25-7.5-29.75L219.25 10S195 19 187.5 20.5l-21 5.25s-9.75-4.25-22-8.5l-29.75-5.5s-3.25 3.5-22 8l-27.5 5.75s-18.5-9-31.5-11.5-24-2-24.75-1.75z"/></clipPath><clipPath id="al"><path d="M9 12.25s7.5 13 11.75 27.75L27 65.5s-5.5 12.75-8.25 24.75l-5.75 23s5.75 16 9.25 30L26 167.5s-4 10.25-7.5 24.25l-5 30.75s9.25-2 28.5 1.25l32.25 6s12.75-2.75 24-6.25l16.25-6.5s5.5.5 22.5 6.25l29.25 8.5s13-2.75 26-5.75l26.5-8s-.75-5 4.25-24.5l8.75-28s-.5-4.5-3.75-19.75L218 116s1.75-10.5 6.75-23.75L235 65.5s-4.75-15.25-7.5-29.75L219.25 10S195 19 187.5 20.5l-21 5.25s-9.75-4.25-22-8.5l-29.75-5.5s-3.25 3.5-22 8l-27.5 5.75s-18.5-9-31.5-11.5-24-2-24.75-1.75z"/></clipPath><linearGradient x1="210.172" y1="72.064" x2="9" y2="-213.253" id="am" xlink:href="#F" gradientUnits="userSpaceOnUse" gradientTransform="translate(0 192)"/><linearGradient id="F"><stop offset="0"/><stop offset="1" stop-opacity="0"/></linearGradient><linearGradient x1="214.25" y1="-161.359" x2="166.5" y2="-113.719" id="an" xlink:href="#G" gradientUnits="userSpaceOnUse"/><linearGradient id="G"><stop offset="0" stop-color="#fff"/><stop offset="1" stop-color="#fff" stop-opacity="0"/></linearGradient><linearGradient x1="53.25" y1="-126.5" x2="57.656" y2="-62.469" id="ao" xlink:href="#G" gradientUnits="userSpaceOnUse"/><linearGradient x1="39.5" y1="6.625" x2="75.719" y2="-17.125" id="ap" xlink:href="#G" gradientUnits="userSpaceOnUse"/><linearGradient x1="102" y1="-162.344" x2="85.313" y2="-121.438" id="aq" xlink:href="#G" gradientUnits="userSpaceOnUse"/><linearGradient x1="117.75" y1="-78.094" x2="63.5" y2="-14.75" id="ar" xlink:href="#G" gradientUnits="userSpaceOnUse"/><linearGradient x1="180.687" y1="-125.125" x2="133.937" y2="-60.75" id="as" xlink:href="#G" gradientUnits="userSpaceOnUse"/><linearGradient x1="170.75" y1="-23.5" x2="130.219" y2="33.375" id="at" xlink:href="#G" gradientUnits="userSpaceOnUse"/><linearGradient x1="213.5" y1="-76" x2="181.75" y2="-5.656" id="au" xlink:href="#G" gradientUnits="userSpaceOnUse"/><linearGradient x1="94.25" y1="-94.672" x2="9" y2="-179.969" id="av" xlink:href="#H" gradientUnits="userSpaceOnUse"/><linearGradient id="H"><stop offset="0"/><stop offset="1" stop-opacity="0"/></linearGradient><linearGradient x1="50.75" y1="-114.438" x2="35.75" y2="-30.438" id="aw" xlink:href="#H" gradientUnits="userSpaceOnUse"/><linearGradient><stop offset="0"/><stop offset="1" stop-opacity="0"/></linearGradient><linearGradient x1="77.625" y1="-163.125" x2="115.25" y2="-74.625" id="ax" xlink:href="#H" gradientUnits="userSpaceOnUse"/><linearGradient><stop offset="0"/><stop offset="1" stop-opacity="0"/></linearGradient><linearGradient x1="56.5" y1="-50.438" x2="125.719" y2="7.063" id="ay" xlink:href="#H" gradientUnits="userSpaceOnUse"/><linearGradient><stop offset="0"/><stop offset="1" stop-opacity="0"/></linearGradient><linearGradient x1="35" y1="-163.297" x2="180.75" y2="-146.797" id="az" xlink:href="#H" gradientUnits="userSpaceOnUse"/><linearGradient><stop offset="0"/><stop offset="1" stop-opacity="0"/></linearGradient><linearGradient x1="57" y1="-141.109" x2="179" y2="-41.609" id="aA" xlink:href="#H" gradientUnits="userSpaceOnUse"/><linearGradient><stop offset="0"/><stop offset="1" stop-opacity="0"/></linearGradient><linearGradient x1="156" y1="-26.5" x2="208.25" y2="39.75" id="aB" xlink:href="#H" gradientUnits="userSpaceOnUse"/><linearGradient><stop offset="0"/><stop offset="1" stop-opacity="0"/></linearGradient><linearGradient x1="142.75" y1="-169.297" x2="235" y2="-77.297" id="aC" xlink:href="#H" gradientUnits="userSpaceOnUse"/><linearGradient><stop offset="0"/><stop offset="1" stop-opacity="0"/></linearGradient><radialGradient cx="128" cy="86" r="47" fx="128" fy="86" xlink:href="#I" gradientUnits="userSpaceOnUse" gradientTransform="matrix(1.005 1.005 1.005 -1.005 -40.838 53.253)"/><linearGradient id="I"><stop offset="0" stop-color="#d0e9f2" stop-opacity="0"/><stop offset=".839" stop-color="#d0e9f2" stop-opacity="0"/><stop offset=".943" stop-color="#d0e9f2" stop-opacity=".282"/><stop offset="1" stop-color="#d0e9f2"/></linearGradient><clipPath id="ai"><path d="M123.623 141.062c20.832 20.243 54.607 19.29 75.44-2.132 20.83-21.42 20.83-55.196 0-75.44-20.833-20.242-54.608-19.288-75.44 2.133-20.832 21.42-20.832 55.196 0 75.44z"/></clipPath><radialGradient cx="128" cy="86" r="47" fx="128" fy="86" xlink:href="#I" gradientUnits="userSpaceOnUse" gradientTransform="matrix(.803 .78 .803 -.825 -10.402 73.423)"/><filter color-interpolation-filters="sRGB" id="L"><feGaussianBlur stdDeviation="6.311"/></filter><linearGradient x1="210.172" y1="72.064" x2="9" y2="-213.253" xlink:href="#J" gradientUnits="userSpaceOnUse"/><linearGradient id="J"><stop offset="0"/><stop offset="1" stop-opacity="0"/></linearGradient><filter color-interpolation-filters="sRGB" id="N"><feGaussianBlur stdDeviation="4.457"/></filter><linearGradient x1="122" y1="245.448" x2="122" y2="4.302" id="M" xlink:href="#K" gradientUnits="userSpaceOnUse"/><linearGradient x1="210.172" y1="72.064" x2="9" y2="-213.253" xlink:href="#E" gradientUnits="userSpaceOnUse" gradientTransform="translate(0 182)"/><clipPath id="aD"><path d="M9 22.578s7.5 12.393 11.75 26.8C25 63.784 27 74.373 27 74.373s-5.5 13.195-8.25 25.417C16 112.012 13 123.255 13 123.255s5.75 15.535 9.25 29.252c3.5 13.717 3.75 23.947 3.75 23.947s-4 10.574-7.5 24.857l-5 31.155s9.25-2.748 28.5-1.055c19.25 1.693 32.25 3.392 32.25 3.392s12.75-3.78 24-8.19l16.25-7.815s5.5.055 22.5 4.43l29.25 6.134s13-3.8 26-7.852c13-4.05 26.5-10.143 26.5-10.143s-.75-4.94 4.25-24.844c5-19.903 8.75-28.707 8.75-28.707s-.514-4.455-3.75-19.447c-1.75-8.108-2.25-4.068-2.25-4.068s16.264-26.155 16.5-40.334C242.5 78.944 235 57.55 235 57.55s-4.75-14.866-7.5-29.143c-2.75-14.278-8.25-25.083-8.25-25.083S195 14.284 187.5 16.392c-7.5 2.107-21 6.948-21 6.948s-9.75-3.46-22-6.72-29.75-3.095-29.75-3.095-3.25 3.763-22 9.78l-27.5 7.973s-18.5-7.504-31.5-8.952c-13-1.45-24-.06-24.75.252z"/></clipPath><linearGradient x1="210.172" y1="72.064" x2="9" y2="-213.253" xlink:href="#E" gradientUnits="userSpaceOnUse" gradientTransform="matrix(1 -.081 0 1 0 203.056)"/></defs><path d="M64.122 25.286c-6.412-.442-12.823 1.17-17.752 4.934l-.182.132c-8.037 6.27-9.55 16.433-4.543 24.9l-.83.444c.818 1.368 1.8 2.694 2.948 3.955l-4.85 3.794c-.49-.215-1.017-.39-1.664-.54l-1.037.808c-.404-.177-.78-.306-1.116-.347L11.73 81.59c-.012.34.083.682.24 1.03l-.193.152-.4.31c.262 1.175.733 2.162 1.994 3.32 1.26 1.156 2.34 1.593 3.747 1.95l.4-.312.26-.204c.397.17.777.296 1.128.34L42.27 69.95c-.088-.308-.225-.615-.375-.926l1.093-.852c-.09-.542-.247-1.007-.478-1.454l4.84-3.775c1.39 1.07 2.872 2.006 4.417 2.81l.592-.666c9.564 4.91 21.66 4.46 29.696-1.808l.17-.144c9.728-7.75 9.675-21.272-.17-30.31-4.952-4.546-11.444-7.092-17.934-7.54zm109.977 45.112l.113.008c.346.03.69.068 1.036.11.348.043.698.094 1.047.15l.102.017.102.017.16.03c.326.056.653.116.98.184.224.047.446.1.67.152l.376.084c.264.065.523.136.786.21l.342.09.08.025c.348.102.69.207 1.036.323l.08.024c.344.117.694.242 1.036.372l.057.023c.348.133.693.273 1.036.42l.058.023c.343.147.687.306 1.025.467l.045.022c.34.163.68.328 1.014.504l.034.022c.338.18.67.36 1.002.553l.034.02c.33.194.656.393.98.6.2.128.395.265.592.4.133.09.267.176.398.268l.023.01c.32.226.634.466.945.704.636.488 1.25 1.003 1.845 1.55.59.54 1.143 1.1 1.663 1.67l.01.01c.257.282.514.566.753.854.104.125.197.253.297.38.135.168.27.338.4.51l.022.02c.217.29.424.58.625.875l.023.03c.2.294.387.594.57.892l.023.03c.182.297.348.594.513.896l.023.04c.162.3.32.6.467.902l.023.05c.144.3.282.606.41.908l.022.05c.127.302.243.6.354.904l.022.07c.108.298.205.6.297.9l.024.068.08.296c.064.227.126.452.182.68l.068.323c.044.193.088.384.126.578.053.28.096.56.136.84l.023.138.01.088.012.088c.037.298.07.597.09.895.022.293.04.59.046.883v.097c.006.326.002.65-.01.976-.013.287-.032.57-.058.856l-.01.114c-.03.282-.062.564-.103.844-.045.293-.1.588-.16.878l-.01.077-.024.114c-.06.277-.13.553-.205.827l-.035.123c-.075.27-.16.538-.25.804-.06.18-.128.354-.194.53-.065.17-.125.34-.194.508-.108.26-.22.514-.342.77l-.07.14-.044.103c-.13.263-.265.517-.41.775-.138.245-.282.483-.433.724l-.09.138c-.152.236-.304.47-.468.702l-.103.148c-.073.1-.153.195-.228.293-.133.175-.27.344-.41.514v.01c-.18.218-.367.435-.56.648-.165.185-.346.363-.523.544l-.205.227-.148.144-.182.172c-.203.19-.412.378-.626.565-.22.192-.45.385-.684.57l-.17.144c-7.7 6.005-19.043 6.263-28.126 1.51l.045-.055c-1.348-.68-2.645-1.464-3.87-2.365-.196-.144-.388-.296-.58-.446-.188-.146-.375-.293-.56-.445l-.1-.085c-.3-.252-.59-.51-.878-.776-.29-.267-.57-.53-.843-.803l-.092-.094c-.164-.167-.32-.336-.478-.506-.162-.175-.324-.35-.48-.527-.96-1.107-1.78-2.263-2.47-3.457l-.068.034c-4.86-8.048-3.634-17.593 4.065-23.598l.182-.133c.237-.182.484-.36.728-.53.237-.166.474-.327.717-.482l.297-.193c.125-.077.26-.14.387-.215.226-.133.45-.272.682-.397.27-.146.546-.283.82-.417.212-.104.422-.207.638-.304.163-.074.325-.15.49-.22.248-.104.5-.2.75-.295l.195-.074c.344-.127.685-.25 1.036-.362.317-.1.626-.195.946-.283l.17-.036c.354-.096.702-.188 1.06-.267.204-.045.41-.082.615-.122.213-.04.425-.083.64-.12.32-.053.643-.103.966-.145l.08-.004c.152-.018.304-.038.456-.055.245-.026.494-.054.74-.074l.09-.003c.347-.026.7-.05 1.048-.063.716-.027 1.432-.025 2.152.004.384.015.767.04 1.15.07z" opacity=".7" fill="#2d3335" filter="url(#L)"/><path d="M3.898 15.403s2.733 3.395 4.28 7.947c1.55 4.552 2.278 7.87 2.278 7.87s-2.004 3.934-3.006 7.638c-1.002 3.704-2.095 7.716-2.095 7.716s2.095 4.938 3.37 9.26l1.367 6.866s-1.457 3.163-2.733 7.484c-1.276 4.32-1.823 9.49-1.823 9.49s3.37-.617 10.385.386l11.75 1.852s4.647-.85 8.746-1.93c4.1-1.08 5.922-2.005 5.922-2.005s2.004.154 8.198 1.93c6.194 1.773 10.658 2.622 10.658 2.622s4.737-.85 9.474-1.775l9.656-2.47s-.273-1.543 1.55-7.56l3.187-8.643s-.182-.77-1.367-5.478c-1.184-4.706-3.643-9.18-3.643-9.18s.637-3.86 2.46-7.948c1.82-4.09 3.734-8.256 3.734-8.256s-1.73-4.707-2.733-9.182l-3.006-7.33s-8.836 2.778-11.57 3.24c-2.732.464-7.65 1.62-7.65 1.62s-3.553-1.31-8.017-2.622c-4.463-1.312-10.84-1.698-10.84-1.698s-1.184 1.08-8.016 2.47l-10.02 1.774s-6.74-2.778-11.478-3.55c-4.737-.77-8.745-.616-9.018-.54z" opacity=".5" fill="url(#M)" filter="url(#N)"/><path d="M3.898.82s2.733 4.737 4.28 10.11l2.278 9.293S8.452 24.87 7.45 29.24l-2.095 8.382s2.095 5.83 3.37 10.93l1.367 8.838s-1.457 3.734-2.733 8.836L5.536 77.43s3.37-.728 10.385.456l11.75 2.186s4.647-1.002 8.746-2.277l5.922-2.37s2.004.183 8.198 2.28L61.196 80.8s4.737-1 9.474-2.094l9.656-2.915s-.273-1.82 1.55-8.927l3.187-10.202s-.182-1.64-1.367-7.196l-3.643-10.84s.637-3.826 2.46-8.654l3.734-9.747s-1.73-5.557-2.733-10.84L80.508 0s-8.836 3.28-11.57 3.826L61.29 5.74S57.734 4.19 53.27 2.64L42.43.638s-1.184 1.275-8.016 2.915l-10.02 2.095s-6.74-3.28-11.478-4.19C8.18.548 4.17.728 3.898.82z" fill="#ceeeab"/><path d="M40.973-1.64L39.425.91c-.274 3.28-.82 5.01-3.098 6.013C34.05 7.925 31.864 8.2 32.32 9.656c.455 1.458 4.736 3.37 5.192 4.737.455 1.366 3.006.638 4.008 2.55 1.002 1.914.728 5.557-1.367 6.286-2.095.728-6.376.18-7.378 3.46-1.002 3.28-1.73 3.827-3.28 4.646-1.548.82-2.642 3.826-1.275 6.013 1.366 2.185 4.464-.457 5.466-2.37l2.64-3.188h8.655l21.5-.638 1.184-1.366s1.184 1.457 1.002 3.188c-.182 1.73-1.367 5.375.09 6.286 1.458.91 7.106-.73 8.746-2.55 1.64-1.823-1.73-10.295-3.826-10.75-2.095-.456-6.74-.638-6.194-2.55.546-1.914 4.28 1.64 6.285 1.184 2.004-.456 6.103-7.652 4.373-9.2-1.73-1.55-8.836-1.914-9.383-2.916-.547-1.002 7.652-2.915 8.107-4.008.456-1.093-.91-2.642-2.277-3.097-1.366-.456-5.1 5.92-7.652 5.74-2.55-.184-7.288 2.094-6.285 4.19 1.002 2.094-2.187 4.007-5.284 2.367-3.097-1.64-9.018-4.737-7.925-8.745l7.835-6.832L40.973-1.64zm64.835 36.208c-.58.053-1.628 1.708-1.8 2.562-.182.91-1.184 2.46-1.275 4.464-.09 2.004 1.73 2.46 3.19 2.368 1.456-.09 1-2.46.727-5.465-.09 0-.182-3.735-.728-3.917-.035-.012-.075-.015-.114-.012zm25.164 86.973c-2.31.11-2.414 2.723-2.7 3.235-.454.82.82 5.01.73 6.56-.09 1.548-1.73 1.912-3.462 3.552-1.73 1.64.183 5.83 4.1 11.295l16.305.456-.364-12.753s1.732-1.55-7.56-8.837c-3.484-2.732-5.663-3.57-7.048-3.507zm4.29 38.86c-1.47-.04-3.02 2.082-3.53 2.766-.548.728-2.28 1.822-6.196 3.46l-5.283 12.48 19.312 1.55s.637-4.008-1.55-5.74c-2.185-1.73-6.284-2.094-6.65-4.827-.363-2.734 3.372-3.645 5.01-5.194 1.64-1.548.73-4.1-.82-4.463-.095-.023-.197-.032-.295-.034z" clip-path="url(#O)" fill="#a6dd8b"/><path d="M58.383 27.454c-1.734-.005-3.29.353-4.2 1.15-2.916 2.55-12.754.273-17.674 2.55C31.59 33.432 31.68 45 31.134 47.37c-.547 2.368-6.377 7.56-7.288 8.562-.91 1.002-4.828 2.642-7.105 3.097-2.277.455-4.646 2.64-5.648 4.007-.736 1.005-2.698 2.35-3.69 2.995l-.045.194c-.05.195-.09.394-.137.592 1.814-.585 4.073-2.98 6.057-4.965 2.278-2.277 7.288-2.824 10.112-4.19 2.824-1.367 5.192-7.197 9.656-8.654 4.464-1.46 7.743 4.28 8.836 6.74s.638 4.646 1.366 6.194c.73 1.55 4.01 4.282 4.19 4.92.183.637-1.82 2.368-2.277 3.097-.455.73-3.825 2.55-4.28 3.19-.353.49-.702 2.467-.844 3.358l.41-.17c.176-.922.55-2.58 1.07-3.098.728-.73 4.1-1.64 4.554-3.097l2.55-2.37s1.003 1.46 5.83 5.103c3.22 2.43 4.65 5.66 5.25 7.55l.74.193c-.445-1.575-1.762-5.92-3.256-7.562-1.822-2.004-6.74-3.917-8.29-8.017-1.55-4.098-8.927-12.478-6.377-14.665 2.552-2.186 6.014-1.457 10.386 2.733 4.373 4.19 16.853 2.095 21.043 1.366 3.626-.63 7.59 5.424 8.71 9.486.214-.764.41-1.46.603-2.096-.633-.7-1.347-1.683-1.936-3.017-1.366-3.097-4.372-4.828-4.372-4.828s3.188-1.823 5.374-2.825c.588-.27 1.095-.61 1.525-.968l-.16-.763-.034-.16c-1.735 2.027-7.006 3.504-7.89 3.986-1.002.547-6.65 1.093-13.026 1.64-6.377.547-9.747-2.733-12.48-5.375-2.733-2.64-4.737-13.117-1.093-13.846 3.645-.73 7.288 5.01 10.932 6.193 3.644 1.185 7.834-5.74 7.197-9.838-.44-2.818-5.1-4.6-8.917-4.61zm-19.437 4.84c.465 0 2.135.58 2.392.864.82.91.728 2.642 0 2.915-.73.274-4.646 2.915-3.826 5.193.82 2.277.637 6.56-1.276 6.56s-2.915 0-3.644-.912c-.728-.91-.728-4.373 0-7.197.73-2.824 1.276-5.465 2.915-6.65 1.128-.814 2.417-.775 3.44-.774zM43.9 58.926c.073.005.694 1.28 1.72 2.562 1.092 1.365 1.183 3.005 1.183 3.005s-1.548-1.73-2.186-2.915l-.73-2.642.012-.01z" fill="#aac3e7"/><path d="M45.346 22.683c2.277.182 4.463-.82 3.917-2.37-.547-1.548-4.555-2.64-4.828-1.092-.274 1.55.728 3.827.91 3.463zm-5.102-5.648c-3.097-2.004-3.097-2.642-2.55-2.915.546-.274 3.735 1.822 4.646 2.915.91 1.093-.82.728-2.096 0z" opacity=".387" stroke="#6d7f42" stroke-width=".364" stroke-linecap="round" stroke-linejoin="round" fill="none"/><path d="M6.357 51.468c12.025-.91 13.938-1.275 13.21-3.734-.73-2.46-3.19-8.563-8.382-8.2l-8.29-2.46m4.1 23.868c6.65-3.644 10.476-3.097 12.753-4.19 2.277-1.093 4.828-2.095 5.74-3.462.91-1.366 2.094-4.19 2.094-6.56 0-2.367-1.275-13.116 1.184-15.85 2.46-2.732 6.286-9.473 9.474-8.47 3.19 1 4.464 3.552 8.017 3.46 3.552-.09 7.925-1.457 8.836-4.463.91-3.006-5.74-5.83-5.83-8.38-.09-2.55 2.004-5.193 7.378-6.195l8.564-4.19M5.902 55.022c5.557-.548 8.107 1.274 11.478.637 3.37-.64 4.828-1.094 6.467-2.096 1.64-1.002 2.187-1.367 2.278-2.37.09-1 .364-4.554-1.093-8.015-1.458-3.463-4.555-11.48-3.007-14.12 1.55-2.643 1.913-7.835 5.74-8.928 3.825-1.093 7.65-2.277 10.11-.456 2.46 1.822 4.647 5.193 7.288 5.284 2.642.09 4.282-.547 5.284-1.64 1.002-1.093 1.64-3.735.638-5.01-1.002-1.275-5.648-2.004-6.286-3.462-.64-1.457-3.918-6.194-.092-9.747l13.21-3.005M8.36 54.292c5.012.365 7.835 1.55 12.208-.182 4.372-1.73 4.92-1.913 5.01-3.188.09-1.276-.09-5.74-1.093-7.288-1.002-1.548-4.737-5.01-5.74-8.836-1-3.826.092-14.94 3.098-17.58 3.006-2.643 11.66-2.643 13.664-3.827 2.005-1.183 1.913-6.102 4.737-8.926L50.084 0M69.85 3.097C74.132 4.92 84.06 6.65 87.067 17.763M4.17 74.333c6.924-4.555 13.12-.455 17.855-1.457 4.737-1.002 13.938-13.574 16.762-13.482 2.824.09 2.004-4.282 3.097-4.828 1.093-.547 2.004 2.186 4.282 2.915 2.277.73 8.927-1 8.562-2.095-.364-1.093-2.55-2.823-2.004-3.097.547-.273 3.098 1.822 4.646 1.276 1.55-.547 15.942-.365 17.672-4.92l7.835-4.92M28.857 81.44c4.92-4.19 8.472-9.11 10.385-9.838 1.913-.73 4.646-1.366 5.74-2.915 1.092-1.548.91-3.917 1.912-4.372 1.002-.456 1.367 2.095 3.19 2.186 1.82.09 13.39-1.823 15.576-4.282 2.186-2.46 11.75-4.555 11.842-5.284.09-.73-.364-1.73.09-2.004l9.02-2.186M62.106 82.35c3.28-5.01 7.47-14.94 10.75-15.304 3.28-.365 3.734-.91 4.554-1.55l6.195.82" clip-path="url(#P)" opacity=".387" stroke="#6d7f42" fill="none" stroke-width="0.364"/><path d="M21.66 3.644l-3.096 10.293 6.56 2.278 2.823 13.21-7.652 8.106 3.28 3.827-4.373 4.19.182 1.64 7.378 8.927 5.102-2.46 7.47 6.742-3.827 10.293 3.735 3.097-1.002 4.736m.91-4.828l4.556-10.11 4.008-2.552 10.02 5.74 7.47-1.367-.09-5.74-3.736-2.185 4.646-9.564 2.095-1.367 14.12-3.645" clip-path="url(#Q)" stroke="#d38484" stroke-width="0.728" stroke-linecap="round" fill="none"/><path d="M3.898.82s2.733 4.737 4.28 10.11l2.278 9.293S8.452 24.87 7.45 29.24l-2.095 8.382s2.095 5.83 3.37 10.93l1.367 8.838s-1.457 3.734-2.733 8.836L5.536 77.43s3.37-.728 10.385.456l11.75 2.186s4.647-1.002 8.746-2.277l5.922-2.37s2.004.183 8.198 2.28L61.196 80.8s4.737-1 9.474-2.094l9.656-2.915s-.273-1.82 1.55-8.927l3.187-10.202s-.182-1.64-1.367-7.196l-3.643-10.84s.637-3.826 2.46-8.654l3.734-9.747s-1.73-5.557-2.733-10.84L80.508 0s-8.836 3.28-11.57 3.826L61.29 5.74S57.734 4.19 53.27 2.64L42.43.638s-1.184 1.275-8.016 2.915l-10.02 2.095s-6.74-3.28-11.478-4.19C8.18.548 4.17.728 3.898.82z" opacity=".039" fill="url(#R)"/><g opacity=".27"><path d="M80.508 0s-8.836 3.28-11.57 3.826L61.29 5.74c1.793-.496 4.167 16.54 5.192 19.038l-.023.102c4.302-1.484 18.66-1.737 19.79-4.657 0 0-1.73-5.557-2.733-10.84L80.508 0z" fill="url(#S)"/><path d="M10.456 20.223S8.452 24.87 7.45 29.24l-2.095 8.382 18.447 5.932 5.75-21.464-19.096-1.867z" fill="url(#T)"/><path d="M10.092 57.39s-1.457 3.734-2.733 8.836L5.536 77.43s.054-.016.16-.034c.74-.123 4.088-.547 10.226.49 7.014 1.184 11.75 2.186 11.75 2.186l.536-19.13-.274.046-17.844-3.598z" fill="url(#U)"/><path d="M42.43.638s-1.184 1.275-8.016 2.915l-10.02 2.095c1.888 5.358 4.383 10.665 5.192 16.306l-.034.114 17.5-1.435.41.09C46.24 15.87 44.623.834 42.43.64z" fill="url(#V)"/><path d="M43.467 37.86l-19.54 5.73-.125-.036-.046.17L28.22 60.67l-.01.272 18.024-3.234.193.07.012-.024-3.007-19.768.034-.125z" fill="url(#W)"/><path d="M47.464 20.724c.085.338.17.635.25.865l-4.247 16.27.035-.01 18.88 6.33 4.076-19.3c-.13.045-.254.09-.365.137l-18.628-4.293z" fill="url(#X)"/><path d="M46.36 57.754l-4.02 17.672s2.004.182 8.198 2.278c.774.262 1.517.512 2.232.74.715.227 1.405.432 2.05.626 3.868 1.166 6.376 1.73 6.376 1.73l4.635-16.544-.557.205-18.914-6.706z" fill="url(#Y)"/><path d="M80.053 38.624c-5.71 2.29-11.55 4.063-17.513 5.614l-.16-.057 3.462 20.042-.012.034c6.5-2.318 12.892-4.878 19.232-7.595 0 0-.182-1.64-1.366-7.196l-3.644-10.84z" fill="url(#Z)"/></g><g opacity=".043"><path d="M5.617.74c-.403 0-.718.012-.99.023-.163.007-.312.014-.422.023H4.17C4.027.798 3.933.81 3.9.82c0 0 2.733 4.737 4.28 10.112l2.278 9.29 18.755 1.87.342-.024.035-.114c-.81-5.64-3.304-10.948-5.193-16.306 0 0-6.74-3.28-11.478-4.19-.37-.072-.732-.136-1.093-.194-.217-.035-.425-.07-.637-.102l-.25-.035c-.477-.066-.944-.124-1.39-.17-.268-.03-.51-.047-.763-.07-.25-.02-.493-.04-.73-.056C7.694.807 7.366.79 7.04.775 6.51.75 6.03.74 5.617.74z" fill="url(#aa)"/><path d="M5.355 37.622s2.095 5.83 3.37 10.93l1.367 8.838 17.843 3.598.274-.046.01-.273-4.464-16.945.046-.17L5.355 37.62z" fill="url(#ab)"/><path d="M47.054 20.633l-17.48 1.457h-.022l-5.75 21.464.125.035 19.54-5.73 4.247-16.27c-.082-.23-.165-.528-.25-.866l-.41-.09z" fill="url(#ac)"/><path d="M46.234 57.708L28.21 60.942l-.537 19.13s4.646-1.002 8.745-2.277l5.922-2.37 4.087-17.65-.193-.067z" fill="url(#ad)"/><path d="M42.43.638c2.193.194 3.808 15.23 5.034 20.086l18.63 4.293c.11-.048.233-.092.363-.137l.023-.102c-1.025-2.5-3.398-19.534-5.192-19.04l-.627-.26c-1.207-.51-4.04-1.675-7.39-2.836C48.81 1.092 42.43.638 42.43.638z" fill="url(#ae)"/><path d="M43.5 37.85l-.033.01-.034.126L46.44 57.39l-.08.364L65.27 64.46l.558-.204.012-.034-3.462-20.04L43.5 37.85z" fill="url(#af)"/><path d="M85.063 56.66c-6.34 2.718-12.732 5.278-19.232 7.596L61.197 80.8s4.737-1 9.474-2.094l9.656-2.915s-.273-1.82 1.55-8.927l3.187-10.202z" fill="url(#ag)"/><path d="M86.247 20.223c-1.13 2.92-15.488 3.173-19.79 4.657l-4.077 19.3.16.058c5.963-1.55 11.804-3.323 17.513-5.614 0 0 .637-3.826 2.46-8.654l3.734-9.747z" fill="url(#ah)"/></g><g clip-path="url(#ai)"><path d="M-5.407-11.91S-1.984-5.88-.045.91c1.94 6.787 2.852 11.72 2.852 11.72S.297 18.374-.958 23.815c-1.255 5.44-2.624 10.423-2.624 10.423S-.958 41.615.64 48.05c1.597 6.435 1.71 11.117 1.71 11.117S.527 63.793-1.07 70.137c-1.597 6.345-2.282 13.97-2.282 13.97s4.222-.793 13.007.94c8.786 1.73 14.72 3.153 14.72 3.153s5.818-1.09 10.953-2.543l7.416-2.757s2.51.3 10.27 3.143L66.36 90.3s5.932-1.088 11.865-2.29c5.933-1.2 12.095-3.31 12.095-3.31s-.343-2.29 1.94-11.126c2.28-8.835 3.993-12.666 3.993-12.666s-.228-2.06-1.712-9.062L89.98 38.14s.798-4.77 3.08-10.753l4.678-12.077S95.57 8.29 94.315 1.636l-3.765-11.86S79.483-6.427 76.06-5.84c-3.423.588-9.584 2.125-9.584 2.125s-4.45-2.065-10.04-4.163c-5.592-2.098-13.58-2.894-13.58-2.894s-1.482 1.556-10.04 3.368c-8.557 1.812-12.55 2.27-12.55 2.27S11.82-9.48 5.888-10.79C-.046-12.097-5.066-12.01-5.408-11.906z" fill="#ceeeab"/><path d="M41.03-13.677l-1.94 3.14c-.34 4.098-1.025 6.246-3.878 7.42-2.852 1.175-5.59 1.44-5.02 3.282.57 1.842 5.933 4.39 6.503 6.117.57 1.727 3.765.905 5.02 3.336 1.256 2.432.913 6.986-1.71 7.825-2.625.84-7.988.003-9.243 4.075s-2.168 4.73-4.107 5.702c-1.94.973-3.31 4.7-1.598 7.486 1.712 2.787 5.59-.413 6.846-2.773 1.255-2.36 3.31-3.9 3.31-3.9l10.838.306 26.93-.038 1.482-1.67s1.484 1.867 1.255 4.03c-.228 2.16-1.71 6.682.114 7.875 1.827 1.193 8.9-.66 10.955-2.885 2.054-2.224-2.168-12.955-4.792-13.6-2.625-.644-8.444-1.037-7.76-3.414.686-2.377 5.363 2.206 7.874 1.706 2.51-.5 7.644-9.368 5.476-11.37-2.168-2-11.067-2.708-11.752-3.983-.684-1.273 9.585-3.38 10.156-4.732.57-1.353-1.14-3.34-2.853-3.96-1.71-.62-6.39 7.236-9.584 6.917-3.196-.318-9.13 2.367-7.874 5.026 1.255 2.66-2.738 4.945-6.617 2.78C55.18 8.86 47.762 4.77 49.13-.212c1.37-4.982 9.813-8.28 9.813-8.28L41.03-13.678zm63.69 24.9c-.73.048-2.04 2.083-2.254 3.147-.228 1.134-1.484 3.038-1.598 5.545-.114 2.507 2.168 3.142 3.994 3.08 1.825-.063 1.255-3.045.913-6.82-.114-.004-.23-4.685-.913-4.933-.043-.015-.094-.02-.143-.018zm31.518 109.83c-2.892.052-3.024 3.322-3.38 3.953-.57 1.01 1.026 6.305.912 8.24-.114 1.938-2.168 2.336-4.336 4.33-2.168 1.99.228 7.307 5.135 14.292l20.423 1.148-.457-15.987s2.168-1.88-9.47-11.336c-4.364-3.547-7.094-4.675-8.83-4.642zm5.372 48.82c-1.84-.098-3.78 2.504-4.42 3.34-.686.895-2.854 2.203-7.76 4.118l-6.618 15.445 24.19 2.623s.798-4.997-1.94-7.243c-2.74-2.245-7.873-2.847-8.33-6.282-.457-3.436 4.222-4.445 6.275-6.327 2.054-1.88.913-5.108-1.027-5.62-.12-.032-.248-.046-.37-.053z" clip-path="url(#aj)" fill="#a6dd8b"/><path d="M62.838 23.38c-2.172-.068-4.12.326-5.262 1.292-3.65 3.09-15.974-.11-22.136 2.57-6.16 2.677-6.047 17.17-6.73 20.118-.686 2.947-7.988 9.245-9.13 10.468-1.14 1.223-6.047 3.138-8.9 3.628-2.85.49-5.818 3.144-7.073 4.82-.923 1.232-3.38 2.848-4.62 3.62l-.058.24c-.062.244-.114.492-.173.738 2.273-.668 5.103-3.59 7.588-6.004 2.852-2.772 9.128-3.28 12.665-4.89 3.537-1.612 6.504-8.83 12.094-10.498 5.59-1.668 9.7 5.637 11.068 8.756 1.37 3.12.8 5.84 1.71 7.807.914 1.965 5.022 5.505 5.25 6.31.228.805-2.282 2.9-2.852 3.798-.57.897-4.793 3.06-5.363 3.842-.44.605-.878 3.067-1.055 4.178.188-.072.344-.132.513-.2.22-1.148.692-3.21 1.34-3.84.913-.888 5.135-1.91 5.706-3.72.57-1.81 3.196-2.876 3.196-2.876s1.255 1.86 7.302 6.596c4.032 3.157 5.823 7.254 6.575 9.642.308.087.7.207.927.27-.558-1.988-2.207-7.475-4.08-9.587-2.28-2.575-8.443-5.145-10.382-10.334-1.94-5.19-11.182-15.948-7.987-18.596 3.196-2.648 7.532-1.613 13.008 3.79 5.477 5.404 21.11 3.22 26.357 2.457 4.543-.662 9.51 7.06 10.91 12.19.27-.95.515-1.813.757-2.604-.793-.9-1.688-2.155-2.425-3.847-1.71-3.928-5.476-6.202-5.476-6.202s3.994-2.168 6.732-3.346c.738-.317 1.372-.727 1.912-1.158-.074-.356-.118-.577-.2-.962l-.043-.2c-2.174 2.477-8.776 4.14-9.882 4.712-1.255.65-8.33 1.134-16.317 1.593-7.985.458-12.207-3.77-15.63-7.175s-5.933-16.597-1.37-17.382c4.565-.783 9.13 6.534 13.693 8.146 4.563 1.61 9.812-6.912 9.014-12.07-.55-3.544-6.39-5.94-11.168-6.09zm83.573 46.157c.583.018 2.675.804 2.996 1.17 1.027 1.17.913 3.334 0 3.65-.912.317-5.82 3.487-4.792 6.368 1.027 2.882.8 8.238-1.597 8.17-2.397-.067-3.652-.103-4.564-1.27-.913-1.166-.913-5.502 0-9.013.912-3.512 1.597-6.8 3.65-8.227 1.413-.98 3.028-.885 4.308-.848zm-36.264 42.91c.093.008.87 1.628 2.154 3.27 1.37 1.75 1.483 3.806 1.483 3.806s-1.94-2.223-2.738-3.73c-.8-1.505-.913-3.333-.913-3.333l.014-.014z" fill="#aac3e7"/><path d="M46.508 16.942c2.852.31 5.59-.87 4.906-2.827-.685-1.96-5.705-3.47-6.047-1.54-.342 1.93.913 4.817 1.14 4.367zm73.042 22.3c-3.88-2.62-3.88-3.418-3.195-3.74.684-.324 4.678 2.413 5.82 3.815 1.14 1.4-1.028.883-2.625-.075z" opacity=".387" stroke="#6d7f42" stroke-width="0.45609199999999994" stroke-linecap="round" stroke-linejoin="round" fill="none"/><path d="M-2.327 51.618c15.062-.716 17.458-1.104 16.545-4.21-.913-3.107-3.994-10.84-10.497-10.566-6.503.272-10.382-3.374-10.382-3.374m5.134 30.04c8.33-4.33 13.12-3.51 15.974-4.798 2.852-1.29 6.047-2.454 7.188-4.133 1.14-1.68 2.624-5.175 2.624-8.14 0-2.967-1.597-16.476 1.484-19.812 3.08-3.336 7.873-11.644 11.866-10.276 3.994 1.367 5.59 4.607 10.04 4.618 4.45.012 9.928-1.544 11.07-5.278 1.14-3.733-7.19-7.505-7.304-10.703-.114-3.198 2.51-6.433 9.242-7.498 6.732-1.065 10.726-4.946 10.726-4.946m-3.516 56.052c6.96-.488 10.155 1.884 14.377 1.205 4.22-.68 6.047-1.198 8.1-2.395 2.054-1.197 2.74-1.634 2.853-2.886.114-1.253.457-5.693-1.37-10.08-76.104 59.12-79.983 48.97-78.043 45.715 1.94-3.253 2.396-9.744 7.188-10.978 4.793-1.234 9.585-2.582 12.666-.213 3.08 2.37 5.82 6.668 9.128 6.876 3.31.208 5.363-.533 6.618-1.867 1.255-1.333 2.054-4.62.8-6.252-1.256-1.632-7.075-2.71-7.874-4.558-.8-1.848-4.907-7.897-.114-12.21 4.792-4.316 16.544-3.3 16.544-3.3m-.435 55.227c6.276.632 9.813 2.216 15.29.203 5.476-2.013 6.16-2.222 6.275-3.816.114-1.594-.114-7.192-1.37-9.167-63.324 61.65-68.003 57.18-69.257 52.354-1.254-4.828.115-18.71 3.88-21.912 3.765-3.202 14.605-2.896 17.115-4.308 2.51-1.413 2.396-7.577 5.933-11.014l12.323-5.243m24.76 4.58c5.363 2.433 17.8 4.952 21.565 18.978m-5.684 80.18c8.673-5.46 16.432-.106 22.365-1.194 5.933-1.086 17.457-16.507 20.994-16.293 3.536.214 2.51-5.292 3.88-5.937 1.368-.646 2.51 2.81 5.36 3.802 2.854.994 11.183-.94 10.727-2.32-.457-1.383-3.195-3.628-2.51-3.95.684-.324 3.88 2.39 5.82 1.76 1.938-.63 19.966.11 22.134-5.535 2.17-5.644 9.814-5.884 9.814-5.884m-67.662 45.325c6.16-5.074 10.61-11.11 13.007-11.955 2.396-.845 5.82-1.547 7.188-3.448 1.37-1.9 1.14-4.874 2.396-5.41 1.255-.534 1.71 2.673 3.993 2.852 2.282.18 16.773-1.808 19.51-4.81 2.74-3.004 14.72-5.29 14.834-6.2.115-.91-.456-2.18.115-2.507.57-.326 11.296-2.42 11.296-2.42M161.7 215.807c4.108-6.16 9.357-18.448 13.464-18.788 4.108-.34 4.678-1.01 5.705-1.78 1.027-.768 7.76 1.248 7.76 1.248" clip-path="url(#ak)" opacity=".387" stroke="#6d7f42" fill="none" stroke-width="0.364"/><path d="M16.842-7.743L12.962 5.04l8.216 3.086 3.537 16.644-9.584 9.884 4.108 4.908-5.476 5.094.228 2.06 9.242 11.443 6.39-2.9 9.356 8.707-4.793 12.757 4.68 4.012-1.256 5.898m1.14-6.015l5.704-12.505 5.02-3.053 12.55 7.543 9.358-1.447-.114-7.19-4.68-2.872 5.82-11.816 2.625-1.637 17.685-4.064" clip-path="url(#al)" stroke="#d38484" stroke-width="0.728" stroke-linecap="round" fill="none"/><path d="M-5.407-11.91S-1.984-5.88-.045.91c1.94 6.787 2.852 11.72 2.852 11.72S.297 18.374-.958 23.815c-1.255 5.44-2.624 10.423-2.624 10.423S-.958 41.615.64 48.05c1.597 6.435 1.71 11.117 1.71 11.117S.527 63.793-1.07 70.137c-1.597 6.345-2.282 13.97-2.282 13.97s4.222-.793 13.007.94c8.786 1.73 14.72 3.153 14.72 3.153s5.818-1.09 10.953-2.543l7.416-2.757s2.51.3 10.27 3.143L66.36 90.3s5.932-1.088 11.865-2.29c5.933-1.2 12.095-3.31 12.095-3.31s-.343-2.29 1.94-11.126c2.28-8.835 3.993-12.666 3.993-12.666s-.228-2.06-1.712-9.062L89.98 38.14s.798-4.77 3.08-10.753l4.678-12.077S95.57 8.29 94.315 1.636l-3.765-11.86S79.483-6.427 76.06-5.84c-3.423.588-9.584 2.125-9.584 2.125s-4.45-2.065-10.04-4.163c-5.592-2.098-13.58-2.894-13.58-2.894s-1.482 1.556-10.04 3.368c-8.557 1.812-12.55 2.27-12.55 2.27S11.82-9.48 5.888-10.79C-.046-12.097-5.066-12.01-5.408-11.906z" opacity=".039" fill="url(#am)"/><g opacity=".27"><path d="M90.587-10.286s-11.07 3.8-14.496 4.39c-3.423.588-9.587 2.128-9.587 2.128 2.248-.558 5.222 20.87 6.506 24.037l-.03.127c5.392-1.71 23.382-1.524 24.798-5.143 0 0-2.17-7.023-3.424-13.678-1.256-6.656-3.766-11.862-3.766-11.862z" fill="url(#an)"/><path d="M2.813 12.602s-2.51 5.75-3.767 11.194C-2.21 29.24-3.58 34.224-3.58 34.224l23.114 8.08L26.74 15.61 2.812 12.602z" fill="url(#ao)"/><path d="M2.356 59.16S.53 63.786-1.068 70.134C-2.666 76.482-3.35 84.11-3.35 84.11s.066-.02.2-.037c.927-.128 5.12-.542 12.81.972 8.79 1.73 14.725 3.15 14.725 3.15l.67-23.95-.342.047L2.356 59.16z" fill="url(#ap)"/><path d="M42.876-10.82s-1.483 1.557-10.044 3.372c-8.56 1.815-12.556 2.275-12.556 2.275 2.366 6.78 5.493 13.517 6.506 20.612l-.042.14 21.93-1.185.513.13c-1.535-6.126-3.56-25.025-6.306-25.345z" fill="url(#aq)"/><path d="M44.175 35.857L19.69 42.35l-.156-.047-.057.213 5.593 21.386-.014.342 22.585-3.42.244.092.014-.028-3.766-24.874.042-.156z" fill="url(#ar)"/><path d="M49.183 14.524c.106.427.21.8.313 1.094l-5.32 20.24.04-.014 23.657 8.594 5.108-24.04c-.162.05-.317.102-.456.157l-23.342-6.03z" fill="url(#as)"/><path d="M47.8 60.884L42.76 82.887s2.51.298 10.273 3.14c.97.356 1.9.695 2.796 1.006.897.31 1.762.59 2.57.856 4.847 1.595 7.99 2.39 7.99 2.39l5.806-20.568-.7.238L47.8 60.884z" fill="url(#at)"/><path d="M90.017 38.094c-7.153 2.67-14.472 4.686-21.944 6.42l-.2-.076L72.21 69.67l-.014.042c8.145-2.676 16.154-5.66 24.098-8.843 0 0-.228-2.062-1.712-9.066-1.484-7.004-4.565-13.71-4.565-13.71z" fill="url(#au)"/></g><g opacity=".043"><path d="M-3.25-11.98c-.506-.015-.9-.01-1.242-.006-.204.002-.39.007-.528.014h-.043c-.182.008-.3.02-.343.032 0 0 3.424 6.03 5.365 12.82C1.9 7.667 2.812 12.6 2.812 12.6L26.31 15.6l.43-.017.042-.14c-1.014-7.096-4.14-13.834-6.506-20.613 0 0-8.446-4.345-14.382-5.652-.464-.103-.917-.195-1.37-.28-.27-.053-.532-.106-.798-.152l-.314-.05c-.597-.1-1.182-.19-1.74-.264-.336-.046-.637-.077-.956-.113-.313-.036-.618-.07-.914-.097-.452-.044-.863-.078-1.27-.107-.664-.047-1.264-.077-1.783-.093z" fill="url(#av)"/><path d="M-3.58 34.224S-.953 41.602.645 48.04c1.598 6.435 1.712 11.118 1.712 11.118l22.357 5.133.343-.046.014-.342-5.593-21.387.058-.212-23.114-8.08z" fill="url(#aw)"/><path d="M48.67 14.396L26.767 15.61h-.03l-7.204 26.693.157.047 24.485-6.493 5.32-20.24c-.1-.292-.206-.666-.312-1.093l-.514-.13z" fill="url(#ax)"/><path d="M47.642 60.823l-22.586 3.42-.67 23.952s5.82-1.093 10.957-2.548c5.136-1.454 7.42-2.76 7.42-2.76l5.12-21.972-.24-.093z" fill="url(#ay)"/><path d="M42.876-10.82c2.747.32 4.77 19.22 6.307 25.344l23.342 6.03c.14-.054.293-.105.456-.157l.03-.128C71.725 17.1 68.75-4.327 66.504-3.77l-.785-.35c-1.515-.68-5.066-2.24-9.26-3.812-5.594-2.096-13.584-2.89-13.584-2.89z" fill="url(#az)"/><path d="M44.217 35.844l-.042.013-.043.156 3.766 24.417-.1.454 23.7 9.066.7-.238.013-.042-4.336-25.232-23.656-8.593z" fill="url(#aA)"/><path d="M96.294 60.87c-7.944 3.182-15.953 6.166-24.098 8.843l-5.807 20.57s5.935-1.09 11.87-2.295l12.1-3.315s-.344-2.292 1.94-11.13c2.282-8.84 3.994-12.674 3.994-12.674z" fill="url(#aB)"/><path d="M97.778 15.254c-1.416 3.62-19.406 3.434-24.797 5.143l-5.107 24.04.2.078c7.47-1.735 14.79-3.75 21.943-6.42 0 0 .8-4.773 3.082-10.76 2.283-5.984 4.68-12.08 4.68-12.08z" fill="url(#aC)"/></g></g><path d="M64.122 10.536c-6.412-.52-12.823 1.382-17.752 5.817l-.182.156c-8.037 7.386-9.55 19.36-4.543 29.33l-.83.523c.818 1.612 1.8 3.173 2.948 4.657l-4.85 4.47c-.49-.253-1.017-.46-1.664-.635l-1.037.952c-.404-.21-.78-.36-1.116-.41L11.73 76.875c-.012.4.083.804.24 1.215l-.193.177-.4.366c.262 1.383.733 2.545 1.994 3.907 1.26 1.362 2.34 1.877 3.747 2.296l.4-.366.26-.24c.397.2.777.348 1.128.397L42.27 63.15c-.088-.36-.225-.722-.375-1.088l1.093-1.005c-.09-.638-.247-1.185-.478-1.712l4.84-4.448c1.39 1.26 2.872 2.362 4.417 3.306l.592-.783c9.564 5.78 21.66 5.245 29.696-2.142l.17-.168c9.728-9.13 9.675-25.06-.17-35.7-4.952-5.352-11.444-8.35-17.934-8.875zm109.977 19.56l.113.008c.346.035.69.08 1.036.13.348.05.698.11 1.047.175l.102.02.102.02.16.034c.326.067.653.136.98.216.224.056.446.118.67.18l.376.1c.264.075.523.16.786.244l.342.108.08.03c.348.12.69.243 1.036.378l.08.03c.344.137.694.284 1.036.437l.057.027c.348.157.693.32 1.036.494l.058.027c.343.173.687.36 1.025.55l.045.026c.34.193.68.388 1.014.596l.034.025c.338.212.67.425 1.002.652l.034.025c.33.227.656.462.98.706.2.15.395.312.592.47.133.105.267.207.398.316l.023.012c.32.264.634.547.945.828.636.574 1.25 1.18 1.845 1.823.59.638 1.143 1.295 1.663 1.967l.01.013c.257.332.514.666.753 1.006.104.145.197.297.297.444.135.2.27.4.4.602l.022.025c.217.342.424.683.625 1.03l.023.037c.2.345.387.697.57 1.048l.023.036c.182.35.348.7.513 1.056l.023.047c.162.352.32.706.467 1.062l.023.06c.144.352.282.713.41 1.07l.022.057c.127.356.243.706.354 1.065l.022.082c.108.35.205.705.297 1.06l.024.08.08.348c.064.268.126.533.182.8l.068.382c.044.228.088.453.126.682.053.33.096.66.136.99l.023.162.01.103.012.104c.037.352.07.705.09 1.056.022.345.04.695.046 1.04v.114c.006.384.002.766-.01 1.15-.013.337-.032.67-.058 1.008l-.01.135c-.03.333-.062.664-.103.994-.045.345-.1.693-.16 1.035l-.01.09-.024.135c-.06.325-.13.65-.205.974l-.035.146c-.075.318-.16.634-.25.948-.06.21-.128.415-.194.622-.065.2-.125.4-.194.6-.108.305-.22.604-.342.905l-.07.167-.044.122c-.13.308-.265.607-.41.91-.138.29-.282.57-.433.854l-.09.163c-.152.28-.304.555-.468.828l-.103.173c-.073.118-.153.23-.228.346-.133.205-.27.404-.41.605v.01c-.18.257-.367.513-.56.763-.165.22-.346.428-.523.64l-.205.27-.148.17-.182.2c-.203.228-.412.448-.626.668-.22.228-.45.455-.684.674l-.17.17c-7.7 7.075-19.043 7.384-28.126 1.79l.045-.065c-1.348-.8-2.645-1.724-3.87-2.785-.196-.17-.388-.35-.58-.525-.188-.173-.375-.345-.56-.524l-.1-.1c-.3-.296-.59-.6-.878-.913-.29-.313-.57-.623-.843-.945l-.092-.11c-.164-.196-.32-.396-.478-.596-.162-.205-.324-.41-.48-.62-.96-1.303-1.78-2.665-2.47-4.07l-.068.04c-4.86-9.477-3.634-20.72 4.065-27.797l.182-.156c.237-.215.484-.424.728-.625.237-.195.474-.385.717-.568l.297-.227c.125-.09.26-.165.387-.253.226-.158.45-.32.682-.47.27-.17.546-.332.82-.49.212-.123.422-.245.638-.36.163-.085.325-.173.49-.255.248-.124.5-.236.75-.35l.195-.086c.344-.15.685-.296 1.036-.428.317-.12.626-.23.946-.334l.17-.043c.354-.11.702-.22 1.06-.312.204-.053.41-.096.615-.144.213-.05.425-.1.64-.142.32-.064.643-.123.966-.172l.08-.005c.152-.023.304-.047.456-.066.245-.032.494-.066.74-.09l.09-.003c.347-.032.7-.06 1.048-.075.716-.032 1.432-.03 2.152.004.384.017.767.044 1.15.08z" clip-path="url(#aD)" fill="#2d3335" filter="url(#aE)"/><path d="M18.112 82.88l-1.752 1.66c-1.824-1.936-3.73-3.9-5.494-5.877l1.636-1.484c2.488 2.38 3.233 3.107 5.61 5.7z" fill="url(#aF)"/><path d="M46.19 49.077c-9.905-9.904-9.905-25.96 0-35.865 9.903-9.904 25.96-9.904 35.863 0 9.904 9.904 9.904 25.96 0 35.865-9.903 9.903-25.96 9.903-35.864 0zM47.264 48c9.508 9.508 24.564 9.867 34.07.36 9.51-9.51 9.15-24.565-.357-34.072-9.508-9.508-24.564-9.867-34.072-.36-9.507 9.51-9.15 24.565.36 34.073z" fill="#2d3335"/><path d="M46.19 49.077c-9.905-9.904-9.905-25.96 0-35.865l.178-.18c-9.723 9.918-9.664 25.843.18 35.686 9.843 9.843 25.767 9.903 35.685.18l-.18.18c-9.903 9.902-25.96 9.902-35.864 0zm.896-35.327l.18-.18c9.507-9.507 24.563-9.148 34.07.36 9.508 9.507 9.867 24.563.36 34.07l-.18.18c9.323-9.517 8.91-24.445-.538-33.892-9.448-9.448-24.376-9.862-33.892-.538z" fill="#9eaaac"/><path d="M46.906 48.36c9.508 9.507 24.923 9.507 34.43 0 9.508-9.51 9.508-24.923 0-34.43-9.507-9.51-24.922-9.51-34.43 0-9.507 9.507-9.507 24.92 0 34.43z" fill="#d0e9f2" fill-opacity=".476"/><path d="M46.906 48.36c9.508 9.507 24.923 9.507 34.43 0 9.508-9.51 9.508-24.923 0-34.43-9.507-9.51-24.922-9.51-34.43 0-9.507 9.507-9.507 24.92 0 34.43z" fill="url(#aG)"/><path d="M42.905 42.004l-2.096 1.49c1.2 2.265 2.755 4.393 4.662 6.3 1.906 1.906 4.034 3.46 6.298 4.662l1.49-2.096c-2.16-1.106-4.187-2.55-5.995-4.36-1.808-1.807-3.254-3.836-4.36-5.996z" fill="url(#aH)"/><path d="M46.1 49.166c.63.63 1.123 1.338 1.5 2.085l-9.548 9.55c-.747-.38-1.454-.872-2.084-1.502-.63-.63-1.124-1.338-1.502-2.085l9.55-9.55c.746.38 1.453.873 2.083 1.503z" fill="url(#aI)"/><path d="M42.983 58.02L18.91 82.095c-1.452-.798-2.125-1.093-3.385-2.353-1.26-1.26-1.555-1.933-2.354-3.384l24.075-24.074c1.845 1.366 4.415 3.79 5.738 5.738z" fill="url(#aJ)"/><path d="M39.162 56.157c1.26 1.26 2.71 2.43 3.104 4.015L18.91 83.53c-2.375-1.88-5.304-4.662-7.173-7.174L35.093 53c1.273.08 2.79 1.88 4.05 3.14l.02.017z" fill="url(#aK)"/><path d="M39.073 56.246c1.26 1.26 2.798 2.34 3.193 3.927L18.91 83.53c-2.87-2.517-4.3-3.872-7.173-7.174L35.093 53c1.273.08 2.702 1.986 3.962 3.247h.018z" opacity=".596" fill="url(#aL)"/><path d="M48.413 13.5c14.815-11.723 28.47-4.638 28.342 1.932-.13 6.57-20.612 25.637-27.827 24.09-7.214-1.545-9.275-19.452-.515-26.022z" opacity=".604" fill="url(#aM)"/><text x="36.99" y="25.305" transform="rotate(-8.9)" style="-inkscape-font-specification:Sans" font-size="7.215" opacity=".461" fill="url(#aN)" font-family="Sans"><tspan x="36.99" y="25.305" style="-inkscape-font-specification:Monospace Bold" font-weight="bold" fill="url(#aN)" font-family="Monospace">01011001</tspan><tspan x="36.99" y="34.323" style="-inkscape-font-specification:Monospace Bold" font-weight="bold" fill="url(#aN)" font-family="Monospace">00110101</tspan><tspan x="36.99" y="43.341" style="-inkscape-font-specification:Monospace Bold" font-weight="bold" fill="url(#aN)" font-family="Monospace">10010011</tspan></text><text x="36.834" y="24.836" transform="rotate(-8.9)" style="-inkscape-font-specification:Sans" font-size="7.215" fill="url(#aO)" font-family="Sans"><tspan x="36.834" y="24.836" style="-inkscape-font-specification:Monospace Bold" font-weight="bold" fill="url(#aO)" font-family="Monospace">01011001</tspan><tspan x="36.834" y="33.855" style="-inkscape-font-specification:Monospace Bold" font-weight="bold" fill="url(#aO)" font-family="Monospace">00110101</tspan><tspan x="36.834" y="42.873" style="-inkscape-font-specification:Monospace Bold" font-weight="bold" fill="url(#aO)" font-family="Monospace">10010011</tspan></text><path d="M80.586 47.038c-9.763 8.01-15.234 7.654-13.874 4.787 1.36-2.868 15.423-15.178 18.746-15.94 3.324-.764.83 6.573-4.872 11.153z" opacity=".765" fill="url(#aP)"/></svg>