<svg xmlns="http://www.w3.org/2000/svg" viewBox="0 0 325 317" enable-background="new 0 0 325 317"><path d="M195.4 9h-78c-10.3 0-21.4 1.2-33.3 3.6-11.9 2.8-23.5 8.8-34.5 17.9-16.1 15.7-24.2 33.2-24.2 52.4 0 15.9 5.7 29.8 17.1 41.8 10.9 12.9 26.7 19.4 47.4 19.7 3.9 0 8.1-.3 12.5-.8-.7 2-1.5 4.3-2.4 6.7-1 2.3-1.5 5.2-1.5 8.6 0 5.8 1.3 10.7 3.8 14.8 2.2 4.2 4.7 8.2 7.5 11.9-9.1.3-20.5 1.4-34.3 3.4-13.9 2.4-27.2 7.2-39.8 14.5-11.2 6.7-19 14.5-23.3 23.4-4.4 8.9-6.6 17-6.6 24.2 0 14.9 6.8 27.6 20.4 38.3 13.5 11.4 33.9 17.3 61.2 17.5 32.6-.5 57.6-8.3 74.9-23.5 16.7-14.6 25-31.4 25-50.4-.2-13.4-3.3-24.2-9.1-32.5-6.2-8.1-13.4-15.6-21.6-22.3l-13.2-10.9c-1.9-1.9-3.9-4.1-5.9-6.7-2.4-2.7-3.6-6-3.6-10.1 0-4.2 1.2-7.9 3.5-11.1 2-3.1 4.1-5.8 6.4-8.2 4.1-3.6 7.9-7.1 11.5-10.5 3.3-3.4 6.3-7.2 9.2-11.3 5.9-8.4 9-19.6 9.2-33.6 0-7.6-.9-14.3-2.6-20-2.1-5.7-4.5-10.7-7.2-14.9-2.8-4.5-5.7-8.2-8.6-11.3-3.1-2.9-5.8-5.2-8.3-6.7h24l24.4-13.9zm-42.8 213.5c6.5 7.4 9.7 16 9.7 26 0 12.2-4.7 22.2-14.2 30-9.7 7.9-23.7 12-42.1 12.2-20.5-.3-36.6-4.8-48.4-13.7-12.4-8.9-18.6-20.2-18.6-34 0-7 1.4-13 4.3-18 2.5-4.7 5.5-8.7 9.1-11.8 3.7-3.1 7.4-5.4 11-7.1 3.6-1.5 6.4-2.7 8.4-3.4 8.4-2.5 16.7-4.4 24.8-5.5 8.2-.8 13.3-1 15.3-.8 3.4 0 6.3.1 8.7.4 14.5 10.1 25.2 18.6 32 25.7zm-12.6-115.2c-.9 5.2-3.1 10.3-6.4 15.3-6.8 7-15.4 10.7-25.7 11.1-8.1 0-15.3-2.5-21.7-7.5-6.3-5-11.5-11-15.5-18.2-8.3-15.3-12.4-30-12.4-44.2-.3-10.7 2.6-20.4 8.5-29.1 7-8.3 15.8-12.6 26.3-12.8 8 .3 15 2.6 21.2 7.1 6 4.7 10.9 10.8 14.6 18.4 7.9 15.7 11.8 31.2 11.8 46.7.1 3.6-.1 8-.7 13.2zm177 23.7v-.2h-41v-41.8h-24v41.8h-41.3v23.3h.3v.9h41v41h24v-41h42v-24h-1z" fill-rule="evenodd" clip-rule="evenodd" fill="#DD4B39"/></svg>