<svg xmlns="http://www.w3.org/2000/svg" viewBox="0 0 365.9 208" width="366" height="208" enable-background="new 0 0 365.9 208"><g><path d="M317.6 178.9c-.7.3-1.5.5-2.3.6.8-.5 1.5-1.3 1.8-2.2-.8.5-1.6.8-2.6 1-.7-.8-1.8-1.3-3-1.3-2.2 0-4.1 1.8-4.1 4.1 0 .3 0 .6.1.9-3.4-.2-6.4-1.8-8.4-4.2-.3.6-.5 1.3-.5 2 0 1.4.7 2.6 1.8 3.4-.7 0-1.3-.2-1.8-.5v.1c0 2 1.4 3.6 3.2 4-.3.1-.7.1-1.1.1-.3 0-.5 0-.8-.1.5 1.6 2 2.8 3.8 2.8-1.4 1.1-3.1 1.7-5 1.7-.3 0-.6 0-1-.1 1.8 1.1 3.9 1.8 6.2 1.8 7.5 0 11.5-6.2 11.5-11.5v-.5c1-.6 1.7-1.3 2.2-2.1z" fill="#5FA9DD"/></g><g><path d="M295.8 197c.6 0 1.1-.5 1.1-1.1v-17.8c0-.6-.5-1.1-1.1-1.1H278c-.6 0-1.1.5-1.1 1.1v17.8c0 .6.5 1.1 1.1 1.1h17.8z" fill="#3C5A99"/><path d="M290.7 197v-7.7h2.6l.4-3h-3v-1.9c0-.9.2-1.5 1.5-1.5h1.6v-2.7c-.3 0-1.2-.1-2.3-.1-2.3 0-3.9 1.4-3.9 4v2.2H285v3h2.6v7.7h3.1z" fill="#fff"/></g><path d="M257.5 187.4l4.6-4.1-4.6-3.4c.1 0 0 7.5 0 7.5zm10.7-3.1l-2.2 1.3-2.4-1.3-4.7 4.2h13.8l-4.5-4.2zm4.8-5.7h-14.2l7.1 5.1 7.1-5.1zm-17.1-1.6h20v13.1h-20V177zm18.3 10.4l.1-7.4-4.7 3.3 4.6 4.1z" fill="#51504D"/><path d="M331 177h-5c-.7 0-1.4.1-2.1.2-.8.2-1.5.6-2.2 1.1-1 1-1.5 2.1-1.5 3.3 0 1 .4 1.9 1.1 2.7.7.8 1.7 1.2 3 1.3.2 0 .5 0 .8-.1 0 .1-.1.3-.2.4-.1.1-.1.3-.1.5 0 .4.1.7.2.9.1.3.3.5.5.8-.6 0-1.3.1-2.2.2-.9.2-1.7.5-2.5.9-.7.4-1.2.9-1.5 1.5-.3.6-.4 1.1-.4 1.5 0 1 .4 1.8 1.3 2.4.9.7 2.2 1.1 3.9 1.1 2.1 0 3.7-.5 4.8-1.5 1.1-.9 1.6-2 1.6-3.2 0-.9-.2-1.5-.6-2.1-.4-.5-.9-1-1.4-1.4l-.8-.7c-.1-.1-.2-.3-.4-.4-.2-.2-.2-.4-.2-.6 0-.3.1-.5.2-.7.1-.2.3-.4.4-.5.3-.2.5-.5.7-.7.2-.2.4-.5.6-.7.4-.5.6-1.3.6-2.1 0-.5-.1-.9-.2-1.3s-.3-.7-.5-1c-.2-.3-.4-.5-.5-.7-.2-.2-.4-.3-.5-.4h1.5l1.6-.7zm-2.8 13.6c.4.5.6 1 .6 1.7 0 .8-.3 1.4-.9 1.9-.6.5-1.5.8-2.7.8-1.3 0-2.3-.3-3.1-.9-.8-.6-1.2-1.3-1.2-2.2 0-.4.1-.8.3-1.1.2-.3.4-.6.6-.8.2-.2.5-.3.7-.5.2-.1.4-.2.5-.2.5-.2 1.1-.3 1.6-.4.5-.1.8-.1 1-.1h.6c.9.8 1.6 1.4 2 1.8zm-.8-7.3c-.1.3-.2.7-.4 1-.4.4-1 .7-1.6.7-.5 0-1-.2-1.4-.5-.4-.3-.7-.7-1-1.2-.5-1-.8-1.9-.8-2.8 0-.7.2-1.3.5-1.9.4-.5 1-.8 1.7-.8.5 0 1 .2 1.4.5.4.3.7.7.9 1.2.5 1 .8 2 .8 3 0 .2 0 .4-.1.8zm11.3 1.5h-2.6v-2.7h-1.5v2.7H332v1.6h2.6v2.6h1.5v-2.6h2.7l-.1-1.6z" fill="#DD4B39"/><g><ellipse cx="51.6" cy="51.6" rx="50" ry="50" fill="none" stroke="#B3B3B4" stroke-width="3.14" stroke-miterlimit="10"/><circle cx="51.5" cy="51.6" r="42.8" fill="#B3B3B4" stroke="#B3B3B4" stroke-width="3.14" stroke-miterlimit="10"/><path fill="#fff" d="M74 51.5L56 61.9 38 72.3V30.7l18 10.4z"/></g><g><path d="M349.9 177c-5.5 0-10 4.5-10 10s4.5 10 10 10 10-4.5 10-10-4.4-10-10-10zm0 17.8c-4.3 0-7.8-3.5-7.8-7.8s3.5-7.8 7.8-7.8 7.8 3.5 7.8 7.8-3.5 7.8-7.8 7.8zm3.5-9.6l-2.4 1.4v-5.2c0-.6-.5-1.1-1.1-1.1-.6 0-1.1.5-1.1 1.1v7.1c0 .4.2.7.5 1 .2.1.4.1.6.1.2 0 .3 0 .5-.1l4.1-2.2c.5-.3.7-1 .4-1.5-.4-.7-1-.8-1.5-.6z" fill="#51504D"/></g><g><path d="M157.7 98.1c-27.4 0-49.6-22-49.6-49s22.2-49 49.6-49c27.3 0 49.6 22 49.6 49s-22.3 49-49.6 49zm0-85.6c-20.4 0-37.1 16.4-37.1 36.6s16.6 36.6 37.1 36.6c20.4 0 37.1-16.4 37.1-36.6s-16.7-36.6-37.1-36.6z" fill="#676"/><g><path d="M156 46.5c-.3-.9 0-1.9-.6-2.7-1.2-1.6-2.8.3-4.1.6-2.3.6-3.6-1.7-3.1-3.9.3-1.4 1.2-2.2 2.3-2.9 1-.6 2.2-.9 3.3-1.4.5-.2 1-.4 1.5-.4 1.4 0 3.4 2.6 4.2 2.3.8-.3-.2-1.8-.2-2.3 0-1.8 1.8-3.1 2.3-4.8.5-1.6 1.1-3.5 2.5-4.4 1.8-1.2 3.9-1.7 5.6-2.7 2.5-1.4-8-9.2-10.6-8.9-2.5.3-1.2 2-1 3.7l-4.5 4c0-.4-1.3-3.1-1.6-3.5-1.2-1.9-2.3-.9-4.1-.3-1.9.6-4.1-.4-4.6-2.5-.5-1.8 1.1-4.3-1.8-4.8-2.6-.5-5.6.5-8 1.3-1.7.6-4.7 3.7-3 5.6l2.5 2.1c2 1.8 1.5 6.6 1.2 8.9-.6 5.1 3.1 8.5 6.7 11.6 5.4 4.7 11.9 7.6 18.4 10.4-.5-.2-.6-2-.9-2.5-.6-.8-1.4-1.2-2.1-1.9-.1.1-.3-.6-.3-.6zM192.2 64c-.3-4-4.5-7.1-7.4-9.4-3.3-2.7-7.4-4.8-11.6-5.8-2.5-.6-11-1.7-11.9 2.2-.2.9 1.2 2.1.8 3.3l-2.4 4.6c-.9 3 1.1 9.4 3.4 11.6 2.3 2 4.6 3.2 4.3 6.7-.5 4-2.8 7.6-3.1 11.6-.1 1.7.9 5.7 3.3 3.6 1-.9 1.3-2.4 2-3.5.7-1.3 1.8-2.4 3-3.3l7.3-5.7c4.2-3.9 10.7-8 12.1-13.9.2-.9.2-1.4.2-2z" fill="#676"/></g></g><g fill="#676"><path d="M302.1 14.8h-27.4c-.2-3-1.2-6.1-3-8.6-2.8-3.9-7.3-6.2-12.2-6.2-4.8 0-9.1 2.1-12 6-1.9 2.5-3 5.7-3.2 8.8H217c-2.7 0-4.9 2.2-4.9 4.9v76.4c0 2.7 2.2 4.9 4.9 4.9h85.3c2.7 0 4.9-2.2 4.9-4.9V19.7c-.3-2.7-2.5-4.9-5.1-4.9zm-49.6-4.9c1.6-2.2 4-3.3 6.9-3.3s5.3 1.2 7 3.5c1.7 2.4 2.2 5.6 1.3 8.4L259 48.4c-.4-1.6-.8-3.1-1.3-4.8-2.2-8.4-4.6-16.8-6.9-25.3-.7-2.8 0-6 1.7-8.4zm-20.6 81.4h-10.3v-13h10.3v13zm6.5 0V75.1c0-1.8-1.4-3.2-3.2-3.2h-13.6V42.7c10.7 7.8 29.7 24.7 31.3 48.6h-14.5zm-16.8-56.5V24.6h24.3l5.7 20.8c1.4 5.4 2.8 10.6 4.4 16 .4 1.4 1.6 2.4 3.1 2.4 1.4 0 2.7-.9 3.1-2.3l10.6-36.8h8.8c3.4 18.6-3.8 38.5-5.3 42.1-5.4 5.4-11.2 12.2-17.2 20.7-3.8-28.2-27.6-46.3-37.5-52.7zm75.5 56.5h-33c13.3-18.5 26.1-29 33-33.8v33.8zm0-41.5c-2.4 1.4-6.4 4-11.2 8.1 2.2-8.7 4.3-21.1 2.2-33.3h9v25.2z"/><circle cx="259.4" cy="14.7" r="5"/></g><g><path d="M358.2 10.5C353.4 3.8 345.9.1 337.7.1c-8 0-15.4 3.6-20.2 10-5.1 6.7-6.8 15.5-4.5 23.7 3 10.9 6 20.7 8.8 30.1 3 9.9 6.1 20.1 9.2 31.5.7 2.7 3.1 4.5 5.9 4.6h.1c2.7 0 5.1-1.8 5.9-4.3l19.3-61.4c2.5-8.1 1-17-4-23.8zm-7.9 20l-13.1 41.7c-1.2-4.1-2.4-8-3.6-11.9-2.9-9.4-5.8-19.1-8.8-29.8-1.2-4.5-.3-9.3 2.4-12.9 2.5-3.3 6.2-5.1 10.4-5.1 4.3 0 8 1.9 10.6 5.3 2.7 3.6 3.5 8.4 2.1 12.7zm-12.6-13.8c-4.5 0-8.1 3.6-8.1 8.1s3.6 8.1 8.1 8.1 8.1-3.6 8.1-8.1-3.6-8.1-8.1-8.1z" fill="#676"/></g><g><title>SVG drawing</title><desc>This was produced by version 4.1 of GNU libplot, a free library for exporting 2-D vector graphics.</desc><path d="M51.2 206.2l2.6-.1 2.6-.2 2.5-.3 2.5-.4 2.4-.6 2.4-.7 2.3-.8 2.3-.9 2.2-1 2.2-1.1 2.1-1.2 2-1.3 2-1.4 1.9-1.5 1.8-1.6 1.7-1.6 1.6-1.7 1.6-1.8 1.5-1.9 1.4-1.9 1.3-2 1.2-2.1 1.1-2.1 1-2.2.9-2.3.8-2.3.7-2.4.6-2.4.4-2.5.3-2.5.2-2.6.1-2.6c.1-27.7-22.3-50.1-50-50.1s-50.1 22.4-50.1 50 22.3 50.1 49.9 50.1z" opacity=".99" fill="none" stroke="#E9CC1B" stroke-width="2.066" stroke-miterlimit="10.433" enable-background="new"/><path d="M51.2 204.3l2.5-.1 2.4-.2 2.4-.3 2.4-.4 2.3-.5 2.3-.6 2.2-.8 2.2-.9 2.1-1 2.1-1.1 2-1.1 2-1.3 1.9-1.3 1.8-1.4 1.8-1.5 1.7-1.6 1.6-1.7 1.5-1.7 1.4-1.8 1.3-1.9 1.3-2 1.2-2 1.1-2.1 1-2.1.9-2.2.7-2.2.7-2.3.5-2.3.4-2.4.3-2.4.2-2.4.1-2.5c0-26.6-21.6-48.1-48.2-48.1S3 129.6 3 156.2s21.6 48.1 48.2 48.1z" opacity=".99" fill="#005696" enable-background="new"/><path opacity=".99" fill="#FFD400" enable-background="new" d="M9 149.4l1.6-.1-1.1 1 .5 1.7-1.4-.9-1.4.9.5-1.6-1.2-1H8l.5-1.5zM94.4 149.4l1.6-.1-1.1 1 .5 1.7-1.4-.9-1.4.9.5-1.6-1.3-1h1.6l.5-1.5z"/><path d="M89.9 156.3l-.1 1.9-.2 1.9-.2 1.9-.3 1.9-.4 1.8-.5 1.8-.6 1.8-.7 1.7-.8 1.7-.9 1.6-.9 1.6-1 1.5-1.1 1.5-1.1 1.4-1.2 1.4-1.3 1.3-1.3 1.3-1.4 1.2-1.4 1.1-1.5 1.1-1.5 1-1.6.9-1.6.8-1.7.8-1.7.7-1.8.6-1.8.5-1.8.4-1.9.3-1.9.2-1.9.2-2 .1c-21 0-38-17-38-37.9s17-37.9 37.9-37.9c21.2 0 38.2 16.9 38.2 37.9zM50.6 148.7v.9c.2.1.7.4.9.6s-.1 1-.2 1.1c-.2.1-.7 1.3-.9 1.5-.2.2-.2.7.2 1 .3.3 1.5-.8 1.8-1-.1.6 0 1.5.3 1.6.4.1.9-1.8 1-2-.1.4.6 2.3 1.1 2 .5-.3.6-1.8.6-2 0 .2.9 2.2 1.4 1.6s.2-1.1.1-1.4c.2-.2.2-1 .2-1.1 0-.1-.2-.5-.1-.8.2-.4.2-1.6.2-1.9-.1-.3-.2-.5-.1-.7 0 0 .7-.3.3-.6-1.2-.7-2.4-1-3.8-1.3-1.4-.3-2.3 0-2.5.2-.7 0-1.1-.1-1.2.3.1-.2-3.3.4-2.1 2.5.2-.5.5-.9 1.8-.7s2 .7 2.3.8c-.3-.3-.1-.7-1-1" opacity=".99" fill="#fff" enable-background="new"/><path d="M47.5 149.2l-.1-.1v-.9c.1-.3.1-.5.6-.9.3-.3 1.1-.6 1.8-.7.1-.2.5-.2.8-.2.2 0 .3 0 .4.2.1.2.1.9.5 1.5.3.5.3.9.4 1.1.1.2-.2.9-.3 1.1-.3-.4-1.8-1-2.4-1.2-.6-.2-1.3-.1-1.3-.1s-.2-.2-.4.2z" opacity=".99" fill="#F2C007" enable-background="new"/><path d="M43.3 127.5l-.1-.2V125.9l.1-.1.1-.1.1-.1.1-.1.1-.1.1-.1.1-.1.1-.1.1-.1H44l.1-.1.1-.1.1-.1H45.8c-.3-1.4 1.4-3 3.1-1.7.3-1.5 2.3-2.3 3.5-.6.8-1.5 3.3-1.4 3.5.6.7-.9 3.5-.9 3.2 1.7.9-.7 3.5.2 2.5 2.6 1.8-.2 2.8 1.9 1.5 3.3 1.2.2 2.4 2.4.3 3.6 1.7 1.6.5 3.4-.8 3.5 1 1.9-.5 3.2-2.1 3 .2 1.8-1.2 3-2.9 2.2-.2 1.8-2.1 2.4-3.4 1.2-.9 1.7-2.9 1.5-3.6-.1-1.1 1.3-3.3.7-3.4-1.2-1.4.7-3.2-.2-2.8-2.3-1.7.3-2.9-1.4-2-3-1.4-.2-2.4-2.1-.8-3.5-1.3-.7-1.6-2.7.2-3.6-1-1-.3-2.8 1.5-2.9zM47.1 180.9l-.1.1h-.2l-.1.1h-.1l-.1.1-.1.1-.1.1-.1.1-.1.1-.1.1-.2.1-.2.1-.2.1-.3.2-.2.1-.2.1-.2.1-.2.1-.1.1h-.1l-.1.1h-.1l-.1.1h-.7.1v.1-.4c-.1.1 2-4.3 5-6.4l7.7.1c3.2 2.3 4.8 6.1 4.8 6.2.7 1.4-2.6-1.4-3-1.7M55.9 177.4l.3.3.2.3.2.3.2.3.2.3.2.3.2.3.2.3.2.3.2.3.2.3.2.3.2.3.1.3.1.3.1.3.1.3.1.3.1.2.1.3.1.2.1.2.1.2.1.2.1.2.1.2v.5c.5 1.5-2.4-1.8-2.7-2.2M55.1 178.1l.2.3.2.3.2.3.2.3.2.3.2.3.2.3.1.3.1.3.1.3.1.3.1.3.1.3.1.3.1.3.1.3.1.3.1.3.1.3.1.3.1.3V186c0 1.6-2.1-2.5-2.3-2.8M53.8 178.2l.2.4.2.4.2.4.2.4.2.4.1.4.1.4.1.4.1.4.1.4.1.4.1.4.1.4v.4l.1.3V187.8c-.2 1.6-1.6-2.3-1.8-2.7M49.5 177.5l-.3.3-.3.3-.2.3-.2.3-.2.3-.2.3-.2.3-.2.3-.2.3-.2.3-.2.3-.2.3-.1.3-.2.3-.1.3-.1.3-.1.3-.1.3-.1.3-.1.2v.1l-.1.2-.1.2-.1.2-.1.2-.1.2v.4c-.5 1.5 2.4-1.8 2.7-2.2M50.2 178.2l-.2.3-.2.3-.2.3-.2.3-.2.3-.2.3-.2.3-.1.3-.1.3-.1.3-.1.3-.1.3-.1.3-.1.3-.1.3-.1.3-.1.3-.1.3-.1.3-.1.3-.1.3V186.1c-.1 1.6 2.1-2.5 2.3-2.8M51.6 178.3l-.2.4-.2.4-.2.4-.2.4-.1.4-.1.4-.1.4-.1.4-.1.4-.1.4-.1.4-.1.4-.1.4-.1.3V187.7c.2 1.6 1.6-2.3 1.8-2.7M52.1 179.1V182.1l-.1.5V186.1c.2 1 .5 3.6 1.1 3.7.6-.2 1-2.8 1.1-3.8.1-1-.3-6-.5-6.6" opacity=".99" fill="#fff" enable-background="new"/><path d="M60.1 157.9v15.8c0 .7-.3 1.1-1.1 1.1-.6.1-5.6 0-5.6 0-.7 0-.5.3-.7.6-.2-.3-.1-.6-.7-.6h-5.6c-.8 0-1.1-.3-1.3-.9V158l15-.1z" opacity=".99" fill="#fff" enable-background="new"/><path d="M37.4 175.2l-2.9-.2c.8-1.4.2-1.6-.1-1.9-.3-.3-1.2-.6-2 .8-.9 0-1.2.3-1.8 1-.6.8-.8.6-.8 1.4s.6.8.9.7c-.2.7-.1 1.4 1.1 1.3-.2.8.5 1.6 1.3 1.2.8-.4 1.4-1.2 1.6-1.6.2-.4.2-.9.2-.9v-.3s.9.2 1.4.2c.6.1 1.4.1 1.7.1-.1-.3.7-1.5 1.3-1.5-1 .1-1.9 0-1.9-.3zM68.3 175h2.5c-.6-.9-.4-1.8.2-2.1.6-.3 1.2-.1 1.4 0 .3.2.5.7.5.9.4-.1.7-.2 1.2.2s1.4 1.5 1.5 1.6c.1.1.2.8-.1 1.1-.3.3-.6.3-.8.2.2.5.3.9 0 1.1-.3.2-.9.3-1.1.2.3.7-.3 1.6-1.3 1.3-.9-.4-1-.8-1.1-1-.2-.2-.5-.7-.6-.8-.1-.2-.1-.5.1-.6 0-.1-.1-.3-.1-.3s-1 .1-1.4.1c-.3 0-1.5.1-1.6.1.1-.3-.2-.7-.5-.9-.3-.2-.9-.6-1-.6.6.1 1.3.1 1.6 0 .4-.2.7-.3.6-.5z" opacity=".99" fill="#F2C007" enable-background="new"/><path d="M56.1 174.6l.1.1.1.1.1.1.1.1.1.1.1.1v.1l.1.1v1.3c-.2.3-1.1.3-1.3 0 .4.7.7 1.1.4 1.5-.3.3-.7.1-1.1-.2.3.7.3 1-.1 1.4-.2.2-1.2-.6-1.5-1.7.1.9.2 2-.5 2.3-.4.2-1 0-1.1-.3-.1-.3.1-1 .1-1-.5.8-.9.9-1.3.5-.4-.3-.2-.9.1-1.2.2-.3.3-.7.3-.7-.8.8-.9.9-1.2.8-.3-.2-.3-.7-.1-1.1s.4-.6.4-.6c-.6.5-1.3.6-1.4.3-.1-.3-.2-.5.1-.8.2-.3.7-.8.7-.8h2.6s.6-.1.6.7c.3-.3.2-.6.7-.6.7-.5 2.9-.6 2.9-.6z" opacity=".99" fill="#81572E" enable-background="new"/><path d="M49 176.5l-.1.1h-.1l-.1.1h-.1l-.1.1-.1.1-.1.1-.1.1-.1.1-.1.1-.2.2-.1.1-.1.1-.1.1-.1.1-.1.1h-.1c-.5.5-1.4 1.1-.9 1 .5-.2 1.1-.2 1.4-.2.3 0 .4.2.4.2s-.5.8-.7 1l-.3.3s.3-.2.6-.3c.3-.2 1-.3 1-.3l.6-.2c-.4.6-.4.9-.6 1.2-.2.3-.3.7-.3.7.6-.3.5-.5.9-.6.4-.1.9-.2.9-.2h.3c-.3.7-.5 1.4-.5 1.4 0 .2-.1.5-.1.5.5-.4.7-.8.9-.9.3-.2.6-.3.6-.3h.6s-.2.8-.2 1.2c.3.6 1.4.5 1.8.1.1-.3-.1-1.1-.1-1.1.5.4 1.5.4 1.6.9-.1-.4-.5-1.7-.5-1.7.8.2.9.3 1.1.6.2.3.8.3.8.3l-.5-1.5c.7.3 1 .3 1.3.6.3.3.6.1.6.1s-.2-.5-.6-1.1c-.5-.6-.3-.3-.3-.3.9.1 1 .1 1.3.1.3-.5.7-.5.7-.5s.2.2-.2-.3c-.3-.5-2-2-2.3-2.2-.6 0-.8 0-1-.2.5.8.7 1 .4 1.3-.3.3-1.1-.2-1.1-.2.3.7.3 1.3-.1 1.5-.3.2-1.4-1.1-1.5-1.4.1.8-.1 1.8-.6 2-.5.2-.7-.2-.8-.7.2-.3.2-.8.2-.8-.6.8-.8 1-1.3.8-.5-.2-.3-.8-.3-.9.1-.2.5-.9.5-.9-.7.8-.9.8-1.2.5-.3-.3-.3-.6-.1-.8.2-.2.3-.6.3-.6s-.6.2-.9.4z" opacity=".99" fill="#BCBDBF" enable-background="new"/><path d="M60.2 169.3H62.5l.1.1.1.1.1.1.1.1c.2.1.7.5.7.5s.3-.2 1 .6c.7.7 1.1 1.3 1.1 1.3.9.5 1.1.8 1.3 1.1.2.3.4.7.4.7.8.3 1.3.9 1.4 1 .1.2-.3.3-.7.3-.4 0-1.3-.1-1.3-.1.7.3 1.2.7 1.3 1.2.2.5-.2.4-.8.6-.6.2-1 .2-1.4.2-.4-.1-.8-.3-.8-.3s-.5.1-1 .1-.9-.1-1.4-.3c-.9.1-1.5-.3-2.2-.6-.5-.2-1.5-.7-1.7-.9-.2-.2-.7-.6-.7-.6 1.2.1 1.7.1 2.1-.3.3-.5.2-2 .3-3-.3-.7-.3-1.9-.3-1.9zM47.4 174.7H45.1v-.1c-.3-.5-.2-2-.2-3-.1-.9 0-1.9 0-1.9-1-.1-2 .3-2.3.8-.3.5-.2.2-.2.2s-.5 0-1.2.7-1 1.2-1 1.2c-.9.5-1.3 1-1.5 1.3-.2.3-.2.7-.2.7-.8.3-1.1.6-1.2.8s0 .4.4.4h1.4c-.6.4-.9.6-1.2 1-.2.2-.3.4.3.6.6.2 1.9.5 2.2.3.3-.3.5-.3.5-.3s0 .2.5.2 1.5-.1 1.9-.5c.9.1 1.6-.3 2.1-.6" opacity=".99" fill="#81572E" enable-background="new"/><path d="M47.4 174.7H45.1v-.1c-.3-.5-.2-2-.2-3-.1-.9 0-1.9 0-1.9-1-.1-2 .3-2.3.8-.3.5-.2.2-.2.2s-.5 0-1.2.7-1 1.2-1 1.2c-.9.5-1.3 1-1.5 1.3-.2.3-.2.7-.2.7-.8.3-1.1.6-1.2.8s0 .4.4.4h1.4c-.6.4-.9.6-1.2 1-.2.2-.3.4.3.6.6.2 1.9.5 2.2.3.3-.3.5-.3.5-.3s0 .2.5.2 1.5-.1 1.9-.5c.9.1 1.6-.3 2.1-.6" opacity=".99" fill="none" stroke="#946338" stroke-width=".258" stroke-miterlimit="10.433" enable-background="new"/><path d="M50.3 152.9l-.1.1-.1.1-.1.1-.1.1-.1.1-.1.1-.1.1-.1.1v.1h-.1v.5c-.1.5-.2.5-.2.5s-.1.1-.4.3c-.3.3-.6.6-.7.8s-.1.4-.1.4-.1.1-.3.5c-.3.4-.6.6-.5 1.2l12.2-.1s.1 0 .1-.4-.8-2-1-2.3c-.3-.1-.3-.1-.6-.4-.2-.3-.3-.7-.3-.9s-.2-.5-.2-.5c-.1.8-.4.8-.7.8-.3 0-.8-.6-.9-.9-.2.8-.3 1.1-.6 1.2-.3.1-.7-.1-.9-.5s-.3-.7-.3-.7c-.2.6-.3.9-.6 1.1-.3.2-.9-.1-1-.3-.1-.3-.1-.7-.1-.7-.6.5-1.1.8-1.4.7s-.3-.4-.3-.5c-.3-.4-.3-.7-.3-.7z" opacity=".99" fill="#81572E" enable-background="new"/><path d="M50.3 152.9l-.1.1-.1.1-.1.1-.1.1-.1.1-.1.1-.1.1-.1.1v.1h-.1v.5c-.1.5-.2.5-.2.5s-.1.1-.4.3c-.3.3-.6.6-.7.8s-.1.4-.1.4-.1.1-.3.5c-.3.4-.6.6-.5 1.2h12.2s.1 0 .1-.4-.8-2-1-2.3c-.3-.1-.3-.1-.6-.4s-.3-.7-.3-.9-.2-.5-.2-.5c-.1.8-.4.8-.7.8-.3 0-.8-.6-.9-.9-.2.8-.3 1.1-.6 1.2-.3.1-.7-.1-.9-.5-.2-.4-.3-.7-.3-.7-.2.6-.3.9-.6 1.1-.3.2-.9-.1-1-.3-.1-.3-.1-.7-.1-.7-.6.5-1.1.8-1.4.7-.3-.2-.3-.4-.3-.5-.3-.5-.3-.8-.3-.8z" opacity=".99" fill="none" stroke="#946338" stroke-width=".258" stroke-miterlimit="10.433" enable-background="new"/><path d="M45.1 158.7l-.1.1H43l-.1-.1-.1-.1-.1-.1-.1-.1-.1-.1-.1-.1-.1-.1-.1-.1c-1.1-1.1-1.8-2.7-1.8-3.8s0-1.4.7-2.2c.7-.8 1.1-1 1.2-1.8.2-1-.9-2.2-1.9-3.2-1.3-1.4-2.7-2.5-4.5-4.1-1.1-1-3.1-2.2-4.9-3-1.1-.6-2.4-1.2-3.7-1.8-1.3-.7-3.2-1.1-3.6-1.1-.5 0-.3.4.2 1 .5.5 2.4 1.6 2.9 1.9.5.3 1.8 1.1 1.8 1.1-1-.1-1.9-.3-2.1.1-.2.4.3 1.4.8 1.7.4.3 1.8 1.2 2.2 1.4-.8.2-1.6 0-1.6.6s.5 1 .9 1.3c.4.3 1.9 1 1.9 1-.7.1-1.2.3-1.3.6-.1.3.5.8 1.2 1.1-.8.3-1.4.6-1.4 1.1 0 .5.8.8 1.3.9-.7.3-1.4.8-1.3 1.2.1.5.6.5 1.1.7-.6.3-1.2.8-1 1.2.2.4.9.7 1.5.7-.8.4-1.2.9-1.1 1.3.1.5 1.1.6 1.5.6-.4.5-.9 1.2-.7 1.5.2.3.9.6 1.3.5-.4.6-.7 1.2-.4 1.5.3.3 1.2.2 1.5 0 .3-.2-.3.4-.3.4s-.5.5-.1 1.4c.1.3 1.1.2 1.4.1-.3.7-.3 1.3-.1 1.5.2.2 1.2 0 1.4-.2-.3.9-.4 1.3-.1 1.5.3.2 1.3-.1 1.6-.4-.3.9-.3 1.2-.1 1.4.3.2 1.4.3 1.8-.1-.3.7-.1 1.1.2 1.3.3.2 1 .2 1.5-.4.1 1 0 1.2.5 1.4.5.2 1.2-.3 1.5-.7.2 1 .3 1.1.7 1.2.4.2 1.2-.5 1.4-.9.2.7.6 1.1.8 1.2.2.1.1-.3.1-.3v-9.7zM60.1 158.5l.1.1H61.1 61 62.2l.1-.1.1-.1.1-.1.1-.1.1-.1.1-.1.1-.1.1-.1c1.1-1 1.7-2.8 1.7-3.9s-.1-1.3-.8-2.1c-.7-.8-1.1-1-1.2-1.8-.1-.8.3-1.6 1.7-2.9 1.4-1.3 2.7-2.8 4.8-4.3 1.2-.9 3-2.3 4.7-3.2l3.7-1.8c1.3-.7 3.1-.9 3.5-.9.5 0 .8 0 .3.6s-2.6 2-3 2.3c-.5.3-1.3.7-1.3.7 1-.1 1.4.1 1.6.5.2.4-.3 1.4-.8 1.7-.4.3-2.1 1.1-2.4 1.2.8.2 1.7.2 1.6.7-.1.6-.5 1-.9 1.2-.4.3-2 1-2 1 .7.1 1.1.2 1.2.5s-.3.9-1.1 1.2c.8.3 1.5.4 1.4.9-.1.5-.7 1-1.2 1.2.7.3 1.2.8 1.1 1.2-.1.5-.3.5-.9.7.6.4 1 .8.9 1.2-.2.4-1 .7-1.4.8.8.4 1.2.9 1.1 1.3s-1.2.5-1.6.5c.4.6 1 1.4.8 1.6-.2.3-.9.6-1.3.5.4.6.7 1.2.4 1.5-.3.3-1.1.2-1.5 0-.4-.2-.3-.1-.3-.1s1.1 1 .7 1.8c-.1.3-1.1.2-1.4.1.3.7.3 1.3.1 1.5-.2.2-1.2 0-1.4-.2.3.9.4 1.3.1 1.5-.3.2-1.3-.1-1.6-.4.3.9.3 1.2.1 1.4-.3.2-1.4.3-1.8-.1.3.7.1 1.1-.2 1.3-.3.2-1 .2-1.5-.4-.1 1 0 1.2-.5 1.4-.5.2-1.2-.3-1.5-.7-.2 1-.1 1.2-.5 1.3-.7.2-1.3-.6-1.5-1-.2.7-.4 1.1-.5 1.2-.2.1-.3-.3-.3-.3v-9.7z" opacity=".99" fill="#81572E" enable-background="new"/><path d="M57 150.7l-.1.1v.4c.1.4-.1 1-.2 1.1-.1.2.1.3.1.5v.2l.2.2c.1.1.3.7.3.9.1.2.1.6.8.7.7 0 1.5-.1 1.7-.4.2-.3.3-1.1.3-1.4 0-.3.6-1 .8-1.2.2-.2.9-.7 1-.9.1-.2 0-.5-.2-.7-.2-.2-.4-.7-.1-1.4.3-.7.2-1.2-.1-1.5-.2-.3-.6-.1-.9 0-.3.2-.6-.2-.7-.3-.1-.2-.3-.5.2-1s2.2-1.8 3.2-2.7c1-.7 2.6-1.6 4.2-2.1.8-.2 3-.8 3.4-.9.4-.1.5-.2.6-.3.1-.1.2-.1 0-.5-.1-.2 0-.7 0-1v-.3s.4-.3.7-.5c.3-.2 1.2-.9 1.3-1.3s.5-.8 0-1.4c-.5-.6-.6-.7-.6-1.4s-.5-1.7-.8-2c-.3-.3-1.2.1-1.4.3-.2.3-.5.6-.1 1s.7 1.4.6 1.7c-.2.3-.2.2-.2.2s-.7.4-1.2.6c-.4.1-1.7.4-2 1.1-.3.6-.2.6-.1.8s.3.8.3.9v.2s-.7.2-1 .3c-.3.1-2.2.8-2.7 1.1-.5.3-2.8 1.8-2.8 1.8-.6.4-2.1 1.6-2.6 2.2-.6.6-.7.8-1.1 1.2-.4.4-.9.9-.7 1.1.2.2.8.5 1 .7.2.2.3.6.6.9.3.3.7.8 1 .4l.2-.2s.3 0 .4.1c.2.1.4.3.5.4.1.1.1.2.1.2s-.8.7-1.1 1c-.3.3-1.1 1.4-1.1 1.9-.1.5-.3 1.1-.3 1.5s.1.8.1.8-.3-.8-.5-1.1c-.1-.3-1-1.9-1.1-2 .3.3.1 0 .1 0zM50.5 148.7h-.7c-.4 0-.6-.1-.6-.1.2.6.1 1.6 0 1.9s-.7 1.5-.7 2c0 .6.1 1.5.5 1.8 0 0 .2-.4.4-.7.2-.3.5-.5.5-.5 0-.8.1-1.3.3-1.8.2-.5.6-1.3.6-1.6-.1-.3-.3-1-.3-1zM47.7 149.3V151.1c-.1.3-.7.8-.9.9-.2.1-.5.1-.8.2s-.7.2-1 .1c-.3-.1-.6-.5-.7-.9 0-.4-.1-1-.5-1.3-.5-.3-1-.9-1.1-1.1-.1-.2-.4-.8.3-1 .6-.2.9-.4 1-.5.1-.1.4-.5.4-.5-1.1-1.7-2.7-2.6-4.4-3.7-2.1-1.4-5.8-2-6.4-2.1-.6-.1-.7-.4-.9-.9-.1-.5-.1-1.5-.1-1.5-.5-.1-1.6-1-2-1.5-.4-.5-.2-1.2 0-1.5.2-.3.7-.8.7-1.1.1-.3.3-1.6.5-2 .2-.5.2-.5.7-.7.5-.2 1.4.2 1.4.9 0 .6-.7 1.7-1 2.2 0 0 .5.3.8.4.3.1.9.3 2.2.9.9.3.9 1.3.8 1.6-.2.4-.3.8-.4 1.3 2.1.5 5.5 1.8 7.2 3.4 1.4 1.3 2.3 1.8 3.2 3.2.6.8.4 1.3-.1 1.4-.4.1-.8.3-.9.5-.2.2-.5.5-.5.7-.1.3 0 .3-.4.4 0 0 .4.3.8.7.3.4.2.7.3 1.1.1.5.2.6.6.5.1-.2.1-.8 0-1.5 0-.7.5-1.1 1-1.2-.1-.2-.1.6.2.8z" opacity=".99" fill="#fd0" enable-background="new"/><path d="M45 128.7V130.3l-.1.1-.1.1-.1.1-.1.1-.1.1-.1.1-.1.1-.1.1-.1.1-.1.1-.1.1-.1.1h-.1l-.1.1h-.2c.9.9.6 2.3-.2 2.9 1.1.7 1.3 1.8.7 2.8 1.5.3 1.9 1.6 1.6 2.5 1-.2 2.3.6 2.3 1.9.9-.6 2.4-.2 2.8 1 .9-.9 2.1-1 3 0 .5-1.1 2-1.6 2.8-1 0-1.2 1.3-2.2 2.5-1.7-.5-1.4.7-2.5 1.6-2.6-.7-1-.4-2.5.9-3-1.1-.6-1.2-2.2-.3-3-1.5-.4-1.7-1.9-1.2-2.8-.9.2-2.4-.8-2.1-2.2-1.2.5-2.5-.3-2.7-1.4-.9.9-2.5.5-3-.4-.4.8-1.6 1.5-3 .5-.2 1-1.3 1.9-2.6 1.5.5 1.3-.5 2.1-1.5 2.1z" opacity=".99" fill="#4DA7D3" enable-background="new"/><path d="M45 128.7V130.3l-.1.1-.1.1-.1.1-.1.1-.1.1-.1.1-.1.1-.1.1-.1.1-.1.1-.1.1-.1.1h-.1l-.1.1h-.2c.9.9.6 2.3-.2 2.9 1.1.7 1.3 1.8.7 2.8 1.5.3 1.9 1.6 1.6 2.5 1-.2 2.3.6 2.3 1.9.9-.6 2.4-.2 2.8 1 .9-.9 2.1-1 3 0 .5-1.1 2-1.6 2.8-1 0-1.2 1.3-2.2 2.5-1.7-.5-1.4.7-2.5 1.6-2.6-.7-1-.4-2.5.9-3-1.1-.6-1.2-2.2-.3-3-1.5-.4-1.7-1.9-1.2-2.8-.9.2-2.4-.8-2.1-2.2-1.2.5-2.5-.3-2.7-1.4-.9.9-2.5.5-3-.4-.4.8-1.6 1.5-3 .5-.2 1-1.3 1.9-2.6 1.5.5 1.3-.5 2.1-1.5 2.1z" opacity=".99" fill="none" stroke="#000" stroke-width=".258" stroke-miterlimit="10.433" enable-background="new"/><path opacity=".99" fill="none" stroke="#fff" stroke-width=".258" stroke-miterlimit="10.433" enable-background="new" d="M53.3 140l.4 1.7M51.5 140l-.3 1.8"/><path d="M50.6 148.7v.9c.2.1.7.4.9.6s-.1 1-.2 1.1c-.2.1-.7 1.3-.9 1.5-.2.2-.2.7.2 1 .3.3 1.5-.8 1.8-1-.1.6 0 1.5.3 1.6.4.1.9-1.8 1-2-.1.4.6 2.3 1.1 2 .5-.3.6-1.8.6-2 0 .2.9 2.2 1.4 1.6s.2-1.1.1-1.4c.2-.2.2-1 .2-1.1 0-.1-.2-.5-.1-.8.2-.4.2-1.6.2-1.9-.1-.3-.2-.5-.1-.7 0 0 .7-.3.3-.6-1.2-.7-2.4-1-3.8-1.3-1.4-.3-2.3 0-2.5.2-.7 0-1.1-.1-1.2.3.1-.2-3.3.4-2.1 2.5.2-.5.5-.9 1.8-.7s2 .7 2.3.8c-.3-.3-.1-.7-1-1M50.4 147.9l-.3-.3M51.6 147.5H52.7c-.2 0 1-.2 1.3 0 .4.2.5.5.5.6" opacity=".99" fill="none" stroke="#000" stroke-width=".258" stroke-miterlimit="10.433" enable-background="new"/><path d="M52 147.5H53.1c.2.2.5.4.1.6-.4.1-1.3-.6-1.2-.6z" opacity=".99" enable-background="new"/><path d="M73 132.5l.1.1V134.5c0 .5.3.9.6 1.4.4.5.1 1-.3 1.6s-1.8 1.5-1.8 1.5M71.8 137.7l.1.1V138.7c0 .5-.2.8.1 1.2.3.3-1.1.6-1.7.8-.9.3-3.6 1.1-5 2-1.5.9-3.7 2.5-5.3 4.2-.3.3-.8.9-.3 1.5.5.5 1.1-1 1.7-1.1.7-.1 1.1.7.5 1.3-.6.6-2.5 1.8-2.8 3.6-.3 1.7-.3 1.2-.1 2 .2.8-1.2 1-1.5 0-.3-1-.5-1.1-.5-1.1M68.3 137.6c.1.6.5.9.3 1.2M60.4 146.6c-.2.2-.1 1.1.7 1M60.2 148.4c.6 0 1.1.7 1.1.7M62.1 148.1V148.9l-.1.1-.1.2-.1.2V150.9c.6.8-.1.7-.5 1.2s-1.4 1-1.3 2.2c.1 1.2-1 1.1-1.8 1.2M58.9 154.3c-.3-.9-1.7-3.5-1.9-3.7" opacity=".99" fill="none" stroke="#000" stroke-width=".258" stroke-miterlimit="10.433" enable-background="new"/><path d="M71.1 133.3c.3.4.7 1.3.6 1.6" opacity=".99" fill="none" stroke="#000" stroke-width=".258" stroke-linecap="round" stroke-miterlimit="10.433" enable-background="new"/><path d="M72.5 134.2v-1.3c-.2.6-1.7.5-1.2-.4s1.7-1 1.9-.1c.3.9-.9 2.4-1.7 2.9-.8.5-2.4.7-2.8 1.2-.3.3-1 1.3 1 1 1.8-.3 2.4-.7 2.4.1 0 .8-1.5.6-2.6.9-.9.2-3 .8-5 2-2.1 1.3-4.7 3.4-5.4 4.2-.6.8-1.9 1.5-1.1 1.9 1.3.6 1.2 1.7 1.8 1.8M50.5 152.9H50.2l-.1.1h-.2l-.1.1-.1.1-.1.1-.1.1-.1.1-.1.1-.1.1-.1.1-.1.1-.1.1-.1.1-.1.1-.1.1-.1.1-.1.1V155.3c0 .6.1.8.2.9s1.6-.9 1.7-1.4c-.1.5 0 1.6.5 2 .5.4 1.2-.8 1.3-1.3.1.5.1 1.3 1 1.7.8.3 1-1.1 1-1.4.2.6.7 1.1 1.2 1.1.5.1.7-1 .7-1.3.2.6.7.9 1.1 1.1.3.2.5-.5.3-.7M52.1 157.8h.4-.1c-.9-.1-1-1.1-1-1.5-.1.2-1 1.5-1.6 1.2-.6-.2-.7-1.5-.8-2-.4.3-1.3 2.2-1.5 1.1-.3-1.1 1.5-1.8 1.3-2M52.6 157.6h.5l.1-.1V156.1c.2.6.7 1.2 1.1 1.3.5.1 1-1.3 1-1.5.3.7.9 1.4 1.4 1.4.5 0 .5-1.6.6-1.8M58.1 155.2l.1.1.1.1.1.1v.1l.1.1.1.1.1.1.1.1.1.1.1.1.1.1.1.2.1.1.1.1v.1l.1.1V158c-.2.3-1.1-.5-1.3-.8M47.6 156.1c-.3.3-.8 1.1-.8 1.4M48 156.8c0 .3-.2.7-.1 1M49.9 157.3c-.2.3-.2.4-.5.5M50.2 157.3c.1.3.1.4.3.5M50.6 149.7V150.7l-.1.1v.1l-.1.1v.1l-.1.1V152.1c-.2.4-.3 1.1-.2 1.5M48.9 154.3l-.1-.1v-.2l-.1-.1-.1-.1-.1-.1V151.8l.1-.1v-.2l.1-.1v-.6c.2-.4.2-1.9.1-2.1M49.3 149.1c-.3-.1-1-.2-1.4-.1M47.4 148.3H47V149.6c.1.8.1 2.2-.5 2.4-1 .3-1.6-.3-1.6-1-.1-1.1-.8-1.1-1.1-1.5 0 0-1.4-1.4 0-1.6.3 0 .8.4.9.6 0 .2 1 .6 1.1-.1s.8-1.2 1.3-1.2c.5-.1.9-.6.1-1.7-1.5-1.8-4.1-4-6.4-5-2.1-.9-5.3-1.8-6.9-2-.8-.1-.1-.9.2-.8.5 0 2 .3 2.3.2.4 0 1.4-.7.4-1.3-1-.6-2.9-1.1-3.3-1.5-.4-.4-1.7-1-1-2.4.6-1.5 2.1-.5 2.1.1s-.6 1.2-1.2.6c-.3.5-.3.9-.5 1.1M33.9 132.9c-.1.6-.8 2-1 2.1" opacity=".99" fill="none" stroke="#000" stroke-width=".258" stroke-miterlimit="10.433" enable-background="new"/><path d="M31.8 132.8v.1l-.1.1V134.4c0-.1-1 1.6-.8 1.3-.3.4-.1 1 .1 1.4-.3-.7.7 1.1 2.1 1.5" opacity=".99" fill="none" stroke="#000" stroke-width=".258" stroke-linejoin="round" stroke-miterlimit="10.433" enable-background="new"/><path d="M32.9 138.2l-.1.1V140.1c-.1.5.2 1.1 1.1 1.2 1 .1 4.1.9 5.7 1.8 1.2.7 3.1 2 3.8 2.7.6.7 1.5 1.7 1.6 2.2.1.5-.1.8-.3.9M44.3 147l-.1.1c-.2.1-.6.1-.8.4M36.6 136.9V138.1c-.2.4-.3.9-.3.9M44.8 148.7l.1.1h.2l.1.1.1.1.1.1v.4c0 .3 0 .7.1.9.1.2.3.5.6.3M47.9 148.9V151.6c.1-.1-.5.6-1.7.8M49.8 174.7c.1-.1 0 .1 0 0M52 174.8V176.7H52.3c.7-.1.7-1 .6-1.9" opacity=".99" fill="none" stroke="#000" stroke-width=".258" stroke-miterlimit="10.433" enable-background="new"/><path d="M62.6 163.3l.1.1v.5c-.4.1-1-.4-1.5-1-.6-.8-.8-1.4-.9-1.6" opacity=".99" fill="none" stroke="#000" stroke-width=".258" stroke-linejoin="round" stroke-miterlimit="10.433" enable-background="new"/><path d="M61.2 163.7c0 .1.5 2.1-1.1 1M60.1 158.5l.1.1H62l.1-.1.2-.1.1-.1.1-.1.1-.1.1-.1.1-.1.1-.1.1-.1.1-.1.1-.1.1-.2.1-.1.1-.1.1-.1.1-.1c1-1.7 1.4-3.8.7-4.6-.6-.8-2.6-2.1-1.3-3.8 1.3-1.7 5.4-5.5 7.6-7 2.2-1.6 6-3.9 8.9-4.5.8-.2 2.4-.5 2.1 0-.9 1.5-4.5 3.1-6.6 4.7-.5.3-6.5 3.6-7.1 4.2.1.6-.8 1-1.8 1.6.7-.2 1.3.5-.6 1.5.9-.2 1.2.6.3 1.3.5 0 1 .5.5 1.1.3.1.8.6.3 1.1.3.1.7.6 0 1 .6.2.6.8.1.9.8.2.4 1-.1 1.2.3.4.4.9-.2 1.1.3.4 0 1.1-.5.9 0 .2.2 1-.6.9 0 .4-.2 1.1-.9 1-.1.6-.6.8-1.1.6-.3.6-.6.8-1.3.4-.1.2-1.1.9-1.5.2-.1.2-.5.5-.5.5M71.5 144l.1-.1H73.7c.3.3-.7 1.4-1 1.6-.3.2-5.5 2.5-5.6 2.7" opacity=".99" fill="none" stroke="#000" stroke-width=".258" stroke-miterlimit="10.433" enable-background="new"/><path d="M70.6 146.5H72.6c.2.4-.5 1.1-1 1.4-.5.3-4.6 1.6-4.7 1.7M69.9 148.4H71.7c.1.2-.1 1-1.1 1.3-1 .3-4.3.8-4.3.8M69.8 150.1H71.3v.1c-.1.3-.6 1-1.7 1.1-1.1.1-2.7.1-2.9.1M69.7 151.6H70.5c-.2.4-.8.8-1.6.8-1 0-2.2-.1-2.4-.1M69.7 152.9H70.5c-.2.4-.8.8-1.6.8-1 0-2-.2-2.2-.2M69.5 154.2H70.5v.2c-.2.3-.9.6-1.7.5-1-.1-1.4-.2-1.6-.3M69.3 155.6H70.4v.1c-.2.3-.6.6-1.4.5-1-.1-1.8-.5-2-.6M69 157l.1.1h.5v.2c-.3.3-.9.4-1.7.2-.9-.2-1.3-.3-1.5-.5M68.5 158.3l.1.1h.2v.1h.1l.1.1.1.1v.7c-.3.3-1.1.5-1.9.1-1-.4-1.3-.6-1.5-.9M67.9 159.7l.1.1V161.4c-.3.3-1.1.1-1.8-.3-.9-.5-1.2-.9-1.4-1.1M66.9 160.9l.1.1V162c-.3.3-1 .1-1.7-.4-.8-.6-1.2-1-1.4-1.2M65.6 161.7l.1.1V163.5c-.3.2-1.1.1-1.7-.5-.7-.7-1.1-1.2-1.3-1.4M64 162.5l.1.1v1.5c-.4.2-1.2 0-1.7-.6-.7-.9-1-1.5-1.2-1.8" opacity=".99" fill="none" stroke="#000" stroke-width=".258" stroke-linejoin="round" stroke-miterlimit="10.433" enable-background="new"/><path d="M60.1 165.4v1.3l.1.2.1.2.1.2.1.2v.2l.1.1V168.1l.1.1v.1l.1.1v.1c.3.5 1.1.8 1.1.8.7-.1.7-1.1.7-1.4M61.3 164.1l.1.1v.5l.1.1.1.1v.1l.1.1.1.1.1.2.1.2.1.2.1.2.1.1.1.1.1.1.1.1.1.1.1.1.1.1v.1l.1.1V167.2c.3.5 1.1 1.1 1.7 1 .7-.1.5-1.3.4-1.5M64.3 162.8l.1.1.1.1.1.1.1.1.1.1.1.1.1.1.1.1.1.1.1.1.1.1.2.2.2.2.1.1.1.1.1.1.1.1.1.1.1.1.1.1.1.1.1.1.1.1.1.1c.3.2.3 1.3-.3 1.5-.9.2-1.6-.9-2-1.4-.4-.5-1.1-1.9-1.3-2.2M66.6 165.6l.1.1.1.1.1.1h1.3-.2.5c.5-.2.3-1.1.2-1.5M65.7 161.8l.1.1.1.1.1.1.1.1.2.2.2.2.2.2.1.1.1.1.1.1.1.1.1.1.1.1c.6.5 1 .9 1.5 1.1.5.3 1.1.4 1.4.2.3-.2.1-1.1-.1-1.5M66.9 160.9l.1.1.1.1.1.1.1.1.2.2.2.2.2.2.1.1.1.1.1.1.1.1.1.1.1.1c.6.5 1.1.8 1.6 1 .5.3 1.2.3 1.4.1.3-.3.1-1.1-.2-1.5" opacity=".99" fill="none" stroke="#000" stroke-width=".258" stroke-miterlimit="10.433" enable-background="new"/><path d="M68 159.7l.1.1.1.1.1.1.1.1.1.1.1.1.2.2.2.2.1.1.1.1.1.1.1.1.1.1.1.1c.7.4 1.2.7 1.7.9.6.2 1.2.2 1.4-.1.2-.3-.1-1.1-.3-1.4M68.8 158.3l.1.1.1.1.1.1.1.1.1.1.1.1.1.1.1.1.3.2.1.1.1.1.1.1.1.1.1.1.1.1c.7.3 1.2.5 1.7.7.6.2 1.2 0 1.4-.2.2-.3-.2-1.1-.5-1.4" opacity=".99" fill="none" stroke="#000" stroke-width=".258" stroke-linecap="round" stroke-miterlimit="10.433" enable-background="new"/><path d="M69.4 157l.1.1h.6l.2.1.2.1.2.1.2.1.2.1.2.1.2.1.2.1.2.1h.6c.7.2 1.3.3 1.8.4.6.1 1.2-.2 1.3-.4.2-.3-.6-1.3-.9-1.5M69.5 155.6l.1.1h1.2l.2.1H72.6c.7.1 1.6.2 2.1.2.6 0 1.2-.3 1.3-.6.1-.3-.6-1-1-1.3M69.6 154.2H71.2l.3.1h1.4c.7 0 1.3 0 1.9-.1.6-.1 1.1-.5 1.2-.8.1-.4-.6-.9-1-1.1" opacity=".99" fill="none" stroke="#000" stroke-width=".258" stroke-miterlimit="10.433" enable-background="new"/><path d="M69.9 152.9h3.2c.8 0 1.3-.1 1.9-.2.6-.1 1.1-.5 1.1-.8 0-.3-.7-.9-1.1-1" opacity=".99" fill="none" stroke="#000" stroke-width=".258" stroke-linecap="round" stroke-miterlimit="10.433" enable-background="new"/><path d="M69.9 151.6H73c.7-.1 1.5-.3 1.9-.5.7-.3.9-.9.9-1.2 0-.3-1-.6-1.4-.7M70.1 150.1H71.2l.2-.1.2-.1.2-.1.3-.1h1.2c.7-.2 1.1-.4 1.6-.6.5-.2.9-.9.7-1.1-.2-.4-.8-.4-1.2-.4M70.2 148.4l.2-.1h.4l.1-.1h.1l.2-.1.2-.1.2-.1.2-.1.3-.1.3-.1.3-.1.2-.1.2-.1.2-.1.2-.1.1-.1.1-.1.1-.1.1-.1.1-.1h.2l.1-.1h.2c.7-.3 1.3-.7 1.8-.9.5-.2 1.1-1.2 1.1-1.5 0-.3-1.3-.5-1.7-.5M72.3 145.6l.2-.1h.1l.1-.1.1-.1.1-.1.1-.1.1-.1.1-.1.1-.1.1-.1.2-.1.3-.1.3-.2.3-.1.2-.1.1-.1.1-.1.1-.1.1-.1.1-.1.1-.1.1-.1.1-.1.1-.1.1-.1h.1l.1-.1h.1c.7-.4 1.6-.7 1.9-1.1.5-.5.8-1.2.7-1.5 0-.3-1-.6-1.7-.5M61 167.8v.4c-.1.2-.5 0-.5 0M45 158.6l-.1.1H43.1l-.1-.1-.2-.1-.1-.1-.1-.1-.1-.1-.1-.1-.1-.1-.1-.1-.1-.1-.1-.1-.1-.1-.1-.1-.1-.1-.1-.1-.1-.1-.1-.1c-1-1.7-1.4-3.8-.8-4.6.6-.8 2.6-2.2 1.3-3.8-1.3-1.6-5.4-5.4-7.6-6.9-2.2-1.6-7.5-4.3-10.3-4.8-.8-.2-.5.8-.1 1.1.6.5 5.7 3.3 6.1 3.7.5.5 6.5 3.7 7.1 4.3-.1.6.8 1 1.8 1.5-.7-.2-1.3.5.6 1.5-.9-.2-1.2.6-.3 1.3-.5.1-1 .5-.5 1.1-.3.1-.8.6-.3 1.1-.3.1-.7.7 0 1-.6.2-.5.8-.1.9-.8.2-.3 1 .1 1.2-.2.4-.4.9.2 1.1-.2.5 0 1.1.5.9 0 .2-.2 1 .7.9 0 .4.2 1.1.9 1 .1.6.6.8 1.1.6.3.6.7.8 1.3.4.2.2 1.1.9 1.5.2.1.2.4.4.4.4" opacity=".99" fill="none" stroke="#000" stroke-width=".258" stroke-miterlimit="10.433" enable-background="new"/><path d="M33.5 144.2l-.1-.1H31.9c-.4.8.6 1.3 1 1.6.3.2 5.5 2.4 5.6 2.6" opacity=".99" fill="none" stroke="#000" stroke-width=".258" stroke-linecap="round" stroke-linejoin="round" stroke-miterlimit="10.433" enable-background="new"/><path d="M34.4 146.7H32.7c-.2.4.5 1.1 1 1.4.5.3 4.6 1.5 4.8 1.6" opacity=".99" fill="none" stroke="#000" stroke-width=".258" stroke-miterlimit="10.433" enable-background="new"/><path d="M35 148.6h-1.1.1-.5c-.1.2.2 1 1.1 1.3 1 .3 4.3.7 4.3.7" opacity=".99" fill="none" stroke="#000" stroke-width=".258" stroke-linejoin="round" stroke-miterlimit="10.433" enable-background="new"/><path d="M35.3 150.3H33.9v.1c.1.3.6 1 1.7 1.1 1.1.1 2.7.1 2.9.1" opacity=".99" fill="none" stroke="#000" stroke-width=".258" stroke-linecap="round" stroke-linejoin="round" stroke-miterlimit="10.433" enable-background="new"/><path d="M35.3 151.8H34.5v.1c.2.4.8.8 1.6.8 1 0 2.2-.1 2.4-.1M35.3 153.1H34.5v.1c.2.4.8.8 1.6.8 1 0 2-.2 2.2-.2M35.6 154.4H34.8v.1c.1.4.9.6 1.7.5 1-.1 1.4-.2 1.6-.3M35.8 155.8h-1.2v.1c.2.4.6.6 1.4.5 1-.1 1.8-.5 2-.6M36 157.2l-.1.1v.4c.3.3.9.4 1.7.2.9-.2 1.3-.4 1.5-.5M36.6 158.5l-.1.1v.2h-.1V160.2c.3.4 1 .3 1.7 0 1-.4 1.4-.7 1.5-.9M37.2 159.9l-.1.1V161.8c.3.2 1.1 0 1.8-.3.9-.5 1.2-.9 1.4-1.1M38.2 161.1l-.1.1v1c.3.3 1 .1 1.7-.4.8-.6 1.2-1 1.4-1.2M39.6 161.8l-.1.1v1.5c.3.2 1.1.1 1.7-.5.6-.5 1-1.1 1.3-1.4" opacity=".99" fill="none" stroke="#000" stroke-width=".258" stroke-linejoin="round" stroke-miterlimit="10.433" enable-background="new"/><path d="M41.1 162.6l-.1.1V164c.4.2 1.2 0 1.7-.7.7-.9 1-1.5 1.1-1.8" opacity=".99" fill="none" stroke="#000" stroke-width=".258" stroke-linecap="round" stroke-linejoin="round" stroke-miterlimit="10.433" enable-background="new"/><path d="M45 165.5l-.1.1V166.4l-.1.2-.1.2-.1.2-.1.2-.1.2-.1.2V168.6c-.3.6-.8.9-1 .8-.7-.1-.7-1.1-.7-1.4" opacity=".99" fill="none" stroke="#000" stroke-width=".258" stroke-linecap="round" stroke-miterlimit="10.433" enable-background="new"/><path d="M43.9 164.1l-.1.1v.2l-.1.1v.1l-.1.1v.1l-.1.1-.1.1-.1.1-.1.1-.1.2-.1.2-.1.2.1.2-.1.1-.1.1-.1.1-.1.1-.1.1-.1.1-.1.1v.1l-.1.1v.4c-.3.5-1 1.2-1.7 1-.6-.1-.5-1.3-.4-1.5M40.8 163l-.1.1-.1.1-.1.1-.1.1-.1.1-.1.1-.1.1-.1.1-.1.1.1.1-.1.1-.1.1-.2.2-.2.2-.1.1-.1.1-.1.1-.1.1-.1.1-.1.1-.1.1-.1.1-.1.1-.1.1c-.3.2-.3 1.3.4 1.5.9.2 1.6-.9 2-1.4.3-.5 1.1-1.9 1.3-2.2M38.5 165.8l-.2.1-.1.1h-1.6.4H36.7c-.5-.2-.3-1.1-.2-1.5M39.4 162l-.2.2-.1.1-.1.1-.1.1-.1.1-.2.2-.2.2-.1.1-.1.1-.1.1-.1.1-.1.1-.1.1c-.6.5-1 .9-1.5 1.2-.5.3-1.1.4-1.4.2-.3-.2-.2-1.1 0-1.5M38.2 161.1l-.2.2-.1.1-.1.1-.2.2-.2.2-.2.2-.1.1-.1.1-.1.1-.1.1-.1.1-.1.1c-.6.5-1.1.8-1.6 1-.5.3-1.2.3-1.4.1-.3-.3-.1-1.1.2-1.5M37.1 159.9l-.1.1-.1.1-.1.1-.1.1-.2.2-.2.2-.2.2-.1.1-.1.1-.1.1-.1.1-.1.1-.1.1c-.7.4-1.2.7-1.7.9-.5.2-1.2.2-1.4-.1-.2-.3.1-1.3.3-1.6M36.3 158.5l-.1.1-.1.1-.1.1-.1.1-.1.1-.1.1-.1.1-.1.1-.3.2-.1.1-.1.1-.1.1-.1.1-.1.1-.1.1c-.7.3-1.2.6-1.7.7-.6.2-1.2 0-1.4-.2-.4-.6.5-1.4.6-1.5" opacity=".99" fill="none" stroke="#000" stroke-width=".258" stroke-miterlimit="10.433" enable-background="new"/><path d="M35.7 157.2l-.1.1H35l-.1.1-.2.1-.2.1-.2.1-.2.1-.2.1-.2.1-.2.1-.2.1h-.6c-.7.2-1.1.3-1.7.4-.6.1-1.4-.1-1.5-.4-.2-.3.5-1.3.9-1.5" opacity=".99" fill="none" stroke="#000" stroke-width=".258" stroke-linecap="square" stroke-miterlimit="10.433" enable-background="new"/><path d="M35.6 155.8l-.1.1H34.5l-.2.1h-.2l-.2.1H32.5c-.8.1-1.6.2-2.1.2-.6 0-1.2-.3-1.3-.6-.1-.3.6-1 1-1.3M35.4 154.4H34l-.3.1h-1.6c-.7 0-1.3 0-1.9-.1-.6-.1-1.1-.4-1.1-.8-.1-.3.6-.9 1-1.1M35.2 153H32c-.8 0-1.4-.1-1.9-.2-.6-.1-1.1-.5-1.1-.8-.1-.3.9-1 1.3-1.1" opacity=".99" fill="none" stroke="#000" stroke-width=".258" stroke-miterlimit="10.433" enable-background="new"/><path d="M35.1 151.8H31.7c-.7-.1-1.5-.3-1.9-.5-.7-.3-1-.7-.9-1.1.2-.3 1-.7 1.3-.8" opacity=".99" fill="none" stroke="#000" stroke-width=".258" stroke-linecap="round" stroke-miterlimit="10.433" enable-background="new"/><path d="M35 150.3H33.9l-.2-.1-.3-.1-.2-.1-.2-.1h-1.2c-.7-.2-1.1-.4-1.6-.6-.5-.2-1.1-.7-1-1 .2-.3 1-.5 1.5-.6M34.8 148.6h-.5l-.1-.1H34l-.1-.1-.2-.1-.2-.1-.2-.1-.3-.1-.3-.1-.3-.1-.2-.1-.2-.1-.2-.1-.2-.1-.2-.1-.1-.1-.1-.1-.1-.1H31l-.1-.1h-.4c-.7-.3-1.3-.6-1.8-.9-.6-.3-1.2-.8-1.1-1.5 0-.3 1.1-.6 1.7-.5" opacity=".99" fill="none" stroke="#000" stroke-width=".258" stroke-miterlimit="10.433" enable-background="new"/><path d="M32.9 145.9l-.1-.1h-.2l-.1-.1h-.1l-.1-.1-.1-.1-.1-.1-.1-.1-.1-.1-.2-.1-.2-.1-.2-.1-.2-.1-.3-.1-.3-.1-.3-.2-.2-.1-.2-.1-.2-.1-.1-.1-.1-.1-.1-.1-.1-.1-.1-.1-.1-.1-.1-.1c-.6-.4-1.2-.8-1.7-1-.5-.3-1-1.3-1-1.6.2-.6 1.7-.3 2.1-.3" opacity=".99" fill="none" stroke="#000" stroke-width=".258" stroke-linecap="round" stroke-miterlimit="10.433" enable-background="new"/><path d="M44.1 163.7l-.1.1v1.6c.5.3.3.4 1-.5" opacity=".99" fill="none" stroke="#000" stroke-width=".258" stroke-miterlimit="10.433" enable-background="new"/><path d="M42.6 163.3l-.1.1v1.4c.4.2 1.2-.3 1.7-1 .6-.8.7-1.8.9-2.2" opacity=".99" fill="none" stroke="#000" stroke-width=".258" stroke-linejoin="round" stroke-miterlimit="10.433" enable-background="new"/><path d="M44.3 167.6c.1.7.6 1.2.7 1.3" opacity=".99" fill="none" stroke="#000" stroke-width=".258" stroke-miterlimit="10.433" enable-background="new"/><path d="M45 169.5H43.5l-.1.1h-.2l-.1.1H43l-.1.1h-.1l-.1.1h-.1l-.1.1-.1.1c-.3.3-.3.6.1.5.4 0 1.1-.1 1.4-.1.3 0 0 .1-.2.3-.2.1-.7.3-.9.7s-.3.2.1.4c.4.1.9-.1 1.2-.1.4 0 .1 0-.1.2s-.8.6-.9.9c-.1.3-.3.5-.2.6.1.2.2.3.5.3.2 0 .5 0 .6-.1-.2.2-.3.4-.6.8-.2.4 0 .6.1.7.1.1.6.1 1 0 .3-.1.5-.3 1.1-.7" opacity=".99" fill="none" stroke="#000" stroke-width=".258" stroke-linecap="round" stroke-miterlimit="10.433" enable-background="new"/><path d="M42.6 170.4H42l-.1.1-.1.1-.1.1-.1.1-.1.1-.1.1-.1.1-.1.1-.1.1-.1.1c-.4.3-.6.6-.9 1.1-.2.5.1.3.3.3.2 0 .6-.1.6-.1" opacity=".99" fill="none" stroke="#000" stroke-width=".258" stroke-miterlimit="10.433" enable-background="new"/><path d="M43.1 171.4H42c-.3.4-.5.6-.6.9-.2.3-.1.5-.1.6 0 .1.5-.1.6-.1.1-.1.5-.1.7-.2M43.4 172.4l-.1.1h-.2l-.1.1-.1.1-.1.1-.1.1-.1.1-.1.1-.1.1c-.3.3-.3.6-.5 1-.2.3 0 .4 0 .6s.2.1.5.1c.3-.1.4-.2.6-.3" opacity=".99" fill="none" stroke="#000" stroke-width=".258" stroke-linecap="round" stroke-miterlimit="10.433" enable-background="new"/><path d="M43.5 174.1l-.1.1-.1.1-.1.1-.1.1-.1.1-.1.1-.1.1v.2c-.2.4-.1.5-.2.8-.1.4.3.3.6.2.3 0 1.6-.8 1-.3-.2.2-.4.5-.6.8-.2.3 0 .4.4.3 1.3-.2 1.1-.3 1.8-.7.4-.2 1.5-1.1 1.9-1.4M41.5 172.3l-.1.1h-.5l-.1.1h-.1l-.1.1h-.1l-.1.1-.1.1-.1.1-.1.1-.1.1-.1.1-.1.1-.1.1-.1.1v.1l-.1.1-.1.1v.5c-.2.5 0 .3 0 .5s.5.1.8 0c.5-.2 1-.4 1.2-.4M40.4 172.3l-.1.1H39.3l-.1.1h-.1l-.1.1h-.1l-.1.1-.1.1-.1.1-.1.1-.1.1-.1.1-.1.1-.1.1v.1l-.1.1v.4c-.3.7-.3.4-.2.6.1.2.3.2.7-.1.3-.1.3-.3.5-.3M40 174.5l-.1.1-.1.1-.1.1v.1l-.1.1v.1l-.1.1V176c-.1.3.1.4.5.3.3-.1.6-.2.9-.2.3 0 1.2-.7 1-.6-.2.1-1.4 1-1.5 1.4s-.2.5.2.5c.5-.1 1.1-.3 1.4-.5.2-.1.6-.3.7-.3M41.8 176.3l-.1.1h-.4c-.2.2-.3.3.2.4.5.1 1.7-.1 2.1-.5" opacity=".99" fill="none" stroke="#000" stroke-width=".258" stroke-miterlimit="10.433" enable-background="new"/><path d="M38.7 174.2l-.1.1h-.4l-.1.1H38l-.1.1h-.1l-.1.1-.1.1h-.1l-.1.1-.1.1-.1.1c-.3.3-.4.4 0 .5.4.1 1.2.1 1.5.1" opacity=".99" fill="none" stroke="#000" stroke-width=".258" stroke-linecap="round" stroke-miterlimit="10.433" enable-background="new"/><path d="M41.1 177.1c-.2.1-.7.5-1.2.4M34.6 175c.4.1 2.5.1 2.8.1M40.1 177.4H37.3c.1.1-3-.2-3.1-.2M32.4 173.9v-.5l.1-.1.1-.1.1-.1.1-.1.1-.1.1-.1h.1l.1-.1.1-.1H34.9c.8.6 0 2.2-.3 2.2M32.6 174l-.1-.1h-1.3c-.4.4-1.3 1.3-1.4 1.6-.3.8.3 1.3.9 1.2M33.3 175.5h-.4c-.5.2-1.6 1.3-1.7 1.5s-.3.8-.1 1.1c.3.3.9.4 1.1.3M32.9 175.4c.2-.1.2-.5.1-.7" opacity=".99" fill="none" stroke="#000" stroke-width=".258" stroke-miterlimit="10.433" enable-background="new"/><path d="M32.9 174.8l-.1.1H32.5c-.1 0-.3-.3.2-.7.4-.4 1 .1 1.2.4.3.4-.1.1-.5.2h-.5z" opacity=".99" enable-background="new"/><path d="M32.9 174.8l-.1.1H32.5c-.1 0-.3-.3.2-.7.4-.4 1 .1 1.2.4.3.4-.1.1-.5.2h-.5z" opacity=".99" fill="none" stroke="#000" stroke-width=".258" stroke-miterlimit="10.433" enable-background="new"/><path d="M34.6 175.5v-.1H33.5c-.3.5.2.8.4.8.2-.1.2-.1.3-.3-.2 0 .2-.3.4-.4z" opacity=".99" enable-background="new"/><path d="M34.6 175.5v-.1H33.5c-.3.5.2.8.4.8.2-.1.2-.1.3-.3-.2 0 .2-.3.4-.4zM34.1 176.5l-.2-.1h-.4v.1h-.1v.1l-.1.1c-.6.6-1.3 1.2-1.4 1.6-.1.4.3 1.3 1.3 1 1-.3 1.4-1.2 1.6-1.6.1-.3.2-1 .2-1.1" opacity=".99" fill="none" stroke="#000" stroke-width=".258" stroke-miterlimit="10.433" enable-background="new"/><path d="M34.7 177.3l-.1.1h-.2c-.3-.1-.4-.3-.2-.6s.3-.3.6-.7c.1.3.2.6.1 1l-.2.2z" opacity=".99" enable-background="new"/><path d="M34.7 177.3l-.1.1h-.2c-.3-.1-.4-.3-.2-.6s.3-.3.6-.7c.1.3.2.6.1 1l-.2.2zM60.2 169.3H61.6l.1.1h.1l.1.1h.1l.1.1.1.1.1.1.1.1h.1l.1.1.1.1.1.1h.1v.1h.1c.3.4.3.6-.1.6-.4-.1-1.1-.1-1.4-.1-.3 0-.1.1.1.3.2.1.7.3.9.7.2.3.3.2-.1.4s-.9-.1-1.3-.1c-.4-.1-.1 0 .1.2s.8.6.9.9c.2.3.3.5.3.6-.1.2-.5.2-.7.2-.1 0-.8-.1-.9-.1.6.3.9.7 1 1 .2.4 0 .5 0 .7s-.5.1-.8 0c-.6-.2-1.3-.5-1.5-.7M63 170.3h.5l.1.1.1.1.1.1.1.1.1.1.1.1.1.1.1.1.1.1.1.1c.4.3.6.6.9 1.1s0 .3-.3.3c-.2 0-.6-.1-.6-.1M62 171l.1.1h.4l.1.1.1.1.1.1.1.1.1.1.1.1.1.1H64c.3.4.5.6.6.9.1.3.2.4.1.5-.1.1-.5.1-.6 0-.1-.1-.5-.1-.7-.2M62.1 172.1l.1.1h.4l.1.1h.1l.1.1.1.1.1.1.1.1.1.1h.1v.2c.3.3.3.6.5 1 .1.3.1.4 0 .5s-.2.1-.5.1c-.3-.1-.4-.1-.6-.3" opacity=".99" fill="none" stroke="#000" stroke-width=".258" stroke-miterlimit="10.433" enable-background="new"/><path d="M62 173.9l.1.1h.1l.1.1.1.1.1.1.1.1.1.1v.2c.2.4.1.5.2.8.1.4-.2.4-.5.4-.5 0-.9-.3-.9-.3.2.2.2.3.4.6s0 .4-.4.3c-1.3-.3-1.1-.3-1.9-.6-.6-.2-1.5-.9-1.9-1.2" opacity=".99" fill="none" stroke="#000" stroke-width=".258" stroke-linecap="round" stroke-miterlimit="10.433" enable-background="new"/><path d="M64.1 172.2l.1.1h.5l.1.1h.1l.1.1h.1l.1.1.1.1.1.1.1.1.1.1.1.1.1.1.1.1.1.1.1.1.1.1v.1l.1.1v.4c.2.5 0 .3 0 .5s-.5.1-.8 0c0 0-1.6-.8-1.3-.5M65.2 172.2l.1.1H66.3l.1.1.1.1.1.1.1.1.1.1.1.1.1.1.1.1.1.1.1.1.1.1v.2l.1.1v.2c.2.5.2.6.2.6-.1.2-.3 0-.7-.2-.3-.1-.3-.1-.4-.2M65.6 174.4l.1.1.1.1.1.1.1.1.1.1V175.9c.1.3-.2.2-.5.2-.4-.1-.5 0-.8-.1-.3-.1-1.1-.6-1-.5.2.1 1.3 1 1.5 1.3.2.3.2.5-.2.4-.5 0-1.1-.3-1.4-.4-.2-.1-.5-.3-.6-.4M63.8 176.2l.1.1h.4c.2.2.3.3-.2.4-.5.1-1.7 0-2.1-.4M66.9 174H67.2l.1.1h.1l.1.1.1.1.1.1.1.1.1.1.1.1.1.1.1.1.1.1.1.1c.3.3.4.4 0 .5-.4.1-1 .1-1.3.1h-.5M66.2 175.3H67.2l.1.1.1.1.1.1h.1v.1l.1.1.1.1v.1l.1.1v.2c.3.4 0 .5-.4.5-.1 0-1.7-.5-1.8-.6M68.2 175c.3 0 2.1.1 2.4 0" opacity=".99" fill="none" stroke="#000" stroke-width=".258" stroke-miterlimit="10.433" enable-background="new"/><path d="M70.7 176.7c-.1 0-2.2.2-2.9.2" opacity=".99" fill="none" stroke="#000" stroke-width=".258" stroke-linecap="square" stroke-miterlimit="10.433" enable-background="new"/><path d="M67.6 176.8l-.1.1H65.3c-.4 0-.9-.2-1.1-.3M73 173.7V172.8l-.1-.1v-.1h-.1l-.1-.1-.1-.1H70.7c-1.2.6-.5 2.1-.1 2.2M73 173.8l.1-.1h1.3l.1.1.1.1c.4.4 1.3 1.3 1.4 1.6.3.8-.3 1.3-.9 1.2M72.3 175.4H73c.5.2 1.6 1.3 1.7 1.4.1.2.4.8.1 1.1-.3.3-.9.4-1.1.3M72.7 175.2c-.3-.1-.3-.6-.2-.6" opacity=".99" fill="none" stroke="#000" stroke-width=".258" stroke-miterlimit="10.433" enable-background="new"/><path d="M72.8 174.8h.1v-.2c-.5-.8-1.6.3-1.5.2-.1.1.5 0 .8.3l.6-.3z" opacity=".99" enable-background="new"/><path d="M72.8 174.8h.1v-.2c-.5-.8-1.6.3-1.5.2-.1.1.5 0 .8.3l.6-.3z" opacity=".99" fill="none" stroke="#000" stroke-width=".258" stroke-miterlimit="10.433" enable-background="new"/><path d="M71.1 175.3v-.1H72.2c.3.5-.1.9-.5.9-.2 0-.2-.1-.3-.3.1 0-.2-.4-.3-.5z" opacity=".99" enable-background="new"/><path d="M71.1 175.3v-.1H72.2c.3.5-.1.9-.5.9-.2 0-.2-.1-.3-.3.1 0-.2-.4-.3-.5z" opacity=".99" fill="none" stroke="#000" stroke-width=".258" stroke-miterlimit="10.433" enable-background="new"/><path d="M70.7 176.5V176.2c.2.2.2.4.4.6l.4.2s.2.4 0 .6c-.3.3-.5.1-.7-.1l-.1-1z" opacity=".99" enable-background="new"/><path d="M70.7 176.5V176.2c.2.2.2.4.4.6l.4.2s.2.4 0 .6c-.3.3-.5.1-.7-.1l-.1-1zM70.8 176.9l-.1.1v.4c.3.3.7 1.4 1.7 1.7 1 .3 1.4-.6 1.3-1-.1-.4-.9-1-1.4-1.6-.5-.5-.9-.7-1.1-.5" opacity=".99" fill="none" stroke="#000" stroke-width=".258" stroke-miterlimit="10.433" enable-background="new"/><path d="M53.5 175.5l.1.1v.2l.1.1.1.1.1.1.1.1.1.1.1.1.1.1.1.1.1.1.1.1.1.2.1.1.1.1.1.1V178.8c-1 .7-1.8-1.7-1.7-2.1" opacity=".99" fill="none" stroke="#000" stroke-width=".258" stroke-linecap="round" stroke-linejoin="round" stroke-miterlimit="10.433" enable-background="new"/><path d="M54.3 174.8l.1.1h.1v.2h.1v.2l.1.1V176.7c-.4.3-.7 0-.7 0M54.8 175.3l.1.1.1.1.1.1.1.1.1.1.1.1.1.1.1.1.1.1.1.1.1.1.1.2.1.1.1.1.1.1.1.1.1.1.1.1.1.1.1.1v.7c-.3.4-1.1.1-1.3-.2M55.8 174.7l.1.1v.2c-.2.2-1.5-.6-1-.3" opacity=".99" fill="none" stroke="#000" stroke-width=".258" stroke-miterlimit="10.433" enable-background="new"/><path d="M56 174.7l.1.1v.1h.1v.1l.1.1.1.1.1.1.1.1.1.1V176.8c-.2.4-.9.3-1.5-.1" opacity=".99" fill="none" stroke="#000" stroke-width=".258" stroke-linejoin="round" stroke-miterlimit="10.433" enable-background="new"/><path d="M52.1 176.8V179.8h.7c1.1-.2.3-2.9.4-2.9" opacity=".99" fill="none" stroke="#000" stroke-width=".258" stroke-linecap="round" stroke-miterlimit="10.433" enable-background="new"/><path d="M50.9 174.8l-.1.1V176.7c.3.5.9 0 1-.3" opacity=".99" fill="none" stroke="#000" stroke-width=".258" stroke-linecap="square" stroke-miterlimit="10.433" enable-background="new"/><path d="M49.5 174.7l-.1.1-.1.1-.1.1-.1.1-.1.1-.1.1-.1.1-.1.1-.1.1v.1l-.1.1v1.2c.4.3 1.2.1 1.9-.8" opacity=".99" fill="none" stroke="#000" stroke-width=".258" stroke-linecap="round" stroke-miterlimit="10.433" enable-background="new"/><path d="M50.6 175.7l-.1.1-.1.1-.1.1-.1.1-.1.1-.1.1-.1.1-.1.1-.1.1-.1.1-.1.1-.1.1-.1.1-.1.1v.5c.5.6 1.4-.8 1.4-.7 0 .1-1.2 1.7-.2 2 .6.1 1.1-.7 1.3-.9" opacity=".99" fill="none" stroke="#000" stroke-width=".258" stroke-miterlimit="10.433" enable-background="new"/><path d="M56.7 176.5l.3.2.3.2.3.2.3.3.3.2.3.3.2.3.2.3.2.3.2.3.2.3.2.3.2.3.2.2.2.3.2.2.2.2.1.2.1.2.1.2.1.2.1.2.1.2.1.2.1.1.1.1.1.1v.1l.1.1v.2c.7 1.4-2.6-1.4-3-1.7" opacity=".99" fill="none" stroke="#000" stroke-width=".258" stroke-linecap="round" stroke-miterlimit="10.433" enable-background="new"/><path d="M56.2 177.8l.2.3.3.3.2.3.2.3.2.3.2.3.2.3.2.3.2.3.2.3.2.3.2.3.1.3.1.3.1.3.1.3.1.3.1.3.1.2.1.2.1.2.1.2.1.2.1.2.1.2v.5c.5 1.5-2.4-1.8-2.7-2.2" opacity=".99" fill="none" stroke="#000" stroke-width=".258" stroke-miterlimit="10.433" enable-background="new"/><path d="M55.2 178.3l.2.3.2.3.2.3.2.3.2.3.2.3.1.3.1.3.1.3.1.3.1.3.1.3.1.3.1.3.1.3.1.3.1.3.1.3.1.3.1.3.1.3.1.2V186.1c.1 1.6-2.1-2.5-2.3-2.8" opacity=".99" fill="none" stroke="#000" stroke-width=".258" stroke-linecap="round" stroke-miterlimit="10.433" enable-background="new"/><path d="M53.9 178.3l.2.4.2.4.2.4.2.4.1.4.1.4.1.4.1.4.1.4.1.4.1.4.1.4.1.4.1.4V187.8c-.2 1.6-1.6-2.3-1.8-2.7M48.9 176.5l-.3.2-.3.2-.3.2-.3.2-.2.3-.3.3-.2.3-.2.3-.2.3-.2.3-.2.3-.2.3-.2.3-.2.3-.2.3-.2.3-.2.3-.2.2-.1.2-.1.2-.1.2-.1.2-.1.2-.1.2-.1.2-.1.1-.1.1v.2c-.7 1.4 2.8-1.5 3.2-1.8M49.5 177.7l-.3.3-.3.3-.2.3-.2.3-.2.3-.2.3-.2.3-.2.3-.2.3-.2.3-.2.3-.2.3-.2.3-.1.3-.1.3-.1.3-.1.3-.1.3-.1.3-.1.2-.1.2-.1.2-.1.2-.1.2-.1.2v.2l-.1.1v.1l.1-.1v.2c-.5 1.5 2.4-1.8 2.7-2.2" opacity=".99" fill="none" stroke="#000" stroke-width=".258" stroke-miterlimit="10.433" enable-background="new"/><path d="M50.3 178.3l-.2.3-.2.3-.2.3-.2.3-.2.3-.2.3-.1.3-.1.3-.1.3-.1.3-.1.3-.1.3-.1.3-.1.3-.1.3-.1.3-.1.3-.1.3-.1.3-.1.3-.1.3-.1.3V186.2c0 1.6 2.1-2.5 2.3-2.8" opacity=".99" fill="none" stroke="#000" stroke-width=".258" stroke-linecap="round" stroke-miterlimit="10.433" enable-background="new"/><path d="M51.6 178.4l-.2.4-.2.4-.2.4-.2.4-.2.4-.1.4-.1.4-.1.4-.1.4-.1.4-.1.4-.1.4-.1.4v.3l-.1.3V188c.2 1.6 1.6-2.3 1.7-2.7" opacity=".99" fill="none" stroke="#000" stroke-width=".258" stroke-miterlimit="10.433" enable-background="new"/><path d="M52.1 179.3V181.9l-.1.5-.1.5v3c.1 1 .5 3.6 1 3.7.6-.2 1-2.8 1.1-3.8.1-1-.3-6-.5-6.6" opacity=".99" fill="none" stroke="#000" stroke-width=".258" stroke-linecap="round" stroke-miterlimit="10.433" enable-background="new"/><path d="M34.5 178.6l.1.1V179.7l.1.1.1.1.1.1.1.2V181.2c.2 1.2.2 1.8.1 2.7-.1 1 .6 1.3 1 1.3.3.1.9.4 1 .6.1.2.4.4.4-.1 0-.6-.8-3-1.1-4.2-.4-1.2-1.3-2.7-1.7-2.9.1-.4-.2 0-.2 0z" opacity=".99" fill="#069C42" enable-background="new"/><path d="M34.5 178.6l.1.1V179.7l.1.1.1.1.1.1.1.2V181.2c.2 1.2.2 1.8.1 2.7-.1 1 .6 1.3 1 1.3.3.1.9.4 1 .6.1.2.4.4.4-.1 0-.6-.8-3-1.1-4.2-.4-1.2-1.3-2.7-1.7-2.9.1-.4-.2 0-.2 0z" opacity=".99" fill="none" stroke="#000" stroke-width=".258" stroke-miterlimit="10.433" enable-background="new"/><path d="M25.4 167.6h.1v-.1c0-.3-.2-.5-.5-.5s-.5.2-.5.5c.4-.1.6.1.9.1z" opacity=".99" fill="#069C42" enable-background="new"/><path d="M25.4 167.6h.1v-.1c0-.3-.2-.5-.5-.5s-.5.2-.5.5c.4-.1.6.1.9.1z" opacity=".99" fill="none" stroke="#000" stroke-width=".258" stroke-miterlimit="10.433" enable-background="new"/><path d="M22.5 171.9h.1v-.1c0-.3-.2-.5-.5-.5s-.5.2-.5.5c.4-.2.6.1.9.1z" opacity=".99" fill="#069C42" enable-background="new"/><path d="M22.5 171.9h.1v-.1c0-.3-.2-.5-.5-.5s-.5.2-.5.5c.4-.2.6.1.9.1z" opacity=".99" fill="none" stroke="#000" stroke-width=".258" stroke-miterlimit="10.433" enable-background="new"/><path d="M30.9 169.9l.1-.1v-.4l.1-.1.1-.1.1-.1.1-.1v-.2h.1v-.1h.1c.3-.2 1.1-.3 1.4-.5.3-.1.2-.3.7-.5 0 0-.3.8-.5 1-.1.2-.1.6-.4 1.3-.3.7-1.6 1.6-1.8 1.6-.2.1-.7.5-.8.8.5-.3.8 0 .8.3-.1.6-.7.5-.8.3-.1-.3-.4.3-.3.6.2.3.3.3.7.5l-.7.7c-.1-.2-.7-.6-1-.7l-.4.2c.1.1.2 1.2 0 2.7-.2 1.5-1.5 2.7-2.1 3.2.1-.2.1-.4-.1-.7-.1-.2-.1-.6 0-1.9v-.3c-.8.5-1.8 1-2.2 1 .2-.1.2-1 .3-1.7.1-.7 1.3-1.4 1.5-1.5-.2-.1-.3.1-.5-.2-.2-.3-.1-.4.2-.6.2-.2.7.1.6.5.1-.1.5-.3.8-.5-.4-.2-.3-.7.2-.8.4-.1.5.3.5.6 0 .1.4-.2.6-.3-.2-.2-.3-.1-.6-.3s-.6-.2-.9-.1c-.5.3-1.5 1.3-2.2 1.6-.8.4-2.3.2-2.7.1.1-.1.6-.2.7-.9.1-.3.3-.4.6-.6H23c-.9.2-1.8-.7-2.1-1 .1-.1.7 0 1-.4.4-.6 2-.5 2.4-.5l-.5-.2c-.3-.3.1-.8.5-.8s.5.2.4.6c.2.1.6.2 1 .5-.2-.3-.8-1.6-2-1.3-1.1.3-2.5-.3-2.8-.4-.3-.1-.7-.6-1.1-.8-.3-.1-1 .1-.5-.3.4-.3.9-.4 1.5-.5l-.4-.3c-.2-.1-.4-.1-.7-.3-.3-.3-.8-.8-1.2-1.1.2-.2 1.2-.5 1.8-.4.6.1.5.1.8.3-.1-.1-.2-.1-.2-.4.1-.3.4-.5.7-.4.3.1.1.8 0 .9.2 0 .7-.1 1-.1-.1-.3.2-1-1.1-1.5-2.1-.9-1.7-.5-2.9-2-.4-.5-.6-1.7-.7-2.3.2.3.3.2.7.6.3.5 1 .6 1.7 1 .8.4 1.7 1.8 2 2.4 0-.5-.6-2.1-1-2.4-.4-.3-1-1.8-1-2.5-.1-.7.5-2.3.7-2.8 0 .2.2.1 1.2 1.9 1 1.8.3 2.3.2 3.1l-.1.7c.1-.3.1-.6.2-1 .1-.3.2-.7.2-1.3.2-1 1.4-2.1 1.9-2.4.5 2.3-.6 3.8-.9 4.1-.5.1-.5.3-.4.5l-.1.5c-.6.6-.5 1.4-.4 2.4l.3.9c-.1-.1-.3-1-.2-1.4.1-.5.1-.6.4-1 .3-.3.6-.8.6-1-.1 0-.6.1-.6-.3s.2-.6.4-.5c.2 0 .4.3.5.6.2-.2.9-.9 1.3-1.2.2.7 0 2.1-.2 2.6s-1.5 2.1-1.7 2.3c-.2.2-.4.8-.2 1.2.1.5.5.6.7 1.1l.2-.2c0-.3.1-.4.3-.5.2-.1.4 0 .5.3.1.2-.1.5-.2.8-.1.2 0 .4.1.9s.6.8.9 1.3c-.1-.3-.1-.3-.2-.7-.1-.4-.2-.8-.4-1.7-.1-.9.3-2.1.7-2.6.4-.5.7-1 1.1-1.4 0 .3.6 2.7.5 3.3-.2.6-.5 1.7-.8 2-.3.3-.4.4-.5.9.1-.2.3-.5.6-.4-.3 0 .8 0 .3.9l-.4.3c-.1.5 1 .8 1 .8.2 0 .3-.5.3-.7-.2.3-.9.3-.9-.2.1-.5.3-.5.9-.4 0-.4-.4-.9-.4-1.8.1-.9.8-1.9 1.1-2.3.3-.3.8-.9 1.1-1.4 0 .2-.1.5.1.8s.3 1.9.1 2.4l.8.5z" opacity=".99" fill="#069C42" enable-background="new"/><path d="M30.9 169.9l.1-.1v-.4l.1-.1.1-.1.1-.1.1-.1v-.2h.1v-.1h.1c.3-.2 1.1-.3 1.4-.5.3-.1.2-.3.7-.5 0 0-.3.8-.5 1-.1.2-.1.6-.4 1.3-.3.7-1.6 1.6-1.8 1.6-.2.1-.7.5-.8.8.5-.3.8 0 .8.3-.1.6-.7.5-.8.3-.1-.3-.4.3-.3.6.2.3.3.3.7.5l-.7.7c-.1-.2-.7-.6-1-.7l-.4.2c.1.1.2 1.2 0 2.7-.2 1.5-1.5 2.7-2.1 3.2.1-.2.1-.4-.1-.7-.1-.2-.1-.6 0-1.9v-.3c-.8.5-1.8 1-2.2 1 .2-.1.2-1 .3-1.7.1-.7 1.3-1.4 1.5-1.5-.2-.1-.3.1-.5-.2-.2-.3-.1-.4.2-.6.2-.2.7.1.6.5.1-.1.5-.3.8-.5-.4-.2-.3-.7.2-.8.4-.1.5.3.5.6 0 .1.4-.2.6-.3-.2-.2-.3-.1-.6-.3s-.6-.2-.9-.1c-.5.3-1.5 1.3-2.2 1.6-.8.4-2.3.2-2.7.1.1-.1.6-.2.7-.9.1-.3.3-.4.6-.6H23c-.9.2-1.8-.7-2.1-1 .1-.1.7 0 1-.4.4-.6 2-.5 2.4-.5l-.5-.2c-.3-.3.1-.8.5-.8s.5.2.4.6c.2.1.6.2 1 .5-.2-.3-.8-1.6-2-1.3-1.1.3-2.5-.3-2.8-.4-.3-.1-.7-.6-1.1-.8-.3-.1-1 .1-.5-.3.4-.3.9-.4 1.5-.5l-.4-.3c-.2-.1-.4-.1-.7-.3-.3-.3-.8-.8-1.2-1.1.2-.2 1.2-.5 1.8-.4.6.1.5.1.8.3-.1-.1-.2-.1-.2-.4.1-.3.4-.5.7-.4.3.1.1.8 0 .9.2 0 .7-.1 1-.1-.1-.3.2-1-1.1-1.5-2.1-.9-1.7-.5-2.9-2-.4-.5-.6-1.7-.7-2.3.2.3.3.2.7.6.3.5 1 .6 1.7 1 .8.4 1.7 1.8 2 2.4 0-.5-.6-2.1-1-2.4-.4-.3-1-1.8-1-2.5-.1-.7.5-2.3.7-2.8 0 .2.2.1 1.2 1.9 1 1.8.3 2.3.2 3.1l-.1.7c.1-.3.1-.6.2-1 .1-.3.2-.7.2-1.3.2-1 1.4-2.1 1.9-2.4.5 2.3-.6 3.8-.9 4.1-.5.1-.5.3-.4.5l-.1.5c-.6.6-.5 1.4-.4 2.4l.3.9c-.1-.1-.3-1-.2-1.4.1-.5.1-.6.4-1 .3-.3.6-.8.6-1-.1 0-.6.1-.6-.3s.2-.6.4-.5c.2 0 .4.3.5.6.2-.2.9-.9 1.3-1.2.2.7 0 2.1-.2 2.6s-1.5 2.1-1.7 2.3c-.2.2-.4.8-.2 1.2.1.5.5.6.7 1.1l.2-.2c0-.3.1-.4.3-.5.2-.1.4 0 .5.3.1.2-.1.5-.2.8-.1.2 0 .4.1.9s.6.8.9 1.3c-.1-.3-.1-.3-.2-.7-.1-.4-.2-.8-.4-1.7-.1-.9.3-2.1.7-2.6.4-.5.7-1 1.1-1.4 0 .3.6 2.7.5 3.3-.2.6-.5 1.7-.8 2-.3.3-.4.4-.5.9.1-.2.3-.5.6-.4-.3 0 .8 0 .3.9l-.4.3c-.1.5 1 .8 1 .8.2 0 .3-.5.3-.7-.2.3-.9.3-.9-.2.1-.5.3-.5.9-.4 0-.4-.4-.9-.4-1.8.1-.9.8-1.9 1.1-2.3.3-.3.8-.9 1.1-1.4 0 .2-.1.5.1.8s.3 1.9.1 2.4l.8.5z" opacity=".99" fill="none" stroke="#000" stroke-width=".258" stroke-miterlimit="10.433" enable-background="new"/><path d="M30.3 171.7l-.1.1v.2l-.1.1v.2l-.1.1V172.7c-.2.5.1.8.3.8.2 0 .1-.3.2-.6 0-.2.1-.3.1-.5.1-.2.1-.4.1-.4v-.3h-.4z" opacity=".99" fill="#fff" enable-background="new"/><path d="M30.3 171.7l-.1.1v.2l-.1.1v.2l-.1.1V172.7c-.2.5.1.8.3.8.2 0 .1-.3.2-.6 0-.2.1-.3.1-.5.1-.2.1-.4.1-.4v-.3h-.4z" opacity=".99" fill="none" stroke="#000" stroke-width=".258" stroke-miterlimit="10.433" enable-background="new"/><path opacity=".99" fill="#BCBDBF" enable-background="new" d="M79 161.1l-.2 3-.7-.6-.8.1z"/><path opacity=".99" fill="none" stroke="#000" stroke-width=".053" stroke-miterlimit="10.433" enable-background="new" d="M79 161.1l-.2 3-.7-.6-.8.1z"/><path opacity=".99" fill="#BCBDBF" enable-background="new" d="M75.3 165l.2 3-.7-.5-.8.2z"/><path opacity=".99" fill="none" stroke="#000" stroke-width=".053" stroke-miterlimit="10.433" enable-background="new" d="M75.3 165l.2 3-.7-.5-.8.2z"/><path opacity=".99" fill="#BCBDBF" enable-background="new" d="M77.1 163.2v3l-.7-.6-.8.1z"/><path opacity=".99" fill="none" stroke="#000" stroke-width=".053" stroke-miterlimit="10.433" enable-background="new" d="M77.1 163.2v3l-.7-.6-.8.1z"/><path opacity=".99" fill="#BCBDBF" enable-background="new" d="M79.5 163.1l-.4 3-.6-.7h-.8z"/><path opacity=".99" fill="none" stroke="#000" stroke-width=".053" stroke-miterlimit="10.433" enable-background="new" d="M79.5 163.1l-.4 3-.6-.7h-.8z"/><path opacity=".99" fill="#BCBDBF" enable-background="new" d="M82.6 159.1l-.6 3-.5-.7-.8-.1z"/><path opacity=".99" fill="none" stroke="#000" stroke-width=".053" stroke-miterlimit="10.433" enable-background="new" d="M82.6 159.1l-.6 3-.5-.7-.8-.1z"/><path opacity=".99" fill="#BCBDBF" enable-background="new" d="M84.1 160.3l-.8 2.9-.4-.7-.8-.1z"/><path opacity=".99" fill="none" stroke="#000" stroke-width=".053" stroke-miterlimit="10.433" enable-background="new" d="M84.1 160.3l-.8 2.9-.4-.7-.8-.1z"/><path opacity=".99" fill="#BCBDBF" enable-background="new" d="M84.6 162.9l-1.2 2.8-.3-.8-.8-.3z"/><path opacity=".99" fill="none" stroke="#000" stroke-width=".053" stroke-miterlimit="10.433" enable-background="new" d="M84.6 162.9l-1.2 2.8-.3-.8-.8-.3z"/><path opacity=".99" fill="#BCBDBF" enable-background="new" d="M84.7 164.8l-1.2 2.4-.3-.7-.7-.2z"/><path opacity=".99" fill="none" stroke="#000" stroke-width=".053" stroke-miterlimit="10.433" enable-background="new" d="M84.7 164.8l-1.2 2.4-.3-.7-.7-.2z"/><path opacity=".99" fill="#BCBDBF" enable-background="new" d="M82.7 168l-1.6 2.6-.2-.8-.8-.3z"/><path opacity=".99" fill="none" stroke="#000" stroke-width=".053" stroke-miterlimit="10.433" enable-background="new" d="M82.7 168l-1.6 2.6-.2-.8-.8-.3z"/><path opacity=".99" fill="none" stroke="#000" stroke-width=".258" stroke-miterlimit="10.433" enable-background="new" d="M74.8 167.5l-1.2 6.2M78.2 163.6l-4 10.2M74.7 174.5l4.4-2.9"/><path opacity=".99" fill="none" stroke="#000" stroke-width=".053" stroke-miterlimit="10.433" enable-background="new" d="M81.4 161.4l-7.1 12.7 8.5-11.6"/><path opacity=".99" fill="none" stroke="#000" stroke-width=".258" stroke-miterlimit="10.433" enable-background="new" d="M83 165l-6.8 7.5M79.4 167.8l-2.5 3.4"/><path opacity=".99" fill="#BCBDBF" enable-background="new" d="M81.8 162.8l-1 2.5-.3-.7-.7-.1z"/><path opacity=".99" fill="none" stroke="#000" stroke-width=".053" stroke-miterlimit="10.433" enable-background="new" d="M81.8 162.8l-1 2.5-.3-.7-.7-.1z"/><path opacity=".99" fill="#BCBDBF" enable-background="new" d="M80.8 165.9l-.9 2.5-.4-.7-.7-.1z"/><path opacity=".99" fill="none" stroke="#000" stroke-width=".053" stroke-miterlimit="10.433" enable-background="new" d="M80.8 165.9l-.9 2.5-.4-.7-.7-.1z"/><path opacity=".99" fill="#BCBDBF" enable-background="new" d="M82.5 166.2l-.9 2.4-.4-.7-.7-.1z"/><path opacity=".99" fill="none" stroke="#000" stroke-width=".053" stroke-miterlimit="10.433" enable-background="new" d="M82.5 166.2l-.9 2.4-.4-.7-.7-.1z"/><path opacity=".99" fill="none" stroke="#000" stroke-width=".258" stroke-miterlimit="10.433" enable-background="new" d="M75.3 175.1l5.5-5.3"/><path opacity=".99" fill="#BCBDBF" enable-background="new" d="M81.1 170l-1.8 2.5-.1-.9-.8-.4z"/><path opacity=".99" fill="none" stroke="#000" stroke-width=".053" stroke-miterlimit="10.433" enable-background="new" d="M81.1 170l-1.8 2.5-.1-.9-.8-.4z"/><path opacity=".99" fill="#BCBDBF" enable-background="new" d="M69.1 181l-1.2 2.3-.4-1.1-1.1.2 1.6-2.1.8-.1z"/><path opacity=".99" fill="none" stroke="#000" stroke-width=".053" stroke-miterlimit="10.433" enable-background="new" d="M69.1 181l-1.2 2.3-.4-1.1-1.1.2 1.6-2.1.8-.1z"/><path opacity=".99" fill="#BCBDBF" enable-background="new" d="M67.9 181l-1.5 2-.2-1.1h-1.1l1.8-1.8h.9z"/><path opacity=".99" fill="none" stroke="#000" stroke-width=".053" stroke-miterlimit="10.433" enable-background="new" d="M67.9 181l-1.5 2-.2-1.1h-1.1l1.8-1.8h.9z"/><path opacity=".99" fill="#BCBDBF" enable-background="new" d="M72.5 182.1l-.6 2.5-.6-.9-1 .5.9-2.4.8-.3z"/><path opacity=".99" fill="none" stroke="#000" stroke-width=".053" stroke-miterlimit="10.433" enable-background="new" d="M72.5 182.1l-.6 2.5-.6-.9-1 .5.9-2.4.8-.3z"/><path opacity=".99" fill="#BCBDBF" enable-background="new" d="M70.1 180.9l-1 2.4-.4-1-1 .2 1.3-2.2.7-.1z"/><path opacity=".99" fill="none" stroke="#000" stroke-width=".053" stroke-miterlimit="10.433" enable-background="new" d="M70.1 180.9l-1 2.4-.4-1-1 .2 1.3-2.2.7-.1z"/><path opacity=".99" fill="none" stroke="#000" stroke-width=".258" stroke-miterlimit="10.433" enable-background="new" d="M66.9 180.9l3.8-3.2"/><path opacity=".99" fill="#A7A9AC" enable-background="new" d="M68.2 183.5h1l1-1.9h.2l-.3-.5-1 2.2-.3-.9z"/><path opacity=".99" fill="none" stroke="#000" stroke-width=".053" stroke-miterlimit="10.433" enable-background="new" d="M68.2 183.5h1l1-1.9h.2l-.3-.5-1 2.2-.3-.9z"/><path opacity=".99" fill="#BCBDBF" enable-background="new" d="M71.5 182.1l-.9 2.5-.5-1-1.1.3 1.2-2.3.8-.2z"/><path opacity=".99" fill="none" stroke="#000" stroke-width=".053" stroke-miterlimit="10.433" enable-background="new" d="M71.5 182.1l-.9 2.5-.5-1-1.1.3 1.2-2.3.8-.2z"/><path d="M43.3 127.6l-.1-.2v-1.3l.1-.1.1-.1.1-.1.1-.1.1-.1.1-.1.1-.1.1-.1.1-.1.1-.1.1-.1.1-.1h.1l.1-.1H46c-.3-1.4 1.4-3 3.1-1.7.3-1.5 2.3-2.3 3.5-.6.8-1.5 3.3-1.4 3.5.6.7-.9 3.5-.9 3.2 1.7.9-.7 3.5.2 2.5 2.6 1.8-.2 2.8 1.9 1.5 3.3 1.2.2 2.4 2.4.3 3.6 1.7 1.6.5 3.4-.8 3.5 1 1.9-.5 3.2-2.1 3 .2 1.8-1.2 3-2.9 2.2-.2 1.8-2.1 2.4-3.4 1.2-.9 1.7-2.9 1.5-3.6-.1-1.1 1.3-3.3.7-3.4-1.1-1.4.7-3.2-.2-2.8-2.3-1.7.3-2.9-1.4-2-3-1.4-.2-2.4-2.1-.8-3.5-1.3-.6-1.6-2.7.2-3.6-1.2-1.1-.5-2.9 1.3-3z" opacity=".99" fill="none" stroke="#000" stroke-width=".258" stroke-miterlimit="10.433" enable-background="new"/><path opacity=".99" fill="#fff" enable-background="new" d="M50 133.2h.8l-.6.5.3.9-.7-.5-.8.5.3-.9-.7-.5h.9l.2-.8zM55.8 133.2h.8l-.6.5.3.9-.7-.5-.8.5.3-.9-.7-.5h.9l.3-.8zM57.4 135.7h.8l-.6.5.3.9-.7-.5-.8.5.3-.9-.7-.5h.8l.3-.8zM54.5 135.7h.8l-.6.5.3.9-.7-.5-.8.5.3-.9-.7-.5h.9l.2-.8zM51.5 135.7h.8l-.6.5.3.9-.7-.5-.8.5.3-.9-.7-.5h.9l.2-.8zM48.6 135.7h.9l-.6.5.3.9-.8-.5-.7.5.3-.9-.7-.5h.8l.3-.8zM52.9 138.1h.9l-.6.5.3.9-.7-.5-.8.5.3-.8-.7-.6h.8l.3-.8zM57.2 130.6h.9l-.7.5.3.9-.7-.5-.8.5.3-.8-.7-.6h.9l.2-.8zM54.4 130.6h.8l-.6.5.3.9-.7-.5-.8.5.3-.8-.7-.6h.9l.2-.8zM51.6 130.6h.8l-.6.5.3.9-.7-.5-.8.5.3-.8-.7-.6h.8l.3-.8zM48.7 130.6h.8l-.6.5.3.9-.7-.5-.8.5.3-.8-.6-.6h.8l.3-.8zM52.8 128.2h.9l-.6.5.2.9-.7-.5-.8.5.4-.8-.7-.6h.8l.3-.8z"/><path opacity=".99" fill="none" stroke="#fff" stroke-width=".258" stroke-miterlimit="10.433" enable-background="new" d="M52.5 125.4v1.7M54.6 126l-.5 1.8M54.7 129.8l1.6-2.9M56.1 129.9l1.8-1.9M58 130.2l1.6-1.1M58.2 132l2-.9M57.1 134.4l3.2.5M58.2 136.2l2 .9M57.6 137.5l1.3 1.2M55.5 137.4l1.8 2.2M54.4 137.7l1.2 2.9M50.9 137.6l-1.1 3.2M49.9 137.1l-1.8 2.6M47.9 137.6l-1.3 1.3M47.2 136.2l-1.7.8M48.4 134.3l-3.4.6M48.2 133.2h-3.3M47.1 131.9l-2-.6M47.1 130.3l-1.7-1.1M48.4 129.3l-1.4-1.4M50.5 129.9l-1.6-3M51.1 128l-.6-1.8M57.2 133.3l3.5-.2"/><path opacity=".99" fill="#fff" enable-background="new" d="M52.8 133.1h.8l-.6.5.3.9-.7-.5-.8.5.3-.8-.7-.6h.9l.2-.8z"/><path d="M38.4 176.1l.1-.1h.2l.1-.1.1-.1h.2c-.5.2-1.1.6-1.4 1-.3.5 0 .5.4.5s1.1-.2 1.8-.7" opacity=".99" fill="none" stroke="#000" stroke-width=".258" stroke-miterlimit="10.433" enable-background="new"/><path opacity=".99" fill="#BCBDBF" enable-background="new" d="M67.8 178.9l.1.9-.3.3H67l-1.3 1.1-.1.1.1-.6-1-.1 2.3-1.8.8.1 2.8-2"/><path opacity=".99" fill="none" stroke="#000" stroke-width=".053" stroke-miterlimit="10.433" enable-background="new" d="M67.8 178.9l.1.9-.3.3H67l-1.3 1.1-.1.1.1-.6-1-.1 2.3-1.8.8.1 2.8-2"/><path d="M22.8 168.4h.1v-.1c0-.3-.2-.5-.5-.5s-.5.2-.5.5c.4-.1.6.1.9.1z" opacity=".99" fill="#069C42" enable-background="new"/><path d="M22.8 168.4h.1v-.1c0-.3-.2-.5-.5-.5s-.5.2-.5.5c.4-.1.6.1.9.1zM23.3 168.2l.1.1h.1v.2c.3.5.8 1.1.9 1.3-.4-.3-1.6-1.4-2.5-1.6-.2 0-.5-.1-.7-.1M28.9 174.5l-.1.1-.1.1h-.1l-.1.1-.1.1-.1.1-.1.1v.1l-.1.1-.1.1v.1l-.1.1v.2l-.1.1-.1.1-.1.1-.1.1-.1.1-.1.2v.1l-.1.1v.1c-.1.2-.3.5-.6.7M24.1 173.5l.1-.1h.1l.1-.1h1.2c.6-.2 1.4-.1 2-.1-.3-.3-1.4-.7-1.8-.9" opacity=".99" fill="none" stroke="#000" stroke-width=".258" stroke-miterlimit="10.433" enable-background="new"/><path d="M33.5 175.1l.1.1h.2l.1-.1h.1l.1-.1.1-.1h.1l.1-.1.1-.1v-.1l.1-.1v-.2c-.1-.6-.7-.5-.8-.3-.1.2-.1.2-.1.5 0-.1-.1.4-.2.6z" opacity=".99" enable-background="new"/><path d="M33.5 175.1v.1h.1l-.1-.1.1.1h.2l.1-.1h.1l.1-.1.1-.1.1-.1.1-.1.1-.1v-.1l.1-.1v-.2c-.1-.6-.7-.5-.8-.3-.1.2-.1.2-.1.5 0 0-.1.5-.2.7z" opacity=".99" fill="none" stroke="#000" stroke-width=".258" stroke-miterlimit="10.433" enable-background="new"/><path d="M71 174.4l.1.1c0-.3 0-.5.1-.8l.3-.3c0-.1 0-.4-.3-.5-.4-.2-.5.1-.6.5l.4 1z" opacity=".99" enable-background="new"/><path d="M71 174.4l.1.1c0-.3 0-.5.1-.8l.3-.3c0-.1 0-.4-.3-.5-.4-.1-.5.1-.6.5l.4 1zM67.8 179l-1.4 1.1M72.4 179.4l-.7 3.3M71.9 179l-1.5 3.9M71 178.1l-2 3.4M68.8 180.2l2.1-2.3M30.9 170.1c-.1.5-.3 1.1-.5 1.5" opacity=".99" fill="none" stroke="#000" stroke-width=".258" stroke-miterlimit="10.433" enable-background="new"/><path d="M33.7 140.5c.1 0 .1 0 .2-.1s.1 0 .1-.1l.2-1v-.1s-.1 0-.1-.1v-.1l1.1.2-.1.4H35c0-.1 0-.2-.1-.3-.1-.1-.2-.1-.3-.1h-.1s0 .1-.1.1l-.1.5h.3s.1-.1.1-.2h.1l-.1.7h-.1v-.3c0-.1-.1-.1-.2-.1l-.1.5v.1l.1.1h.3s.2-.1.3-.2h.1l-.2.4-1.2-.3zM36.2 141h.1l.1-.1.3-.9v-.2l-.1-.1v-.1l.6.2c.2.1.3.1.3.2.1.1.1.2.1.3 0 .1-.1.1-.1.2-.1.1-.1.1-.2.1h-.2c-.1 0-.2 0-.3-.1l-.1.4v.1l.1.1v.1l-.6-.2z" opacity=".99" enable-background="new"/><path d="M37.1 140.5l.1-.1v-.2c0-.1-.1-.1-.1-.1H37l-.2.5c.2-.1.3 0 .3-.1z" opacity=".99" fill="#F2C007" enable-background="new"/><path d="M39.8 140.9h-.2l-.1.1-.3.6c0 .1-.1.2-.1.2 0 .1.1.2.2.2.2.1.3.1.4 0 .1-.1.1-.1.1-.2l.2-.6v-.2l-.1-.1.4.2v.1h-.1l-.1.1-.3.6c-.1.2-.2.3-.3.3-.1.1-.3.1-.4 0-.2-.1-.3-.2-.4-.4 0-.1 0-.2.1-.3l.3-.6v-.1l-.1-.1v-.1l.8.3zM37.4 141.4h.1c.1 0 .1 0 .1-.1l.3-.9v-.1s-.1 0-.1-.1v-.1l.7.3h-.2l-.1.1-.3.9v.1l.1.1c.1 0 .2.1.3 0 .1 0 .2-.1.3-.2h.1l-.2.4-1.1-.4zM40 142.4h.1s.1 0 .1-.1l.5-.8c0-.1.1-.1 0-.2 0 0 0-.1-.1-.1l.6.3c.1.1.2.1.3.2.1.1.1.3.1.4-.1.1-.1.2-.2.2h-.2V143.1h.1v.1l-.3-.2v-.8h-.1l-.2.3c0 .1-.1.1 0 .1 0 0 0 .1.1.1v.1l-.8-.4z" opacity=".99" enable-background="new"/><path d="M41.1 142.2h.1c.1-.1.1-.1.1-.2s0-.2-.1-.2-.1-.1-.1-.1-.1 0-.1.1l-.3.4h.4z" opacity=".99" fill="#F2C007" enable-background="new"/><path d="M41.5 143.3l.1.1c.1 0 .1 0 .1-.1l.6-.8v-.1l-.1-.1.6.4c-.1 0-.1-.1-.1-.1-.1 0-.1 0-.1.1l-.6.8v.1l.1.1v.1l-.6-.5zM42.3 143.9l.1.1c.1 0 .1 0 .1-.1l.6-.8c0-.1.1-.1 0-.1 0 0 0-.1-.1-.1l.5.4.2.2c.1.1.1.3 0 .4-.1.1-.1.1-.2.1s-.2 0-.2-.1c.1.1.1.1.1.2s0 .2-.1.3c-.1.1-.2.1-.3.1-.1 0-.3-.1-.4-.2l-.3-.4z" opacity=".99" enable-background="new"/><path d="M42.7 144.2l.1.1c.1.1.2.1.2.1.1 0 .1-.1.2-.1.1-.1.1-.2.1-.3 0-.1-.1-.1-.2-.2l-.4.4zM43.3 143.7h.1c.1-.1.1-.1.1-.2s0-.1-.1-.2c0 0-.1-.1-.1 0h-.1l-.3.3c.3.1.4.1.4.1z" opacity=".99" fill="#F2C007" enable-background="new"/><path d="M44.7 144.2c-.1 0-.1-.1-.2-.1s-.1 0-.1.1l-.5.5c-.1.1-.1.1-.1.2-.1.1 0 .2.1.3.1.1.2.2.3.1.1 0 .1-.1.2-.2l.4-.5.1-.1c0-.1 0-.1-.1-.2h.1l.3.3c-.1 0-.1-.1-.1-.1s-.1 0-.1.1l-.4.5c-.1.1-.2.2-.3.2-.1 0-.3-.1-.4-.2-.2-.2-.2-.3-.2-.5 0-.1.1-.2.2-.3l.5-.5.1-.1s0-.1-.1-.1l.3.6zM44.8 145.6c-.1.2-.1.3-.1.4 0 .1 0 .2.1.3.1.1.1.1.2.1s.1 0 .2-.1l.1-.1v-.7c0-.1.1-.2.1-.2.1-.1.2-.1.3-.1.1 0 .2.1.3.2.1.1.1.1.1.2s0 .1.1.1h.1l.1.1-.3.3c.1-.1.1-.2.1-.3 0-.1 0-.2-.1-.3-.1-.1-.1-.1-.2-.1h-.1l-.1.1c0 .1 0 .2.1.3l.1.2v.2c0 .1-.1.2-.2.3-.1.1-.2.1-.3.1s-.2-.1-.3-.2l-.1-.1-.1-.1h-.1l-.1-.1.1-.5zM60.9 143.7c0 .1-.1.1-.1.2 0 0 0 .1.1.1l.4.5.2.2c.1.1.2 0 .3-.1.1-.1.2-.2.1-.3 0-.1-.1-.1-.1-.2l-.4-.5-.1-.1s-.1 0-.2.1l.3-.3v.1l-.1.1s0 .1.1.1l.4.5c.1.1.2.3.2.4 0 .1-.1.3-.2.3-.2.2-.3.2-.5.2-.1 0-.2-.1-.2-.2l-.4-.5c0-.1-.1-.1-.1-.1s-.1 0-.1.1v-.1l.4-.5zM62.8 143.8l.1-.1v-.1l-.5-.8c-.1 0-.1-.1-.2-.1h-.1v-.1l.4-.2 1 .3-.3-.5c0-.1-.1-.1-.1-.1s-.1 0-.2.1v-.1l.3-.2v.1l-.1.1s0 .1.1.1l.6 1h-.1l-1.3-.4.4.7c0 .1.1.1.1.1h.2l-.3.2zM64.4 141.2c-.1.1-.1.1-.1.2 0 0 0 .1.1.2l.3.6c.1.1.1.2.2.2.1.1.2.1.3 0 .1-.1.2-.2.2-.3 0-.1-.1-.2-.1-.3l-.3-.5c0-.1-.1-.1-.1-.1h-.2v-.1l.4-.2v.1c-.1 0-.1.1-.1.1v.1l.3.6c.1.2.1.3.1.4 0 .1-.1.2-.3.3-.2.1-.4.2-.5.1l-.2-.2-.3-.6c0-.1-.1-.1-.1-.1h-.1v-.1l.5-.4zM66.2 141.7l.1-.1v-.1l-.4-.9c0-.1-.1-.1-.1-.1h-.1v-.1l.5-.2.7.7v-1l.5-.2v.1c-.1 0-.1.1-.1.1v.2l.3.8c0 .1.1.1.1.1h.1v.1l-.6.3v-.1c.1 0 .1-.1.1-.1v-.1l-.4-.9v1.3h-.1l-.9-.9.3.9c0 .1.1.1.1.1h.2v.1h-.3z" opacity=".99" enable-background="new"/><path d="M43.6 127.8l-.1-.1v-1.2l.1-.1.1-.1.1-.1.1-.1.1-.1.1-.1.1-.1.1-.1.1-.1.1-.1.1-.1.1-.1.1-.1H46.3c-.3-1.3 1.3-3 3-1.7.3-1.4 2.2-2.2 3.4-.6.7-1.4 3.2-1.4 3.4.6.6-.9 3.4-.9 3.1 1.7.8-.7 3.4.2 2.4 2.5 1.8-.2 2.7 1.8 1.5 3.2 1.1.2 2.3 2.3.3 3.5 1.7 1.5.5 3.3-.8 3.4.9 1.8-.5 3.1-2 2.9.2 1.7-1.2 2.9-2.8 2.1-.2 1.8-2 2.3-3.3 1.1-.9 1.7-2.8 1.4-3.5-.1-1 1.3-3.1.7-3.3-1.1-1.4.7-3.1-.2-2.7-2.2-1.6.3-2.8-1.3-1.9-2.9-1.3-.2-2.3-2-.8-3.3-1.3-.6-1.6-2.7.2-3.5-1.4-1.1-.6-2.9 1.1-3z" opacity=".99" fill="none" stroke="#D1D3D4" stroke-width=".258" stroke-miterlimit="10.433" enable-background="new"/><path opacity=".99" fill="#005696" enable-background="new" d="M60.1 163.6v-5.8h-15v5.8z"/><path opacity=".99" fill="#CE171E" enable-background="new" d="M47.4 174.7v-11.1h-1.2v11.1zM49.8 174.7v-11.1h-1.2v11.1zM52.1 174.7v-11.1h-1.2v11.1zM54.5 174.7v-11.1h-1.2v11.1zM56.7 174.7v-11.1h-1.1v11.1zM59 174.7v-11h-1.2v11z"/><path d="M60.1 157.8v15.8c0 .7-.3 1.1-1.1 1.1-.6.1-5.6 0-5.6 0-.7 0-.5.3-.7.6-.2-.3-.1-.6-.7-.6h-5.6c-.8 0-1.1-.3-1.3-.9v-15.9h15v-.1z" opacity=".99" fill="none" stroke="#E8CC0C" stroke-width=".258" stroke-miterlimit="10.433" enable-background="new"/><path d="M51.1 204.7l2.5-.1 2.5-.2 2.4-.3 2.4-.4 2.3-.5 2.3-.7 2.3-.8 2.2-.9 2.2-1 2.1-1.1 2-1.2 2-1.3 1.9-1.4 1.8-1.4 1.8-1.5 1.7-1.6 1.6-1.7 1.5-1.8L90 185l1.4-1.9 1.3-2 1.2-2L95 177l1-2.2.9-2.2.8-2.3.7-2.3.5-2.3.4-2.4.3-2.4.2-2.5.1-2.5c0-26.8-21.8-48.6-48.6-48.6s-48.8 22-48.8 48.8 21.7 48.6 48.6 48.6z" fill="none"/><path d="M13.8 140.2l.1-.1v-.6h-.2l-3.4-1.9c-.6-.3-.7-.3-1.1.3l-.2-.1 1.2-2c1-1.8 2.6-2.6 4.3-1.6 1 .6 2.2 2 .8 4.4l-1.2 2.2-.3-.6z" opacity=".99" fill="#E9CC1B" enable-background="new"/><path d="M14.2 138.5l.1.1h.2c.3-.5 1.4-2.4-.9-3.6-.6-.3-1.4-.5-2.1-.3-.5.2-1 .5-1.5 1.4-.2.3-.1.4.1.5l4.1 1.9z" opacity=".99" fill="#005696" enable-background="new"/><path d="M19.9 131.3L17 135l-.1-.1c.3-.5.4-.7-.2-1.1l-3.1-2.3c-.5-.4-.7-.3-1.1.1l-.1-.1 2.8-3.7 1 .7-.1.2c-.7-.4-1-.3-1.5.5l-.7 1c-.1.1-.2.2.1.4l1.6 1.2.8-1.1c.5-.6.3-.8-.1-1.3l.1-.2 1.6 1.2-.1.2c-.6-.3-.8-.3-1.3.3l-.8 1.1 1.7 1.3c.3.2.3.2 1.1-.8.7-.9.7-1.4.3-2.2l.1-.3.9 1.3zM16 126.8l1.6-1.7c.9-.9 1.9-1.3 2.7-.5.5.5.5 1 .5 1.2 0 .5-.3 1-.9 1.7l-.4.4 1.1 1.1c.5.4.7.4 1.1-.1l.1.1-1.7 1.8-.1-.1c.5-.6.3-.7-.1-1.1l-2.7-2.6c-.5-.4-.6-.4-1.1 0l-.1-.2z" opacity=".99" fill="#E9CC1B" enable-background="new"/><path d="M19.3 127.7l.1-.1.1-.1.1-.1h.1l.1-.1v-.1c.2-.2 1-1.1.1-2-.9-.9-1.8 0-2.1.3-.2.2-.2.3 0 .5l1.5 1.7z" opacity=".99" fill="#005696" enable-background="new"/><path d="M27.5 124.2l-1.7 1.4-.1-.1c.2-.2.5-.4.3-.6-.1-.1-.3-.3-.5-.3l-.8-.4-1.8 1.5.3 1c.1.1.1.2.2.3.2.3.5 0 .7-.1l.1.1-1.3 1.1-.1-.1c.1-.1.2-.2.2-.4 0-.3-.2-1-.3-1.4l-1.3-4.5.1-.1 4.8 2.4c.6.3.8.3 1.1.1l.1.1z" opacity=".99" fill="#E9CC1B" enable-background="new"/><path opacity=".99" fill="#005696" enable-background="new" d="M22 122.7l.8 2.5 1.6-1.3z"/><path d="M32.4 121.2l-1.2.7-3.2-1.2-.4.3.9 1.5c.3.5.5.6 1.1.3l.1.2-2.1 1.3-.1-.1c.6-.4.5-.6.2-1.1l-2-3.2c-.3-.6-.5-.6-1-.3l-.1-.2 2-1.3c.7-.4 2-1 2.7.2.6 1-.3 1.8-.6 2.1l2.7 1c.3.1.6.1.9-.1l.1-.1z" opacity=".99" fill="#E9CC1B" enable-background="new"/><path d="M27.4 120.8l.1-.1.1-.1h.1l.1-.1.1-.1.1-.1.1-.1.1-.1.1-.1.1-.1.1-.1.1-.1.1-.1.1-.1.1-.1v-.1l.1-.1.1-.1V117.7c-.6-1-1.6-.4-1.9-.2-.4.3-.4.3-.3.6l.5 2.7z" opacity=".99" fill="#005696" enable-background="new"/><path d="M35.4 119.9l-2.3 1.1-.1-.2c.7-.4.7-.6.4-1.1l-1.8-4-.4.2c-.9.4-1 .6-.8 1.6l-.2.1-.6-1.4 4.5-2 .7 1.3-.2.1c-.6-.8-.9-.9-1.7-.5l-.4.2 1.9 4.1c.3.5.4.7 1.1.4l-.1.1zM42.2 111.8H41.9v.4l1.1 3.7c.2.7.4.7 1 .6v.2l-2.3.7-.1-.2c.7-.2.7-.4.5-1.1l-1-3.8-.8 5.4h-.1l-3.4-4 1 3.4c.3.9.5 1 1.1.9l.1.2-2 .6-.1-.2c.6-.2.8-.4.5-1.3l-1-3.4c-.2-.6-.4-.7-1-.5l-.1-.2 1.7-.5 3.1 3.7.7-4.8 1.7-.5-.3.7zM48.6 116.7l-4.7.6v-.2c.5-.1.7-.2.7-.9l-.5-3.8c-.1-.7-.3-.7-.9-.7v-.2l4.6-.6.2 1.2h-.2c-.2-.7-.5-.9-1.5-.7l-1.2.2c-.2 0-.3 0-.3.3l.3 1.9 1.3-.2c.8-.1.8-.3.9-.9h.2l.3 2h-.2c-.2-.7-.3-.8-1-.7l-1.4.2.3 2.2c.1.3.1.3 1.3.2 1.1-.1 1.5-.5 1.8-1.4h.3l-.3 1.5zM55.1 111.1h-.5V111.9l-.1 4.6h-.2l-3.8-4.8v3.4c0 .9.2 1.1.8 1.1v.2h-2.1v-.2c.7 0 .9-.2.9-1.1v-3.9c-.3-.4-.5-.5-.8-.5v-.2h1.5l3.3 4.2v-2.9c0-1-.2-1.1-.8-1.1v-.2h2l-.2.6zM58.9 117.3l-2.6-.4v-.2c.8.1.9-.1.9-.8l.6-4.3-.5-.1c-1-.2-1.2 0-1.6.9h-.2l.3-1.5 4.9.7-.2 1.5h-.2c-.1-1-.3-1.2-1.2-1.3l-.5-.1-.6 4.4c-.1.6 0 .8.7.9l.2.3zM63.3 115.2l.1-.2.1-.2.1-.2.1-.1.1-.2.1-.1.1-.1.1-.1.1-.1.1-.1.1-.1.1-.1.1-.1.1-.1.1-.1.1-.1.1-.1.1-.1H66.5l.1.1c1.4.5 2.4 1.9 1.7 3.8-.6 1.7-2.2 2.4-3.7 1.9-1.1-.3-1.9-1.8-1.3-3.6z" opacity=".99" fill="#E9CC1B" enable-background="new"/><path d="M67.7 116.8l.1-.2v-.2l.1-.2V114.3l-.1-.1v-.1l-.1-.1-.1-.1-.1-.1-.1-.1-.1-.1-.1-.1-.1-.1-.1-.1h-.1l-.1-.1H66.5c-.9-.3-2 .1-2.6 2-.6 1.8 0 2.8.9 3.1 1.2.7 2.3.3 2.9-1.5z" opacity=".99" fill="#005696" enable-background="new"/><path d="M72.3 119.8l.1-.1V118.9h-.5l-1.1-.6-.9 1.7c-.3.6-.2.8.3 1.1l-.1.2-2.2-1.1.1-.1c.6.3.8.2 1.1-.5l1.7-3.4c.3-.6.1-.7-.3-1l.1-.2 4.2 2.1-.5 1.1-.2-.1c.2-.7.1-1-.8-1.4l-1.1-.5c-.2-.1-.3-.1-.4.2l-.9 1.7 1.1.6c.6.3.9.2 1.2-.3l.2.1-.9 1.8-.2-.5zM79.6 122.2l-.2-.1c.3-.7.3-1.6-.4-2.2-.3-.3-.9-.3-1.2.1-.8 1.1 1.5 2.9.5 4.4-.4.6-1.4.9-2.4.2-.5-.4-.7-.9-.9-1-.2-.1-.3 0-.4.1l-.2-.1.9-1.7.2.1c-.1.4-.4 1.6.6 2.3.6.4 1.1.2 1.4-.2.3-.4.3-.7-.3-2.1-.4-.9-.6-1.5-.1-2.2.6-.8 1.5-.7 2.2-.3.4.3.6.8.8 1 .2.1.3 0 .4-.1l.1.1c-.1 0-1 1.7-1 1.7zM80.6 128.5l-1.9-1.7.1-.1c.6.5.8.4 1.2-.1l3-3.2-.3-.3c-.7-.7-1-.7-1.8-.1l-.2-.1 1-1.1 3.7 3.3-1 1.1-.2-.2c.5-.8.4-1.1-.3-1.8l-.3-.3-3 3.3c-.4.4-.4.6.1 1.1l-.1.2zM85.1 133.4l-1.4-1.7.1-.1c.2.2.4.5.6.2.1-.1.3-.3.3-.5l.4-.8-1.5-1.7-1 .3c-.1 0-.2.1-.3.2-.3.2 0 .5.1.7l-.1.1-1.1-1.3.1-.1c.1.1.2.2.4.2.3 0 1-.2 1.4-.3l4.4-1.4.1.1-2.4 4.9c-.3.6-.3.8-.1 1.1v.1z" opacity=".99" fill="#E9CC1B" enable-background="new"/><path opacity=".99" fill="#005696" enable-background="new" d="M86.5 127.9l-2.5.8 1.3 1.5z"/><path d="M86.7 135.9l-1.4-2.1.1-.1c.5.6.7.5 1.2.2l3.6-2.4-.3-.4c-.5-.8-.8-.9-1.7-.5l-.1-.2 1.3-.8 2.8 4.1-1.2.9-.1-.2c.7-.7.7-1 .1-1.8l-.3-.4-3.7 2.5c-.5.3-.6.5-.2 1.1l-.1.1zM89.6 141.2l-2.2-4.2.1-.1c.3.5.5.6 1 .3l3.5-1.8c.6-.3.6-.5.3-1l.2-.1 2.1 4.1-1.1.6-.1-.2c.6-.5.6-.7.2-1.6l-.5-1c-.1-.2-.1-.3-.4-.1l-1.7.9.6 1.2c.3.7.6.7 1.2.5l.1.2-1.8.9-.1-.2c.6-.4.6-.6.3-1.2l-.6-1.2-1.9 1c-.3.2-.3.2.3 1.3.5 1 .9 1.3 1.9 1.2l.1.2-1.5.3zM12.8 164.6v-.6h-.9l-2.3.3c-.7.1-2.3.2-2.6-2-.2-2.2 1.5-2.3 2-2.4l2.7-.3c.6-.1.7-.2.7-.9h.2l.3 2.5h-.2c-.1-.7-.3-.8-.9-.7l-2.8.3c-.6.1-1.8.2-1.6 1.7.1.7.4 1.1.8 1.4.2.1.5.2 1.2.1l2.3-.2c1-.1 1.1-.3 1-1h.2l.2 2-.3-.2zM14.5 170.6l-.1-.1v-.2H13.5l-4.4 1.2v-.2l3.6-5-3.7.8c-.9.2-1 .5-.9 1.1h-.2l-.5-2h.2c.2.6.4.8 1.3.5l3.7-1c.3-.5.3-.6.2-.9l.2-.1.4 1.4-3.2 4.3 2.8-.8c1-.3 1-.5.9-1.1l.2-.1.5 2-.1.2zM9.6 172.9l.1.1v.2h.7l3.6-1.5c.6-.2.6-.4.4-1.1l.2-.1 1 2.4-.2.1c-.3-.6-.4-.8-1-.5l-3.6 1.4c-.6.3-.6.5-.4 1.1l-.2.1-1-2.4.4.2zM12.5 179.5l-1.2-2.3.2-.1c.4.7.6.6 1.2.3l3.9-2-.2-.4c-.5-.9-.7-1-1.7-.7l-.1-.2 1.3-.6 2.3 4.4-1.3.7-.1-.2c.8-.6.8-.9.3-1.8l-.2-.4-3.9 2.1c-.5.3-.6.5-.3 1.1l-.2.1zM16.3 185.3l-2.8-3.8.1-.1c.3.4.5.6 1.1.2l3.1-2.3c.6-.4.5-.6.2-1.1l.1-.1 2.7 3.8-1 .7-.1-.2c.6-.6.5-.8 0-1.6l-.7-1c-.1-.2-.2-.2-.4-.1l-1.6 1.1.8 1.1c.5.6.7.6 1.3.3l.1.2-1.7 1.2-.1-.2c.5-.5.5-.7.1-1.3l-.8-1.1-1.8 1.3c-.3.2-.3.2.5 1.3.6.9 1.1 1.1 2 .9l.2.2-1.3.6zM17.3 186.2l.1.1h.5v-.1l2.8-2.7c.5-.4.5-.6 0-1.1l.1-.1L23 184c1.4 1.5 1.7 3.2.3 4.5-.8.8-2.6 1.5-4.4-.4l-1.7-1.8.1-.1z" opacity=".99" fill="#E9CC1B" enable-background="new"/><path d="M18.8 187.1l-.1.1v.1c.4.4 1.9 2 3.7.2.5-.5.9-1.1.9-2 0-.6-.2-1.1-1-1.9-.3-.3-.4-.2-.5-.1l-3 3.6z" opacity=".99" fill="#005696" enable-background="new"/><path d="M29.7 191.9l-.2-.1c.3-.7.3-1.6-.5-2.2-.3-.3-.9-.3-1.2.2-.7 1.1 1.6 2.9.5 4.4-.4.6-1.4 1-2.4.3-.5-.4-.7-.9-1-1-.2-.1-.3 0-.4.1l-.2-.1.9-1.7.2.1c-.1.4-.4 1.6.6 2.3.6.4 1.1.2 1.4-.2.3-.4.3-.7-.3-2.1-.4-.9-.6-1.5-.1-2.2.6-.8 1.5-.8 2.2-.3.4.3.7.8.8.9.2.2.3 0 .4-.1l.2.1-.9 1.6zM32.1 197.9l-2.3-1.2.1-.1c.7.3.8.2 1.1-.4l2-3.9-.4-.2c-.9-.4-1.1-.4-1.8.3l-.2-.1.7-1.3 4.4 2.3-.6 1.4-.2-.1c.3-1 .1-1.2-.7-1.6l-.4-.2-2.1 4c-.3.5-.3.7.4 1.1zM39.1 200.7l-2.1-.8.1-.2c.3.1.6.2.7-.1.1-.1.1-.4 0-.6v-.9l-2.2-.8-.7.8c-.1.1-.2.2-.2.3-.1.3.3.5.4.5l-.1.2-1.6-.6.1-.2c.1 0 .3.1.5 0 .3-.1.7-.6 1-1l3.2-3.4.2.1.3 5.4c.1.7.1.8.5 1l-.1.3z" opacity=".99" fill="#E9CC1B" enable-background="new"/><path opacity=".99" fill="#005696" enable-background="new" d="M37.6 195.2l-1.8 1.9 1.9.7z"/><path d="M42.8 201.5l-2.5-.6v-.2c.8.1.9-.1 1-.7l1-4.3-.5-.1c-.9-.2-1.2-.1-1.6.8l-.2-.1.4-1.4 4.8 1.1-.3 1.5-.2-.1c.1-1-.2-1.2-1.1-1.4l-.5-.1-1 4.4c-.1.6-.1.8.6 1l.1.2zM49.6 202.3l-4.7-.4v-.2c.6 0 .8 0 .8-.7l.3-3.9c.1-.7-.1-.8-.7-.9v-.2l4.6.4-.1 1.2h-.2c-.1-.8-.3-1-1.2-1l-1.2-.1c-.2 0-.3 0-.3.3l-.2 1.9 1.4.1c.8.1.9-.1 1-.7h.2l-.2 2h-.2c-.1-.7-.2-.9-.9-.9l-1.4-.2-.2 2.2c0 .3 0 .3 1.3.5 1.1.1 1.6-.1 2-1h.3l-.4 1.6zM54.8 198.2h-.2c-.2-.7-.7-1.5-1.7-1.5-.4 0-.9.3-.9.9 0 1.3 3 1.4 3 3.2 0 .7-.5 1.6-1.8 1.6-.7 0-1.1-.3-1.4-.3-.2 0-.3.2-.3.3h-.2l-.3-1.8h.2c.2.4.7 1.5 1.8 1.5.7 0 1-.5 1-1s-.2-.8-1.5-1.5c-.8-.4-1.4-.8-1.4-1.7 0-1 .7-1.5 1.5-1.5.5 0 1 .3 1.2.3.3 0 .3-.2.3-.3h.2l.5 1.8zM58.6 199v-1.9l.1-.1.1-.1.1-.1.1-.1.1-.1.1-.1.1-.1.1-.1.1-.1.1-.1.1-.1.1-.1.1-.1.1-.1.1-.1.1-.1.1-.1.1-.1.1-.1.1-.1h.2c1.4-.3 3 .3 3.5 2.3.4 1.8-.6 3.2-2.1 3.6-1.7.6-3.2-.2-3.6-2z" opacity=".99" fill="#E9CC1B" enable-background="new"/><path d="M63.2 197.9l-.1-.2v-.2l-.1-.2-.1-.2-.1-.1-.1-.1-.1-.1-.1-.1-.1-.1-.1-.1-.1-.1-.1-.1-.1-.1-.1-.1-.1-.1-.1-.1-.1-.1-.1-.1-.1-.1H60.1c-.9.2-1.7 1.1-1.2 3.1.4 1.9 1.5 2.4 2.4 2.2 1.6-.2 2.3-1.1 1.9-3z" opacity=".99" fill="#005696" enable-background="new"/><path d="M68.8 196.8l-.1-.1v-.4H67.2l-1.2.5.7 1.8c.2.6.4.6 1 .4l.1.2-2.3.9-.1-.2c.6-.3.6-.4.4-1.1l-1.4-3.5c-.3-.6-.5-.6-1-.5l-.1-.2 4.4-1.7.5 1.1-.2.1c-.4-.7-.7-.7-1.6-.4l-1.1.4c-.2.1-.2.1-.2.4l.7 1.8 1.2-.5c.7-.3.7-.5.6-1.1l.2-.1.7 1.9.3.3zM78.1 193.9l-1.9 1.2-.1-.1c.3-.2.5-.3.3-.6l-.4-.4-.8-.5-1.9 1.2.2 1.1c0 .1.1.2.1.3.2.3.5.1.7 0l.1.1-1.5.9-.1-.1c.1-.1.2-.2.3-.4.1-.3-.1-1-.1-1.4l-.7-4.6.2-.1 4.5 3c.6.4.7.4 1.1.2v.2z" opacity=".99" fill="#E9CC1B" enable-background="new"/><path opacity=".99" fill="#005696" enable-background="new" d="M72.8 191.7l.4 2.6 1.8-1.1z"/><path d="M80.8 184.2l-.1.1v.2l2.6 2.9c.5.5.7.4 1.1.1l.1.1-1.8 1.6-.1-.1c.5-.5.5-.7 0-1.2L80 185l1.7 5.2-.1.1-4.8-2.1 2.3 2.6c.6.7.9.7 1.4.3l.1.1-1.5 1.4-.1-.1c.5-.5.5-.7-.1-1.4l-2.4-2.7c-.5-.5-.6-.4-1.1 0l-.1-.1 1.3-1.2 4.5 1.9-1.5-4.6 1.3-1.2-.1 1zM88.2 183.8l-3 3.7-.1-.1c.3-.5.4-.7-.1-1.1l-3-2.4c-.5-.4-.7-.3-1.1.1l-.1-.1 2.9-3.6 1 .8-.1.2c-.7-.4-1-.3-1.6.5l-.7.9c-.1.1-.2.2.1.4l1.5 1.2.9-1c.5-.6.4-.8-.1-1.3l.1-.2 1.6 1.3-.1.2c-.6-.3-.8-.3-1.3.2l-.9 1 1.7 1.4c.3.2.3.2 1.1-.8.7-.9.7-1.4.3-2.2l.2-.2.8 1.1zM91.9 177.8l-.7 1.2-3.4.4-.2.4 1.5.9c.5.3.7.3 1.1-.3l.1.1-1.2 2.1-.2-.1c.3-.6.2-.7-.4-1.1l-3.3-1.9c-.6-.3-.7-.3-1.1.2l-.1-.1 1.2-2.1c.4-.7 1.3-1.8 2.4-1.1 1 .6.6 1.7.5 2.1l2.8-.4c.3-.1.5-.2.7-.5l.3.2z" opacity=".99" fill="#E9CC1B" enable-background="new"/><path d="M87.3 179.7l.1-.1V179.3l.1-.1v-1.5.3V177.7h-.4c-1-.6-1.6.4-1.8.7-.2.4-.2.5 0 .6l2 .7z" opacity=".99" fill="#005696" enable-background="new"/><path d="M92.1 177l.1-.1v-.4h-.4l-3.5-1.6c-.6-.3-.7-.2-1.1.4l-.2-.1 1.1-2.3.2.1c-.2.6-.3.8.4 1.1l3.5 1.6c.6.3.8.1 1.1-.5l.2.1-1.1 2.4-.3-.7zM91.5 167.8H90.1l-.1.1h-.1l-.1.1-.1.1-.1.1-.1.1-.1.1-.1.1-.1.1-.1.1-.1.1v.1l-.1.1v.1l-.1.1v.2c-.1.4-.1 1 .1 1.4.2.4.6 1 1.8 1.4 1.8.6 2.8-.2 3.2-1.2.3-1-.1-1.8-.2-2.2l.2-.1s.8 1.1.3 2.6c-.4 1.3-1.7 2.5-3.8 1.8-1.9-.6-2.4-2.3-2-3.7.3-.7.7-1.2.8-1.4 0 0 .1-.3-.2-.5l.1-.2 1.9.5h.5zM96.6 161.6l-.3 2.2h-.2c.1-.3.1-.6-.2-.6-.1 0-.4 0-.6.1l-.9.2-.3 2.3 1 .6c.1.1.2.1.3.1.3.1.4-.3.4-.5h.2l-.3 1.7h-.2c0-.2 0-.3-.1-.5-.2-.2-.8-.6-1.1-.8l-4-2.5v-.2l5.2-1.4c.7-.2.8-.3.9-.7h.2z" opacity=".99" fill="#E9CC1B" enable-background="new"/><path opacity=".99" fill="#005696" enable-background="new" d="M91.5 164.1l2.2 1.4.3-2z"/></g><g><defs><filter id="a" filterUnits="userSpaceOnUse" x="113.9" y="198" width="56.5" height="7.1"><feColorMatrix values="1 0 0 0 0 0 1 0 0 0 0 0 1 0 0 0 0 0 1 0"/></filter></defs><mask maskUnits="userSpaceOnUse" x="113.9" y="198" width="56.5" height="7.1" id="b"><g filter="url(#a)"><g><ellipse cx="142.2" cy="201.6" rx="28.3" ry="3.5"/><ellipse cx="142.2" cy="201.6" rx="27.3" ry="3.4" fill="#070707"/><ellipse cx="142.2" cy="201.6" rx="26.2" ry="3.3" fill="#0D0D0D"/><ellipse cx="142.2" cy="201.6" rx="25.1" ry="3.2" fill="#141414"/><ellipse cx="142.2" cy="201.6" rx="24.1" ry="3" fill="#1B1B1B"/><ellipse cx="142.2" cy="201.6" rx="23.1" ry="2.9" fill="#212121"/><ellipse cx="142.2" cy="201.6" rx="22.1" ry="2.8" fill="#282828"/><ellipse cx="142.2" cy="201.6" rx="20.9" ry="2.7" fill="#2F2F2F"/><ellipse cx="142.2" cy="201.6" rx="19.9" ry="2.5" fill="#353535"/><ellipse cx="142.2" cy="201.6" rx="18.9" ry="2.4" fill="#3C3C3C"/><ellipse cx="142.2" cy="201.6" rx="17.9" ry="2.3" fill="#434343"/><ellipse cx="142.2" cy="201.6" rx="16.9" ry="2.2" fill="#494949"/><ellipse cx="142.2" cy="201.6" rx="15.7" ry="2" fill="#505050"/><ellipse cx="142.2" cy="201.6" rx="14.7" ry="1.9" fill="#565656"/><ellipse cx="142.2" cy="201.6" rx="13.7" ry="1.8" fill="#5D5D5D"/><ellipse cx="142.2" cy="201.6" rx="12.7" ry="1.6" fill="#646464"/><ellipse cx="142.2" cy="201.6" rx="11.7" ry="1.5" fill="#6A6A6A"/><ellipse cx="142.2" cy="201.6" rx="10.5" ry="1.4" fill="#717171"/><ellipse cx="142.2" cy="201.6" rx="9.5" ry="1.3" fill="#787878"/><ellipse cx="142.2" cy="201.6" rx="8.5" ry="1" fill="#7E7E7E"/><ellipse cx="142.2" cy="201.6" rx="7.5" ry=".9" fill="#858585"/><ellipse cx="142.2" cy="201.6" rx="6.5" ry=".8" fill="#8C8C8C"/><ellipse cx="142.2" cy="201.6" rx="5.3" ry=".6" fill="#929292"/><ellipse cx="142.2" cy="201.6" rx="4.3" ry=".5" fill="#999"/><ellipse cx="142.2" cy="201.6" rx="3.3" ry=".4" fill="#A0A0A0"/><ellipse cx="142.2" cy="201.6" rx="2.3" ry=".3" fill="#A6A6A6"/><ellipse cx="142.2" cy="201.6" rx="1.3" ry=".1" fill="#ADADAD"/></g></g></mask><ellipse cx="142.2" cy="201.6" rx="28.3" ry="3.5" mask="url(#b)" fill="#505050"/><g><path d="M142.2 201.6s-1.3-5.6-10.5-23.3c-9.4-17.6-22.7-25.1-22.7-42.2s14.8-30.9 33.2-30.9c18.3 0 33.1 13.8 33.1 30.9s-13.2 24.6-22.6 42.2c-9.2 17.7-10.5 23.3-10.5 23.3z" fill="#fff" stroke="#667767" stroke-width=".051" stroke-miterlimit="10"/><path d="M159.6 119.3l15.6 14.6c0 .6.1 1.4.1 2.2 0 17.1-13.2 24.6-22.4 42.1l-28.3-26.4 35-32.5z" fill="#B4B4B4" fill-opacity=".5"/><g><path d="M142.2 158.6c13.6 0 24.6-10.4 24.6-23.1s-11-23.1-24.6-23.1c-13.7.1-24.7 10.4-24.7 23.2 0 12.7 11 23 24.7 23z" fill="#667767"/><path d="M142.2 147.1c6.7 0 12.2-5.1 12.2-11.4 0-3-1.3-6-3.7-8.1-2.3-2.2-5.3-3.3-8.5-3.3-3.3 0-6.3 1.1-8.6 3.3-2.3 2.2-3.5 5.1-3.5 8.1s1.3 5.8 3.5 8c2.2 2.1 5.3 3.4 8.6 3.4z" fill="#fff"/><path d="M154.4 135.6c0-3-1.3-6-3.7-8.1l15.2 14.2c-2.3 7.9-8.9 13.9-17.2 16.1l-15.2-14.2c2.3 2.2 5.3 3.4 8.6 3.4 6.8.1 12.3-5.1 12.3-11.4z" fill="#414F40"/></g></g></g><g><path d="M214.1 203.6s-1.3-5.6-10.5-23.3c-9.4-17.6-22.6-25.1-22.6-42.3s14.9-31 33.1-31 33.1 13.8 33.1 31-13.2 24.6-22.6 42.4c-9.3 17.6-10.5 23.2-10.5 23.2z" fill="#676"/><path d="M231.4 121.2l15.6 14.6c0 .6.1 1.4.1 2.2 0 17.1-13.2 24.6-22.5 42.1l-28.3-26.4 35.1-32.5z" fill="#485448" fill-opacity=".5"/><g><path d="M214.1 160.7c13.6 0 24.8-10.4 24.8-23.1 0-12.8-11.2-23.1-24.8-23.1-13.6 0-24.6 10.3-24.6 23.1-.1 12.7 11 23.1 24.6 23.1z" fill="#fff"/><path d="M214.1 149c6.7 0 12.2-5.1 12.2-11.4 0-3-1.3-6-3.7-8.1-2.3-2.2-5.3-3.3-8.5-3.3-3.3 0-6.3 1.1-8.6 3.3-2.3 2.2-3.6 5.1-3.6 8.1s1.3 5.8 3.6 8 5.3 3.4 8.6 3.4z" fill="#676"/><path d="M226.2 137.6c0-3-1.3-6-3.7-8.1l15.2 14.2c-2.3 7.9-8.9 14-17.3 16.1l-15.2-14.2c2.3 2.2 5.3 3.4 8.6 3.4 7 0 12.4-5.2 12.4-11.4z" fill="#B4B4B4"/></g><defs><filter id="c" filterUnits="userSpaceOnUse" x="185.7" y="199.9" width="56.7" height="7.1"><feColorMatrix values="1 0 0 0 0 0 1 0 0 0 0 0 1 0 0 0 0 0 1 0"/></filter></defs><mask maskUnits="userSpaceOnUse" x="185.7" y="199.9" width="56.7" height="7.1" id="d"><g filter="url(#c)"><g><ellipse cx="214.1" cy="203.4" rx="28.3" ry="3.6"/><ellipse cx="214.1" cy="203.4" rx="27.3" ry="3.4" fill="#070707"/><ellipse cx="214.1" cy="203.4" rx="26.3" ry="3.3" fill="#0D0D0D"/><ellipse cx="214.1" cy="203.4" rx="25.2" ry="3.2" fill="#141414"/><ellipse cx="214.1" cy="203.4" rx="24.1" ry="3" fill="#1B1B1B"/><ellipse cx="214.1" cy="203.4" rx="23.1" ry="2.9" fill="#212121"/><ellipse cx="214.1" cy="203.4" rx="22.1" ry="2.8" fill="#282828"/><ellipse cx="214.1" cy="203.4" rx="21" ry="2.7" fill="#2F2F2F"/><ellipse cx="214.1" cy="203.4" rx="20" ry="2.5" fill="#353535"/><ellipse cx="214.1" cy="203.4" rx="18.9" ry="2.4" fill="#3C3C3C"/><ellipse cx="214.1" cy="203.4" rx="17.9" ry="2.3" fill="#434343"/><ellipse cx="214.1" cy="203.4" rx="16.9" ry="2.2" fill="#494949"/><ellipse cx="214.1" cy="203.4" rx="15.8" ry="2" fill="#505050"/><ellipse cx="214.1" cy="203.4" rx="14.7" ry="1.9" fill="#565656"/><ellipse cx="214.1" cy="203.4" rx="13.7" ry="1.8" fill="#5D5D5D"/><ellipse cx="214.1" cy="203.4" rx="12.7" ry="1.7" fill="#646464"/><ellipse cx="214.1" cy="203.4" rx="11.7" ry="1.5" fill="#6A6A6A"/><ellipse cx="214.1" cy="203.4" rx="10.5" ry="1.4" fill="#717171"/><ellipse cx="214.1" cy="203.4" rx="9.5" ry="1.3" fill="#787878"/><ellipse cx="214.1" cy="203.4" rx="8.5" ry="1" fill="#7E7E7E"/><ellipse cx="214.1" cy="203.4" rx="7.5" ry=".9" fill="#858585"/><ellipse cx="214.1" cy="203.4" rx="6.5" ry=".8" fill="#8C8C8C"/><ellipse cx="214.1" cy="203.4" rx="5.3" ry=".6" fill="#929292"/><ellipse cx="214.1" cy="203.4" rx="4.3" ry=".5" fill="#999"/><ellipse cx="214.1" cy="203.4" rx="3.3" ry=".4" fill="#A0A0A0"/><ellipse cx="214.1" cy="203.4" rx="2.3" ry=".3" fill="#A6A6A6"/><ellipse cx="214.1" cy="203.4" rx="1.3" ry=".1" fill="#ADADAD"/></g></g></mask><ellipse cx="214.1" cy="203.4" rx="28.3" ry="3.6" mask="url(#d)" fill="#505050"/></g><g><path d="M269.3 107l10.7 12.1h-17.9l10.6 12.1.1.1h-17.9l10.7 12.1 10.7 12.1 10.6 12.1h53.7l-10.7-12.1-.1-.1h17.9l-10.6-12.1H355l-10.7-12.1-10.7-12.1L323 107h-53.7z" fill="#D73F3F"/><path d="M326.5 137.4c0 11.1-9.6 20.2-21.6 20.2-12 0-21.6-9.1-21.6-20.2s9.6-20.2 21.6-20.2c11.9 0 21.6 9 21.6 20.2z" fill="#fff"/><g><path d="M292.9 138.8v6.8h-2.5v-15.4h2.5v6.4h3.6v-6.4h2.5v15.4h-2.5v-6.8h-3.6m11 1.9v1.3l.1.4.2.3c.1.2.3.4.7.7.3.1.7.2 1 .2s.7-.1 1-.2c.3-.1.5-.3.7-.7.1-.1.1-.2.1-.3s.1-.2.1-.4v-8.1c0-.1 0-.3-.1-.4l-.1-.3c-.1-.2-.3-.4-.7-.5-.3-.1-.5-.2-1-.2-.3 0-.7.1-1 .2-.3.1-.5.3-.7.5s-.2.4-.2.8v6.8m6.3-.1c0 .9-.1 1.6-.2 2.2s-.4 1.1-.8 1.5c-.8 1-2 1.5-3.5 1.5-1.6 0-2.8-.5-3.5-1.5-.3-.4-.5-1-.8-1.5-.1-.5-.2-1.3-.2-2.2v-5.6c0-.9.1-1.6.2-2.2.1-.5.4-1.1.8-1.5.8-1 2-1.5 3.5-1.5 1.6 0 2.8.5 3.5 1.5.3.4.5 1 .8 1.5.1.5.2 1.3.2 2.2v5.6m7.3 4.9h-2.5v-13.2h-3.2v-2.2h8.9v2.2h-3.2v13.2" fill="#D73F3F"/></g></g></svg>