<?xml version="1.0" encoding="utf-8"?>
<!-- Generator: Adobe Illustrator 17.0.0, SVG Export Plug-In . SVG Version: 6.00 Build 0)  -->
<!DOCTYPE svg PUBLIC "-//W3C//DTD SVG 1.1//EN" "http://www.w3.org/Graphics/SVG/1.1/DTD/svg11.dtd">
<svg version="1.1" id="Layer_1" xmlns="http://www.w3.org/2000/svg" xmlns:xlink="http://www.w3.org/1999/xlink" x="0px" y="0px"
	 width="99.2px" height="98px" viewBox="0 0 99.2 98" style="enable-background:new 0 0 99.2 98;" xml:space="preserve">
<g>
	<path style="fill:#667766;" d="M49.6,98C22.2,98,0,76,0,49C0,22,22.2,0,49.6,0c27.3,0,49.6,22,49.6,49C99.2,76,76.9,98,49.6,98z
		 M49.6,12.4c-20.4,0-37.1,16.4-37.1,36.6c0,20.2,16.6,36.6,37.1,36.6C70,85.6,86.7,69.2,86.7,49C86.7,28.8,70,12.4,49.6,12.4z"/>
	<g>
		<path style="fill-rule:evenodd;clip-rule:evenodd;fill:#667766;" d="M47.4,46.9c-0.3-1,0-2.1-0.6-2.9c-1.3-1.7-3,0.3-4.4,0.7
			c-2.5,0.6-3.9-1.8-3.4-4.2c0.3-1.5,1.3-2.4,2.5-3.1c1.1-0.6,2.4-1,3.6-1.5c0.5-0.2,1.1-0.4,1.6-0.4c1.5,0,3.7,2.8,4.5,2.5
			c0.9-0.3-0.2-1.9-0.2-2.5c0-1.9,1.9-3.4,2.5-5.2c0.5-1.7,1.2-3.8,2.7-4.8c1.9-1.3,4.2-1.8,6.1-2.9c2.7-1.5-8.7-10-11.5-9.6
			c-2.7,0.3-1.3,2.2-1.1,4c0.5,4.3-4.9,0-4.9,4.3c0-0.4-1.4-3.3-1.7-3.8c-1.3-2.1-2.5-1-4.4-0.3c-2.1,0.7-4.4-0.4-5-2.7
			c-0.5-2,1.2-4.6-1.9-5.2c-2.8-0.5-6.1,0.5-8.7,1.4c-1.8,0.6-5.1,4-3.2,6.1c2.7,2.8,0,0,2.7,2.3c2.2,1.9,1.6,7.1,1.3,9.6
			c-0.7,5.5,3.4,9.2,7.2,12.5c5.8,5.1,12.9,8.2,19.9,11.2c-0.5-0.2-0.7-2.2-1-2.7c-0.6-0.9-1.5-1.3-2.3-2.1
			C47.7,47.5,47.5,47.2,47.4,46.9z"/>
		<path style="fill-rule:evenodd;clip-rule:evenodd;fill:#667766;" d="M86.6,65.8c-0.3-4.3-4.9-7.7-8-10.2c-3.6-2.9-8-5.2-12.5-6.3
			c-2.7-0.7-11.9-1.8-12.9,2.4c-0.2,1,1.3,2.3,0.9,3.6c-0.6,1.8-2,3.2-2.6,5c-1,3.2,1.2,10.2,3.7,12.5c2.5,2.2,5,3.5,4.6,7.3
			c-0.5,4.3-3,8.2-3.3,12.6c-0.1,1.8,1,6.2,3.6,3.9c1.1-1,1.4-2.6,2.2-3.8c0.8-1.4,2-2.6,3.2-3.6c2.5-2.2,5.4-4,7.9-6.2
			c4.5-4.2,11.6-8.6,13.1-15C86.6,67,86.6,66.4,86.6,65.8z"/>
	</g>
</g>
</svg>
